<?xml version="1.0" encoding="utf-8"?>
<!-- Generator: Adobe Illustrator 24.1.0, SVG Export Plug-In . SVG Version: 6.00 Build 0)  -->
<svg version="1.1" id="Layer_1" xmlns="http://www.w3.org/2000/svg" xmlns:xlink="http://www.w3.org/1999/xlink" x="0px" y="0px"
	 viewBox="0 0 62 48.74" style="enable-background:new 0 0 62 48.74;" xml:space="preserve">
<style type="text/css">
	.st0{fill:#FFFFFF;}
	.st1{fill:#E15A34;}
	.st2{fill:#7091E8;}
	.st3{fill:#E3998E;}
	.st4{fill:#00E7BF;}
	.st5{fill:#C4C4C4;}
	.st6{fill:#E2998E;}
	.st7{fill:none;stroke:#FFFFFF;stroke-width:2.3;stroke-miterlimit:10;}
	.st8{fill:none;stroke:#7091E8;stroke-width:2.3;stroke-miterlimit:10;}
	.st9{fill:none;stroke:#000000;stroke-width:2.3;stroke-miterlimit:10;}
</style>
<path class="st6" d="M0,28.65c0-2.83,0-5.52,0-8.29c0.24-0.01,0.48-0.04,0.73-0.03c3.45,0.04,6.89,0.09,10.34,0.14
	c1.84,0.03,3.67,0.09,5.51,0.13c2.23,0.05,4.45,0.09,6.68,0.14c2.25,0.05,4.5,0.09,6.75,0.14c2.3,0.05,4.59,0.09,6.89,0.14
	c1.9,0.04,3.81,0.09,5.71,0.13c2.16,0.05,4.31,0.08,6.47,0.14c0.94,0.02,1.87,0.09,2.81,0.13c0.22,0.01,0.44-0.02,0.68-0.12
	C43.6,17.6,35.37,12.61,27.2,7.26c2.23-2.45,4.4-4.83,6.62-7.26c0.99,0.75,1.99,1.5,2.99,2.27c4.05,3.11,8.1,6.21,12.15,9.32
	c4.21,3.23,8.43,6.46,12.63,9.71c0.21,0.16,0.38,0.52,0.39,0.79c0.04,1.52,0.04,3.04,0,4.56c-0.01,0.29-0.2,0.66-0.42,0.84
	c-4.07,3.15-8.16,6.28-12.25,9.42c-4.91,3.77-9.81,7.54-14.72,11.3c-0.25,0.19-0.53,0.36-0.78,0.53c-2.18-2.39-4.33-4.75-6.59-7.22
	c8.07-5.3,16.23-10.27,25.14-14.01c-0.21,0-0.42,0-0.63,0c-3.72,0.05-7.45,0.09-11.17,0.15c-1.61,0.02-3.21,0.09-4.82,0.12
	c-2.69,0.06-5.37,0.1-8.06,0.15c-1.93,0.04-3.86,0.09-5.78,0.13c-2.41,0.05-4.82,0.1-7.23,0.15c-2.07,0.04-4.13,0.09-6.2,0.14
	c-2.2,0.05-4.41,0.08-6.61,0.14C1.26,28.5,0.68,28.59,0,28.65z"/>
</svg>
