<svg width="375" height="208" viewBox="0 0 375 208" fill="none" xmlns="http://www.w3.org/2000/svg">
<g clip-path="url(#clip0)">
<path d="M0.00400913 41.0188H9.47262C9.39055 48.3959 18.4488 52.949 31.1591 52.949C46.4443 52.8671 54.7537 49.7158 54.7537 43.0856C54.7537 26.0192 1.08115 42.5024 1.08115 17.8134C1.09141 6.12878 13.3811 0 31.0873 0C50.0348 0 62.5809 7.62261 62.7451 19.6448H53.1944C53.2765 12.1859 44.2182 7.71469 31.59 7.71469C17.9667 7.71469 10.6523 10.9479 10.6523 16.7493C10.6523 31.5034 64.1608 16.0842 64.1608 42.6866C64.1608 54.5349 50.9478 60.6739 31.8362 60.6739C12.2219 60.6637 -0.242195 52.7034 0.00400913 41.0188Z" fill="#969696"/>
<path d="M78.8615 1.33012H88.3301L134.781 48.0685V1.33012H144.085V59.3438H134.534L88.1762 12.6873V59.3438H78.8718V1.33012H78.8615Z" fill="#969696"/>
<path d="M158.796 30.3267C158.796 12.0939 172.84 0 195.521 0C218.285 0 232.329 12.0939 232.329 30.3267C232.329 48.5596 218.285 60.6535 195.521 60.6535C172.84 60.6637 158.796 48.5596 158.796 30.3267ZM223.024 30.3267C223.024 16.3195 211.976 7.70446 195.521 7.70446C179.148 7.70446 168.1 16.3195 168.1 30.3267C168.1 44.2521 179.148 52.949 195.521 52.949C211.976 52.949 223.024 44.2521 223.024 30.3267Z" fill="#969696"/>
<path d="M237.653 1.33012H247.296L264.499 48.314L281.118 1.33012H288.925L305.544 48.314L322.737 1.33012H332.462L310.94 59.3438H301.133L285.098 12.6054L268.982 59.3336H259.175L237.653 1.33012Z" fill="#969696"/>
<path d="M0.0041312 114.687H9.47274C9.39067 122.064 18.4489 126.617 31.1592 126.617C46.4444 126.535 54.7538 123.384 54.7538 116.754C54.7538 99.6873 1.08128 116.171 1.08128 91.4815C1.09153 79.7969 13.3812 73.6682 31.0874 73.6682C50.0349 73.6682 62.5811 81.2908 62.7452 93.313H53.1945C53.2766 85.8541 44.2183 81.3829 31.5901 81.3829C17.9668 81.3829 10.6525 84.6161 10.6525 90.4174C10.6525 105.172 64.1609 89.7524 64.1609 116.355C64.1609 128.203 50.9479 134.342 31.8363 134.342C12.222 134.332 -0.242073 126.372 0.0041312 114.687Z" fill="#969696"/>
<path d="M78.8615 74.9983H88.166V99.2781H129.795V74.9983H139.1V133.012H129.795V106.993H88.166V133.012H78.8615V74.9983Z" fill="#969696"/>
<path d="M157.216 103.995C157.216 85.762 171.26 73.6682 193.941 73.6682C216.705 73.6682 230.749 85.762 230.749 103.995C230.749 122.228 216.705 134.322 193.941 134.322C171.26 134.332 157.216 122.228 157.216 103.995ZM221.444 103.995C221.444 89.9877 210.396 81.3726 193.941 81.3726C177.569 81.3726 166.52 89.9877 166.52 103.995C166.52 117.92 177.569 126.617 193.941 126.617C210.396 126.617 221.444 117.92 221.444 103.995Z" fill="#969696"/>
<path d="M239.397 74.9983H249.04L266.243 121.982L282.862 74.9983H290.669L307.288 121.982L324.481 74.9983H334.206L312.684 133.012H302.876L286.842 86.2736L270.726 133.012H260.919L239.397 74.9983Z" fill="#969696"/>
<path d="M3.74841 148.666H46.3725C58.416 148.666 65.0636 155.133 65.0636 163.994C65.0636 172.527 58.7443 176.589 48.9474 177.172C59.8317 177.417 66.9819 182.226 66.9819 191.261C66.9819 200.541 59.5034 206.67 48.2088 206.67H3.74841V148.666ZM43.4591 174.348C51.4402 174.348 55.7591 171.616 55.7591 165.559C55.7591 159.256 51.4402 156.361 43.4591 156.361H12.9708L13.0529 174.348H43.4591ZM45.2954 198.884C53.2765 198.884 57.5954 195.814 57.5954 189.184C57.5954 182.881 53.2765 180.068 45.2954 180.068H13.0529L13.135 198.884H45.2954Z" fill="#969696"/>
<path d="M74.4603 177.663C74.4603 159.43 88.5042 147.336 111.186 147.336C133.949 147.336 147.993 159.43 147.993 177.663C147.993 195.896 133.949 207.99 111.186 207.99C88.5042 208 74.4603 195.896 74.4603 177.663ZM138.689 177.663C138.689 163.656 127.64 155.041 111.186 155.041C94.8132 155.041 83.7648 163.656 83.7648 177.663C83.7648 191.588 94.8132 200.285 111.186 200.285C127.64 200.285 138.689 191.588 138.689 177.663Z" fill="#969696"/>
<path d="M155.564 177.663C155.564 159.43 169.608 147.336 192.29 147.336C215.053 147.336 229.097 159.43 229.097 177.663C229.097 195.896 215.053 207.99 192.29 207.99C169.598 208 155.564 195.896 155.564 177.663ZM219.783 177.663C219.783 163.656 208.734 155.041 192.28 155.041C175.907 155.041 164.859 163.656 164.859 177.663C164.859 191.588 175.907 200.285 192.28 200.285C208.734 200.285 219.783 191.588 219.783 177.663Z" fill="#969696"/>
<path d="M240.648 148.666H249.953V184.549L292.167 148.666H304.959L280.78 168.802L306.703 206.67H295.49L273.804 174.43L249.953 194.238V206.67H240.648V148.666Z" fill="#969696"/>
<path d="M310.858 188.355H320.326C320.244 195.732 329.302 200.285 342.013 200.285C357.298 200.203 365.607 197.052 365.607 190.422C365.607 173.356 311.935 189.839 311.935 165.15C311.935 153.465 324.235 147.336 341.931 147.336C360.878 147.336 373.424 154.959 373.588 166.981H364.038C364.12 159.522 355.062 155.051 342.433 155.051C328.81 155.051 321.496 158.284 321.496 164.086C321.496 178.84 375.004 163.421 375.004 190.023C375.004 201.871 361.791 208.01 342.68 208.01C323.076 208 310.611 200.04 310.858 188.355Z" fill="#969696"/>
<path d="M184.38 26.9605C185.706 26.9605 186.781 25.8886 186.781 24.5663C186.781 23.244 185.706 22.1721 184.38 22.1721C183.054 22.1721 181.98 23.244 181.98 24.5663C181.98 25.8886 183.054 26.9605 184.38 26.9605Z" fill="black"/>
<path d="M210.324 35.2175C213.304 35.2175 215.72 33.5867 215.72 31.575C215.72 29.5633 213.304 27.9325 210.324 27.9325C207.344 27.9325 204.928 29.5633 204.928 31.575C204.928 33.5867 207.344 35.2175 210.324 35.2175Z" fill="#E2998E"/>
<path d="M210.324 35.5244C207.175 35.5244 204.62 33.7543 204.62 31.575C204.62 29.3956 207.175 27.6256 210.324 27.6256C213.474 27.6256 216.028 29.3956 216.028 31.575C216.028 33.7543 213.463 35.5244 210.324 35.5244ZM210.324 28.2497C207.513 28.2497 205.236 29.7435 205.236 31.5852C205.236 33.4269 207.524 34.9208 210.324 34.9208C213.125 34.9208 215.412 33.4269 215.412 31.5852C215.412 29.7435 213.125 28.2497 210.324 28.2497Z" fill="#E2998E"/>
<path d="M182.392 36.9361C185.365 36.7242 187.658 34.9257 187.514 32.919C187.37 30.9124 184.844 29.4575 181.871 29.6694C178.899 29.8813 176.605 31.6798 176.749 33.6865C176.893 35.6931 179.419 37.1481 182.392 36.9361Z" fill="#E2998E"/>
<path d="M181.826 37.2638C178.954 37.2638 176.594 35.7495 176.44 33.7134C176.286 31.5443 178.707 29.6002 181.847 29.3751C184.975 29.15 187.663 30.736 187.817 32.9051C187.971 35.0742 185.55 37.0182 182.411 37.2433C182.216 37.2535 182.011 37.2638 181.826 37.2638ZM177.056 33.6725C177.189 35.5039 179.579 36.834 182.37 36.6294C185.17 36.435 187.335 34.7775 187.212 32.946C187.078 31.1145 184.688 29.7742 181.898 29.989C179.087 30.1834 176.922 31.841 177.056 33.6725Z" fill="#E2998E"/>
<path d="M205.81 25.5997C207.136 25.5997 208.211 24.5278 208.211 23.2055C208.211 21.8832 207.136 20.8113 205.81 20.8113C204.485 20.8113 203.41 21.8832 203.41 23.2055C203.41 24.5278 204.485 25.5997 205.81 25.5997Z" fill="black"/>
<path d="M195.306 39.699C187.571 39.699 181.375 35.4733 181.282 35.4119L182.688 33.3962C183.262 33.7953 196.742 42.9322 207.954 31.8206L209.688 33.5599C204.979 38.2256 199.871 39.699 195.306 39.699Z" fill="black"/>
<path d="M215.91 181.678C216.014 179.669 213.684 177.917 210.708 177.764C207.732 177.612 205.236 179.118 205.132 181.127C205.029 183.136 207.358 184.888 210.334 185.04C213.311 185.192 215.807 183.687 215.91 181.678Z" fill="#E2998E"/>
<path d="M210.755 185.572C210.611 185.572 210.458 185.572 210.314 185.562C207.062 185.398 204.508 183.403 204.631 181.111C204.754 178.829 207.483 177.1 210.745 177.264C213.997 177.428 216.551 179.423 216.428 181.715C216.366 182.861 215.669 183.894 214.469 184.621C213.443 185.235 212.13 185.572 210.755 185.572ZM210.293 178.287C207.78 178.287 205.728 179.535 205.646 181.173C205.554 182.891 207.678 184.406 210.365 184.549C211.709 184.621 212.971 184.334 213.945 183.751C214.848 183.209 215.371 182.472 215.412 181.674C215.505 179.955 213.381 178.441 210.694 178.297C210.55 178.287 210.427 178.287 210.293 178.287Z" fill="#E2998E"/>
<path d="M176.898 185.291C179.877 185.232 182.26 183.553 182.219 181.542C182.179 179.53 179.731 177.948 176.751 178.008C173.772 178.068 171.389 179.747 171.43 181.758C171.47 183.769 173.918 185.351 176.898 185.291Z" fill="#E2998E"/>
<path d="M176.738 185.807C173.558 185.807 170.962 184.027 170.921 181.776C170.88 179.484 173.486 177.571 176.748 177.51C179.979 177.448 182.688 179.249 182.739 181.541C182.78 183.833 180.174 185.746 176.912 185.807C176.851 185.807 176.789 185.807 176.738 185.807ZM171.947 181.746C171.988 183.464 174.163 184.835 176.892 184.774C179.579 184.723 181.744 183.27 181.713 181.551C181.682 179.832 179.508 178.482 176.769 178.523C174.071 178.584 171.906 180.027 171.947 181.746Z" fill="#E2998E"/>
<path d="M193.008 191.026L185.109 185.603L186.565 183.495L193.028 187.936L199.727 183.485L201.153 185.613L193.008 191.026Z" fill="black"/>
<path d="M205 100.731C206.326 100.731 207.401 99.659 207.401 98.3368C207.401 97.0145 206.326 95.9425 205 95.9425C203.674 95.9425 202.6 97.0145 202.6 98.3368C202.6 99.659 203.674 100.731 205 100.731Z" fill="black"/>
<path d="M180.082 112.068C183.062 112.068 185.478 110.437 185.478 108.425C185.478 106.414 183.062 104.783 180.082 104.783C177.102 104.783 174.686 106.414 174.686 108.425C174.686 110.437 177.102 112.068 180.082 112.068Z" fill="#E2998E"/>
<path d="M180.082 112.364C176.933 112.364 174.378 110.594 174.378 108.415C174.378 106.236 176.933 104.466 180.082 104.466C183.231 104.466 185.786 106.236 185.786 108.415C185.786 110.594 183.231 112.364 180.082 112.364ZM180.082 105.09C177.271 105.09 174.994 106.584 174.994 108.425C174.994 110.267 177.282 111.761 180.082 111.761C182.883 111.761 185.17 110.267 185.17 108.425C185.17 106.584 182.893 105.09 180.082 105.09Z" fill="#E2998E"/>
<path d="M213.67 110.532C213.813 108.525 211.52 106.727 208.547 106.515C205.575 106.303 203.048 107.758 202.905 109.765C202.761 111.771 205.054 113.57 208.027 113.782C210.999 113.994 213.526 112.539 213.67 110.532Z" fill="#E2998E"/>
<path d="M208.58 114.103C208.385 114.103 208.19 114.093 207.995 114.083C204.856 113.858 202.435 111.914 202.589 109.745C202.743 107.576 205.431 105.99 208.56 106.215C211.699 106.44 214.12 108.384 213.966 110.553C213.822 112.589 211.463 114.103 208.58 114.103ZM207.965 106.808C205.41 106.808 203.328 108.077 203.205 109.786C203.071 111.617 205.246 113.275 208.047 113.469C210.837 113.663 213.227 112.344 213.361 110.512C213.494 108.681 211.319 107.023 208.519 106.829C208.324 106.818 208.139 106.808 207.965 106.808Z" fill="#E2998E"/>
<path d="M184.596 99.3702C185.922 99.3702 186.996 98.2982 186.996 96.9759C186.996 95.6537 185.922 94.5817 184.596 94.5817C183.27 94.5817 182.195 95.6537 182.195 96.9759C182.195 98.2982 183.27 99.3702 184.596 99.3702Z" fill="black"/>
<path d="M202.199 114.308C201.625 114.308 201.02 114.257 200.414 114.124C198.024 113.613 195.973 112.098 194.3 109.612C192.382 111.914 190.176 113.214 187.745 113.469C183.17 113.95 179.579 110.523 179.426 110.369L181.139 108.609C181.169 108.64 184.083 111.392 187.489 111.024C189.643 110.789 191.633 109.336 193.377 106.717L195.49 106.829C196.957 109.622 198.773 111.27 200.897 111.72C204.261 112.446 207.431 110.001 207.462 109.97L208.991 111.894C208.868 112.017 205.913 114.308 202.199 114.308Z" fill="black"/>
<path d="M194.988 108.118L193.767 108.057C193.305 107.607 191.828 106.051 191.89 104.783C191.931 104.077 192.238 103.422 192.762 102.951C193.285 102.481 193.972 102.235 194.68 102.276C195.388 102.317 196.044 102.624 196.516 103.146C196.988 103.667 197.234 104.353 197.193 105.059C197.132 106.317 195.49 107.719 194.988 108.118ZM193.736 104.865C193.746 105.079 194.064 105.591 194.485 106.103C194.957 105.632 195.326 105.161 195.357 104.957C195.367 104.742 195.295 104.537 195.152 104.384C195.008 104.22 194.813 104.128 194.598 104.118C194.393 104.097 194.177 104.179 194.013 104.322C193.849 104.455 193.746 104.66 193.736 104.865Z" fill="black"/>
<path d="M203.472 174.594C204.797 174.594 205.872 173.522 205.872 172.199C205.872 170.877 204.797 169.805 203.472 169.805C202.146 169.805 201.071 170.877 201.071 172.199C201.071 173.522 202.146 174.594 203.472 174.594Z" fill="black"/>
<path d="M183.016 174.624C184.342 174.624 185.416 173.552 185.416 172.23C185.416 170.908 184.342 169.836 183.016 169.836C181.69 169.836 180.615 170.908 180.615 172.23C180.615 173.552 181.69 174.624 183.016 174.624Z" fill="black"/>
<path d="M196.865 33.519L195.511 32.2605L199.173 28.3418C199.317 28.1781 199.286 28.0144 199.255 27.9223C199.224 27.8302 199.132 27.687 198.917 27.6665L194.824 27.3288L194.977 25.4974L199.071 25.835C199.932 25.9066 200.671 26.4489 200.979 27.2572C201.297 28.0655 201.122 28.9557 200.527 29.59L196.865 33.519Z" fill="black"/>
<path d="M196.63 21.1592L194.785 21.2373L195.005 26.4099L196.849 26.3318L196.63 21.1592Z" fill="black"/>
<path d="M194.3 182.185V180.651C195.921 180.651 197.286 179.72 197.286 178.615C197.286 177.51 195.921 176.578 194.3 176.578C194.116 176.578 193.931 176.589 193.757 176.609L192.946 176.712L192.526 170.736L194.064 170.634L194.372 175.044C196.834 175.074 198.824 176.66 198.824 178.604C198.824 180.579 196.793 182.185 194.3 182.185Z" fill="black"/>
</g>
<defs>
<clipPath id="clip0">
<rect width="375" height="208" fill="white"/>
</clipPath>
</defs>
</svg>
