<svg width="179" height="334" viewBox="0 0 179 334" fill="none" xmlns="http://www.w3.org/2000/svg">
<path d="M157.28 68.0901V1H195.583V68.0901H157.28Z" stroke="#7091E8" stroke-width="2"/>
<path d="M53.5886 100.488L16.9551 45.1603L50.1249 22.1657L86.7584 77.4938L53.5886 100.488Z" stroke="#7091E8" stroke-width="2"/>
<path d="M62.071 302.663L62.0703 302.663C23.0203 281.305 1.82764 253.505 1.82764 224.521C1.82764 191.71 27.7813 164.627 63.1611 145.68C98.49 126.761 142.891 116.15 179.079 116.15C215.352 116.15 259.869 126.772 295.292 145.703C330.768 164.661 356.793 191.755 356.793 224.565C356.793 257.374 330.768 284.458 295.298 303.405C259.879 322.324 215.373 332.935 179.121 332.935C141.027 332.935 96.1556 321.34 62.071 302.663ZM230.537 164.157L230.599 163.332L229.8 163.116C211.531 158.18 193.275 155.483 179.079 155.483C164.542 155.483 146.411 158.357 128.776 163.161L127.979 163.378L128.042 164.201C130.139 191.781 152.275 213.617 179.289 213.617C206.347 213.617 228.44 191.736 230.537 164.157ZM89.652 179.218L89.3953 177.915L88.214 178.521C62.9108 191.516 48.648 207.584 48.648 224.565C48.648 233.996 53.1337 243.162 61.5039 251.649C69.8701 260.132 82.1661 267.991 97.943 274.852C123.151 285.834 155.75 293.208 179.079 293.208C202.576 293.208 235.3 285.835 260.592 274.853L260.194 273.935L260.593 274.853C276.391 267.991 288.708 260.132 297.085 251.649C305.466 243.163 309.952 233.996 309.931 224.562C309.93 215.06 305.627 206.397 298.561 198.698C291.499 191.004 281.632 184.219 270.365 178.434L269.182 177.826L268.926 179.131C260.39 222.713 223.429 255.541 179.289 255.541C135.191 255.541 98.2299 222.757 89.652 179.218Z" stroke="#7091E8" stroke-width="2"/>
</svg>
