<svg width="360" height="680" viewBox="0 0 360 680" fill="none" xmlns="http://www.w3.org/2000/svg">
<rect x="-14" width="387" height="680" fill="#232323"/>
<path d="M43.006 130.224C46.226 130.224 48.452 129.188 48.452 127.186C48.452 122.692 39.436 125.296 39.436 122.804C39.436 121.824 40.668 121.278 42.964 121.278C45.092 121.278 46.618 122.034 46.604 123.294H48.214C48.186 121.264 46.072 119.976 42.88 119.976C39.898 119.976 37.826 121.012 37.826 122.986C37.826 127.158 46.87 124.372 46.87 127.256C46.87 128.376 45.47 128.908 42.894 128.922C40.752 128.922 39.226 128.152 39.24 126.906H37.644C37.602 128.88 39.702 130.224 43.006 130.224ZM52.4698 130.14C53.2258 130.14 53.7578 130.056 54.2618 129.86V129.118C53.9538 129.132 53.6738 129.146 53.4358 129.146C51.9378 129.146 51.9378 128.768 51.9378 127.06V124.12H54.2618V123H51.9378V121.04L50.6638 121.32V123H49.2498V124.12H50.3698V127.48C50.3698 129.482 50.6498 130.14 52.4698 130.14ZM63.4235 123H61.8555V124.722C61.8555 127.396 60.8335 129.048 59.1255 129.048C57.6695 129.048 57.0395 128.04 57.0395 125.8V123H55.4715V126.038C55.4715 128.866 56.4515 130.196 58.4535 130.224C60.4975 130.224 61.5895 128.754 61.8555 127.116H61.9395L61.6595 130H63.4235V123ZM68.6147 130.224C70.3647 130.224 72.2127 129.496 72.5627 127.718H72.7307L72.4227 130H74.0467V120.2H72.4787V125.268H72.4227C72.0727 123.532 70.3787 122.776 68.6427 122.776C66.6967 122.776 64.9327 124.246 64.9327 126.444C64.9327 128.712 66.6827 130.224 68.6147 130.224ZM69.2727 129.062C67.5927 129.062 66.5287 128.012 66.5287 126.472C66.5287 124.974 67.5927 123.938 69.2727 123.938C70.7707 123.938 72.0447 124.974 72.0447 126.472C72.0447 128.012 70.7707 129.062 69.2727 129.062ZM77.0502 121.474C77.6522 121.474 78.0862 121.138 78.0862 120.508C78.0862 119.892 77.6522 119.542 77.0502 119.542C76.4622 119.542 76.0422 119.892 76.0422 120.508C76.0422 121.138 76.4622 121.474 77.0502 121.474ZM76.2942 130H77.8622V123H76.2942V130ZM83.888 130.224C86.506 130.224 88.228 128.74 88.228 126.5C88.228 124.26 86.506 122.776 83.888 122.776C81.284 122.776 79.562 124.26 79.562 126.5C79.562 128.74 81.284 130.224 83.888 130.224ZM83.888 129.062C82.152 129.062 80.99 128.026 80.99 126.5C80.99 124.974 82.152 123.938 83.888 123.938C85.638 123.938 86.8 124.974 86.8 126.5C86.8 128.026 85.638 129.062 83.888 129.062ZM99.0744 130.224C102.294 130.224 104.52 129.188 104.52 127.186C104.52 122.692 95.5044 125.296 95.5044 122.804C95.5044 121.824 96.7364 121.278 99.0324 121.278C101.16 121.278 102.686 122.034 102.672 123.294H104.282C104.254 121.264 102.14 119.976 98.9484 119.976C95.9664 119.976 93.8944 121.012 93.8944 122.986C93.8944 127.158 102.938 124.372 102.938 127.256C102.938 128.376 101.538 128.908 98.9624 128.922C96.8204 128.922 95.2944 128.152 95.3084 126.906H93.7124C93.6704 128.88 95.7704 130.224 99.0744 130.224ZM106.19 130H107.758V128.278C107.758 125.604 108.78 123.952 110.488 123.952C111.944 123.952 112.574 124.96 112.574 127.2V130H114.142V126.962C114.142 124.134 113.162 122.804 111.16 122.776C109.116 122.776 108.024 124.246 107.758 125.884H107.674L107.954 123H106.19V130ZM119.736 130.224C122.354 130.224 124.076 128.74 124.076 126.5C124.076 124.26 122.354 122.776 119.736 122.776C117.132 122.776 115.41 124.26 115.41 126.5C115.41 128.74 117.132 130.224 119.736 130.224ZM119.736 129.062C118 129.062 116.838 128.026 116.838 126.5C116.838 124.974 118 123.938 119.736 123.938C121.486 123.938 122.648 124.974 122.648 126.5C122.648 128.026 121.486 129.062 119.736 129.062ZM127.367 130H129.691L131.343 125.716L133.107 130H135.431L138.427 123H136.915L134.339 129.062L131.777 123H130.881L128.459 129.062L125.883 123H124.371L127.367 130ZM148.977 130.224C152.197 130.224 154.423 129.188 154.423 127.186C154.423 122.692 145.407 125.296 145.407 122.804C145.407 121.824 146.639 121.278 148.935 121.278C151.063 121.278 152.589 122.034 152.575 123.294H154.185C154.157 121.264 152.043 119.976 148.851 119.976C145.869 119.976 143.797 121.012 143.797 122.986C143.797 127.158 152.841 124.372 152.841 127.256C152.841 128.376 151.441 128.908 148.865 128.922C146.723 128.922 145.197 128.152 145.211 126.906H143.615C143.573 128.88 145.673 130.224 148.977 130.224ZM156.092 130H157.66V128.278C157.66 125.604 158.682 123.952 160.39 123.952C161.846 123.952 162.476 124.96 162.476 127.2V130H164.044V126.962C164.044 124.134 163.064 122.804 161.062 122.776C159.018 122.776 157.926 124.246 157.66 125.884H157.576L157.856 120.2H156.092V130ZM169.501 130.224C172.119 130.224 173.841 128.74 173.841 126.5C173.841 124.26 172.119 122.776 169.501 122.776C166.897 122.776 165.175 124.26 165.175 126.5C165.175 128.74 166.897 130.224 169.501 130.224ZM169.501 129.062C167.765 129.062 166.603 128.026 166.603 126.5C166.603 124.974 167.765 123.938 169.501 123.938C171.251 123.938 172.413 124.974 172.413 126.5C172.413 128.026 171.251 129.062 169.501 129.062ZM177.133 130H179.457L181.109 125.716L182.873 130H185.197L188.193 123H186.681L184.105 129.062L181.543 123H180.647L178.225 129.062L175.649 123H174.137L177.133 130ZM194.71 121.474C195.312 121.474 195.746 121.138 195.746 120.508C195.746 119.892 195.312 119.542 194.71 119.542C194.122 119.542 193.702 119.892 193.702 120.508C193.702 121.138 194.122 121.474 194.71 121.474ZM193.954 130H195.522V123H193.954V130ZM201.282 130.224C203.746 130.224 205.398 129.538 205.398 127.97C205.398 124.918 198.804 126.598 198.804 124.876C198.804 124.246 199.602 123.924 201.436 123.924C202.486 123.924 203.844 124.078 204.838 124.288V123.168C203.62 122.93 202.178 122.776 201.338 122.776C198.874 122.776 197.222 123.532 197.222 125.058C197.222 128.138 203.802 126.29 203.802 128.082C203.802 128.838 202.962 129.062 201.016 129.062C199.784 129.062 198.706 128.908 197.53 128.46V129.678C198.692 130.014 200.204 130.224 201.282 130.224ZM213.471 130.224C215.613 130.224 217.321 129.412 217.741 127.494H217.839L217.419 130H219.001V126.052C219.001 124.092 218.049 122.776 215.599 122.776C214.367 122.776 212.925 123.098 211.749 123.532V124.722C212.687 124.316 213.947 123.924 215.039 123.924C216.747 123.924 217.419 124.372 217.433 125.856C215.921 126.01 210.867 126.038 210.867 128.376C210.867 130 212.435 130.224 213.471 130.224ZM214.017 129.076C213.065 129.076 212.519 128.754 212.519 128.194C212.519 126.948 215.767 126.962 217.391 126.822C217.349 128.292 215.725 129.076 214.017 129.076ZM220.651 130H222.219V128.278C222.219 125.604 223.241 123.952 224.949 123.952C226.405 123.952 227.035 124.96 227.035 127.2V130H228.603V126.962C228.603 124.134 227.623 122.804 225.621 122.776C223.577 122.776 222.485 124.246 222.219 125.884H222.135L222.415 123H220.651V130ZM38.974 142.474C39.576 142.474 40.01 142.138 40.01 141.508C40.01 140.892 39.576 140.542 38.974 140.542C38.386 140.542 37.966 140.892 37.966 141.508C37.966 142.138 38.386 142.474 38.974 142.474ZM38.218 151H39.786V144H38.218V151ZM42.0005 151H43.5685V149.278C43.5685 146.604 44.5905 144.952 46.2985 144.952C47.7545 144.952 48.3845 145.96 48.3845 148.2V151H49.9525V147.962C49.9525 145.134 48.9725 143.804 46.9705 143.776C44.9265 143.776 43.8345 145.246 43.5685 146.884H43.4845L43.7645 144H42.0005V151ZM54.2198 151.14C54.9758 151.14 55.5078 151.056 56.0118 150.86V150.118C55.7038 150.132 55.4238 150.146 55.1858 150.146C53.6878 150.146 53.6878 149.768 53.6878 148.06V145.12H56.0118V144H53.6878V142.04L52.4138 142.32V144H50.9998V145.12H52.1198V148.48C52.1198 150.482 52.3998 151.14 54.2198 151.14ZM61.1353 151.224C62.7873 151.224 63.5573 151.098 65.0413 150.538V149.278C64.2433 149.614 63.5433 150.048 61.8353 150.048C59.6653 150.048 58.6013 149.516 58.3773 148.102H65.3493V146.954C65.3073 145.05 63.6413 143.776 61.1353 143.776C58.6013 143.776 56.9213 145.26 56.9213 147.5C56.9213 149.74 58.6013 151.224 61.1353 151.224ZM58.3493 147.136C58.4613 145.512 59.2873 144.938 61.1353 144.938C63.0253 144.938 63.8373 145.47 63.8793 147.024L58.3493 147.136ZM66.8697 151H68.4377V149.278C68.4377 146.604 69.4597 144.952 71.1677 144.952C72.6237 144.952 73.2537 145.96 73.2537 148.2V151H74.8217V147.962C74.8217 145.134 73.8417 143.804 71.8397 143.776C69.7957 143.776 68.7037 145.246 68.4377 146.884H68.3537L68.6337 144H66.8697V151ZM79.0889 151.14C79.8449 151.14 80.3769 151.056 80.8809 150.86V150.118C80.5729 150.132 80.2929 150.146 80.0549 150.146C78.5569 150.146 78.5569 149.768 78.5569 148.06V145.12H80.8809V144H78.5569V142.04L77.2829 142.32V144H75.8689V145.12H76.9889V148.48C76.9889 150.482 77.2689 151.14 79.0889 151.14ZM83.4486 142.474C84.0506 142.474 84.4846 142.138 84.4846 141.508C84.4846 140.892 84.0506 140.542 83.4486 140.542C82.8606 140.542 82.4406 140.892 82.4406 141.508C82.4406 142.138 82.8606 142.474 83.4486 142.474ZM82.6926 151H84.2606V144H82.6926V151ZM90.2864 151.224C92.9044 151.224 94.6264 149.74 94.6264 147.5C94.6264 145.26 92.9044 143.776 90.2864 143.776C87.6824 143.776 85.9604 145.26 85.9604 147.5C85.9604 149.74 87.6824 151.224 90.2864 151.224ZM90.2864 150.062C88.5504 150.062 87.3884 149.026 87.3884 147.5C87.3884 145.974 88.5504 144.938 90.2864 144.938C92.0364 144.938 93.1984 145.974 93.1984 147.5C93.1984 149.026 92.0364 150.062 90.2864 150.062ZM96.3052 151H97.8732V149.278C97.8732 146.604 98.8952 144.952 100.603 144.952C102.059 144.952 102.689 145.96 102.689 148.2V151H104.257V147.962C104.257 145.134 103.277 143.804 101.275 143.776C99.2312 143.776 98.1392 145.246 97.8732 146.884H97.7892L98.0692 144H96.3052V151ZM107.978 151.224C110.12 151.224 111.828 150.412 112.248 148.494H112.346L111.926 151H113.508V147.052C113.508 145.092 112.556 143.776 110.106 143.776C108.874 143.776 107.432 144.098 106.256 144.532V145.722C107.194 145.316 108.454 144.924 109.546 144.924C111.254 144.924 111.926 145.372 111.94 146.856C110.428 147.01 105.374 147.038 105.374 149.376C105.374 151 106.942 151.224 107.978 151.224ZM108.524 150.076C107.572 150.076 107.026 149.754 107.026 149.194C107.026 147.948 110.274 147.962 111.898 147.822C111.856 149.292 110.232 150.076 108.524 150.076ZM115.159 151H116.727V141.2H115.159V151ZM118.754 151H120.322V141.2H118.754V151ZM124.602 153.8H126.142L131.616 144H130.076L126.786 149.768L123.426 144H121.746L126.17 151.07L124.602 153.8ZM140.866 151.224C143.33 151.224 144.982 150.538 144.982 148.97C144.982 145.918 138.388 147.598 138.388 145.876C138.388 145.246 139.186 144.924 141.02 144.924C142.07 144.924 143.428 145.078 144.422 145.288V144.168C143.204 143.93 141.762 143.776 140.922 143.776C138.458 143.776 136.806 144.532 136.806 146.058C136.806 149.138 143.386 147.29 143.386 149.082C143.386 149.838 142.546 150.062 140.6 150.062C139.368 150.062 138.29 149.908 137.114 149.46V150.678C138.276 151.014 139.788 151.224 140.866 151.224ZM146.495 151H148.063V149.278C148.063 146.604 149.085 144.952 150.793 144.952C152.249 144.924 152.879 145.918 152.879 148.2V151H154.447V149.278C154.447 146.604 155.469 144.952 157.177 144.952C158.633 144.924 159.263 145.918 159.263 148.2V151H160.831V147.962C160.831 145.134 159.851 143.804 157.849 143.776C155.805 143.776 154.713 145.246 154.447 146.884H154.391C154.153 144.784 153.187 143.804 151.465 143.776C149.421 143.776 148.329 145.246 148.063 146.884H147.979L148.259 144H146.495V151ZM164.689 151.224C166.831 151.224 168.539 150.412 168.959 148.494H169.057L168.637 151H170.219V147.052C170.219 145.092 169.267 143.776 166.817 143.776C165.585 143.776 164.143 144.098 162.967 144.532V145.722C163.905 145.316 165.165 144.924 166.257 144.924C167.965 144.924 168.637 145.372 168.651 146.856C167.139 147.01 162.085 147.038 162.085 149.376C162.085 151 163.653 151.224 164.689 151.224ZM165.235 150.076C164.283 150.076 163.737 149.754 163.737 149.194C163.737 147.948 166.985 147.962 168.609 147.822C168.567 149.292 166.943 150.076 165.235 150.076ZM171.87 151H173.438V141.2H171.87V151ZM175.465 151H177.033V141.2H175.465V151ZM186.03 151.14C186.786 151.14 187.318 151.056 187.822 150.86V150.118C187.514 150.132 187.234 150.146 186.996 150.146C185.498 150.146 185.498 149.768 185.498 148.06V145.12H187.822V144H185.498V142.04L184.224 142.32V144H182.81V145.12H183.93V148.48C183.93 150.482 184.21 151.14 186.03 151.14ZM192.946 151.224C194.598 151.224 195.368 151.098 196.852 150.538V149.278C196.054 149.614 195.354 150.048 193.646 150.048C191.476 150.048 190.412 149.516 190.188 148.102H197.16V146.954C197.118 145.05 195.452 143.776 192.946 143.776C190.412 143.776 188.732 145.26 188.732 147.5C188.732 149.74 190.412 151.224 192.946 151.224ZM190.16 147.136C190.272 145.512 191.098 144.938 192.946 144.938C194.836 144.938 195.648 145.47 195.69 147.024L190.16 147.136ZM200.769 151.224C202.911 151.224 204.619 150.412 205.039 148.494H205.137L204.717 151H206.299V147.052C206.299 145.092 205.347 143.776 202.897 143.776C201.665 143.776 200.223 144.098 199.047 144.532V145.722C199.985 145.316 201.245 144.924 202.337 144.924C204.045 144.924 204.717 145.372 204.731 146.856C203.219 147.01 198.165 147.038 198.165 149.376C198.165 151 199.733 151.224 200.769 151.224ZM201.315 150.076C200.363 150.076 199.817 149.754 199.817 149.194C199.817 147.948 203.065 147.962 204.689 147.822C204.647 149.292 203.023 150.076 201.315 150.076ZM207.95 151H209.518V149.278C209.518 146.604 210.54 144.952 212.248 144.952C213.704 144.924 214.334 145.918 214.334 148.2V151H215.902V149.278C215.902 146.604 216.924 144.952 218.632 144.952C220.088 144.924 220.718 145.918 220.718 148.2V151H222.286V147.962C222.286 145.134 221.306 143.804 219.304 143.776C217.26 143.776 216.168 145.246 215.902 146.884H215.846C215.608 144.784 214.642 143.804 212.92 143.776C210.876 143.776 209.784 145.246 209.518 146.884H209.434L209.714 144H207.95V151ZM232.064 151.224C234.682 151.224 236.404 149.74 236.404 147.5C236.404 145.26 234.682 143.776 232.064 143.776C229.46 143.776 227.738 145.26 227.738 147.5C227.738 149.74 229.46 151.224 232.064 151.224ZM232.064 150.062C230.328 150.062 229.166 149.026 229.166 147.5C229.166 145.974 230.328 144.938 232.064 144.938C233.814 144.938 234.976 145.974 234.976 147.5C234.976 149.026 233.814 150.062 232.064 150.062ZM238.467 151H240.035V144.98H242.205V144H240.035C240.035 142.432 240.189 142.054 241.729 142.054C241.869 142.054 242.037 142.082 242.205 142.068V141.298C241.673 141.186 241.253 141.088 240.819 141.088C239.181 141.088 238.467 142.012 238.467 143.72V144H237.515V145.12H238.467V151ZM43.454 164.776C41.704 164.776 39.856 165.504 39.506 167.282H39.338L39.646 165H38.022V174.8H39.59V169.732H39.646C39.996 171.468 41.69 172.224 43.426 172.224C45.372 172.224 47.136 170.754 47.136 168.556C47.136 166.288 45.386 164.776 43.454 164.776ZM42.796 165.938C44.476 165.938 45.54 166.988 45.54 168.528C45.54 170.026 44.476 171.062 42.796 171.062C41.298 171.062 40.024 170.026 40.024 168.528C40.024 166.988 41.298 165.938 42.796 165.938ZM48.645 172H50.213V169.648C50.213 167.394 51.389 166.078 54.539 166.078V164.776C51.711 164.776 50.633 165.588 50.269 167.884H50.129L50.409 165H48.645V172ZM59.7161 172.224C62.3341 172.224 64.0561 170.74 64.0561 168.5C64.0561 166.26 62.3341 164.776 59.7161 164.776C57.1121 164.776 55.3901 166.26 55.3901 168.5C55.3901 170.74 57.1121 172.224 59.7161 172.224ZM59.7161 171.062C57.9801 171.062 56.8181 170.026 56.8181 168.5C56.8181 166.974 57.9801 165.938 59.7161 165.938C61.4661 165.938 62.6281 166.974 62.6281 168.5C62.6281 170.026 61.4661 171.062 59.7161 171.062ZM66.1198 172H67.6878V165.98H69.8578V165H67.6878C67.6878 163.432 67.8418 163.054 69.3818 163.054C69.5218 163.054 69.6898 163.082 69.8578 163.068V162.298C69.3258 162.186 68.9058 162.088 68.4718 162.088C66.8338 162.088 66.1198 163.012 66.1198 164.72V165H65.1678V166.12H66.1198V172ZM74.6295 172.224C76.2815 172.224 77.0515 172.098 78.5355 171.538V170.278C77.7375 170.614 77.0375 171.048 75.3295 171.048C73.1595 171.048 72.0955 170.516 71.8715 169.102H78.8435V167.954C78.8015 166.05 77.1355 164.776 74.6295 164.776C72.0955 164.776 70.4155 166.26 70.4155 168.5C70.4155 170.74 72.0955 172.224 74.6295 172.224ZM71.8435 168.136C71.9555 166.512 72.7815 165.938 74.6295 165.938C76.5195 165.938 77.3315 166.47 77.3735 168.024L71.8435 168.136ZM84.2235 172.224C86.6875 172.224 88.3395 171.538 88.3395 169.97C88.3395 166.918 81.7455 168.598 81.7455 166.876C81.7455 166.246 82.5435 165.924 84.3775 165.924C85.4275 165.924 86.7855 166.078 87.7795 166.288V165.168C86.5615 164.93 85.1195 164.776 84.2795 164.776C81.8155 164.776 80.1635 165.532 80.1635 167.058C80.1635 170.138 86.7435 168.29 86.7435 170.082C86.7435 170.838 85.9035 171.062 83.9575 171.062C82.7255 171.062 81.6475 170.908 80.4715 170.46V171.678C81.6335 172.014 83.1455 172.224 84.2235 172.224ZM93.411 172.224C95.875 172.224 97.527 171.538 97.527 169.97C97.527 166.918 90.933 168.598 90.933 166.876C90.933 166.246 91.731 165.924 93.565 165.924C94.615 165.924 95.973 166.078 96.967 166.288V165.168C95.749 164.93 94.307 164.776 93.467 164.776C91.003 164.776 89.351 165.532 89.351 167.058C89.351 170.138 95.931 168.29 95.931 170.082C95.931 170.838 95.091 171.062 93.145 171.062C91.913 171.062 90.835 170.908 89.659 170.46V171.678C90.821 172.014 92.333 172.224 93.411 172.224ZM99.8549 163.474C100.457 163.474 100.891 163.138 100.891 162.508C100.891 161.892 100.457 161.542 99.8549 161.542C99.2669 161.542 98.8469 161.892 98.8469 162.508C98.8469 163.138 99.2669 163.474 99.8549 163.474ZM99.0989 172H100.667V165H99.0989V172ZM106.693 172.224C109.311 172.224 111.033 170.74 111.033 168.5C111.033 166.26 109.311 164.776 106.693 164.776C104.089 164.776 102.367 166.26 102.367 168.5C102.367 170.74 104.089 172.224 106.693 172.224ZM106.693 171.062C104.957 171.062 103.795 170.026 103.795 168.5C103.795 166.974 104.957 165.938 106.693 165.938C108.443 165.938 109.605 166.974 109.605 168.5C109.605 170.026 108.443 171.062 106.693 171.062ZM112.711 172H114.279V170.278C114.279 167.604 115.301 165.952 117.009 165.952C118.465 165.952 119.095 166.96 119.095 169.2V172H120.663V168.962C120.663 166.134 119.683 164.804 117.681 164.776C115.637 164.776 114.545 166.246 114.279 167.884H114.195L114.475 165H112.711V172ZM124.385 172.224C126.527 172.224 128.235 171.412 128.655 169.494H128.753L128.333 172H129.915V168.052C129.915 166.092 128.963 164.776 126.513 164.776C125.281 164.776 123.839 165.098 122.663 165.532V166.722C123.601 166.316 124.861 165.924 125.953 165.924C127.661 165.924 128.333 166.372 128.347 167.856C126.835 168.01 121.781 168.038 121.781 170.376C121.781 172 123.349 172.224 124.385 172.224ZM124.931 171.076C123.979 171.076 123.433 170.754 123.433 170.194C123.433 168.948 126.681 168.962 128.305 168.822C128.263 170.292 126.639 171.076 124.931 171.076ZM131.565 172H133.133V162.2H131.565V172ZM138.706 172.224C141.17 172.224 142.822 171.538 142.822 169.97C142.822 166.918 136.228 168.598 136.228 166.876C136.228 166.246 137.026 165.924 138.86 165.924C139.91 165.924 141.268 166.078 142.262 166.288V165.168C141.044 164.93 139.602 164.776 138.762 164.776C136.298 164.776 134.646 165.532 134.646 167.058C134.646 170.138 141.226 168.29 141.226 170.082C141.226 170.838 140.386 171.062 138.44 171.062C137.208 171.062 136.13 170.908 134.954 170.46V171.678C136.116 172.014 137.628 172.224 138.706 172.224ZM150.992 172H153.316L154.968 167.716L156.732 172H159.056L162.052 165H160.54L157.964 171.062L155.402 165H154.506L152.084 171.062L149.508 165H147.996L150.992 172ZM166.671 172.224C169.289 172.224 171.011 170.74 171.011 168.5C171.011 166.26 169.289 164.776 166.671 164.776C164.067 164.776 162.345 166.26 162.345 168.5C162.345 170.74 164.067 172.224 166.671 172.224ZM166.671 171.062C164.935 171.062 163.773 170.026 163.773 168.5C163.773 166.974 164.935 165.938 166.671 165.938C168.421 165.938 169.583 166.974 169.583 168.5C169.583 170.026 168.421 171.062 166.671 171.062ZM172.69 172H174.258V169.648C174.258 167.394 175.434 166.078 178.584 166.078V164.776C175.756 164.776 174.678 165.588 174.314 167.884H174.174L174.454 165H172.69V172ZM180.114 172H181.682V170.334L184.468 168.15L186.694 172H188.612L185.63 167.254L188.542 165H186.218L181.682 168.822V162.2H180.114V172ZM191.333 163.474C191.935 163.474 192.369 163.138 192.369 162.508C192.369 161.892 191.935 161.542 191.333 161.542C190.745 161.542 190.325 161.892 190.325 162.508C190.325 163.138 190.745 163.474 191.333 163.474ZM190.577 172H192.145V165H190.577V172ZM194.36 172H195.928V170.278C195.928 167.604 196.95 165.952 198.658 165.952C200.114 165.952 200.744 166.96 200.744 169.2V172H202.312V168.962C202.312 166.134 201.332 164.804 199.33 164.776C197.286 164.776 196.194 166.246 195.928 167.884H195.844L196.124 165H194.36V172ZM208.186 174.8C210.804 174.8 212.652 173.68 212.652 171.16V165H211.224L211.378 167.268H211.196C210.832 165.532 209.138 164.776 207.402 164.776C205.456 164.776 203.706 166.246 203.706 168.444C203.706 170.712 205.442 172.266 207.374 172.266C209.082 172.266 210.846 171.552 211.294 169.9L211.224 171.272C211.21 172.63 210.356 173.638 208.284 173.638C206.94 173.638 205.526 173.26 204.756 172.672V174.086C205.848 174.506 206.464 174.8 208.186 174.8ZM208.032 171.062C206.366 171.062 205.288 170.012 205.288 168.472C205.288 166.974 206.366 165.938 208.032 165.938C209.53 165.938 210.804 166.974 210.804 168.472C210.804 170.012 209.516 171.062 208.032 171.062ZM222.808 172.224C225.426 172.224 227.148 170.74 227.148 168.5C227.148 166.26 225.426 164.776 222.808 164.776C220.204 164.776 218.482 166.26 218.482 168.5C218.482 170.74 220.204 172.224 222.808 172.224ZM222.808 171.062C221.072 171.062 219.91 170.026 219.91 168.5C219.91 166.974 221.072 165.938 222.808 165.938C224.558 165.938 225.72 166.974 225.72 168.5C225.72 170.026 224.558 171.062 222.808 171.062ZM228.827 172H230.395V170.278C230.395 167.604 231.417 165.952 233.125 165.952C234.581 165.952 235.211 166.96 235.211 169.2V172H236.779V168.962C236.779 166.134 235.799 164.804 233.797 164.776C231.753 164.776 230.661 166.246 230.395 167.884H230.311L230.591 165H228.827V172ZM248.04 172.224C249.972 172.224 251.722 170.712 251.722 168.444C251.722 166.246 249.958 164.776 248.012 164.776C246.276 164.776 244.582 165.532 244.232 167.268H244.176V162.2H242.608V172H244.232L243.924 169.718H244.092C244.442 171.496 246.29 172.224 248.04 172.224ZM247.382 171.062C245.884 171.062 244.61 170.012 244.61 168.472C244.61 166.974 245.884 165.938 247.382 165.938C249.062 165.938 250.126 166.974 250.126 168.472C250.126 170.012 249.062 171.062 247.382 171.062ZM253.368 172H254.936V169.648C254.936 167.394 256.112 166.078 259.262 166.078V164.776C256.434 164.776 255.356 165.588 254.992 167.884H254.852L255.132 165H253.368V172ZM262.033 172.224C264.175 172.224 265.883 171.412 266.303 169.494H266.401L265.981 172H267.563V168.052C267.563 166.092 266.611 164.776 264.161 164.776C262.929 164.776 261.487 165.098 260.311 165.532V166.722C261.249 166.316 262.509 165.924 263.601 165.924C265.309 165.924 265.981 166.372 265.995 167.856C264.483 168.01 259.429 168.038 259.429 170.376C259.429 172 260.997 172.224 262.033 172.224ZM262.579 171.076C261.627 171.076 261.081 170.754 261.081 170.194C261.081 168.948 264.329 168.962 265.953 168.822C265.911 170.292 264.287 171.076 262.579 171.076ZM269.213 172H270.781V170.278C270.781 167.604 271.803 165.952 273.511 165.952C274.967 165.952 275.597 166.96 275.597 169.2V172H277.165V168.962C277.165 166.134 276.185 164.804 274.183 164.776C272.139 164.776 271.047 166.246 270.781 167.884H270.697L270.977 165H269.213V172ZM282.101 172.224C283.851 172.224 285.699 171.496 286.049 169.718H286.217L285.909 172H287.533V162.2H285.965V167.268H285.909C285.559 165.532 283.865 164.776 282.129 164.776C280.183 164.776 278.419 166.246 278.419 168.444C278.419 170.712 280.169 172.224 282.101 172.224ZM282.759 171.062C281.079 171.062 280.015 170.012 280.015 168.472C280.015 166.974 281.079 165.938 282.759 165.938C284.257 165.938 285.531 166.974 285.531 168.472C285.531 170.012 284.257 171.062 282.759 171.062ZM293.294 172.224C295.758 172.224 297.41 171.538 297.41 169.97C297.41 166.918 290.816 168.598 290.816 166.876C290.816 166.246 291.614 165.924 293.448 165.924C294.498 165.924 295.856 166.078 296.85 166.288V165.168C295.632 164.93 294.19 164.776 293.35 164.776C290.886 164.776 289.234 165.532 289.234 167.058C289.234 170.138 295.814 168.29 295.814 170.082C295.814 170.838 294.974 171.062 293.028 171.062C291.796 171.062 290.718 170.908 289.542 170.46V171.678C290.704 172.014 292.216 172.224 293.294 172.224ZM40.794 193.14C41.55 193.14 42.082 193.056 42.586 192.86V192.118C42.278 192.132 41.998 192.146 41.76 192.146C40.262 192.146 40.262 191.768 40.262 190.06V187.12H42.586V186H40.262V184.04L38.988 184.32V186H37.574V187.12H38.694V190.48C38.694 192.482 38.974 193.14 40.794 193.14ZM44.3384 193H45.9064V191.278C45.9064 188.604 46.9284 186.952 48.6364 186.952C50.0924 186.952 50.7224 187.96 50.7224 190.2V193H52.2904V189.962C52.2904 187.134 51.3104 185.804 49.3084 185.776C47.2644 185.776 46.1724 187.246 45.9064 188.884H45.8224L46.1024 183.2H44.3384V193ZM56.1621 193.224C58.3041 193.224 60.0121 192.412 60.4321 190.494H60.5301L60.1101 193H61.6921V189.052C61.6921 187.092 60.7401 185.776 58.2901 185.776C57.0581 185.776 55.6161 186.098 54.4401 186.532V187.722C55.3781 187.316 56.6381 186.924 57.7301 186.924C59.4381 186.924 60.1101 187.372 60.1241 188.856C58.6121 189.01 53.5581 189.038 53.5581 191.376C53.5581 193 55.1261 193.224 56.1621 193.224ZM56.7081 192.076C55.7561 192.076 55.2101 191.754 55.2101 191.194C55.2101 189.948 58.4581 189.962 60.0821 189.822C60.0401 191.292 58.4161 192.076 56.7081 192.076ZM65.9776 193.14C66.7336 193.14 67.2656 193.056 67.7696 192.86V192.118C67.4616 192.132 67.1816 192.146 66.9436 192.146C65.4456 192.146 65.4456 191.768 65.4456 190.06V187.12H67.7696V186H65.4456V184.04L64.1716 184.32V186H62.7576V187.12H63.8776V190.48C63.8776 192.482 64.1576 193.14 65.9776 193.14ZM76.8725 193.224C78.6225 193.224 80.4705 192.496 80.8205 190.718H80.9885L80.6805 193H82.3045V183.2H80.7365V188.268H80.6805C80.3305 186.532 78.6365 185.776 76.9005 185.776C74.9545 185.776 73.1905 187.246 73.1905 189.444C73.1905 191.712 74.9405 193.224 76.8725 193.224ZM77.5305 192.062C75.8505 192.062 74.7865 191.012 74.7865 189.472C74.7865 187.974 75.8505 186.938 77.5305 186.938C79.0285 186.938 80.3025 187.974 80.3025 189.472C80.3025 191.012 79.0285 192.062 77.5305 192.062ZM88.2193 193.224C89.8713 193.224 90.6413 193.098 92.1253 192.538V191.278C91.3273 191.614 90.6273 192.048 88.9193 192.048C86.7493 192.048 85.6853 191.516 85.4613 190.102H92.4333V188.954C92.3913 187.05 90.7253 185.776 88.2193 185.776C85.6853 185.776 84.0053 187.26 84.0053 189.5C84.0053 191.74 85.6853 193.224 88.2193 193.224ZM85.4333 189.136C85.5453 187.512 86.3713 186.938 88.2193 186.938C90.1093 186.938 90.9213 187.47 90.9633 189.024L85.4333 189.136ZM94.653 193H96.221V186.98H98.391V186H96.221C96.221 184.432 96.375 184.054 97.915 184.054C98.055 184.054 98.223 184.082 98.391 184.068V183.298C97.859 183.186 97.439 183.088 97.005 183.088C95.367 183.088 94.653 184.012 94.653 185.72V186H93.701V187.12H94.653V193ZM101.195 184.474C101.797 184.474 102.231 184.138 102.231 183.508C102.231 182.892 101.797 182.542 101.195 182.542C100.607 182.542 100.187 182.892 100.187 183.508C100.187 184.138 100.607 184.474 101.195 184.474ZM100.439 193H102.007V186H100.439V193ZM104.221 193H105.789V191.278C105.789 188.604 106.811 186.952 108.519 186.952C109.975 186.952 110.605 187.96 110.605 190.2V193H112.173V189.962C112.173 187.134 111.193 185.804 109.191 185.776C107.147 185.776 106.055 187.246 105.789 188.884H105.705L105.985 186H104.221V193ZM117.655 193.224C119.307 193.224 120.077 193.098 121.561 192.538V191.278C120.763 191.614 120.063 192.048 118.355 192.048C116.185 192.048 115.121 191.516 114.897 190.102H121.869V188.954C121.827 187.05 120.161 185.776 117.655 185.776C115.121 185.776 113.441 187.26 113.441 189.5C113.441 191.74 115.121 193.224 117.655 193.224ZM114.869 189.136C114.981 187.512 115.807 186.938 117.655 186.938C119.545 186.938 120.357 187.47 120.399 189.024L114.869 189.136ZM130.495 193.14C131.251 193.14 131.783 193.056 132.287 192.86V192.118C131.979 192.132 131.699 192.146 131.461 192.146C129.963 192.146 129.963 191.768 129.963 190.06V187.12H132.287V186H129.963V184.04L128.689 184.32V186H127.275V187.12H128.395V190.48C128.395 192.482 128.675 193.14 130.495 193.14ZM134.04 193H135.608V191.278C135.608 188.604 136.63 186.952 138.338 186.952C139.794 186.952 140.424 187.96 140.424 190.2V193H141.992V189.962C141.992 187.134 141.012 185.804 139.01 185.776C136.966 185.776 135.874 187.246 135.608 188.884H135.524L135.804 183.2H134.04V193ZM147.337 193.224C148.989 193.224 149.759 193.098 151.243 192.538V191.278C150.445 191.614 149.745 192.048 148.037 192.048C145.867 192.048 144.803 191.516 144.579 190.102H151.551V188.954C151.509 187.05 149.843 185.776 147.337 185.776C144.803 185.776 143.123 187.26 143.123 189.5C143.123 191.74 144.803 193.224 147.337 193.224ZM144.551 189.136C144.663 187.512 145.489 186.938 147.337 186.938C149.227 186.938 150.039 187.47 150.081 189.024L144.551 189.136ZM158.077 193H159.645V186.98H161.815V186H159.645C159.645 184.432 159.799 184.054 161.339 184.054C161.479 184.054 161.647 184.082 161.815 184.068V183.298C161.283 183.186 160.863 183.088 160.429 183.088C158.791 183.088 158.077 184.012 158.077 185.72V186H157.125V187.12H158.077V193ZM171.213 186H169.645V187.722C169.645 190.396 168.623 192.048 166.915 192.048C165.459 192.048 164.829 191.04 164.829 188.8V186H163.261V189.038C163.261 191.866 164.241 193.196 166.243 193.224C168.287 193.224 169.379 191.754 169.645 190.116H169.729L169.449 193H171.213V186ZM176.023 193.14C176.779 193.14 177.311 193.056 177.815 192.86V192.118C177.507 192.132 177.227 192.146 176.989 192.146C175.491 192.146 175.491 191.768 175.491 190.06V187.12H177.815V186H175.491V184.04L174.217 184.32V186H172.803V187.12H173.923V190.48C173.923 192.482 174.203 193.14 176.023 193.14ZM186.976 186H185.408V187.722C185.408 190.396 184.386 192.048 182.678 192.048C181.222 192.048 180.592 191.04 180.592 188.8V186H179.024V189.038C179.024 191.866 180.004 193.196 182.006 193.224C184.05 193.224 185.142 191.754 185.408 190.116H185.492L185.212 193H186.976V186ZM189.014 193H190.582V190.648C190.582 188.394 191.758 187.078 194.908 187.078V185.776C192.08 185.776 191.002 186.588 190.638 188.884H190.498L190.778 186H189.014V193ZM199.536 193.224C201.188 193.224 201.958 193.098 203.442 192.538V191.278C202.644 191.614 201.944 192.048 200.236 192.048C198.066 192.048 197.002 191.516 196.778 190.102H203.75V188.954C203.708 187.05 202.042 185.776 199.536 185.776C197.002 185.776 195.322 187.26 195.322 189.5C195.322 191.74 197.002 193.224 199.536 193.224ZM196.75 189.136C196.862 187.512 197.688 186.938 199.536 186.938C201.426 186.938 202.238 187.47 202.28 189.024L196.75 189.136ZM206.065 193.252C206.583 193.252 207.017 192.846 207.017 192.37C207.017 191.88 206.555 191.488 206.065 191.488C205.575 191.488 205.127 191.88 205.127 192.37C205.127 192.846 205.575 193.252 206.065 193.252ZM41.452 224H43.104L45.82 216.104L48.522 224H50.174L53.8 214.2H52.162L49.264 222.138L46.464 214.2H45.148L42.348 222.138L39.45 214.2H37.826L41.452 224ZM57.9361 224.224C59.5881 224.224 60.3581 224.098 61.8421 223.538V222.278C61.0441 222.614 60.3441 223.048 58.6361 223.048C56.4661 223.048 55.4021 222.516 55.1781 221.102H62.1501V219.954C62.1081 218.05 60.4421 216.776 57.9361 216.776C55.4021 216.776 53.7221 218.26 53.7221 220.5C53.7221 222.74 55.4021 224.224 57.9361 224.224ZM55.1501 220.136C55.2621 218.512 56.0881 217.938 57.9361 217.938C59.8261 217.938 60.6381 218.47 60.6801 220.024L55.1501 220.136ZM62.9317 217.98H63.6737L65.2557 214.2H63.8137L62.9317 217.98ZM67.6353 224H69.2033V221.648C69.2033 219.394 70.3793 218.078 73.5293 218.078V216.776C70.7013 216.776 69.6233 217.588 69.2593 219.884H69.1193L69.3993 217H67.6353V224ZM78.1568 224.224C79.8088 224.224 80.5788 224.098 82.0628 223.538V222.278C81.2648 222.614 80.5648 223.048 78.8568 223.048C76.6868 223.048 75.6228 222.516 75.3988 221.102H82.3708V219.954C82.3288 218.05 80.6628 216.776 78.1568 216.776C75.6228 216.776 73.9428 218.26 73.9428 220.5C73.9428 222.74 75.6228 224.224 78.1568 224.224ZM75.3708 220.136C75.4828 218.512 76.3088 217.938 78.1568 217.938C80.0468 217.938 80.8588 218.47 80.9008 220.024L75.3708 220.136ZM90.4511 224.224C92.5931 224.224 94.3011 223.412 94.7211 221.494H94.8191L94.3991 224H95.9811V220.052C95.9811 218.092 95.0291 216.776 92.5791 216.776C91.3471 216.776 89.9051 217.098 88.7291 217.532V218.722C89.6671 218.316 90.9271 217.924 92.0191 217.924C93.7271 217.924 94.3991 218.372 94.4131 219.856C92.9011 220.01 87.8471 220.038 87.8471 222.376C87.8471 224 89.4151 224.224 90.4511 224.224ZM90.9971 223.076C90.0451 223.076 89.4991 222.754 89.4991 222.194C89.4991 220.948 92.7471 220.962 94.3711 220.822C94.3291 222.292 92.7051 223.076 90.9971 223.076ZM97.6314 224H99.1994V214.2H97.6314V224ZM103.414 224H105.738L107.39 219.716L109.154 224H111.478L114.474 217H112.962L110.386 223.062L107.824 217H106.928L104.506 223.062L101.93 217H100.418L103.414 224ZM117.084 224.224C119.226 224.224 120.934 223.412 121.354 221.494H121.452L121.032 224H122.614V220.052C122.614 218.092 121.662 216.776 119.212 216.776C117.98 216.776 116.538 217.098 115.362 217.532V218.722C116.3 218.316 117.56 217.924 118.652 217.924C120.36 217.924 121.032 218.372 121.046 219.856C119.534 220.01 114.48 220.038 114.48 222.376C114.48 224 116.048 224.224 117.084 224.224ZM117.63 223.076C116.678 223.076 116.132 222.754 116.132 222.194C116.132 220.948 119.38 220.962 121.004 220.822C120.962 222.292 119.338 223.076 117.63 223.076ZM125.614 226.8H127.154L132.628 217H131.088L127.798 222.768L124.438 217H122.758L127.182 224.07L125.614 226.8ZM136.86 224.224C139.324 224.224 140.976 223.538 140.976 221.97C140.976 218.918 134.382 220.598 134.382 218.876C134.382 218.246 135.18 217.924 137.014 217.924C138.064 217.924 139.422 218.078 140.416 218.288V217.168C139.198 216.93 137.756 216.776 136.916 216.776C134.452 216.776 132.8 217.532 132.8 219.058C132.8 222.138 139.38 220.29 139.38 222.082C139.38 222.838 138.54 223.062 136.594 223.062C135.362 223.062 134.284 222.908 133.108 222.46V223.678C134.27 224.014 135.782 224.224 136.86 224.224ZM146.823 224H148.391V214.2H146.823V224ZM154.23 224.224C156.848 224.224 158.57 222.74 158.57 220.5C158.57 218.26 156.848 216.776 154.23 216.776C151.626 216.776 149.904 218.26 149.904 220.5C149.904 222.74 151.626 224.224 154.23 224.224ZM154.23 223.062C152.494 223.062 151.332 222.026 151.332 220.5C151.332 218.974 152.494 217.938 154.23 217.938C155.98 217.938 157.142 218.974 157.142 220.5C157.142 222.026 155.98 223.062 154.23 223.062ZM164.197 224.224C166.815 224.224 168.537 222.74 168.537 220.5C168.537 218.26 166.815 216.776 164.197 216.776C161.593 216.776 159.871 218.26 159.871 220.5C159.871 222.74 161.593 224.224 164.197 224.224ZM164.197 223.062C162.461 223.062 161.299 222.026 161.299 220.5C161.299 218.974 162.461 217.938 164.197 217.938C165.947 217.938 167.109 218.974 167.109 220.5C167.109 222.026 165.947 223.062 164.197 223.062ZM170.065 224H171.633V222.334L174.419 220.15L176.645 224H178.563L175.581 219.254L178.493 217H176.169L171.633 220.822V214.2H170.065V224ZM181.285 215.474C181.887 215.474 182.321 215.138 182.321 214.508C182.321 213.892 181.887 213.542 181.285 213.542C180.697 213.542 180.277 213.892 180.277 214.508C180.277 215.138 180.697 215.474 181.285 215.474ZM180.529 224H182.097V217H180.529V224ZM184.311 224H185.879V222.278C185.879 219.604 186.901 217.952 188.609 217.952C190.065 217.952 190.695 218.96 190.695 221.2V224H192.263V220.962C192.263 218.134 191.283 216.804 189.281 216.776C187.237 216.776 186.145 218.246 185.879 219.884H185.795L186.075 217H184.311V224ZM198.137 226.8C200.755 226.8 202.603 225.68 202.603 223.16V217H201.175L201.329 219.268H201.147C200.783 217.532 199.089 216.776 197.353 216.776C195.407 216.776 193.657 218.246 193.657 220.444C193.657 222.712 195.393 224.266 197.325 224.266C199.033 224.266 200.797 223.552 201.245 221.9L201.175 223.272C201.161 224.63 200.307 225.638 198.235 225.638C196.891 225.638 195.477 225.26 194.707 224.672V226.086C195.799 226.506 196.415 226.8 198.137 226.8ZM197.983 223.062C196.317 223.062 195.239 222.012 195.239 220.472C195.239 218.974 196.317 217.938 197.983 217.938C199.481 217.938 200.755 218.974 200.755 220.472C200.755 222.012 199.467 223.062 197.983 223.062ZM209.483 224H211.051V217.98H213.221V217H211.051C211.051 215.432 211.205 215.054 212.745 215.054C212.885 215.054 213.053 215.082 213.221 215.068V214.298C212.689 214.186 212.269 214.088 211.835 214.088C210.197 214.088 209.483 215.012 209.483 216.72V217H208.531V218.12H209.483V224ZM218.105 224.224C220.723 224.224 222.445 222.74 222.445 220.5C222.445 218.26 220.723 216.776 218.105 216.776C215.501 216.776 213.779 218.26 213.779 220.5C213.779 222.74 215.501 224.224 218.105 224.224ZM218.105 223.062C216.369 223.062 215.207 222.026 215.207 220.5C215.207 218.974 216.369 217.938 218.105 217.938C219.855 217.938 221.017 218.974 221.017 220.5C221.017 222.026 219.855 223.062 218.105 223.062ZM224.124 224H225.692V221.648C225.692 219.394 226.868 218.078 230.018 218.078V216.776C227.19 216.776 226.112 217.588 225.748 219.884H225.608L225.888 217H224.124V224ZM235.745 224H237.313V222.278C237.313 219.604 238.335 217.952 240.043 217.952C241.499 217.952 242.129 218.96 242.129 221.2V224H243.697V220.962C243.697 218.134 242.717 216.804 240.715 216.776C238.671 216.776 237.579 218.246 237.313 219.884H237.229L237.509 217H235.745V224ZM249.178 224.224C250.83 224.224 251.6 224.098 253.084 223.538V222.278C252.286 222.614 251.586 223.048 249.878 223.048C247.708 223.048 246.644 222.516 246.42 221.102H253.392V219.954C253.35 218.05 251.684 216.776 249.178 216.776C246.644 216.776 244.964 218.26 244.964 220.5C244.964 222.74 246.644 224.224 249.178 224.224ZM246.392 220.136C246.504 218.512 247.33 217.938 249.178 217.938C251.068 217.938 251.88 218.47 251.922 220.024L246.392 220.136ZM256.539 224H258.863L260.515 219.716L262.279 224H264.603L267.599 217H266.087L263.511 223.062L260.949 217H260.053L257.631 223.062L255.055 217H253.543L256.539 224ZM41.97 245.224C44.588 245.224 46.31 243.74 46.31 241.5C46.31 239.26 44.588 237.776 41.97 237.776C39.366 237.776 37.644 239.26 37.644 241.5C37.644 243.74 39.366 245.224 41.97 245.224ZM41.97 244.062C40.234 244.062 39.072 243.026 39.072 241.5C39.072 239.974 40.234 238.938 41.97 238.938C43.72 238.938 44.882 239.974 44.882 241.5C44.882 243.026 43.72 244.062 41.97 244.062ZM53.4208 237.776C51.6708 237.776 49.8228 238.504 49.4728 240.282H49.3048L49.6128 238H47.9888V247.8H49.5568V242.732H49.6128C49.9628 244.468 51.6568 245.224 53.3928 245.224C55.3388 245.224 57.1028 243.754 57.1028 241.556C57.1028 239.288 55.3528 237.776 53.4208 237.776ZM52.7628 238.938C54.4428 238.938 55.5068 239.988 55.5068 241.528C55.5068 243.026 54.4428 244.062 52.7628 244.062C51.2648 244.062 49.9908 243.026 49.9908 241.528C49.9908 239.988 51.2648 238.938 52.7628 238.938ZM64.0438 237.776C62.2938 237.776 60.4458 238.504 60.0958 240.282H59.9278L60.2358 238H58.6118V247.8H60.1798V242.732H60.2358C60.5858 244.468 62.2798 245.224 64.0158 245.224C65.9618 245.224 67.7258 243.754 67.7258 241.556C67.7258 239.288 65.9758 237.776 64.0438 237.776ZM63.3858 238.938C65.0658 238.938 66.1298 239.988 66.1298 241.528C66.1298 243.026 65.0658 244.062 63.3858 244.062C61.8878 244.062 60.6138 243.026 60.6138 241.528C60.6138 239.988 61.8878 238.938 63.3858 238.938ZM73.3606 245.224C75.9786 245.224 77.7006 243.74 77.7006 241.5C77.7006 239.26 75.9786 237.776 73.3606 237.776C70.7566 237.776 69.0346 239.26 69.0346 241.5C69.0346 243.74 70.7566 245.224 73.3606 245.224ZM73.3606 244.062C71.6246 244.062 70.4626 243.026 70.4626 241.5C70.4626 239.974 71.6246 238.938 73.3606 238.938C75.1106 238.938 76.2726 239.974 76.2726 241.5C76.2726 243.026 75.1106 244.062 73.3606 244.062ZM79.3794 245H80.9474V242.648C80.9474 240.394 82.1234 239.078 85.2734 239.078V237.776C82.4454 237.776 81.3674 238.588 81.0034 240.884H80.8634L81.1434 238H79.3794V245ZM89.712 245.14C90.468 245.14 91 245.056 91.504 244.86V244.118C91.196 244.132 90.916 244.146 90.678 244.146C89.18 244.146 89.18 243.768 89.18 242.06V239.12H91.504V238H89.18V236.04L87.906 236.32V238H86.492V239.12H87.612V242.48C87.612 244.482 87.892 245.14 89.712 245.14ZM100.666 238H99.0977V239.722C99.0977 242.396 98.0757 244.048 96.3677 244.048C94.9117 244.048 94.2817 243.04 94.2817 240.8V238H92.7137V241.038C92.7137 243.866 93.6937 245.196 95.6957 245.224C97.7397 245.224 98.8317 243.754 99.0977 242.116H99.1817L98.9017 245H100.666V238ZM102.704 245H104.272V243.278C104.272 240.604 105.294 238.952 107.002 238.952C108.458 238.952 109.088 239.96 109.088 242.2V245H110.656V241.962C110.656 239.134 109.676 237.804 107.674 237.776C105.63 237.776 104.538 239.246 104.272 240.884H104.188L104.468 238H102.704V245ZM113.24 236.474C113.842 236.474 114.276 236.138 114.276 235.508C114.276 234.892 113.842 234.542 113.24 234.542C112.652 234.542 112.232 234.892 112.232 235.508C112.232 236.138 112.652 236.474 113.24 236.474ZM112.484 245H114.052V238H112.484V245ZM119.038 245.14C119.794 245.14 120.326 245.056 120.83 244.86V244.118C120.522 244.132 120.242 244.146 120.004 244.146C118.506 244.146 118.506 243.768 118.506 242.06V239.12H120.83V238H118.506V236.04L117.232 236.32V238H115.818V239.12H116.938V242.48C116.938 244.482 117.218 245.14 119.038 245.14ZM123.398 236.474C124 236.474 124.434 236.138 124.434 235.508C124.434 234.892 124 234.542 123.398 234.542C122.81 234.542 122.39 234.892 122.39 235.508C122.39 236.138 122.81 236.474 123.398 236.474ZM122.642 245H124.21V238H122.642V245ZM130.124 245.224C131.776 245.224 132.546 245.098 134.03 244.538V243.278C133.232 243.614 132.532 244.048 130.824 244.048C128.654 244.048 127.59 243.516 127.366 242.102H134.338V240.954C134.296 239.05 132.63 237.776 130.124 237.776C127.59 237.776 125.91 239.26 125.91 241.5C125.91 243.74 127.59 245.224 130.124 245.224ZM127.338 241.136C127.45 239.512 128.276 238.938 130.124 238.938C132.014 238.938 132.826 239.47 132.868 241.024L127.338 241.136ZM139.718 245.224C142.182 245.224 143.834 244.538 143.834 242.97C143.834 239.918 137.24 241.598 137.24 239.876C137.24 239.246 138.038 238.924 139.872 238.924C140.922 238.924 142.28 239.078 143.274 239.288V238.168C142.056 237.93 140.614 237.776 139.774 237.776C137.31 237.776 135.658 238.532 135.658 240.058C135.658 243.138 142.238 241.29 142.238 243.082C142.238 243.838 141.398 244.062 139.452 244.062C138.22 244.062 137.142 243.908 135.966 243.46V244.678C137.128 245.014 138.64 245.224 139.718 245.224ZM151.906 245.224C154.048 245.224 155.756 244.412 156.176 242.494H156.274L155.854 245H157.436V241.052C157.436 239.092 156.484 237.776 154.034 237.776C152.802 237.776 151.36 238.098 150.184 238.532V239.722C151.122 239.316 152.382 238.924 153.474 238.924C155.182 238.924 155.854 239.372 155.868 240.856C154.356 241.01 149.302 241.038 149.302 243.376C149.302 245 150.87 245.224 151.906 245.224ZM152.452 244.076C151.5 244.076 150.954 243.754 150.954 243.194C150.954 241.948 154.202 241.962 155.826 241.822C155.784 243.292 154.16 244.076 152.452 244.076ZM159.086 245H160.654V243.278C160.654 240.604 161.676 238.952 163.384 238.952C164.84 238.952 165.47 239.96 165.47 242.2V245H167.038V241.962C167.038 239.134 166.058 237.804 164.056 237.776C162.012 237.776 160.92 239.246 160.654 240.884H160.57L160.85 238H159.086V245ZM171.974 245.224C173.724 245.224 175.572 244.496 175.922 242.718H176.09L175.782 245H177.406V235.2H175.838V240.268H175.782C175.432 238.532 173.738 237.776 172.002 237.776C170.056 237.776 168.292 239.246 168.292 241.444C168.292 243.712 170.042 245.224 171.974 245.224ZM172.632 244.062C170.952 244.062 169.888 243.012 169.888 241.472C169.888 239.974 170.952 238.938 172.632 238.938C174.13 238.938 175.404 239.974 175.404 241.472C175.404 243.012 174.13 244.062 172.632 244.062ZM187.477 245.224C189.129 245.224 189.899 245.098 191.383 244.538V243.278C190.585 243.614 189.885 244.048 188.177 244.048C186.007 244.048 184.943 243.516 184.719 242.102H191.691V240.954C191.649 239.05 189.983 237.776 187.477 237.776C184.943 237.776 183.263 239.26 183.263 241.5C183.263 243.74 184.943 245.224 187.477 245.224ZM184.691 241.136C184.803 239.512 185.629 238.938 187.477 238.938C189.367 238.938 190.179 239.47 190.221 241.024L184.691 241.136ZM191.856 245H193.914L196.812 242.424L199.682 245H201.74L197.89 241.542L201.866 238H199.794L196.854 240.632L193.928 238H191.856L195.762 241.486L191.856 245ZM206.417 245.224C207.803 245.224 208.461 244.972 209.595 244.468V243.25C208.671 243.838 207.859 244.062 206.837 244.062C204.681 244.062 203.617 243.418 203.617 241.5C203.617 239.568 204.667 238.938 206.795 238.938C207.663 238.938 208.503 239.19 209.595 239.806V238.532C208.475 238.028 207.691 237.776 206.431 237.776C203.785 237.776 202.035 239.246 202.035 241.5C202.035 243.74 203.883 245.224 206.417 245.224ZM212.21 236.474C212.812 236.474 213.246 236.138 213.246 235.508C213.246 234.892 212.812 234.542 212.21 234.542C211.622 234.542 211.202 234.892 211.202 235.508C211.202 236.138 211.622 236.474 212.21 236.474ZM211.454 245H213.022V238H211.454V245ZM218.009 245.14C218.765 245.14 219.297 245.056 219.801 244.86V244.118C219.493 244.132 219.213 244.146 218.975 244.146C217.477 244.146 217.477 243.768 217.477 242.06V239.12H219.801V238H217.477V236.04L216.203 236.32V238H214.789V239.12H215.909V242.48C215.909 244.482 216.189 245.14 218.009 245.14ZM222.369 236.474C222.971 236.474 223.405 236.138 223.405 235.508C223.405 234.892 222.971 234.542 222.369 234.542C221.781 234.542 221.361 234.892 221.361 235.508C221.361 236.138 221.781 236.474 222.369 236.474ZM221.613 245H223.181V238H221.613V245ZM225.395 245H226.963V243.278C226.963 240.604 227.985 238.952 229.693 238.952C231.149 238.952 231.779 239.96 231.779 242.2V245H233.347V241.962C233.347 239.134 232.367 237.804 230.365 237.776C228.321 237.776 227.229 239.246 226.963 240.884H226.879L227.159 238H225.395V245ZM239.221 247.8C241.839 247.8 243.687 246.68 243.687 244.16V238H242.259L242.413 240.268H242.231C241.867 238.532 240.173 237.776 238.437 237.776C236.491 237.776 234.741 239.246 234.741 241.444C234.741 243.712 236.477 245.266 238.409 245.266C240.117 245.266 241.881 244.552 242.329 242.9L242.259 244.272C242.245 245.63 241.391 246.638 239.319 246.638C237.975 246.638 236.561 246.26 235.791 245.672V247.086C236.883 247.506 237.499 247.8 239.221 247.8ZM239.067 244.062C237.401 244.062 236.323 243.012 236.323 241.472C236.323 239.974 237.401 238.938 239.067 238.938C240.565 238.938 241.839 239.974 241.839 241.472C241.839 243.012 240.551 244.062 239.067 244.062ZM42.026 266.224C43.412 266.224 44.07 265.972 45.204 265.468V264.25C44.28 264.838 43.468 265.062 42.446 265.062C40.29 265.062 39.226 264.418 39.226 262.5C39.226 260.568 40.276 259.938 42.404 259.938C43.272 259.938 44.112 260.19 45.204 260.806V259.532C44.084 259.028 43.3 258.776 42.04 258.776C39.394 258.776 37.644 260.246 37.644 262.5C37.644 264.74 39.492 266.224 42.026 266.224ZM50.6927 266.224C53.3107 266.224 55.0327 264.74 55.0327 262.5C55.0327 260.26 53.3107 258.776 50.6927 258.776C48.0887 258.776 46.3667 260.26 46.3667 262.5C46.3667 264.74 48.0887 266.224 50.6927 266.224ZM50.6927 265.062C48.9567 265.062 47.7947 264.026 47.7947 262.5C47.7947 260.974 48.9567 259.938 50.6927 259.938C52.4427 259.938 53.6047 260.974 53.6047 262.5C53.6047 264.026 52.4427 265.062 50.6927 265.062ZM56.5611 266H58.1291V256.2H56.5611V266ZM60.1568 266H61.7248V256.2H60.1568V266ZM66.0195 266.224C68.1615 266.224 69.8695 265.412 70.2895 263.494H70.3875L69.9675 266H71.5495V262.052C71.5495 260.092 70.5975 258.776 68.1475 258.776C66.9155 258.776 65.4735 259.098 64.2975 259.532V260.722C65.2355 260.316 66.4955 259.924 67.5875 259.924C69.2955 259.924 69.9675 260.372 69.9815 261.856C68.4695 262.01 63.4155 262.038 63.4155 264.376C63.4155 266 64.9835 266.224 66.0195 266.224ZM66.5655 265.076C65.6135 265.076 65.0675 264.754 65.0675 264.194C65.0675 262.948 68.3155 262.962 69.9395 262.822C69.8975 264.292 68.2735 265.076 66.5655 265.076ZM78.6317 266.224C80.5637 266.224 82.3137 264.712 82.3137 262.444C82.3137 260.246 80.5497 258.776 78.6037 258.776C76.8677 258.776 75.1737 259.532 74.8237 261.268H74.7677V256.2H73.1997V266H74.8237L74.5157 263.718H74.6837C75.0337 265.496 76.8817 266.224 78.6317 266.224ZM77.9737 265.062C76.4757 265.062 75.2017 264.012 75.2017 262.472C75.2017 260.974 76.4757 259.938 77.9737 259.938C79.6537 259.938 80.7177 260.974 80.7177 262.472C80.7177 264.012 79.6537 265.062 77.9737 265.062ZM87.7981 266.224C90.4161 266.224 92.1381 264.74 92.1381 262.5C92.1381 260.26 90.4161 258.776 87.7981 258.776C85.1941 258.776 83.4721 260.26 83.4721 262.5C83.4721 264.74 85.1941 266.224 87.7981 266.224ZM87.7981 265.062C86.0621 265.062 84.9001 264.026 84.9001 262.5C84.9001 260.974 86.0621 259.938 87.7981 259.938C89.5481 259.938 90.7101 260.974 90.7101 262.5C90.7101 264.026 89.5481 265.062 87.7981 265.062ZM93.8169 266H95.3849V263.648C95.3849 261.394 96.5609 260.078 99.7109 260.078V258.776C96.8829 258.776 95.8049 259.588 95.4409 261.884H95.3009L95.5809 259H93.8169V266ZM102.482 266.224C104.624 266.224 106.332 265.412 106.752 263.494H106.85L106.43 266H108.012V262.052C108.012 260.092 107.06 258.776 104.61 258.776C103.378 258.776 101.936 259.098 100.76 259.532V260.722C101.698 260.316 102.958 259.924 104.05 259.924C105.758 259.924 106.43 260.372 106.444 261.856C104.932 262.01 99.8784 262.038 99.8784 264.376C99.8784 266 101.446 266.224 102.482 266.224ZM103.028 265.076C102.076 265.076 101.53 264.754 101.53 264.194C101.53 262.948 104.778 262.962 106.402 262.822C106.36 264.292 104.736 265.076 103.028 265.076ZM112.298 266.14C113.054 266.14 113.586 266.056 114.09 265.86V265.118C113.782 265.132 113.502 265.146 113.264 265.146C111.766 265.146 111.766 264.768 111.766 263.06V260.12H114.09V259H111.766V257.04L110.492 257.32V259H109.078V260.12H110.198V263.48C110.198 265.482 110.478 266.14 112.298 266.14ZM116.658 257.474C117.26 257.474 117.694 257.138 117.694 256.508C117.694 255.892 117.26 255.542 116.658 255.542C116.07 255.542 115.65 255.892 115.65 256.508C115.65 257.138 116.07 257.474 116.658 257.474ZM115.902 266H117.47V259H115.902V266ZM123.495 266.224C126.113 266.224 127.835 264.74 127.835 262.5C127.835 260.26 126.113 258.776 123.495 258.776C120.891 258.776 119.169 260.26 119.169 262.5C119.169 264.74 120.891 266.224 123.495 266.224ZM123.495 265.062C121.759 265.062 120.597 264.026 120.597 262.5C120.597 260.974 121.759 259.938 123.495 259.938C125.245 259.938 126.407 260.974 126.407 262.5C126.407 264.026 125.245 265.062 123.495 265.062ZM129.514 266H131.082V264.278C131.082 261.604 132.104 259.952 133.812 259.952C135.268 259.952 135.898 260.96 135.898 263.2V266H137.466V262.962C137.466 260.134 136.486 258.804 134.484 258.776C132.44 258.776 131.348 260.246 131.082 261.884H130.998L131.278 259H129.514V266ZM142.794 266.224C145.258 266.224 146.91 265.538 146.91 263.97C146.91 260.918 140.316 262.598 140.316 260.876C140.316 260.246 141.114 259.924 142.948 259.924C143.998 259.924 145.356 260.078 146.35 260.288V259.168C145.132 258.93 143.69 258.776 142.85 258.776C140.386 258.776 138.734 259.532 138.734 261.058C138.734 264.138 145.314 262.29 145.314 264.082C145.314 264.838 144.474 265.062 142.528 265.062C141.296 265.062 140.218 264.908 139.042 264.46V265.678C140.204 266.014 141.716 266.224 142.794 266.224ZM148.944 266.252C149.462 266.252 149.896 265.846 149.896 265.37C149.896 264.88 149.434 264.488 148.944 264.488C148.454 264.488 148.006 264.88 148.006 265.37C148.006 265.846 148.454 266.252 148.944 266.252ZM159.276 266H160.928L163.644 258.104L166.346 266H167.998L171.624 256.2H169.986L167.088 264.138L164.288 256.2H162.972L160.172 264.138L157.274 256.2H155.65L159.276 266ZM172.649 266H174.217V263.648C174.217 261.394 175.393 260.078 178.543 260.078V258.776C175.715 258.776 174.637 259.588 174.273 261.884H174.133L174.413 259H172.649V266ZM181.025 257.474C181.627 257.474 182.061 257.138 182.061 256.508C182.061 255.892 181.627 255.542 181.025 255.542C180.437 255.542 180.017 255.892 180.017 256.508C180.017 257.138 180.437 257.474 181.025 257.474ZM180.269 266H181.837V259H180.269V266ZM186.823 266.14C187.579 266.14 188.111 266.056 188.615 265.86V265.118C188.307 265.132 188.027 265.146 187.789 265.146C186.291 265.146 186.291 264.768 186.291 263.06V260.12H188.615V259H186.291V257.04L185.017 257.32V259H183.603V260.12H184.723V263.48C184.723 265.482 185.003 266.14 186.823 266.14ZM193.739 266.224C195.391 266.224 196.161 266.098 197.645 265.538V264.278C196.847 264.614 196.147 265.048 194.439 265.048C192.269 265.048 191.205 264.516 190.981 263.102H197.953V261.954C197.911 260.05 196.245 258.776 193.739 258.776C191.205 258.776 189.525 260.26 189.525 262.5C189.525 264.74 191.205 266.224 193.739 266.224ZM190.953 262.136C191.065 260.512 191.891 259.938 193.739 259.938C195.629 259.938 196.441 260.47 196.483 262.024L190.953 262.136ZM206.579 266.14C207.335 266.14 207.867 266.056 208.371 265.86V265.118C208.063 265.132 207.783 265.146 207.545 265.146C206.047 265.146 206.047 264.768 206.047 263.06V260.12H208.371V259H206.047V257.04L204.773 257.32V259H203.359V260.12H204.479V263.48C204.479 265.482 204.759 266.14 206.579 266.14ZM213.607 266.224C216.225 266.224 217.947 264.74 217.947 262.5C217.947 260.26 216.225 258.776 213.607 258.776C211.003 258.776 209.281 260.26 209.281 262.5C209.281 264.74 211.003 266.224 213.607 266.224ZM213.607 265.062C211.871 265.062 210.709 264.026 210.709 262.5C210.709 260.974 211.871 259.938 213.607 259.938C215.357 259.938 216.519 260.974 216.519 262.5C216.519 264.026 215.357 265.062 213.607 265.062ZM231.355 259H229.787V260.722C229.787 263.396 228.765 265.048 227.057 265.048C225.601 265.048 224.971 264.04 224.971 261.8V259H223.403V262.038C223.403 264.866 224.383 266.196 226.385 266.224C228.429 266.224 229.521 264.754 229.787 263.116H229.871L229.591 266H231.355V259ZM236.938 266.224C239.402 266.224 241.054 265.538 241.054 263.97C241.054 260.918 234.46 262.598 234.46 260.876C234.46 260.246 235.258 259.924 237.092 259.924C238.142 259.924 239.5 260.078 240.494 260.288V259.168C239.276 258.93 237.834 258.776 236.994 258.776C234.53 258.776 232.878 259.532 232.878 261.058C232.878 264.138 239.458 262.29 239.458 264.082C239.458 264.838 238.618 265.062 236.672 265.062C235.44 265.062 234.362 264.908 233.186 264.46V265.678C234.348 266.014 235.86 266.224 236.938 266.224ZM249.127 266.224C251.269 266.224 252.977 265.412 253.397 263.494H253.495L253.075 266H254.657V262.052C254.657 260.092 253.705 258.776 251.255 258.776C250.023 258.776 248.581 259.098 247.405 259.532V260.722C248.343 260.316 249.603 259.924 250.695 259.924C252.403 259.924 253.075 260.372 253.089 261.856C251.577 262.01 246.523 262.038 246.523 264.376C246.523 266 248.091 266.224 249.127 266.224ZM249.673 265.076C248.721 265.076 248.175 264.754 248.175 264.194C248.175 262.948 251.423 262.962 253.047 262.822C253.005 264.292 251.381 265.076 249.673 265.076ZM258.942 266.14C259.698 266.14 260.23 266.056 260.734 265.86V265.118C260.426 265.132 260.146 265.146 259.908 265.146C258.41 265.146 258.41 264.768 258.41 263.06V260.12H260.734V259H258.41V257.04L257.136 257.32V259H255.722V260.12H256.842V263.48C256.842 265.482 257.122 266.14 258.942 266.14ZM261.188 268.366H261.93L263.512 264.586H262.07L261.188 268.366Z" fill="#F8F4F5"/>
<path d="M42.616 415.192C45.652 415.192 47.68 413.656 47.68 411.34H46.312C46.252 413.032 44.776 414.076 42.616 414.076C40.384 414.076 38.896 412.816 38.896 410.8C38.896 408.772 40.384 407.524 42.616 407.524C44.764 407.524 46.24 408.556 46.312 410.26H47.68C47.68 407.944 45.652 406.408 42.616 406.408C39.58 406.408 37.552 408.16 37.552 410.8C37.552 413.44 39.58 415.192 42.616 415.192ZM54.188 415.192C57.476 415.192 59.504 413.44 59.504 410.8C59.504 408.16 57.476 406.408 54.188 406.408C50.912 406.408 48.884 408.16 48.884 410.8C48.884 413.44 50.912 415.192 54.188 415.192ZM54.188 414.076C51.824 414.076 50.228 412.816 50.228 410.8C50.228 408.772 51.824 407.524 54.188 407.524C56.564 407.524 58.16 408.772 58.16 410.8C58.16 412.816 56.564 414.076 54.188 414.076ZM61.1662 415H62.5102V408.244L69.2062 415H70.5862V406.6H69.2422V413.368L62.5342 406.6H61.1662V415ZM72.7678 415H74.1118V408.244L80.8078 415H82.1878V406.6H80.8438V413.368L74.1358 406.6H72.7678V415ZM84.3693 415H92.0253V413.884H85.7133V411.244H91.9173V410.224H85.7133V407.716H92.0253V406.6H84.3693V415ZM98.6082 415.192C101.644 415.192 103.672 413.656 103.672 411.34H102.304C102.244 413.032 100.768 414.076 98.6082 414.076C96.3762 414.076 94.8882 412.816 94.8882 410.8C94.8882 408.772 96.3762 407.524 98.6082 407.524C100.756 407.524 102.232 408.556 102.304 410.26H103.672C103.672 407.944 101.644 406.408 98.6082 406.408C95.5722 406.408 93.5442 408.16 93.5442 410.8C93.5442 413.44 95.5722 415.192 98.6082 415.192ZM108.665 415H110.009V407.716H114.281V406.6H104.405V407.716H108.665V415ZM122.144 415H123.56L125.888 408.232L128.204 415H129.62L132.728 406.6H131.324L128.84 413.404L126.44 406.6H125.312L122.912 413.404L120.428 406.6H119.036L122.144 415ZM134.268 415H135.612V406.6H134.268V415ZM141.172 415H142.516V407.716H146.788V406.6H136.912V407.716H141.172V415ZM148.096 415H149.44V411.232H155.452V415H156.796V406.6H155.452V410.116H149.44V406.6H148.096V415ZM166.912 415.192C169.66 415.192 171.22 414.076 171.22 410.5V406.6H169.876V410.86C169.876 413.056 169.012 414.088 166.912 414.088C164.812 414.088 163.936 413.056 163.936 410.86V406.6H162.592V410.5C162.592 414.076 164.164 415.192 166.912 415.192ZM177.476 415.192C180.236 415.192 182.144 414.304 182.144 412.588C182.144 408.736 174.416 410.968 174.416 408.832C174.416 407.992 175.472 407.524 177.44 407.524C179.264 407.524 180.572 408.172 180.56 409.252H181.94C181.916 407.512 180.104 406.408 177.368 406.408C174.812 406.408 173.036 407.296 173.036 408.988C173.036 412.564 180.788 410.176 180.788 412.648C180.788 413.608 179.588 414.064 177.38 414.076C175.544 414.076 174.236 413.416 174.248 412.348H172.88C172.844 414.04 174.644 415.192 177.476 415.192Z" fill="#7091E8"/>
<path d="M39.988 462.148H40.984V459.532H43.6V458.536H40.972V455.908H39.976V458.536H37.36V459.532H39.988V462.148ZM48.8929 454.432C46.0969 454.432 44.5009 455.548 44.5009 457.24C44.5009 458.872 45.6769 460.096 48.3289 460.096C50.1169 460.096 51.6529 459.28 52.4689 458.584V458.92C52.4689 460.78 50.8849 462.04 48.7729 462.04C47.3449 462.04 46.2649 461.812 45.1489 461.188V462.46C46.0489 462.904 47.0689 463.156 48.5449 463.156C51.6649 463.156 53.8129 461.704 53.8129 458.92C53.8129 455.86 51.8329 454.432 48.8929 454.432ZM49.0009 455.548C50.8849 455.548 51.9289 456.076 52.3129 457.456C51.6289 458.44 49.8769 459.028 48.6289 459.028C46.7569 459.028 45.8569 458.44 45.8569 457.288C45.8569 456.016 46.8889 455.548 49.0009 455.548ZM58.9752 463H60.3192V454.6H59.6952L55.0272 457.276V458.608L58.9752 456.028V463ZM69.9398 454.432C67.1438 454.432 65.5478 455.548 65.5478 457.24C65.5478 458.872 66.7238 460.096 69.3758 460.096C71.1638 460.096 72.6998 459.28 73.5158 458.584V458.92C73.5158 460.78 71.9318 462.04 69.8198 462.04C68.3918 462.04 67.3118 461.812 66.1958 461.188V462.46C67.0958 462.904 68.1158 463.156 69.5918 463.156C72.7118 463.156 74.8598 461.704 74.8598 458.92C74.8598 455.86 72.8798 454.432 69.9398 454.432ZM70.0478 455.548C71.9318 455.548 72.9758 456.076 73.3598 457.456C72.6758 458.44 70.9238 459.028 69.6758 459.028C67.8038 459.028 66.9038 458.44 66.9038 457.288C66.9038 456.016 67.9358 455.548 70.0478 455.548ZM77.0816 463H78.7136L84.4376 455.128V454.6H75.1256V455.716H82.7936L77.0816 463ZM87.0777 463H88.7097L94.4337 455.128V454.6H85.1217V455.716H92.7897L87.0777 463ZM99.2422 463.192C102.002 463.192 103.922 462.736 103.922 460.888C103.922 458.692 100.43 458.848 99.7222 458.824V458.716C100.094 458.716 103.682 458.764 103.682 456.7C103.682 454.684 101.522 454.396 98.9662 454.396C97.8142 454.396 96.0742 454.564 95.0662 454.936V456.052C95.8942 455.716 97.6582 455.512 98.8462 455.512C101.462 455.512 102.446 455.956 102.446 456.808C102.446 457.708 101.006 458.164 95.5222 458.356V459.22C101.246 459.472 102.686 459.808 102.686 460.912C102.686 461.68 101.57 462.076 98.8582 462.076C97.6582 462.076 95.8822 461.896 95.0662 461.548V462.664C96.1102 463.048 97.7302 463.192 99.2422 463.192ZM110.175 463H111.807L117.531 455.128V454.6H108.219V455.716H115.887L110.175 463ZM122.546 463.144C125.342 463.144 126.938 462.028 126.938 460.336C126.938 458.704 125.762 457.48 123.11 457.48C121.322 457.48 119.786 458.296 118.97 458.992V458.656C118.97 456.796 120.554 455.536 122.666 455.536C124.094 455.536 125.174 455.764 126.29 456.388V455.116C125.39 454.672 124.37 454.42 122.894 454.42C119.774 454.42 117.626 455.872 117.626 458.656C117.626 461.716 119.606 463.144 122.546 463.144ZM122.438 462.028C120.554 462.028 119.51 461.5 119.126 460.12C119.81 459.136 121.562 458.548 122.81 458.548C124.682 458.548 125.582 459.136 125.582 460.288C125.582 461.56 124.55 462.028 122.438 462.028ZM132.049 454.432C129.253 454.432 127.657 455.548 127.657 457.24C127.657 458.872 128.833 460.096 131.485 460.096C133.273 460.096 134.809 459.28 135.625 458.584V458.92C135.625 460.78 134.041 462.04 131.929 462.04C130.501 462.04 129.421 461.812 128.305 461.188V462.46C129.205 462.904 130.225 463.156 131.701 463.156C134.821 463.156 136.969 461.704 136.969 458.92C136.969 455.86 134.989 454.432 132.049 454.432ZM132.157 455.548C134.041 455.548 135.085 456.076 135.469 457.456C134.785 458.44 133.033 459.028 131.785 459.028C129.913 459.028 129.013 458.44 129.013 457.288C129.013 456.016 130.045 455.548 132.157 455.548ZM145.417 463.192C148.369 463.192 150.397 462.148 150.397 460.288C150.397 457.972 148.441 457.552 146.617 457.552C145.477 457.552 144.241 457.72 143.137 458.092V455.716H149.941V454.6H142.081V459.652C142.957 459.256 144.349 458.716 146.269 458.716C148.057 458.716 149.053 459.064 149.053 460.156C149.053 461.5 147.985 462.076 145.381 462.076C144.241 462.076 142.261 461.776 141.613 461.476V462.7C142.393 463.012 144.349 463.192 145.417 463.192ZM155.319 463.192C158.271 463.192 160.299 462.148 160.299 460.288C160.299 457.972 158.343 457.552 156.519 457.552C155.379 457.552 154.143 457.72 153.039 458.092V455.716H159.843V454.6H151.983V459.652C152.859 459.256 154.251 458.716 156.171 458.716C157.959 458.716 158.955 459.064 158.955 460.156C158.955 461.5 157.887 462.076 155.283 462.076C154.143 462.076 152.163 461.776 151.515 461.476V462.7C152.295 463.012 154.251 463.192 155.319 463.192ZM165.594 463.192C168.354 463.192 170.274 462.736 170.274 460.888C170.274 458.692 166.782 458.848 166.074 458.824V458.716C166.446 458.716 170.034 458.764 170.034 456.7C170.034 454.684 167.874 454.396 165.318 454.396C164.166 454.396 162.426 454.564 161.418 454.936V456.052C162.246 455.716 164.01 455.512 165.198 455.512C167.814 455.512 168.798 455.956 168.798 456.808C168.798 457.708 167.358 458.164 161.874 458.356V459.22C167.598 459.472 169.038 459.808 169.038 460.912C169.038 461.68 167.922 462.076 165.21 462.076C164.01 462.076 162.234 461.896 161.418 461.548V462.664C162.462 463.048 164.082 463.192 165.594 463.192ZM46.4873 511H47.8313V507.244H53.9873V506.224H47.8313V503.716H54.0953V502.6H46.4873V511ZM55.1484 511H56.6724L57.8244 509.044H64.5924L65.7564 511H67.2684L62.1084 502.6H60.3204L55.1484 511ZM58.4964 507.928L61.2204 503.296L63.9324 507.928H58.4964ZM73.4504 511.192C76.4864 511.192 78.5144 509.656 78.5144 507.34H77.1464C77.0864 509.032 75.6104 510.076 73.4504 510.076C71.2184 510.076 69.7304 508.816 69.7304 506.8C69.7304 504.772 71.2184 503.524 73.4504 503.524C75.5984 503.524 77.0744 504.556 77.1464 506.26H78.5144C78.5144 503.944 76.4864 502.408 73.4504 502.408C70.4144 502.408 68.3864 504.16 68.3864 506.8C68.3864 509.44 70.4144 511.192 73.4504 511.192ZM81.1068 511H88.7628V509.884H82.4508V507.244H88.6548V506.224H82.4508V503.716H88.7628V502.6H81.1068V511ZM92.0217 511H98.4417C100.074 511 101.154 510.112 101.154 508.768C101.154 507.46 100.122 506.764 98.5497 506.728C99.9657 506.644 100.878 506.056 100.878 504.82C100.878 503.536 99.9177 502.6 98.1777 502.6H92.0217V511ZM93.3657 506.32L93.3537 503.716H97.7577C98.9097 503.716 99.5337 504.136 99.5337 505.048C99.5337 505.924 98.9097 506.32 97.7577 506.32H93.3657ZM93.3777 509.872L93.3657 507.148H98.0217C99.1737 507.148 99.7977 507.556 99.7977 508.468C99.7977 509.428 99.1737 509.872 98.0217 509.872H93.3777ZM108.732 511.192C112.02 511.192 114.048 509.44 114.048 506.8C114.048 504.16 112.02 502.408 108.732 502.408C105.456 502.408 103.428 504.16 103.428 506.8C103.428 509.44 105.456 511.192 108.732 511.192ZM108.732 510.076C106.368 510.076 104.772 508.816 104.772 506.8C104.772 504.772 106.368 503.524 108.732 503.524C111.108 503.524 112.704 504.772 112.704 506.8C112.704 508.816 111.108 510.076 108.732 510.076ZM121.639 511.192C124.927 511.192 126.955 509.44 126.955 506.8C126.955 504.16 124.927 502.408 121.639 502.408C118.363 502.408 116.335 504.16 116.335 506.8C116.335 509.44 118.363 511.192 121.639 511.192ZM121.639 510.076C119.275 510.076 117.679 508.816 117.679 506.8C117.679 504.772 119.275 503.524 121.639 503.524C124.015 503.524 125.611 504.772 125.611 506.8C125.611 508.816 124.015 510.076 121.639 510.076ZM129.817 511H131.161V509.2L134.605 506.332L137.737 511H139.357L135.613 505.516L139.105 502.6H137.257L131.161 507.796V502.6H129.817V511ZM37.36 559H38.872L48.856 550.6H47.344L37.36 559ZM46.8109 559H48.3229L58.3069 550.6H56.7949L46.8109 559ZM65.7515 559H67.0955V550.6H65.7515V559ZM70.4906 559H71.8346V552.244L78.5306 559H79.9106V550.6H78.5666V557.368L71.8586 550.6H70.4906V559ZM87.3482 559.192C90.1082 559.192 92.0162 558.304 92.0162 556.588C92.0162 552.736 84.2882 554.968 84.2882 552.832C84.2882 551.992 85.3442 551.524 87.3122 551.524C89.1362 551.524 90.4442 552.172 90.4322 553.252H91.8122C91.7882 551.512 89.9762 550.408 87.2402 550.408C84.6842 550.408 82.9082 551.296 82.9082 552.988C82.9082 556.564 90.6602 554.176 90.6602 556.648C90.6602 557.608 89.4602 558.064 87.2522 558.076C85.4162 558.076 84.1082 557.416 84.1202 556.348H82.7522C82.7162 558.04 84.5162 559.192 87.3482 559.192ZM97.8304 559H99.1744V551.716H103.446V550.6H93.5704V551.716H97.8304V559ZM103.126 559H104.65L105.802 557.044H112.57L113.734 559H115.246L110.086 550.6H108.298L103.126 559ZM106.474 555.928L109.198 551.296L111.91 555.928H106.474ZM121.548 559.192C123.072 559.192 124.584 558.676 125.412 557.524L125.34 559H126.588V554.62H120.288V555.664H125.244C125.088 557.164 123.66 558.076 121.548 558.076C119.316 558.076 117.828 556.816 117.828 554.8C117.828 552.772 119.316 551.524 121.548 551.524C123.708 551.524 125.004 552.316 125.148 553.672H126.456C126.324 551.716 124.428 550.408 121.548 550.408C118.512 550.408 116.484 552.16 116.484 554.8C116.484 557.44 118.512 559.192 121.548 559.192ZM129.858 559H131.202L131.19 555.34H134.646C136.242 555.34 136.662 556.204 138.222 559H139.686C138.198 556.264 137.418 555.064 135.486 554.932H136.374C137.994 554.932 139.074 554.164 139.074 552.82C139.074 551.536 138.114 550.6 136.374 550.6H129.858V559ZM131.19 554.188L131.178 551.728H135.954C137.202 551.728 137.73 552.124 137.73 553.036C137.73 553.72 137.226 554.188 135.954 554.188H131.19ZM141.929 559H143.453L144.605 557.044H151.373L152.537 559H154.049L148.889 550.6H147.101L141.929 559ZM145.277 555.928L148.001 551.296L150.713 555.928H145.277ZM156.551 559H157.895V552.52L161.735 559H161.963L165.791 552.472V559H167.135V550.6H165.479L161.843 556.948L158.219 550.6H156.551V559Z" fill="#F8F4F5"/>
<path d="M63.385 659H68.474V658.349H64.939C66.514 657.726 68.684 656.529 68.684 655.381C68.684 654.289 67.795 653.995 66.129 653.995C65.282 653.995 64.05 654.107 63.637 654.24V654.919C63.924 654.807 65.233 654.646 65.94 654.646C67.382 654.646 67.893 654.898 67.893 655.514C67.893 656.417 65.149 657.663 63.385 658.58V659ZM72.1719 659.112C74.0899 659.112 75.2729 658.09 75.2729 656.55C75.2729 655.01 74.0899 653.988 72.1719 653.988C70.2609 653.988 69.0779 655.01 69.0779 656.55C69.0779 658.09 70.2609 659.112 72.1719 659.112ZM72.1719 658.461C70.7929 658.461 69.8619 657.726 69.8619 656.55C69.8619 655.367 70.7929 654.639 72.1719 654.639C73.5579 654.639 74.4889 655.367 74.4889 656.55C74.4889 657.726 73.5579 658.461 72.1719 658.461ZM75.6213 659H80.7103V658.349H77.1753C78.7503 657.726 80.9203 656.529 80.9203 655.381C80.9203 654.289 80.0313 653.995 78.3653 653.995C77.5183 653.995 76.2863 654.107 75.8733 654.24V654.919C76.1603 654.807 77.4693 654.646 78.1763 654.646C79.6183 654.646 80.1293 654.898 80.1293 655.514C80.1293 656.417 77.3853 657.663 75.6213 658.58V659ZM84.4082 659.112C86.3262 659.112 87.5092 658.09 87.5092 656.55C87.5092 655.01 86.3262 653.988 84.4082 653.988C82.4972 653.988 81.3142 655.01 81.3142 656.55C81.3142 658.09 82.4972 659.112 84.4082 659.112ZM84.4082 658.461C83.0292 658.461 82.0982 657.726 82.0982 656.55C82.0982 655.367 83.0292 654.639 84.4082 654.639C85.7942 654.639 86.7252 655.367 86.7252 656.55C86.7252 657.726 85.7942 658.461 84.4082 658.461ZM90.1719 659H91.0609L91.7329 657.859H95.6809L96.3599 659H97.2419L94.2319 654.1H93.1889L90.1719 659ZM92.1249 657.208L93.7139 654.506L95.2959 657.208H92.1249ZM97.9261 659H102.287V658.349H98.7101V654.1H97.9261V659ZM103.142 659H107.503V658.349H103.926V654.1H103.142V659ZM110.525 659H111.309L111.302 656.865H113.318C114.249 656.865 114.494 657.369 115.404 659H116.258C115.39 657.404 114.935 656.704 113.808 656.627H114.326C115.271 656.627 115.901 656.179 115.901 655.395C115.901 654.646 115.341 654.1 114.326 654.1H110.525V659ZM111.302 656.193L111.295 654.758H114.081C114.809 654.758 115.117 654.989 115.117 655.521C115.117 655.92 114.823 656.193 114.081 656.193H111.302ZM117.115 659H117.899V654.1H117.115V659ZM121.909 659.112C122.798 659.112 123.68 658.811 124.163 658.139L124.121 659H124.849V656.445H121.174V657.054H124.065C123.974 657.929 123.141 658.461 121.909 658.461C120.607 658.461 119.739 657.726 119.739 656.55C119.739 655.367 120.607 654.639 121.909 654.639C123.169 654.639 123.925 655.101 124.009 655.892H124.772C124.695 654.751 123.589 653.988 121.909 653.988C120.138 653.988 118.955 655.01 118.955 656.55C118.955 658.09 120.138 659.112 121.909 659.112ZM126.056 659H126.84V656.802H130.347V659H131.131V654.1H130.347V656.151H126.84V654.1H126.056V659ZM134.377 659H135.161V654.751H137.653V654.1H131.892V654.751H134.377V659ZM140.754 659.112C142.364 659.112 143.477 658.594 143.477 657.593C143.477 655.346 138.969 656.648 138.969 655.402C138.969 654.912 139.585 654.639 140.733 654.639C141.797 654.639 142.56 655.017 142.553 655.647H143.358C143.344 654.632 142.287 653.988 140.691 653.988C139.2 653.988 138.164 654.506 138.164 655.493C138.164 657.579 142.686 656.186 142.686 657.628C142.686 658.188 141.986 658.454 140.698 658.461C139.627 658.461 138.864 658.076 138.871 657.453H138.073C138.052 658.44 139.102 659.112 140.754 659.112ZM146.536 659H147.32L147.313 656.865H149.329C150.26 656.865 150.505 657.369 151.415 659H152.269C151.401 657.404 150.946 656.704 149.819 656.627H150.337C151.282 656.627 151.912 656.179 151.912 655.395C151.912 654.646 151.352 654.1 150.337 654.1H146.536V659ZM147.313 656.193L147.306 654.758H150.092C150.82 654.758 151.128 654.989 151.128 655.521C151.128 655.92 150.834 656.193 150.092 656.193H147.313ZM153.126 659H157.592V658.349H153.91V656.809H157.529V656.214H153.91V654.751H157.592V654.1H153.126V659ZM161.159 659.112C162.769 659.112 163.882 658.594 163.882 657.593C163.882 655.346 159.374 656.648 159.374 655.402C159.374 654.912 159.99 654.639 161.138 654.639C162.202 654.639 162.965 655.017 162.958 655.647H163.763C163.749 654.632 162.692 653.988 161.096 653.988C159.605 653.988 158.569 654.506 158.569 655.493C158.569 657.579 163.091 656.186 163.091 657.628C163.091 658.188 162.391 658.454 161.103 658.461C160.032 658.461 159.269 658.076 159.276 657.453H158.478C158.457 658.44 159.507 659.112 161.159 659.112ZM164.843 659H169.309V658.349H165.627V656.809H169.246V656.214H165.627V654.751H169.309V654.1H164.843V659ZM170.51 659H171.294L171.287 656.865H173.303C174.234 656.865 174.479 657.369 175.389 659H176.243C175.375 657.404 174.92 656.704 173.793 656.627H174.311C175.256 656.627 175.886 656.179 175.886 655.395C175.886 654.646 175.326 654.1 174.311 654.1H170.51V659ZM171.287 656.193L171.28 654.758H174.066C174.794 654.758 175.102 654.989 175.102 655.521C175.102 655.92 174.808 656.193 174.066 656.193H171.287ZM178.806 659H180.381L182.964 654.1H181.998L179.597 658.776L177.189 654.1H176.223L178.806 659ZM183.642 659H188.108V658.349H184.426V656.809H188.045V656.214H184.426V654.751H188.108V654.1H183.642V659ZM189.309 659H191.591C193.355 659 194.447 658.174 194.447 656.55C194.447 654.947 193.362 654.1 191.591 654.1H189.309V659ZM190.093 658.349V654.751H191.591C192.872 654.751 193.74 655.437 193.74 656.55C193.74 657.663 192.872 658.349 191.591 658.349H190.093Z" fill="#7091E8"/>
<g clip-path="url(#clip0)">
<path d="M46.4328 658.837C44.8158 658.837 43.7237 657.759 43.7237 656.134C43.7237 654.51 44.8158 653.431 46.4328 653.431C47.766 653.431 48.7589 654.159 49.0142 655.294H51.4963C51.2977 653.109 49.3404 651.667 46.4328 651.667C43.3549 651.667 41.3125 653.445 41.3125 656.134C41.3125 658.823 43.3549 660.602 46.4328 660.602C49.2836 660.602 51.2268 659.187 51.4963 657.016H49.0425C48.7447 658.123 47.766 658.837 46.4328 658.837Z" fill="#7091E8"/>
<path d="M46.3471 650C41.7942 650 39 652.451 39 656.148C39 659.846 41.7091 662.296 46.3471 662.296C51.0135 662.296 53.7083 659.846 53.7083 656.148C53.7083 652.409 51.0135 650 46.3471 650ZM46.3471 661.848C41.936 661.848 39.4397 659.481 39.4397 656.19C39.4397 652.885 41.8934 650.462 46.3471 650.462C50.9425 650.462 53.2403 652.829 53.2403 656.12C53.2403 659.425 50.9993 661.848 46.3471 661.848Z" fill="#7091E8"/>
</g>
<path d="M56.0138 45.3586H51.6875V52.9262H56.0138V45.3586Z" fill="#7091E8"/>
<path d="M40.3211 47.6325L36.584 50.2759L40.635 56.5186L44.372 53.8752L40.3211 47.6325Z" fill="#7091E8"/>
<path d="M67.7131 47.8713L63.6621 54.114L67.3992 56.7574L71.4502 50.5147L67.7131 47.8713Z" fill="#7091E8"/>
<path d="M54.1345 57.9712C46.3299 57.9712 35 62.6378 35 69.9505C35 73.1835 37.3156 76.2577 41.5226 78.6054C45.1969 80.6597 50.0314 81.9346 54.139 81.9346C61.9571 81.9346 73.3187 77.268 73.3187 69.9553C73.3187 62.6426 61.9571 57.9712 54.1345 57.9712ZM59.5512 63.3306C59.33 66.299 57.0008 68.6467 54.1571 68.6467C51.3178 68.6467 48.9841 66.3038 48.7629 63.3354C50.6498 62.811 52.5862 62.4983 54.1345 62.4983C55.6467 62.4983 57.5967 62.7918 59.5512 63.3306ZM62.8418 75.3628C60.138 76.5608 56.6397 77.3642 54.1345 77.3642C51.6473 77.3642 48.1626 76.5608 45.4678 75.3628C42.0959 73.8666 40.2407 71.947 40.2407 69.9553C40.2407 68.1608 41.7212 66.4289 44.4296 65.0096C45.3594 69.8254 49.3678 73.4577 54.1571 73.4577C58.9509 73.4577 62.9592 69.8206 63.8846 65C66.2905 66.2605 68.0735 67.9443 68.0735 69.9553C68.078 71.947 66.2183 73.8666 62.8418 75.3628Z" fill="#7091E8"/>
<path d="M38.183 300H39.639V295.918H46.152V300H47.608V290.9H46.152V294.709H39.639V290.9H38.183V300ZM50.5096 300H58.8036V298.791H51.9656V295.931H58.6866V294.826H51.9656V292.109H58.8036V290.9H50.5096V300ZM61.5541 300H69.6531V298.791H63.0101V290.9H61.5541V300ZM71.7606 300H79.8596V298.791H73.2166V290.9H71.7606V300ZM86.8615 300.208C90.4235 300.208 92.6205 298.31 92.6205 295.45C92.6205 292.59 90.4235 290.692 86.8615 290.692C83.3125 290.692 81.1155 292.59 81.1155 295.45C81.1155 298.31 83.3125 300.208 86.8615 300.208ZM86.8615 298.999C84.3005 298.999 82.5715 297.634 82.5715 295.45C82.5715 293.253 84.3005 291.901 86.8615 291.901C89.4355 291.901 91.1645 293.253 91.1645 295.45C91.1645 297.634 89.4355 298.999 86.8615 298.999ZM100.688 290.575C96.7881 290.575 94.3701 292.668 94.3701 295.814C94.3701 298.96 96.7881 301.053 100.688 301.053C101.494 301.053 102.235 300.962 102.911 300.793V299.467C102.274 299.688 101.533 299.792 100.688 299.792C97.7891 299.792 95.8261 298.167 95.8261 295.814C95.8261 293.461 97.7891 291.823 100.688 291.823C103.6 291.823 105.576 293.266 105.576 295.424C105.576 296.672 105.225 297.439 103.821 298.206V295.398C103.821 293.903 103.093 292.889 101.221 292.889C100.285 292.889 99.1801 293.136 98.2831 293.474V294.384C98.9981 294.072 99.9601 293.773 100.792 293.773C102.092 293.773 102.612 294.111 102.625 295.242C101.468 295.372 97.6071 295.385 97.6071 297.179C97.6071 298.414 98.8031 298.583 99.5961 298.583C101.234 298.583 102.534 297.959 102.859 296.503H102.937L102.612 298.414H104.887C106.395 297.855 107.019 296.685 107.019 295.424C107.019 292.759 104.601 290.575 100.688 290.575ZM100.012 297.712C99.2841 297.712 98.8681 297.465 98.8681 297.036C98.8681 296.087 101.351 296.087 102.586 295.983C102.56 297.114 101.312 297.712 100.012 297.712ZM113.769 300.208C116.759 300.208 118.826 299.246 118.826 297.387C118.826 293.214 110.454 295.632 110.454 293.318C110.454 292.408 111.598 291.901 113.73 291.901C115.706 291.901 117.123 292.603 117.11 293.773H118.605C118.579 291.888 116.616 290.692 113.652 290.692C110.883 290.692 108.959 291.654 108.959 293.487C108.959 297.361 117.357 294.774 117.357 297.452C117.357 298.492 116.057 298.986 113.665 298.999C111.676 298.999 110.259 298.284 110.272 297.127H108.79C108.751 298.96 110.701 300.208 113.769 300.208ZM124.345 300H125.801V292.109H130.429V290.9H119.73V292.109H124.345V300ZM137.045 300.208C140.022 300.208 141.712 298.999 141.712 295.125V290.9H140.256V295.515C140.256 297.894 139.32 299.012 137.045 299.012C134.77 299.012 133.821 297.894 133.821 295.515V290.9H132.365V295.125C132.365 298.999 134.068 300.208 137.045 300.208ZM144.616 300H148.854C152.13 300 154.158 298.466 154.158 295.45C154.158 292.473 152.143 290.9 148.854 290.9H144.616V300ZM146.072 298.791V292.109H148.854C151.233 292.109 152.845 293.383 152.845 295.45C152.845 297.517 151.233 298.791 148.854 298.791H146.072ZM156.46 300H157.916V290.9H156.46V300ZM166.013 300.208C169.575 300.208 171.772 298.31 171.772 295.45C171.772 292.59 169.575 290.692 166.013 290.692C162.464 290.692 160.267 292.59 160.267 295.45C160.267 298.31 162.464 300.208 166.013 300.208ZM166.013 298.999C163.452 298.999 161.723 297.634 161.723 295.45C161.723 293.253 163.452 291.901 166.013 291.901C168.587 291.901 170.316 293.253 170.316 295.45C170.316 297.634 168.587 298.999 166.013 298.999ZM178.449 300.208C181.439 300.208 183.506 299.246 183.506 297.387C183.506 293.214 175.134 295.632 175.134 293.318C175.134 292.408 176.278 291.901 178.41 291.901C180.386 291.901 181.803 292.603 181.79 293.773H183.285C183.259 291.888 181.296 290.692 178.332 290.692C175.563 290.692 173.639 291.654 173.639 293.487C173.639 297.361 182.037 294.774 182.037 297.452C182.037 298.492 180.737 298.986 178.345 298.999C176.356 298.999 174.939 298.284 174.952 297.127H173.47C173.431 298.96 175.381 300.208 178.449 300.208ZM185.81 300H187.266V292.681L194.52 300H196.015V290.9H194.559V298.232L187.292 290.9H185.81V300ZM204.098 300.208C207.66 300.208 209.857 298.31 209.857 295.45C209.857 292.59 207.66 290.692 204.098 290.692C200.549 290.692 198.352 292.59 198.352 295.45C198.352 298.31 200.549 300.208 204.098 300.208ZM204.098 298.999C201.537 298.999 199.808 297.634 199.808 295.45C199.808 293.253 201.537 291.901 204.098 291.901C206.672 291.901 208.401 293.253 208.401 295.45C208.401 297.634 206.672 298.999 204.098 298.999ZM214.57 300H216.104L218.626 292.668L221.135 300H222.669L226.036 290.9H224.515L221.824 298.271L219.224 290.9H218.002L215.402 298.271L212.711 290.9H211.203L214.57 300ZM232.643 300.208C235.633 300.208 237.7 299.246 237.7 297.387C237.7 293.214 229.328 295.632 229.328 293.318C229.328 292.408 230.472 291.901 232.604 291.901C234.58 291.901 235.997 292.603 235.984 293.773H237.479C237.453 291.888 235.49 290.692 232.526 290.692C229.757 290.692 227.833 291.654 227.833 293.487C227.833 297.361 236.231 294.774 236.231 297.452C236.231 298.492 234.931 298.986 232.539 298.999C230.55 298.999 229.133 298.284 229.146 297.127H227.664C227.625 298.96 229.575 300.208 232.643 300.208ZM240.004 300H241.46V295.918H247.973V300H249.429V290.9H247.973V294.709H241.46V290.9H240.004V300ZM257.53 300.208C261.092 300.208 263.289 298.31 263.289 295.45C263.289 292.59 261.092 290.692 257.53 290.692C253.981 290.692 251.784 292.59 251.784 295.45C251.784 298.31 253.981 300.208 257.53 300.208ZM257.53 298.999C254.969 298.999 253.24 297.634 253.24 295.45C253.24 293.253 254.969 291.901 257.53 291.901C260.104 291.901 261.833 293.253 261.833 295.45C261.833 297.634 260.104 298.999 257.53 298.999ZM268.002 300H269.536L272.058 292.668L274.567 300H276.101L279.468 290.9H277.947L275.256 298.271L272.656 290.9H271.434L268.834 298.271L266.143 290.9H264.635L268.002 300ZM281.792 300.234C282.273 300.234 282.676 299.857 282.676 299.415C282.676 298.96 282.247 298.596 281.792 298.596C281.337 298.596 280.921 298.96 280.921 299.415C280.921 299.857 281.337 300.234 281.792 300.234ZM289.832 300.208C293.121 300.208 295.318 298.544 295.318 296.035H293.836C293.771 297.868 292.172 298.999 289.832 298.999C287.414 298.999 285.802 297.634 285.802 295.45C285.802 293.253 287.414 291.901 289.832 291.901C292.159 291.901 293.758 293.019 293.836 294.865H295.318C295.318 292.356 293.121 290.692 289.832 290.692C286.543 290.692 284.346 292.59 284.346 295.45C284.346 298.31 286.543 300.208 289.832 300.208ZM302.888 300.208C306.45 300.208 308.647 298.31 308.647 295.45C308.647 292.59 306.45 290.692 302.888 290.692C299.339 290.692 297.142 292.59 297.142 295.45C297.142 298.31 299.339 300.208 302.888 300.208ZM302.888 298.999C300.327 298.999 298.598 297.634 298.598 295.45C298.598 293.253 300.327 291.901 302.888 291.901C305.462 291.901 307.191 293.253 307.191 295.45C307.191 297.634 305.462 298.999 302.888 298.999ZM310.968 300H312.424V292.98L316.584 300H316.831L320.978 292.928V300H322.434V290.9H320.64L316.701 297.777L312.775 290.9H310.968V300Z" fill="#7091E8"/>
<line x1="39" y1="310.25" x2="322" y2="310.25" stroke="#7091E8" stroke-width="1.5"/>
<defs>
<clipPath id="clip0">
<rect width="14.7083" height="12.2964" fill="white" transform="translate(39 650)"/>
</clipPath>
</defs>
</svg>
