<svg width="16" height="13" viewBox="0 0 16 13" fill="none" xmlns="http://www.w3.org/2000/svg">
<g clip-path="url(#clip0)">
<path d="M8.08505 8.94133C6.32613 8.94133 5.13809 7.88894 5.13809 6.30351C5.13809 4.71809 6.32613 3.6657 8.08505 3.6657C9.53539 3.6657 10.6154 4.37641 10.8932 5.48347H13.5932C13.3772 3.35135 11.248 1.9436 8.08505 1.9436C4.73693 1.9436 2.51514 3.67937 2.51514 6.30351C2.51514 8.92766 4.73693 10.6634 8.08505 10.6634C11.1863 10.6634 13.3001 9.28301 13.5932 7.16456H10.924C10.6 8.24429 9.53539 8.94133 8.08505 8.94133Z" fill="black"/>
<path d="M7.99229 0.317383C3.03954 0.317383 0 2.70918 0 6.31738C0 9.92558 2.94696 12.3174 7.99229 12.3174C13.0685 12.3174 16 9.92558 16 6.31738C16 2.66818 13.0685 0.317383 7.99229 0.317383ZM7.99229 11.88C3.19383 11.88 0.478303 9.57023 0.478303 6.35839C0.478303 3.13287 3.14754 0.768408 7.99229 0.768408C12.9913 0.768408 15.4908 3.0782 15.4908 6.29005C15.4908 9.51556 13.053 11.88 7.99229 11.88Z" fill="black"/>
</g>
<defs>
<clipPath id="clip0">
<rect width="16" height="12" fill="white" transform="translate(0 0.317383)"/>
</clipPath>
</defs>
</svg>
