<svg width="15" height="13" viewBox="0 0 15 13" fill="none" xmlns="http://www.w3.org/2000/svg">
<g clip-path="url(#clip0)">
<path d="M7.43276 8.8371C5.81583 8.8371 4.7237 7.75871 4.7237 6.13412C4.7237 4.50953 5.81583 3.43114 7.43276 3.43114C8.76601 3.43114 9.75886 4.15941 10.0142 5.29382H12.4963C12.2977 3.10903 10.3404 1.6665 7.43276 1.6665C4.35493 1.6665 2.3125 3.44515 2.3125 6.13412C2.3125 8.82309 4.35493 10.6017 7.43276 10.6017C10.2836 10.6017 12.2268 9.18722 12.4963 7.01644H10.0425C9.74467 8.12284 8.76601 8.8371 7.43276 8.8371Z" fill="#7091E8"/>
<path d="M7.34707 0C2.79416 0 0 2.45089 0 6.14822C0 9.84556 2.70905 12.2964 7.34707 12.2964C12.0135 12.2964 14.7083 9.84556 14.7083 6.14822C14.7083 2.40887 12.0135 0 7.34707 0ZM7.34707 11.8483C2.93599 11.8483 0.43969 9.48143 0.43969 6.19024C0.43969 2.88504 2.89344 0.462167 7.34707 0.462167C11.9425 0.462167 14.2403 2.82902 14.2403 6.12021C14.2403 9.42541 11.9993 11.8483 7.34707 11.8483Z" fill="#7091E8"/>
</g>
<defs>
<clipPath id="clip0">
<rect width="14.7083" height="12.2964" fill="white"/>
</clipPath>
</defs>
</svg>
