<svg width="62" height="58" viewBox="0 0 62 58" fill="none" xmlns="http://www.w3.org/2000/svg">
<path d="M34 0H27V12H34V0Z" fill="#7091E8"/>
<path d="M8.60912 3.60611L2.5625 7.79785L9.11701 17.6972L15.1636 13.5055L8.60912 3.60611Z" fill="#7091E8"/>
<path d="M52.93 3.98443L46.3755 13.8838L52.4221 18.0755L58.9766 8.17617L52.93 3.98443Z" fill="#7091E8"/>
<path d="M30.9598 20C18.332 20 0 27.4001 0 38.9962C0 44.1229 3.74674 48.9978 10.5537 52.7207C16.4988 55.9783 24.3209 58 30.9671 58C43.6169 58 62 50.5999 62 39.0038C62 27.4078 43.6169 20 30.9598 20ZM39.7241 28.4987C39.3662 33.2058 35.5976 36.9287 30.9963 36.9287C26.4024 36.9287 22.6264 33.2134 22.2686 28.5063C25.3215 27.6748 28.4547 27.1789 30.9598 27.1789C33.4065 27.1789 36.5617 27.6442 39.7241 28.4987ZM45.0484 47.5788C40.6736 49.4784 35.0133 50.7525 30.9598 50.7525C26.9356 50.7525 21.2972 49.4784 16.937 47.5788C11.4812 45.2062 8.47943 42.1622 8.47943 39.0038C8.47943 36.1582 10.875 33.4118 15.2572 31.1612C16.7617 38.7978 23.2473 44.5577 30.9963 44.5577C38.7527 44.5577 45.2383 38.7902 46.7355 31.146C50.6283 33.1447 53.5133 35.8149 53.5133 39.0038C53.5206 42.1622 50.5115 45.2062 45.0484 47.5788Z" fill="#7091E8"/>
</svg>
