<?xml version="1.0" encoding="utf-8"?>
<!-- Generator: Adobe Illustrator 25.0.1, SVG Export Plug-In . SVG Version: 6.00 Build 0)  -->
<svg version="1.1" id="Layer_1" xmlns="http://www.w3.org/2000/svg" xmlns:xlink="http://www.w3.org/1999/xlink" x="0px" y="0px"
	 viewBox="0 0 1366 242.4" style="enable-background:new 0 0 1366 242.4;" xml:space="preserve">
<style type="text/css">
	.st0{fill:#888888;}
	.st1{fill:none;stroke:#888888;}
	.st2{fill:none;stroke:#888888;stroke-width:1.5;}
	.st3{fill:none;stroke:#FFFFFF;stroke-width:2;}
	.st4{fill:none;stroke:#FFFFFF;stroke-width:2.0087;}
	.st5{fill:none;stroke:#FFFFFF;stroke-width:2.0082;}
</style>
<g>
	<g>
		<path class="st0" d="M378.8,43h6.4c1.6,0,2.7-0.9,2.7-2.2c0-1.3-1-2-2.6-2c1.4-0.1,2.3-0.7,2.3-1.9c0-1.3-1-2.2-2.7-2.2h-6.2V43z
			 M380.1,38.3l0-2.6h4.4c1.2,0,1.8,0.4,1.8,1.3c0,0.9-0.6,1.3-1.8,1.3H380.1z M380.1,41.9l0-2.7h4.7c1.2,0,1.8,0.4,1.8,1.3
			c0,1-0.6,1.4-1.8,1.4H380.1z M394.3,43.2c3.3,0,5.3-1.8,5.3-4.4s-2-4.4-5.3-4.4c-3.3,0-5.3,1.8-5.3,4.4S391,43.2,394.3,43.2z
			 M394.3,42.1c-2.4,0-4-1.3-4-3.3c0-2,1.6-3.3,4-3.3c2.4,0,4,1.2,4,3.3C398.3,40.8,396.7,42.1,394.3,42.1z M406,43.2
			c3.3,0,5.3-1.8,5.3-4.4s-2-4.4-5.3-4.4c-3.3,0-5.3,1.8-5.3,4.4S402.7,43.2,406,43.2z M406,42.1c-2.4,0-4-1.3-4-3.3
			c0-2,1.6-3.3,4-3.3c2.4,0,4,1.2,4,3.3C410,40.8,408.4,42.1,406,42.1z M413,43h1.3v-1.8l3.4-2.9l3.1,4.7h1.6l-3.7-5.5l3.5-2.9h-1.8
			l-6.1,5.2v-5.2H413V43z M428,43h1.3v-6.8L436,43h1.4v-8.4h-1.3v6.8l-6.7-6.8H428V43z M438.3,43h1.5l1.2-2h6.8l1.2,2h1.5l-5.2-8.4
			h-1.8L438.3,43z M441.7,39.9l2.7-4.6l2.7,4.6H441.7z M451.8,43h1.3v-6.5l3.8,6.5h0.2l3.8-6.5V43h1.3v-8.4h-1.7l-3.6,6.3l-3.6-6.3
			h-1.7V43z M464.5,43h7.7v-1.1h-6.3v-2.6h6.2v-1h-6.2v-2.5h6.3v-1.1h-7.7V43z"/>
		<path class="st0" d="M381.5,139h1.4l2.3-6.8l2.3,6.8h1.4l3.1-8.4h-1.4l-2.5,6.8l-2.4-6.8h-1.1l-2.4,6.8l-2.5-6.8h-1.4L381.5,139z
			 M393,139h1.3v-2c0-1.9,1-3.1,3.7-3.1v-1.1c-2.4,0-3.3,0.7-3.7,2.7h-0.1l0.2-2.5H393V139z M400.2,131.7c0.5,0,0.9-0.3,0.9-0.8
			c0-0.5-0.4-0.8-0.9-0.8c-0.5,0-0.9,0.3-0.9,0.8C399.3,131.4,399.7,131.7,400.2,131.7z M399.5,139h1.3v-6h-1.3V139z M405.1,139.1
			c0.6,0,1.1-0.1,1.5-0.2v-0.6c-0.3,0-0.5,0-0.7,0c-1.3,0-1.3-0.3-1.3-1.8V134h2v-1h-2v-1.7l-1.1,0.2v1.4h-1.2v1h1v2.9
			C403.3,138.6,403.6,139.1,405.1,139.1z M411.1,139.2c1.4,0,2.1-0.1,3.3-0.6v-1.1c-0.7,0.3-1.3,0.7-2.7,0.7c-1.9,0-2.8-0.5-3-1.7h6
			v-1c0-1.6-1.5-2.7-3.6-2.7c-2.2,0-3.6,1.3-3.6,3.2S408.9,139.2,411.1,139.2z M408.7,135.7c0.1-1.4,0.8-1.9,2.4-1.9
			c1.6,0,2.3,0.5,2.4,1.8L408.7,135.7z M421.6,139.2c1.8,0,3.3-0.7,3.7-2.3h0.1L425,139h1.4v-3.4c0-1.7-0.8-2.8-2.9-2.8
			c-1.1,0-2.3,0.3-3.3,0.6v1c0.8-0.3,1.9-0.7,2.8-0.7c1.5,0,2,0.4,2.1,1.7c-1.3,0.1-5.6,0.2-5.6,2.2
			C419.4,139,420.7,139.2,421.6,139.2z M422.1,138.2c-0.8,0-1.3-0.3-1.3-0.8c0-1.1,2.8-1.1,4.2-1.2
			C424.9,137.5,423.5,138.2,422.1,138.2z M431.3,139h1.3v-1.5c0-2.3,0.9-3.7,2.3-3.7c1.2,0,1.8,0.8,1.8,2.8v2.4h1.3v-1.5
			c0-2.3,0.9-3.7,2.3-3.7c1.2,0,1.8,0.8,1.8,2.8v2.4h1.3v-2.6c0-2.4-0.8-3.6-2.6-3.6c-1.8,0-2.7,1.3-2.9,2.7h0
			c-0.2-1.8-1-2.6-2.5-2.7c-1.8,0-2.7,1.3-2.9,2.7h-0.1l0.2-2.5h-1.5V139z M448.2,139.2c1.4,0,2.1-0.1,3.3-0.6v-1.1
			c-0.7,0.3-1.3,0.7-2.7,0.7c-1.9,0-2.8-0.5-3-1.7h6v-1c0-1.6-1.5-2.7-3.6-2.7c-2.2,0-3.6,1.3-3.6,3.2S446,139.2,448.2,139.2z
			 M445.8,135.7c0.1-1.4,0.8-1.9,2.4-1.9c1.6,0,2.3,0.5,2.4,1.8L445.8,135.7z M456.4,139.2c2.1,0,3.5-0.6,3.5-1.9
			c0-2.6-5.7-1.2-5.7-2.7c0-0.5,0.7-0.8,2.3-0.8c0.9,0,2.1,0.1,2.9,0.3v-1c-1-0.2-2.3-0.3-3-0.3c-2.1,0-3.5,0.6-3.5,2
			c0,2.6,5.6,1.1,5.6,2.6c0,0.6-0.7,0.8-2.4,0.8c-1.1,0-2-0.1-3-0.5v1C454.2,139,455.5,139.2,456.4,139.2z M464.3,139.2
			c2.1,0,3.5-0.6,3.5-1.9c0-2.6-5.7-1.2-5.7-2.7c0-0.5,0.7-0.8,2.3-0.8c0.9,0,2.1,0.1,2.9,0.3v-1c-1-0.2-2.3-0.3-3-0.3
			c-2.1,0-3.5,0.6-3.5,2c0,2.6,5.6,1.1,5.6,2.6c0,0.6-0.7,0.8-2.4,0.8c-1.1,0-2-0.1-3-0.5v1C462.1,139,463.4,139.2,464.3,139.2z
			 M470.8,139.2c1.8,0,3.3-0.7,3.7-2.3h0.1l-0.4,2.1h1.4v-3.4c0-1.7-0.8-2.8-2.9-2.8c-1.1,0-2.3,0.3-3.3,0.6v1
			c0.8-0.3,1.9-0.7,2.8-0.7c1.5,0,2,0.4,2.1,1.7c-1.3,0.1-5.6,0.2-5.6,2.2C468.6,139,469.9,139.2,470.8,139.2z M471.3,138.2
			c-0.8,0-1.3-0.3-1.3-0.8c0-1.1,2.8-1.1,4.2-1.2C474.1,137.5,472.7,138.2,471.3,138.2z M480.6,141.4c2.2,0,3.8-1,3.8-3.1V133h-1.2
			l0.1,1.9h-0.2c-0.3-1.5-1.8-2.1-3.3-2.1c-1.7,0-3.2,1.3-3.2,3.1c0,1.9,1.5,3.3,3.1,3.3c1.5,0,3-0.6,3.4-2l-0.1,1.2
			c0,1.2-0.7,2-2.5,2c-1.2,0-2.4-0.3-3-0.8v1.2C478.6,141.1,479.1,141.4,480.6,141.4z M480.4,138.2c-1.4,0-2.4-0.9-2.4-2.2
			c0-1.3,0.9-2.2,2.4-2.2c1.3,0,2.4,0.9,2.4,2.2C482.8,137.3,481.7,138.2,480.4,138.2z M489.5,139.2c1.4,0,2.1-0.1,3.3-0.6v-1.1
			c-0.7,0.3-1.3,0.7-2.7,0.7c-1.9,0-2.8-0.5-3-1.7h6v-1c0-1.6-1.5-2.7-3.6-2.7c-2.2,0-3.6,1.3-3.6,3.2S487.3,139.2,489.5,139.2z
			 M487.1,135.7c0.1-1.4,0.8-1.9,2.4-1.9c1.6,0,2.3,0.5,2.4,1.8L487.1,135.7z M495,139.2c0.4,0,0.8-0.3,0.8-0.8
			c0-0.4-0.4-0.8-0.8-0.8c-0.4,0-0.8,0.3-0.8,0.8C494.2,138.9,494.6,139.2,495,139.2z M497.9,139.2c0.4,0,0.8-0.3,0.8-0.8
			c0-0.4-0.4-0.8-0.8-0.8c-0.4,0-0.8,0.3-0.8,0.8C497.1,138.9,497.5,139.2,497.9,139.2z M500.8,139.2c0.4,0,0.8-0.3,0.8-0.8
			c0-0.4-0.4-0.8-0.8-0.8c-0.4,0-0.8,0.3-0.8,0.8C500,138.9,500.4,139.2,500.8,139.2z"/>
		<g>
			<path class="st0" d="M378.8,90.2h7.7v-1.1h-6.3v-2.6h6.2v-1h-6.2v-2.5h6.3v-1.1h-7.7V90.2z M388.5,90.2h1.3v-6.5l3.8,6.5h0.2
				l3.8-6.5v6.5h1.3v-8.4h-1.7l-3.6,6.3l-3.6-6.3h-1.7V90.2z M400.3,90.2h1.5l1.2-2h6.8l1.2,2h1.5l-5.2-8.4h-1.8L400.3,90.2z
				 M403.6,87.1l2.7-4.6l2.7,4.6H403.6z M413.3,90.2h1.3v-8.4h-1.3V90.2z M416.9,90.2h7.5v-1.1h-6.1v-7.3h-1.3V90.2z M428.9,90.2
				h1.5l1.2-2h6.8l1.2,2h1.5l-5.2-8.4H434L428.9,90.2z M432.2,87.1l2.7-4.6l2.7,4.6H432.2z M441.9,90.2h3.9c3,0,4.9-1.4,4.9-4.2
				c0-2.7-1.9-4.2-4.9-4.2h-3.9V90.2z M443.3,89.1v-6.2h2.6c2.2,0,3.7,1.2,3.7,3.1c0,1.9-1.5,3.1-3.7,3.1H443.3z M452.4,90.2h3.9
				c3,0,4.9-1.4,4.9-4.2c0-2.7-1.9-4.2-4.9-4.2h-3.9V90.2z M453.7,89.1v-6.2h2.6c2.2,0,3.7,1.2,3.7,3.1c0,1.9-1.5,3.1-3.7,3.1H453.7
				z M462.8,90.2h1.3l0-3.7h3.5c1.6,0,2,0.9,3.6,3.7h1.5c-1.5-2.7-2.3-3.9-4.2-4.1h0.9c1.6,0,2.7-0.8,2.7-2.1c0-1.3-1-2.2-2.7-2.2
				h-6.5V90.2z M464.2,85.4l0-2.5h4.8c1.2,0,1.8,0.4,1.8,1.3c0,0.7-0.5,1.2-1.8,1.2H464.2z M474.1,90.2h7.7v-1.1h-6.3v-2.6h6.2v-1
				h-6.2v-2.5h6.3v-1.1h-7.7V90.2z M487.9,90.4c2.8,0,4.7-0.9,4.7-2.6c0-3.9-7.7-1.6-7.7-3.8c0-0.8,1.1-1.3,3-1.3
				c1.8,0,3.1,0.6,3.1,1.7h1.4c0-1.7-1.8-2.8-4.6-2.8c-2.6,0-4.3,0.9-4.3,2.6c0,3.6,7.8,1.2,7.8,3.7c0,1-1.2,1.4-3.4,1.4
				c-1.8,0-3.1-0.7-3.1-1.7h-1.4C483.3,89.2,485.1,90.4,487.9,90.4z M498.3,90.4c2.8,0,4.7-0.9,4.7-2.6c0-3.9-7.7-1.6-7.7-3.8
				c0-0.8,1.1-1.3,3-1.3c1.8,0,3.1,0.6,3.1,1.7h1.4c0-1.7-1.8-2.8-4.6-2.8c-2.6,0-4.3,0.9-4.3,2.6c0,3.6,7.8,1.2,7.8,3.7
				c0,1-1.2,1.4-3.4,1.4c-1.8,0-3.1-0.7-3.1-1.7h-1.4C493.6,89.2,495.4,90.4,498.3,90.4z"/>
			<line class="st1" x1="507.5" y1="76" x2="507.5" y2="95"/>
		</g>
	</g>
	<path class="st2" d="M853.6,87h2.4c5.5,0,10-4.5,10-10v-1.1"/>
	<path class="st2" d="M857.4,83.1l-3.8,3.8l3.8,3.8"/>
	<line class="st2" x1="859.2" y1="45.1" x2="859.2" y2="30"/>
	<path class="st2" d="M856,41.8l3.8,3.8l3.8-3.8"/>
	<path class="st3" d="M357.7,14.9h522.6c12.5,0,22.7,10.2,22.7,22.7v0c0,12.5-10.2,22.7-22.7,22.7H357.7
		c-12.5,0-22.7-10.2-22.7-22.7v0C335,25.1,345.2,14.9,357.7,14.9z"/>
	<path class="st3" d="M361,8h516c14.4,0,26,11.6,26,26l0,0c0,14.4-11.6,26-26,26H361c-14.4,0-26-11.6-26-26l0,0
		C335,19.6,346.6,8,361,8z"/>
	<path class="st3" d="M364.5,1h509C889.8,1,903,14.2,903,30.5l0,0c0,16.3-13.2,29.5-29.5,29.5h-509C348.2,60,335,46.8,335,30.5l0,0
		C335,14.2,348.2,1,364.5,1z"/>
	<g>
		<path class="st4" d="M862.1,227.5H375.9c-22.6,0-40.9-18.5-40.9-41.3v-39.5c0-22.8,18.3-41.3,40.9-41.3h486.1
			c22.6,0,40.9,18.5,40.9,41.3v39.5C903,209,884.7,227.5,862.1,227.5z"/>
		<path class="st5" d="M866.8,234.5H371.2c-20,0-36.2-16.3-36.2-36.5v-56.1c0-20.2,16.2-36.5,36.2-36.5h495.6
			c20,0,36.2,16.3,36.2,36.5V198C903,218.1,886.8,234.5,866.8,234.5z"/>
		<path class="st3" d="M873.5,241.4h-509c-16.3,0-29.5-13.2-29.5-29.5v-77c0-16.3,13.2-29.5,29.5-29.5h509
			c16.3,0,29.5,13.2,29.5,29.5v77C903,228.2,889.8,241.4,873.5,241.4z"/>
	</g>
	<line class="st3" x1="903" y1="37.1" x2="1366" y2="37.1"/>
	<line class="st3" x1="0" y1="37.1" x2="334" y2="37.1"/>
	<path class="st3" d="M357.7,60h522.6c12.5,0,22.7,10.2,22.7,22.7l0,0c0,12.5-10.2,22.7-22.7,22.7H357.7
		c-12.5,0-22.7-10.2-22.7-22.7l0,0C335,70.2,345.2,60,357.7,60z"/>
	<line class="st3" x1="903" y1="82" x2="1366" y2="82"/>
	<line class="st3" x1="0" y1="82.2" x2="334" y2="82.2"/>
	<line class="st3" x1="903" y1="170" x2="1366" y2="170"/>
	<line class="st3" x1="0" y1="170.2" x2="334" y2="170.2"/>
	<line class="st3" x1="811" y1="106" x2="811" y2="14"/>
</g>
</svg>
