<?xml version="1.0" encoding="utf-8"?>
<!-- Generator: Adobe Illustrator 25.0.1, SVG Export Plug-In . SVG Version: 6.00 Build 0)  -->
<svg version="1.1" id="Layer_1" xmlns="http://www.w3.org/2000/svg" xmlns:xlink="http://www.w3.org/1999/xlink" x="0px" y="0px"
	 viewBox="0 0 1640.6 378.4" style="enable-background:new 0 0 1640.6 378.4;" xml:space="preserve">
<style type="text/css">
	.st0{fill:none;stroke:#FFFFFF;stroke-width:3;}
	.st1{fill:#FFFFFF;}
</style>
<g>
	<path class="st0" d="M1294.2,188.6L1294.2,188.6c0,86.9-70.5,157.4-157.4,157.4H507.4C420.4,346,350,275.5,350,188.6v0
		c0-86.9,70.5-157.4,157.4-157.4h629.4C1223.7,31.2,1294.2,101.7,1294.2,188.6z"/>
	<path class="st0" d="M1294.2,189.2L1294.2,189.2c0,95.4-77.4,172.8-172.8,172.8H522.8C427.3,362,350,284.6,350,189.2v0
		c0-95.4,77.4-172.8,172.8-172.8h598.6C1216.8,16.4,1294.2,93.7,1294.2,189.2z"/>
	<path class="st0" d="M1294.2,189.2L1294.2,189.2c0,103.7-84,187.7-187.7,187.7H537.7c-103.7,0-187.7-84-187.7-187.7v0
		C350,85.5,434,1.5,537.7,1.5h568.8C1210.2,1.5,1294.2,85.5,1294.2,189.2z"/>
	<line class="st0" x1="0" y1="187.1" x2="348.5" y2="187.1"/>
	<path class="st0" d="M387.7,189.2c0,20.3-17.2,36.8-38.6,36.8c-21.4,0-38.6-16.5-38.6-36.8c0-20.3,17.2-36.8,38.6-36.8
		C370.5,152.4,387.7,168.9,387.7,189.2z"/>
	<ellipse class="st1" cx="350.3" cy="186.9" rx="6.6" ry="6.3"/>
	<line class="st0" x1="1295.7" y1="187.1" x2="1640.6" y2="187.1"/>
	<path class="st0" d="M1334.9,189.2c0,20.3-17.2,36.8-38.6,36.8c-21.4,0-38.6-16.5-38.6-36.8c0-20.3,17.2-36.8,38.6-36.8
		C1317.7,152.4,1334.9,168.9,1334.9,189.2z"/>
	<ellipse class="st1" cx="1293.9" cy="186.9" rx="6.6" ry="6.3"/>
</g>
</svg>
