<?xml version="1.0" encoding="utf-8"?>
<!-- Generator: Adobe Illustrator 25.0.1, SVG Export Plug-In . SVG Version: 6.00 Build 0)  -->
<svg version="1.1" id="Layer_1" xmlns="http://www.w3.org/2000/svg" xmlns:xlink="http://www.w3.org/1999/xlink" x="0px" y="0px"
	 viewBox="0 0 398.5 220.8" style="enable-background:new 0 0 398.5 220.8;" xml:space="preserve">
<style type="text/css">
	.st0{fill:#161616;}
	.st1{fill:none;stroke:#FFFFFF;stroke-width:2;}
	.st2{fill:none;stroke:#7091E8;stroke-width:4;}
	.st3{fill:none;stroke:#7091E8;stroke-width:4;stroke-miterlimit:4;}
	.st4{fill-rule:evenodd;clip-rule:evenodd;fill:#7091E8;}
	.st5{fill:#7091E8;}
</style>
<g>
	<path class="st0" d="M96.7,189.8h4l5.9-11.2h-2.8l-5.1,10.1l-5.1-10.1h-2.7L96.7,189.8z M108,189.8h2.3v-11.2H108V189.8z
		 M113.1,189.8h10.6v-1.9h-8.3V185h8.1v-1.8h-8.1v-2.7h8.3v-1.9h-10.6V189.8z M129.8,189.8h2.5l2.7-7.9l2.7,7.9h2.6l4.1-11.2h-2.5
		l-3,8.3l-2.8-8.3h-2.2l-2.8,8.3l-3-8.3h-2.5L129.8,189.8z M150.5,189.8h2.6l1.4-2.4h8.4l1.4,2.4h2.6l-6.8-11.2h-2.8L150.5,189.8z
		 M155.6,185.5l3.1-5.3l3.1,5.3H155.6z M168.3,189.8h10.1v-1.9h-7.8v-9.3h-2.3V189.8z M180.2,189.8h10.1v-1.9h-7.8v-9.3h-2.3V189.8z
		 M197.1,189.8h2.3v-4.4h5.7c2.2,0,3.8-1.1,3.8-3.4c0-1.9-1.4-3.4-3.8-3.4h-8V189.8z M199.3,183.5v-3.1h5.3c1.3,0,1.9,0.5,1.9,1.6
		s-0.6,1.5-1.9,1.5H199.3z M210.6,189.8h2.3l0-4.8h3.6c2,0,2.5,1,4.6,4.8h2.7c-1.9-3.6-3-5.2-5.6-5.4h1.2c2.2,0,3.6-1,3.6-2.8
		c0-1.7-1.3-3-3.6-3h-8.8V189.8z M212.9,183.2l0-2.7h6c1.3,0,1.9,0.4,1.9,1.4c0,0.8-0.6,1.3-1.9,1.3H212.9z M231.6,190
		c4.4,0,7.1-2.3,7.1-5.9c0-3.5-2.7-5.9-7.1-5.9c-4.4,0-7.1,2.3-7.1,5.9C224.5,187.7,227.2,190,231.6,190z M231.6,188.1
		c-2.9,0-4.8-1.5-4.8-3.9c0-2.5,1.9-4,4.8-4c2.9,0,4.8,1.5,4.8,4C236.4,186.6,234.5,188.1,231.6,188.1z M245.8,190
		c3.3,0,5.5-1.5,5.5-5.7v-5.8h-9.5v1.9h7.2v3.9c0,2.8-1,3.8-3.2,3.8c-2.2,0-3.2-1-3.2-3.8h-2.3C240.3,188.5,242.5,190,245.8,190z
		 M253.9,189.8h10.6v-1.9h-8.3V185h8.1v-1.8h-8.1v-2.7h8.3v-1.9h-10.6V189.8z M273.2,190c4,0,6.8-2,6.8-5.1h-2.3
		c-0.1,2-1.9,3.2-4.4,3.2c-2.7,0-4.5-1.5-4.5-3.9c0-2.5,1.8-4,4.5-4c2.6,0,4.3,1.2,4.4,3.2h2.3c0-3.1-2.7-5.1-6.8-5.1
		s-6.8,2.3-6.8,5.9C266.4,187.7,269.1,190,273.2,190z M286.3,189.8h2.3v-9.3h5.5v-1.9h-13.2v1.9h5.4V189.8z M301.2,190
		c3.7,0,6.3-1.3,6.3-3.6c0-4.9-10-2.3-10-4.7c0-1,1.4-1.5,3.7-1.5c2.3,0,3.6,0.8,3.6,1.9h2.4c0-2.3-2.5-3.8-6.1-3.8
		c-3.5,0-5.8,1.3-5.8,3.6c0,4.8,10,1.9,10,4.6c0,1.2-1.6,1.6-4.2,1.6c-2.4,0-3.7-0.8-3.7-1.9H295C294.9,188.5,297.4,190,301.2,190z"
		/>
</g>
<g>
	<path class="st1" d="M2.7,219.8L199.4,30.2l196.7,189.6H2.7z"/>
	<path class="st1" d="M2.4,219.8L199.4,16l196.7,203.8H2.4z"/>
	<path class="st1" d="M2.3,219.8L199.4,1.5l196.7,218.3H2.3z"/>
</g>
<g>
	<line class="st2" x1="198.9" y1="111.8" x2="198.9" y2="98.8"/>
	<line class="st2" x1="215.6" y1="114.5" x2="223" y2="103.8"/>
	<line class="st3" x1="183" y1="114.5" x2="175.6" y2="103.8"/>
	<path class="st4" d="M225.5,137.5c-5.8-8.3-15.4-13.7-26.3-13.7c-10.9,0-20.5,5.4-26.3,13.7l-1.6,2.3l1.6,2.3
		c5.8,8.3,15.4,13.7,26.3,13.7c10.9,0,20.5-5.4,26.3-13.7l1.6-2.3L225.5,137.5z M199.2,151.8c-9.5,0-18-4.7-23.1-12
		c5.1-7.3,13.5-12,23.1-12c9.5,0,18,4.7,23.1,12C217.1,147,208.7,151.8,199.2,151.8z"/>
	<ellipse class="st5" cx="199.4" cy="138.8" rx="9.5" ry="9"/>
</g>
</svg>
