<?xml version="1.0" encoding="utf-8"?>
<!-- Generator: Adobe Illustrator 24.1.0, SVG Export Plug-In . SVG Version: 6.00 Build 0)  -->
<svg version="1.1" id="Layer_1" xmlns="http://www.w3.org/2000/svg" xmlns:xlink="http://www.w3.org/1999/xlink" x="0px" y="0px"
	 viewBox="0 0 1034.91 77.62" style="enable-background:new 0 0 1034.91 77.62;" xml:space="preserve">
<style type="text/css">
	.st0{fill:#FFFFFF;}
	.st1{fill:#E15A34;}
	.st2{fill:#7091E8;}
	.st3{fill:#E3998E;}
	.st4{fill:#00E7BF;}
	.st5{fill:#C4C4C4;}
	.st6{fill:#E2998E;}
	.st7{fill:none;stroke:#FFFFFF;stroke-width:2.3;stroke-miterlimit:10;}
	.st8{fill:none;stroke:#7091E8;stroke-width:2.3;stroke-miterlimit:10;}
	.st9{fill:none;stroke:#000000;stroke-width:2.3;stroke-miterlimit:10;}
</style>
<g>
	<rect x="889.43" y="0" width="10" height="16"/>
	<rect x="859.44" y="6.28" transform="matrix(0.8279 -0.5609 0.5609 0.8279 140.7472 487.2822)" width="10" height="16"/>
	<rect x="916.43" y="9.78" transform="matrix(0.5608 -0.8279 0.8279 0.5608 393.735 771.8482)" width="16" height="10"/>
	<path d="M405.94,36.35c-12.17-1.02-22.69-1.89-22.69-8.39c0-6.14,7.55-9.26,22.44-9.26c8.93,0.06,15.8,2.09,19.36,5.72
		c1.66,1.7,2.54,3.66,2.6,5.83h13.38c-0.44-13.48-14.63-22.17-36.29-22.17c-21.27,0-34.48,8.02-34.48,20.92
		c0,15.87,19,17.29,35.76,18.56c12.89,0.97,24.03,1.81,24.03,9.14c0,1.87-0.69,3.5-2.04,4.85c-3.4,3.38-11.21,5.07-23.17,4.98
		c-9.19,0-16.27-2.05-19.95-5.78c-1.62-1.65-2.51-3.6-2.58-5.68h-13.39c-0.01,4.6,1.72,8.7,5.12,12.17c6.31,6.45,17.62,10,31.85,10
		c22.86,0,37.06-8.05,37.06-21.02C442.94,39.43,422.43,37.72,405.94,36.35z"/>
	<path d="M490.97,27.19c-16.78,0-22.09,11.36-23.6,20.89l-0.05,0.32h-1.02l1.91-19.67H454.1v47h12.81v-12.8
		c0-15.95,6.78-26.26,17.28-26.26c9.56,0,13.46,5.89,13.46,20.33v18.73h12.81V55.37C510.46,35.55,504.81,27.38,490.97,27.19z"/>
	<path d="M549.04,27.19c-17.66,0-29.52,10.06-29.52,25.03s11.86,25.03,29.52,25.03c17.71,0,29.61-10.06,29.61-25.03
		S566.75,27.19,549.04,27.19z M549.04,67.49c-10.56,0-17.66-6.14-17.66-15.27c0-9.19,7.1-15.37,17.66-15.37
		c10.62,0,17.76,6.18,17.76,15.37C566.79,61.35,559.66,67.49,549.04,67.49z"/>
	<polygon points="649.98,65.69 634.36,28.72 624.45,28.72 609.69,65.52 594.15,28.72 581.41,28.72 601.52,75.72 618.69,75.72 
		629.53,47.57 641.07,75.72 658.14,75.72 678.26,28.72 665.61,28.72 	"/>
	<path d="M739.46,36.35c-12.17-1.02-22.69-1.89-22.69-8.39c0-6.14,7.55-9.26,22.44-9.26c8.93,0.06,15.8,2.09,19.36,5.72
		c1.66,1.7,2.53,3.66,2.6,5.83h13.38c-0.44-13.48-14.63-22.17-36.29-22.17c-21.27,0-34.48,8.02-34.48,20.92
		c0,15.87,19,17.29,35.76,18.56c12.89,0.97,24.03,1.81,24.03,9.14c0,1.87-0.69,3.5-2.04,4.85c-3.4,3.38-11.18,5.06-23.17,4.98
		c-9.19,0-16.27-2.05-19.95-5.78c-1.62-1.65-2.51-3.6-2.58-5.68h-13.39c-0.01,4.6,1.72,8.7,5.12,12.17c6.31,6.45,17.62,10,31.85,10
		c22.86,0,37.06-8.05,37.06-21.02C776.46,39.43,755.94,37.72,739.46,36.35z"/>
	<path d="M824.48,27.19c-13.18,0-21.61,7.42-23.73,20.89l-0.05,0.32h-0.87l0.02-0.39l1.89-38.38h-14.13v66.1h12.81v-12.8
		c0-15.95,6.78-26.26,17.28-26.26c9.56,0,13.46,5.89,13.46,20.33v18.73h12.81V55.37C843.98,35.55,838.33,27.38,824.48,27.19z"/>
	<path d="M894.69,27.31c-17.29,0-42.39,9.7-42.39,24.9c0,6.72,5.13,13.11,14.45,17.99c8.14,4.27,18.85,6.92,27.95,6.92
		c17.32,0,42.49-9.7,42.49-24.9S912.02,27.31,894.69,27.31z M906.69,38.45c-0.49,6.17-5.65,11.05-11.95,11.05
		c-6.29,0-11.46-4.87-11.95-11.04c4.18-1.09,8.47-1.74,11.9-1.74C898.04,36.72,902.36,37.33,906.69,38.45z M913.98,63.46
		c-5.99,2.49-13.74,4.16-19.29,4.16c-5.51,0-13.23-1.67-19.2-4.16c-7.47-3.11-11.58-7.1-11.58-11.24c0-3.73,3.28-7.33,9.28-10.28
		c2.06,10.01,10.94,17.56,21.55,17.56c10.62,0,19.5-7.56,21.55-17.58c5.33,2.62,9.28,6.12,9.28,10.3
		C925.58,56.36,921.46,60.35,913.98,63.46z"/>
	<polygon points="1022.27,28.72 1006.64,65.69 991.02,28.72 981.11,28.72 966.35,65.52 950.81,28.72 938.06,28.72 958.18,75.72 
		975.34,75.72 986.19,47.57 997.72,75.72 1014.8,75.72 1034.91,28.72 	"/>
	<path d="M12.23,27c0-6.69,8.4-10.41,24.07-10.41c14.52,0,24.93,5.16,24.83,13.75h10.98C71.92,16.5,57.5,7.71,35.72,7.71
		c-20.34,0-34.48,7.07-34.48,20.53c0,28.46,61.7,9.45,61.7,29.13c0,7.64-9.55,11.27-27.12,11.36c-14.61,0-25.02-5.25-24.93-13.75H0
		c-0.29,13.47,14.04,22.63,36.58,22.63c21.97,0,37.15-7.07,37.15-20.72C73.73,26.24,12.23,44,12.23,27z"/>
	<path d="M97.51,14.97l-8.69,1.91v11.46h-9.65v7.64h7.64V58.9c0,13.66,1.91,18.15,14.33,18.15c5.16,0,8.79-0.57,12.22-1.91v-5.06
		c-2.1,0.1-4.01,0.19-5.63,0.19c-10.22,0-10.22-2.58-10.22-14.23V35.98h15.85v-7.64H97.51V14.97z"/>
	<path d="M165.13,40.09c0,18.24-6.97,29.51-18.62,29.51c-9.93,0-14.23-6.88-14.23-22.16v-19.1h-10.7v20.72
		c0,19.29,6.69,28.36,20.34,28.56c13.94,0,21.39-10.03,23.21-21.2h0.57l-1.91,19.67h12.03V28.34h-10.7V40.09z"/>
	<path d="M237.61,43.81h-0.38c-2.39-11.84-13.94-17-25.79-17c-13.27,0-25.31,10.03-25.31,25.02c0,15.47,11.94,25.79,25.12,25.79
		c11.94,0,24.54-4.97,26.93-17.1h1.15l-2.1,15.57h11.08V9.24h-10.7V43.81z M215.74,69.69c-11.46,0-18.72-7.16-18.72-17.67
		c0-10.22,7.26-17.29,18.72-17.29c10.22,0,18.91,7.07,18.91,17.29C234.65,62.53,225.96,69.69,215.74,69.69z"/>
	<rect x="263.68" y="28.34" width="10.7" height="47.75"/>
	<path d="M268.84,4.75c-4.01,0-6.88,2.39-6.88,6.59c0,4.3,2.87,6.59,6.88,6.59c4.11,0,7.07-2.29,7.07-6.59
		C275.91,7.14,272.94,4.75,268.84,4.75z"/>
	<path d="M315.44,26.81c-17.76,0-29.51,10.12-29.51,25.4s11.75,25.4,29.51,25.4c17.86,0,29.61-10.12,29.61-25.4
		S333.3,26.81,315.44,26.81z M315.44,69.69c-11.84,0-19.77-7.07-19.77-17.48c0-10.41,7.93-17.48,19.77-17.48
		c11.94,0,19.86,7.07,19.86,17.48C335.31,62.63,327.38,69.69,315.44,69.69z"/>
</g>
</svg>
