<?xml version="1.0" encoding="utf-8"?>
<!-- Generator: Adobe Illustrator 25.0.1, SVG Export Plug-In . SVG Version: 6.00 Build 0)  -->
<svg version="1.1" id="Layer_1" xmlns="http://www.w3.org/2000/svg" xmlns:xlink="http://www.w3.org/1999/xlink" x="0px" y="0px"
	 viewBox="0 0 570 242.9" style="enable-background:new 0 0 570 242.9;" xml:space="preserve">
<style type="text/css">
	.st0{fill:none;stroke:#FFFFFF;stroke-width:2;}
</style>
<g>
	<path class="st0" d="M568.9,186.7c0.1,22.8-18.2,41.3-40.8,41.3H41.9C19.3,228,1,209.5,1,186.7"/>
	<path class="st0" d="M569,142.4v56.1c0,20.1-16.2,36.5-36.2,36.5H37.2C17.2,235,1,218.7,1,198.5v-56.1"/>
	<path class="st0" d="M539.5,241.9h-509C14.2,241.9,1,228.7,1,212.4v-77c0-16.3,13.2-29.5,29.5-29.5h509c16.3,0,29.5,13.2,29.5,29.5
		v77C569,228.7,555.8,241.9,539.5,241.9z"/>
	<path class="st0" d="M23.7,60.5h522.6c12.5,0,22.7,10.2,22.7,22.7l0,0c0,12.5-10.2,22.7-22.7,22.7H23.7C11.2,105.9,1,95.7,1,83.2
		l0,0C1,70.7,11.2,60.5,23.7,60.5z"/>
	<path class="st0" d="M23.7,14.6h522.6c12.5,0,22.7,10.2,22.7,22.7l0,0c0,12.5-10.2,22.7-22.7,22.7H23.7C11.2,60,1,49.8,1,37.3l0,0
		C1,24.8,11.2,14.6,23.7,14.6z"/>
	<path class="st0" d="M1,34L1,34C1,19.6,12.6,8,27,8h516c14.4,0,26,11.6,26,26l0,0c0,14.4-11.6,26-26,26"/>
	<path class="st0" d="M1,30.5L1,30.5C1,14.2,14.2,1,30.5,1h509C555.8,1,569,14.2,569,30.5l0,0"/>
	<g>
		<line class="st0" x1="477" y1="59.7" x2="477" y2="13.7"/>
		<line class="st0" x1="477" y1="226.9" x2="477" y2="105.3"/>
	</g>
</g>
</svg>
