<?xml version="1.0" standalone="no"?>
<!DOCTYPE svg PUBLIC "-//W3C//DTD SVG 1.1//EN" "http://www.w3.org/Graphics/SVG/1.1/DTD/svg11.dtd" >
<svg xmlns="http://www.w3.org/2000/svg" xmlns:xlink="http://www.w3.org/1999/xlink" version="1.1">
<metadata>
Created by FontForge 20190801 at Thu Mar 14 10:33:26 2019
 By www-data
Copyright (c) 2019 by Adrien Midzic. All rights reserved.
</metadata>
<defs>
<font id="GangsterGroteskBold" horiz-adv-x="0" >
  <font-face 
    font-family="GangsterGroteskBold"
    font-weight="700"
    font-stretch="normal"
    units-per-em="1000"
    panose-1="0 0 8 0 0 0 0 0 0 0"
    ascent="800"
    descent="-200"
    x-height="511"
    cap-height="679"
    bbox="-523 -306 1453 1038.27"
    underline-thickness="86"
    underline-position="-155"
    unicode-range="U+0020-FB02"
  />
<missing-glyph horiz-adv-x="666" 
d="M185 618q26 0 45.5 -10t31.5 -31.5t19 -44t10 -60.5t4 -66t1 -75q0 -40 -0.5 -64.5t-2.5 -60t-6.5 -57t-12.5 -46.5t-19.5 -38.5t-29 -23t-40.5 -9.5t-40.5 9.5t-29 23t-20 38.5t-12.5 46t-6 57t-2.5 60t-0.5 65q0 48 0.5 75t4 66t10.5 60.5t19 44t31 32t46 9.5zM481 618
q26 0 45.5 -10t31.5 -31.5t19 -44t10 -60.5t4 -66t1 -75q0 -40 -0.5 -64.5t-2.5 -60t-6.5 -57t-12.5 -46.5t-19.5 -38.5t-29 -23t-40.5 -9.5t-40.5 9.5t-29 23t-20 38.5t-12.5 46t-6 57t-2.5 60t-0.5 65q0 48 0.5 75t4 66t10.5 60.5t19 44t31 32t46 9.5zM185 584
q-35 0 -45.5 -60t-10.5 -193v-32q17 54 56 54q18 0 33 -16t23 -41v35q0 132 -10.5 192.5t-45.5 60.5zM481 584q-35 0 -45.5 -60t-10.5 -193v-35q8 25 23.5 41t33.5 16t32.5 -15t22.5 -39v32q0 132 -10.5 192.5t-45.5 60.5zM481 65q46 0 54 146q-18 -48 -53 -48q-38 0 -55 52
q7 -150 54 -150zM185 65q46 0 54 149q-19 -51 -54 -51t-54 49q7 -147 54 -147z" />
    <glyph glyph-name="fi" unicode="fi" horiz-adv-x="717" 
d="M131 491q0 87 45.5 140.5t130.5 53.5q71 0 126 -38v-102q-42 54 -103 54q-42 0 -61 -22.5t-19 -69.5v-57h182l-23 -70h-159v-380h-119v380h-118l23 70h95v41zM509 679h133v-105h-133v105zM516 0v511h118v-511h-118z" />
    <glyph glyph-name="fl" unicode="fl" horiz-adv-x="720" 
d="M131 491q0 87 45.5 140.5t130.5 53.5q71 0 126 -38v-102q-42 54 -103 54q-42 0 -61 -22.5t-19 -69.5v-57h182l-23 -70h-159v-380h-119v380h-118l23 70h95v41zM528 679h118v-679h-118v679z" />
    <glyph glyph-name=".notdef" horiz-adv-x="666" 
d="M185 618q26 0 45.5 -10t31.5 -31.5t19 -44t10 -60.5t4 -66t1 -75q0 -40 -0.5 -64.5t-2.5 -60t-6.5 -57t-12.5 -46.5t-19.5 -38.5t-29 -23t-40.5 -9.5t-40.5 9.5t-29 23t-20 38.5t-12.5 46t-6 57t-2.5 60t-0.5 65q0 48 0.5 75t4 66t10.5 60.5t19 44t31 32t46 9.5zM481 618
q26 0 45.5 -10t31.5 -31.5t19 -44t10 -60.5t4 -66t1 -75q0 -40 -0.5 -64.5t-2.5 -60t-6.5 -57t-12.5 -46.5t-19.5 -38.5t-29 -23t-40.5 -9.5t-40.5 9.5t-29 23t-20 38.5t-12.5 46t-6 57t-2.5 60t-0.5 65q0 48 0.5 75t4 66t10.5 60.5t19 44t31 32t46 9.5zM185 584
q-35 0 -45.5 -60t-10.5 -193v-32q17 54 56 54q18 0 33 -16t23 -41v35q0 132 -10.5 192.5t-45.5 60.5zM481 584q-35 0 -45.5 -60t-10.5 -193v-35q8 25 23.5 41t33.5 16t32.5 -15t22.5 -39v32q0 132 -10.5 192.5t-45.5 60.5zM481 65q46 0 54 146q-18 -48 -53 -48q-38 0 -55 52
q7 -150 54 -150zM185 65q46 0 54 149q-19 -51 -54 -51t-54 49q7 -147 54 -147z" />
    <glyph glyph-name=".null" 
 />
    <glyph glyph-name="nonmarkingreturn" horiz-adv-x="333" 
 />
    <glyph glyph-name="space" unicode=" " horiz-adv-x="250" 
 />
    <glyph glyph-name="exclam" unicode="!" horiz-adv-x="277" 
d="M104 194l-25 362v123h118v-123l-25 -362h-68zM73 0v131h131v-131h-131z" />
    <glyph glyph-name="quotedbl" unicode="&#x22;" horiz-adv-x="460" 
d="M93 405l-20 274h127l-20 -274h-87zM280 405l-20 274h127l-20 -274h-87z" />
    <glyph glyph-name="numbersign" unicode="#" horiz-adv-x="761" 
d="M718 440h-109l-45 -196h70v-85h-90l-39 -166h-106l39 166h-199l-39 -166h-105l39 166h-91v85h111l45 196h-86v85h106l38 161h105l-38 -161h199l38 161h106l-38 -161h89v-85zM458 244l45 196h-199l-45 -196h199z" />
    <glyph glyph-name="dollar" unicode="$" horiz-adv-x="675" 
d="M390 401q107 -31 156.5 -75.5t49.5 -129.5q0 -82 -53.5 -135.5t-152.5 -65.5v-82h-88v80q-100 8 -165 60t-72 137l104 67q-1 -76 35.5 -121.5t97.5 -58.5v226q-113 31 -160.5 78.5t-47.5 122.5q0 76 55 126t153 60v82h88v-81q87 -9 148.5 -57.5t71.5 -122.5l-101 -63
q-2 66 -34 105t-85 52v-204zM210 527q0 -37 19.5 -59.5t72.5 -41.5v181q-43 -7 -67.5 -28t-24.5 -52zM390 77q86 16 86 100q0 36 -19.5 59.5t-66.5 40.5v-200z" />
    <glyph glyph-name="percent" unicode="%" horiz-adv-x="1072" 
d="M245 275q-80 0 -134.5 60t-54.5 149t54.5 148.5t134.5 59.5q81 0 134.5 -59.5t53.5 -148.5q0 -90 -53.5 -149.5t-134.5 -59.5zM281 -8l412 699h97l-412 -699h-97zM246 349q80 0 80 135t-80 135q-81 0 -81 -135t81 -135zM828 -8q-80 0 -134.5 60t-54.5 149t54.5 148.5
t134.5 59.5q81 0 134.5 -59.5t53.5 -148.5q0 -90 -53.5 -149.5t-134.5 -59.5zM829 66q80 0 80 135t-80 135q-81 0 -81 -135t81 -135z" />
    <glyph glyph-name="ampersand" unicode="&#x26;" horiz-adv-x="652" 
d="M639 1h-137l-35 38q-78 -47 -193 -46q-110 2 -177.5 45.5t-67.5 134.5q0 122 154 183q-42 49 -60 87.5t-18 83.5q0 72 56 115t150 43q80 0 133.5 -44t53.5 -115q0 -59 -39.5 -99.5t-128.5 -71.5l153 -175q31 66 7 193h117q9 -59 -6.5 -133.5t-56.5 -130.5zM309 605
q-39 0 -62 -21t-23 -55q0 -57 62 -127q60 24 84 54.5t24 71.5q0 35 -23.5 56t-61.5 21zM159 187q0 -52 42 -83t95 -31q66 0 109 28l-177 206q-31 -18 -50 -50.5t-19 -69.5z" />
    <glyph glyph-name="quotesingle" unicode="'" horiz-adv-x="273" 
d="M93 405l-20 274h127l-20 -274h-87z" />
    <glyph glyph-name="parenleft" unicode="(" horiz-adv-x="356" 
d="M204 -84q-130 199 -130 391q0 190 130 389h102q-114 -185 -114 -389q0 -206 114 -391h-102z" />
    <glyph glyph-name="parenright" unicode=")" horiz-adv-x="356" 
d="M152 -84h-102q114 185 114 391q0 204 -114 389h102q130 -199 130 -389q0 -192 -130 -391z" />
    <glyph glyph-name="asterisk" unicode="*" horiz-adv-x="474" 
d="M401 559l-113 -45l113 -45l-44 -74l-95 75l18 -120h-86l17 119l-95 -74l-43 74l113 45l-113 45l44 74l95 -75l-18 120h86l-17 -119l95 74z" />
    <glyph glyph-name="plus" unicode="+" horiz-adv-x="625" 
d="M551 324v-85h-179v-186h-118v186h-180v85h180v186h118v-186h179z" />
    <glyph glyph-name="comma" unicode="," horiz-adv-x="287" 
d="M77 113h137v-157q0 -60 -38 -89.5t-103 -27.5v68q30 -1 43 9.5t13 39.5v36h-52v121z" />
    <glyph glyph-name="hyphen" unicode="-" horiz-adv-x="455" 
d="M74 239v85h307v-85h-307z" />
    <glyph glyph-name="period" unicode="." horiz-adv-x="277" 
d="M73 -10v131h131v-131h-131z" />
    <glyph glyph-name="slash" unicode="/" horiz-adv-x="376" 
d="M-35 -156l300 842h111l-300 -842h-111z" />
    <glyph glyph-name="zero" unicode="0" horiz-adv-x="697" 
d="M349 -8q-133 0 -213.5 96.5t-80.5 254.5q0 157 81 253.5t213 96.5t212.5 -96t80.5 -254t-80.5 -254.5t-212.5 -96.5zM349 78q76 0 122.5 71.5t46.5 193.5q0 121 -46.5 192.5t-122.5 71.5t-123 -71.5t-47 -192.5t47 -193t123 -72z" />
    <glyph glyph-name="one" unicode="1" horiz-adv-x="563" 
d="M388 86h152v-86h-443v86h173v466q-84 -88 -179 -125l-40 93q67 28 114 64t104 95h119v-593z" />
    <glyph glyph-name="two" unicode="2" horiz-adv-x="619" 
d="M177 79l-1 -1h387v-86h-504q-2 33 2.5 63t11 51t24.5 43.5t28 34.5t37.5 30t37 24t42.5 23.5t39 20.5q94 52 127.5 89t33.5 94q0 70 -34.5 105.5t-99.5 35.5q-69 0 -112.5 -48.5t-37.5 -132.5l-112 43q-4 98 73.5 161t196.5 63q118 0 182.5 -56.5t64.5 -159.5
q0 -48 -14.5 -87t-45.5 -70t-61 -52t-78 -47q-9 -5 -45 -24t-53 -29t-41.5 -27t-35.5 -32t-12 -29z" />
    <glyph glyph-name="three" unicode="3" horiz-adv-x="623" 
d="M397 349q87 -8 134 -49.5t47 -113.5q0 -89 -75.5 -141t-195.5 -52t-197.5 61t-73.5 162l108 37q-5 -80 42.5 -127t120.5 -47q145 0 145 117q0 110 -157 110h-79v80h64q80 0 118 26t38 82q0 54 -33.5 82t-91.5 28q-65 0 -109 -42t-39 -115l-110 57q1 84 77.5 135.5
t180.5 51.5q115 0 182 -50.5t67 -137.5q0 -68 -42.5 -107.5t-120.5 -46.5z" />
    <glyph glyph-name="four" unicode="4" horiz-adv-x="654" 
d="M635 259v-85h-121v-174h-122v174h-347v85l301 420h168v-420h121zM167 259h225v192q0 70 8 148q-53 -89 -82 -129z" />
    <glyph glyph-name="five" unicode="5" horiz-adv-x="618" 
d="M332 457q109 0 176.5 -63t67.5 -170q0 -102 -68 -167t-190 -65q-108 0 -175 46.5t-87 130.5l107 44q-1 -63 41.5 -99t112.5 -36q135 0 135 146q0 70 -36 112t-105 42q-49 0 -89 -23.5t-59 -59.5l-104 36l79 348h393v-85h-299l-41 -177q62 40 141 40z" />
    <glyph glyph-name="six" unicode="6" horiz-adv-x="638" 
d="M359 452q100 0 163 -64.5t63 -164.5q0 -99 -72.5 -163.5t-185.5 -64.5q-131 0 -201 85t-70 240q0 183 78.5 278t217.5 95q91 0 157.5 -43t82.5 -118l-106 -38q-27 113 -138 113q-79 0 -129.5 -70t-50.5 -197q23 47 71 79.5t120 32.5zM327 81q62 0 99 38.5t37 103.5
q0 68 -34.5 106t-96.5 38t-104.5 -41.5t-42.5 -102.5q0 -58 42.5 -100t99.5 -42z" />
    <glyph glyph-name="seven" unicode="7" horiz-adv-x="510" 
d="M10 679h490v-86q-139 -118 -205 -274t-46 -319h-139q-4 332 283 593h-383v86z" />
    <glyph glyph-name="eight" unicode="8" horiz-adv-x="636" 
d="M420 355q72 -8 123.5 -55t51.5 -114q0 -90 -76 -142t-196 -52t-196 52t-76 142q0 67 51.5 114t123.5 55q-65 12 -106.5 53.5t-41.5 101.5q0 83 70.5 133t174.5 50t174.5 -50t70.5 -133q0 -60 -41.5 -101.5t-106.5 -53.5zM323 606q-57 0 -91 -27t-34 -77q0 -53 34 -81.5
t91 -28.5t91 28.5t34 81.5q0 50 -34 77t-91 27zM323 79q65 0 106.5 32t41.5 85q0 52 -41.5 84t-106.5 32t-106.5 -32t-41.5 -84q0 -53 41.5 -85t106.5 -32z" />
    <glyph glyph-name="nine" unicode="9" horiz-adv-x="638" 
d="M314 690q125 0 196.5 -85t71.5 -240q0 -187 -66.5 -280t-213.5 -93q-101 0 -170.5 44.5t-85.5 123.5l106 35q6 -57 48 -87t102 -30q86 0 128.5 61t44.5 203q-23 -46 -71.5 -77.5t-118.5 -31.5q-101 0 -166 63t-65 166q0 100 72 164t188 64zM312 318q61 0 101.5 41
t40.5 103q0 61 -36.5 101.5t-95.5 40.5q-65 0 -105.5 -39t-40.5 -103q0 -63 38.5 -103.5t97.5 -40.5z" />
    <glyph glyph-name="colon" unicode=":" horiz-adv-x="277" 
d="M73 369v131h131v-131h-131zM73 -10v131h131v-131h-131z" />
    <glyph glyph-name="semicolon" unicode=";" horiz-adv-x="287" 
d="M204 500v-131h-131v131h131zM77 113h137v-157q0 -60 -38 -89.5t-103 -27.5v68q30 -1 43 9.5t13 39.5v36h-52v121z" />
    <glyph glyph-name="less" unicode="&#x3c;" horiz-adv-x="535" 
d="M461 510v-89l-297 -153l297 -153v-90l-387 196v93z" />
    <glyph glyph-name="equal" unicode="=" horiz-adv-x="625" 
d="M74 334v85h477v-85h-477zM74 144v85h477v-85h-477z" />
    <glyph glyph-name="greater" unicode="&#x3e;" horiz-adv-x="535" 
d="M74 510l387 -196v-93l-387 -196v90l297 153l-297 153v89z" />
    <glyph glyph-name="question" unicode="?" horiz-adv-x="557" 
d="M285 692q103 0 162.5 -52.5t59.5 -143.5q0 -80 -49.5 -126.5t-129.5 -64.5l-30 -111h-68l-20 145q94 23 135 56t41 90q0 121 -110 121q-66 0 -98.5 -47t-25.5 -134l-112 43q-4 99 65.5 161.5t179.5 62.5zM202 0v131h131v-131h-131z" />
    <glyph glyph-name="at" unicode="@" horiz-adv-x="911" 
d="M524 449h115v-284q0 -76 46 -76q16 0 30.5 14t26.5 56.5t12 107.5q0 109 -81.5 188t-216.5 79q-137 0 -214.5 -81t-77.5 -215q0 -142 79.5 -218.5t241.5 -76.5q97 0 186 30v-80q-89 -30 -186 -30q-202 0 -322 104.5t-120 270.5q0 158 117 267t296 109q88 0 166 -30
t131 -79t84 -111.5t31 -126.5q0 -109 -58 -174t-142 -65q-49 0 -85.5 20t-50.5 60q-27 -83 -114 -83q-75 0 -127 61t-52 157t52 157t127 61q76 0 106 -64v52zM443 87q41 0 64.5 41.5t23.5 114.5q0 72 -24 114t-64 42q-42 0 -62.5 -42.5t-20.5 -113.5t20.5 -113.5t62.5 -42.5
z" />
    <glyph glyph-name="A" unicode="A" horiz-adv-x="685" 
d="M555 0l-73 200h-285l-73 -200h-119l257 679h162l256 -679h-125zM229 285h222l-74 202q-20 60 -37 125q-18 -67 -37 -124z" />
    <glyph glyph-name="B" unicode="B" horiz-adv-x="675" 
d="M471 346q73 -13 114 -55.5t41 -107.5q0 -88 -69 -135.5t-187 -47.5h-297v679h297q117 0 177.5 -46.5t60.5 -136.5q0 -129 -137 -150zM363 594h-169v-208h169q123 0 123 105q0 103 -123 103zM363 85q137 0 137 108t-137 108h-169v-216h169z" />
    <glyph glyph-name="C" unicode="C" horiz-adv-x="682" 
d="M544 297l105 -68q-4 -107 -85 -172t-198 -65q-147 0 -235 92.5t-88 257.5q0 164 86.5 257.5t226.5 93.5q110 0 189 -57.5t82 -149.5l-103 -68q1 93 -46.5 141t-121.5 48q-84 0 -134 -67.5t-50 -197.5q0 -131 51.5 -197.5t142.5 -66.5q83 0 132 55t46 164z" />
    <glyph glyph-name="D" unicode="D" horiz-adv-x="683" 
d="M284 679q356 0 356 -339q0 -340 -356 -340h-211v679h211zM267 85q128 0 187.5 63t59.5 192q0 128 -59.5 191t-187.5 63h-73v-509h73z" />
    <glyph glyph-name="E" unicode="E" horiz-adv-x="587" 
d="M539 594h-345v-207h327v-85h-327v-217h345v-85h-466v679h466v-85z" />
    <glyph glyph-name="F" unicode="F" horiz-adv-x="569" 
d="M539 594h-345v-207h317v-85h-317v-302h-121v679h466v-85z" />
    <glyph glyph-name="G" unicode="G" horiz-adv-x="720" 
d="M650 367v-368h-116v115q-35 -122 -188 -122q-134 0 -218.5 93.5t-84.5 256.5q0 165 88 258t233 93q116 0 190 -52t86 -133l-102 -63q-5 79 -53.5 120.5t-120.5 41.5q-90 0 -142.5 -67.5t-52.5 -197.5q0 -129 51 -196.5t136 -67.5q165 0 178 176v28h-191v85h307z" />
    <glyph glyph-name="H" unicode="H" horiz-adv-x="690" 
d="M496 679h121v-679h-121v302h-302v-302h-121v679h121v-292h302v292z" />
    <glyph glyph-name="I" unicode="I" horiz-adv-x="266" 
d="M73 0v679h120v-679h-120z" />
    <glyph glyph-name="J" unicode="J" horiz-adv-x="539" 
d="M352 679h119v-465q0 -222 -226 -222q-88 0 -148.5 50.5t-73.5 140.5l113 70q5 -175 123 -175q50 0 71.5 34.5t21.5 114.5v452z" />
    <glyph glyph-name="K" unicode="K" horiz-adv-x="633" 
d="M73 679h121v-679h-121v679zM333 353l304 -353h-154l-289 340l294 339h134z" />
    <glyph glyph-name="L" unicode="L" horiz-adv-x="552" 
d="M194 85h325v-85h-446v679h121v-594z" />
    <glyph glyph-name="M" unicode="M" horiz-adv-x="863" 
d="M790 679v-679h-112v599l-173 -599h-147l-173 599v-599h-112v679h196l121 -413q32 -113 41 -198q11 95 41 195l122 416h196z" />
    <glyph glyph-name="N" unicode="N" horiz-adv-x="727" 
d="M542 679h112v-679h-178l-233 446q-24 47 -58 141v-587h-112v679h178l225 -432q32 -62 66 -151v583z" />
    <glyph glyph-name="O" unicode="O" horiz-adv-x="720" 
d="M360 -8q-146 0 -231.5 94.5t-85.5 255.5q0 162 85.5 256.5t231.5 94.5t231.5 -94.5t85.5 -256.5q0 -161 -85.5 -255.5t-231.5 -94.5zM360 77q89 0 140 70t51 195t-51 195.5t-140 70.5t-140 -70.5t-51 -195.5t51 -195t140 -70z" />
    <glyph glyph-name="P" unicode="P" horiz-adv-x="631" 
d="M364 679q116 0 177 -49t61 -143t-61 -143t-177 -49h-171v-295h-120v679h291zM357 380q57 0 92 26t35 81t-35 81t-92 26h-164v-214h164z" />
    <glyph glyph-name="Q" unicode="Q" horiz-adv-x="726" 
d="M683 -106h-136l-77 115q-51 -17 -110 -17q-146 0 -231.5 94.5t-85.5 255.5q0 162 85.5 256.5t231.5 94.5t231.5 -94.5t85.5 -256.5q0 -183 -108 -278zM360 77q31 0 58 9l-119 178h136l72 -107q44 71 44 185q0 125 -51 195.5t-140 70.5t-140 -70.5t-51 -195.5t51 -195
t140 -70z" />
    <glyph glyph-name="R" unicode="R" horiz-adv-x="680" 
d="M571 248q26 -137 41.5 -185t32.5 -63h-139q-4 7 -7.5 15.5t-7 20t-6.5 21t-6 25.5t-5 25.5t-5 29t-4.5 29t-5 32.5t-4.5 32q-6 41 -29.5 56t-84.5 15h-147v-301h-121v679h300q238 0 238 -181q0 -56 -34.5 -97t-98.5 -57q78 -16 93 -96zM366 386q123 0 123 107
q0 101 -123 101h-172v-208h172z" />
    <glyph glyph-name="S" unicode="S" horiz-adv-x="653" 
d="M341 411q128 -33 186 -78t58 -137q0 -93 -68 -148.5t-192 -55.5q-113 0 -188 53t-83 145l104 67q-1 -90 49.5 -137t128.5 -47q129 0 129 104q0 47 -34 73t-121 48q-124 31 -175.5 79.5t-51.5 126.5q0 86 69.5 137.5t189.5 51.5q99 0 172 -49.5t85 -132.5l-101 -63
q-3 80 -49 121t-118 41q-60 0 -96 -22.5t-36 -60.5q0 -44 29.5 -69t112.5 -47z" />
    <glyph glyph-name="T" unicode="T" horiz-adv-x="580" 
d="M567 679v-85h-215v-594h-121v594h-218v85h554z" />
    <glyph glyph-name="U" unicode="U" horiz-adv-x="661" 
d="M473 679h120v-445q0 -124 -64 -183t-198 -59t-198.5 59t-64.5 183v445h120l1 -438q0 -86 32.5 -124.5t109.5 -38.5q76 0 108.5 39t32.5 124z" />
    <glyph glyph-name="V" unicode="V" horiz-adv-x="631" 
d="M496 679h132l-227 -679h-171l-227 679h132l131 -420q23 -64 49 -172q25 101 49 170z" />
    <glyph glyph-name="W" unicode="W" horiz-adv-x="967" 
d="M825 679h132l-189 -679h-171l-88 392q-10 54 -25 201q-15 -147 -26 -203l-88 -390h-171l-189 679h132l117 -460q17 -66 28 -141q9 84 21 140l101 461h149l100 -458q14 -67 22 -144q10 70 29 145z" />
    <glyph glyph-name="X" unicode="X" horiz-adv-x="624" 
d="M621 0h-133l-178 256l-181 -256h-123l244 343l-234 336h133l168 -241l171 241h123l-233 -329z" />
    <glyph glyph-name="Y" unicode="Y" horiz-adv-x="616" 
d="M613 679l-244 -386v-293h-120v289l-246 390h136l172 -287l175 287h127z" />
    <glyph glyph-name="Z" unicode="Z" horiz-adv-x="595" 
d="M180 86h382v-86h-519v86l368 507h-378v86h515v-86z" />
    <glyph glyph-name="bracketleft" unicode="[" horiz-adv-x="341" 
d="M281 611h-88v-610h88v-85h-208v780h208v-85z" />
    <glyph glyph-name="backslash" unicode="\" horiz-adv-x="376" 
d="M411 -156h-111l-300 842h111z" />
    <glyph glyph-name="bracketright" unicode="]" horiz-adv-x="341" 
d="M60 696h208v-780h-208v85h88v610h-88v85z" />
    <glyph glyph-name="asciicircum" unicode="^" horiz-adv-x="529" 
d="M455 394h-90l-100 195l-101 -195h-90l144 285h93z" />
    <glyph glyph-name="underscore" unicode="_" horiz-adv-x="645" 
d="M74 -92v85h497v-85h-497z" />
    <glyph glyph-name="grave" unicode="`" horiz-adv-x="330" 
d="M209 685l47 -116h-82l-100 116h135z" />
    <glyph glyph-name="a" unicode="a" horiz-adv-x="549" 
d="M269 526q100 0 156 -44.5t56 -127.5v-354h-119v90q-15 -43 -51 -70t-88 -27q-81 0 -130.5 41t-49.5 109q0 128 189 164l129 24v19q0 98 -99 98q-53 0 -86 -28.5t-35 -83.5l-98 44q7 65 71 105.5t155 40.5zM254 69q47 0 78 35.5t31 90.5v83l-106 -28q-87 -23 -87 -100
q0 -81 84 -81z" />
    <glyph glyph-name="b" unicode="b" horiz-adv-x="614" 
d="M346 526q98 0 160.5 -73.5t62.5 -193.5q0 -119 -62.5 -192.5t-160.5 -73.5q-117 0 -154 112v-105h-119v679h119v-265q37 112 154 112zM317 69q57 0 91 51.5t34 138.5t-34 138.5t-91 51.5q-58 0 -93 -51.5t-35 -138.5q0 -86 35.5 -138t92.5 -52z" />
    <glyph glyph-name="c" unicode="c" horiz-adv-x="545" 
d="M429 199l93 -59q-41 -148 -223 -148q-114 0 -185 75t-71 191q0 121 69 194.5t187 73.5q75 0 129.5 -35t79.5 -98l-103 -59q-15 62 -40.5 88t-68.5 26q-58 0 -92 -49.5t-34 -140.5t35.5 -140.5t103.5 -49.5q105 0 120 131z" />
    <glyph glyph-name="d" unicode="d" horiz-adv-x="617" 
d="M425 679h119v-679h-119v105q-37 -112 -154 -112q-98 0 -160.5 73.5t-62.5 192.5q0 120 62.5 193.5t160.5 73.5q117 0 154 -112v265zM300 69q57 0 92.5 52t35.5 138q0 87 -35 138.5t-93 51.5q-57 0 -91 -51.5t-34 -138.5t34 -138.5t91 -51.5z" />
    <glyph glyph-name="e" unicode="e" horiz-adv-x="568" 
d="M434 179l93 -58q-60 -128 -228 -128q-113 0 -184.5 74t-71.5 192q0 121 67.5 194t178.5 73q110 0 171.5 -75.5t59.5 -200.5v-6h-354q4 -83 41.5 -129t101.5 -46q106 0 125 110zM289 449q-107 0 -121 -145h224q-4 77 -27.5 111t-75.5 34z" />
    <glyph glyph-name="f" unicode="f" horiz-adv-x="454" 
d="M330 599q-42 0 -61 -22.5t-19 -69.5v-57h182l-23 -70h-159v-380h-119v380h-118l23 70h95v41q0 87 45.5 140.5t130.5 53.5q71 0 126 -38v-102q-42 54 -103 54z" />
    <glyph glyph-name="g" unicode="g" horiz-adv-x="594" 
d="M406 511h119v-445q0 -222 -249 -222q-167 0 -227 122l102 54q21 -60 51.5 -83t86.5 -23q63 0 90 41t27 124v74q-39 -102 -149 -102q-92 0 -151.5 67.5t-59.5 169.5q0 103 60 170.5t155 67.5q106 0 145 -100v85zM290 127q51 0 84 46.5t33 114.5t-33.5 115.5t-83.5 47.5
q-51 0 -84 -45.5t-33 -117.5q0 -71 33 -116t84 -45z" />
    <glyph glyph-name="h" unicode="h" horiz-adv-x="600" 
d="M343 527q84 0 132 -47t48 -136v-344h-119v336q0 108 -99 108q-111 0 -113 -139v-305h-119v679h119v-262q18 56 54 83t97 27z" />
    <glyph glyph-name="i" unicode="i" horiz-adv-x="283" 
d="M75 574v105h133v-105h-133zM82 0v511h118v-511h-118z" />
    <glyph glyph-name="j" unicode="j" horiz-adv-x="276" 
d="M80 679h133v-105h-133v105zM87 0v511h118v-553q0 -54 -36.5 -84t-100.5 -30q-43 0 -70 18v104q24 -22 49 -22q40 0 40 56z" />
    <glyph glyph-name="k" unicode="k" horiz-adv-x="540" 
d="M527 0h-144l-191 277v-277h-119v679h119v-395l215 227h107l-206 -213z" />
    <glyph glyph-name="l" unicode="l" horiz-adv-x="266" 
d="M74 0v679h118v-679h-118z" />
    <glyph glyph-name="m" unicode="m" horiz-adv-x="862" 
d="M629 526q74 0 119.5 -47.5t45.5 -134.5v-344h-119v336q0 54 -22.5 81t-61.5 27q-46 0 -71.5 -37t-26.5 -102v-305h-119v336q0 54 -22.5 81t-61.5 27q-46 0 -71.5 -37t-26.5 -102v-305h-119v511h119v-91q31 106 136 106q57 0 98 -29t57 -83q37 112 146 112z" />
    <glyph glyph-name="n" unicode="n" horiz-adv-x="591" 
d="M343 526q84 0 132 -47t48 -135v-344h-118v336q0 108 -100 108q-56 0 -84.5 -36.5t-29.5 -102.5v-305h-118v511h118v-98q17 57 53 85t99 28z" />
    <glyph glyph-name="o" unicode="o" horiz-adv-x="596" 
d="M298 -7q-117 0 -186 72t-69 194t69 194.5t186 72.5t186 -72.5t69 -194.5t-69 -194t-186 -72zM298 69q62 0 95.5 49.5t33.5 140.5q0 92 -33.5 141t-95.5 49t-95.5 -49t-33.5 -141q0 -91 33.5 -140.5t95.5 -49.5z" />
    <glyph glyph-name="p" unicode="p" horiz-adv-x="613" 
d="M347 526q98 0 160.5 -73.5t62.5 -193.5q0 -119 -62.5 -192.5t-160.5 -73.5q-117 0 -154 112v-255h-119v661h119v-97q37 112 154 112zM318 69q57 0 91 51.5t34 138.5t-34 138.5t-91 51.5q-58 0 -93 -51.5t-35 -138.5q0 -86 35.5 -138t92.5 -52z" />
    <glyph glyph-name="q" unicode="q" horiz-adv-x="617" 
d="M425 511h119v-661h-119v255q-37 -112 -154 -112q-98 0 -160.5 73.5t-62.5 192.5q0 120 62.5 193.5t160.5 73.5q117 0 154 -112v97zM300 69q57 0 92.5 52t35.5 138q0 87 -35 138.5t-93 51.5q-57 0 -91 -51.5t-34 -138.5t34 -138.5t91 -51.5z" />
    <glyph glyph-name="r" unicode="r" horiz-adv-x="474" 
d="M315 526q65 0 101.5 -45t29.5 -131l-104 -63q4 97 -10.5 127.5t-47.5 30.5q-38 0 -65 -54t-27 -164v-227h-119v511h119l-3 -155q19 170 126 170z" />
    <glyph glyph-name="s" unicode="s" horiz-adv-x="505" 
d="M271 314q101 -22 143 -58.5t42 -96.5q0 -77 -52.5 -121.5t-150.5 -44.5q-77 0 -138 38t-72 96l83 51q7 -52 43.5 -80.5t90.5 -28.5q89 0 89 62q0 34 -21.5 50.5t-84.5 29.5q-98 20 -141.5 57.5t-43.5 103.5q0 69 51.5 112t156.5 44q79 1 132.5 -36t63.5 -97l-90 -34
q-7 45 -39 68.5t-81 23.5q-43 0 -67 -16.5t-24 -46.5q0 -32 20.5 -46.5t89.5 -29.5z" />
    <glyph glyph-name="t" unicode="t" horiz-adv-x="449" 
d="M314 86q61 0 101 46v-102q-46 -35 -130 -35q-83 0 -121 40.5t-38 105.5v300h-113l23 70h90v124h119v-124h170l-22 -70h-148v-276q0 -41 14.5 -60t54.5 -19z" />
    <glyph glyph-name="u" unicode="u" horiz-adv-x="591" 
d="M399 511h119v-511h-119v106q-36 -114 -156 -114q-175 0 -175 173v346h119v-330q0 -107 99 -107q111 0 113 138v299z" />
    <glyph glyph-name="v" unicode="v" horiz-adv-x="523" 
d="M393 511h117l-181 -511h-135l-181 511h117l104 -316q20 -61 29 -110q9 54 27 110z" />
    <glyph glyph-name="w" unicode="w" horiz-adv-x="755" 
d="M625 511h117l-139 -511h-140l-71 337q-11 56 -14 105q-5 -61 -14 -104l-72 -338h-140l-139 511h117l75 -305q13 -52 22 -131q7 79 18 130l63 306h139l65 -313q11 -54 16 -116q6 62 19 117z" />
    <glyph glyph-name="x" unicode="x" horiz-adv-x="556" 
d="M533 511l-197 -249l197 -262h-132l-126 180l-128 -180h-124l195 254l-195 257h132l124 -175l130 175h124z" />
    <glyph glyph-name="y" unicode="y" horiz-adv-x="537" 
d="M396 510h118l-253 -660h-114l80 179l-204 482h121l108 -275q14 -35 27 -74z" />
    <glyph glyph-name="z" unicode="z" horiz-adv-x="484" 
d="M176 75h280v-75h-413v75l273 361h-283v75h417v-75z" />
    <glyph glyph-name="braceleft" unicode="{" horiz-adv-x="406" 
d="M258 398q0 -92 -90 -92q90 0 90 -92v-180q0 -33 28 -33h60v-85h-101q-45 0 -71 23.5t-26 69.5v191q0 37 -20.5 50.5t-67.5 13.5v84q47 0 67.5 13.5t20.5 50.5v191q0 46 26 69.5t71 23.5h101v-85h-60q-28 0 -28 -33v-180z" />
    <glyph glyph-name="bar" unicode="|" horiz-adv-x="266" 
d="M73 -147v840h120v-840h-120z" />
    <glyph glyph-name="braceright" unicode="}" horiz-adv-x="406" 
d="M258 412q0 -37 20.5 -50.5t67.5 -13.5v-84q-47 0 -67.5 -13.5t-20.5 -50.5v-191q0 -46 -26 -69.5t-71 -23.5h-101v85h60q28 0 28 33v180q0 92 90 92q-90 0 -90 92v180q0 33 -28 33h-60v85h101q45 0 71 -23.5t26 -69.5v-191z" />
    <glyph glyph-name="asciitilde" unicode="~" horiz-adv-x="593" 
d="M392 161q-35 0 -72.5 23.5t-67 46.5t-45.5 23q-25 0 -34.5 -18.5t-9.5 -57.5h-89q0 164 127 164q35 0 73 -23t68 -46.5t46 -23.5q25 0 35 18.5t10 58.5h86q0 -165 -127 -165z" />
    <glyph glyph-name="exclamdown" unicode="&#xa1;" horiz-adv-x="277" 
d="M73 511h131v-131h-131v131zM104 317h68l25 -344v-123h-118v123z" />
    <glyph glyph-name="cent" unicode="&#xa2;" horiz-adv-x="609" 
d="M362 148q73 14 89 108l93 -59q-53 -113 -182 -126v-76h-78v76q-99 13 -159 86t-60 178t60 178t159 86v78h78v-78q129 -13 182 -126l-93 -59q-16 94 -89 108v-374zM192 335q0 -151 92 -183v366q-92 -32 -92 -183z" />
    <glyph glyph-name="sterling" unicode="&#xa3;" horiz-adv-x="655" 
d="M612 485l-103 -68q12 189 -104 189q-53 0 -84 -36.5t-25 -104.5q2 -30 17 -83h136v-85h-114q9 -45 8.5 -84t-29.5 -73t-88 -54h379v-86h-500v86q45 16 73 39t37.5 51.5t10 56.5t-7.5 64h-143v85h122q-13 47 -16 81q-8 99 55 164t165 65q100 0 156 -56t55 -151z" />
    <glyph glyph-name="currency" unicode="&#xa4;" horiz-adv-x="704" 
d="M564 333q0 -63 -36 -113l102 -102l-64 -64l-104 104q-51 -30 -110 -30t-110 30l-104 -104l-64 64l102 102q-36 50 -36 113q0 59 35 112l-101 101l64 64l103 -103q51 30 111 30t111 -30l103 103l64 -64l-101 -101q35 -51 35 -112zM238 333q0 -54 30.5 -88t84.5 -34
q52 0 83 35t31 87q0 51 -31.5 86t-82.5 35q-52 0 -83.5 -35t-31.5 -86z" />
    <glyph glyph-name="yen" unicode="&#xa5;" horiz-adv-x="616" 
d="M613 679l-208 -330h139v-85h-175v-75h175v-85h-175v-104h-120v104h-172v85h172v75h-172v85h134l-208 330h136l172 -287l175 287h127z" />
    <glyph glyph-name="brokenbar" unicode="&#xa6;" horiz-adv-x="266" 
d="M73 373v320h120v-320h-120zM73 -156v320h120v-320h-120z" />
    <glyph glyph-name="section" unicode="&#xa7;" horiz-adv-x="514" 
d="M465 316q0 -43 -26 -74t-68 -44q85 -40 85 -124q0 -77 -52.5 -121.5t-150.5 -44.5q-77 0 -138 38t-72 96l83 51q7 -52 43.5 -80.5t90.5 -28.5q89 0 89 62q0 34 -21.5 50.5t-84.5 29.5q-98 20 -141.5 57.5t-43.5 103.5q0 41 26.5 70t71.5 40q-89 42 -89 132q0 69 51.5 112
t156.5 44q79 1 132.5 -36t63.5 -97l-90 -34q-7 45 -39 68.5t-81 23.5q-43 0 -67 -16.5t-24 -46.5q0 -32 20.5 -46.5t89.5 -29.5q101 -22 143 -58.5t42 -96.5zM260 229q46 0 71.5 20t25.5 50t-25.5 49.5t-71.5 19.5t-72 -19.5t-26 -49.5t26 -50t72 -20z" />
    <glyph glyph-name="dieresis" unicode="&#xa8;" horiz-adv-x="446" 
d="M74 569v105h119v-105h-119zM253 569v105h119v-105h-119z" />
    <glyph glyph-name="copyright" unicode="&#xa9;" horiz-adv-x="872" 
d="M436 693q164 0 278.5 -107t114.5 -263q0 -163 -112 -272t-281 -109q-171 0 -282 107t-111 274q0 156 113 263t280 107zM436 22q124 0 203 82t79 219q0 129 -81 209.5t-201 80.5t-201 -80.5t-81 -209.5q0 -137 79 -219t203 -82zM453 162q42 0 69 33t25 96l82 -40
q-10 -63 -59 -101t-117 -38q-87 0 -143.5 54.5t-56.5 150.5q0 95 55 150.5t139 55.5q64 0 112 -33.5t57 -87.5l-80 -40q1 56 -23 83.5t-66 27.5q-43 0 -70.5 -40.5t-27.5 -115.5q0 -76 28.5 -115.5t75.5 -39.5z" />
    <glyph glyph-name="ordfeminine" unicode="&#xaa;" horiz-adv-x="430" 
d="M220 685q76 0 118 -33.5t42 -95.5v-266h-90v70q-23 -75 -104 -75q-61 0 -98.5 30.5t-37.5 81.5q0 96 142 123l97 19v14q0 73 -74 73q-39 0 -64.5 -21.5t-26.5 -62.5l-74 33q6 49 54 79.5t116 30.5zM206 342q36 0 60.5 26.5t24.5 67.5v63l-83 -21q-68 -18 -68 -75
q0 -61 66 -61z" />
    <glyph glyph-name="guillemotleft" unicode="&#xab;" horiz-adv-x="595" 
d="M336 451l-166 -188l166 -188h-110l-170 188h-1l173 188h108zM540 451l-166 -188l166 -188h-111l-169 188h-1l173 188h108z" />
    <glyph glyph-name="logicalnot" unicode="&#xac;" horiz-adv-x="565" 
d="M491 360v-275h-118v190h-299v85h417z" />
    <glyph glyph-name="uni00AD" unicode="&#xad;" horiz-adv-x="600" 
d="M74 239v85h307v-85h-307z" />
    <glyph glyph-name="registered" unicode="&#xae;" horiz-adv-x="872" 
d="M436 693q164 0 278.5 -107t114.5 -263q0 -163 -112 -272t-281 -109q-171 0 -282 107t-111 274q0 156 113 263t280 107zM436 22q124 0 203 82t79 219q0 129 -81 209.5t-201 80.5t-201 -80.5t-81 -209.5q0 -137 79 -219t203 -82zM577 259q8 -53 17 -82.5t13 -35.5t13 -13
h-90q-13 25 -29 124q-4 24 -17.5 32.5t-47.5 8.5h-63v-165h-79v387h171q136 0 136 -103q0 -71 -86 -88q32 -5 44.5 -20t17.5 -45zM451 354q70 0 70 55q0 31 -17.5 41.5t-52.5 10.5h-78v-107h78z" />
    <glyph glyph-name="macron" unicode="&#xaf;" horiz-adv-x="434" 
d="M74 642h286v-73h-286v73z" />
    <glyph glyph-name="degree" unicode="&#xb0;" horiz-adv-x="441" 
d="M221 398q-61 0 -104.5 43t-43.5 105q0 61 43.5 104t104.5 43t104 -43t43 -104t-43 -104.5t-104 -43.5zM221 480q26 0 44 19t18 47q0 27 -18 45.5t-44 18.5q-27 0 -45 -18t-18 -46t18.5 -47t44.5 -19z" />
    <glyph glyph-name="plusminus" unicode="&#xb1;" horiz-adv-x="625" 
d="M372 369h179v-85h-179v-141h-118v141h-180v85h180v141h118v-141zM74 0v85h477v-85h-477z" />
    <glyph glyph-name="uni00B2" unicode="&#xb2;" horiz-adv-x="400" 
d="M130 336h227l-1 -58h-303q-5 33 2.5 59.5t26.5 46t37.5 32t44.5 27.5q4 2 6.5 3t5.5 3l6 4q53 31 68.5 51t15.5 48q0 75 -69 75q-34 0 -55.5 -23.5t-19.5 -68.5l-79 18q-2 58 47 95.5t114 37.5q67 0 109.5 -34t42.5 -92q0 -52 -30.5 -85t-91.5 -70q-10 -6 -37 -19.5
t-44 -25t-23 -24.5z" />
    <glyph glyph-name="uni00B3" unicode="&#xb3;" horiz-adv-x="400" 
d="M271 485q87 -21 87 -91q0 -55 -47 -86.5t-116 -31.5q-58 0 -102 29.5t-52 78.5l75 44q-4 -94 79 -94q35 0 54 16.5t19 46.5q0 58 -79 58h-35v57h26q43 0 61 13t18 44q0 30 -17.5 44t-43.5 14q-64 0 -71 -70l-74 38q12 42 52 66t93 24q61 0 105 -30t44 -81
q0 -33 -20.5 -56t-55.5 -33z" />
    <glyph glyph-name="acute" unicode="&#xb4;" horiz-adv-x="330" 
d="M121 685h135l-100 -116h-82z" />
    <glyph glyph-name="uni00B5" unicode="&#xb5;" horiz-adv-x="649" 
d="M524 138q0 -33 13 -44.5t38 -11.5v-82l-30 -1q-71 2 -100.5 22t-36.5 73q-12 -52 -37.5 -77t-71.5 -25q-44 0 -69 22t-37 69v-239h-119v667h119v-279q1 -71 22 -104.5t84 -33.5t84 33.5t22 104.5v279h119v-373z" />
    <glyph glyph-name="paragraph" unicode="&#xb6;" horiz-adv-x="753" 
d="M492 679v-835h-120v351h-41q-116 0 -187 71.5t-71 170.5t71 170.5t187 71.5h161zM560 679h120v-835h-120v835zM350 280h22v314h-22q-81 0 -118 -45.5t-37 -111.5t37 -111.5t118 -45.5z" />
    <glyph glyph-name="periodcentered" unicode="&#xb7;" horiz-adv-x="277" 
d="M73 270v131h131v-131h-131z" />
    <glyph glyph-name="cedilla" unicode="&#xb8;" horiz-adv-x="329" 
d="M176 -31q79 -12 79 -67q0 -33 -28 -50.5t-73 -17.5q-35 0 -80 13v55q29 -18 71 -18q33 0 33 27q0 37 -90 35l56 74h55z" />
    <glyph glyph-name="uni00B9" unicode="&#xb9;" horiz-adv-x="400" 
d="M265 336h99v-58h-303v58h115v257q-22 -26 -55 -47.5t-63 -28.5l-22 66q51 21 81.5 40.5t52.5 54.5h95v-342z" />
    <glyph glyph-name="ordmasculine" unicode="&#xba;" horiz-adv-x="430" 
d="M215 285q-88 0 -140 54t-52 145q0 92 52 146.5t140 54.5t140 -54.5t52 -146.5q0 -91 -52 -145t-140 -54zM215 342q47 0 74.5 37.5t27.5 104.5q0 68 -27.5 105.5t-74.5 37.5t-74.5 -37.5t-27.5 -105.5q0 -67 27.5 -104.5t74.5 -37.5z" />
    <glyph glyph-name="guillemotright" unicode="&#xbb;" horiz-adv-x="595" 
d="M336 263h-1l-169 -188h-111l166 188l-166 188h108zM367 451l173 -188h-1l-170 -188h-110l166 188l-166 188h108z" />
    <glyph glyph-name="onequarter" unicode="&#xbc;" horiz-adv-x="598" 
d="M274 616q-27 -38 -63 -48l-25 57q66 22 86 67h80v-229h60v-54h-205v54h67v153zM73 373h452v-52h-452v52zM383 281v-177h47v-44h-47v-67h-77v67h-137v44l127 177h87zM237 104h69v62q0 22 3 48q-22 -45 -37 -62z" />
    <glyph glyph-name="onehalf" unicode="&#xbd;" horiz-adv-x="598" 
d="M274 616q-27 -38 -63 -48l-25 57q66 22 86 67h80v-229h60v-54h-205v54h67v153zM73 373h452v-52h-452v52zM336 90q-46 -23 -76 -34h161v-56h-234q-3 12 -3 22.5t1.5 19t6.5 17.5t9 15t12.5 13t13.5 11.5t15.5 10.5t15 8.5t15.5 8t14 7.5q34 18 43.5 33t9.5 34
q0 17 -10.5 26t-24.5 9q-21 0 -33.5 -20.5t-2.5 -56.5l-80 31q-5 45 32 73.5t89 28.5q50 0 80 -24.5t30 -67.5q0 -37 -21.5 -61.5t-62.5 -47.5z" />
    <glyph glyph-name="threequarters" unicode="&#xbe;" horiz-adv-x="598" 
d="M296 471q39 0 39 31q0 17 -10 24.5t-33 7.5h-31v52h25q25 0 34 7t9 24q0 29 -33 29q-15 0 -26.5 -10.5t-12.5 -28.5l-65 24q10 34 42.5 53t71.5 19q46 0 74 -19.5t28 -54.5q0 -57 -68 -68q75 -11 75 -71q0 -35 -31.5 -55.5t-79.5 -20.5q-50 0 -84.5 24t-35.5 61l66 18
q0 -23 13.5 -34.5t32.5 -11.5zM73 373h452v-52h-452v52zM383 281v-177h47v-44h-47v-67h-77v67h-137v44l127 177h87zM237 104h69v62q0 22 3 48q-22 -45 -37 -62z" />
    <glyph glyph-name="questiondown" unicode="&#xbf;" horiz-adv-x="557" 
d="M355 511v-131h-131v131h131zM517 68q4 -99 -65.5 -161.5t-179.5 -62.5q-102 0 -162 50.5t-60 132.5q0 33 12 60t29.5 44t44 31.5t47 21.5t46.5 14l30 119h68l20 -143q-76 -5 -126 -42t-50 -94q0 -53 29 -80.5t81 -27.5q66 0 98.5 47t25.5 134z" />
    <glyph glyph-name="Agrave" unicode="&#xc0;" horiz-adv-x="685" 
d="M398 738h-82l-100 116h135zM555 0l-73 200h-285l-73 -200h-119l257 679h162l256 -679h-125zM229 285h222l-74 202q-20 60 -37 125q-18 -67 -37 -124z" />
    <glyph glyph-name="Aacute" unicode="&#xc1;" horiz-adv-x="685" 
d="M474 854l-100 -116h-82l47 116h135zM555 0l-73 200h-285l-73 -200h-119l257 679h162l256 -679h-125zM229 285h222l-74 202q-20 60 -37 125q-18 -67 -37 -124z" />
    <glyph glyph-name="Acircumflex" unicode="&#xc2;" horiz-adv-x="685" 
d="M347 803l-47 -65h-121l120 116h96l120 -116h-121zM555 0l-73 200h-285l-73 -200h-119l257 679h162l256 -679h-125zM229 285h222l-74 202q-20 60 -37 125q-18 -67 -37 -124z" />
    <glyph glyph-name="Atilde" unicode="&#xc3;" horiz-adv-x="685" 
d="M286 781q-33 0 -33 -34h-61q15 104 99 104q25 0 61.5 -19.5t51.5 -19.5q33 0 33 34h61q-15 -104 -99 -104q-25 0 -61 19.5t-52 19.5zM555 0l-73 200h-285l-73 -200h-119l257 679h162l256 -679h-125zM229 285h222l-74 202q-20 60 -37 125q-18 -67 -37 -124z" />
    <glyph glyph-name="Adieresis" unicode="&#xc4;" horiz-adv-x="685" 
d="M314 843v-105h-119v105h119zM493 843v-105h-119v105h119zM555 0l-73 200h-285l-73 -200h-119l257 679h162l256 -679h-125zM229 285h222l-74 202q-20 60 -37 125q-18 -67 -37 -124z" />
    <glyph glyph-name="Aring" unicode="&#xc5;" horiz-adv-x="685" 
d="M345 730q-44 0 -71 26.5t-27 69.5q0 41 27 66.5t71 25.5t71 -25.5t27 -67.5q0 -43 -27 -69t-71 -26zM345 859q-33 0 -33 -34q0 -36 33 -36t33 36q0 34 -33 34zM555 0l-73 200h-285l-73 -200h-119l257 679h162l256 -679h-125zM229 285h222l-74 202q-20 60 -37 125
q-18 -67 -37 -124z" />
    <glyph glyph-name="AE" unicode="&#xc6;" horiz-adv-x="903" 
d="M855 594h-399l78 -208h303v-85h-270l81 -216h207v-85h-300l-73 200h-282l-73 -200h-122l257 679h593v-85zM377 487q-21 63 -32 107h-7q-11 -44 -32 -106l-74 -203h219z" />
    <glyph glyph-name="Ccedilla" unicode="&#xc7;" horiz-adv-x="682" 
d="M649 229q-4 -102 -77.5 -166t-183.5 -70l-14 -40q96 -10 96 -72q0 -79 -121 -79q-39 0 -96 15v61q36 -20 88 -20q37 0 37 31q0 40 -108 38l45 68q-126 16 -199 106.5t-73 240.5q0 164 86.5 257.5t226.5 93.5q110 0 189 -57.5t82 -149.5l-103 -68q1 93 -46.5 141
t-121.5 48q-84 0 -134 -67.5t-50 -197.5q0 -131 51.5 -197.5t142.5 -66.5q83 0 132 55t46 164z" />
    <glyph glyph-name="Egrave" unicode="&#xc8;" horiz-adv-x="587" 
d="M366 738h-82l-100 116h135zM539 594h-345v-207h327v-85h-327v-217h345v-85h-466v679h466v-85z" />
    <glyph glyph-name="Eacute" unicode="&#xc9;" horiz-adv-x="587" 
d="M442 854l-100 -116h-82l47 116h135zM539 594h-345v-207h327v-85h-327v-217h345v-85h-466v679h466v-85z" />
    <glyph glyph-name="Ecircumflex" unicode="&#xca;" horiz-adv-x="587" 
d="M315 803l-47 -65h-121l120 116h96l120 -116h-121zM539 594h-345v-207h327v-85h-327v-217h345v-85h-466v679h466v-85z" />
    <glyph glyph-name="Edieresis" unicode="&#xcb;" horiz-adv-x="587" 
d="M282 843v-105h-119v105h119zM461 843v-105h-119v105h119zM539 594h-345v-207h327v-85h-327v-217h345v-85h-466v679h466v-85z" />
    <glyph glyph-name="Igrave" unicode="&#xcc;" horiz-adv-x="266" 
d="M139 854l47 -116h-82l-100 116h135zM73 0v679h120v-679h-120z" />
    <glyph glyph-name="Iacute" unicode="&#xcd;" horiz-adv-x="266" 
d="M127 854h135l-100 -116h-82zM73 0v679h120v-679h-120z" />
    <glyph glyph-name="Icircumflex" unicode="&#xce;" horiz-adv-x="266" 
d="M135 803l-47 -65h-121l120 116h96l120 -116h-121zM73 0v679h120v-679h-120z" />
    <glyph glyph-name="Idieresis" unicode="&#xcf;" horiz-adv-x="266" 
d="M-17 738v105h119v-105h-119zM162 738v105h119v-105h-119zM73 0v679h120v-679h-120z" />
    <glyph glyph-name="Eth" unicode="&#xd0;" horiz-adv-x="683" 
d="M284 679q356 0 356 -339q0 -340 -356 -340h-211v302h-44v85h44v292h211zM267 85q128 0 187.5 63t59.5 192q0 128 -59.5 191t-187.5 63h-73v-207h128v-85h-128v-217h73z" />
    <glyph glyph-name="Ntilde" unicode="&#xd1;" horiz-adv-x="727" 
d="M304 781q-33 0 -33 -34h-61q15 104 99 104q25 0 61.5 -19.5t51.5 -19.5q33 0 33 34h61q-15 -104 -99 -104q-25 0 -61 19.5t-52 19.5zM542 679h112v-679h-178l-233 446q-24 47 -58 141v-587h-112v679h178l225 -432q32 -62 66 -151v583z" />
    <glyph glyph-name="Ograve" unicode="&#xd2;" horiz-adv-x="720" 
d="M366 854l47 -116h-82l-100 116h135zM360 -8q-146 0 -231.5 94.5t-85.5 255.5q0 162 85.5 256.5t231.5 94.5t231.5 -94.5t85.5 -256.5q0 -161 -85.5 -255.5t-231.5 -94.5zM360 77q89 0 140 70t51 195t-51 195.5t-140 70.5t-140 -70.5t-51 -195.5t51 -195t140 -70z" />
    <glyph glyph-name="Oacute" unicode="&#xd3;" horiz-adv-x="720" 
d="M354 854h135l-100 -116h-82zM360 -8q-146 0 -231.5 94.5t-85.5 255.5q0 162 85.5 256.5t231.5 94.5t231.5 -94.5t85.5 -256.5q0 -161 -85.5 -255.5t-231.5 -94.5zM360 77q89 0 140 70t51 195t-51 195.5t-140 70.5t-140 -70.5t-51 -195.5t51 -195t140 -70z" />
    <glyph glyph-name="Ocircumflex" unicode="&#xd4;" horiz-adv-x="720" 
d="M362 803l-47 -65h-121l120 116h96l120 -116h-121zM360 693q146 0 231.5 -94.5t85.5 -256.5q0 -161 -85.5 -255.5t-231.5 -94.5t-231.5 94.5t-85.5 255.5q0 162 85.5 256.5t231.5 94.5zM360 77q89 0 140 70t51 195t-51 195.5t-140 70.5t-140 -70.5t-51 -195.5t51 -195
t140 -70z" />
    <glyph glyph-name="Otilde" unicode="&#xd5;" horiz-adv-x="720" 
d="M414 742q-25 0 -61 19.5t-52 19.5q-33 0 -33 -34h-61q15 104 99 104q25 0 61.5 -19.5t51.5 -19.5q33 0 33 34h61q-15 -104 -99 -104zM360 -8q-146 0 -231.5 94.5t-85.5 255.5q0 162 85.5 256.5t231.5 94.5t231.5 -94.5t85.5 -256.5q0 -161 -85.5 -255.5t-231.5 -94.5z
M360 77q89 0 140 70t51 195t-51 195.5t-140 70.5t-140 -70.5t-51 -195.5t51 -195t140 -70z" />
    <glyph glyph-name="Odieresis" unicode="&#xd6;" horiz-adv-x="720" 
d="M210 738v105h119v-105h-119zM389 738v105h119v-105h-119zM360 -8q-146 0 -231.5 94.5t-85.5 255.5q0 162 85.5 256.5t231.5 94.5t231.5 -94.5t85.5 -256.5q0 -161 -85.5 -255.5t-231.5 -94.5zM360 77q89 0 140 70t51 195t-51 195.5t-140 70.5t-140 -70.5t-51 -195.5
t51 -195t140 -70z" />
    <glyph glyph-name="multiply" unicode="&#xd7;" horiz-adv-x="587" 
d="M513 437l-159 -159l159 -160l-60 -60l-159 160l-160 -160l-60 60l160 160l-160 159l60 60l160 -159l159 159z" />
    <glyph glyph-name="Oslash" unicode="&#xd8;" horiz-adv-x="720" 
d="M605 583q72 -94 72 -241q0 -161 -85.5 -255.5t-231.5 -94.5q-98 0 -172 45l-34 -44h-99l73 95q-85 93 -85 254q0 162 85.5 256.5t231.5 94.5q110 0 188 -56l27 35h98zM169 342q0 -95 31 -160l286 373q-48 53 -126 53q-89 0 -140 -70.5t-51 -195.5zM360 77q89 0 140 70
t51 195q0 80 -22 141l-281 -367q47 -39 112 -39z" />
    <glyph glyph-name="Ugrave" unicode="&#xd9;" horiz-adv-x="661" 
d="M383 738h-82l-100 116h135zM473 679h120v-445q0 -124 -64 -183t-198 -59t-198.5 59t-64.5 183v445h120l1 -438q0 -86 32.5 -124.5t109.5 -38.5q76 0 108.5 39t32.5 124z" />
    <glyph glyph-name="Uacute" unicode="&#xda;" horiz-adv-x="661" 
d="M459 854l-100 -116h-82l47 116h135zM473 679h120v-445q0 -124 -64 -183t-198 -59t-198.5 59t-64.5 183v445h120l1 -438q0 -86 32.5 -124.5t109.5 -38.5q76 0 108.5 39t32.5 124z" />
    <glyph glyph-name="Ucircumflex" unicode="&#xdb;" horiz-adv-x="661" 
d="M332 803l-47 -65h-121l120 116h96l120 -116h-121zM473 679h120v-445q0 -124 -64 -183t-198 -59t-198.5 59t-64.5 183v445h120l1 -438q0 -86 32.5 -124.5t109.5 -38.5q76 0 108.5 39t32.5 124z" />
    <glyph glyph-name="Udieresis" unicode="&#xdc;" horiz-adv-x="661" 
d="M299 843v-105h-119v105h119zM478 843v-105h-119v105h119zM473 679h120v-445q0 -124 -64 -183t-198 -59t-198.5 59t-64.5 183v445h120l1 -438q0 -86 32.5 -124.5t109.5 -38.5q76 0 108.5 39t32.5 124z" />
    <glyph glyph-name="Yacute" unicode="&#xdd;" horiz-adv-x="616" 
d="M437 854l-100 -116h-82l47 116h135zM613 679l-244 -386v-293h-120v289l-246 390h136l172 -287l175 287h127z" />
    <glyph glyph-name="Thorn" unicode="&#xde;" horiz-adv-x="631" 
d="M364 542q116 0 177 -49t61 -143t-61 -143t-177 -49h-171v-158h-120v679h120v-137h171zM357 243q57 0 92 26t35 81t-35 81t-92 26h-164v-214h164z" />
    <glyph glyph-name="germandbls" unicode="&#xdf;" horiz-adv-x="571" 
d="M327 359q95 -11 153 -60.5t58 -123.5q0 -86 -59 -134t-145 -48q-109 0 -141 96v-239h-119v641q0 89 62 141t154 52q84 0 143 -49.5t59 -123.5q0 -129 -165 -152zM322 69q47 0 74 28t27 83q0 52 -43.5 94.5t-116.5 44.5v74q50 0 85 22.5t35 75.5q0 50 -26 79t-69 29
t-69 -24.5t-26 -62.5v-316q6 -60 41.5 -93.5t87.5 -33.5z" />
    <glyph glyph-name="agrave" unicode="&#xe0;" horiz-adv-x="549" 
d="M327 579h-82l-100 116h135zM269 526q100 0 156 -44.5t56 -127.5v-354h-119v90q-15 -43 -51 -70t-88 -27q-81 0 -130.5 41t-49.5 109q0 128 189 164l129 24v19q0 98 -99 98q-53 0 -86 -28.5t-35 -83.5l-98 44q7 65 71 105.5t155 40.5zM254 69q47 0 78 35.5t31 90.5v83
l-106 -28q-87 -23 -87 -100q0 -81 84 -81z" />
    <glyph glyph-name="aacute" unicode="&#xe1;" horiz-adv-x="549" 
d="M403 695l-100 -116h-82l47 116h135zM269 526q100 0 156 -44.5t56 -127.5v-354h-119v90q-15 -43 -51 -70t-88 -27q-81 0 -130.5 41t-49.5 109q0 128 189 164l129 24v19q0 98 -99 98q-53 0 -86 -28.5t-35 -83.5l-98 44q7 65 71 105.5t155 40.5zM254 69q47 0 78 35.5
t31 90.5v83l-106 -28q-87 -23 -87 -100q0 -81 84 -81z" />
    <glyph glyph-name="acircumflex" unicode="&#xe2;" horiz-adv-x="549" 
d="M276 644l-47 -65h-121l120 116h96l120 -116h-121zM269 526q100 0 156 -44.5t56 -127.5v-354h-119v90q-15 -43 -51 -70t-88 -27q-81 0 -130.5 41t-49.5 109q0 128 189 164l129 24v19q0 98 -99 98q-53 0 -86 -28.5t-35 -83.5l-98 44q7 65 71 105.5t155 40.5zM254 69
q47 0 78 35.5t31 90.5v83l-106 -28q-87 -23 -87 -100q0 -81 84 -81z" />
    <glyph glyph-name="atilde" unicode="&#xe3;" horiz-adv-x="549" 
d="M215 622q-33 0 -33 -34h-61q15 104 99 104q25 0 61.5 -19.5t51.5 -19.5q33 0 33 34h61q-15 -104 -99 -104q-25 0 -61 19.5t-52 19.5zM269 526q100 0 156 -44.5t56 -127.5v-354h-119v90q-15 -43 -51 -70t-88 -27q-81 0 -130.5 41t-49.5 109q0 128 189 164l129 24v19
q0 98 -99 98q-53 0 -86 -28.5t-35 -83.5l-98 44q7 65 71 105.5t155 40.5zM254 69q47 0 78 35.5t31 90.5v83l-106 -28q-87 -23 -87 -100q0 -81 84 -81z" />
    <glyph glyph-name="adieresis" unicode="&#xe4;" horiz-adv-x="549" 
d="M243 684v-105h-119v105h119zM422 684v-105h-119v105h119zM269 526q100 0 156 -44.5t56 -127.5v-354h-119v90q-15 -43 -51 -70t-88 -27q-81 0 -130.5 41t-49.5 109q0 128 189 164l129 24v19q0 98 -99 98q-53 0 -86 -28.5t-35 -83.5l-98 44q7 65 71 105.5t155 40.5zM254 69
q47 0 78 35.5t31 90.5v83l-106 -28q-87 -23 -87 -100q0 -81 84 -81z" />
    <glyph glyph-name="aring" unicode="&#xe5;" horiz-adv-x="549" 
d="M274 571q-39 0 -63 23.5t-24 61.5q0 37 24 59.5t63 22.5t63 -23t24 -60q0 -38 -24 -61t-63 -23zM274 686q-29 0 -29 -31q0 -32 29 -32t29 32q0 31 -29 31zM269 526q100 0 156 -44.5t56 -127.5v-354h-119v90q-15 -43 -51 -70t-88 -27q-81 0 -130.5 41t-49.5 109
q0 128 189 164l129 24v19q0 98 -99 98q-53 0 -86 -28.5t-35 -83.5l-98 44q7 65 71 105.5t155 40.5zM254 69q47 0 78 35.5t31 90.5v83l-106 -28q-87 -23 -87 -100q0 -81 84 -81z" />
    <glyph glyph-name="ae" unicode="&#xe6;" horiz-adv-x="888" 
d="M754 179l93 -58q-60 -128 -228 -128q-92 0 -158 50v-43h-99v99q-15 -47 -53.5 -76.5t-95.5 -29.5q-80 0 -125 40.5t-45 109.5q0 128 189 164l129 24v19q0 98 -99 98q-53 0 -86 -28.5t-35 -83.5l-98 44q7 65 71 105.5t155 40.5q121 0 166 -68q68 68 174 68
q110 0 171.5 -75.5t59.5 -200.5v-6h-354q4 -83 41.5 -129t101.5 -46q106 0 125 110zM609 449q-107 0 -121 -145h224q-4 77 -27.5 111t-75.5 34zM254 69q47 0 78 35.5t31 90.5v83l-106 -28q-87 -23 -87 -100q0 -81 84 -81z" />
    <glyph glyph-name="ccedilla" unicode="&#xe7;" horiz-adv-x="545" 
d="M522 140q-35 -126 -173 -145l-16 -36q79 -12 79 -67q0 -33 -28 -50.5t-73 -17.5q-35 0 -80 13v55q29 -18 71 -18q33 0 33 27q0 37 -90 35l43 56q-109 4 -177 78.5t-68 187.5q0 121 69 194.5t187 73.5q75 0 129.5 -35t79.5 -98l-103 -59q-15 62 -40.5 88t-68.5 26
q-58 0 -92 -49.5t-34 -140.5t35.5 -140.5t103.5 -49.5q105 0 120 131z" />
    <glyph glyph-name="egrave" unicode="&#xe8;" horiz-adv-x="568" 
d="M337 579h-82l-100 116h135zM434 179l93 -58q-60 -128 -228 -128q-113 0 -184.5 74t-71.5 192q0 121 67.5 194t178.5 73q110 0 171.5 -75.5t59.5 -200.5v-6h-354q4 -83 41.5 -129t101.5 -46q106 0 125 110zM289 449q-107 0 -121 -145h224q-4 77 -27.5 111t-75.5 34z" />
    <glyph glyph-name="eacute" unicode="&#xe9;" horiz-adv-x="568" 
d="M413 695l-100 -116h-82l47 116h135zM434 179l93 -58q-60 -128 -228 -128q-113 0 -184.5 74t-71.5 192q0 121 67.5 194t178.5 73q110 0 171.5 -75.5t59.5 -200.5v-6h-354q4 -83 41.5 -129t101.5 -46q106 0 125 110zM289 449q-107 0 -121 -145h224q-4 77 -27.5 111
t-75.5 34z" />
    <glyph glyph-name="ecircumflex" unicode="&#xea;" horiz-adv-x="568" 
d="M286 644l-47 -65h-121l120 116h96l120 -116h-121zM434 179l93 -58q-60 -128 -228 -128q-113 0 -184.5 74t-71.5 192q0 121 67.5 194t178.5 73q110 0 171.5 -75.5t59.5 -200.5v-6h-354q4 -83 41.5 -129t101.5 -46q106 0 125 110zM289 449q-107 0 -121 -145h224
q-4 77 -27.5 111t-75.5 34z" />
    <glyph glyph-name="edieresis" unicode="&#xeb;" horiz-adv-x="568" 
d="M253 684v-105h-119v105h119zM432 684v-105h-119v105h119zM434 179l93 -58q-60 -128 -228 -128q-113 0 -184.5 74t-71.5 192q0 121 67.5 194t178.5 73q110 0 171.5 -75.5t59.5 -200.5v-6h-354q4 -83 41.5 -129t101.5 -46q106 0 125 110zM289 449q-107 0 -121 -145h224
q-4 77 -27.5 111t-75.5 34z" />
    <glyph glyph-name="igrave" unicode="&#xec;" horiz-adv-x="266" 
d="M139 685l47 -116h-82l-100 116h135zM74 0v511h118v-511h-118z" />
    <glyph glyph-name="iacute" unicode="&#xed;" horiz-adv-x="266" 
d="M127 685h135l-100 -116h-82zM74 0v511h118v-511h-118z" />
    <glyph glyph-name="icircumflex" unicode="&#xee;" horiz-adv-x="266" 
d="M135 634l-47 -65h-121l120 116h96l120 -116h-121zM74 0v511h118v-511h-118z" />
    <glyph glyph-name="idieresis" unicode="&#xef;" horiz-adv-x="266" 
d="M-17 569v105h119v-105h-119zM162 569v105h119v-105h-119zM74 0v511h118v-511h-118z" />
    <glyph glyph-name="eth" unicode="&#xf0;" horiz-adv-x="565" 
d="M419 577q96 -102 96 -279q0 -143 -63.5 -224t-185.5 -81q-106 0 -168.5 66.5t-62.5 170.5t59.5 171t155.5 67q121 0 164 -118q4 102 -74 191l-125 -58v81l65 30q-47 33 -109 56l65 34q68 -19 122 -55l103 48v-81zM279 69q59 0 88 43t29 118q0 72 -33 117.5t-84 45.5
t-84 -45.5t-33 -117.5q0 -71 32.5 -116t84.5 -45z" />
    <glyph glyph-name="ntilde" unicode="&#xf1;" horiz-adv-x="591" 
d="M236 622q-33 0 -33 -34h-61q15 104 99 104q25 0 61.5 -19.5t51.5 -19.5q33 0 33 34h61q-15 -104 -99 -104q-25 0 -61 19.5t-52 19.5zM343 526q84 0 132 -47t48 -135v-344h-118v336q0 108 -100 108q-56 0 -84.5 -36.5t-29.5 -102.5v-305h-118v511h118v-98q17 57 53 85
t99 28z" />
    <glyph glyph-name="ograve" unicode="&#xf2;" horiz-adv-x="596" 
d="M304 695l47 -116h-82l-100 116h135zM298 -7q-117 0 -186 72t-69 194t69 194.5t186 72.5t186 -72.5t69 -194.5t-69 -194t-186 -72zM298 69q62 0 95.5 49.5t33.5 140.5q0 92 -33.5 141t-95.5 49t-95.5 -49t-33.5 -141q0 -91 33.5 -140.5t95.5 -49.5z" />
    <glyph glyph-name="oacute" unicode="&#xf3;" horiz-adv-x="596" 
d="M292 695h135l-100 -116h-82zM298 -7q-117 0 -186 72t-69 194t69 194.5t186 72.5t186 -72.5t69 -194.5t-69 -194t-186 -72zM298 69q62 0 95.5 49.5t33.5 140.5q0 92 -33.5 141t-95.5 49t-95.5 -49t-33.5 -141q0 -91 33.5 -140.5t95.5 -49.5z" />
    <glyph glyph-name="ocircumflex" unicode="&#xf4;" horiz-adv-x="596" 
d="M300 644l-47 -65h-121l120 116h96l120 -116h-121zM298 526q117 0 186 -72.5t69 -194.5t-69 -194t-186 -72t-186 72t-69 194t69 194.5t186 72.5zM298 69q62 0 95.5 49.5t33.5 140.5q0 92 -33.5 141t-95.5 49t-95.5 -49t-33.5 -141q0 -91 33.5 -140.5t95.5 -49.5z" />
    <glyph glyph-name="otilde" unicode="&#xf5;" horiz-adv-x="596" 
d="M352 583q-25 0 -61 19.5t-52 19.5q-33 0 -33 -34h-61q15 104 99 104q25 0 61.5 -19.5t51.5 -19.5q33 0 33 34h61q-15 -104 -99 -104zM298 -7q-117 0 -186 72t-69 194t69 194.5t186 72.5t186 -72.5t69 -194.5t-69 -194t-186 -72zM298 69q62 0 95.5 49.5t33.5 140.5
q0 92 -33.5 141t-95.5 49t-95.5 -49t-33.5 -141q0 -91 33.5 -140.5t95.5 -49.5z" />
    <glyph glyph-name="odieresis" unicode="&#xf6;" horiz-adv-x="596" 
d="M148 579v105h119v-105h-119zM327 579v105h119v-105h-119zM298 -7q-117 0 -186 72t-69 194t69 194.5t186 72.5t186 -72.5t69 -194.5t-69 -194t-186 -72zM298 69q62 0 95.5 49.5t33.5 140.5q0 92 -33.5 141t-95.5 49t-95.5 -49t-33.5 -141q0 -91 33.5 -140.5t95.5 -49.5z
" />
    <glyph glyph-name="divide" unicode="&#xf7;" horiz-adv-x="600" 
d="M265 420v95h95v-95h-95zM74 239v85h477v-85h-477zM265 48v95h95v-95h-95z" />
    <glyph glyph-name="oslash" unicode="&#xf8;" horiz-adv-x="596" 
d="M553 515l-59 -73q59 -71 59 -183q0 -122 -69 -194t-186 -72q-78 0 -138 34l-27 -34h-90l63 78q-63 72 -63 188q0 122 69 194.5t186 72.5q83 0 145 -39l22 28h88zM169 259q0 -55 12 -95l202 249q-31 36 -85 36q-62 0 -95.5 -49t-33.5 -141zM427 259q0 51 -10 87l-198 -247
q30 -30 79 -30q62 0 95.5 49.5t33.5 140.5z" />
    <glyph glyph-name="ugrave" unicode="&#xf9;" horiz-adv-x="591" 
d="M348 579h-82l-100 116h135zM399 511h119v-511h-119v106q-36 -114 -156 -114q-175 0 -175 173v346h119v-330q0 -107 99 -107q111 0 113 138v299z" />
    <glyph glyph-name="uacute" unicode="&#xfa;" horiz-adv-x="591" 
d="M424 695l-100 -116h-82l47 116h135zM399 511h119v-511h-119v106q-36 -114 -156 -114q-175 0 -175 173v346h119v-330q0 -107 99 -107q111 0 113 138v299z" />
    <glyph glyph-name="ucircumflex" unicode="&#xfb;" horiz-adv-x="591" 
d="M297 644l-47 -65h-121l120 116h96l120 -116h-121zM399 511h119v-511h-119v106q-36 -114 -156 -114q-175 0 -175 173v346h119v-330q0 -107 99 -107q111 0 113 138v299z" />
    <glyph glyph-name="udieresis" unicode="&#xfc;" horiz-adv-x="591" 
d="M264 684v-105h-119v105h119zM443 684v-105h-119v105h119zM399 511h119v-511h-119v106q-36 -114 -156 -114q-175 0 -175 173v346h119v-330q0 -107 99 -107q111 0 113 138v299z" />
    <glyph glyph-name="yacute" unicode="&#xfd;" horiz-adv-x="537" 
d="M397 695l-100 -116h-82l47 116h135zM396 510h118l-253 -660h-114l80 179l-204 482h121l108 -275q14 -35 27 -74z" />
    <glyph glyph-name="thorn" unicode="&#xfe;" horiz-adv-x="613" 
d="M347 526q98 0 160.5 -73.5t62.5 -193.5q0 -119 -62.5 -192.5t-160.5 -73.5q-113 0 -154 101v-244h-119v829h119v-254q41 101 154 101zM318 69q57 0 91 51.5t34 138.5t-34 138.5t-91 51.5q-58 0 -93 -51.5t-35 -138.5q0 -86 35.5 -138t92.5 -52z" />
    <glyph glyph-name="ydieresis" unicode="&#xff;" horiz-adv-x="537" 
d="M237 684v-105h-119v105h119zM416 684v-105h-119v105h119zM396 510h118l-253 -660h-114l80 179l-204 482h121l108 -275q14 -35 27 -74z" />
    <glyph glyph-name="Amacron" unicode="&#x100;" horiz-adv-x="685" 
d="M490 811v-73h-286v73h286zM555 0l-73 200h-285l-73 -200h-119l257 679h162l256 -679h-125zM229 285h222l-74 202q-20 60 -37 125q-18 -67 -37 -124z" />
    <glyph glyph-name="amacron" unicode="&#x101;" horiz-adv-x="549" 
d="M419 652v-73h-286v73h286zM269 526q100 0 156 -44.5t56 -127.5v-354h-119v90q-15 -43 -51 -70t-88 -27q-81 0 -130.5 41t-49.5 109q0 128 189 164l129 24v19q0 98 -99 98q-53 0 -86 -28.5t-35 -83.5l-98 44q7 65 71 105.5t155 40.5zM254 69q47 0 78 35.5t31 90.5v83
l-106 -28q-87 -23 -87 -100q0 -81 84 -81z" />
    <glyph glyph-name="Abreve" unicode="&#x102;" horiz-adv-x="685" 
d="M347 738q-87 0 -123.5 29t-44.5 87h111q0 -65 57 -65q28 0 42.5 17.5t14.5 47.5h111q-8 -58 -44.5 -87t-123.5 -29zM555 0l-73 200h-285l-73 -200h-119l257 679h162l256 -679h-125zM229 285h222l-74 202q-20 60 -37 125q-18 -67 -37 -124z" />
    <glyph glyph-name="abreve" unicode="&#x103;" horiz-adv-x="549" 
d="M276 579q-87 0 -123.5 29t-44.5 87h111q0 -65 57 -65q28 0 42.5 18t14.5 47h111q-8 -58 -44.5 -87t-123.5 -29zM269 526q100 0 156 -44.5t56 -127.5v-354h-119v90q-15 -43 -51 -70t-88 -27q-81 0 -130.5 41t-49.5 109q0 128 189 164l129 24v19q0 98 -99 98
q-53 0 -86 -28.5t-35 -83.5l-98 44q7 65 71 105.5t155 40.5zM254 69q47 0 78 35.5t31 90.5v83l-106 -28q-87 -23 -87 -100q0 -81 84 -81z" />
    <glyph glyph-name="Aogonek" unicode="&#x104;" horiz-adv-x="685" 
d="M680 0q-27 -24 -33.5 -49.5t4.5 -40.5t37.5 -14.5t59.5 22.5v-56q-37 -24 -72 -27t-56.5 12t-33 39t-3.5 55.5t36 58.5h-64l-73 200h-285l-73 -200h-119l257 679h162zM229 285h222l-74 202q-20 60 -37 125q-18 -67 -37 -124z" />
    <glyph glyph-name="aogonek" unicode="&#x105;" horiz-adv-x="549" 
d="M481 0q-27 -24 -33.5 -49.5t4.5 -40.5t37.5 -14.5t59.5 22.5v-56q-37 -24 -72 -27t-56.5 12t-33 39t-3.5 55.5t36 58.5h-58v90q-15 -43 -51 -70t-88 -27q-81 0 -130.5 41t-49.5 109q0 128 189 164l129 24v19q0 98 -99 98q-53 0 -86 -28.5t-35 -83.5l-98 44q7 65 71 105.5
t155 40.5q100 0 156 -44.5t56 -127.5v-354zM254 69q47 0 78 35.5t31 90.5v83l-106 -28q-87 -23 -87 -100q0 -81 84 -81z" />
    <glyph glyph-name="Cacute" unicode="&#x106;" horiz-adv-x="682" 
d="M470 854l-100 -116h-82l47 116h135zM544 297l105 -68q-4 -107 -85 -172t-198 -65q-147 0 -235 92.5t-88 257.5q0 164 86.5 257.5t226.5 93.5q110 0 189 -57.5t82 -149.5l-103 -68q1 93 -46.5 141t-121.5 48q-84 0 -134 -67.5t-50 -197.5q0 -131 51.5 -197.5t142.5 -66.5
q83 0 132 55t46 164z" />
    <glyph glyph-name="cacute" unicode="&#x107;" horiz-adv-x="545" 
d="M406 695l-100 -116h-82l47 116h135zM429 199l93 -59q-41 -148 -223 -148q-114 0 -185 75t-71 191q0 121 69 194.5t187 73.5q75 0 129.5 -35t79.5 -98l-103 -59q-15 62 -40.5 88t-68.5 26q-58 0 -92 -49.5t-34 -140.5t35.5 -140.5t103.5 -49.5q105 0 120 131z" />
    <glyph glyph-name="Cdotaccent" unicode="&#x10a;" horiz-adv-x="682" 
d="M400 853v-115h-119v115h119zM544 297l105 -68q-4 -107 -85 -172t-198 -65q-147 0 -235 92.5t-88 257.5q0 164 86.5 257.5t226.5 93.5q110 0 189 -57.5t82 -149.5l-103 -68q1 93 -46.5 141t-121.5 48q-84 0 -134 -67.5t-50 -197.5q0 -131 51.5 -197.5t142.5 -66.5
q83 0 132 55t46 164z" />
    <glyph glyph-name="cdotaccent" unicode="&#x10b;" horiz-adv-x="545" 
d="M336 694v-115h-119v115h119zM429 199l93 -59q-41 -148 -223 -148q-114 0 -185 75t-71 191q0 121 69 194.5t187 73.5q75 0 129.5 -35t79.5 -98l-103 -59q-15 62 -40.5 88t-68.5 26q-58 0 -92 -49.5t-34 -140.5t35.5 -140.5t103.5 -49.5q105 0 120 131z" />
    <glyph glyph-name="Ccaron" unicode="&#x10c;" horiz-adv-x="682" 
d="M295 738l-120 116h121l47 -65l47 65h121l-120 -116h-96zM544 297l105 -68q-4 -107 -85 -172t-198 -65q-147 0 -235 92.5t-88 257.5q0 164 86.5 257.5t226.5 93.5q110 0 189 -57.5t82 -149.5l-103 -68q1 93 -46.5 141t-121.5 48q-84 0 -134 -67.5t-50 -197.5
q0 -131 51.5 -197.5t142.5 -66.5q83 0 132 55t46 164z" />
    <glyph glyph-name="ccaron" unicode="&#x10d;" horiz-adv-x="545" 
d="M231 579l-120 116h121l47 -65l47 65h121l-120 -116h-96zM429 199l93 -59q-41 -148 -223 -148q-114 0 -185 75t-71 191q0 121 69 194.5t187 73.5q75 0 129.5 -35t79.5 -98l-103 -59q-15 62 -40.5 88t-68.5 26q-58 0 -92 -49.5t-34 -140.5t35.5 -140.5t103.5 -49.5
q105 0 120 131z" />
    <glyph glyph-name="Dcaron" unicode="&#x10e;" horiz-adv-x="683" 
d="M245 738l-120 116h121l47 -65l47 65h121l-120 -116h-96zM284 679q356 0 356 -339q0 -340 -356 -340h-211v679h211zM267 85q128 0 187.5 63t59.5 192q0 128 -59.5 191t-187.5 63h-73v-509h73z" />
    <glyph glyph-name="dcaron" unicode="&#x10f;" horiz-adv-x="777" 
d="M425 414v265h119v-679h-119v105q-37 -112 -154 -112q-98 0 -160.5 73.5t-62.5 192.5q0 120 62.5 193.5t160.5 73.5q117 0 154 -112zM632 678h135l-100 -116h-82zM300 69q57 0 92.5 52t35.5 138q0 87 -35 138.5t-93 51.5q-57 0 -91 -51.5t-34 -138.5t34 -138.5t91 -51.5z
" />
    <glyph glyph-name="Dcroat" unicode="&#x110;" horiz-adv-x="683" 
d="M284 679q356 0 356 -339q0 -340 -356 -340h-211v302h-44v85h44v292h211zM267 85q128 0 187.5 63t59.5 192q0 128 -59.5 191t-187.5 63h-73v-207h128v-85h-128v-217h73z" />
    <glyph glyph-name="dcroat" unicode="&#x111;" horiz-adv-x="617" 
d="M607 612v-66h-63v-546h-119v105q-37 -112 -154 -112q-98 0 -160.5 73.5t-62.5 192.5q0 120 62.5 193.5t160.5 73.5q117 0 154 -112v132h-94v66h94v67h119v-67h63zM300 69q57 0 92.5 52t35.5 138q0 87 -35 138.5t-93 51.5q-57 0 -91 -51.5t-34 -138.5t34 -138.5t91 -51.5z
" />
    <glyph glyph-name="Emacron" unicode="&#x112;" horiz-adv-x="587" 
d="M458 811v-73h-286v73h286zM539 594h-345v-207h327v-85h-327v-217h345v-85h-466v679h466v-85z" />
    <glyph glyph-name="emacron" unicode="&#x113;" horiz-adv-x="568" 
d="M429 652v-73h-286v73h286zM434 179l93 -58q-60 -128 -228 -128q-113 0 -184.5 74t-71.5 192q0 121 67.5 194t178.5 73q110 0 171.5 -75.5t59.5 -200.5v-6h-354q4 -83 41.5 -129t101.5 -46q106 0 125 110zM289 449q-107 0 -121 -145h224q-4 77 -27.5 111t-75.5 34z" />
    <glyph glyph-name="Edotaccent" unicode="&#x116;" horiz-adv-x="587" 
d="M372 853v-115h-119v115h119zM539 594h-345v-207h327v-85h-327v-217h345v-85h-466v679h466v-85z" />
    <glyph glyph-name="edotaccent" unicode="&#x117;" horiz-adv-x="568" 
d="M343 694v-115h-119v115h119zM434 179l93 -58q-60 -128 -228 -128q-113 0 -184.5 74t-71.5 192q0 121 67.5 194t178.5 73q110 0 171.5 -75.5t59.5 -200.5v-6h-354q4 -83 41.5 -129t101.5 -46q106 0 125 110zM289 449q-107 0 -121 -145h224q-4 77 -27.5 111t-75.5 34z" />
    <glyph glyph-name="Eogonek" unicode="&#x118;" horiz-adv-x="587" 
d="M539 0q-27 -24 -33.5 -49.5t4.5 -40.5t37.5 -14.5t59.5 22.5v-56q-37 -24 -72 -27t-56.5 12t-33 39t-3.5 55.5t36 58.5h-405v679h466v-85h-345v-207h327v-85h-327v-217h345v-85z" />
    <glyph glyph-name="eogonek" unicode="&#x119;" horiz-adv-x="568" 
d="M449 29q-25 -24 -31 -48.5t5 -39t38 -14t59 22.5v-56q-40 -26 -78.5 -27t-59 18.5t-29 49t11.5 63.5q-33 -5 -66 -5q-113 0 -184.5 74t-71.5 192q0 121 67.5 194t178.5 73q110 0 171.5 -75.5t59.5 -200.5v-6h-354q4 -83 41.5 -129t101.5 -46q106 0 125 110l93 -58
q-29 -61 -78 -92zM289 449q-107 0 -121 -145h224q-4 77 -27.5 111t-75.5 34z" />
    <glyph glyph-name="Ecaron" unicode="&#x11a;" horiz-adv-x="587" 
d="M267 738l-120 116h121l47 -65l47 65h121l-120 -116h-96zM539 594h-345v-207h327v-85h-327v-217h345v-85h-466v679h466v-85z" />
    <glyph glyph-name="ecaron" unicode="&#x11b;" horiz-adv-x="568" 
d="M238 579l-120 116h121l47 -65l47 65h121l-120 -116h-96zM434 179l93 -58q-60 -128 -228 -128q-113 0 -184.5 74t-71.5 192q0 121 67.5 194t178.5 73q110 0 171.5 -75.5t59.5 -200.5v-6h-354q4 -83 41.5 -129t101.5 -46q106 0 125 110zM289 449q-107 0 -121 -145h224
q-4 77 -27.5 111t-75.5 34z" />
    <glyph glyph-name="Gbreve" unicode="&#x11e;" horiz-adv-x="720" 
d="M357 738q-85 0 -122 35t-46 96h111q0 -65 57 -65q28 0 42.5 18t14.5 47h111q-9 -61 -46 -96t-122 -35zM650 367v-368h-116v115q-35 -122 -188 -122q-134 0 -218.5 93.5t-84.5 256.5q0 165 88 258t233 93q116 0 190 -52t86 -133l-102 -63q-5 79 -53.5 120.5t-120.5 41.5
q-90 0 -142.5 -67.5t-52.5 -197.5q0 -129 51 -196.5t136 -67.5q165 0 178 176v28h-191v85h307z" />
    <glyph glyph-name="gbreve" unicode="&#x11f;" horiz-adv-x="594" 
d="M299 579q-85 0 -122 35t-46 96h111q0 -65 57 -65q28 0 42.5 17.5t14.5 47.5h111q-9 -61 -46 -96t-122 -35zM406 511h119v-445q0 -222 -249 -222q-167 0 -227 122l102 54q21 -60 51.5 -83t86.5 -23q63 0 90 41t27 124v74q-39 -102 -149 -102q-92 0 -151.5 67.5
t-59.5 169.5q0 103 60 170.5t155 67.5q106 0 145 -100v85zM290 127q51 0 84 46.5t33 114.5t-33.5 115.5t-83.5 47.5q-51 0 -84 -45.5t-33 -117.5q0 -71 33 -116t84 -45z" />
    <glyph glyph-name="Gdotaccent" unicode="&#x120;" horiz-adv-x="720" 
d="M414 853v-115h-119v115h119zM650 367v-368h-116v115q-35 -122 -188 -122q-134 0 -218.5 93.5t-84.5 256.5q0 165 88 258t233 93q116 0 190 -52t86 -133l-102 -63q-5 79 -53.5 120.5t-120.5 41.5q-90 0 -142.5 -67.5t-52.5 -197.5q0 -129 51 -196.5t136 -67.5
q165 0 178 176v28h-191v85h307z" />
    <glyph glyph-name="gdotaccent" unicode="&#x121;" horiz-adv-x="594" 
d="M356 694v-115h-119v115h119zM406 511h119v-445q0 -222 -249 -222q-167 0 -227 122l102 54q21 -60 51.5 -83t86.5 -23q63 0 90 41t27 124v74q-39 -102 -149 -102q-92 0 -151.5 67.5t-59.5 169.5q0 103 60 170.5t155 67.5q106 0 145 -100v85zM290 127q51 0 84 46.5
t33 114.5t-33.5 115.5t-83.5 47.5q-51 0 -84 -45.5t-33 -117.5q0 -71 33 -116t84 -45z" />
    <glyph glyph-name="uni0122" unicode="&#x122;" horiz-adv-x="720" 
d="M650 367v-368h-116v115q-35 -122 -188 -122q-134 0 -218.5 93.5t-84.5 256.5q0 165 88 258t233 93q116 0 190 -52t86 -133l-102 -63q-5 79 -53.5 120.5t-120.5 41.5q-90 0 -142.5 -67.5t-52.5 -197.5q0 -129 51 -196.5t136 -67.5q165 0 178 176v28h-191v85h307zM250 -182
l47 116h135l-100 -116h-82z" />
    <glyph glyph-name="uni0123" unicode="&#x123;" horiz-adv-x="594" 
d="M412 695l-47 -116h-135l100 116h82zM406 511h119v-445q0 -222 -249 -222q-167 0 -227 122l102 54q21 -60 51.5 -83t86.5 -23q63 0 90 41t27 124v74q-39 -102 -149 -102q-92 0 -151.5 67.5t-59.5 169.5q0 103 60 170.5t155 67.5q106 0 145 -100v85zM290 127q51 0 84 46.5
t33 114.5t-33.5 115.5t-83.5 47.5q-51 0 -84 -45.5t-33 -117.5q0 -71 33 -116t84 -45z" />
    <glyph glyph-name="Hbar" unicode="&#x126;" horiz-adv-x="700" 
d="M675 573v-85h-53v-488h-121v302h-302v-302h-121v488h-53v85h53v106h121v-106h302v106h121v-106h53zM501 387v101h-302v-101h302z" />
    <glyph glyph-name="hbar" unicode="&#x127;" horiz-adv-x="600" 
d="M343 527q84 0 132 -47t48 -136v-344h-119v336q0 108 -99 108q-111 0 -113 -139v-305h-119v546h-63v66h63v67h119v-67h94v-66h-94v-129q18 56 54 83t97 27z" />
    <glyph glyph-name="Itilde" unicode="&#x128;" horiz-adv-x="266" 
d="M187 742q-25 0 -61 19.5t-52 19.5q-33 0 -33 -34h-61q15 104 99 104q25 0 61.5 -19.5t51.5 -19.5q33 0 33 34h61q-15 -104 -99 -104zM73 0v679h120v-679h-120z" />
    <glyph glyph-name="itilde" unicode="&#x129;" horiz-adv-x="266" 
d="M187 573q-25 0 -61 19.5t-52 19.5q-33 0 -33 -34h-61q15 104 99 104q25 0 61.5 -19.5t51.5 -19.5q33 0 33 34h61q-15 -104 -99 -104zM74 0v511h118v-511h-118z" />
    <glyph glyph-name="Imacron" unicode="&#x12a;" horiz-adv-x="266" 
d="M-8 811h286v-73h-286v73zM73 0v679h120v-679h-120z" />
    <glyph glyph-name="imacron" unicode="&#x12b;" horiz-adv-x="266" 
d="M-8 642h286v-73h-286v73zM74 0v511h118v-511h-118z" />
    <glyph glyph-name="Iogonek" unicode="&#x12e;" horiz-adv-x="266" 
d="M193 0q-27 -24 -33.5 -49.5t4.5 -40.5t37.5 -14.5t59.5 22.5v-56q-37 -24 -72 -27t-56.5 12t-33 39t-3.5 55.5t36 58.5h-59v679h120v-679z" />
    <glyph glyph-name="iogonek" unicode="&#x12f;" horiz-adv-x="266" 
d="M192 684v-115h-119v115h119zM192 0q-27 -24 -33.5 -49.5t4.5 -40.5t37.5 -14.5t59.5 22.5v-56q-37 -24 -72 -27t-56.5 12t-33 39t-3.5 55.5t36 58.5h-57v511h118v-511z" />
    <glyph glyph-name="Idotaccent" unicode="&#x130;" horiz-adv-x="266" 
d="M73 738v115h119v-115h-119zM73 0v679h120v-679h-120z" />
    <glyph glyph-name="dotlessi" unicode="&#x131;" horiz-adv-x="266" 
d="M74 0v511h118v-511h-118z" />
    <glyph glyph-name="uni0136" unicode="&#x136;" horiz-adv-x="633" 
d="M73 679h121v-679h-121v679zM333 353l304 -353h-154l-289 340l294 339h134zM211 -182l47 116h135l-100 -116h-82z" />
    <glyph glyph-name="uni0137" unicode="&#x137;" horiz-adv-x="540" 
d="M308 298l219 -298h-144l-191 277v-277h-119v679h119v-395l215 227h107zM165 -182l47 116h135l-100 -116h-82z" />
    <glyph glyph-name="Lacute" unicode="&#x139;" horiz-adv-x="552" 
d="M260 854l-100 -116h-82l47 116h135zM194 85h325v-85h-446v679h121v-594z" />
    <glyph glyph-name="lacute" unicode="&#x13a;" horiz-adv-x="266" 
d="M127 854h135l-100 -116h-82zM74 0v679h118v-679h-118z" />
    <glyph glyph-name="uni013B" unicode="&#x13b;" horiz-adv-x="552" 
d="M194 85h325v-85h-446v679h121v-594zM171 -182l47 116h135l-100 -116h-82z" />
    <glyph glyph-name="uni013C" unicode="&#x13c;" horiz-adv-x="266" 
d="M74 0v679h118v-679h-118zM75 -66h135l-100 -116h-82z" />
    <glyph glyph-name="Lcaron" unicode="&#x13d;" horiz-adv-x="552" 
d="M85 738l-120 116h121l47 -65l47 65h121l-120 -116h-96zM194 85h325v-85h-446v679h121v-594z" />
    <glyph glyph-name="lcaron" unicode="&#x13e;" horiz-adv-x="266" 
d="M87 738l-120 116h121l47 -65l47 65h121l-120 -116h-96zM74 0v679h118v-679h-118z" />
    <glyph glyph-name="Ldot" unicode="&#x13f;" horiz-adv-x="552" 
d="M194 85h325v-85h-446v679h121v-594zM424 441v-131h-131v131h131z" />
    <glyph glyph-name="ldot" unicode="&#x140;" horiz-adv-x="445" 
d="M74 0v679h118v-679h-118zM263 270v131h131v-131h-131z" />
    <glyph glyph-name="Lslash" unicode="&#x141;" horiz-adv-x="562" 
d="M204 85h325v-85h-446v277l-83 -35v87l83 35v315h121v-263l79 33v-87l-79 -33v-244z" />
    <glyph glyph-name="lslash" unicode="&#x142;" horiz-adv-x="286" 
d="M266 463v-81l-65 -30v-352h-118v298l-63 -29v81l63 29v300h118v-246z" />
    <glyph glyph-name="Nacute" unicode="&#x143;" horiz-adv-x="727" 
d="M492 854l-100 -116h-82l47 116h135zM542 679h112v-679h-178l-233 446q-24 47 -58 141v-587h-112v679h178l225 -432q32 -62 66 -151v583z" />
    <glyph glyph-name="nacute" unicode="&#x144;" horiz-adv-x="591" 
d="M424 695l-100 -116h-82l47 116h135zM343 526q84 0 132 -47t48 -135v-344h-118v336q0 108 -100 108q-56 0 -84.5 -36.5t-29.5 -102.5v-305h-118v511h118v-98q17 57 53 85t99 28z" />
    <glyph glyph-name="uni0145" unicode="&#x145;" horiz-adv-x="727" 
d="M542 679h112v-679h-178l-233 446q-24 47 -58 141v-587h-112v679h178l225 -432q32 -62 66 -151v583zM258 -182l47 116h135l-100 -116h-82z" />
    <glyph glyph-name="uni0146" unicode="&#x146;" horiz-adv-x="591" 
d="M343 526q84 0 132 -47t48 -135v-344h-118v336q0 108 -100 108q-56 0 -84.5 -36.5t-29.5 -102.5v-305h-118v511h118v-98q17 57 53 85t99 28zM190 -182l47 116h135l-100 -116h-82z" />
    <glyph glyph-name="Ncaron" unicode="&#x147;" horiz-adv-x="727" 
d="M317 738l-120 116h121l47 -65l47 65h121l-120 -116h-96zM542 679h112v-679h-178l-233 446q-24 47 -58 141v-587h-112v679h178l225 -432q32 -62 66 -151v583z" />
    <glyph glyph-name="ncaron" unicode="&#x148;" horiz-adv-x="591" 
d="M249 579l-120 116h121l47 -65l47 65h121l-120 -116h-96zM343 526q84 0 132 -47t48 -135v-344h-118v336q0 108 -100 108q-56 0 -84.5 -36.5t-29.5 -102.5v-305h-118v511h118v-98q17 57 53 85t99 28z" />
    <glyph glyph-name="Eng" unicode="&#x14a;" horiz-adv-x="727" 
d="M542 679h112v-699q0 -59 -51.5 -97.5t-141.5 -38.5q-92 0 -138.5 43t-46.5 113h112q0 -36 22.5 -53t55.5 -17q76 0 76 70l-281 446q-38 73 -76 154v-600h-112v679h178l199 -320q29 -46 92 -193v513z" />
    <glyph glyph-name="eng" unicode="&#x14b;" horiz-adv-x="591" 
d="M343 526q84 0 132 -47t48 -135v-386q0 -54 -36.5 -84t-100.5 -30q-43 0 -70 18v104q24 -22 49 -22q40 0 40 56v336q0 108 -100 108q-56 0 -84.5 -36.5t-29.5 -102.5v-305h-118v511h118v-98q17 57 53 85t99 28z" />
    <glyph glyph-name="Omacron" unicode="&#x14c;" horiz-adv-x="720" 
d="M219 811h286v-73h-286v73zM360 -8q-146 0 -231.5 94.5t-85.5 255.5q0 162 85.5 256.5t231.5 94.5t231.5 -94.5t85.5 -256.5q0 -161 -85.5 -255.5t-231.5 -94.5zM360 77q89 0 140 70t51 195t-51 195.5t-140 70.5t-140 -70.5t-51 -195.5t51 -195t140 -70z" />
    <glyph glyph-name="omacron" unicode="&#x14d;" horiz-adv-x="596" 
d="M157 652h286v-73h-286v73zM298 -7q-117 0 -186 72t-69 194t69 194.5t186 72.5t186 -72.5t69 -194.5t-69 -194t-186 -72zM298 69q62 0 95.5 49.5t33.5 140.5q0 92 -33.5 141t-95.5 49t-95.5 -49t-33.5 -141q0 -91 33.5 -140.5t95.5 -49.5z" />
    <glyph glyph-name="Ohungarumlaut" unicode="&#x150;" horiz-adv-x="720" 
d="M226 854h135l-100 -116h-82zM411 854h135l-100 -116h-82zM360 -8q-146 0 -231.5 94.5t-85.5 255.5q0 162 85.5 256.5t231.5 94.5t231.5 -94.5t85.5 -256.5q0 -161 -85.5 -255.5t-231.5 -94.5zM360 77q89 0 140 70t51 195t-51 195.5t-140 70.5t-140 -70.5t-51 -195.5
t51 -195t140 -70z" />
    <glyph glyph-name="ohungarumlaut" unicode="&#x151;" horiz-adv-x="596" 
d="M164 695h135l-100 -116h-82zM349 695h135l-100 -116h-82zM298 -7q-117 0 -186 72t-69 194t69 194.5t186 72.5t186 -72.5t69 -194.5t-69 -194t-186 -72zM298 69q62 0 95.5 49.5t33.5 140.5q0 92 -33.5 141t-95.5 49t-95.5 -49t-33.5 -141q0 -91 33.5 -140.5t95.5 -49.5z
" />
    <glyph glyph-name="OE" unicode="&#x152;" horiz-adv-x="1049" 
d="M1001 594h-329v-207h311v-85h-311v-217h329v-85h-450v96q-64 -104 -191 -104q-146 0 -231.5 94.5t-85.5 255.5q0 162 85.5 256.5t231.5 94.5q127 0 191 -104v90h450v-85zM360 77q94 0 142.5 69t48.5 196q0 128 -48.5 197t-142.5 69q-89 0 -140 -70.5t-51 -195.5t51 -195
t140 -70z" />
    <glyph glyph-name="oe" unicode="&#x153;" horiz-adv-x="955" 
d="M821 179l93 -58q-60 -128 -228 -128q-121 0 -192 84q-68 -84 -196 -84q-117 0 -186 72t-69 194t69 194.5t186 72.5q125 0 194 -81q67 81 184 81q110 0 171.5 -75.5t59.5 -200.5v-6h-354q4 -83 41.5 -129t101.5 -46q106 0 125 110zM301 69q61 0 96.5 47.5t35.5 133.5v9
q-2 92 -36 141t-96 49q-63 0 -97.5 -49.5t-34.5 -140.5q0 -90 35 -140t97 -50zM676 449q-107 0 -121 -145h224q-4 77 -27.5 111t-75.5 34z" />
    <glyph glyph-name="Racute" unicode="&#x154;" horiz-adv-x="680" 
d="M469 854l-100 -116h-82l47 116h135zM571 248q26 -137 41.5 -185t32.5 -63h-139q-4 7 -7.5 15.5t-7 20t-6.5 21t-6 25.5t-5 25.5t-5 29t-4.5 29t-5 32.5t-4.5 32q-6 41 -29.5 56t-84.5 15h-147v-301h-121v679h300q238 0 238 -181q0 -56 -34.5 -97t-98.5 -57q78 -16 93 -96
zM366 386q123 0 123 107q0 101 -123 101h-172v-208h172z" />
    <glyph glyph-name="racute" unicode="&#x155;" horiz-adv-x="474" 
d="M366 695l-100 -116h-82l47 116h135zM315 526q65 0 101.5 -45t29.5 -131l-104 -63q4 97 -10.5 127.5t-47.5 30.5q-38 0 -65 -54t-27 -164v-227h-119v511h119l-3 -155q19 170 126 170z" />
    <glyph glyph-name="uni0156" unicode="&#x156;" horiz-adv-x="680" 
d="M571 248q26 -137 41.5 -185t32.5 -63h-139q-4 7 -7.5 15.5t-7 20t-6.5 21t-6 25.5t-5 25.5t-5 29t-4.5 29t-5 32.5t-4.5 32q-6 41 -29.5 56t-84.5 15h-147v-301h-121v679h300q238 0 238 -181q0 -56 -34.5 -97t-98.5 -57q78 -16 93 -96zM366 386q123 0 123 107
q0 101 -123 101h-172v-208h172zM235 -182l47 116h135l-100 -116h-82z" />
    <glyph glyph-name="uni0157" unicode="&#x157;" horiz-adv-x="474" 
d="M315 526q65 0 101.5 -45t29.5 -131l-104 -63q4 97 -10.5 127.5t-47.5 30.5q-38 0 -65 -54t-27 -164v-227h-119v511h119l-3 -155q19 170 126 170zM22 -182l47 116h135l-100 -116h-82z" />
    <glyph glyph-name="Rcaron" unicode="&#x158;" horiz-adv-x="680" 
d="M294 738l-120 116h121l47 -65l47 65h121l-120 -116h-96zM571 248q26 -137 41.5 -185t32.5 -63h-139q-4 7 -7.5 15.5t-7 20t-6.5 21t-6 25.5t-5 25.5t-5 29t-4.5 29t-5 32.5t-4.5 32q-6 41 -29.5 56t-84.5 15h-147v-301h-121v679h300q238 0 238 -181q0 -56 -34.5 -97
t-98.5 -57q78 -16 93 -96zM366 386q123 0 123 107q0 101 -123 101h-172v-208h172z" />
    <glyph glyph-name="rcaron" unicode="&#x159;" horiz-adv-x="474" 
d="M191 579l-120 116h121l47 -65l47 65h121l-120 -116h-96zM315 526q65 0 101.5 -45t29.5 -131l-104 -63q4 97 -10.5 127.5t-47.5 30.5q-38 0 -65 -54t-27 -164v-227h-119v511h119l-3 -155q19 170 126 170z" />
    <glyph glyph-name="Sacute" unicode="&#x15a;" horiz-adv-x="653" 
d="M455 854l-100 -116h-82l47 116h135zM341 411q128 -33 186 -78t58 -137q0 -93 -68 -148.5t-192 -55.5q-113 0 -188 53t-83 145l104 67q-1 -90 49.5 -137t128.5 -47q129 0 129 104q0 47 -34 73t-121 48q-124 31 -175.5 79.5t-51.5 126.5q0 86 69.5 137.5t189.5 51.5
q99 0 172 -49.5t85 -132.5l-101 -63q-3 80 -49 121t-118 41q-60 0 -96 -22.5t-36 -60.5q0 -44 29.5 -69t112.5 -47z" />
    <glyph glyph-name="sacute" unicode="&#x15b;" horiz-adv-x="505" 
d="M381 695l-100 -116h-82l47 116h135zM271 314q101 -22 143 -58.5t42 -96.5q0 -77 -52.5 -121.5t-150.5 -44.5q-77 0 -138 38t-72 96l83 51q7 -52 43.5 -80.5t90.5 -28.5q89 0 89 62q0 34 -21.5 50.5t-84.5 29.5q-98 20 -141.5 57.5t-43.5 103.5q0 69 51.5 112t156.5 44
q79 1 132.5 -36t63.5 -97l-90 -34q-7 45 -39 68.5t-81 23.5q-43 0 -67 -16.5t-24 -46.5q0 -32 20.5 -46.5t89.5 -29.5z" />
    <glyph glyph-name="Scedilla" unicode="&#x15e;" horiz-adv-x="653" 
d="M341 411q128 -33 186 -78t58 -137q0 -87 -61 -142t-171 -61l-14 -40q96 -10 96 -72q0 -79 -121 -79q-39 0 -96 15v61q36 -20 88 -20q37 0 37 31q0 40 -108 38l45 67q-96 11 -157.5 62.5t-68.5 133.5l104 67q-1 -90 49.5 -137t128.5 -47q129 0 129 104q0 47 -34 73
t-121 48q-124 31 -175.5 79.5t-51.5 126.5q0 86 69.5 137.5t189.5 51.5q99 0 172 -49.5t85 -132.5l-101 -63q-3 80 -49 121t-118 41q-60 0 -96 -22.5t-36 -60.5q0 -44 29.5 -69t112.5 -47z" />
    <glyph glyph-name="scedilla" unicode="&#x15f;" horiz-adv-x="505" 
d="M271 314q101 -22 143 -58.5t42 -96.5q0 -66 -38.5 -108.5t-111.5 -53.5l-17 -38q79 -12 79 -67q0 -33 -28 -50.5t-73 -17.5q-35 0 -80 13v55q29 -18 71 -18q33 0 33 27q0 37 -90 35l43 57q-75 2 -132.5 40t-68.5 94l83 51q7 -52 43.5 -80.5t90.5 -28.5q89 0 89 62
q0 34 -21.5 50.5t-84.5 29.5q-98 20 -141.5 57.5t-43.5 103.5q0 69 51.5 112t156.5 44q79 1 132.5 -36t63.5 -97l-90 -34q-7 45 -39 68.5t-81 23.5q-43 0 -67 -16.5t-24 -46.5q0 -32 20.5 -46.5t89.5 -29.5z" />
    <glyph glyph-name="Scaron" unicode="&#x160;" horiz-adv-x="653" 
d="M280 738l-120 116h121l47 -65l47 65h121l-120 -116h-96zM341 411q128 -33 186 -78t58 -137q0 -93 -68 -148.5t-192 -55.5q-113 0 -188 53t-83 145l104 67q-1 -90 49.5 -137t128.5 -47q129 0 129 104q0 47 -34 73t-121 48q-124 31 -175.5 79.5t-51.5 126.5
q0 86 69.5 137.5t189.5 51.5q99 0 172 -49.5t85 -132.5l-101 -63q-3 80 -49 121t-118 41q-60 0 -96 -22.5t-36 -60.5q0 -44 29.5 -69t112.5 -47z" />
    <glyph glyph-name="scaron" unicode="&#x161;" horiz-adv-x="505" 
d="M206 579l-120 116h121l47 -65l47 65h121l-120 -116h-96zM271 314q101 -22 143 -58.5t42 -96.5q0 -77 -52.5 -121.5t-150.5 -44.5q-77 0 -138 38t-72 96l83 51q7 -52 43.5 -80.5t90.5 -28.5q89 0 89 62q0 34 -21.5 50.5t-84.5 29.5q-98 20 -141.5 57.5t-43.5 103.5
q0 69 51.5 112t156.5 44q79 1 132.5 -36t63.5 -97l-90 -34q-7 45 -39 68.5t-81 23.5q-43 0 -67 -16.5t-24 -46.5q0 -32 20.5 -46.5t89.5 -29.5z" />
    <glyph glyph-name="uni0162" unicode="&#x162;" horiz-adv-x="580" 
d="M352 0h-33l-16 -47q96 -10 96 -72q0 -79 -121 -79q-39 0 -96 15v61q36 -20 88 -20q37 0 37 31q0 40 -108 38l48 73h-16v594h-218v85h554v-85h-215v-594z" />
    <glyph glyph-name="uni0163" unicode="&#x163;" horiz-adv-x="449" 
d="M314 86q61 0 101 46v-102q-40 -31 -112 -34l-17 -37q79 -12 79 -67q0 -33 -28 -50.5t-73 -17.5q-34 0 -80 13v55q29 -18 71 -18q33 0 33 27q0 37 -90 35l47 62q-119 19 -119 143v300h-113l23 70h90v124h119v-124h170l-22 -70h-148v-276q0 -41 14.5 -60t54.5 -19z" />
    <glyph glyph-name="Tcaron" unicode="&#x164;" horiz-adv-x="580" 
d="M244 738l-120 116h121l47 -65l47 65h121l-120 -116h-96zM567 679v-85h-215v-594h-121v594h-218v85h554z" />
    <glyph glyph-name="tcaron" unicode="&#x165;" horiz-adv-x="449" 
d="M470 675l-100 -116h-82l47 116h135zM393 441h-148v-276q0 -41 14.5 -60t54.5 -19q61 0 101 46v-102q-46 -35 -130 -35q-83 0 -121 40.5t-38 105.5v300h-113l23 70h90v124h119v-124h170z" />
    <glyph glyph-name="Tbar" unicode="&#x166;" horiz-adv-x="600" 
d="M567 594h-215v-139h141v-85h-141v-370h-121v370h-144v85h144v139h-218v85h554v-85z" />
    <glyph glyph-name="tbar" unicode="&#x167;" horiz-adv-x="449" 
d="M314 86q61 0 101 46v-102q-46 -35 -130 -35q-83 0 -121 40.5t-38 105.5v153h-91v66h91v81h-113l23 70h90v124h119v-124h170l-22 -70h-148v-81h126v-66h-126v-129q0 -41 14.5 -60t54.5 -19z" />
    <glyph glyph-name="Utilde" unicode="&#x168;" horiz-adv-x="661" 
d="M271 781q-33 0 -33 -34h-61q15 104 99 104q25 0 61.5 -19.5t51.5 -19.5q33 0 33 34h61q-15 -104 -99 -104q-25 0 -61 19.5t-52 19.5zM473 679h120v-445q0 -124 -64 -183t-198 -59t-198.5 59t-64.5 183v445h120l1 -438q0 -86 32.5 -124.5t109.5 -38.5q76 0 108.5 39
t32.5 124z" />
    <glyph glyph-name="utilde" unicode="&#x169;" horiz-adv-x="591" 
d="M236 622q-33 0 -33 -34h-61q15 104 99 104q25 0 61.5 -19.5t51.5 -19.5q33 0 33 34h61q-15 -104 -99 -104q-25 0 -61 19.5t-52 19.5zM399 511h119v-511h-119v106q-36 -114 -156 -114q-175 0 -175 173v346h119v-330q0 -107 99 -107q111 0 113 138v299z" />
    <glyph glyph-name="Umacron" unicode="&#x16a;" horiz-adv-x="661" 
d="M475 811v-73h-286v73h286zM473 679h120v-445q0 -124 -64 -183t-198 -59t-198.5 59t-64.5 183v445h120l1 -438q0 -86 32.5 -124.5t109.5 -38.5q76 0 108.5 39t32.5 124z" />
    <glyph glyph-name="umacron" unicode="&#x16b;" horiz-adv-x="591" 
d="M440 652v-73h-286v73h286zM399 511h119v-511h-119v106q-36 -114 -156 -114q-175 0 -175 173v346h119v-330q0 -107 99 -107q111 0 113 138v299z" />
    <glyph glyph-name="Uring" unicode="&#x16e;" horiz-adv-x="661" 
d="M330 730q-44 0 -71 26.5t-27 69.5q0 41 27 66.5t71 25.5t71 -25.5t27 -67.5q0 -43 -27 -69t-71 -26zM330 859q-33 0 -33 -34q0 -36 33 -36t33 36q0 34 -33 34zM473 679h120v-445q0 -124 -64 -183t-198 -59t-198.5 59t-64.5 183v445h120l1 -438q0 -86 32.5 -124.5
t109.5 -38.5q76 0 108.5 39t32.5 124z" />
    <glyph glyph-name="uring" unicode="&#x16f;" horiz-adv-x="591" 
d="M295 571q-44 0 -71 26.5t-27 69.5q0 41 27 66.5t71 25.5t71 -25.5t27 -67.5q0 -43 -27 -69t-71 -26zM295 700q-33 0 -33 -34q0 -36 33 -36t33 36q0 34 -33 34zM399 511h119v-511h-119v106q-36 -114 -156 -114q-175 0 -175 173v346h119v-330q0 -107 99 -107q111 0 113 138
v299z" />
    <glyph glyph-name="Uhungarumlaut" unicode="&#x170;" horiz-adv-x="661" 
d="M331 854l-100 -116h-82l47 116h135zM516 854l-100 -116h-82l47 116h135zM473 679h120v-445q0 -124 -64 -183t-198 -59t-198.5 59t-64.5 183v445h120l1 -438q0 -86 32.5 -124.5t109.5 -38.5q76 0 108.5 39t32.5 124z" />
    <glyph glyph-name="uhungarumlaut" unicode="&#x171;" horiz-adv-x="591" 
d="M296 695l-100 -116h-82l47 116h135zM481 695l-100 -116h-82l47 116h135zM399 511h119v-511h-119v106q-36 -114 -156 -114q-175 0 -175 173v346h119v-330q0 -107 99 -107q111 0 113 138v299z" />
    <glyph glyph-name="Uogonek" unicode="&#x172;" horiz-adv-x="661" 
d="M473 679h120v-445q0 -113 -53.5 -172t-165.5 -68q-31 -32 -29 -62.5t30.5 -35.5t73.5 22v-56q-48 -32 -85.5 -27.5t-60.5 26.5t-21.5 59.5t31.5 71.5q-125 4 -185 63.5t-60 178.5v445h120l1 -438q0 -86 32.5 -124.5t109.5 -38.5q76 0 108.5 39t32.5 124z" />
    <glyph glyph-name="uogonek" unicode="&#x173;" horiz-adv-x="591" 
d="M518 0q-27 -24 -33.5 -49.5t4.5 -40.5t37.5 -14.5t59.5 22.5v-56q-37 -24 -72 -27t-56.5 12t-33 39t-3.5 55.5t36 58.5h-58v106q-36 -114 -156 -114q-175 0 -175 173v346h119v-330q0 -107 99 -107q111 0 113 138v299h119v-511z" />
    <glyph glyph-name="Wcircumflex" unicode="&#x174;" horiz-adv-x="967" 
d="M485 803l-47 -65h-121l120 116h96l120 -116h-121zM825 679h132l-189 -679h-171l-88 392q-10 54 -25 201q-15 -147 -26 -203l-88 -390h-171l-189 679h132l117 -460q17 -66 28 -141q9 84 21 140l101 461h149l100 -458q14 -67 22 -144q10 70 29 145z" />
    <glyph glyph-name="wcircumflex" unicode="&#x175;" horiz-adv-x="755" 
d="M379 644l-47 -65h-121l120 116h96l120 -116h-121zM625 511h117l-139 -511h-140l-71 337q-11 56 -14 105q-5 -61 -14 -104l-72 -338h-140l-139 511h117l75 -305q13 -52 22 -131q7 79 18 130l63 306h139l65 -313q11 -54 16 -116q6 62 19 117z" />
    <glyph glyph-name="Ycircumflex" unicode="&#x176;" horiz-adv-x="616" 
d="M310 803l-47 -65h-121l120 116h96l120 -116h-121zM613 679l-244 -386v-293h-120v289l-246 390h136l172 -287l175 287h127z" />
    <glyph glyph-name="ycircumflex" unicode="&#x177;" horiz-adv-x="537" 
d="M270 644l-47 -65h-121l120 116h96l120 -116h-121zM396 510h118l-253 -660h-114l80 179l-204 482h121l108 -275q14 -35 27 -74z" />
    <glyph glyph-name="Ydieresis" unicode="&#x178;" horiz-adv-x="616" 
d="M277 843v-105h-119v105h119zM456 843v-105h-119v105h119zM613 679l-244 -386v-293h-120v289l-246 390h136l172 -287l175 287h127z" />
    <glyph glyph-name="Zacute" unicode="&#x179;" horiz-adv-x="595" 
d="M426 854l-100 -116h-82l47 116h135zM180 86h382v-86h-519v86l368 507h-378v86h515v-86z" />
    <glyph glyph-name="zacute" unicode="&#x17a;" horiz-adv-x="484" 
d="M371 695l-100 -116h-82l47 116h135zM176 75h280v-75h-413v75l273 361h-283v75h417v-75z" />
    <glyph glyph-name="Zdotaccent" unicode="&#x17b;" horiz-adv-x="595" 
d="M356 853v-115h-119v115h119zM180 86h382v-86h-519v86l368 507h-378v86h515v-86z" />
    <glyph glyph-name="zdotaccent" unicode="&#x17c;" horiz-adv-x="484" 
d="M301 694v-115h-119v115h119zM176 75h280v-75h-413v75l273 361h-283v75h417v-75z" />
    <glyph glyph-name="Zcaron" unicode="&#x17d;" horiz-adv-x="595" 
d="M251 738l-120 116h121l47 -65l47 65h121l-120 -116h-96zM180 86h382v-86h-519v86l368 507h-378v86h515v-86z" />
    <glyph glyph-name="zcaron" unicode="&#x17e;" horiz-adv-x="484" 
d="M196 579l-120 116h121l47 -65l47 65h121l-120 -116h-96zM176 75h280v-75h-413v75l273 361h-283v75h417v-75z" />
    <glyph glyph-name="uni018F" unicode="&#x18f;" horiz-adv-x="678" 
d="M335 694q137 0 218.5 -94.5t81.5 -263.5q0 -165 -79 -254t-220 -89q-149 0 -223.5 95t-69.5 286h464q-6 125 -51 179.5t-128 54.5q-79 0 -127 -47.5t-47 -141.5l-107 68q20 101 94.5 154t193.5 53zM336 79q82 0 123 49t48 161h-347q7 -109 49.5 -159.5t126.5 -50.5z" />
    <glyph glyph-name="florin" unicode="&#x192;" horiz-adv-x="593" 
d="M491 606q-58 0 -80 -39t-41 -148h161v-85h-176q-30 -173 -52 -226q-31 -79 -100 -102q-39 -13 -97 -13q-50 0 -86 26v89q36 -29 82 -29q27 0 47 11t33 27.5t24 53t17.5 69t16.5 94.5h-154v85h169q13 78 26.5 122.5t38.5 82.5t65 53t102 15q50 0 86 -26v-89q-36 29 -82 29
z" />
    <glyph glyph-name="Ohorn" unicode="&#x1a0;" horiz-adv-x="720" 
d="M583 607q94 -96 94 -265q0 -161 -85.5 -255.5t-231.5 -94.5t-231.5 94.5t-85.5 255.5q0 162 85.5 256.5t231.5 94.5q54 0 102 -14h39q44 0 56 11t12 41v38h81v-44q0 -23 -1.5 -38t-7.5 -33t-20.5 -29.5t-37.5 -17.5zM360 77q89 0 140 70t51 195t-51 195.5t-140 70.5
t-140 -70.5t-51 -195.5t51 -195t140 -70z" />
    <glyph glyph-name="ohorn" unicode="&#x1a1;" horiz-adv-x="596" 
d="M490 447q63 -71 63 -188q0 -122 -69 -194t-186 -72t-186 72t-69 194t69 194.5t186 72.5q53 0 95 -15q41 1 52 11.5t11 40.5v38h81v-44q0 -42 -8.5 -69t-38.5 -41zM298 69q62 0 95.5 49.5t33.5 140.5q0 92 -33.5 141t-95.5 49t-95.5 -49t-33.5 -141q0 -91 33.5 -140.5
t95.5 -49.5z" />
    <glyph glyph-name="Uhorn" unicode="&#x1af;" horiz-adv-x="752" 
d="M661 769h81v-44q0 -31 -3.5 -49.5t-17 -39.5t-45.5 -29t-83 -4v-369q0 -124 -64 -183t-198 -59t-198.5 59t-64.5 183v445h120l1 -438q0 -86 32.5 -124.5t109.5 -38.5q76 0 108.5 39t32.5 124l1 438h120q44 0 56 11t12 41v38z" />
    <glyph glyph-name="uhorn" unicode="&#x1b0;" horiz-adv-x="591" 
d="M586 601h81v-44q0 -31 -3.5 -49.5t-17 -39.5t-45.5 -29t-83 -4v-435h-119v106q-36 -114 -156 -114q-175 0 -175 173v346h119v-330q0 -107 99 -107q111 0 113 138v299h119q44 0 56 11t12 41v38z" />
    <glyph glyph-name="uni0218" unicode="&#x218;" horiz-adv-x="653" 
d="M341 411q128 -33 186 -78t58 -137q0 -93 -68 -148.5t-192 -55.5q-113 0 -188 53t-83 145l104 67q-1 -90 49.5 -137t128.5 -47q129 0 129 104q0 47 -34 73t-121 48q-124 31 -175.5 79.5t-51.5 126.5q0 86 69.5 137.5t189.5 51.5q99 0 172 -49.5t85 -132.5l-101 -63
q-3 80 -49 121t-118 41q-60 0 -96 -22.5t-36 -60.5q0 -44 29.5 -69t112.5 -47zM221 -182l47 116h135l-100 -116h-82z" />
    <glyph glyph-name="uni0219" unicode="&#x219;" horiz-adv-x="505" 
d="M271 314q101 -22 143 -58.5t42 -96.5q0 -77 -52.5 -121.5t-150.5 -44.5q-77 0 -138 38t-72 96l83 51q7 -52 43.5 -80.5t90.5 -28.5q89 0 89 62q0 34 -21.5 50.5t-84.5 29.5q-98 20 -141.5 57.5t-43.5 103.5q0 69 51.5 112t156.5 44q79 1 132.5 -36t63.5 -97l-90 -34
q-7 45 -39 68.5t-81 23.5q-43 0 -67 -16.5t-24 -46.5q0 -32 20.5 -46.5t89.5 -29.5zM147 -182l47 116h135l-100 -116h-82z" />
    <glyph glyph-name="uni021A" unicode="&#x21a;" horiz-adv-x="580" 
d="M13 679h554v-85h-215v-594h-121v594h-218v85zM185 -182l47 116h135l-100 -116h-82z" />
    <glyph glyph-name="uni021B" unicode="&#x21b;" horiz-adv-x="449" 
d="M314 86q61 0 101 46v-102q-46 -35 -130 -35q-83 0 -121 40.5t-38 105.5v300h-113l23 70h90v124h119v-124h170l-22 -70h-148v-276q0 -41 14.5 -60t54.5 -19zM144 -182l47 116h135l-100 -116h-82z" />
    <glyph glyph-name="uni0259" unicode="&#x259;" horiz-adv-x="540" 
d="M266 526q108 0 169.5 -74.5t61.5 -198.5q0 -121 -59 -191t-162 -70q-115 0 -178.5 76t-53.5 206h342q-3 93 -33.5 133.5t-90.5 40.5q-46 0 -79 -29t-35 -83l-98 44q8 59 72 102.5t144 43.5zM276 52q100 0 109 163h-233q2 -163 124 -163z" />
    <glyph glyph-name="circumflex" unicode="&#x2c6;" horiz-adv-x="484" 
d="M410 569h-121l-47 65l-47 -65h-121l120 116h96z" />
    <glyph glyph-name="caron" unicode="&#x2c7;" horiz-adv-x="484" 
d="M289 685h121l-120 -116h-96l-120 116h121l47 -65z" />
    <glyph glyph-name="breve" unicode="&#x2d8;" horiz-adv-x="484" 
d="M299 685h111q-8 -58 -44.5 -87t-123.5 -29t-123.5 29t-44.5 87h111q0 -65 57 -65q28 0 42.5 18t14.5 47z" />
    <glyph glyph-name="dotaccent" unicode="&#x2d9;" horiz-adv-x="267" 
d="M74 569v105h119v-105h-119z" />
    <glyph glyph-name="ring" unicode="&#x2da;" horiz-adv-x="322" 
d="M161 561q-39 0 -63 23.5t-24 61.5q0 37 24 59.5t63 22.5t63 -23t24 -60q0 -38 -24 -61t-63 -23zM161 613q29 0 29 32q0 31 -29 31t-29 -31q0 -32 29 -32z" />
    <glyph glyph-name="ogonek" unicode="&#x2db;" horiz-adv-x="316" 
d="M242 -138q-37 -24 -72 -27t-56.5 12t-33 39t-3.5 55.5t36 58.5h61q-27 -24 -33.5 -49.5t4.5 -40.5t37.5 -14.5t59.5 22.5v-56z" />
    <glyph glyph-name="tilde" unicode="&#x2dc;" horiz-adv-x="454" 
d="M281 573q-25 0 -61 19.5t-52 19.5q-33 0 -33 -34h-61q15 104 99 104q25 0 61.5 -19.5t51.5 -19.5q33 0 33 34h61q-15 -104 -99 -104z" />
    <glyph glyph-name="hungarumlaut" unicode="&#x2dd;" horiz-adv-x="515" 
d="M121 685h135l-100 -116h-82zM306 685h135l-100 -116h-82z" />
    <glyph glyph-name="gravecomb" unicode="&#x300;" 
d="M-121 685l47 -116h-82l-100 116h135z" />
    <glyph glyph-name="acutecomb" unicode="&#x301;" 
d="M-209 685h135l-100 -116h-82z" />
    <glyph glyph-name="uni0302" unicode="&#x302;" 
d="M-74 569h-121l-47 65l-47 -65h-121l120 116h96z" />
    <glyph glyph-name="tildecomb" unicode="&#x303;" 
d="M-173 573q-25 0 -61 19.5t-52 19.5q-33 0 -33 -34h-61q15 104 99 104q25 0 61.5 -19.5t51.5 -19.5q33 0 33 34h61q-15 -104 -99 -104z" />
    <glyph glyph-name="uni0304" unicode="&#x304;" 
d="M-360 642h286v-73h-286v73z" />
    <glyph glyph-name="uni0306" unicode="&#x306;" 
d="M-185 700h111q-9 -61 -46 -96t-122 -35t-122 35t-46 96h111q0 -65 57 -65q28 0 42.5 17.5t14.5 47.5z" />
    <glyph glyph-name="uni0307" unicode="&#x307;" 
d="M-193 569v115h119v-115h-119z" />
    <glyph glyph-name="uni0308" unicode="&#x308;" 
d="M-372 569v105h119v-105h-119zM-193 569v105h119v-105h-119z" />
    <glyph glyph-name="hookabovecomb" unicode="&#x309;" 
d="M-242 707q50 34 88 28.5t61 -29t18.5 -63.5t-38.5 -74h-81q27 24 36.5 46.5t2.5 33.5t-30.5 7.5t-56.5 -25.5v76z" />
    <glyph glyph-name="uni030A" unicode="&#x30a;" 
d="M-172 561q-44 0 -71 26.5t-27 69.5q0 41 27 66.5t71 25.5t71 -25.5t27 -67.5q0 -43 -27 -69t-71 -26zM-172 620q33 0 33 36q0 34 -33 34t-33 -34q0 -36 33 -36z" />
    <glyph glyph-name="uni030B" unicode="&#x30b;" 
d="M-394 685h135l-100 -116h-82zM-209 685h135l-100 -116h-82z" />
    <glyph glyph-name="uni030C" unicode="&#x30c;" 
d="M-195 685h121l-120 -116h-96l-120 116h121l47 -65z" />
    <glyph glyph-name="uni0312" unicode="&#x312;" 
d="M-121 569h-135l100 116h82z" />
    <glyph glyph-name="uni031B" unicode="&#x31b;" 
d="M-223 569v76q44 0 56 11t12 41v38h81v-44q0 -31 -3.5 -49.5t-17 -39.5t-45.5 -29t-83 -4z" />
    <glyph glyph-name="dotbelowcomb" unicode="&#x323;" 
d="M-193 -132v115h119v-115h-119z" />
    <glyph glyph-name="uni0326" unicode="&#x326;" 
d="M-209 -9h135l-100 -116h-82z" />
    <glyph glyph-name="uni0327" unicode="&#x327;" 
d="M-170 -37q96 -10 96 -72q0 -79 -121 -79q-39 0 -96 15v61q36 -20 88 -20q37 0 37 31q0 40 -108 38l61 92h66z" />
    <glyph glyph-name="uni0328" unicode="&#x328;" 
d="M-74 -138q-37 -24 -72 -27t-56.5 12t-33 39t-3.5 55.5t36 58.5h61q-27 -24 -33.5 -49.5t4.5 -40.5t37.5 -14.5t59.5 22.5v-56z" />
    <glyph glyph-name="uni0394" unicode="&#x394;" horiz-adv-x="560" 
d="M327 679l228 -593v-85h-550v85l234 593h88zM113 86h332l-163 447z" />
    <glyph glyph-name="uni03A9" unicode="&#x3a9;" horiz-adv-x="720" 
d="M677 372q0 -93 -48 -171t-124 -116h172v-85h-269v85q23 13 44.5 33t45.5 53t38.5 82.5t14.5 108.5q0 112 -51.5 179t-139.5 67t-139.5 -67t-51.5 -179q0 -48 11 -90t24 -68t36.5 -53t36.5 -38t35 -28v-85h-269v85h180q-80 38 -130 115t-50 172q0 137 87.5 229t229.5 92
t229.5 -92t87.5 -229z" />
    <glyph glyph-name="uni03BC" unicode="&#x3bc;" horiz-adv-x="649" 
d="M524 138q0 -33 13 -44.5t38 -11.5v-82l-30 -1q-71 2 -100.5 22t-36.5 73q-12 -52 -37.5 -77t-71.5 -25q-44 0 -69 22t-37 69v-239h-119v667h119v-279q1 -71 22 -104.5t84 -33.5t84 33.5t22 104.5v279h119v-373z" />
    <glyph glyph-name="pi" unicode="&#x3c0;" horiz-adv-x="698" 
d="M624 511v-70h-80v-441h-118v441h-154v-441h-118v441h-80v70h550z" />
    <glyph glyph-name="Wgrave" unicode="&#x1e80;" horiz-adv-x="967" 
d="M536 738h-82l-100 116h135zM825 679h132l-189 -679h-171l-88 392q-10 54 -25 201q-15 -147 -26 -203l-88 -390h-171l-189 679h132l117 -460q17 -66 28 -141q9 84 21 140l101 461h149l100 -458q14 -67 22 -144q10 70 29 145z" />
    <glyph glyph-name="wgrave" unicode="&#x1e81;" horiz-adv-x="755" 
d="M430 579h-82l-100 116h135zM625 511h117l-139 -511h-140l-71 337q-11 56 -14 105q-5 -61 -14 -104l-72 -338h-140l-139 511h117l75 -305q13 -52 22 -131q7 79 18 130l63 306h139l65 -313q11 -54 16 -116q6 62 19 117z" />
    <glyph glyph-name="Wacute" unicode="&#x1e82;" horiz-adv-x="967" 
d="M612 854l-100 -116h-82l47 116h135zM825 679h132l-189 -679h-171l-88 392q-10 54 -25 201q-15 -147 -26 -203l-88 -390h-171l-189 679h132l117 -460q17 -66 28 -141q9 84 21 140l101 461h149l100 -458q14 -67 22 -144q10 70 29 145z" />
    <glyph glyph-name="wacute" unicode="&#x1e83;" horiz-adv-x="755" 
d="M506 695l-100 -116h-82l47 116h135zM625 511h117l-139 -511h-140l-71 337q-11 56 -14 105q-5 -61 -14 -104l-72 -338h-140l-139 511h117l75 -305q13 -52 22 -131q7 79 18 130l63 306h139l65 -313q11 -54 16 -116q6 62 19 117z" />
    <glyph glyph-name="Wdieresis" unicode="&#x1e84;" horiz-adv-x="967" 
d="M452 843v-105h-119v105h119zM631 843v-105h-119v105h119zM825 679h132l-189 -679h-171l-88 392q-10 54 -25 201q-15 -147 -26 -203l-88 -390h-171l-189 679h132l117 -460q17 -66 28 -141q9 84 21 140l101 461h149l100 -458q14 -67 22 -144q10 70 29 145z" />
    <glyph glyph-name="wdieresis" unicode="&#x1e85;" horiz-adv-x="755" 
d="M346 684v-105h-119v105h119zM525 684v-105h-119v105h119zM625 511h117l-139 -511h-140l-71 337q-11 56 -14 105q-5 -61 -14 -104l-72 -338h-140l-139 511h117l75 -305q13 -52 22 -131q7 79 18 130l63 306h139l65 -313q11 -54 16 -116q6 62 19 117z" />
    <glyph glyph-name="uni1E9E" unicode="&#x1e9e;" horiz-adv-x="1266" 
d="M331 610q-60 0 -96 -22.5t-36 -60.5q0 -44 29.5 -69t112.5 -47q128 -33 186 -78t58 -137q0 -93 -68 -148.5t-192 -55.5q-113 0 -188 53t-83 145l104 67q-1 -90 49.5 -137t128.5 -47q129 0 129 104q0 47 -34 73t-121 48q-124 31 -175.5 79.5t-51.5 126.5q0 86 69.5 137.5
t189.5 51.5q99 0 172 -49.5t85 -132.5l-101 -63q-3 80 -49 121t-118 41zM954 411q128 -33 186 -78t58 -137q0 -93 -68 -148.5t-192 -55.5q-113 0 -188 53t-83 145l104 67q-1 -90 49.5 -137t128.5 -47q129 0 129 104q0 47 -34 73t-121 48q-124 31 -175.5 79.5t-51.5 126.5
q0 86 69.5 137.5t189.5 51.5q99 0 172 -49.5t85 -132.5l-101 -63q-3 80 -49 121t-118 41q-60 0 -96 -22.5t-36 -60.5q0 -44 29.5 -69t112.5 -47z" />
    <glyph glyph-name="uni1EA0" unicode="&#x1ea0;" horiz-adv-x="685" 
d="M680 0h-125l-73 200h-285l-73 -200h-119l257 679h162zM229 285h222l-74 202q-20 60 -37 125q-18 -67 -37 -124zM282 -172v115h119v-115h-119z" />
    <glyph glyph-name="uni1EA1" unicode="&#x1ea1;" horiz-adv-x="549" 
d="M269 526q100 0 156 -44.5t56 -127.5v-354h-119v90q-15 -43 -51 -70t-88 -27q-81 0 -130.5 41t-49.5 109q0 128 189 164l129 24v19q0 98 -99 98q-53 0 -86 -28.5t-35 -83.5l-98 44q7 65 71 105.5t155 40.5zM254 69q47 0 78 35.5t31 90.5v83l-106 -28q-87 -23 -87 -100
q0 -81 84 -81zM214 -172v115h119v-115h-119z" />
    <glyph glyph-name="uni1EA2" unicode="&#x1ea2;" horiz-adv-x="685" 
d="M300 738q27 24 36.5 46.5t2.5 33.5t-30.5 7.5t-56.5 -25.5v76q50 34 88 28.5t61 -29t18.5 -63.5t-38.5 -74h-81zM555 0l-73 200h-285l-73 -200h-119l257 679h162l256 -679h-125zM229 285h222l-74 202q-20 60 -37 125q-18 -67 -37 -124z" />
    <glyph glyph-name="uni1EA3" unicode="&#x1ea3;" horiz-adv-x="549" 
d="M229 579q27 24 36.5 46.5t2.5 33.5t-30.5 7.5t-56.5 -25.5v76q50 34 88 28.5t61 -29t18.5 -63.5t-38.5 -74h-81zM269 526q100 0 156 -44.5t56 -127.5v-354h-119v90q-15 -43 -51 -70t-88 -27q-81 0 -130.5 41t-49.5 109q0 128 189 164l129 24v19q0 98 -99 98
q-53 0 -86 -28.5t-35 -83.5l-98 44q7 65 71 105.5t155 40.5zM254 69q47 0 78 35.5t31 90.5v83l-106 -28q-87 -23 -87 -100q0 -81 84 -81z" />
    <glyph glyph-name="uni1EA4" unicode="&#x1ea4;" horiz-adv-x="685" 
d="M629 952l-100 -116h-82l47 116h135zM348 803l-47 -65h-121l120 116h96l120 -116h-121zM555 0l-73 200h-285l-73 -200h-119l257 679h162l256 -679h-125zM229 285h222l-74 202q-20 60 -37 125q-18 -67 -37 -124z" />
    <glyph glyph-name="uni1EA5" unicode="&#x1ea5;" horiz-adv-x="549" 
d="M558 793l-100 -116h-82l47 116h135zM277 644l-47 -65h-121l120 116h96l120 -116h-121zM269 526q100 0 156 -44.5t56 -127.5v-354h-119v90q-15 -43 -51 -70t-88 -27q-81 0 -130.5 41t-49.5 109q0 128 189 164l129 24v19q0 98 -99 98q-53 0 -86 -28.5t-35 -83.5l-98 44
q7 65 71 105.5t155 40.5zM254 69q47 0 78 35.5t31 90.5v83l-106 -28q-87 -23 -87 -100q0 -81 84 -81z" />
    <glyph glyph-name="uni1EA6" unicode="&#x1ea6;" horiz-adv-x="685" 
d="M258 836h-82l-100 116h135zM300 738h-121l120 116h96l120 -116h-121l-47 65zM555 0l-73 200h-285l-73 -200h-119l257 679h162l256 -679h-125zM229 285h222l-74 202q-20 60 -37 125q-18 -67 -37 -124z" />
    <glyph glyph-name="uni1EA7" unicode="&#x1ea7;" horiz-adv-x="549" 
d="M187 677h-82l-100 116h135zM229 579h-121l120 116h96l120 -116h-121l-47 65zM269 526q100 0 156 -44.5t56 -127.5v-354h-119v90q-15 -43 -51 -70t-88 -27q-81 0 -130.5 41t-49.5 109q0 128 189 164l129 24v19q0 98 -99 98q-53 0 -86 -28.5t-35 -83.5l-98 44
q7 65 71 105.5t155 40.5zM254 69q47 0 78 35.5t31 90.5v83l-106 -28q-87 -23 -87 -100q0 -81 84 -81z" />
    <glyph glyph-name="uni1EA8" unicode="&#x1ea8;" horiz-adv-x="685" 
d="M439 831q27 24 36.5 46.5t2.5 33.5t-30.5 7.5t-56.5 -25.5v76q50 34 88 28.5t61 -29t18.5 -63.5t-38.5 -74h-81zM347 803l-47 -65h-121l120 116h96l120 -116h-121zM555 0l-73 200h-285l-73 -200h-119l257 679h162l256 -679h-125zM229 285h222l-74 202q-20 60 -37 125
q-18 -67 -37 -124z" />
    <glyph glyph-name="uni1EA9" unicode="&#x1ea9;" horiz-adv-x="549" 
d="M368 672q27 24 36.5 46.5t2.5 33.5t-30.5 7.5t-56.5 -25.5v76q50 34 88 28.5t61 -29t18.5 -63.5t-38.5 -74h-81zM276 644l-47 -65h-121l120 116h96l120 -116h-121zM269 526q100 0 156 -44.5t56 -127.5v-354h-119v90q-15 -43 -51 -70t-88 -27q-81 0 -130.5 41t-49.5 109
q0 128 189 164l129 24v19q0 98 -99 98q-53 0 -86 -28.5t-35 -83.5l-98 44q7 65 71 105.5t155 40.5zM254 69q47 0 78 35.5t31 90.5v83l-106 -28q-87 -23 -87 -100q0 -81 84 -81z" />
    <glyph glyph-name="uni1EAA" unicode="&#x1eaa;" horiz-adv-x="685" 
d="M293 912q-33 0 -33 -34h-61q15 104 99 104q25 0 61.5 -19.5t51.5 -19.5q33 0 33 34h61q-15 -104 -99 -104q-25 0 -61 19.5t-52 19.5zM347 803l-47 -65h-121l120 116h96l120 -116h-121zM555 0l-73 200h-285l-73 -200h-119l257 679h162l256 -679h-125zM229 285h222l-74 202
q-20 60 -37 125q-18 -67 -37 -124z" />
    <glyph glyph-name="uni1EAB" unicode="&#x1eab;" horiz-adv-x="549" 
d="M222 753q-33 0 -33 -34h-61q15 104 99 104q25 0 61.5 -19.5t51.5 -19.5q33 0 33 34h61q-15 -104 -99 -104q-25 0 -61 19.5t-52 19.5zM276 644l-47 -65h-121l120 116h96l120 -116h-121zM269 526q100 0 156 -44.5t56 -127.5v-354h-119v90q-15 -43 -51 -70t-88 -27
q-81 0 -130.5 41t-49.5 109q0 128 189 164l129 24v19q0 98 -99 98q-53 0 -86 -28.5t-35 -83.5l-98 44q7 65 71 105.5t155 40.5zM254 69q47 0 78 35.5t31 90.5v83l-106 -28q-87 -23 -87 -100q0 -81 84 -81z" />
    <glyph glyph-name="uni1EAC" unicode="&#x1eac;" horiz-adv-x="685" 
d="M347 803l-47 -65h-121l120 116h96l120 -116h-121zM680 0h-125l-73 200h-285l-73 -200h-119l257 679h162zM229 285h222l-74 202q-20 60 -37 125q-18 -67 -37 -124zM282 -172v115h119v-115h-119z" />
    <glyph glyph-name="uni1EAD" unicode="&#x1ead;" horiz-adv-x="549" 
d="M276 644l-47 -65h-121l120 116h96l120 -116h-121zM269 526q100 0 156 -44.5t56 -127.5v-354h-119v90q-15 -43 -51 -70t-88 -27q-81 0 -130.5 41t-49.5 109q0 128 189 164l129 24v19q0 98 -99 98q-53 0 -86 -28.5t-35 -83.5l-98 44q7 65 71 105.5t155 40.5zM254 69
q47 0 78 35.5t31 90.5v83l-106 -28q-87 -23 -87 -100q0 -81 84 -81zM214 -172v115h119v-115h-119z" />
    <glyph glyph-name="uni1EAE" unicode="&#x1eae;" horiz-adv-x="685" 
d="M485 990l-100 -116h-82l47 116h135zM347 738q-85 0 -122 35t-46 96h111q0 -65 57 -65q28 0 42.5 18t14.5 47h111q-9 -61 -46 -96t-122 -35zM555 0l-73 200h-285l-73 -200h-119l257 679h162l256 -679h-125zM229 285h222l-74 202q-20 60 -37 125q-18 -67 -37 -124z" />
    <glyph glyph-name="uni1EAF" unicode="&#x1eaf;" horiz-adv-x="549" 
d="M414 831l-100 -116h-82l47 116h135zM276 579q-85 0 -122 35t-46 96h111q0 -65 57 -65q28 0 42.5 17.5t14.5 47.5h111q-9 -61 -46 -96t-122 -35zM269 526q100 0 156 -44.5t56 -127.5v-354h-119v90q-15 -43 -51 -70t-88 -27q-81 0 -130.5 41t-49.5 109q0 128 189 164
l129 24v19q0 98 -99 98q-53 0 -86 -28.5t-35 -83.5l-98 44q7 65 71 105.5t155 40.5zM254 69q47 0 78 35.5t31 90.5v83l-106 -28q-87 -23 -87 -100q0 -81 84 -81z" />
    <glyph glyph-name="uni1EB0" unicode="&#x1eb0;" horiz-adv-x="685" 
d="M391 874h-82l-100 116h135zM347 738q-85 0 -122 35t-46 96h111q0 -65 57 -65q28 0 42.5 18t14.5 47h111q-9 -61 -46 -96t-122 -35zM555 0l-73 200h-285l-73 -200h-119l257 679h162l256 -679h-125zM229 285h222l-74 202q-20 60 -37 125q-18 -67 -37 -124z" />
    <glyph glyph-name="uni1EB1" unicode="&#x1eb1;" horiz-adv-x="549" 
d="M320 715h-82l-100 116h135zM276 579q-85 0 -122 35t-46 96h111q0 -65 57 -65q28 0 42.5 17.5t14.5 47.5h111q-9 -61 -46 -96t-122 -35zM269 526q100 0 156 -44.5t56 -127.5v-354h-119v90q-15 -43 -51 -70t-88 -27q-81 0 -130.5 41t-49.5 109q0 128 189 164l129 24v19
q0 98 -99 98q-53 0 -86 -28.5t-35 -83.5l-98 44q7 65 71 105.5t155 40.5zM254 69q47 0 78 35.5t31 90.5v83l-106 -28q-87 -23 -87 -100q0 -81 84 -81z" />
    <glyph glyph-name="uni1EB2" unicode="&#x1eb2;" horiz-adv-x="685" 
d="M293 871q27 24 36.5 46.5t2.5 33.5t-30.5 7.5t-56.5 -25.5v76q50 34 88 28.5t61 -29t18.5 -63.5t-38.5 -74h-81zM347 738q-85 0 -122 35t-46 96h111q0 -65 57 -65q28 0 42.5 18t14.5 47h111q-9 -61 -46 -96t-122 -35zM555 0l-73 200h-285l-73 -200h-119l257 679h162
l256 -679h-125zM229 285h222l-74 202q-20 60 -37 125q-18 -67 -37 -124z" />
    <glyph glyph-name="uni1EB3" unicode="&#x1eb3;" horiz-adv-x="549" 
d="M222 712q27 24 36.5 46.5t2.5 33.5t-30.5 7.5t-56.5 -25.5v76q50 34 88 28.5t61 -29t18.5 -63.5t-38.5 -74h-81zM276 579q-85 0 -122 35t-46 96h111q0 -65 57 -65q28 0 42.5 17.5t14.5 47.5h111q-9 -61 -46 -96t-122 -35zM269 526q100 0 156 -44.5t56 -127.5v-354h-119
v90q-15 -43 -51 -70t-88 -27q-81 0 -130.5 41t-49.5 109q0 128 189 164l129 24v19q0 98 -99 98q-53 0 -86 -28.5t-35 -83.5l-98 44q7 65 71 105.5t155 40.5zM254 69q47 0 78 35.5t31 90.5v83l-106 -28q-87 -23 -87 -100q0 -81 84 -81z" />
    <glyph glyph-name="uni1EB4" unicode="&#x1eb4;" horiz-adv-x="685" 
d="M294 948q-33 0 -33 -34h-61q15 104 99 104q25 0 61.5 -19.5t51.5 -19.5q33 0 33 34h61q-15 -104 -99 -104q-25 0 -61 19.5t-52 19.5zM347 738q-85 0 -122 35t-46 96h111q0 -65 57 -65q28 0 42.5 18t14.5 47h111q-9 -61 -46 -96t-122 -35zM555 0l-73 200h-285l-73 -200
h-119l257 679h162l256 -679h-125zM229 285h222l-74 202q-20 60 -37 125q-18 -67 -37 -124z" />
    <glyph glyph-name="uni1EB5" unicode="&#x1eb5;" horiz-adv-x="549" 
d="M223 789q-33 0 -33 -34h-61q15 104 99 104q25 0 61.5 -19.5t51.5 -19.5q33 0 33 34h61q-15 -104 -99 -104q-25 0 -61 19.5t-52 19.5zM276 579q-85 0 -122 35t-46 96h111q0 -65 57 -65q28 0 42.5 17.5t14.5 47.5h111q-9 -61 -46 -96t-122 -35zM269 526q100 0 156 -44.5
t56 -127.5v-354h-119v90q-15 -43 -51 -70t-88 -27q-81 0 -130.5 41t-49.5 109q0 128 189 164l129 24v19q0 98 -99 98q-53 0 -86 -28.5t-35 -83.5l-98 44q7 65 71 105.5t155 40.5zM254 69q47 0 78 35.5t31 90.5v83l-106 -28q-87 -23 -87 -100q0 -81 84 -81z" />
    <glyph glyph-name="uni1EB6" unicode="&#x1eb6;" horiz-adv-x="685" 
d="M347 738q-85 0 -122 35t-46 96h111q0 -65 57 -65q28 0 42.5 18t14.5 47h111q-9 -61 -46 -96t-122 -35zM680 0h-125l-73 200h-285l-73 -200h-119l257 679h162zM229 285h222l-74 202q-20 60 -37 125q-18 -67 -37 -124zM282 -172v115h119v-115h-119z" />
    <glyph glyph-name="uni1EB7" unicode="&#x1eb7;" horiz-adv-x="549" 
d="M276 579q-85 0 -122 35t-46 96h111q0 -65 57 -65q28 0 42.5 17.5t14.5 47.5h111q-9 -61 -46 -96t-122 -35zM269 526q100 0 156 -44.5t56 -127.5v-354h-119v90q-15 -43 -51 -70t-88 -27q-81 0 -130.5 41t-49.5 109q0 128 189 164l129 24v19q0 98 -99 98q-53 0 -86 -28.5
t-35 -83.5l-98 44q7 65 71 105.5t155 40.5zM254 69q47 0 78 35.5t31 90.5v83l-106 -28q-87 -23 -87 -100q0 -81 84 -81zM214 -172v115h119v-115h-119z" />
    <glyph glyph-name="uni1EB8" unicode="&#x1eb8;" horiz-adv-x="587" 
d="M539 594h-345v-207h327v-85h-327v-217h345v-85h-466v679h466v-85zM273 -172v115h119v-115h-119z" />
    <glyph glyph-name="uni1EB9" unicode="&#x1eb9;" horiz-adv-x="568" 
d="M434 179l93 -58q-60 -128 -228 -128q-113 0 -184.5 74t-71.5 192q0 121 67.5 194t178.5 73q110 0 171.5 -75.5t59.5 -200.5v-6h-354q4 -83 41.5 -129t101.5 -46q106 0 125 110zM289 449q-107 0 -121 -145h224q-4 77 -27.5 111t-75.5 34zM224 -172v115h119v-115h-119z" />
    <glyph glyph-name="uni1EBA" unicode="&#x1eba;" horiz-adv-x="587" 
d="M268 738q27 24 36.5 46.5t2.5 33.5t-30.5 7.5t-56.5 -25.5v76q50 34 88 28.5t61 -29t18.5 -63.5t-38.5 -74h-81zM539 594h-345v-207h327v-85h-327v-217h345v-85h-466v679h466v-85z" />
    <glyph glyph-name="uni1EBB" unicode="&#x1ebb;" horiz-adv-x="568" 
d="M239 579q27 24 36.5 46.5t2.5 33.5t-30.5 7.5t-56.5 -25.5v76q50 34 88 28.5t61 -29t18.5 -63.5t-38.5 -74h-81zM434 179l93 -58q-60 -128 -228 -128q-113 0 -184.5 74t-71.5 192q0 121 67.5 194t178.5 73q110 0 171.5 -75.5t59.5 -200.5v-6h-354q4 -83 41.5 -129
t101.5 -46q106 0 125 110zM289 449q-107 0 -121 -145h224q-4 77 -27.5 111t-75.5 34z" />
    <glyph glyph-name="uni1EBC" unicode="&#x1ebc;" horiz-adv-x="587" 
d="M254 781q-33 0 -33 -34h-61q15 104 99 104q25 0 61.5 -19.5t51.5 -19.5q33 0 33 34h61q-15 -104 -99 -104q-25 0 -61 19.5t-52 19.5zM539 594h-345v-207h327v-85h-327v-217h345v-85h-466v679h466v-85z" />
    <glyph glyph-name="uni1EBD" unicode="&#x1ebd;" horiz-adv-x="568" 
d="M225 622q-33 0 -33 -34h-61q15 104 99 104q25 0 61.5 -19.5t51.5 -19.5q33 0 33 34h61q-15 -104 -99 -104q-25 0 -61 19.5t-52 19.5zM434 179l93 -58q-60 -128 -228 -128q-113 0 -184.5 74t-71.5 192q0 121 67.5 194t178.5 73q110 0 171.5 -75.5t59.5 -200.5v-6h-354
q4 -83 41.5 -129t101.5 -46q106 0 125 110zM289 449q-107 0 -121 -145h224q-4 77 -27.5 111t-75.5 34z" />
    <glyph glyph-name="uni1EBE" unicode="&#x1ebe;" horiz-adv-x="587" 
d="M597 952l-100 -116h-82l47 116h135zM316 803l-47 -65h-121l120 116h96l120 -116h-121zM539 679v-85h-345v-207h327v-85h-327v-217h345v-85h-466v679h466z" />
    <glyph glyph-name="uni1EBF" unicode="&#x1ebf;" horiz-adv-x="568" 
d="M568 793l-100 -116h-82l47 116h135zM287 644l-47 -65h-121l120 116h96l120 -116h-121zM309 69q106 0 125 110l93 -58q-60 -128 -228 -128q-113 0 -184.5 74t-71.5 192q0 121 67.5 194t178.5 73q110 0 171.5 -75.5t59.5 -200.5v-6h-354q4 -83 41.5 -129t101.5 -46z
M289 449q-107 0 -121 -145h224q-4 77 -27.5 111t-75.5 34z" />
    <glyph glyph-name="uni1EC0" unicode="&#x1ec0;" horiz-adv-x="587" 
d="M226 836h-82l-100 116h135zM268 738h-121l120 116h96l120 -116h-121l-47 65zM539 594h-345v-207h327v-85h-327v-217h345v-85h-466v679h466v-85z" />
    <glyph glyph-name="uni1EC1" unicode="&#x1ec1;" horiz-adv-x="568" 
d="M197 677h-82l-100 116h135zM239 579h-121l120 116h96l120 -116h-121l-47 65zM434 179l93 -58q-60 -128 -228 -128q-113 0 -184.5 74t-71.5 192q0 121 67.5 194t178.5 73q110 0 171.5 -75.5t59.5 -200.5v-6h-354q4 -83 41.5 -129t101.5 -46q106 0 125 110zM289 449
q-107 0 -121 -145h224q-4 77 -27.5 111t-75.5 34z" />
    <glyph glyph-name="uni1EC2" unicode="&#x1ec2;" horiz-adv-x="587" 
d="M407 831q27 24 36.5 46.5t2.5 33.5t-30.5 7.5t-56.5 -25.5v76q50 34 88 28.5t61 -29t18.5 -63.5t-38.5 -74h-81zM315 803l-47 -65h-121l120 116h96l120 -116h-121zM539 594h-345v-207h327v-85h-327v-217h345v-85h-466v679h466v-85z" />
    <glyph glyph-name="uni1EC3" unicode="&#x1ec3;" horiz-adv-x="568" 
d="M378 672q27 24 36.5 46.5t2.5 33.5t-30.5 7.5t-56.5 -25.5v76q50 34 88 28.5t61 -29t18.5 -63.5t-38.5 -74h-81zM286 644l-47 -65h-121l120 116h96l120 -116h-121zM434 179l93 -58q-60 -128 -228 -128q-113 0 -184.5 74t-71.5 192q0 121 67.5 194t178.5 73
q110 0 171.5 -75.5t59.5 -200.5v-6h-354q4 -83 41.5 -129t101.5 -46q106 0 125 110zM289 449q-107 0 -121 -145h224q-4 77 -27.5 111t-75.5 34z" />
    <glyph glyph-name="uni1EC4" unicode="&#x1ec4;" horiz-adv-x="587" 
d="M261 912q-33 0 -33 -34h-61q15 104 99 104q25 0 61.5 -19.5t51.5 -19.5q33 0 33 34h61q-15 -104 -99 -104q-25 0 -61 19.5t-52 19.5zM315 803l-47 -65h-121l120 116h96l120 -116h-121zM539 594h-345v-207h327v-85h-327v-217h345v-85h-466v679h466v-85z" />
    <glyph glyph-name="uni1EC5" unicode="&#x1ec5;" horiz-adv-x="568" 
d="M232 753q-33 0 -33 -34h-61q15 104 99 104q25 0 61.5 -19.5t51.5 -19.5q33 0 33 34h61q-15 -104 -99 -104q-25 0 -61 19.5t-52 19.5zM286 644l-47 -65h-121l120 116h96l120 -116h-121zM434 179l93 -58q-60 -128 -228 -128q-113 0 -184.5 74t-71.5 192q0 121 67.5 194
t178.5 73q110 0 171.5 -75.5t59.5 -200.5v-6h-354q4 -83 41.5 -129t101.5 -46q106 0 125 110zM289 449q-107 0 -121 -145h224q-4 77 -27.5 111t-75.5 34z" />
    <glyph glyph-name="uni1EC6" unicode="&#x1ec6;" horiz-adv-x="587" 
d="M315 803l-47 -65h-121l120 116h96l120 -116h-121zM539 594h-345v-207h327v-85h-327v-217h345v-85h-466v679h466v-85zM273 -172v115h119v-115h-119z" />
    <glyph glyph-name="uni1EC7" unicode="&#x1ec7;" horiz-adv-x="568" 
d="M286 644l-47 -65h-121l120 116h96l120 -116h-121zM434 179l93 -58q-60 -128 -228 -128q-113 0 -184.5 74t-71.5 192q0 121 67.5 194t178.5 73q110 0 171.5 -75.5t59.5 -200.5v-6h-354q4 -83 41.5 -129t101.5 -46q106 0 125 110zM289 449q-107 0 -121 -145h224
q-4 77 -27.5 111t-75.5 34zM224 -172v115h119v-115h-119z" />
    <glyph glyph-name="uni1EC8" unicode="&#x1ec8;" horiz-adv-x="266" 
d="M40 876q50 34 88 28.5t61 -29t18.5 -63.5t-38.5 -74h-81q27 24 36.5 46.5t2.5 33.5t-30.5 7.5t-56.5 -25.5v76zM73 0v679h120v-679h-120z" />
    <glyph glyph-name="uni1EC9" unicode="&#x1ec9;" horiz-adv-x="266" 
d="M40 707q50 34 88 28.5t61 -29t18.5 -63.5t-38.5 -74h-81q27 24 36.5 46.5t2.5 33.5t-30.5 7.5t-56.5 -25.5v76zM74 0v511h118v-511h-118z" />
    <glyph glyph-name="uni1ECA" unicode="&#x1eca;" horiz-adv-x="266" 
d="M73 0v679h120v-679h-120zM73 -172v115h119v-115h-119z" />
    <glyph glyph-name="uni1ECB" unicode="&#x1ecb;" horiz-adv-x="283" 
d="M75 574v105h133v-105h-133zM82 0v511h118v-511h-118zM81 -172v115h119v-115h-119z" />
    <glyph glyph-name="uni1ECC" unicode="&#x1ecc;" horiz-adv-x="720" 
d="M360 -8q-146 0 -231.5 94.5t-85.5 255.5q0 162 85.5 256.5t231.5 94.5t231.5 -94.5t85.5 -256.5q0 -161 -85.5 -255.5t-231.5 -94.5zM360 77q89 0 140 70t51 195t-51 195.5t-140 70.5t-140 -70.5t-51 -195.5t51 -195t140 -70zM300 -172v115h119v-115h-119z" />
    <glyph glyph-name="uni1ECD" unicode="&#x1ecd;" horiz-adv-x="596" 
d="M298 -7q-117 0 -186 72t-69 194t69 194.5t186 72.5t186 -72.5t69 -194.5t-69 -194t-186 -72zM298 69q62 0 95.5 49.5t33.5 140.5q0 92 -33.5 141t-95.5 49t-95.5 -49t-33.5 -141q0 -91 33.5 -140.5t95.5 -49.5zM238 -172v115h119v-115h-119z" />
    <glyph glyph-name="uni1ECE" unicode="&#x1ece;" horiz-adv-x="720" 
d="M267 876q50 34 88 28.5t61 -29t18.5 -63.5t-38.5 -74h-81q27 24 36.5 46.5t2.5 33.5t-30.5 7.5t-56.5 -25.5v76zM360 -8q-146 0 -231.5 94.5t-85.5 255.5q0 162 85.5 256.5t231.5 94.5t231.5 -94.5t85.5 -256.5q0 -161 -85.5 -255.5t-231.5 -94.5zM360 77q89 0 140 70
t51 195t-51 195.5t-140 70.5t-140 -70.5t-51 -195.5t51 -195t140 -70z" />
    <glyph glyph-name="uni1ECF" unicode="&#x1ecf;" horiz-adv-x="596" 
d="M205 717q50 34 88 28.5t61 -29t18.5 -63.5t-38.5 -74h-81q27 24 36.5 46.5t2.5 33.5t-30.5 7.5t-56.5 -25.5v76zM298 -7q-117 0 -186 72t-69 194t69 194.5t186 72.5t186 -72.5t69 -194.5t-69 -194t-186 -72zM298 69q62 0 95.5 49.5t33.5 140.5q0 92 -33.5 141t-95.5 49
t-95.5 -49t-33.5 -141q0 -91 33.5 -140.5t95.5 -49.5z" />
    <glyph glyph-name="uni1ED0" unicode="&#x1ed0;" horiz-adv-x="720" 
d="M644 952l-100 -116h-82l47 116h135zM363 803l-47 -65h-121l120 116h96l120 -116h-121zM360 693q146 0 231.5 -94.5t85.5 -256.5q0 -161 -85.5 -255.5t-231.5 -94.5t-231.5 94.5t-85.5 255.5q0 162 85.5 256.5t231.5 94.5zM360 77q89 0 140 70t51 195t-51 195.5t-140 70.5
t-140 -70.5t-51 -195.5t51 -195t140 -70z" />
    <glyph glyph-name="uni1ED1" unicode="&#x1ed1;" horiz-adv-x="596" 
d="M582 793l-100 -116h-82l47 116h135zM301 644l-47 -65h-121l120 116h96l120 -116h-121zM298 526q117 0 186 -72.5t69 -194.5t-69 -194t-186 -72t-186 72t-69 194t69 194.5t186 72.5zM298 69q62 0 95.5 49.5t33.5 140.5q0 92 -33.5 141t-95.5 49t-95.5 -49t-33.5 -141
q0 -91 33.5 -140.5t95.5 -49.5z" />
    <glyph glyph-name="uni1ED2" unicode="&#x1ed2;" horiz-adv-x="720" 
d="M273 836h-82l-100 116h135zM315 738h-121l120 116h96l120 -116h-121l-47 65zM360 693q146 0 231.5 -94.5t85.5 -256.5q0 -161 -85.5 -255.5t-231.5 -94.5t-231.5 94.5t-85.5 255.5q0 162 85.5 256.5t231.5 94.5zM360 77q89 0 140 70t51 195t-51 195.5t-140 70.5
t-140 -70.5t-51 -195.5t51 -195t140 -70z" />
    <glyph glyph-name="uni1ED3" unicode="&#x1ed3;" horiz-adv-x="596" 
d="M211 677h-82l-100 116h135zM253 579h-121l120 116h96l120 -116h-121l-47 65zM298 526q117 0 186 -72.5t69 -194.5t-69 -194t-186 -72t-186 72t-69 194t69 194.5t186 72.5zM298 69q62 0 95.5 49.5t33.5 140.5q0 92 -33.5 141t-95.5 49t-95.5 -49t-33.5 -141
q0 -91 33.5 -140.5t95.5 -49.5z" />
    <glyph glyph-name="uni1ED4" unicode="&#x1ed4;" horiz-adv-x="720" 
d="M454 831q27 24 36.5 46.5t2.5 33.5t-30.5 7.5t-56.5 -25.5v76q50 34 88 28.5t61 -29t18.5 -63.5t-38.5 -74h-81zM362 803l-47 -65h-121l120 116h96l120 -116h-121zM360 693q146 0 231.5 -94.5t85.5 -256.5q0 -161 -85.5 -255.5t-231.5 -94.5t-231.5 94.5t-85.5 255.5
q0 162 85.5 256.5t231.5 94.5zM360 77q89 0 140 70t51 195t-51 195.5t-140 70.5t-140 -70.5t-51 -195.5t51 -195t140 -70z" />
    <glyph glyph-name="uni1ED5" unicode="&#x1ed5;" horiz-adv-x="596" 
d="M392 672q27 24 36.5 46.5t2.5 33.5t-30.5 7.5t-56.5 -25.5v76q50 34 88 28.5t61 -29t18.5 -63.5t-38.5 -74h-81zM300 644l-47 -65h-121l120 116h96l120 -116h-121zM298 526q117 0 186 -72.5t69 -194.5t-69 -194t-186 -72t-186 72t-69 194t69 194.5t186 72.5zM298 69
q62 0 95.5 49.5t33.5 140.5q0 92 -33.5 141t-95.5 49t-95.5 -49t-33.5 -141q0 -91 33.5 -140.5t95.5 -49.5z" />
    <glyph glyph-name="uni1ED6" unicode="&#x1ed6;" horiz-adv-x="720" 
d="M308 912q-33 0 -33 -34h-61q15 104 99 104q25 0 61.5 -19.5t51.5 -19.5q33 0 33 34h61q-15 -104 -99 -104q-25 0 -61 19.5t-52 19.5zM362 803l-47 -65h-121l120 116h96l120 -116h-121zM360 693q146 0 231.5 -94.5t85.5 -256.5q0 -161 -85.5 -255.5t-231.5 -94.5
t-231.5 94.5t-85.5 255.5q0 162 85.5 256.5t231.5 94.5zM360 77q89 0 140 70t51 195t-51 195.5t-140 70.5t-140 -70.5t-51 -195.5t51 -195t140 -70z" />
    <glyph glyph-name="uni1ED7" unicode="&#x1ed7;" horiz-adv-x="596" 
d="M246 753q-33 0 -33 -34h-61q15 104 99 104q25 0 61.5 -19.5t51.5 -19.5q33 0 33 34h61q-15 -104 -99 -104q-25 0 -61 19.5t-52 19.5zM300 644l-47 -65h-121l120 116h96l120 -116h-121zM298 526q117 0 186 -72.5t69 -194.5t-69 -194t-186 -72t-186 72t-69 194t69 194.5
t186 72.5zM298 69q62 0 95.5 49.5t33.5 140.5q0 92 -33.5 141t-95.5 49t-95.5 -49t-33.5 -141q0 -91 33.5 -140.5t95.5 -49.5z" />
    <glyph glyph-name="uni1ED8" unicode="&#x1ed8;" horiz-adv-x="720" 
d="M362 803l-47 -65h-121l120 116h96l120 -116h-121zM360 693q146 0 231.5 -94.5t85.5 -256.5q0 -161 -85.5 -255.5t-231.5 -94.5t-231.5 94.5t-85.5 255.5q0 162 85.5 256.5t231.5 94.5zM360 77q89 0 140 70t51 195t-51 195.5t-140 70.5t-140 -70.5t-51 -195.5t51 -195
t140 -70zM300 -172v115h119v-115h-119z" />
    <glyph glyph-name="uni1ED9" unicode="&#x1ed9;" horiz-adv-x="596" 
d="M300 644l-47 -65h-121l120 116h96l120 -116h-121zM298 526q117 0 186 -72.5t69 -194.5t-69 -194t-186 -72t-186 72t-69 194t69 194.5t186 72.5zM298 69q62 0 95.5 49.5t33.5 140.5q0 92 -33.5 141t-95.5 49t-95.5 -49t-33.5 -141q0 -91 33.5 -140.5t95.5 -49.5zM238 -172
v115h119v-115h-119z" />
    <glyph glyph-name="uni1EDA" unicode="&#x1eda;" horiz-adv-x="720" 
d="M489 854l-100 -116h-82l47 116h135zM583 607q94 -96 94 -265q0 -161 -85.5 -255.5t-231.5 -94.5t-231.5 94.5t-85.5 255.5q0 162 85.5 256.5t231.5 94.5q54 0 102 -14h39q44 0 56 11t12 41v38h81v-44q0 -23 -1.5 -38t-7.5 -33t-20.5 -29.5t-37.5 -17.5zM360 77
q89 0 140 70t51 195t-51 195.5t-140 70.5t-140 -70.5t-51 -195.5t51 -195t140 -70z" />
    <glyph glyph-name="uni1EDB" unicode="&#x1edb;" horiz-adv-x="596" 
d="M427 695l-100 -116h-82l47 116h135zM490 447q63 -71 63 -188q0 -122 -69 -194t-186 -72t-186 72t-69 194t69 194.5t186 72.5q53 0 95 -15q41 1 52 11.5t11 40.5v38h81v-44q0 -42 -8.5 -69t-38.5 -41zM298 69q62 0 95.5 49.5t33.5 140.5q0 92 -33.5 141t-95.5 49
t-95.5 -49t-33.5 -141q0 -91 33.5 -140.5t95.5 -49.5z" />
    <glyph glyph-name="uni1EDC" unicode="&#x1edc;" horiz-adv-x="720" 
d="M413 738h-82l-100 116h135zM583 607q94 -96 94 -265q0 -161 -85.5 -255.5t-231.5 -94.5t-231.5 94.5t-85.5 255.5q0 162 85.5 256.5t231.5 94.5q54 0 102 -14h39q44 0 56 11t12 41v38h81v-44q0 -23 -1.5 -38t-7.5 -33t-20.5 -29.5t-37.5 -17.5zM360 77q89 0 140 70
t51 195t-51 195.5t-140 70.5t-140 -70.5t-51 -195.5t51 -195t140 -70z" />
    <glyph glyph-name="uni1EDD" unicode="&#x1edd;" horiz-adv-x="596" 
d="M351 579h-82l-100 116h135zM490 447q63 -71 63 -188q0 -122 -69 -194t-186 -72t-186 72t-69 194t69 194.5t186 72.5q53 0 95 -15q41 1 52 11.5t11 40.5v38h81v-44q0 -42 -8.5 -69t-38.5 -41zM298 69q62 0 95.5 49.5t33.5 140.5q0 92 -33.5 141t-95.5 49t-95.5 -49
t-33.5 -141q0 -91 33.5 -140.5t95.5 -49.5z" />
    <glyph glyph-name="uni1EDE" unicode="&#x1ede;" horiz-adv-x="720" 
d="M315 738q27 24 36.5 46.5t2.5 33.5t-30.5 7.5t-56.5 -25.5v76q50 34 88 28.5t61 -29t18.5 -63.5t-38.5 -74h-81zM583 607q94 -96 94 -265q0 -161 -85.5 -255.5t-231.5 -94.5t-231.5 94.5t-85.5 255.5q0 162 85.5 256.5t231.5 94.5q54 0 102 -14h39q44 0 56 11t12 41v38
h81v-44q0 -23 -1.5 -38t-7.5 -33t-20.5 -29.5t-37.5 -17.5zM360 77q89 0 140 70t51 195t-51 195.5t-140 70.5t-140 -70.5t-51 -195.5t51 -195t140 -70z" />
    <glyph glyph-name="uni1EDF" unicode="&#x1edf;" horiz-adv-x="596" 
d="M253 579q27 24 36.5 46.5t2.5 33.5t-30.5 7.5t-56.5 -25.5v76q50 34 88 28.5t61 -29t18.5 -63.5t-38.5 -74h-81zM490 447q63 -71 63 -188q0 -122 -69 -194t-186 -72t-186 72t-69 194t69 194.5t186 72.5q53 0 95 -15q41 1 52 11.5t11 40.5v38h81v-44q0 -42 -8.5 -69
t-38.5 -41zM298 69q62 0 95.5 49.5t33.5 140.5q0 92 -33.5 141t-95.5 49t-95.5 -49t-33.5 -141q0 -91 33.5 -140.5t95.5 -49.5z" />
    <glyph glyph-name="uni1EE0" unicode="&#x1ee0;" horiz-adv-x="720" 
d="M301 781q-33 0 -33 -34h-61q15 104 99 104q25 0 61.5 -19.5t51.5 -19.5q33 0 33 34h61q-15 -104 -99 -104q-25 0 -61 19.5t-52 19.5zM583 607q94 -96 94 -265q0 -161 -85.5 -255.5t-231.5 -94.5t-231.5 94.5t-85.5 255.5q0 162 85.5 256.5t231.5 94.5q54 0 102 -14h39
q44 0 56 11t12 41v38h81v-44q0 -23 -1.5 -38t-7.5 -33t-20.5 -29.5t-37.5 -17.5zM360 77q89 0 140 70t51 195t-51 195.5t-140 70.5t-140 -70.5t-51 -195.5t51 -195t140 -70z" />
    <glyph glyph-name="uni1EE1" unicode="&#x1ee1;" horiz-adv-x="596" 
d="M239 622q-33 0 -33 -34h-61q15 104 99 104q25 0 61.5 -19.5t51.5 -19.5q33 0 33 34h61q-15 -104 -99 -104q-25 0 -61 19.5t-52 19.5zM490 447q63 -71 63 -188q0 -122 -69 -194t-186 -72t-186 72t-69 194t69 194.5t186 72.5q53 0 95 -15q41 1 52 11.5t11 40.5v38h81v-44
q0 -42 -8.5 -69t-38.5 -41zM298 69q62 0 95.5 49.5t33.5 140.5q0 92 -33.5 141t-95.5 49t-95.5 -49t-33.5 -141q0 -91 33.5 -140.5t95.5 -49.5z" />
    <glyph glyph-name="uni1EE2" unicode="&#x1ee2;" horiz-adv-x="720" 
d="M583 607q94 -96 94 -265q0 -161 -85.5 -255.5t-231.5 -94.5t-231.5 94.5t-85.5 255.5q0 162 85.5 256.5t231.5 94.5q54 0 102 -14h39q44 0 56 11t12 41v38h81v-44q0 -23 -1.5 -38t-7.5 -33t-20.5 -29.5t-37.5 -17.5zM360 77q89 0 140 70t51 195t-51 195.5t-140 70.5
t-140 -70.5t-51 -195.5t51 -195t140 -70zM300 -172v115h119v-115h-119z" />
    <glyph glyph-name="uni1EE3" unicode="&#x1ee3;" horiz-adv-x="596" 
d="M490 447q63 -71 63 -188q0 -122 -69 -194t-186 -72t-186 72t-69 194t69 194.5t186 72.5q53 0 95 -15q41 1 52 11.5t11 40.5v38h81v-44q0 -42 -8.5 -69t-38.5 -41zM298 69q62 0 95.5 49.5t33.5 140.5q0 92 -33.5 141t-95.5 49t-95.5 -49t-33.5 -141q0 -91 33.5 -140.5
t95.5 -49.5zM238 -172v115h119v-115h-119z" />
    <glyph glyph-name="uni1EE4" unicode="&#x1ee4;" horiz-adv-x="661" 
d="M473 679h120v-445q0 -124 -64 -183t-198 -59t-198.5 59t-64.5 183v445h120l1 -438q0 -86 32.5 -124.5t109.5 -38.5q76 0 108.5 39t32.5 124zM270 -172v115h119v-115h-119z" />
    <glyph glyph-name="uni1EE5" unicode="&#x1ee5;" horiz-adv-x="591" 
d="M399 511h119v-511h-119v106q-36 -114 -156 -114q-175 0 -175 173v346h119v-330q0 -107 99 -107q111 0 113 138v299zM235 -172v115h119v-115h-119z" />
    <glyph glyph-name="uni1EE6" unicode="&#x1ee6;" horiz-adv-x="661" 
d="M285 738q27 24 36.5 46.5t2.5 33.5t-30.5 7.5t-56.5 -25.5v76q50 34 88 28.5t61 -29t18.5 -63.5t-38.5 -74h-81zM473 679h120v-445q0 -124 -64 -183t-198 -59t-198.5 59t-64.5 183v445h120l1 -438q0 -86 32.5 -124.5t109.5 -38.5q76 0 108.5 39t32.5 124z" />
    <glyph glyph-name="uni1EE7" unicode="&#x1ee7;" horiz-adv-x="591" 
d="M250 579q27 24 36.5 46.5t2.5 33.5t-30.5 7.5t-56.5 -25.5v76q50 34 88 28.5t61 -29t18.5 -63.5t-38.5 -74h-81zM399 511h119v-511h-119v106q-36 -114 -156 -114q-175 0 -175 173v346h119v-330q0 -107 99 -107q111 0 113 138v299z" />
    <glyph glyph-name="uni1EE8" unicode="&#x1ee8;" horiz-adv-x="752" 
d="M459 854l-100 -116h-82l47 116h135zM661 769h81v-44q0 -31 -3.5 -49.5t-17 -39.5t-45.5 -29t-83 -4v-369q0 -124 -64 -183t-198 -59t-198.5 59t-64.5 183v445h120l1 -438q0 -86 32.5 -124.5t109.5 -38.5q76 0 108.5 39t32.5 124l1 438h120q44 0 56 11t12 41v38z" />
    <glyph glyph-name="uni1EE9" unicode="&#x1ee9;" horiz-adv-x="591" 
d="M424 695l-100 -116h-82l47 116h135zM586 601h81v-44q0 -31 -3.5 -49.5t-17 -39.5t-45.5 -29t-83 -4v-435h-119v106q-36 -114 -156 -114q-175 0 -175 173v346h119v-330q0 -107 99 -107q111 0 113 138v299h119q44 0 56 11t12 41v38z" />
    <glyph glyph-name="uni1EEA" unicode="&#x1eea;" horiz-adv-x="752" 
d="M383 738h-82l-100 116h135zM661 769h81v-44q0 -31 -3.5 -49.5t-17 -39.5t-45.5 -29t-83 -4v-369q0 -124 -64 -183t-198 -59t-198.5 59t-64.5 183v445h120l1 -438q0 -86 32.5 -124.5t109.5 -38.5q76 0 108.5 39t32.5 124l1 438h120q44 0 56 11t12 41v38z" />
    <glyph glyph-name="uni1EEB" unicode="&#x1eeb;" horiz-adv-x="591" 
d="M348 579h-82l-100 116h135zM586 601h81v-44q0 -31 -3.5 -49.5t-17 -39.5t-45.5 -29t-83 -4v-435h-119v106q-36 -114 -156 -114q-175 0 -175 173v346h119v-330q0 -107 99 -107q111 0 113 138v299h119q44 0 56 11t12 41v38z" />
    <glyph glyph-name="uni1EEC" unicode="&#x1eec;" horiz-adv-x="752" 
d="M285 738q27 24 36.5 46.5t2.5 33.5t-30.5 7.5t-56.5 -25.5v76q50 34 88 28.5t61 -29t18.5 -63.5t-38.5 -74h-81zM661 769h81v-44q0 -31 -3.5 -49.5t-17 -39.5t-45.5 -29t-83 -4v-369q0 -124 -64 -183t-198 -59t-198.5 59t-64.5 183v445h120l1 -438q0 -86 32.5 -124.5
t109.5 -38.5q76 0 108.5 39t32.5 124l1 438h120q44 0 56 11t12 41v38z" />
    <glyph glyph-name="uni1EED" unicode="&#x1eed;" horiz-adv-x="591" 
d="M250 579q27 24 36.5 46.5t2.5 33.5t-30.5 7.5t-56.5 -25.5v76q50 34 88 28.5t61 -29t18.5 -63.5t-38.5 -74h-81zM586 601h81v-44q0 -31 -3.5 -49.5t-17 -39.5t-45.5 -29t-83 -4v-435h-119v106q-36 -114 -156 -114q-175 0 -175 173v346h119v-330q0 -107 99 -107
q111 0 113 138v299h119q44 0 56 11t12 41v38z" />
    <glyph glyph-name="uni1EEE" unicode="&#x1eee;" horiz-adv-x="752" 
d="M271 781q-33 0 -33 -34h-61q15 104 99 104q25 0 61.5 -19.5t51.5 -19.5q33 0 33 34h61q-15 -104 -99 -104q-25 0 -61 19.5t-52 19.5zM661 769h81v-44q0 -31 -3.5 -49.5t-17 -39.5t-45.5 -29t-83 -4v-369q0 -124 -64 -183t-198 -59t-198.5 59t-64.5 183v445h120l1 -438
q0 -86 32.5 -124.5t109.5 -38.5q76 0 108.5 39t32.5 124l1 438h120q44 0 56 11t12 41v38z" />
    <glyph glyph-name="uni1EEF" unicode="&#x1eef;" horiz-adv-x="591" 
d="M236 622q-33 0 -33 -34h-61q15 104 99 104q25 0 61.5 -19.5t51.5 -19.5q33 0 33 34h61q-15 -104 -99 -104q-25 0 -61 19.5t-52 19.5zM586 601h81v-44q0 -31 -3.5 -49.5t-17 -39.5t-45.5 -29t-83 -4v-435h-119v106q-36 -114 -156 -114q-175 0 -175 173v346h119v-330
q0 -107 99 -107q111 0 113 138v299h119q44 0 56 11t12 41v38z" />
    <glyph glyph-name="uni1EF0" unicode="&#x1ef0;" horiz-adv-x="752" 
d="M661 769h81v-44q0 -31 -3.5 -49.5t-17 -39.5t-45.5 -29t-83 -4v-369q0 -124 -64 -183t-198 -59t-198.5 59t-64.5 183v445h120l1 -438q0 -86 32.5 -124.5t109.5 -38.5q76 0 108.5 39t32.5 124l1 438h120q44 0 56 11t12 41v38zM270 -172v115h119v-115h-119z" />
    <glyph glyph-name="uni1EF1" unicode="&#x1ef1;" horiz-adv-x="591" 
d="M586 601h81v-44q0 -31 -3.5 -49.5t-17 -39.5t-45.5 -29t-83 -4v-435h-119v106q-36 -114 -156 -114q-175 0 -175 173v346h119v-330q0 -107 99 -107q111 0 113 138v299h119q44 0 56 11t12 41v38zM235 -172v115h119v-115h-119z" />
    <glyph glyph-name="Ygrave" unicode="&#x1ef2;" horiz-adv-x="616" 
d="M361 738h-82l-100 116h135zM613 679l-244 -386v-293h-120v289l-246 390h136l172 -287l175 287h127z" />
    <glyph glyph-name="ygrave" unicode="&#x1ef3;" horiz-adv-x="537" 
d="M321 579h-82l-100 116h135zM396 510h118l-253 -660h-114l80 179l-204 482h121l108 -275q14 -35 27 -74z" />
    <glyph glyph-name="uni1EF4" unicode="&#x1ef4;" horiz-adv-x="616" 
d="M613 679l-244 -386v-293h-120v289l-246 390h136l172 -287l175 287h127zM248 -172v115h119v-115h-119z" />
    <glyph glyph-name="uni1EF5" unicode="&#x1ef5;" horiz-adv-x="537" 
d="M396 510h118l-253 -660h-114l80 179l-204 482h121l108 -275q14 -35 27 -74zM142 -306v115h119v-115h-119z" />
    <glyph glyph-name="uni1EF6" unicode="&#x1ef6;" horiz-adv-x="616" 
d="M263 738q27 24 36.5 46.5t2.5 33.5t-30.5 7.5t-56.5 -25.5v76q50 34 88 28.5t61 -29t18.5 -63.5t-38.5 -74h-81zM613 679l-244 -386v-293h-120v289l-246 390h136l172 -287l175 287h127z" />
    <glyph glyph-name="uni1EF7" unicode="&#x1ef7;" horiz-adv-x="537" 
d="M223 579q27 24 36.5 46.5t2.5 33.5t-30.5 7.5t-56.5 -25.5v76q50 34 88 28.5t61 -29t18.5 -63.5t-38.5 -74h-81zM396 510h118l-253 -660h-114l80 179l-204 482h121l108 -275q14 -35 27 -74z" />
    <glyph glyph-name="uni1EF8" unicode="&#x1ef8;" horiz-adv-x="616" 
d="M249 781q-33 0 -33 -34h-61q15 104 99 104q25 0 61.5 -19.5t51.5 -19.5q33 0 33 34h61q-15 -104 -99 -104q-25 0 -61 19.5t-52 19.5zM613 679l-244 -386v-293h-120v289l-246 390h136l172 -287l175 287h127z" />
    <glyph glyph-name="uni1EF9" unicode="&#x1ef9;" horiz-adv-x="537" 
d="M209 622q-33 0 -33 -34h-61q15 104 99 104q25 0 61.5 -19.5t51.5 -19.5q33 0 33 34h61q-15 -104 -99 -104q-25 0 -61 19.5t-52 19.5zM396 510h118l-253 -660h-114l80 179l-204 482h121l108 -275q14 -35 27 -74z" />
    <glyph glyph-name="endash" unicode="&#x2013;" horiz-adv-x="605" 
d="M74 239v85h457v-85h-457z" />
    <glyph glyph-name="emdash" unicode="&#x2014;" horiz-adv-x="905" 
d="M74 239v85h757v-85h-757z" />
    <glyph glyph-name="quoteleft" unicode="&#x2018;" horiz-adv-x="287" 
d="M214 611q-30 1 -43 -9.5t-13 -39.5v-36h52v-121h-137v157q0 60 38 89.5t103 27.5v-68z" />
    <glyph glyph-name="quoteright" unicode="&#x2019;" horiz-adv-x="287" 
d="M77 679h137v-157q0 -60 -38 -89.5t-103 -27.5v68q30 -1 43 9.5t13 39.5v36h-52v121z" />
    <glyph glyph-name="quotesinglbase" unicode="&#x201a;" horiz-adv-x="287" 
d="M77 113h137v-157q0 -60 -38 -89.5t-103 -27.5v68q30 -1 43 9.5t13 39.5v36h-52v121z" />
    <glyph glyph-name="quotedblleft" unicode="&#x201c;" horiz-adv-x="501" 
d="M73 561q0 60 38 89.5t103 27.5v-68q-30 1 -43 -9.5t-13 -39.5v-36h52v-121h-137v157zM428 610q-30 1 -43 -9.5t-13 -39.5v-36h52v-121h-137v157q0 60 38 89.5t103 27.5v-68z" />
    <glyph glyph-name="quotedblright" unicode="&#x201d;" horiz-adv-x="501" 
d="M77 558v121h137v-157q0 -60 -38 -89.5t-103 -27.5v68q30 -1 43 9.5t13 39.5v36h-52zM291 679h137v-157q0 -60 -38 -89.5t-103 -27.5v68q30 -1 43 9.5t13 39.5v36h-52v121z" />
    <glyph glyph-name="quotedblbase" unicode="&#x201e;" horiz-adv-x="502" 
d="M77 -8v121h137v-157q0 -60 -38 -89.5t-103 -27.5v68q30 -1 43 9.5t13 39.5v36h-52zM292 113h137v-157q0 -60 -38 -89.5t-103 -27.5v68q30 -1 43 9.5t13 39.5v36h-52v121z" />
    <glyph glyph-name="dagger" unicode="&#x2020;" horiz-adv-x="553" 
d="M480 567v-85h-144v-246h-118v246h-145v85h145v126h118v-126h144z" />
    <glyph glyph-name="daggerdbl" unicode="&#x2021;" horiz-adv-x="553" 
d="M480 512h-144v-85h144v-85h-144v-106h-118v106h-145v85h145v85h-145v85h145v96h118v-96h144v-85z" />
    <glyph glyph-name="bullet" unicode="&#x2022;" horiz-adv-x="447" 
d="M224 130q-62 0 -105.5 43.5t-43.5 105.5t43.5 105t105.5 43t105 -43.5t43 -104.5q0 -62 -43 -105.5t-105 -43.5z" />
    <glyph glyph-name="ellipsis" unicode="&#x2026;" horiz-adv-x="683" 
d="M73 -10v131h131v-131h-131zM276 -10v131h131v-131h-131zM479 -10v131h131v-131h-131z" />
    <glyph glyph-name="perthousand" unicode="&#x2030;" horiz-adv-x="1509" 
d="M245 275q-80 0 -134.5 60t-54.5 149t54.5 148.5t134.5 59.5q81 0 134.5 -59.5t53.5 -148.5q0 -90 -53.5 -149.5t-134.5 -59.5zM281 -8l412 699h97l-412 -699h-97zM246 349q80 0 80 135t-80 135q-81 0 -81 -135t81 -135zM828 -8q-80 0 -134.5 60t-54.5 149t54.5 148.5
t134.5 59.5q81 0 134.5 -59.5t53.5 -148.5q0 -90 -53.5 -149.5t-134.5 -59.5zM1265 -8q-80 0 -134.5 60t-54.5 149t54.5 148.5t134.5 59.5q81 0 134.5 -59.5t53.5 -148.5q0 -90 -53.5 -149.5t-134.5 -59.5zM829 66q80 0 80 135t-80 135q-81 0 -81 -135t81 -135zM1266 66
q80 0 80 135t-80 135q-81 0 -81 -135t81 -135z" />
    <glyph glyph-name="guilsinglleft" unicode="&#x2039;" horiz-adv-x="391" 
d="M336 451l-166 -188l166 -188h-110l-170 188h-1l173 188h108z" />
    <glyph glyph-name="guilsinglright" unicode="&#x203a;" horiz-adv-x="391" 
d="M163 451l173 -188h-1l-170 -188h-110l166 188l-166 188h108z" />
    <glyph glyph-name="fraction" unicode="&#x2044;" horiz-adv-x="600" 
d="M74 301v52h452v-52h-452z" />
    <glyph glyph-name="uni20A9" unicode="&#x20a9;" horiz-adv-x="1093" 
d="M1020 679l-60 -217h60v-75h-81l-24 -85h105v-75h-126l-63 -227h-171l-48 227h-131l-48 -227h-171l-63 227h-126v75h105l-24 85h-81v75h60l-60 217h118l57 -217h175l44 217h159l44 -217h175l57 217h118zM547 602q-11 -87 -19 -140h37q-10 68 -18 140zM267 387l22 -85h102
l17 85h-141zM497 302h99l-18 85h-63zM804 302l22 85h-141l17 -85h102zM374 218l2 9h-67l2 -8q4 -17 12.5 -48t15 -56.5t11.5 -48.5q6 60 24 152zM783 222l1 5h-67l1 -6q15 -73 25 -156q6 31 21.5 88.5t18.5 68.5z" />
    <glyph glyph-name="Euro" unicode="&#x20ac;" horiz-adv-x="650" 
d="M407 78q102 0 120 108l94 -56q-56 -138 -214 -138q-103 0 -171 58t-92 167h-89v85h78q-1 13 -1 40q0 24 1 35h-78v85h89q25 110 94.5 170.5t170.5 60.5q76 0 131 -30.5t81 -85.5l-95 -51q-21 81 -117 81q-53 0 -89 -36.5t-52 -108.5h291l-30 -85h-272q-1 -11 -1 -35
q0 -27 1 -40h257l-30 -85h-217q30 -139 140 -139z" />
    <glyph glyph-name="uni20B9" unicode="&#x20b9;" horiz-adv-x="582" 
d="M547 679v-85h-133q47 -36 58 -97h75v-85h-75q-23 -151 -211 -166l240 -246h-142l-306 316h158q125 0 147 96h-305v85h305q-18 97 -138 97h-167v85h494z" />
    <glyph glyph-name="uni20BA" unicode="&#x20ba;" horiz-adv-x="673" 
d="M540 341l93 -70q0 -271 -362 -271h-120v228l-96 -41v87l96 41v73l-96 -41v87l96 41v204h120v-153l166 70v-87l-166 -70v-73l166 70v-87l-166 -70v-193q147 0 208 59t61 196z" />
    <glyph glyph-name="uni20BD" unicode="&#x20bd;" horiz-adv-x="691" 
d="M424 295h-161v-75h216v-85h-216v-135h-120v135h-88v85h88v75h-88v85h88v299h281q116 0 177 -49t61 -143t-61 -143t-177 -49zM263 594v-214h154q57 0 92 26t35 81t-35 81t-92 26h-154z" />
    <glyph glyph-name="uni20BF" unicode="&#x20bf;" horiz-adv-x="632" 
d="M583 183q0 -66 -40.5 -110t-113.5 -62v-98h-88v87h-14h-58v-87h-88v87h-108v679h108v93h88v-93h58h14v93h88v-104q136 -35 136 -172q0 -129 -137 -150q73 -13 114 -55.5t41 -107.5zM443 491q0 103 -123 103h-126v-208h126q123 0 123 105zM320 85q137 0 137 108t-137 108
h-126v-216h126z" />
    <glyph glyph-name="uni2116" unicode="&#x2116;" horiz-adv-x="1121" 
d="M901 398q-61 0 -104.5 43t-43.5 105q0 61 43.5 104t104.5 43t104 -43t43 -104t-43 -104.5t-104 -43.5zM542 96v583h112v-679h-178l-233 446q-24 47 -58 141v-587h-112v679h178l225 -432q32 -62 66 -151zM901 610q-27 0 -45 -18t-18 -46t18.5 -47t44.5 -19t44 19t18 47
q0 27 -18 45.5t-44 18.5zM766 237v85h278v-85h-278z" />
    <glyph glyph-name="trademark" unicode="&#x2122;" horiz-adv-x="847" 
d="M43 629v53h317v-53h-119v-274h-77v274h-121zM804 682v-327h-72v256l-86 -256h-90l-87 259v-259h-72v327h115l89 -272l89 272h114z" />
    <glyph glyph-name="arrowleft" unicode="&#x2190;" horiz-adv-x="667" 
d="M597 348l-1 -94h-395l160 -140l2 -142l-293 282l1 94l279 271l1 -130l-160 -141h406z" />
    <glyph glyph-name="arrowup" unicode="&#x2191;" horiz-adv-x="786" 
d="M716 329h-130l-136 159v-396h-106v383l-132 -154h-142l274 283h106z" />
    <glyph glyph-name="arrowright" unicode="&#x2192;" horiz-adv-x="666" 
d="M305 612l291 -282v-95l-280 -272v132l158 140l-404 1v94h394l-159 139v143z" />
    <glyph glyph-name="arrowdown" unicode="&#x2193;" horiz-adv-x="786" 
d="M574 327h142l-274 -282l-106 -2l-266 275h130l136 -151v389l106 1v-379z" />
    <glyph glyph-name="arrowboth" unicode="&#x2194;" horiz-adv-x="959" 
d="M597 -28l1 142l160 140h-557l160 -140l1 -142l-292 282l1 94l278 271l2 -130l-160 -141h568l-162 140l2 141l289 -281l1 -94z" />
    <glyph glyph-name="arrowupdn" unicode="&#x2195;" horiz-adv-x="794" 
d="M450 122l136 151h130l-266 -274l-106 -2l-274 283h142l132 -148v424l-132 -150h-142l274 283l106 -2l274 -282h-142l-132 150v-433z" />
    <glyph glyph-name="uni2196" unicode="&#x2196;" horiz-adv-x="597" 
d="M430 437h-205l282 -283l-70 -71l-285 285v-224l-82 -93v399l70 72h387z" />
    <glyph glyph-name="uni2197" unicode="&#x2197;" horiz-adv-x="611" 
d="M469 520l72 -70v-387l-85 97v205l-283 -282l-71 70l285 285h-224l-93 82h399z" />
    <glyph glyph-name="uni2198" unicode="&#x2198;" horiz-adv-x="597" 
d="M445 447l82 93v-399l-70 -72h-387l97 85h205l-282 283l70 71l285 -285v224z" />
    <glyph glyph-name="uni2199" unicode="&#x2199;" horiz-adv-x="611" 
d="M448 153l93 -82h-399l-72 70v387l85 -97v-205l283 282l71 -70l-285 -285h224z" />
    <glyph glyph-name="partialdiff" unicode="&#x2202;" horiz-adv-x="574" 
d="M277 684q126 -36 194.5 -131t57.5 -255q-10 -143 -79 -224t-191 -81q-106 0 -164 66.5t-51 170.5q8 104 72 171t160 67q122 0 155 -118q4 34 -3.5 71t-29 80t-70 82.5t-118.5 66.5zM405 230q5 72 -24.5 117.5t-80.5 45.5t-87.5 -45.5t-41.5 -117.5t24.5 -116.5
t81.5 -44.5q59 0 91 43t37 118z" />
    <glyph glyph-name="emptyset" unicode="&#x2205;" horiz-adv-x="694" 
d="M575 486q76 -84 76 -196q0 -124 -89 -211t-215 -87q-93 0 -171 51l-47 -52l-55 50l46 51q-77 83 -77 198q0 123 89 210t215 87q93 0 171 -51l50 55l57 -49zM135 290q0 -74 42 -134l287 320q-52 36 -117 36q-87 0 -149.5 -65.5t-62.5 -156.5zM347 67q89 0 150.5 64.5
t61.5 158.5q0 75 -41 133l-288 -320q52 -36 117 -36z" />
    <glyph glyph-name="product" unicode="&#x220f;" horiz-adv-x="796" 
d="M723 679v-85h-130v-694h-118v694h-154v-694h-118v694h-130v85h650z" />
    <glyph glyph-name="summation" unicode="&#x2211;" horiz-adv-x="612" 
d="M539 679v-85h-290l187 -290l-191 -319h294v-85h-466l242 404l-242 375h466z" />
    <glyph glyph-name="minus" unicode="&#x2212;" horiz-adv-x="505" 
d="M74 239v85h357v-85h-357z" />
    <glyph glyph-name="radical" unicode="&#x221a;" horiz-adv-x="594" 
d="M594 679v-70h-100l-203 -709h-135l-143 404h106l99 -314l179 689h197z" />
    <glyph glyph-name="infinity" unicode="&#x221e;" horiz-adv-x="964" 
d="M678 449q91 0 151.5 -58t60.5 -146t-60.5 -146t-151.5 -58q-114 0 -196 124q-82 -124 -196 -124q-91 0 -151.5 58t-60.5 146t60.5 146t151.5 58q114 0 196 -124q82 124 196 124zM287 117q50 0 86 30.5t72 97.5q-36 67 -72 97.5t-86 30.5q-49 0 -82 -36.5t-33 -91.5
t33 -91.5t82 -36.5zM677 117q49 0 82 36.5t33 91.5t-33 91.5t-82 36.5q-50 0 -86.5 -30.5t-72.5 -97.5q36 -67 72.5 -97.5t86.5 -30.5z" />
    <glyph glyph-name="integral" unicode="&#x222b;" horiz-adv-x="546" 
d="M424 685q43 0 67 -18l-18 -104q-20 22 -45 22q-39 0 -50 -56l-96 -554q-12 -66 -48.5 -98.5t-111.5 -32.5q-43 0 -67 18l18 104q20 -22 45 -22q39 0 50 56l94 544q24 141 162 141z" />
    <glyph glyph-name="approxequal" unicode="&#x2248;" horiz-adv-x="593" 
d="M392 261q-35 0 -72.5 23.5t-67 46.5t-45.5 23q-25 0 -34.5 -18.5t-9.5 -57.5h-89q0 164 127 164q35 0 73.5 -23t68.5 -46.5t45 -23.5q25 0 35 18.5t10 58.5h86q0 -165 -127 -165zM392 44q-35 0 -72.5 23t-67 46.5t-45.5 23.5q-25 0 -34.5 -18.5t-9.5 -57.5h-89
q0 164 127 164q35 0 73.5 -23.5t68.5 -46.5t45 -23q25 0 35 18.5t10 58.5h86q0 -165 -127 -165z" />
    <glyph glyph-name="notequal" unicode="&#x2260;" horiz-adv-x="600" 
d="M551 334h-174l-25 -105h199v-85h-218l-27 -114h-99l27 114h-160v85h179l25 105h-204v85h224l22 96h99l-22 -96h154v-85z" />
    <glyph glyph-name="lessequal" unicode="&#x2264;" horiz-adv-x="565" 
d="M491 510v-90l-320 -101l320 -94v-90l-417 140v85zM74 0v85h417v-85h-417z" />
    <glyph glyph-name="greaterequal" unicode="&#x2265;" horiz-adv-x="565" 
d="M74 510l417 -150v-85l-417 -140v90l320 94l-320 101v90zM74 0v85h417v-85h-417z" />
    <glyph glyph-name="lozenge" unicode="&#x25ca;" horiz-adv-x="616" 
d="M354 679l189 -339l-189 -340h-88l-193 340l193 339h88zM309 109l129 231l-129 230l-132 -230z" />
    <glyph glyph-name="Q.ss01" horiz-adv-x="732" 
d="M633 14l59 -76q-21 -41 -69.5 -67.5t-114.5 -26.5q-81 0 -126.5 41t-56.5 109q-131 11 -206.5 104t-75.5 244q0 162 85.5 256.5t231.5 94.5t231.5 -94.5t85.5 -256.5q0 -140 -65.5 -230.5t-181.5 -113.5q9 -31 32 -49.5t51 -18.5q39 0 66.5 18.5t53.5 65.5zM169 342
q0 -125 51 -195t140 -70t140 70t51 195t-51 195.5t-140 70.5t-140 -70.5t-51 -195.5z" />
    <glyph glyph-name="R.ss01" horiz-adv-x="670" 
d="M492 0l-200 295h-99v-295h-120v679h291q116 0 177 -49t61 -143q0 -77 -48 -125t-132 -62l213 -300h-143zM193 594v-214h155q136 0 136 107t-127 107h-164z" />
    <glyph glyph-name="Racute.ss01" horiz-adv-x="670" 
d="M463 844l-100 -116h-82l47 116h135zM492 0l-200 295h-99v-295h-120v679h291q116 0 177 -49t61 -143q0 -77 -48 -125t-132 -62l213 -300h-143zM193 594v-214h155q136 0 136 107t-127 107h-164z" />
    <glyph glyph-name="Rcaron.ss01" horiz-adv-x="670" 
d="M288 728l-120 116h121l47 -65l47 65h121l-120 -116h-96zM492 0l-200 295h-99v-295h-120v679h291q116 0 177 -49t61 -143q0 -77 -48 -125t-132 -62l213 -300h-143zM193 594v-214h155q136 0 136 107t-127 107h-164z" />
    <glyph glyph-name="uni0156.ss01" horiz-adv-x="670" 
d="M422 300l213 -300h-143l-200 295h-99v-295h-120v679h291q116 0 177 -49t61 -143q0 -77 -48 -125t-132 -62zM193 594v-214h155q136 0 136 107t-127 107h-164zM229 -142l47 116h135l-100 -116h-82z" />
    <glyph glyph-name="i.loclTRK" horiz-adv-x="266" 
d="M73 569v115h119v-115h-119zM74 0v511h118v-511h-118z" />
    <glyph glyph-name="a.002" horiz-adv-x="549" 
d="M463 304l-2 -1v-303h-99v99q-15 -47 -53.5 -76.5t-95.5 -29.5q-80 0 -125 40.5t-45 109.5q0 128 189 164l129 24v19q0 98 -99 98q-53 0 -86 -28.5t-35 -83.5l-98 44q7 65 71 105.5t155 40.5q192 0 192 -172v-50h2zM363 195v83l-106 -28q-87 -23 -87 -100q0 -81 84 -81
q47 0 78 35.5t31 90.5z" />
    <glyph glyph-name="y.ss01" horiz-adv-x="525" 
d="M382 511h120l-210 -559q-22 -60 -51.5 -84t-84.5 -24q-44 0 -79 16v104q29 -23 62 -23q24 0 38 11.5t27 43.5l21 49l-202 466h121l108 -275q11 -27 21 -56z" />
    <glyph glyph-name="yacute.ss01" horiz-adv-x="525" 
d="M401 685l-100 -116h-82l47 116h135zM382 511h120l-210 -559q-22 -60 -51.5 -84t-84.5 -24q-44 0 -79 16v104q29 -23 62 -23q24 0 38 11.5t27 43.5l21 49l-202 466h121l108 -275q11 -27 21 -56z" />
    <glyph glyph-name="ycircumflex.ss01" horiz-adv-x="525" 
d="M274 634l-47 -65h-121l120 116h96l120 -116h-121zM382 511h120l-210 -559q-22 -60 -51.5 -84t-84.5 -24q-44 0 -79 16v104q29 -23 62 -23q24 0 38 11.5t27 43.5l21 49l-202 466h121l108 -275q11 -27 21 -56z" />
    <glyph glyph-name="ydieresis.ss01" horiz-adv-x="525" 
d="M241 674v-105h-119v105h119zM420 674v-105h-119v105h119zM382 511h120l-210 -559q-22 -60 -51.5 -84t-84.5 -24q-44 0 -79 16v104q29 -23 62 -23q24 0 38 11.5t27 43.5l21 49l-202 466h121l108 -275q11 -27 21 -56z" />
    <glyph glyph-name="uni1EF5.ss01" horiz-adv-x="525" 
d="M382 511h120l-210 -559q-22 -60 -51.5 -84t-84.5 -24q-44 0 -79 16v104q29 -23 62 -23q24 0 38 11.5t27 43.5l21 49l-202 466h121l108 -275q11 -27 21 -56zM142 -306v115h119v-115h-119z" />
    <glyph glyph-name="ygrave.ss01" horiz-adv-x="525" 
d="M325 569h-82l-100 116h135zM382 511h120l-210 -559q-22 -60 -51.5 -84t-84.5 -24q-44 0 -79 16v104q29 -23 62 -23q24 0 38 11.5t27 43.5l21 49l-202 466h121l108 -275q11 -27 21 -56z" />
    <glyph glyph-name="uni1EF7.ss01" horiz-adv-x="525" 
d="M227 569q27 24 36.5 46.5t2.5 33.5t-30.5 7.5t-56.5 -25.5v76q50 34 88 28.5t61 -29t18.5 -63.5t-38.5 -74h-81zM382 511h120l-210 -559q-22 -60 -51.5 -84t-84.5 -24q-44 0 -79 16v104q29 -23 62 -23q24 0 38 11.5t27 43.5l21 49l-202 466h121l108 -275q11 -27 21 -56z
" />
    <glyph glyph-name="uni1EF9.ss01" horiz-adv-x="525" 
d="M213 612q-33 0 -33 -34h-61q15 104 99 104q25 0 61.5 -19.5t51.5 -19.5q33 0 33 34h61q-15 -104 -99 -104q-25 0 -61 19.5t-52 19.5zM382 511h120l-210 -559q-22 -60 -51.5 -84t-84.5 -24q-44 0 -79 16v104q29 -23 62 -23q24 0 38 11.5t27 43.5l21 49l-202 466h121
l108 -275q11 -27 21 -56z" />
    <glyph glyph-name="I_J" horiz-adv-x="627" 
d="M440 679h119v-465q0 -112 -59.5 -167t-186.5 -55q-240 0 -240 209h122q0 -69 28.5 -96t103.5 -27q64 0 88.5 34t24.5 115v452zM195 679v-410h-120v410h120z" />
    <glyph glyph-name="zero.tf" horiz-adv-x="640" 
d="M328 -8q-129 0 -208.5 96.5t-79.5 254.5q0 157 80 253.5t208 96.5t207.5 -96.5t79.5 -253.5t-79.5 -254t-207.5 -97zM328 78q72 0 117.5 72t45.5 193t-45.5 192.5t-117.5 71.5t-118 -72t-46 -192q0 -121 46 -193t118 -72z" />
    <glyph glyph-name="one.tf" horiz-adv-x="640" 
d="M429 86h152v-86h-443v86h173v466q-84 -88 -179 -125l-40 93q67 28 114 64t104 95h119v-593z" />
    <glyph glyph-name="two.tf" horiz-adv-x="640" 
d="M205 79l-1 -1h384v-86h-507q-2 33 2.5 63t11 51t24.5 43.5t28 34.5t37.5 30t37 24t42.5 23.5t39 20.5q94 52 127.5 89t33.5 94q0 141 -131 141q-70 0 -114.5 -49t-38.5 -132l-112 43q-4 98 73.5 161t196.5 63q118 0 184 -56.5t66 -159.5q0 -48 -14.5 -87t-44 -69.5
t-60 -52t-77.5 -47.5q-9 -5 -45 -24t-53 -29t-41.5 -27t-35.5 -32t-12 -29z" />
    <glyph glyph-name="three.tf" horiz-adv-x="640" 
d="M417 349q87 -8 134 -49.5t47 -113.5q0 -89 -75.5 -141t-195.5 -52t-197.5 61t-73.5 162l108 37q-5 -80 42.5 -127t120.5 -47q145 0 145 117q0 110 -157 110h-79v80h64q80 0 118 26t38 82q0 54 -33.5 82t-91.5 28q-65 0 -109 -42t-39 -115l-110 57q1 84 77.5 135.5
t180.5 51.5q115 0 182 -50.5t67 -137.5q0 -68 -42.5 -107.5t-120.5 -46.5z" />
    <glyph glyph-name="four.tf" horiz-adv-x="640" 
d="M612 259v-85h-101v-174h-122v174h-337v85l301 420h158v-420h101zM174 259h215v192q0 63 6 128q-37 -62 -70 -109z" />
    <glyph glyph-name="five.tf" horiz-adv-x="640" 
d="M343 457q109 0 176.5 -63t67.5 -170q0 -102 -68 -167t-190 -65q-108 0 -175 46.5t-87 130.5l107 44q-1 -63 41.5 -99t112.5 -36q135 0 135 146q0 70 -36 112t-105 42q-49 0 -89 -23.5t-59 -59.5l-104 36l79 348h393v-85h-299l-41 -177q62 40 141 40z" />
    <glyph glyph-name="six.tf" horiz-adv-x="640" 
d="M362 452q100 0 163 -64.5t63 -164.5q0 -99 -72.5 -163.5t-185.5 -64.5q-131 0 -201 85t-70 240q0 183 78.5 278t217.5 95q91 0 157.5 -43t82.5 -118l-106 -38q-27 113 -138 113q-79 0 -129.5 -70t-50.5 -197q23 47 71 79.5t120 32.5zM330 81q62 0 99 38.5t37 103.5
q0 68 -34.5 106t-96.5 38t-104.5 -41.5t-42.5 -102.5q0 -58 42.5 -100t99.5 -42z" />
    <glyph glyph-name="seven.tf" horiz-adv-x="640" 
d="M52 679h520v-86q-145 -123 -222.5 -279.5t-58.5 -313.5h-139q-4 305 313 593h-413v86z" />
    <glyph glyph-name="eight.tf" horiz-adv-x="640" 
d="M424 355q72 -8 123.5 -55t51.5 -114q0 -90 -76 -142t-196 -52t-196 52t-76 142q0 67 51.5 114t123.5 55q-65 12 -106.5 53.5t-41.5 101.5q0 83 70.5 133t174.5 50t174.5 -50t70.5 -133q0 -60 -41.5 -101.5t-106.5 -53.5zM327 606q-57 0 -91 -27t-34 -77q0 -53 34 -81.5
t91 -28.5t91 28.5t34 81.5q0 50 -34 77t-91 27zM327 79q65 0 106.5 32t41.5 85q0 52 -41.5 84t-106.5 32t-106.5 -32t-41.5 -84q0 -53 41.5 -85t106.5 -32z" />
    <glyph glyph-name="nine.tf" horiz-adv-x="640" 
d="M327 690q125 0 196.5 -85t71.5 -240q0 -187 -66.5 -280t-213.5 -93q-101 0 -170.5 44.5t-85.5 123.5l106 35q6 -57 48 -87t102 -30q86 0 128.5 61t44.5 203q-23 -46 -71.5 -77.5t-118.5 -31.5q-101 0 -166 63t-65 166q0 100 72 164t188 64zM325 318q61 0 101.5 41
t40.5 103q0 61 -36.5 101.5t-95.5 40.5q-65 0 -105.5 -39t-40.5 -103q0 -63 38.5 -103.5t97.5 -40.5z" />
    <glyph glyph-name="one.dnom" horiz-adv-x="426" 
d="M266 54h60v-54h-205v54h67v153q-27 -38 -63 -48l-25 57q66 22 86 67h80v-229z" />
    <glyph glyph-name="two.dnom" horiz-adv-x="437" 
d="M176 56h161v-56h-234q-3 12 -3 22.5t1.5 19t6.5 17.5t9 15t12.5 13t13.5 11.5t15.5 10.5t15 8.5t15.5 8t14 7.5q34 18 43.5 33t9.5 34q0 17 -10.5 26t-24.5 9q-21 0 -33.5 -20.5t-2.5 -56.5l-80 31q-5 45 32 73.5t89 28.5q50 0 80 -24.5t30 -67.5q0 -37 -21.5 -61.5
t-62.5 -47.5q-46 -23 -76 -34z" />
    <glyph glyph-name="three.dnom" horiz-adv-x="431" 
d="M256 140q75 -11 75 -71q0 -35 -31.5 -55.5t-79.5 -20.5q-50 0 -84.5 24t-35.5 61l66 18q0 -23 13.5 -34.5t32.5 -11.5q39 0 39 31q0 17 -10 24.5t-33 7.5h-31v52h25q25 0 34 7t9 24q0 29 -33 29q-15 0 -26.5 -10.5t-12.5 -28.5l-65 24q10 34 42.5 53t71.5 19
q46 0 74 -19.5t28 -54.5q0 -57 -68 -68z" />
    <glyph glyph-name="four.dnom" horiz-adv-x="461" 
d="M361 104v-44h-47v-67h-77v67h-137v44l127 177h87v-177h47zM168 104h69v62q0 22 3 48q-22 -45 -37 -62z" />
    <glyph glyph-name="one.numr" horiz-adv-x="426" 
d="M266 463h60v-54h-205v54h67v153q-27 -38 -63 -48l-25 57q66 22 86 67h80v-229z" />
    <glyph glyph-name="two.numr" horiz-adv-x="437" 
d="M176 469h161v-56h-234q-3 12 -3 22.5t2 19t6.5 17t9 15t12 13.5t13.5 11.5t15.5 10t15 8.5t15.5 8.5t14 7.5q34 18 43.5 33t9.5 34q0 17 -10.5 26t-24.5 9q-21 0 -33.5 -20.5t-2.5 -56.5l-80 31q-5 45 32 73.5t89 28.5q50 0 80 -24.5t30 -67.5q0 -37 -21.5 -61.5
t-62.5 -47.5q-46 -23 -76 -34z" />
    <glyph glyph-name="three.numr" horiz-adv-x="431" 
d="M256 561q75 -11 75 -71q0 -35 -31.5 -55.5t-79.5 -20.5q-50 0 -84.5 24t-35.5 61l66 18q0 -23 13.5 -34.5t32.5 -11.5q39 0 39 31q0 17 -10 24.5t-33 7.5h-31v52h25q25 0 34 7t9 24q0 29 -33 29q-15 0 -26.5 -10.5t-12.5 -28.5l-65 24q10 34 42.5 53t71.5 19
q46 0 74 -19.5t28 -54.5q0 -57 -68 -68z" />
    <glyph glyph-name="four.numr" horiz-adv-x="471" 
d="M361 515v-44h-47v-67h-77v67h-137v44l127 177h87v-177h47zM168 515h69v62q0 23 3 48q-22 -45 -37 -62z" />
    <glyph glyph-name="Euro.001" horiz-adv-x="656" 
d="M606 143l35 -89q-71 -62 -195 -62q-115 0 -193 58.5t-106 166.5h-92v85h78q-1 13 -1 40q0 24 1 35h-78v85h91q27 110 103 170.5t187 60.5q118 0 195 -62l-35 -89q-59 65 -160 65q-62 0 -106 -36.5t-64 -108.5h293l-30 -85h-276q-1 -11 -1 -35q0 -27 1 -40h261l-30 -85
h-216q41 -139 178 -139q114 0 160 65z" />
    <glyph glyph-name="ampersand.ss01" horiz-adv-x="629" 
d="M616 209q0 -101 -110 -156l110 -159h-132l-75 111q-59 -13 -123 -13q-130 0 -193.5 49.5t-63.5 129.5q0 56 42 101t111 71q-7 10 -21.5 32.5t-20.5 32t-15.5 27.5t-13.5 29.5t-7.5 26.5t-3.5 30q0 72 47.5 114.5t140.5 42.5q86 0 136 -44.5t50 -113.5q0 -108 -137 -149
q142 -4 210.5 -47t68.5 -115zM293 598q-75 0 -75 -75q0 -23 9.5 -48.5t18 -39t31.5 -46.5q94 53 94 133q0 32 -20.5 54t-57.5 22zM515 202q0 119 -195 127l145 -213q50 34 50 86zM157 180q0 -108 145 -108q31 0 58 3l-140 211q-63 -39 -63 -106z" />
    <glyph glyph-name="uni031B.001" 
d="M-223 569l-61 76h61q44 0 56 11t12 41v38h81v-44q0 -31 -3.5 -49.5t-17 -39.5t-45.5 -29t-83 -4z" />
    <glyph glyph-name="uni031B.001.002" 
d="M-223 569l-122 19l3 57h119q44 0 56 11t12 41v38h81v-44q0 -31 -3.5 -49.5t-17 -39.5t-45.5 -29t-83 -4z" />
    <glyph glyph-name="uni03060301" 
d="M-239 821h135l-100 -116h-82zM-185 700h111q-9 -61 -46 -96t-122 -35t-122 35t-46 96h111q0 -65 57 -65q28 0 42.5 17.5t14.5 47.5z" />
    <glyph glyph-name="uni03060300" 
d="M-245 821l47 -116h-82l-100 116h135zM-185 700h111q-9 -61 -46 -96t-122 -35t-122 35t-46 96h111q0 -65 57 -65q28 0 42.5 17.5t14.5 47.5z" />
    <glyph glyph-name="uni03060309" 
d="M-344 840q50 34 88 28.5t61 -29t18.5 -63.5t-38.5 -74h-81q27 24 36.5 46.5t2.5 33.5t-30.5 7.5t-56.5 -25.5v76zM-185 700h111q-9 -61 -46 -96t-122 -35t-122 35t-46 96h111q0 -65 57 -65q28 0 42.5 17.5t14.5 47.5z" />
    <glyph glyph-name="uni03060303" 
d="M-182 740q-25 0 -61 19.5t-52 19.5q-33 0 -33 -34h-61q15 104 99 104q25 0 61.5 -19.5t51.5 -19.5q33 0 33 34h61q-15 -104 -99 -104zM-185 700h111q-9 -61 -46 -96t-122 -35t-122 35t-46 96h111q0 -65 57 -65q28 0 42.5 17.5t14.5 47.5z" />
    <glyph glyph-name="uni03020301" 
d="M-209 783h135l-100 -116h-82zM-307 685l120 -116h-121l-47 65l-47 -65h-121l120 116h96z" />
    <glyph glyph-name="uni03020300" 
d="M-378 783l47 -116h-82l-100 116h135zM-74 569h-121l-47 65l-47 -65h-121l120 116h96z" />
    <glyph glyph-name="uni03020309" 
d="M-242 800q50 34 88 28.5t61 -29t18.5 -63.5t-38.5 -74h-81q27 24 36.5 46.5t2.5 33.5t-30.5 7.5t-56.5 -25.5v76zM-238 685l120 -116h-121l-47 65l-47 -65h-121l120 116h96z" />
    <glyph glyph-name="uni03020303" 
d="M-296 743q-33 0 -33 -34h-61q15 104 99 104q25 0 61.5 -19.5t51.5 -19.5q33 0 33 34h61q-15 -104 -99 -104q-25 0 -61 19.5t-52 19.5zM-74 569h-121l-47 65l-47 -65h-121l120 116h96z" />
    <glyph glyph-name="caront" horiz-adv-x="330" 
d="M121 635h135l-100 -116h-82z" />
    </font>
</defs>
</svg>
