<?xml version="1.0" standalone="no"?>
<!DOCTYPE svg PUBLIC "-//W3C//DTD SVG 1.1//EN" "http://www.w3.org/Graphics/SVG/1.1/DTD/svg11.dtd" >
<svg xmlns="http://www.w3.org/2000/svg" xmlns:xlink="http://www.w3.org/1999/xlink" version="1.1">
<metadata>
Created by FontForge 20190801 at Thu Mar 14 10:33:26 2019
 By www-data
Copyright (c) 2019 by Adrien Midzic. All rights reserved.
</metadata>
<defs>
<font id="GangsterGroteskRegular" horiz-adv-x="0" >
  <font-face 
    font-family="GangsterGroteskRegular"
    font-weight="400"
    font-stretch="normal"
    units-per-em="1000"
    panose-1="0 0 5 0 0 0 0 0 0 0"
    ascent="800"
    descent="-200"
    x-height="498"
    cap-height="671"
    bbox="-468 -289 1344 1016.06"
    underline-thickness="52"
    underline-position="-148"
    unicode-range="U+0020-FB02"
  />
<missing-glyph horiz-adv-x="679" 
d="M191 618q26 0 45.5 -10t31.5 -31.5t19 -44t10 -60.5t4 -66t1 -75q0 -40 -0.5 -64.5t-2.5 -60t-6.5 -57t-12.5 -46.5t-19.5 -38.5t-29 -23t-40.5 -9.5t-40.5 9.5t-29 23t-20 38.5t-12.5 46t-6 57t-2.5 60t-0.5 65q0 48 0.5 75t4 66t10.5 60.5t19 44t31 32t46 9.5zM487 618
q26 0 45.5 -10t31.5 -31.5t19 -44t10 -60.5t4 -66t1 -75q0 -40 -0.5 -64.5t-2.5 -60t-6.5 -57t-12.5 -46.5t-19.5 -38.5t-29 -23t-40.5 -9.5t-40.5 9.5t-29 23t-20 38.5t-12.5 46t-6 57t-2.5 60t-0.5 65q0 48 0.5 75t4 66t10.5 60.5t19 44t31 32t46 9.5zM191 584
q-35 0 -45.5 -60t-10.5 -193v-32q17 54 56 54q18 0 33 -16t23 -41v35q0 132 -10.5 192.5t-45.5 60.5zM487 584q-35 0 -45.5 -60t-10.5 -193v-35q8 25 23.5 41t33.5 16t32.5 -15t22.5 -39v32q0 132 -10.5 192.5t-45.5 60.5zM487 65q46 0 54 146q-18 -48 -53 -48q-38 0 -55 52
q7 -150 54 -150zM191 65q46 0 54 149q-19 -51 -54 -51t-54 49q7 -147 54 -147z" />
    <glyph glyph-name="fi" unicode="fi" horiz-adv-x="680" 
d="M138 503q0 82 43 128.5t118 46.5q63 0 111 -31v-75q-45 40 -97 40q-90 0 -90 -98v-77h183l-17 -52h-166v-385h-85v385h-119l18 52h101v66zM499 671h100v-84h-100v84zM506 0v499h85v-499h-85z" />
    <glyph glyph-name="fl" unicode="fl" horiz-adv-x="683" 
d="M138 503q0 82 43 128.5t118 46.5q63 0 111 -31v-75q-45 40 -97 40q-90 0 -90 -98v-77h183l-17 -52h-166v-385h-85v385h-119l18 52h101v66zM518 671h85v-671h-85v671z" />
    <glyph glyph-name=".notdef" horiz-adv-x="679" 
d="M191 618q26 0 45.5 -10t31.5 -31.5t19 -44t10 -60.5t4 -66t1 -75q0 -40 -0.5 -64.5t-2.5 -60t-6.5 -57t-12.5 -46.5t-19.5 -38.5t-29 -23t-40.5 -9.5t-40.5 9.5t-29 23t-20 38.5t-12.5 46t-6 57t-2.5 60t-0.5 65q0 48 0.5 75t4 66t10.5 60.5t19 44t31 32t46 9.5zM487 618
q26 0 45.5 -10t31.5 -31.5t19 -44t10 -60.5t4 -66t1 -75q0 -40 -0.5 -64.5t-2.5 -60t-6.5 -57t-12.5 -46.5t-19.5 -38.5t-29 -23t-40.5 -9.5t-40.5 9.5t-29 23t-20 38.5t-12.5 46t-6 57t-2.5 60t-0.5 65q0 48 0.5 75t4 66t10.5 60.5t19 44t31 32t46 9.5zM191 584
q-35 0 -45.5 -60t-10.5 -193v-32q17 54 56 54q18 0 33 -16t23 -41v35q0 132 -10.5 192.5t-45.5 60.5zM487 584q-35 0 -45.5 -60t-10.5 -193v-35q8 25 23.5 41t33.5 16t32.5 -15t22.5 -39v32q0 132 -10.5 192.5t-45.5 60.5zM487 65q46 0 54 146q-18 -48 -53 -48q-38 0 -55 52
q7 -150 54 -150zM191 65q46 0 54 149q-19 -51 -54 -51t-54 49q7 -147 54 -147z" />
    <glyph glyph-name=".null" 
 />
    <glyph glyph-name="nonmarkingreturn" horiz-adv-x="333" 
 />
    <glyph glyph-name="space" unicode=" " horiz-adv-x="261" 
 />
    <glyph glyph-name="exclam" unicode="!" horiz-adv-x="259" 
d="M104 191l-19 365v115h89v-115l-19 -365h-51zM79 0v108h100v-108h-100z" />
    <glyph glyph-name="quotedbl" unicode="&#x22;" horiz-adv-x="402" 
d="M95 443l-20 228h96l-20 -228h-56zM251 443l-20 228h96l-20 -228h-56z" />
    <glyph glyph-name="numbersign" unicode="#" horiz-adv-x="709" 
d="M660 451h-103l-51 -218h70v-63h-85l-41 -177h-77l41 177h-199l-41 -177h-76l41 177h-90v63h105l51 218h-86v63h101l40 172h76l-40 -172h199l40 172h77l-40 -172h88v-63zM429 233l51 218h-199l-51 -218h199z" />
    <glyph glyph-name="dollar" unicode="$" horiz-adv-x="647" 
d="M366 386q106 -33 152 -74t46 -124q0 -79 -52 -131t-146 -62v-81h-68v80q-101 5 -161 57t-67 138l76 48q2 -79 41.5 -126t110.5 -55v257q-109 31 -154.5 73.5t-45.5 119.5q0 72 53 118.5t147 55.5v82h68v-81q88 -7 144.5 -55t65.5 -120l-74 -45q-4 65 -39.5 105.5
t-96.5 49.5v-230zM183 521q0 -46 25 -69.5t90 -45.5v211q-55 -6 -85 -31t-30 -65zM366 57q112 15 112 117q0 44 -25.5 71t-86.5 48v-236z" />
    <glyph glyph-name="percent" unicode="%" horiz-adv-x="996" 
d="M238 283q-73 0 -124.5 56t-51.5 143q0 88 51 144t125 56t124.5 -56t50.5 -144t-50.5 -143.5t-124.5 -55.5zM260 -7l401 688h75l-402 -688h-74zM239 337q44 0 71 38.5t27 106.5q0 69 -27 107.5t-71 38.5t-71 -38.5t-27 -107.5q0 -68 27 -106.5t71 -38.5zM759 -7
q-74 0 -125 56t-51 143q0 88 51 144t125 56q73 0 124 -56t51 -144t-50.5 -143.5t-124.5 -55.5zM760 47q44 0 70.5 38.5t26.5 106.5q0 69 -26.5 107.5t-70.5 38.5q-45 0 -72 -38.5t-27 -107.5t27 -107t72 -38z" />
    <glyph glyph-name="ampersand" unicode="&#x26;" horiz-adv-x="632" 
d="M609 0h-100l-47 54q-81 -63 -195 -62q-105 2 -168 48t-63 131q0 117 160 182q-41 48 -59 87t-18 85q0 69 51 111t135 42q78 0 127 -44.5t49 -109.5q0 -62 -44 -103.5t-131 -71.5l162 -187q46 82 23 199h86q8 -59 -7 -128.5t-55 -123.5zM303 617q-46 0 -73 -24.5
t-27 -65.5q0 -65 68 -141q71 27 102 60.5t31 79.5q0 41 -28 66t-73 25zM125 179q0 -60 45.5 -92.5t106.5 -32.5q86 0 139 47l-186 213q-48 -19 -76.5 -54t-28.5 -81z" />
    <glyph glyph-name="quotesingle" unicode="'" horiz-adv-x="246" 
d="M95 443l-20 228h96l-20 -228h-56z" />
    <glyph glyph-name="parenleft" unicode="(" horiz-adv-x="339" 
d="M210 -84q-130 199 -130 387q0 187 130 386h76q-114 -185 -114 -386q0 -202 114 -387h-76z" />
    <glyph glyph-name="parenright" unicode=")" horiz-adv-x="339" 
d="M128 -84h-75q114 185 114 387q0 201 -114 386h75q130 -199 130 -386q0 -188 -130 -387z" />
    <glyph glyph-name="asterisk" unicode="*" horiz-adv-x="459" 
d="M384 562l-115 -50l115 -51l-34 -58l-101 75l14 -125h-67l14 125l-102 -75l-33 58l114 51l-114 50l34 58l101 -74l-14 124h67l-14 -123l101 74z" />
    <glyph glyph-name="plus" unicode="+" horiz-adv-x="630" 
d="M550 297v-64h-191v-193h-86v193h-193v64h193v193h86v-193h191z" />
    <glyph glyph-name="comma" unicode="," horiz-adv-x="257" 
d="M76 89h107v-129q-1 -49 -31.5 -74.5t-76.5 -24.5v53q22 0 33.5 9.5t11.5 36.5v35h-44v94z" />
    <glyph glyph-name="hyphen" unicode="-" horiz-adv-x="460" 
d="M80 233v64h300v-64h-300z" />
    <glyph glyph-name="period" unicode="." horiz-adv-x="248" 
d="M75 -6v99h98v-99h-98z" />
    <glyph glyph-name="slash" unicode="/" horiz-adv-x="346" 
d="M-35 -156l300 842h81l-300 -842h-81z" />
    <glyph glyph-name="zero" unicode="0" horiz-adv-x="686" 
d="M344 -7q-127 0 -205 95.5t-78 251.5t78 250.5t205 94.5q126 0 203.5 -94.5t77.5 -250.5t-77.5 -251.5t-203.5 -95.5zM344 57q87 0 138 76t51 207q0 129 -51.5 205.5t-137.5 76.5q-87 0 -139 -76.5t-52 -205.5q0 -130 52 -206.5t139 -76.5z" />
    <glyph glyph-name="one" unicode="1" horiz-adv-x="539" 
d="M364 65h152v-65h-415v65h177v516q-91 -95 -191 -137l-30 70q66 29 112.5 65t101.5 91h93v-605z" />
    <glyph glyph-name="two" unicode="2" horiz-adv-x="603" 
d="M343 223q-8 -5 -45 -26t-52 -31.5t-39.5 -29.5t-35.5 -37t-12 -38h382l-1 -65h-472q-1 54 13.5 96t50.5 75.5t58.5 48.5t74.5 45q5 3 9 5.5t8 4.5q97 55 134 95t37 101q0 74 -40 114t-111 40q-79 0 -125 -50t-43 -133l-82 35q-1 91 71 151t184 60q111 0 172.5 -54.5
t61.5 -154.5q0 -48 -14.5 -86t-47 -69t-60 -50t-76.5 -47z" />
    <glyph glyph-name="three" unicode="3" horiz-adv-x="608" 
d="M383 345q83 -8 128.5 -50.5t45.5 -112.5q0 -87 -69.5 -138t-186.5 -51q-113 0 -186.5 58.5t-72.5 152.5l80 32q-2 -81 47 -130.5t132 -49.5q164 0 164 133q0 122 -176 122h-63v62h48q175 0 175 120q0 58 -38.5 92t-105.5 34q-71 0 -116 -41t-47 -110l-81 41
q7 78 75 125.5t169 47.5q108 0 170.5 -49t62.5 -131q0 -66 -41 -108t-114 -49z" />
    <glyph glyph-name="four" unicode="4" horiz-adv-x="643" 
d="M618 242v-65h-124v-177h-87v177h-356v65l328 428h115v-428h124zM140 242h267v267q0 47 3 95q-50 -73 -68 -97z" />
    <glyph glyph-name="five" unicode="5" horiz-adv-x="609" 
d="M328 447q104 0 168 -62.5t64 -167.5q0 -99 -65.5 -161.5t-180.5 -62.5q-103 0 -169 47t-83 133l81 32q2 -69 49 -108.5t121 -39.5q76 -1 116.5 41.5t40.5 119.5q0 76 -43 122.5t-120 46.5q-50 0 -94.5 -25t-65.5 -62l-76 25l75 345h367v-64h-302l-45 -214q64 55 162 55z
" />
    <glyph glyph-name="six" unicode="6" horiz-adv-x="628" 
d="M347 437q102 0 162.5 -61.5t60.5 -160.5q0 -98 -69 -159.5t-180 -61.5q-128 0 -193.5 82.5t-65.5 237.5q0 179 73.5 274t210.5 95q92 0 153 -44t76 -116l-77 -32q-13 59 -52 93.5t-102 34.5q-100 0 -150.5 -82t-48.5 -223q21 50 73 86.5t129 36.5zM326 58q70 0 112.5 43
t42.5 114q0 73 -40 115.5t-110 42.5q-71 0 -119 -45.5t-48 -112.5q0 -66 45.5 -111.5t116.5 -45.5z" />
    <glyph glyph-name="seven" unicode="7" horiz-adv-x="512" 
d="M29 670h463v-64h-1q-145 -122 -208.5 -281t-47.5 -325h-103q2 361 282 606h-385v64z" />
    <glyph glyph-name="eight" unicode="8" horiz-adv-x="630" 
d="M405 351q71 -6 121.5 -55t50.5 -115q0 -86 -70.5 -137t-189.5 -51t-189.5 51t-70.5 137q0 66 50.5 115t121.5 55q-62 11 -102.5 54t-40.5 103q0 78 64 126.5t167 48.5t167.5 -48.5t64.5 -126.5q0 -60 -40.5 -103t-103.5 -54zM173 499q0 -55 39.5 -88.5t104.5 -33.5
q66 0 105 33t39 89t-35.5 88t-108.5 32t-108.5 -32t-35.5 -88zM317 57q85 0 127.5 36t42.5 95q0 61 -46.5 96.5t-123.5 35.5t-123 -35.5t-46 -96.5q0 -59 42 -95t127 -36z" />
    <glyph glyph-name="nine" unicode="9" horiz-adv-x="628" 
d="M309 682q123 0 189.5 -84.5t66.5 -235.5q0 -188 -63.5 -278.5t-204.5 -90.5q-100 0 -163.5 45.5t-81.5 123.5l77 30q12 -63 56 -99.5t112 -36.5q99 0 144.5 75.5t43.5 226.5q-22 -49 -71.5 -84t-123.5 -35q-105 0 -168.5 61t-63.5 161q0 98 69 159.5t182 61.5zM302 302
q71 0 117 45t46 114q0 67 -43 112.5t-115 45.5t-115.5 -43.5t-43.5 -114.5t42 -115t112 -44z" />
    <glyph glyph-name="colon" unicode=":" horiz-adv-x="248" 
d="M75 394v99h98v-99h-98zM75 -6v99h98v-99h-98z" />
    <glyph glyph-name="semicolon" unicode=";" horiz-adv-x="256" 
d="M173 493v-99h-98v99h98zM75 89h106v-129q0 -49 -30.5 -74.5t-77.5 -24.5v53q22 0 34 9.5t12 36.5v35h-44v94z" />
    <glyph glyph-name="less" unicode="&#x3c;" horiz-adv-x="540" 
d="M460 507v-68l-317 -181l317 -180v-69l-380 213v72z" />
    <glyph glyph-name="equal" unicode="=" horiz-adv-x="630" 
d="M80 326v64h470v-64h-470zM80 131v64h470v-64h-470z" />
    <glyph glyph-name="greater" unicode="&#x3e;" horiz-adv-x="540" 
d="M80 507l380 -213v-72l-380 -213v69l317 180l-317 181v68z" />
    <glyph glyph-name="question" unicode="?" horiz-adv-x="543" 
d="M275 683q100 0 157.5 -51t57.5 -139q0 -142 -181 -189l-22 -108h-51l-14 138q93 19 136 54t43 99q0 67 -35 100t-98 33q-75 0 -111 -48.5t-32 -135.5l-82 35q-2 93 61.5 152.5t170.5 59.5zM214 0v108h100v-108h-100z" />
    <glyph glyph-name="at" unicode="@" horiz-adv-x="872" 
d="M527 440h79v-281q0 -76 50 -76q36 0 57.5 48t21.5 137q0 70 -32.5 133t-103 106.5t-163.5 43.5q-140 0 -218 -89.5t-78 -223.5q0 -138 79 -225.5t231 -87.5q107 0 196 41v-56q-89 -41 -196 -41q-175 0 -288 106t-113 263q0 154 112 262t275 108q161 0 273.5 -104
t112.5 -236q0 -101 -48 -166.5t-130 -65.5q-47 0 -77 23t-38 62q-33 -87 -126 -87q-75 0 -123 58t-48 151t48 151t123 58q90 0 124 -81v69zM423 78q49 0 78.5 45t29.5 120q0 74 -29.5 120t-78.5 46q-50 0 -78 -45.5t-28 -120.5t28 -120t78 -45z" />
    <glyph glyph-name="A" unicode="A" horiz-adv-x="663" 
d="M561 0l-77 204h-307l-79 -204h-85l263 671h116l258 -671h-89zM202 268h258l-86 228q-18 50 -42 123q-21 -64 -42 -122z" />
    <glyph glyph-name="B" unicode="B" horiz-adv-x="663" 
d="M464 343q68 -13 106 -56t38 -107q0 -87 -65 -133.5t-181 -46.5h-283v671h282q229 0 229 -175q0 -129 -126 -153zM352 607h-185v-236h177q79 0 118 27.5t39 89.5q0 63 -36 91t-113 28zM356 64q160 0 160 121q0 122 -156 122h-193v-243h189z" />
    <glyph glyph-name="C" unicode="C" horiz-adv-x="671" 
d="M554 266l78 -48q-5 -100 -80.5 -162.5t-190.5 -62.5q-145 0 -228.5 91.5t-83.5 252.5q0 160 81.5 252.5t220.5 92.5q108 0 180 -54.5t79 -140.5l-77 -48q-4 85 -53.5 132t-128.5 47q-99 0 -153.5 -73t-54.5 -208q0 -136 56.5 -208t161.5 -72q89 0 139.5 54t53.5 155z" />
    <glyph glyph-name="D" unicode="D" horiz-adv-x="672" 
d="M268 671q176 0 265.5 -85t89.5 -250q0 -167 -89.5 -251.5t-265.5 -84.5h-189v671h189zM259 64q139 0 205.5 67t66.5 205q0 137 -66.5 204t-205.5 67h-92v-543h92z" />
    <glyph glyph-name="E" unicode="E" horiz-adv-x="568" 
d="M519 607h-352v-235h328v-64h-328v-244h352v-64h-440v671h440v-64z" />
    <glyph glyph-name="F" unicode="F" horiz-adv-x="555" 
d="M519 607h-352v-235h324v-64h-324v-308h-88v671h440v-64z" />
    <glyph glyph-name="G" unicode="G" horiz-adv-x="709" 
d="M633 352v-352h-84v133q-37 -140 -203 -140q-136 0 -216.5 92t-80.5 252q0 161 83 253t227 92q114 0 185.5 -52t79.5 -133l-75 -46q-7 79 -57.5 123t-132.5 44q-104 0 -160.5 -73t-56.5 -208q0 -134 55 -207t154 -73q184 0 198 193v39h-193v63h277z" />
    <glyph glyph-name="H" unicode="H" horiz-adv-x="678" 
d="M512 671h87v-671h-87v308h-345v-308h-88v671h88v-299h345v299z" />
    <glyph glyph-name="I" unicode="I" horiz-adv-x="246" 
d="M79 0v671h87v-671h-87z" />
    <glyph glyph-name="J" unicode="J" horiz-adv-x="526" 
d="M365 671h86v-461q0 -217 -212 -217q-84 0 -140 48.5t-70 131.5l82 49q14 -165 138 -165q60 0 88 40t28 122v452z" />
    <glyph glyph-name="K" unicode="K" horiz-adv-x="607" 
d="M605 0h-118l-320 334v-334h-88v671h88v-333l322 333h101l-319 -326z" />
    <glyph glyph-name="L" unicode="L" horiz-adv-x="538" 
d="M167 64h332v-64h-420v671h88v-607z" />
    <glyph glyph-name="M" unicode="M" horiz-adv-x="844" 
d="M765 671v-671h-83v614l-204 -614h-111l-205 614v-614h-83v671h143l149 -435q38 -123 51 -190q17 85 51 189l149 436h143z" />
    <glyph glyph-name="N" unicode="N" horiz-adv-x="708" 
d="M546 671h83v-671h-134l-272 479q-26 47 -61 125v-604h-83v671h134l269 -475q29 -51 64 -127v602z" />
    <glyph glyph-name="O" unicode="O" horiz-adv-x="710" 
d="M355 -7q-141 0 -223.5 92.5t-82.5 251.5t82.5 252t223.5 93t223.5 -92.5t82.5 -252.5q0 -159 -82.5 -251.5t-223.5 -92.5zM355 56q101 0 157.5 74t56.5 207t-57 207t-158 74q-100 0 -156 -74t-56 -207t56 -207t157 -74z" />
    <glyph glyph-name="P" unicode="P" horiz-adv-x="619" 
d="M356 671q108 0 168 -46t60 -139q0 -92 -60 -138t-168 -46h-190v-302h-87v671h277zM349 365q146 0 146 121t-146 121h-183v-242h183z" />
    <glyph glyph-name="Q" unicode="Q" horiz-adv-x="713" 
d="M661 337q0 -190 -115 -283l95 -142h-97l-68 102q-54 -21 -121 -21q-141 0 -223.5 92.5t-82.5 251.5t82.5 252t223.5 93t223.5 -92.5t82.5 -252.5zM355 56q47 0 82 16l-120 179h97l89 -132q66 74 66 218q0 133 -56.5 207t-157.5 74t-157 -74t-56 -207t56 -207t157 -74z
" />
    <glyph glyph-name="R" unicode="R" horiz-adv-x="665" 
d="M555 242q21 -112 36 -164.5t33 -77.5h-101q-23 44 -52 226q-8 44 -35 62.5t-85 18.5h-184v-307h-88v671h284q109 0 169.5 -43t60.5 -132q0 -58 -35 -99.5t-96 -55.5q77 -16 93 -99zM356 371q146 0 146 123q0 113 -145 113h-190v-236h189z" />
    <glyph glyph-name="S" unicode="S" horiz-adv-x="621" 
d="M321 395q127 -36 180 -77.5t53 -129.5q0 -89 -65 -142t-180 -53q-113 0 -180.5 52.5t-73.5 143.5l77 48q1 -87 49.5 -135t132.5 -48q75 0 114 31t39 89q0 53 -37.5 81.5t-130.5 53.5q-118 31 -166.5 74t-48.5 123t65 128t178 48q100 0 164.5 -49t74.5 -127l-74 -45
q-5 74 -50.5 116t-123.5 42q-69 0 -109 -26.5t-40 -71.5q0 -51 31.5 -75.5t120.5 -50.5z" />
    <glyph glyph-name="T" unicode="T" horiz-adv-x="568" 
d="M549 671v-64h-220v-607h-87v607h-223v64h530z" />
    <glyph glyph-name="U" unicode="U" horiz-adv-x="649" 
d="M488 671h87v-440q0 -120 -60 -179t-190 -59t-190.5 59t-60.5 179v440h87l1 -433q0 -93 36.5 -137t126.5 -44t126.5 44.5t36.5 136.5v433z" />
    <glyph glyph-name="V" unicode="V" horiz-adv-x="606" 
d="M501 671h95l-231 -675h-124l-232 675h95l146 -443q24 -66 53 -169q32 112 52 167z" />
    <glyph glyph-name="W" unicode="W" horiz-adv-x="948" 
d="M836 671h94l-186 -671h-121l-122 453q-15 72 -27 142q-13 -75 -27 -142l-122 -453h-122l-185 671h94l124 -476q16 -57 31 -129q14 73 28 128l123 477h112l122 -473q18 -71 29 -133q20 90 31 134z" />
    <glyph glyph-name="X" unicode="X" horiz-adv-x="595" 
d="M586 0h-101l-188 273l-191 -273h-94l238 340l-228 331h100l179 -259l181 259h94l-228 -326z" />
    <glyph glyph-name="Y" unicode="Y" horiz-adv-x="588" 
d="M579 671l-241 -383v-288h-86v285l-243 386h98l189 -309l189 309h94z" />
    <glyph glyph-name="Z" unicode="Z" horiz-adv-x="583" 
d="M149 64h395v-64h-494v62l380 545h-391v64h490v-64z" />
    <glyph glyph-name="bracketleft" unicode="[" horiz-adv-x="314" 
d="M254 626h-88v-647h88v-63h-175v773h175v-63z" />
    <glyph glyph-name="backslash" unicode="\" horiz-adv-x="346" 
d="M381 -156h-81l-300 842h81z" />
    <glyph glyph-name="bracketright" unicode="]" horiz-adv-x="314" 
d="M60 689h175v-773h-175v63h88v647h-88v63z" />
    <glyph glyph-name="asciicircum" unicode="^" horiz-adv-x="558" 
d="M478 386h-69l-130 226l-130 -226h-69l163 289h72z" />
    <glyph glyph-name="underscore" unicode="_" horiz-adv-x="650" 
d="M80 -71v64h490v-64h-490z" />
    <glyph glyph-name="grave" unicode="`" horiz-adv-x="314" 
d="M181 685l53 -116h-60l-94 116h101z" />
    <glyph glyph-name="a" unicode="a" horiz-adv-x="535" 
d="M261 514q96 0 148 -43t52 -121v-350h-86v96q-19 -47 -61 -75t-97 -28q-75 0 -121.5 38.5t-46.5 103.5q0 124 184 162l142 30v19q0 113 -119 113q-59 0 -92.5 -31t-40.5 -86l-74 32q8 60 67 100t145 40zM246 50q54 0 92 41.5t38 101.5v93l-125 -32q-107 -27 -107 -109
q0 -95 102 -95z" />
    <glyph glyph-name="b" unicode="b" horiz-adv-x="599" 
d="M333 514q96 0 155.5 -72t59.5 -189t-59.5 -188.5t-155.5 -71.5q-124 0 -168 115v-108h-86v671h86v-272q44 115 168 115zM309 48q67 0 106.5 55.5t39.5 149.5q0 95 -39.5 150.5t-106.5 55.5q-65 0 -106 -57.5t-41 -148.5t41 -148t106 -57z" />
    <glyph glyph-name="c" unicode="c" horiz-adv-x="529" 
d="M427 182l72 -43q-18 -73 -71.5 -109.5t-134.5 -36.5q-112 0 -178 70t-66 190t66.5 190.5t177.5 70.5q68 0 119.5 -33.5t72.5 -91.5l-76 -43q-30 113 -124 113q-66 0 -104 -54t-38 -152q0 -100 41.5 -153t118.5 -53q52 0 84.5 34t39.5 101z" />
    <glyph glyph-name="d" unicode="d" horiz-adv-x="602" 
d="M438 671h85v-671h-85v108q-44 -115 -169 -115q-96 0 -155.5 71.5t-59.5 188.5t59.5 189t155.5 72q125 0 169 -115v272zM294 48q65 0 106 57t41 148t-41 148.5t-106 57.5q-67 0 -106.5 -55.5t-39.5 -150.5q0 -94 39.5 -149.5t106.5 -55.5z" />
    <glyph glyph-name="e" unicode="e" horiz-adv-x="553" 
d="M434 162l72 -43q-57 -126 -213 -126q-112 0 -178 70t-66 190q0 118 64 189.5t169 71.5q102 0 159.5 -71t58.5 -192h-1l1 -3h-359q2 -94 44.5 -147t117.5 -53q105 0 131 114zM282 459q-60 0 -95.5 -43t-43.5 -121h263q-5 86 -34.5 125t-89.5 39z" />
    <glyph glyph-name="f" unicode="f" horiz-adv-x="438" 
d="M313 612q-90 0 -90 -98v-77h183l-17 -52h-166v-385h-85v385h-119l18 52h101v66q0 82 43 128.5t118 46.5q63 0 111 -31v-75q-45 40 -97 40z" />
    <glyph glyph-name="g" unicode="g" horiz-adv-x="580" 
d="M420 498h85v-438q0 -107 -61.5 -161.5t-171.5 -54.5q-78 0 -134.5 33.5t-79.5 90.5l78 44q18 -58 51 -87t91 -29q142 0 142 181v83q-21 -55 -62.5 -84.5t-96.5 -29.5q-92 0 -150.5 66t-58.5 168t59.5 168t153.5 66q111 0 155 -112v96zM283 101q59 0 98.5 51t39.5 128
t-39.5 128.5t-98.5 51.5q-61 0 -99 -49.5t-38 -130.5q0 -80 38 -129.5t99 -49.5z" />
    <glyph glyph-name="h" unicode="h" horiz-adv-x="581" 
d="M327 515q83 0 129.5 -48t46.5 -132v-335h-86v327q0 58 -29 92.5t-86 34.5q-63 0 -99.5 -43.5t-37.5 -110.5v-300h-86v671h86v-268q44 112 162 112z" />
    <glyph glyph-name="i" unicode="i" horiz-adv-x="263" 
d="M81 587v84h100v-84h-100zM88 0v499h85v-499h-85z" />
    <glyph glyph-name="j" unicode="j" horiz-adv-x="257" 
d="M87 671h99v-83h-99v83zM94 -25v523h85v-542q0 -53 -31.5 -82.5t-85.5 -29.5q-31 0 -58 12v76q22 -13 45 -13q45 0 45 56z" />
    <glyph glyph-name="k" unicode="k" horiz-adv-x="519" 
d="M499 0h-106l-228 273v-273h-86v671h86v-394l240 221l79 1l-230 -212z" />
    <glyph glyph-name="l" unicode="l" horiz-adv-x="246" 
d="M80 0v671h85v-671h-85z" />
    <glyph glyph-name="m" unicode="m" horiz-adv-x="841" 
d="M610 514q71 0 113.5 -42.5t42.5 -124.5v-347h-85v339q0 57 -25.5 87.5t-70.5 30.5q-51 0 -84.5 -44.5t-34.5 -112.5v-300h-86v337q0 57 -25.5 88.5t-69.5 31.5q-52 0 -85.5 -44.5t-34.5 -112.5v-300h-86v499h86v-94q42 109 144 109q57 0 97 -29t53 -83q42 112 151 112z
" />
    <glyph glyph-name="n" unicode="n" horiz-adv-x="577" 
d="M327 514q83 0 129.5 -47.5t46.5 -131.5v-335h-85v327q0 58 -29 92.5t-87 34.5q-63 0 -99.5 -43.5t-38.5 -110.5v-300h-85v498h85v-98q44 114 163 114z" />
    <glyph glyph-name="o" unicode="o" horiz-adv-x="584" 
d="M292 -7q-111 0 -177 70.5t-66 189.5q0 120 66 190.5t177 70.5q112 0 177 -70.5t65 -190.5q0 -119 -65 -189.5t-177 -70.5zM292 48q73 0 111.5 53t38.5 152t-38.5 152.5t-111.5 53.5q-72 0 -111 -53.5t-39 -152.5q0 -98 39 -151.5t111 -53.5z" />
    <glyph glyph-name="p" unicode="p" horiz-adv-x="597" 
d="M335 514q96 0 154.5 -71.5t58.5 -189.5q0 -117 -58.5 -188.5t-154.5 -71.5q-125 0 -170 116v-259h-85v648h85v-100q45 116 170 116zM310 48q67 0 106 55.5t39 149.5q0 95 -39 150.5t-106 55.5q-65 0 -106.5 -57.5t-41.5 -148.5t41.5 -148t106.5 -57z" />
    <glyph glyph-name="q" unicode="q" horiz-adv-x="602" 
d="M437 498h86v-648h-86v259q-45 -116 -169 -116q-97 0 -155.5 71.5t-58.5 188.5q0 118 58.5 189.5t155.5 71.5q124 0 169 -116v100zM292 48q65 0 106.5 57t41.5 148t-41.5 148.5t-106.5 57.5q-67 0 -105.5 -55.5t-38.5 -150.5q0 -94 38.5 -149.5t105.5 -55.5z" />
    <glyph glyph-name="r" unicode="r" horiz-adv-x="461" 
d="M299 514q63 0 96.5 -42.5t31.5 -121.5l-78 -44q1 82 -16 116t-54 34q-53 0 -83.5 -61t-30.5 -176v-219h-86v499h86l-3 -132q15 73 50.5 110t86.5 37z" />
    <glyph glyph-name="s" unicode="s" horiz-adv-x="490" 
d="M259 301q97 -22 137.5 -55.5t40.5 -94.5q0 -74 -52.5 -116t-143.5 -42q-70 0 -124.5 34t-66.5 88l66 41q10 -52 44 -80t88 -28q108 0 108 80q0 40 -26 58.5t-92 31.5q-92 19 -133 53.5t-41 96.5q0 64 50 105.5t141 42.5q74 1 124.5 -32t61.5 -88l-70 -32q-20 98 -125 98
q-48 0 -76 -20t-28 -57q0 -36 25 -53t92 -31z" />
    <glyph glyph-name="t" unicode="t" horiz-adv-x="437" 
d="M300 62q52 0 99 37v-75q-45 -30 -116 -30q-73 0 -111.5 36t-38.5 101v315h-114l18 52h96v129h85v-129h178l-18 -52h-160v-296q0 -45 19.5 -66.5t62.5 -21.5z" />
    <glyph glyph-name="u" unicode="u" horiz-adv-x="582" 
d="M417 498h85v-498h-85v106q-45 -113 -167 -113q-176 0 -176 174v331h86v-319q0 -60 29 -94.5t88 -34.5q65 0 102 43.5t38 112.5v292z" />
    <glyph glyph-name="v" unicode="v" horiz-adv-x="504" 
d="M398 498h87l-183 -498h-100l-183 498h88l116 -337q18 -49 30 -99q14 56 28 98z" />
    <glyph glyph-name="w" unicode="w" horiz-adv-x="732" 
d="M626 498h87l-138 -497h-48l-57 -1l-86 349q-11 46 -18 88q-10 -58 -17 -88l-87 -349l-57 1h-48l-138 497h88l83 -333q13 -49 23 -113q17 91 22 113l80 333h102l82 -337q8 -35 20 -107q10 60 22 108z" />
    <glyph glyph-name="x" unicode="x" horiz-adv-x="523" 
d="M493 498l-189 -242l189 -256h-98l-137 194l-138 -194h-91l188 249l-188 249h99l135 -188l139 188h91z" />
    <glyph glyph-name="y" unicode="y" horiz-adv-x="511" 
d="M393 498h89l-249 -648h-86l80 180l-199 468h90l122 -303q18 -46 25 -69z" />
    <glyph glyph-name="z" unicode="z" horiz-adv-x="468" 
d="M144 54h291v-54h-386v54l284 390h-294v54h390v-54z" />
    <glyph glyph-name="braceleft" unicode="{" horiz-adv-x="378" 
d="M230 386q0 -71 -68 -82q68 -14 68 -80v-211q0 -34 30 -34h58v-63h-79q-91 0 -91 93v201q0 34 -20.5 47.5t-67.5 16.5v62q47 0 67.5 13.5t20.5 50.5v196q0 93 91 93h79v-63h-58q-30 0 -30 -33v-207z" />
    <glyph glyph-name="bar" unicode="|" horiz-adv-x="246" 
d="M79 -152v841h87v-841h-87z" />
    <glyph glyph-name="braceright" unicode="}" horiz-adv-x="378" 
d="M230 400q0 -37 20.5 -50.5t67.5 -13.5v-62q-47 -3 -67.5 -16.5t-20.5 -47.5v-201q0 -93 -90 -93h-80v63h58q30 0 30 34v211q0 66 69 80q-69 11 -69 82v207q0 33 -30 33h-58v63h80q90 0 90 -93v-196z" />
    <glyph glyph-name="asciitilde" unicode="~" horiz-adv-x="584" 
d="M388 168q-32 0 -70 25.5t-70.5 51t-50.5 25.5q-28 0 -38.5 -21.5t-10.5 -63.5h-68q0 75 30.5 112.5t86.5 37.5q32 0 70.5 -25.5t71 -51t50.5 -25.5q28 0 39 21.5t11 64.5h65q0 -151 -116 -151z" />
    <glyph glyph-name="exclamdown" unicode="&#xa1;" horiz-adv-x="259" 
d="M79 498h100v-108h-100v108zM104 307h51l19 -342v-115h-89v115z" />
    <glyph glyph-name="cent" unicode="&#xa2;" horiz-adv-x="591" 
d="M341 128q86 11 108 114l71 -43q-50 -114 -179 -125v-79h-63v80q-96 11 -152 79.5t-56 178.5t56 179t152 80v78h63v-77q129 -11 179 -125l-71 -43q-22 103 -108 114v-411zM164 333q0 -172 114 -201v403q-114 -29 -114 -202z" />
    <glyph glyph-name="sterling" unicode="&#xa3;" horiz-adv-x="639" 
d="M597 486l-76 -47q4 85 -29.5 131.5t-95.5 46.5q-68 0 -102 -43.5t-28 -119.5q2 -29 17 -82h188v-64h-171q9 -49 11 -92t-26.5 -84t-89.5 -67h402v-65h-497v65q50 22 79.5 50t38.5 61t7.5 63t-10.5 69h-140v64h124q-15 53 -17 83q-8 101 52 163.5t162 62.5q93 0 148 -54
t53 -141z" />
    <glyph glyph-name="currency" unicode="&#xa4;" horiz-adv-x="692" 
d="M547 333q0 -62 -36 -114l101 -101l-52 -52l-102 102q-50 -33 -112 -33t-112 33l-102 -102l-52 52l102 101q-37 51 -37 114q0 62 36 112l-101 101l52 52l102 -102q49 34 112 34t112 -34l102 102l52 -52l-101 -101q36 -50 36 -112zM221 333q0 -55 35 -92t91 -37
q54 0 89.5 37.5t35.5 91.5q0 53 -36 90.5t-89 37.5q-54 0 -90 -37.5t-36 -90.5z" />
    <glyph glyph-name="yen" unicode="&#xa5;" horiz-adv-x="588" 
d="M579 671l-210 -334h150v-64h-181v-87h181v-64h-181v-122h-86v122h-186v64h186v87h-186v64h153l-210 334h98l189 -309l189 309h94z" />
    <glyph glyph-name="brokenbar" unicode="&#xa6;" horiz-adv-x="246" 
d="M79 369v320h87v-320h-87zM79 -156v320h87v-320h-87z" />
    <glyph glyph-name="section" unicode="&#xa7;" horiz-adv-x="499" 
d="M446 312q0 -88 -88 -123q79 -37 79 -119q0 -73 -52.5 -115t-142.5 -42q-71 0 -125.5 34t-67.5 88l67 40q11 -52 45 -80t87 -28q108 0 108 82q0 40 -26 59t-92 32q-92 18 -133.5 52.5t-41.5 97.5q0 41 26.5 72t71.5 45q-88 38 -89 125q0 64 50.5 105t141.5 41
q74 0 124 -33t62 -88l-71 -31q-19 98 -124 98q-48 0 -76.5 -20.5t-28.5 -58.5q0 -35 25.5 -52t92.5 -32q97 -21 137.5 -54.5t40.5 -94.5zM278 213q40 0 63 23t23 59q0 39 -31 63t-83 24q-49 0 -78.5 -22t-29.5 -59q0 -36 42.5 -62t93.5 -26z" />
    <glyph glyph-name="dieresis" unicode="&#xa8;" horiz-adv-x="408" 
d="M80 575v85h95v-85h-95zM233 575v85h94v-85h-94z" />
    <glyph glyph-name="copyright" unicode="&#xa9;" horiz-adv-x="854" 
d="M427 682q158 0 267.5 -106.5t109.5 -260.5q0 -156 -109 -264t-268 -108q-160 0 -269 107t-109 265q0 153 109.5 260t268.5 107zM427 -1q134 0 213 90.5t79 225.5q0 130 -80 220t-212 90q-131 0 -211.5 -90.5t-80.5 -219.5q0 -135 79 -225.5t213 -90.5zM440 147
q100 0 103 124l66 -29q-7 -59 -54 -95.5t-115 -36.5q-86 0 -139.5 54t-53.5 148q0 93 52 147.5t135 54.5q64 0 109.5 -31.5t52.5 -82.5l-65 -28q-2 51 -27.5 78t-69.5 27q-48 0 -80 -44t-32 -121t33 -121t85 -44z" />
    <glyph glyph-name="ordfeminine" unicode="&#xaa;" horiz-adv-x="414" 
d="M209 683q72 0 113.5 -32.5t41.5 -90.5v-263h-69v72q-15 -36 -45.5 -56.5t-72.5 -20.5q-57 0 -91.5 29t-34.5 78q0 92 137 121l107 22v15q0 82 -89 82q-87 0 -96 -85l-59 24q5 45 49.5 75t108.5 30zM197 336q39 0 69 30.5t30 75.5v70l-96 -24q-81 -21 -81 -82
q0 -70 78 -70z" />
    <glyph glyph-name="guillemotleft" unicode="&#xab;" horiz-adv-x="574" 
d="M317 444l-167 -191l167 -191h-90l-172 191l175 191h87zM519 444l-168 -191l168 -191h-91l-171 191h-1l175 191h88z" />
    <glyph glyph-name="logicalnot" unicode="&#xac;" horiz-adv-x="570" 
d="M490 348v-284h-85v220h-325v64h410z" />
    <glyph glyph-name="uni00AD" unicode="&#xad;" horiz-adv-x="600" 
d="M80 233v64h300v-64h-300z" />
    <glyph glyph-name="registered" unicode="&#xae;" horiz-adv-x="854" 
d="M427 682q158 0 267.5 -106.5t109.5 -260.5q0 -156 -109 -264t-268 -108q-160 0 -269 107t-109 265q0 153 109.5 260t268.5 107zM427 -1q134 0 213 90.5t79 225.5q0 130 -80 220t-212 90q-131 0 -211.5 -90.5t-80.5 -219.5q0 -135 79 -225.5t213 -90.5zM500 319
q28 -5 40 -20t17 -42q18 -104 39 -135h-68q-16 34 -30 127q-4 26 -20 36t-50 10h-86v-173h-60v388h164q133 0 133 -101q0 -72 -79 -90zM432 342q85 0 85 66q0 33 -21 47t-64 14h-90v-127h90z" />
    <glyph glyph-name="macron" unicode="&#xaf;" horiz-adv-x="401" 
d="M80 630h240v-55h-240v55z" />
    <glyph glyph-name="degree" unicode="&#xb0;" horiz-adv-x="450" 
d="M225 393q-61 0 -103.5 42.5t-42.5 102.5t42.5 102.5t103.5 42.5q60 0 102.5 -42.5t42.5 -102.5t-42.5 -102.5t-102.5 -42.5zM225 453q34 0 57.5 24.5t23.5 60.5t-23.5 60t-57.5 24t-58 -24t-24 -60t24 -60.5t58 -24.5z" />
    <glyph glyph-name="plusminus" unicode="&#xb1;" horiz-adv-x="630" 
d="M359 337h191v-64h-191v-153h-86v153h-193v64h193v153h86v-153zM80 0v64h470v-64h-470z" />
    <glyph glyph-name="uni00B2" unicode="&#xb2;" horiz-adv-x="373" 
d="M114 329h219l-1 -44h-283q-1 17 1.5 33t6 27.5t14 24t15.5 19t21.5 17.5l21 14t24 14.5t21.5 12.5q53 31 71.5 52.5t18.5 53.5q0 41 -21 61.5t-56 20.5q-39 0 -63 -26t-21 -74l-63 21q-1 54 44 89t108 35t101.5 -32.5t38.5 -88.5q0 -27 -8.5 -48.5t-28 -40t-35 -30
t-45.5 -29.5q-6 -4 -28.5 -16.5t-33 -19.5t-23 -20t-16.5 -26z" />
    <glyph glyph-name="uni00B3" unicode="&#xb3;" horiz-adv-x="373" 
d="M253 486q39 -8 61.5 -32t22.5 -59q0 -52 -42.5 -82t-109.5 -30q-60 0 -103 31.5t-46 80.5l59 32q-1 -50 23 -75.5t67 -25.5q84 0 84 72q0 65 -90 65h-35v43h26q47 0 68.5 15t21.5 49q0 32 -20.5 49t-51.5 17q-75 0 -82 -78l-59 29q9 43 48 67.5t93 24.5q58 0 98 -28.5
t40 -75.5q0 -34 -20 -57t-53 -32z" />
    <glyph glyph-name="acute" unicode="&#xb4;" horiz-adv-x="314" 
d="M133 685h101l-94 -116h-60z" />
    <glyph glyph-name="uni00B5" unicode="&#xb5;" horiz-adv-x="640" 
d="M508 108q0 -48 52 -48v-60h-25q-56 1 -81.5 21t-29.5 67q-17 -49 -48 -72t-81 -23q-96 0 -129 93v-242h-86v654h86v-280q1 -75 29 -115.5t100 -40.5q71 0 99 40.5t29 115.5v280h85v-390z" />
    <glyph glyph-name="paragraph" unicode="&#xb6;" horiz-adv-x="700" 
d="M465 671v-835h-87v351h-62q-108 0 -172.5 71.5t-64.5 170.5t65 170.5t172 71.5h149zM534 671h87v-835h-87v835zM329 248h49v362h-49q-84 0 -125 -53.5t-41 -127.5q0 -75 40.5 -128t125.5 -53z" />
    <glyph glyph-name="periodcentered" unicode="&#xb7;" horiz-adv-x="248" 
d="M75 284v99h98v-99h-98z" />
    <glyph glyph-name="cedilla" unicode="&#xb8;" horiz-adv-x="329" 
d="M165 -30q41 -3 62.5 -21.5t21.5 -45.5q0 -33 -25.5 -51t-67.5 -18q-41 0 -76 11v48q28 -17 69 -17q37 0 37 33q0 43 -92 42l49 74h46z" />
    <glyph glyph-name="uni00B9" unicode="&#xb9;" horiz-adv-x="373" 
d="M239 329h100v-44h-281v44h113v277q-50 -56 -119 -79l-18 53q91 39 132 91h73v-342z" />
    <glyph glyph-name="ordmasculine" unicode="&#xba;" horiz-adv-x="414" 
d="M207 291q-83 0 -132.5 53t-49.5 143t49.5 143t132.5 53q84 0 133 -53t49 -143t-49 -143t-133 -53zM207 335q55 0 84.5 39t29.5 113t-29.5 113t-84.5 39q-54 0 -83.5 -39t-29.5 -113t29.5 -113t83.5 -39z" />
    <glyph glyph-name="guillemotright" unicode="&#xbb;" horiz-adv-x="574" 
d="M143 444l174 -191l-171 -191h-91l168 191l-168 191h88zM344 444l175 -191h-1l-172 -191h-90l168 191l-168 191h88z" />
    <glyph glyph-name="onequarter" unicode="&#xbc;" horiz-adv-x="611" 
d="M290 629q-34 -44 -71 -56l-17 43q55 22 86 65h61v-235h60v-40h-189v40h70v183zM79 363h452v-43h-452v43zM380 275v-175h48v-39h-48v-64h-58v64h-138v39l132 175h64zM236 100h86v77q0 21 3 46q-17 -30 -28 -44z" />
    <glyph glyph-name="onehalf" unicode="&#xbd;" horiz-adv-x="611" 
d="M290 629q-34 -44 -71 -56l-17 43q55 22 86 65h61v-235h60v-40h-189v40h70v183zM79 363h452v-43h-452v43zM419 196q0 -36 -20.5 -58t-63.5 -49q-47 -23 -70 -44h153v-45h-220q-4 9 -1 19.5t2.5 17t6 15t8.5 13t11 11.5t12.5 10.5t13.5 9.5t14 8.5t14 8t14 7.5q35 19 48 35
t13 39q0 24 -13 36.5t-33 12.5q-26 0 -40.5 -21.5t-7.5 -58.5l-63 28q-2 40 32.5 65.5t82.5 25.5t77.5 -23t29.5 -63z" />
    <glyph glyph-name="threequarters" unicode="&#xbe;" horiz-adv-x="611" 
d="M195 489l55 22q-1 -32 15 -49t41 -17q49 0 49 44q0 41 -55 41h-33v37h27q57 0 57 41q0 20 -12 30.5t-31 10.5q-21 0 -35 -14t-15 -40l-55 24q8 32 38 50.5t69 18.5q44 0 73 -20t29 -53q0 -51 -60 -65q67 -13 67 -68q0 -35 -31.5 -56t-79.5 -21q-46 0 -79 24t-34 60z
M79 363h452v-43h-452v43zM380 275v-175h48v-39h-48v-64h-58v64h-138v39l132 175h64zM236 100h86v77q0 21 3 46q-17 -30 -28 -44z" />
    <glyph glyph-name="questiondown" unicode="&#xbf;" horiz-adv-x="543" 
d="M329 498v-108h-100v108h100zM500 56q2 -93 -61 -152.5t-171 -59.5q-99 0 -157 48.5t-58 129.5q0 73 55.5 117.5t125.5 56.5l22 106h51l14 -131q-75 -2 -126.5 -41.5t-51.5 -101.5q0 -59 35 -90t97 -31q75 0 111 48.5t32 135.5z" />
    <glyph glyph-name="Agrave" unicode="&#xc0;" horiz-adv-x="663" 
d="M372 731h-60l-94 116h101zM561 0l-77 204h-307l-79 -204h-85l263 671h116l258 -671h-89zM202 268h258l-86 228q-18 50 -42 123q-21 -64 -42 -122z" />
    <glyph glyph-name="Aacute" unicode="&#xc1;" horiz-adv-x="663" 
d="M455 847l-94 -116h-60l53 116h101zM561 0l-77 204h-307l-79 -204h-85l263 671h116l258 -671h-89zM202 268h258l-86 228q-18 50 -42 123q-21 -64 -42 -122z" />
    <glyph glyph-name="Acircumflex" unicode="&#xc2;" horiz-adv-x="663" 
d="M338 802l-53 -77h-89l105 116h73l105 -116h-89zM561 0l-77 204h-307l-79 -204h-85l263 671h116l258 -671h-89zM202 268h258l-86 228q-18 50 -42 123q-21 -64 -42 -122z" />
    <glyph glyph-name="Atilde" unicode="&#xc3;" horiz-adv-x="663" 
d="M282 779q-28 0 -29 -41h-50q11 96 83 96q25 0 58.5 -23.5t45.5 -23.5q27 0 30 41h49q-11 -96 -83 -96q-25 0 -58 23.5t-46 23.5zM561 0l-77 204h-307l-79 -204h-85l263 671h116l258 -671h-89zM202 268h258l-86 228q-18 50 -42 123q-21 -64 -42 -122z" />
    <glyph glyph-name="Adieresis" unicode="&#xc4;" horiz-adv-x="663" 
d="M307 816v-85h-95v85h95zM459 816v-85h-94v85h94zM561 0l-77 204h-307l-79 -204h-85l263 671h116l258 -671h-89zM202 268h258l-86 228q-18 50 -42 123q-21 -64 -42 -122z" />
    <glyph glyph-name="Aring" unicode="&#xc5;" horiz-adv-x="663" 
d="M337 717q-42 0 -67.5 24.5t-25.5 65.5q0 39 25.5 63t67.5 24q41 0 66.5 -24t25.5 -64t-25.5 -64.5t-66.5 -24.5zM337 849q-20 0 -31 -11.5t-11 -31.5q0 -21 11 -33t31 -12q19 0 30 12t11 33q0 20 -11 31.5t-30 11.5zM561 0l-77 204h-307l-79 -204h-85l263 671h116
l258 -671h-89zM202 268h258l-86 228q-18 50 -42 123q-21 -64 -42 -122z" />
    <glyph glyph-name="AE" unicode="&#xc6;" horiz-adv-x="872" 
d="M823 607h-406l91 -237h292v-64h-268l93 -242h198v-64h-262l-77 204h-305l-78 -204h-88l263 671h547v-64zM374 496q-14 37 -38 111h-6q-8 -24 -38 -110l-88 -229h256z" />
    <glyph glyph-name="Ccedilla" unicode="&#xc7;" horiz-adv-x="671" 
d="M632 218q-5 -96 -74.5 -157.5t-177.5 -67.5l-20 -47q89 -12 89 -73q0 -36 -28 -55.5t-73 -19.5q-41 0 -84 12v50q36 -17 77 -17q39 0 39 35q0 45 -101 44l47 72q-130 11 -203.5 101.5t-73.5 241.5q0 160 81.5 252.5t220.5 92.5q108 0 180 -54.5t79 -140.5l-77 -48
q-4 85 -53.5 132t-128.5 47q-99 0 -153.5 -73t-54.5 -208q0 -136 56.5 -208t161.5 -72q89 0 139.5 54t53.5 155z" />
    <glyph glyph-name="Egrave" unicode="&#xc8;" horiz-adv-x="568" 
d="M341 739h-60l-94 116h101zM519 607h-352v-235h328v-64h-328v-244h352v-64h-440v671h440v-64z" />
    <glyph glyph-name="Eacute" unicode="&#xc9;" horiz-adv-x="568" 
d="M424 855l-94 -116h-60l53 116h101zM519 607h-352v-235h328v-64h-328v-244h352v-64h-440v671h440v-64z" />
    <glyph glyph-name="Ecircumflex" unicode="&#xca;" horiz-adv-x="568" 
d="M307 810l-53 -77h-89l105 116h73l105 -116h-89zM519 607h-352v-235h328v-64h-328v-244h352v-64h-440v671h440v-64z" />
    <glyph glyph-name="Edieresis" unicode="&#xcb;" horiz-adv-x="568" 
d="M276 824v-85h-95v85h95zM428 824v-85h-94v85h94zM519 607h-352v-235h328v-64h-328v-244h352v-64h-440v671h440v-64z" />
    <glyph glyph-name="Igrave" unicode="&#xcc;" horiz-adv-x="246" 
d="M105 855l53 -116h-60l-94 116h101zM79 0v671h87v-671h-87z" />
    <glyph glyph-name="Iacute" unicode="&#xcd;" horiz-adv-x="246" 
d="M140 855h101l-94 -116h-60zM79 0v671h87v-671h-87z" />
    <glyph glyph-name="Icircumflex" unicode="&#xce;" horiz-adv-x="246" 
d="M160 849l105 -116h-89l-52 77l-53 -77h-89l105 116h73zM79 0v671h87v-671h-87z" />
    <glyph glyph-name="Idieresis" unicode="&#xcf;" horiz-adv-x="246" 
d="M-2 739v85h95v-85h-95zM151 739v85h94v-85h-94zM79 0v671h87v-671h-87z" />
    <glyph glyph-name="Eth" unicode="&#xd0;" horiz-adv-x="672" 
d="M268 671q176 0 265.5 -85t89.5 -250q0 -167 -89.5 -251.5t-265.5 -84.5h-189v308h-49v64h49v299h189zM259 64q139 0 205.5 67t66.5 205q0 137 -66.5 204t-205.5 67h-92v-235h134v-64h-134v-244h92z" />
    <glyph glyph-name="Ntilde" unicode="&#xd1;" horiz-adv-x="708" 
d="M300 787q-28 0 -29 -41h-50q11 96 83 96q25 0 58.5 -23.5t45.5 -23.5q27 0 30 41h49q-11 -96 -83 -96q-25 0 -58 23.5t-46 23.5zM546 671h83v-671h-134l-272 479q-26 47 -61 125v-604h-83v671h134l269 -475q29 -51 64 -127v602z" />
    <glyph glyph-name="Ograve" unicode="&#xd2;" horiz-adv-x="710" 
d="M337 855l53 -116h-60l-94 116h101zM355 -7q-141 0 -223.5 92.5t-82.5 251.5t82.5 252t223.5 93t223.5 -92.5t82.5 -252.5q0 -159 -82.5 -251.5t-223.5 -92.5zM355 56q101 0 157.5 74t56.5 207t-57 207t-158 74q-100 0 -156 -74t-56 -207t56 -207t157 -74z" />
    <glyph glyph-name="Oacute" unicode="&#xd3;" horiz-adv-x="710" 
d="M372 855h101l-94 -116h-60zM355 -7q-141 0 -223.5 92.5t-82.5 251.5t82.5 252t223.5 93t223.5 -92.5t82.5 -252.5q0 -159 -82.5 -251.5t-223.5 -92.5zM355 56q101 0 157.5 74t56.5 207t-57 207t-158 74q-100 0 -156 -74t-56 -207t56 -207t157 -74z" />
    <glyph glyph-name="Ocircumflex" unicode="&#xd4;" horiz-adv-x="710" 
d="M357 810l-53 -77h-89l105 116h73l105 -116h-89zM355 682q141 0 223.5 -92.5t82.5 -252.5q0 -159 -82.5 -251.5t-223.5 -92.5t-223.5 92.5t-82.5 251.5t82.5 252t223.5 93zM355 56q101 0 157.5 74t56.5 207t-57 207t-158 74q-100 0 -156 -74t-56 -207t56 -207t157 -74z
" />
    <glyph glyph-name="Otilde" unicode="&#xd5;" horiz-adv-x="710" 
d="M405 740q-25 0 -58 23.5t-46 23.5q-28 0 -29 -41h-50q11 96 83 96q25 0 58.5 -23.5t45.5 -23.5q27 0 30 41h49q-11 -96 -83 -96zM355 -7q-141 0 -223.5 92.5t-82.5 251.5t82.5 252t223.5 93t223.5 -92.5t82.5 -252.5q0 -159 -82.5 -251.5t-223.5 -92.5zM355 56
q101 0 157.5 74t56.5 207t-57 207t-158 74q-100 0 -156 -74t-56 -207t56 -207t157 -74z" />
    <glyph glyph-name="Odieresis" unicode="&#xd6;" horiz-adv-x="710" 
d="M231 739v85h95v-85h-95zM384 739v85h94v-85h-94zM355 -7q-141 0 -223.5 92.5t-82.5 251.5t82.5 252t223.5 93t223.5 -92.5t82.5 -252.5q0 -159 -82.5 -251.5t-223.5 -92.5zM355 56q101 0 157.5 74t56.5 207t-57 207t-158 74q-100 0 -156 -74t-56 -207t56 -207t157 -74z
" />
    <glyph glyph-name="multiply" unicode="&#xd7;" horiz-adv-x="579" 
d="M499 427l-164 -164l164 -164l-45 -45l-164 164l-165 -164l-45 45l164 164l-164 164l45 45l165 -164l164 164z" />
    <glyph glyph-name="Oslash" unicode="&#xd8;" horiz-adv-x="710" 
d="M586 580q75 -92 75 -243q0 -159 -82.5 -251.5t-223.5 -92.5q-104 0 -179 53l-41 -53h-80l74 96q-80 93 -80 248q0 159 82.5 252t223.5 93q109 0 186 -57l36 47h80zM142 337q0 -108 39 -180l313 407q-56 54 -140 54q-100 0 -156 -74t-56 -207zM355 56q101 0 157.5 74
t56.5 207q0 104 -36 174l-312 -406q54 -49 134 -49z" />
    <glyph glyph-name="Ugrave" unicode="&#xd9;" horiz-adv-x="649" 
d="M359 739h-60l-94 116h101zM488 671h87v-440q0 -120 -60 -179t-190 -59t-190.5 59t-60.5 179v440h87l1 -433q0 -93 36.5 -137t126.5 -44t126.5 44.5t36.5 136.5v433z" />
    <glyph glyph-name="Uacute" unicode="&#xda;" horiz-adv-x="649" 
d="M442 855l-94 -116h-60l53 116h101zM488 671h87v-440q0 -120 -60 -179t-190 -59t-190.5 59t-60.5 179v440h87l1 -433q0 -93 36.5 -137t126.5 -44t126.5 44.5t36.5 136.5v433z" />
    <glyph glyph-name="Ucircumflex" unicode="&#xdb;" horiz-adv-x="649" 
d="M325 810l-53 -77h-89l105 116h73l105 -116h-89zM488 671h87v-440q0 -120 -60 -179t-190 -59t-190.5 59t-60.5 179v440h87l1 -433q0 -93 36.5 -137t126.5 -44t126.5 44.5t36.5 136.5v433z" />
    <glyph glyph-name="Udieresis" unicode="&#xdc;" horiz-adv-x="649" 
d="M294 824v-85h-95v85h95zM446 824v-85h-94v85h94zM488 671h87v-440q0 -120 -60 -179t-190 -59t-190.5 59t-60.5 179v440h87l1 -433q0 -93 36.5 -137t126.5 -44t126.5 44.5t36.5 136.5v433z" />
    <glyph glyph-name="Yacute" unicode="&#xdd;" horiz-adv-x="588" 
d="M412 855l-94 -116h-60l53 116h101zM579 671l-241 -383v-288h-86v285l-243 386h98l189 -309l189 309h94z" />
    <glyph glyph-name="Thorn" unicode="&#xde;" horiz-adv-x="619" 
d="M356 530q108 0 168 -46t60 -138q0 -93 -60 -139t-168 -46h-190v-161h-87v671h87v-141h190zM349 225q146 0 146 121t-146 121h-183v-242h183z" />
    <glyph glyph-name="germandbls" unicode="&#xdf;" horiz-adv-x="547" 
d="M316 350q93 -15 144.5 -63.5t51.5 -121.5q0 -82 -57.5 -127.5t-138.5 -45.5q-109 0 -150 81v-223h-86v639q0 87 55.5 135.5t142.5 48.5q81 0 137 -46.5t56 -120.5q0 -63 -43 -103t-112 -53zM309 47q53 0 84 32t31 95q0 60 -42 100.5t-120 47.5v54q54 3 90 31t36 83
q0 60 -32 92t-81 32q-47 0 -78 -29t-31 -80v-347q6 -49 45.5 -80t97.5 -31z" />
    <glyph glyph-name="agrave" unicode="&#xe0;" horiz-adv-x="535" 
d="M299 574h-60l-94 116h101zM261 514q96 0 148 -43t52 -121v-350h-86v96q-19 -47 -61 -75t-97 -28q-75 0 -121.5 38.5t-46.5 103.5q0 124 184 162l142 30v19q0 113 -119 113q-59 0 -92.5 -31t-40.5 -86l-74 32q8 60 67 100t145 40zM246 50q54 0 92 41.5t38 101.5v93
l-125 -32q-107 -27 -107 -109q0 -95 102 -95z" />
    <glyph glyph-name="aacute" unicode="&#xe1;" horiz-adv-x="535" 
d="M382 690l-94 -116h-60l53 116h101zM261 514q96 0 148 -43t52 -121v-350h-86v96q-19 -47 -61 -75t-97 -28q-75 0 -121.5 38.5t-46.5 103.5q0 124 184 162l142 30v19q0 113 -119 113q-59 0 -92.5 -31t-40.5 -86l-74 32q8 60 67 100t145 40zM246 50q54 0 92 41.5t38 101.5
v93l-125 -32q-107 -27 -107 -109q0 -95 102 -95z" />
    <glyph glyph-name="acircumflex" unicode="&#xe2;" horiz-adv-x="535" 
d="M265 645l-53 -77h-89l105 116h73l105 -116h-89zM261 514q96 0 148 -43t52 -121v-350h-86v96q-19 -47 -61 -75t-97 -28q-75 0 -121.5 38.5t-46.5 103.5q0 124 184 162l142 30v19q0 113 -119 113q-59 0 -92.5 -31t-40.5 -86l-74 32q8 60 67 100t145 40zM246 50
q54 0 92 41.5t38 101.5v93l-125 -32q-107 -27 -107 -109q0 -95 102 -95z" />
    <glyph glyph-name="atilde" unicode="&#xe3;" horiz-adv-x="535" 
d="M209 622q-28 0 -29 -41h-50q11 96 83 96q25 0 58.5 -23.5t45.5 -23.5q27 0 30 41h49q-11 -96 -83 -96q-25 0 -58 23.5t-46 23.5zM261 514q96 0 148 -43t52 -121v-350h-86v96q-19 -47 -61 -75t-97 -28q-75 0 -121.5 38.5t-46.5 103.5q0 124 184 162l142 30v19
q0 113 -119 113q-59 0 -92.5 -31t-40.5 -86l-74 32q8 60 67 100t145 40zM246 50q54 0 92 41.5t38 101.5v93l-125 -32q-107 -27 -107 -109q0 -95 102 -95z" />
    <glyph glyph-name="adieresis" unicode="&#xe4;" horiz-adv-x="535" 
d="M234 659v-85h-95v85h95zM386 659v-85h-94v85h94zM261 514q96 0 148 -43t52 -121v-350h-86v96q-19 -47 -61 -75t-97 -28q-75 0 -121.5 38.5t-46.5 103.5q0 124 184 162l142 30v19q0 113 -119 113q-59 0 -92.5 -31t-40.5 -86l-74 32q8 60 67 100t145 40zM246 50
q54 0 92 41.5t38 101.5v93l-125 -32q-107 -27 -107 -109q0 -95 102 -95z" />
    <glyph glyph-name="aring" unicode="&#xe5;" horiz-adv-x="535" 
d="M263 560q-39 0 -63 23.5t-24 61.5q0 37 24 59.5t63 22.5t63 -23t24 -60q0 -38 -24 -61t-63 -23zM263 686q-18 0 -28.5 -11.5t-10.5 -30.5t10.5 -31t28.5 -12q19 0 29.5 12t10.5 31t-10.5 30.5t-29.5 11.5zM261 514q96 0 148 -43t52 -121v-350h-86v96q-19 -47 -61 -75
t-97 -28q-75 0 -121.5 38.5t-46.5 103.5q0 124 184 162l142 30v19q0 113 -119 113q-59 0 -92.5 -31t-40.5 -86l-74 32q8 60 67 100t145 40zM246 50q54 0 92 41.5t38 101.5v93l-125 -32q-107 -27 -107 -109q0 -95 102 -95z" />
    <glyph glyph-name="ae" unicode="&#xe6;" horiz-adv-x="880" 
d="M761 162l71 -43q-55 -126 -212 -126q-103 0 -169 61v-54h-76v97q-21 -48 -63.5 -76t-99.5 -28q-74 0 -118.5 38.5t-44.5 103.5q0 124 184 162l142 30v19q0 113 -119 113q-59 0 -92.5 -31t-40.5 -86l-74 32q8 60 67 100t145 40q130 0 172 -80q64 80 176 80
q102 0 159.5 -71t58.5 -192h-1l1 -3h-359q2 -94 44.5 -147t117.5 -53q106 0 131 114zM609 459q-60 0 -95.5 -43t-43.5 -121h263q-5 86 -34.5 125t-89.5 39zM246 50q54 0 92 41.5t38 101.5v93l-125 -32q-107 -27 -107 -109q0 -95 102 -95z" />
    <glyph glyph-name="ccedilla" unicode="&#xe7;" horiz-adv-x="529" 
d="M499 139q-32 -132 -178 -145l-17 -39q41 -3 62.5 -21.5t21.5 -45.5q0 -33 -25.5 -51t-67.5 -18q-41 0 -76 11v48q28 -17 69 -17q37 0 37 33q0 43 -92 42l38 58q-102 7 -162 76t-60 183q0 120 66.5 190.5t177.5 70.5q68 0 119.5 -33.5t72.5 -91.5l-76 -43
q-30 113 -124 113q-66 0 -104 -54t-38 -152q0 -100 41.5 -153t118.5 -53q52 0 84.5 34t39.5 101z" />
    <glyph glyph-name="egrave" unicode="&#xe8;" horiz-adv-x="553" 
d="M315 574h-60l-94 116h101zM434 162l72 -43q-57 -126 -213 -126q-112 0 -178 70t-66 190q0 118 64 189.5t169 71.5q102 0 159.5 -71t58.5 -192h-1l1 -3h-359q2 -94 44.5 -147t117.5 -53q105 0 131 114zM282 459q-60 0 -95.5 -43t-43.5 -121h263q-5 86 -34.5 125t-89.5 39z
" />
    <glyph glyph-name="eacute" unicode="&#xe9;" horiz-adv-x="553" 
d="M398 690l-94 -116h-60l53 116h101zM434 162l72 -43q-57 -126 -213 -126q-112 0 -178 70t-66 190q0 118 64 189.5t169 71.5q102 0 159.5 -71t58.5 -192h-1l1 -3h-359q2 -94 44.5 -147t117.5 -53q105 0 131 114zM282 459q-60 0 -95.5 -43t-43.5 -121h263q-5 86 -34.5 125
t-89.5 39z" />
    <glyph glyph-name="ecircumflex" unicode="&#xea;" horiz-adv-x="553" 
d="M281 645l-53 -77h-89l105 116h73l105 -116h-89zM434 162l72 -43q-57 -126 -213 -126q-112 0 -178 70t-66 190q0 118 64 189.5t169 71.5q102 0 159.5 -71t58.5 -192h-1l1 -3h-359q2 -94 44.5 -147t117.5 -53q105 0 131 114zM282 459q-60 0 -95.5 -43t-43.5 -121h263
q-5 86 -34.5 125t-89.5 39z" />
    <glyph glyph-name="edieresis" unicode="&#xeb;" horiz-adv-x="553" 
d="M250 659v-85h-95v85h95zM402 659v-85h-94v85h94zM434 162l72 -43q-57 -126 -213 -126q-112 0 -178 70t-66 190q0 118 64 189.5t169 71.5q102 0 159.5 -71t58.5 -192h-1l1 -3h-359q2 -94 44.5 -147t117.5 -53q105 0 131 114zM282 459q-60 0 -95.5 -43t-43.5 -121h263
q-5 86 -34.5 125t-89.5 39z" />
    <glyph glyph-name="igrave" unicode="&#xec;" horiz-adv-x="246" 
d="M105 685l53 -116h-60l-94 116h101zM80 0v499h85v-499h-85z" />
    <glyph glyph-name="iacute" unicode="&#xed;" horiz-adv-x="246" 
d="M140 685h101l-94 -116h-60zM80 0v499h85v-499h-85z" />
    <glyph glyph-name="icircumflex" unicode="&#xee;" horiz-adv-x="246" 
d="M160 679l105 -116h-89l-52 77l-53 -77h-89l105 116h73zM80 0v499h85v-499h-85z" />
    <glyph glyph-name="idieresis" unicode="&#xef;" horiz-adv-x="246" 
d="M-2 569v85h95v-85h-95zM151 569v85h94v-85h-94zM80 0v499h85v-499h-85z" />
    <glyph glyph-name="eth" unicode="&#xf0;" horiz-adv-x="551" 
d="M405 566q91 -104 91 -269q0 -142 -59.5 -223.5t-172.5 -81.5q-105 0 -164.5 65t-59.5 170q0 104 57.5 170.5t148.5 66.5q128 0 175 -131q0 120 -79 207l-111 -48v62l65 28q-59 45 -136 71l60 25q79 -22 139 -69l97 42v-63zM270 46q62 0 98.5 50t36.5 131q0 78 -39.5 130
t-95.5 52q-61 0 -98.5 -52t-37.5 -130t37 -129.5t99 -51.5z" />
    <glyph glyph-name="ntilde" unicode="&#xf1;" horiz-adv-x="577" 
d="M236 622q-28 0 -29 -41h-50q11 96 83 96q25 0 58.5 -23.5t45.5 -23.5q27 0 30 41h49q-11 -96 -83 -96q-25 0 -58 23.5t-46 23.5zM327 514q83 0 129.5 -47.5t46.5 -131.5v-335h-85v327q0 58 -29 92.5t-87 34.5q-63 0 -99.5 -43.5t-38.5 -110.5v-300h-85v498h85v-98
q44 114 163 114z" />
    <glyph glyph-name="ograve" unicode="&#xf2;" horiz-adv-x="584" 
d="M274 690l53 -116h-60l-94 116h101zM292 -7q-111 0 -177 70.5t-66 189.5q0 120 66 190.5t177 70.5q112 0 177 -70.5t65 -190.5q0 -119 -65 -189.5t-177 -70.5zM292 48q73 0 111.5 53t38.5 152t-38.5 152.5t-111.5 53.5q-72 0 -111 -53.5t-39 -152.5q0 -98 39 -151.5
t111 -53.5z" />
    <glyph glyph-name="oacute" unicode="&#xf3;" horiz-adv-x="584" 
d="M309 690h101l-94 -116h-60zM292 -7q-111 0 -177 70.5t-66 189.5q0 120 66 190.5t177 70.5q112 0 177 -70.5t65 -190.5q0 -119 -65 -189.5t-177 -70.5zM292 48q73 0 111.5 53t38.5 152t-38.5 152.5t-111.5 53.5q-72 0 -111 -53.5t-39 -152.5q0 -98 39 -151.5t111 -53.5z
" />
    <glyph glyph-name="ocircumflex" unicode="&#xf4;" horiz-adv-x="584" 
d="M293 645l-53 -77h-89l105 116h73l105 -116h-89zM292 514q112 0 177 -70.5t65 -190.5q0 -119 -65 -189.5t-177 -70.5q-111 0 -177 70.5t-66 189.5q0 120 66 190.5t177 70.5zM292 48q73 0 111.5 53t38.5 152t-38.5 152.5t-111.5 53.5q-72 0 -111 -53.5t-39 -152.5
q0 -98 39 -151.5t111 -53.5z" />
    <glyph glyph-name="otilde" unicode="&#xf5;" horiz-adv-x="584" 
d="M342 575q-25 0 -58 23.5t-46 23.5q-28 0 -29 -41h-50q11 96 83 96q25 0 58.5 -23.5t45.5 -23.5q27 0 30 41h49q-11 -96 -83 -96zM292 -7q-111 0 -177 70.5t-66 189.5q0 120 66 190.5t177 70.5q112 0 177 -70.5t65 -190.5q0 -119 -65 -189.5t-177 -70.5zM292 48
q73 0 111.5 53t38.5 152t-38.5 152.5t-111.5 53.5q-72 0 -111 -53.5t-39 -152.5q0 -98 39 -151.5t111 -53.5z" />
    <glyph glyph-name="odieresis" unicode="&#xf6;" horiz-adv-x="584" 
d="M167 574v85h95v-85h-95zM320 574v85h94v-85h-94zM292 -7q-111 0 -177 70.5t-66 189.5q0 120 66 190.5t177 70.5q112 0 177 -70.5t65 -190.5q0 -119 -65 -189.5t-177 -70.5zM292 48q73 0 111.5 53t38.5 152t-38.5 152.5t-111.5 53.5q-72 0 -111 -53.5t-39 -152.5
q0 -98 39 -151.5t111 -53.5z" />
    <glyph glyph-name="divide" unicode="&#xf7;" horiz-adv-x="600" 
d="M277 415v77h77v-77h-77zM80 233v64h470v-64h-470zM277 38v77h77v-77h-77z" />
    <glyph glyph-name="oslash" unicode="&#xf8;" horiz-adv-x="584" 
d="M534 509l-59 -73q59 -70 59 -183q0 -119 -65 -189.5t-177 -70.5q-83 0 -141 40l-32 -40h-70l61 76q-61 69 -61 184q0 120 66 190.5t177 70.5q84 0 145 -42l30 37h67zM142 253q0 -73 21 -119l230 284q-38 41 -101 41q-72 0 -111 -53.5t-39 -152.5zM442 253q0 68 -19 117
l-229 -284q38 -38 98 -38q73 0 111.5 53t38.5 152z" />
    <glyph glyph-name="ugrave" unicode="&#xf9;" horiz-adv-x="582" 
d="M327 574h-60l-94 116h101zM417 498h85v-498h-85v106q-45 -113 -167 -113q-176 0 -176 174v331h86v-319q0 -60 29 -94.5t88 -34.5q65 0 102 43.5t38 112.5v292z" />
    <glyph glyph-name="uacute" unicode="&#xfa;" horiz-adv-x="582" 
d="M410 690l-94 -116h-60l53 116h101zM417 498h85v-498h-85v106q-45 -113 -167 -113q-176 0 -176 174v331h86v-319q0 -60 29 -94.5t88 -34.5q65 0 102 43.5t38 112.5v292z" />
    <glyph glyph-name="ucircumflex" unicode="&#xfb;" horiz-adv-x="582" 
d="M293 645l-53 -77h-89l105 116h73l105 -116h-89zM417 498h85v-498h-85v106q-45 -113 -167 -113q-176 0 -176 174v331h86v-319q0 -60 29 -94.5t88 -34.5q65 0 102 43.5t38 112.5v292z" />
    <glyph glyph-name="udieresis" unicode="&#xfc;" horiz-adv-x="582" 
d="M262 659v-85h-95v85h95zM414 659v-85h-94v85h94zM417 498h85v-498h-85v106q-45 -113 -167 -113q-176 0 -176 174v331h86v-319q0 -60 29 -94.5t88 -34.5q65 0 102 43.5t38 112.5v292z" />
    <glyph glyph-name="yacute" unicode="&#xfd;" horiz-adv-x="511" 
d="M379 690l-94 -116h-60l53 116h101zM393 498h89l-249 -648h-86l80 180l-199 468h90l122 -303q18 -46 25 -69z" />
    <glyph glyph-name="thorn" unicode="&#xfe;" horiz-adv-x="597" 
d="M335 514q96 0 154.5 -71.5t58.5 -189.5q0 -117 -58.5 -188.5t-154.5 -71.5q-124 0 -170 112v-255h-85v821h85v-269q46 112 170 112zM310 48q67 0 106 55.5t39 149.5q0 95 -39 150.5t-106 55.5q-65 0 -106.5 -57.5t-41.5 -148.5t41.5 -148t106.5 -57z" />
    <glyph glyph-name="ydieresis" unicode="&#xff;" horiz-adv-x="511" 
d="M231 659v-85h-95v85h95zM383 659v-85h-94v85h94zM393 498h89l-249 -648h-86l80 180l-199 468h90l122 -303q18 -46 25 -69z" />
    <glyph glyph-name="Amacron" unicode="&#x100;" horiz-adv-x="663" 
d="M457 786v-55h-240v55h240zM561 0l-77 204h-307l-79 -204h-85l263 671h116l258 -671h-89zM202 268h258l-86 228q-18 50 -42 123q-21 -64 -42 -122z" />
    <glyph glyph-name="amacron" unicode="&#x101;" horiz-adv-x="535" 
d="M384 629v-55h-240v55h240zM261 514q96 0 148 -43t52 -121v-350h-86v96q-19 -47 -61 -75t-97 -28q-75 0 -121.5 38.5t-46.5 103.5q0 124 184 162l142 30v19q0 113 -119 113q-59 0 -92.5 -31t-40.5 -86l-74 32q8 60 67 100t145 40zM246 50q54 0 92 41.5t38 101.5v93
l-125 -32q-107 -27 -107 -109q0 -95 102 -95z" />
    <glyph glyph-name="Abreve" unicode="&#x102;" horiz-adv-x="663" 
d="M338 725q-74 0 -104.5 29t-37.5 87h83q0 -77 59 -77q58 0 58 77h83q-7 -57 -38 -86.5t-103 -29.5zM561 0l-77 204h-307l-79 -204h-85l263 671h116l258 -671h-89zM202 268h258l-86 228q-18 50 -42 123q-21 -64 -42 -122z" />
    <glyph glyph-name="abreve" unicode="&#x103;" horiz-adv-x="535" 
d="M265 568q-74 0 -104.5 29t-37.5 87h83q0 -77 59 -77q58 0 58 77h83q-7 -57 -38 -86.5t-103 -29.5zM261 514q96 0 148 -43t52 -121v-350h-86v96q-19 -47 -61 -75t-97 -28q-75 0 -121.5 38.5t-46.5 103.5q0 124 184 162l142 30v19q0 113 -119 113q-59 0 -92.5 -31
t-40.5 -86l-74 32q8 60 67 100t145 40zM246 50q54 0 92 41.5t38 101.5v93l-125 -32q-107 -27 -107 -109q0 -95 102 -95z" />
    <glyph glyph-name="Aogonek" unicode="&#x104;" horiz-adv-x="663" 
d="M650 0q-22 -22 -32 -44.5t-6 -39t16 -26.5t34 -8.5t46 16.5v-46q-32 -20 -63.5 -20.5t-51 15t-29.5 39.5t-0.5 55t37.5 59h-40l-77 204h-307l-79 -204h-85l263 671h116zM202 268h258l-86 228q-18 50 -42 123q-21 -64 -42 -122z" />
    <glyph glyph-name="aogonek" unicode="&#x105;" horiz-adv-x="535" 
d="M461 0q-22 -22 -32 -44.5t-6 -39t16 -26.5t34 -8.5t46 16.5v-46q-32 -20 -63.5 -20.5t-51 15t-29.5 39.5t-0.5 55t37.5 59h-37v96q-19 -47 -61 -75t-97 -28q-75 0 -121.5 38.5t-46.5 103.5q0 124 184 162l142 30v19q0 113 -119 113q-59 0 -92.5 -31t-40.5 -86l-74 32
q8 60 67 100t145 40q96 0 148 -43t52 -121v-350zM246 50q54 0 92 41.5t38 101.5v93l-125 -32q-107 -27 -107 -109q0 -95 102 -95z" />
    <glyph glyph-name="Cacute" unicode="&#x106;" horiz-adv-x="671" 
d="M454 855l-94 -116h-60l53 116h101zM554 266l78 -48q-5 -100 -80.5 -162.5t-190.5 -62.5q-145 0 -228.5 91.5t-83.5 252.5q0 160 81.5 252.5t220.5 92.5q108 0 180 -54.5t79 -140.5l-77 -48q-4 85 -53.5 132t-128.5 47q-99 0 -153.5 -73t-54.5 -208q0 -136 56.5 -208
t161.5 -72q89 0 139.5 54t53.5 155z" />
    <glyph glyph-name="cacute" unicode="&#x107;" horiz-adv-x="529" 
d="M401 695l-94 -116h-60l53 116h101zM427 182l72 -43q-18 -73 -71.5 -109.5t-134.5 -36.5q-112 0 -178 70t-66 190t66.5 190.5t177.5 70.5q68 0 119.5 -33.5t72.5 -91.5l-76 -43q-30 113 -124 113q-66 0 -104 -54t-38 -152q0 -100 41.5 -153t118.5 -53q52 0 84.5 34
t39.5 101z" />
    <glyph glyph-name="Cdotaccent" unicode="&#x10a;" horiz-adv-x="671" 
d="M383 829v-90h-95v90h95zM554 266l78 -48q-5 -100 -80.5 -162.5t-190.5 -62.5q-145 0 -228.5 91.5t-83.5 252.5q0 160 81.5 252.5t220.5 92.5q108 0 180 -54.5t79 -140.5l-77 -48q-4 85 -53.5 132t-128.5 47q-99 0 -153.5 -73t-54.5 -208q0 -136 56.5 -208t161.5 -72
q89 0 139.5 54t53.5 155z" />
    <glyph glyph-name="cdotaccent" unicode="&#x10b;" horiz-adv-x="529" 
d="M330 669v-90h-95v90h95zM427 182l72 -43q-18 -73 -71.5 -109.5t-134.5 -36.5q-112 0 -178 70t-66 190t66.5 190.5t177.5 70.5q68 0 119.5 -33.5t72.5 -91.5l-76 -43q-30 113 -124 113q-66 0 -104 -54t-38 -152q0 -100 41.5 -153t118.5 -53q52 0 84.5 34t39.5 101z" />
    <glyph glyph-name="Ccaron" unicode="&#x10c;" horiz-adv-x="671" 
d="M300 733l-105 116h89l53 -77l52 77h89l-105 -116h-73zM554 266l78 -48q-5 -100 -80.5 -162.5t-190.5 -62.5q-145 0 -228.5 91.5t-83.5 252.5q0 160 81.5 252.5t220.5 92.5q108 0 180 -54.5t79 -140.5l-77 -48q-4 85 -53.5 132t-128.5 47q-99 0 -153.5 -73t-54.5 -208
q0 -136 56.5 -208t161.5 -72q89 0 139.5 54t53.5 155z" />
    <glyph glyph-name="ccaron" unicode="&#x10d;" horiz-adv-x="529" 
d="M247 573l-105 116h89l53 -77l52 77h89l-105 -116h-73zM427 182l72 -43q-18 -73 -71.5 -109.5t-134.5 -36.5q-112 0 -178 70t-66 190t66.5 190.5t177.5 70.5q68 0 119.5 -33.5t72.5 -91.5l-76 -43q-30 113 -124 113q-66 0 -104 -54t-38 -152q0 -100 41.5 -153t118.5 -53
q52 0 84.5 34t39.5 101z" />
    <glyph glyph-name="Dcaron" unicode="&#x10e;" horiz-adv-x="672" 
d="M255 733l-105 116h89l53 -77l52 77h89l-105 -116h-73zM268 671q176 0 265.5 -85t89.5 -250q0 -167 -89.5 -251.5t-265.5 -84.5h-189v671h189zM259 64q139 0 205.5 67t66.5 205q0 137 -66.5 204t-205.5 67h-92v-543h92z" />
    <glyph glyph-name="dcaron" unicode="&#x10f;" horiz-adv-x="727" 
d="M438 399v272h85v-671h-85v108q-44 -115 -169 -115q-96 0 -155.5 71.5t-59.5 188.5t59.5 189t155.5 72q125 0 169 -115zM616 671h101l-94 -116h-59zM294 48q65 0 106 57t41 148t-41 148.5t-106 57.5q-67 0 -106.5 -55.5t-39.5 -150.5q0 -94 39.5 -149.5t106.5 -55.5z" />
    <glyph glyph-name="Dcroat" unicode="&#x110;" horiz-adv-x="672" 
d="M268 671q176 0 265.5 -85t89.5 -250q0 -167 -89.5 -251.5t-265.5 -84.5h-189v308h-49v64h49v299h189zM259 64q139 0 205.5 67t66.5 205q0 137 -66.5 204t-205.5 67h-92v-235h134v-64h-134v-244h92z" />
    <glyph glyph-name="dcroat" unicode="&#x111;" horiz-adv-x="602" 
d="M587 591v-50h-64v-541h-85v108q-44 -115 -169 -115q-96 0 -155.5 71.5t-59.5 188.5t59.5 189t155.5 72q125 0 169 -115v142h-89v50h89v80h85v-80h64zM294 48q65 0 106 57t41 148t-41 148.5t-106 57.5q-67 0 -106.5 -55.5t-39.5 -150.5q0 -94 39.5 -149.5t106.5 -55.5z
" />
    <glyph glyph-name="Emacron" unicode="&#x112;" horiz-adv-x="568" 
d="M427 794v-55h-240v55h240zM519 607h-352v-235h328v-64h-328v-244h352v-64h-440v671h440v-64z" />
    <glyph glyph-name="emacron" unicode="&#x113;" horiz-adv-x="553" 
d="M400 629v-55h-240v55h240zM434 162l72 -43q-57 -126 -213 -126q-112 0 -178 70t-66 190q0 118 64 189.5t169 71.5q102 0 159.5 -71t58.5 -192h-1l1 -3h-359q2 -94 44.5 -147t117.5 -53q105 0 131 114zM282 459q-60 0 -95.5 -43t-43.5 -121h263q-5 86 -34.5 125t-89.5 39z
" />
    <glyph glyph-name="Edotaccent" unicode="&#x116;" horiz-adv-x="568" 
d="M353 829v-90h-95v90h95zM519 607h-352v-235h328v-64h-328v-244h352v-64h-440v671h440v-64z" />
    <glyph glyph-name="edotaccent" unicode="&#x117;" horiz-adv-x="553" 
d="M327 664v-90h-95v90h95zM434 162l72 -43q-57 -126 -213 -126q-112 0 -178 70t-66 190q0 118 64 189.5t169 71.5q102 0 159.5 -71t58.5 -192h-1l1 -3h-359q2 -94 44.5 -147t117.5 -53q105 0 131 114zM282 459q-60 0 -95.5 -43t-43.5 -121h263q-5 86 -34.5 125t-89.5 39z
" />
    <glyph glyph-name="Eogonek" unicode="&#x118;" horiz-adv-x="568" 
d="M519 0q-22 -22 -32 -44.5t-6 -39t16 -26.5t34 -8.5t46 16.5v-46q-32 -20 -63.5 -20.5t-51 15t-29.5 39.5t-0.5 55t37.5 59h-391v671h440v-64h-352v-235h328v-64h-328v-244h352v-64z" />
    <glyph glyph-name="eogonek" unicode="&#x119;" horiz-adv-x="553" 
d="M433 30q-22 -22 -32 -44.5t-6 -39t16 -26.5t34 -8.5t46 16.5v-46q-36 -22 -70.5 -20.5t-53.5 22.5t-24 51t17 65q-29 -7 -67 -7q-112 0 -178 70t-66 190q0 118 64 189.5t169 71.5q102 0 159.5 -71t58.5 -192h-1l1 -3h-359q2 -94 44.5 -147t117.5 -53q105 0 131 114
l72 -43q-26 -58 -73 -89zM282 459q-60 0 -95.5 -43t-43.5 -121h263q-5 86 -34.5 125t-89.5 39z" />
    <glyph glyph-name="Ecaron" unicode="&#x11a;" horiz-adv-x="568" 
d="M270 733l-105 116h89l53 -77l52 77h89l-105 -116h-73zM519 607h-352v-235h328v-64h-328v-244h352v-64h-440v671h440v-64z" />
    <glyph glyph-name="ecaron" unicode="&#x11b;" horiz-adv-x="553" 
d="M244 568l-105 116h89l53 -77l52 77h89l-105 -116h-73zM434 162l72 -43q-57 -126 -213 -126q-112 0 -178 70t-66 190q0 118 64 189.5t169 71.5q102 0 159.5 -71t58.5 -192h-1l1 -3h-359q2 -94 44.5 -147t117.5 -53q105 0 131 114zM282 459q-60 0 -95.5 -43t-43.5 -121h263
q-5 86 -34.5 125t-89.5 39z" />
    <glyph glyph-name="Gbreve" unicode="&#x11e;" horiz-adv-x="709" 
d="M352 733q-73 0 -104 32t-38 91h83q0 -74 59 -74q58 0 58 74h83q-7 -59 -38.5 -91t-102.5 -32zM633 352v-352h-84v133q-37 -140 -203 -140q-136 0 -216.5 92t-80.5 252q0 161 83 253t227 92q114 0 185.5 -52t79.5 -133l-75 -46q-7 79 -57.5 123t-132.5 44
q-104 0 -160.5 -73t-56.5 -208q0 -134 55 -207t154 -73q184 0 198 193v39h-193v63h277z" />
    <glyph glyph-name="gbreve" unicode="&#x11f;" horiz-adv-x="580" 
d="M299 568q-73 0 -104 32t-38 91h83q0 -74 59 -74q58 0 58 74h83q-7 -59 -38.5 -91t-102.5 -32zM420 498h85v-438q0 -107 -61.5 -161.5t-171.5 -54.5q-78 0 -134.5 33.5t-79.5 90.5l78 44q18 -58 51 -87t91 -29q142 0 142 181v83q-21 -55 -62.5 -84.5t-96.5 -29.5
q-92 0 -150.5 66t-58.5 168t59.5 168t153.5 66q111 0 155 -112v96zM283 101q59 0 98.5 51t39.5 128t-39.5 128.5t-98.5 51.5q-61 0 -99 -49.5t-38 -130.5q0 -80 38 -129.5t99 -49.5z" />
    <glyph glyph-name="Gdotaccent" unicode="&#x120;" horiz-adv-x="709" 
d="M398 829v-90h-95v90h95zM633 352v-352h-84v133q-37 -140 -203 -140q-136 0 -216.5 92t-80.5 252q0 161 83 253t227 92q114 0 185.5 -52t79.5 -133l-75 -46q-7 79 -57.5 123t-132.5 44q-104 0 -160.5 -73t-56.5 -208q0 -134 55 -207t154 -73q184 0 198 193v39h-193v63h277
z" />
    <glyph glyph-name="gdotaccent" unicode="&#x121;" horiz-adv-x="580" 
d="M345 664v-90h-95v90h95zM420 498h85v-438q0 -107 -61.5 -161.5t-171.5 -54.5q-78 0 -134.5 33.5t-79.5 90.5l78 44q18 -58 51 -87t91 -29q142 0 142 181v83q-21 -55 -62.5 -84.5t-96.5 -29.5q-92 0 -150.5 66t-58.5 168t59.5 168t153.5 66q111 0 155 -112v96zM283 101
q59 0 98.5 51t39.5 128t-39.5 128.5t-98.5 51.5q-61 0 -99 -49.5t-38 -130.5q0 -80 38 -129.5t99 -49.5z" />
    <glyph glyph-name="uni0122" unicode="&#x122;" horiz-adv-x="709" 
d="M633 352v-352h-84v133q-37 -140 -203 -140q-136 0 -216.5 92t-80.5 252q0 161 83 253t227 92q114 0 185.5 -52t79.5 -133l-75 -46q-7 79 -57.5 123t-132.5 44q-104 0 -160.5 -73t-56.5 -208q0 -134 55 -207t154 -73q184 0 198 193v39h-193v63h277zM251 -182l53 116h101
l-94 -116h-60z" />
    <glyph glyph-name="uni0123" unicode="&#x123;" horiz-adv-x="580" 
d="M401 690l-53 -116h-101l94 116h60zM420 498h85v-438q0 -107 -61.5 -161.5t-171.5 -54.5q-78 0 -134.5 33.5t-79.5 90.5l78 44q18 -58 51 -87t91 -29q142 0 142 181v83q-21 -55 -62.5 -84.5t-96.5 -29.5q-92 0 -150.5 66t-58.5 168t59.5 168t153.5 66q111 0 155 -112v96z
M283 101q59 0 98.5 51t39.5 128t-39.5 128.5t-98.5 51.5q-61 0 -99 -49.5t-38 -130.5q0 -80 38 -129.5t99 -49.5z" />
    <glyph glyph-name="Hbar" unicode="&#x126;" horiz-adv-x="683" 
d="M650 553v-63h-49v-490h-87v308h-345v-308h-87v490h-49v63h49v118h87v-118h345v118h87v-118h49zM514 372v118h-345v-118h345z" />
    <glyph glyph-name="hbar" unicode="&#x127;" horiz-adv-x="581" 
d="M327 515q83 0 129.5 -48t46.5 -132v-335h-86v327q0 58 -29 92.5t-86 34.5q-63 0 -99.5 -43.5t-37.5 -110.5v-300h-86v541h-64v50h64v80h86v-80h89v-50h-89v-138q44 112 162 112z" />
    <glyph glyph-name="Itilde" unicode="&#x128;" horiz-adv-x="246" 
d="M173 740q-25 0 -58 23.5t-46 23.5q-28 0 -29 -41h-50q11 96 83 96q25 0 58.5 -23.5t45.5 -23.5q27 0 30 41h49q-11 -96 -83 -96zM79 0v671h87v-671h-87z" />
    <glyph glyph-name="itilde" unicode="&#x129;" horiz-adv-x="246" 
d="M173 570q-25 0 -58 23.5t-46 23.5q-28 0 -29 -41h-50q11 96 83 96q25 0 58.5 -23.5t45.5 -23.5q27 0 30 41h49q-11 -96 -83 -96zM80 0v499h85v-499h-85z" />
    <glyph glyph-name="Imacron" unicode="&#x12a;" horiz-adv-x="246" 
d="M3 794h240v-55h-240v55zM79 0v671h87v-671h-87z" />
    <glyph glyph-name="imacron" unicode="&#x12b;" horiz-adv-x="246" 
d="M3 624h240v-55h-240v55zM80 0v499h85v-499h-85z" />
    <glyph glyph-name="Iogonek" unicode="&#x12e;" horiz-adv-x="246" 
d="M166 0q-22 -22 -32 -44.5t-6 -39t16 -26.5t34 -8.5t46 16.5v-46q-32 -20 -63.5 -20.5t-51 15t-29.5 39.5t-0.5 55t37.5 59h-38v671h87v-671z" />
    <glyph glyph-name="iogonek" unicode="&#x12f;" horiz-adv-x="246" 
d="M170 659v-90h-95v90h95zM165 0q-22 -22 -32 -44.5t-6 -39t16 -26.5t34 -8.5t46 16.5v-46q-32 -20 -63.5 -20.5t-51 15t-29.5 39.5t-0.5 55t37.5 59h-36v499h85v-499z" />
    <glyph glyph-name="Idotaccent" unicode="&#x130;" horiz-adv-x="246" 
d="M75 739v90h95v-90h-95zM79 0v671h87v-671h-87z" />
    <glyph glyph-name="dotlessi" unicode="&#x131;" horiz-adv-x="246" 
d="M80 0v499h85v-499h-85z" />
    <glyph glyph-name="uni0136" unicode="&#x136;" horiz-adv-x="607" 
d="M271 345l334 -345h-118l-320 334v-334h-88v671h88v-333l322 333h101zM204 -182l53 116h101l-94 -116h-60z" />
    <glyph glyph-name="uni0137" unicode="&#x137;" horiz-adv-x="519" 
d="M254 287l245 -287h-106l-228 273v-273h-86v671h86v-394l240 221l79 1zM160 -182l53 116h101l-94 -116h-60z" />
    <glyph glyph-name="Lacute" unicode="&#x139;" horiz-adv-x="538" 
d="M239 855l-94 -116h-60l53 116h101zM167 64h332v-64h-420v671h88v-607z" />
    <glyph glyph-name="lacute" unicode="&#x13a;" horiz-adv-x="246" 
d="M140 855h101l-94 -116h-60zM80 0v671h85v-671h-85z" />
    <glyph glyph-name="uni013B" unicode="&#x13b;" horiz-adv-x="538" 
d="M167 64h332v-64h-420v671h88v-607zM170 -182l53 116h101l-94 -116h-60z" />
    <glyph glyph-name="uni013C" unicode="&#x13c;" horiz-adv-x="246" 
d="M80 0v671h85v-671h-85zM77 -66h101l-94 -116h-60z" />
    <glyph glyph-name="Lcaron" unicode="&#x13d;" horiz-adv-x="538" 
d="M85 733l-105 116h89l53 -77l52 77h89l-105 -116h-73zM167 64h332v-64h-420v671h88v-607z" />
    <glyph glyph-name="lcaron" unicode="&#x13e;" horiz-adv-x="246" 
d="M87 733l-105 116h89l53 -77l52 77h89l-105 -116h-73zM80 0v671h85v-671h-85z" />
    <glyph glyph-name="Ldot" unicode="&#x13f;" horiz-adv-x="538" 
d="M167 64h332v-64h-420v671h88v-607zM386 409v-99h-99v99h99z" />
    <glyph glyph-name="ldot" unicode="&#x140;" horiz-adv-x="378" 
d="M80 0v671h85v-671h-85zM235 284v99h99v-99h-99z" />
    <glyph glyph-name="Lslash" unicode="&#x141;" horiz-adv-x="543" 
d="M171 64h332v-64h-419v298l-89 -36v67l89 36v306h87v-270l91 37v-67l-91 -37v-270z" />
    <glyph glyph-name="lslash" unicode="&#x142;" horiz-adv-x="270" 
d="M247 447v-62l-70 -30v-355h-85v318l-69 -30v62l69 30v291h85v-254z" />
    <glyph glyph-name="Nacute" unicode="&#x143;" horiz-adv-x="708" 
d="M472 855l-94 -116h-60l53 116h101zM546 671h83v-671h-134l-272 479q-26 47 -61 125v-604h-83v671h134l269 -475q29 -51 64 -127v602z" />
    <glyph glyph-name="nacute" unicode="&#x144;" horiz-adv-x="577" 
d="M408 690l-94 -116h-60l53 116h101zM327 514q83 0 129.5 -47.5t46.5 -131.5v-335h-85v327q0 58 -29 92.5t-87 34.5q-63 0 -99.5 -43.5t-38.5 -110.5v-300h-85v498h85v-98q44 114 163 114z" />
    <glyph glyph-name="uni0145" unicode="&#x145;" horiz-adv-x="708" 
d="M546 671h83v-671h-134l-272 479q-26 47 -61 125v-604h-83v671h134l269 -475q29 -51 64 -127v602zM255 -182l53 116h101l-94 -116h-60z" />
    <glyph glyph-name="uni0146" unicode="&#x146;" horiz-adv-x="577" 
d="M327 514q83 0 129.5 -47.5t46.5 -131.5v-335h-85v327q0 58 -29 92.5t-87 34.5q-63 0 -99.5 -43.5t-38.5 -110.5v-300h-85v498h85v-98q44 114 163 114zM189 -182l53 116h101l-94 -116h-60z" />
    <glyph glyph-name="Ncaron" unicode="&#x147;" horiz-adv-x="708" 
d="M318 733l-105 116h89l53 -77l52 77h89l-105 -116h-73zM546 671h83v-671h-134l-272 479q-26 47 -61 125v-604h-83v671h134l269 -475q29 -51 64 -127v602z" />
    <glyph glyph-name="ncaron" unicode="&#x148;" horiz-adv-x="577" 
d="M254 568l-105 116h89l53 -77l52 77h89l-105 -116h-73zM327 514q83 0 129.5 -47.5t46.5 -131.5v-335h-85v327q0 58 -29 92.5t-87 34.5q-63 0 -99.5 -43.5t-38.5 -110.5v-300h-85v498h85v-98q44 114 163 114z" />
    <glyph glyph-name="Eng" unicode="&#x14a;" horiz-adv-x="708" 
d="M546 671h83v-686q0 -64 -48.5 -102.5t-129.5 -38.5q-83 0 -128.5 40.5t-45.5 110.5l83 8q0 -48 25.5 -71.5t67.5 -23.5q93 0 93 92l-311 479q-57 99 -73 131v-610h-83v671h134l253 -393q23 -36 80 -153v546z" />
    <glyph glyph-name="eng" unicode="&#x14b;" horiz-adv-x="577" 
d="M327 514q83 0 129.5 -47.5t46.5 -131.5v-379q0 -53 -31 -82.5t-85 -29.5q-33 0 -58 12v76q22 -13 44 -13q45 0 45 56v352q0 58 -29 92.5t-87 34.5q-63 0 -99.5 -43.5t-38.5 -110.5v-300h-85v498h85v-98q44 114 163 114z" />
    <glyph glyph-name="Omacron" unicode="&#x14c;" horiz-adv-x="710" 
d="M236 794h240v-55h-240v55zM355 -7q-141 0 -223.5 92.5t-82.5 251.5t82.5 252t223.5 93t223.5 -92.5t82.5 -252.5q0 -159 -82.5 -251.5t-223.5 -92.5zM355 56q101 0 157.5 74t56.5 207t-57 207t-158 74q-100 0 -156 -74t-56 -207t56 -207t157 -74z" />
    <glyph glyph-name="omacron" unicode="&#x14d;" horiz-adv-x="584" 
d="M173 629h240v-55h-240v55zM292 -7q-111 0 -177 70.5t-66 189.5q0 120 66 190.5t177 70.5q112 0 177 -70.5t65 -190.5q0 -119 -65 -189.5t-177 -70.5zM292 48q73 0 111.5 53t38.5 152t-38.5 152.5t-111.5 53.5q-72 0 -111 -53.5t-39 -152.5q0 -98 39 -151.5t111 -53.5z
" />
    <glyph glyph-name="Ohungarumlaut" unicode="&#x150;" horiz-adv-x="710" 
d="M257 849h101l-94 -116h-60zM408 849h101l-94 -116h-60zM355 -7q-141 0 -223.5 92.5t-82.5 251.5t82.5 252t223.5 93t223.5 -92.5t82.5 -252.5q0 -159 -82.5 -251.5t-223.5 -92.5zM355 56q101 0 157.5 74t56.5 207t-57 207t-158 74q-100 0 -156 -74t-56 -207t56 -207
t157 -74z" />
    <glyph glyph-name="ohungarumlaut" unicode="&#x151;" horiz-adv-x="584" 
d="M194 684h101l-94 -116h-60zM345 684h101l-94 -116h-60zM292 -7q-111 0 -177 70.5t-66 189.5q0 120 66 190.5t177 70.5q112 0 177 -70.5t65 -190.5q0 -119 -65 -189.5t-177 -70.5zM292 48q73 0 111.5 53t38.5 152t-38.5 152.5t-111.5 53.5q-72 0 -111 -53.5t-39 -152.5
q0 -98 39 -151.5t111 -53.5z" />
    <glyph glyph-name="OE" unicode="&#x152;" horiz-adv-x="1050" 
d="M1000 607h-344v-235h321v-64h-321v-244h344v-64h-431v125q-68 -132 -214 -132q-141 0 -223.5 92.5t-82.5 251.5t82.5 252t223.5 93q147 0 214 -133v122h431v-64zM355 56q103 0 158.5 73.5t55.5 207.5t-56 207.5t-159 73.5q-100 0 -156 -74t-56 -207t56 -207t157 -74z" />
    <glyph glyph-name="oe" unicode="&#x153;" horiz-adv-x="947" 
d="M828 162l71 -43q-55 -126 -212 -126q-133 0 -197 97q-66 -97 -198 -97q-111 0 -177 70.5t-66 189.5q0 120 66 190.5t177 70.5q132 0 197 -96q63 96 187 96q102 0 159.5 -71t58.5 -192h-1l1 -3h-359q2 -94 44.5 -147t117.5 -53q105 0 131 114zM295 48q72 0 111.5 53
t39.5 149v3q-1 99 -40 152.5t-111 53.5q-73 0 -113 -53.5t-40 -152.5q0 -98 40 -151.5t113 -53.5zM676 459q-60 0 -95.5 -43t-43.5 -121h263q-5 86 -34.5 125t-89.5 39z" />
    <glyph glyph-name="Racute" unicode="&#x154;" horiz-adv-x="665" 
d="M451 855l-94 -116h-60l53 116h101zM555 242q21 -112 36 -164.5t33 -77.5h-101q-23 44 -52 226q-8 44 -35 62.5t-85 18.5h-184v-307h-88v671h284q109 0 169.5 -43t60.5 -132q0 -58 -35 -99.5t-96 -55.5q77 -16 93 -99zM356 371q146 0 146 123q0 113 -145 113h-190v-236
h189z" />
    <glyph glyph-name="racute" unicode="&#x155;" horiz-adv-x="461" 
d="M353 690l-94 -116h-60l53 116h101zM299 514q63 0 96.5 -42.5t31.5 -121.5l-78 -44q1 82 -16 116t-54 34q-53 0 -83.5 -61t-30.5 -176v-219h-86v499h86l-3 -132q15 73 50.5 110t86.5 37z" />
    <glyph glyph-name="uni0156" unicode="&#x156;" horiz-adv-x="665" 
d="M555 242q21 -112 36 -164.5t33 -77.5h-101q-23 44 -52 226q-8 44 -35 62.5t-85 18.5h-184v-307h-88v671h284q109 0 169.5 -43t60.5 -132q0 -58 -35 -99.5t-96 -55.5q77 -16 93 -99zM356 371q146 0 146 123q0 113 -145 113h-190v-236h189zM233 -182l53 116h101l-94 -116
h-60z" />
    <glyph glyph-name="uni0157" unicode="&#x157;" horiz-adv-x="461" 
d="M299 514q63 0 96.5 -42.5t31.5 -121.5l-78 -44q1 82 -16 116t-54 34q-53 0 -83.5 -61t-30.5 -176v-219h-86v499h86l-3 -132q15 73 50.5 110t86.5 37zM22 -182l53 116h101l-94 -116h-60z" />
    <glyph glyph-name="Rcaron" unicode="&#x158;" horiz-adv-x="665" 
d="M297 733l-105 116h89l53 -77l52 77h89l-105 -116h-73zM555 242q21 -112 36 -164.5t33 -77.5h-101q-23 44 -52 226q-8 44 -35 62.5t-85 18.5h-184v-307h-88v671h284q109 0 169.5 -43t60.5 -132q0 -58 -35 -99.5t-96 -55.5q77 -16 93 -99zM356 371q146 0 146 123
q0 113 -145 113h-190v-236h189z" />
    <glyph glyph-name="rcaron" unicode="&#x159;" horiz-adv-x="461" 
d="M199 568l-105 116h89l53 -77l52 77h89l-105 -116h-73zM299 514q63 0 96.5 -42.5t31.5 -121.5l-78 -44q1 82 -16 116t-54 34q-53 0 -83.5 -61t-30.5 -176v-219h-86v499h86l-3 -132q15 73 50.5 110t86.5 37z" />
    <glyph glyph-name="Sacute" unicode="&#x15a;" horiz-adv-x="621" 
d="M429 855l-94 -116h-60l53 116h101zM321 395q127 -36 180 -77.5t53 -129.5q0 -89 -65 -142t-180 -53q-113 0 -180.5 52.5t-73.5 143.5l77 48q1 -87 49.5 -135t132.5 -48q75 0 114 31t39 89q0 53 -37.5 81.5t-130.5 53.5q-118 31 -166.5 74t-48.5 123t65 128t178 48
q100 0 164.5 -49t74.5 -127l-74 -45q-5 74 -50.5 116t-123.5 42q-69 0 -109 -26.5t-40 -71.5q0 -51 31.5 -75.5t120.5 -50.5z" />
    <glyph glyph-name="sacute" unicode="&#x15b;" horiz-adv-x="490" 
d="M367 689l-94 -116h-60l53 116h101zM259 301q97 -22 137.5 -55.5t40.5 -94.5q0 -74 -52.5 -116t-143.5 -42q-70 0 -124.5 34t-66.5 88l66 41q10 -52 44 -80t88 -28q108 0 108 80q0 40 -26 58.5t-92 31.5q-92 19 -133 53.5t-41 96.5q0 64 50 105.5t141 42.5q74 1 124.5 -32
t61.5 -88l-70 -32q-20 98 -125 98q-48 0 -76 -20t-28 -57q0 -36 25 -53t92 -31z" />
    <glyph glyph-name="Scedilla" unicode="&#x15e;" horiz-adv-x="621" 
d="M321 395q127 -36 180 -77.5t53 -129.5q0 -84 -59 -136.5t-164 -57.5l-20 -48q89 -12 89 -73q0 -36 -28 -55.5t-73 -19.5q-41 0 -84 12v50q36 -17 77 -17q39 0 39 35q0 45 -101 44l47 72q-99 7 -158 59t-64 136l77 48q1 -87 49.5 -135t132.5 -48q75 0 114 31t39 89
q0 53 -37.5 81.5t-130.5 53.5q-118 31 -166.5 74t-48.5 123t65 128t178 48q100 0 164.5 -49t74.5 -127l-74 -45q-5 74 -50.5 116t-123.5 42q-69 0 -109 -26.5t-40 -71.5q0 -51 31.5 -75.5t120.5 -50.5z" />
    <glyph glyph-name="scedilla" unicode="&#x15f;" horiz-adv-x="490" 
d="M259 301q97 -22 137.5 -55.5t40.5 -94.5q0 -66 -43 -107t-119 -49l-17 -40q41 -3 62.5 -21.5t21.5 -45.5q0 -33 -25.5 -51t-67.5 -18q-41 0 -76 11v48q28 -17 69 -17q37 0 37 33q0 43 -92 42l38 57q-66 5 -115 38.5t-60 83.5l66 41q10 -52 44 -80t88 -28q108 0 108 80
q0 40 -26 58.5t-92 31.5q-92 19 -133 53.5t-41 96.5q0 64 50 105.5t141 42.5q74 1 124.5 -32t61.5 -88l-70 -32q-20 98 -125 98q-48 0 -76 -20t-28 -57q0 -36 25 -53t92 -31z" />
    <glyph glyph-name="Scaron" unicode="&#x160;" horiz-adv-x="621" 
d="M275 733l-105 116h89l53 -77l52 77h89l-105 -116h-73zM321 395q127 -36 180 -77.5t53 -129.5q0 -89 -65 -142t-180 -53q-113 0 -180.5 52.5t-73.5 143.5l77 48q1 -87 49.5 -135t132.5 -48q75 0 114 31t39 89q0 53 -37.5 81.5t-130.5 53.5q-118 31 -166.5 74t-48.5 123
t65 128t178 48q100 0 164.5 -49t74.5 -127l-74 -45q-5 74 -50.5 116t-123.5 42q-69 0 -109 -26.5t-40 -71.5q0 -51 31.5 -75.5t120.5 -50.5z" />
    <glyph glyph-name="scaron" unicode="&#x161;" horiz-adv-x="490" 
d="M213 567l-105 116h89l53 -77l52 77h89l-105 -116h-73zM259 301q97 -22 137.5 -55.5t40.5 -94.5q0 -74 -52.5 -116t-143.5 -42q-70 0 -124.5 34t-66.5 88l66 41q10 -52 44 -80t88 -28q108 0 108 80q0 40 -26 58.5t-92 31.5q-92 19 -133 53.5t-41 96.5q0 64 50 105.5
t141 42.5q74 1 124.5 -32t61.5 -88l-70 -32q-20 98 -125 98q-48 0 -76 -20t-28 -57q0 -36 25 -53t92 -31z" />
    <glyph glyph-name="uni0162" unicode="&#x162;" horiz-adv-x="568" 
d="M329 0h-21l-23 -54q89 -12 89 -73q0 -36 -28 -55.5t-73 -19.5q-41 0 -84 12v50q36 -17 77 -17q39 0 39 35q0 45 -101 44l51 78h-13v607h-223v64h530v-64h-220v-607z" />
    <glyph glyph-name="uni0163" unicode="&#x163;" horiz-adv-x="437" 
d="M399 24q-41 -27 -102 -30l-17 -39q41 -3 62.5 -21.5t21.5 -45.5q0 -33 -25.5 -51t-67.5 -18q-41 0 -76 11v48q28 -17 69 -17q37 0 37 33q0 43 -92 42l40 60q-116 17 -116 135v315h-114l18 52h96v129h85v-129h178l-18 -52h-160v-296q0 -45 19.5 -66.5t62.5 -21.5
q52 0 99 37v-75z" />
    <glyph glyph-name="Tcaron" unicode="&#x164;" horiz-adv-x="568" 
d="M248 733l-105 116h89l53 -77l52 77h89l-105 -116h-73zM549 671v-64h-220v-607h-87v607h-223v64h530z" />
    <glyph glyph-name="tcaron" unicode="&#x165;" horiz-adv-x="437" 
d="M427 675l-94 -116h-60l53 116h101zM218 150q0 -45 19.5 -66.5t62.5 -21.5q52 0 99 37v-75q-45 -30 -116 -30q-73 0 -111.5 36t-38.5 101v315h-114l18 52h96v129h85v-129h178l-18 -52h-160v-296z" />
    <glyph glyph-name="Tbar" unicode="&#x166;" horiz-adv-x="577" 
d="M549 607h-220v-152h158v-63h-158v-392h-87v392h-161v63h161v152h-223v64h530v-64z" />
    <glyph glyph-name="tbar" unicode="&#x167;" horiz-adv-x="437" 
d="M300 62q52 0 99 37v-75q-45 -30 -116 -30q-73 0 -111.5 36t-38.5 101v179h-95v50h95v86h-114l18 52h96v129h85v-129h178l-18 -52h-160v-86h140v-50h-140v-160q0 -45 19.5 -66.5t62.5 -21.5z" />
    <glyph glyph-name="Utilde" unicode="&#x168;" horiz-adv-x="649" 
d="M270 787q-28 0 -29 -41h-50q11 96 83 96q25 0 58.5 -23.5t45.5 -23.5q27 0 30 41h49q-11 -96 -83 -96q-25 0 -58 23.5t-46 23.5zM488 671h87v-440q0 -120 -60 -179t-190 -59t-190.5 59t-60.5 179v440h87l1 -433q0 -93 36.5 -137t126.5 -44t126.5 44.5t36.5 136.5v433z
" />
    <glyph glyph-name="utilde" unicode="&#x169;" horiz-adv-x="582" 
d="M238 622q-28 0 -29 -41h-50q11 96 83 96q25 0 58.5 -23.5t45.5 -23.5q27 0 30 41h49q-11 -96 -83 -96q-25 0 -58 23.5t-46 23.5zM417 498h85v-498h-85v106q-45 -113 -167 -113q-176 0 -176 174v331h86v-319q0 -60 29 -94.5t88 -34.5q65 0 102 43.5t38 112.5v292z" />
    <glyph glyph-name="Umacron" unicode="&#x16a;" horiz-adv-x="649" 
d="M445 794v-55h-240v55h240zM488 671h87v-440q0 -120 -60 -179t-190 -59t-190.5 59t-60.5 179v440h87l1 -433q0 -93 36.5 -137t126.5 -44t126.5 44.5t36.5 136.5v433z" />
    <glyph glyph-name="umacron" unicode="&#x16b;" horiz-adv-x="582" 
d="M412 629v-55h-240v55h240zM417 498h85v-498h-85v106q-45 -113 -167 -113q-176 0 -176 174v331h86v-319q0 -60 29 -94.5t88 -34.5q65 0 102 43.5t38 112.5v292z" />
    <glyph glyph-name="Uring" unicode="&#x16e;" horiz-adv-x="649" 
d="M325 725q-42 0 -67.5 24.5t-25.5 65.5q0 39 25.5 63t67.5 24q41 0 66.5 -24t25.5 -64t-25.5 -64.5t-66.5 -24.5zM325 857q-20 0 -31 -11.5t-11 -31.5q0 -21 11 -33t31 -12q19 0 30 12t11 33q0 20 -11 31.5t-30 11.5zM488 671h87v-440q0 -120 -60 -179t-190 -59t-190.5 59
t-60.5 179v440h87l1 -433q0 -93 36.5 -137t126.5 -44t126.5 44.5t36.5 136.5v433z" />
    <glyph glyph-name="uring" unicode="&#x16f;" horiz-adv-x="582" 
d="M292 560q-42 0 -67.5 24.5t-25.5 65.5q0 39 25.5 63t67.5 24q41 0 66.5 -24t25.5 -64t-25.5 -64.5t-66.5 -24.5zM292 692q-20 0 -31 -11.5t-11 -31.5q0 -21 11 -33t31 -12q19 0 30 12t11 33q0 20 -11 31.5t-30 11.5zM417 498h85v-498h-85v106q-45 -113 -167 -113
q-176 0 -176 174v331h86v-319q0 -60 29 -94.5t88 -34.5q65 0 102 43.5t38 112.5v292z" />
    <glyph glyph-name="Uhungarumlaut" unicode="&#x170;" horiz-adv-x="649" 
d="M327 849l-94 -116h-60l53 116h101zM384 733h-60l53 116h101zM488 671h87v-440q0 -120 -60 -179t-190 -59t-190.5 59t-60.5 179v440h87l1 -433q0 -93 36.5 -137t126.5 -44t126.5 44.5t36.5 136.5v433z" />
    <glyph glyph-name="uhungarumlaut" unicode="&#x171;" horiz-adv-x="582" 
d="M294 684l-94 -116h-60l53 116h101zM351 568h-60l53 116h101zM417 498h85v-498h-85v106q-45 -113 -167 -113q-176 0 -176 174v331h86v-319q0 -60 29 -94.5t88 -34.5q65 0 102 43.5t38 112.5v292z" />
    <glyph glyph-name="Uogonek" unicode="&#x172;" horiz-adv-x="649" 
d="M488 671h87v-440q0 -111 -51.5 -170t-162.5 -67q-26 -26 -32.5 -53.5t5 -42.5t34 -18.5t55.5 16.5v-46q-32 -20 -62.5 -21t-50.5 14.5t-30 38t-2.5 53t33.5 58.5q-123 3 -180 62t-57 176v440h87l1 -433q0 -93 36.5 -137t126.5 -44t126.5 44.5t36.5 136.5v433z" />
    <glyph glyph-name="uogonek" unicode="&#x173;" horiz-adv-x="582" 
d="M503 0q-22 -22 -32 -44.5t-6 -39t16 -26.5t34 -8.5t46 16.5v-46q-32 -20 -63.5 -20.5t-51 15t-29.5 39.5t-0.5 55t37.5 59h-37v106q-45 -113 -167 -113q-176 0 -176 174v331h86v-319q0 -60 29 -94.5t88 -34.5q65 0 102 43.5t38 112.5v292h85v-498h1z" />
    <glyph glyph-name="Wcircumflex" unicode="&#x174;" horiz-adv-x="948" 
d="M475 810l-53 -77h-89l105 116h73l105 -116h-89zM836 671h94l-186 -671h-121l-122 453q-15 72 -27 142q-13 -75 -27 -142l-122 -453h-122l-185 671h94l124 -476q16 -57 31 -129q14 73 28 128l123 477h112l122 -473q18 -71 29 -133q20 90 31 134z" />
    <glyph glyph-name="wcircumflex" unicode="&#x175;" horiz-adv-x="732" 
d="M367 645l-53 -77h-89l105 116h73l105 -116h-89zM626 498h87l-138 -497h-48l-57 -1l-86 349q-11 46 -18 88q-10 -58 -17 -88l-87 -349l-57 1h-48l-138 497h88l83 -333q13 -49 23 -113q17 91 22 113l80 333h102l82 -337q8 -35 20 -107q10 60 22 108z" />
    <glyph glyph-name="Ycircumflex" unicode="&#x176;" horiz-adv-x="588" 
d="M295 810l-53 -77h-89l105 116h73l105 -116h-89zM579 671l-241 -383v-288h-86v285l-243 386h98l189 -309l189 309h94z" />
    <glyph glyph-name="ycircumflex" unicode="&#x177;" horiz-adv-x="511" 
d="M262 645l-53 -77h-89l105 116h73l105 -116h-89zM393 498h89l-249 -648h-86l80 180l-199 468h90l122 -303q18 -46 25 -69z" />
    <glyph glyph-name="Ydieresis" unicode="&#x178;" horiz-adv-x="588" 
d="M264 824v-85h-95v85h95zM416 824v-85h-94v85h94zM579 671l-241 -383v-288h-86v285l-243 386h98l189 -309l189 309h94z" />
    <glyph glyph-name="Zacute" unicode="&#x179;" horiz-adv-x="583" 
d="M409 855l-94 -116h-60l53 116h101zM149 64h395v-64h-494v62l380 545h-391v64h490v-64z" />
    <glyph glyph-name="zacute" unicode="&#x17a;" horiz-adv-x="468" 
d="M353 690l-94 -116h-60l53 116h101zM144 54h291v-54h-386v54l284 390h-294v54h390v-54z" />
    <glyph glyph-name="Zdotaccent" unicode="&#x17b;" horiz-adv-x="583" 
d="M339 829v-90h-95v90h95zM149 64h395v-64h-494v62l380 545h-391v64h490v-64z" />
    <glyph glyph-name="zdotaccent" unicode="&#x17c;" horiz-adv-x="468" 
d="M282 664v-90h-95v90h95zM144 54h291v-54h-386v54l284 390h-294v54h390v-54z" />
    <glyph glyph-name="Zcaron" unicode="&#x17d;" horiz-adv-x="583" 
d="M255 733l-105 116h89l53 -77l52 77h89l-105 -116h-73zM149 64h395v-64h-494v62l380 545h-391v64h490v-64z" />
    <glyph glyph-name="zcaron" unicode="&#x17e;" horiz-adv-x="468" 
d="M199 568l-105 116h89l53 -77l52 77h89l-105 -116h-73zM144 54h291v-54h-386v54l284 390h-294v54h390v-54z" />
    <glyph glyph-name="uni018F" unicode="&#x18f;" horiz-adv-x="669" 
d="M336 682q136 0 210 -91t74 -257q0 -163 -73.5 -252t-210.5 -89q-291 0 -287 373h477q-9 252 -193 252q-85 0 -136 -47t-55 -132l-79 48q15 89 86.5 142t186.5 53zM336 57q94 0 139.5 60t50.5 185h-388q12 -245 198 -245z" />
    <glyph glyph-name="florin" unicode="&#x192;" horiz-adv-x="604" 
d="M489 603q-65 0 -89 -42.5t-45 -161.5h170v-70h-182q-28 -170 -44 -216q-28 -83 -91 -106q-36 -14 -92 -14q-51 0 -91 28v67q43 -31 90 -31q69 0 92.5 52t50.5 217v3h-150v70h162q10 59 19.5 97t25.5 73.5t38 55t55.5 31t79.5 11.5q49 0 91 -27v-68q-43 31 -90 31z" />
    <glyph glyph-name="Ohorn" unicode="&#x1a0;" horiz-adv-x="710" 
d="M548 618q113 -91 113 -281q0 -159 -82.5 -251.5t-223.5 -92.5t-223.5 92.5t-82.5 251.5t82.5 252t223.5 93q40 0 72 -7h75q42 0 55 11t13 41v60h65v-69q0 -96 -87 -100zM355 56q101 0 157.5 74t56.5 207t-57 207t-158 74q-100 0 -156 -74t-56 -207t56 -207t157 -74z" />
    <glyph glyph-name="ohorn" unicode="&#x1a1;" horiz-adv-x="584" 
d="M463 449q71 -69 71 -196q0 -119 -65 -189.5t-177 -70.5q-111 0 -177 70.5t-66 189.5q0 120 66 190.5t177 70.5q50 0 95 -16h7q42 0 55 11.5t13 40.5v60h54v-69q0 -75 -53 -92zM292 48q73 0 111.5 53t38.5 152t-38.5 152.5t-111.5 53.5q-72 0 -111 -53.5t-39 -152.5
q0 -98 39 -151.5t111 -53.5z" />
    <glyph glyph-name="Uhorn" unicode="&#x1af;" horiz-adv-x="712" 
d="M639 783h58v-71q0 -53 -27.5 -78t-94.5 -18v-385q0 -120 -60 -179t-190 -59t-190.5 59t-60.5 179v440h87l1 -433q0 -93 36.5 -137t126.5 -44t126.5 44.5t36.5 136.5v433h87q41 0 52.5 11t11.5 41v60z" />
    <glyph glyph-name="uhorn" unicode="&#x1b0;" horiz-adv-x="582" 
d="M567 610h58v-71q0 -53 -27.5 -78t-95.5 -18v-443h-85v106q-45 -113 -167 -113q-176 0 -176 174v331h86v-319q0 -60 29 -94.5t88 -34.5q65 0 102 43.5t38 112.5v292h85q42 0 53.5 11t11.5 41v60z" />
    <glyph glyph-name="uni0218" unicode="&#x218;" horiz-adv-x="621" 
d="M321 395q127 -36 180 -77.5t53 -129.5q0 -89 -65 -142t-180 -53q-113 0 -180.5 52.5t-73.5 143.5l77 48q1 -87 49.5 -135t132.5 -48q75 0 114 31t39 89q0 53 -37.5 81.5t-130.5 53.5q-118 31 -166.5 74t-48.5 123t65 128t178 48q100 0 164.5 -49t74.5 -127l-74 -45
q-5 74 -50.5 116t-123.5 42q-69 0 -109 -26.5t-40 -71.5q0 -51 31.5 -75.5t120.5 -50.5zM211 -182l53 116h101l-94 -116h-60z" />
    <glyph glyph-name="uni0219" unicode="&#x219;" horiz-adv-x="490" 
d="M259 301q97 -22 137.5 -55.5t40.5 -94.5q0 -74 -52.5 -116t-143.5 -42q-70 0 -124.5 34t-66.5 88l66 41q10 -52 44 -80t88 -28q108 0 108 80q0 40 -26 58.5t-92 31.5q-92 19 -133 53.5t-41 96.5q0 64 50 105.5t141 42.5q74 1 124.5 -32t61.5 -88l-70 -32q-20 98 -125 98
q-48 0 -76 -20t-28 -57q0 -36 25 -53t92 -31zM146 -182l53 116h101l-94 -116h-60z" />
    <glyph glyph-name="uni021A" unicode="&#x21a;" horiz-adv-x="568" 
d="M19 671h530v-64h-220v-607h-87v607h-223v64zM185 -182l53 116h101l-94 -116h-60z" />
    <glyph glyph-name="uni021B" unicode="&#x21b;" horiz-adv-x="437" 
d="M300 62q52 0 99 37v-75q-45 -30 -116 -30q-73 0 -111.5 36t-38.5 101v315h-114l18 52h96v129h85v-129h178l-18 -52h-160v-296q0 -45 19.5 -66.5t62.5 -21.5zM168 -182l53 116h101l-94 -116h-60z" />
    <glyph glyph-name="uni0259" unicode="&#x259;" horiz-adv-x="539" 
d="M263 514q110 0 168 -72t58 -191q0 -120 -56.5 -189t-157.5 -69q-108 0 -170 72t-55 200h354q-5 194 -143 194q-58 0 -91.5 -31t-39.5 -86l-74 32q7 57 66 98.5t141 41.5zM275 40q119 0 128 179h-269q1 -179 141 -179z" />
    <glyph glyph-name="circumflex" unicode="&#x2c6;" horiz-adv-x="443" 
d="M363 569h-89l-52 77l-53 -77h-89l105 116h73z" />
    <glyph glyph-name="caron" unicode="&#x2c7;" horiz-adv-x="443" 
d="M274 685h89l-105 -116h-73l-105 116h89l53 -77z" />
    <glyph glyph-name="breve" unicode="&#x2d8;" horiz-adv-x="443" 
d="M280 685h83q-7 -57 -38 -86.5t-103 -29.5q-74 0 -104.5 29t-37.5 87h83q0 -77 59 -77q58 0 58 77z" />
    <glyph glyph-name="dotaccent" unicode="&#x2d9;" horiz-adv-x="255" 
d="M80 575v85h95v-85h-95z" />
    <glyph glyph-name="ring" unicode="&#x2da;" horiz-adv-x="335" 
d="M167 561q-39 0 -63 23.5t-24 61.5q0 37 24 59.5t63 22.5t63 -23t24 -60q0 -38 -24 -61t-63 -23zM167 602q19 0 29.5 12t10.5 31t-10.5 30.5t-29.5 11.5q-18 0 -28.5 -11.5t-10.5 -30.5t10.5 -31t28.5 -12z" />
    <glyph glyph-name="ogonek" unicode="&#x2db;" horiz-adv-x="309" 
d="M229 -148q-32 -20 -63.5 -20.5t-51 15t-29.5 39.5t-0.5 55t37.5 59h49q-22 -22 -32 -44.5t-6 -39t16 -26.5t34 -8.5t46 16.5v-46z" />
    <glyph glyph-name="tilde" unicode="&#x2dc;" horiz-adv-x="426" 
d="M263 576q-25 0 -58 23.5t-46 23.5q-28 0 -29 -41h-50q11 96 83 96q25 0 58.5 -23.5t45.5 -23.5q27 0 30 41h49q-11 -96 -83 -96z" />
    <glyph glyph-name="hungarumlaut" unicode="&#x2dd;" horiz-adv-x="465" 
d="M133 685h101l-94 -116h-60zM284 685h101l-94 -116h-60z" />
    <glyph glyph-name="gravecomb" unicode="&#x300;" 
d="M-133 685l53 -116h-60l-94 116h101z" />
    <glyph glyph-name="acutecomb" unicode="&#x301;" 
d="M-181 685h101l-94 -116h-60z" />
    <glyph glyph-name="uni0302" unicode="&#x302;" 
d="M-80 569h-89l-52 77l-53 -77h-89l105 116h73z" />
    <glyph glyph-name="tildecomb" unicode="&#x303;" 
d="M-163 576q-25 0 -58 23.5t-46 23.5q-28 0 -29 -41h-50q11 96 83 96q25 0 58.5 -23.5t45.5 -23.5q27 0 30 41h49q-11 -96 -83 -96z" />
    <glyph glyph-name="uni0304" unicode="&#x304;" 
d="M-321 630h240v-55h-240v55z" />
    <glyph glyph-name="uni0306" unicode="&#x306;" 
d="M-163 692h83q-7 -59 -38.5 -91t-102.5 -32q-73 0 -104 32t-38 91h83q0 -74 59 -74q58 0 58 74z" />
    <glyph glyph-name="uni0307" unicode="&#x307;" 
d="M-175 575v90h95v-90h-95z" />
    <glyph glyph-name="uni0308" unicode="&#x308;" 
d="M-328 575v85h95v-85h-95zM-175 575v85h94v-85h-94z" />
    <glyph glyph-name="hookabovecomb" unicode="&#x309;" 
d="M-229 717q32 20 63.5 21t51 -15t29.5 -39.5t0.5 -55t-37.5 -59.5h-58q37 36 41 69t-22 39.5t-68 -15.5v55z" />
    <glyph glyph-name="uni030A" unicode="&#x30a;" 
d="M-172 561q-42 0 -67.5 24.5t-25.5 65.5q0 39 25.5 63t67.5 24q41 0 66.5 -24t25.5 -64t-25.5 -64.5t-66.5 -24.5zM-172 605q19 0 30 12t11 33q0 20 -11 31.5t-30 11.5q-20 0 -31 -11.5t-11 -31.5q0 -21 11 -33t31 -12z" />
    <glyph glyph-name="uni030B" unicode="&#x30b;" 
d="M-332 685h101l-94 -116h-60zM-181 685h101l-94 -116h-60z" />
    <glyph glyph-name="uni030C" unicode="&#x30c;" 
d="M-169 685h89l-105 -116h-73l-105 116h89l53 -77z" />
    <glyph glyph-name="uni0312" unicode="&#x312;" 
d="M-133 569h-101l94 116h60z" />
    <glyph glyph-name="uni031B" unicode="&#x31b;" 
d="M-203 568v55q42 0 53.5 11t11.5 41v60h58v-71q0 -53 -27.5 -78t-95.5 -18z" />
    <glyph glyph-name="dotbelowcomb" unicode="&#x323;" 
d="M-175 -107v90h95v-90h-95z" />
    <glyph glyph-name="uni0326" unicode="&#x326;" 
d="M-181 -9h101l-94 -116h-60z" />
    <glyph glyph-name="uni0327" unicode="&#x327;" 
d="M-170 -28q89 -12 89 -73q0 -36 -28 -55.5t-73 -19.5q-41 0 -84 12v50q36 -17 77 -17q39 0 39 35q0 45 -101 44l57 87h51z" />
    <glyph glyph-name="uni0328" unicode="&#x328;" 
d="M-80 -148q-32 -20 -63.5 -20.5t-51 15t-29.5 39.5t-0.5 55t37.5 59h49q-22 -22 -32 -44.5t-6 -39t16 -26.5t34 -8.5t46 16.5v-46z" />
    <glyph glyph-name="uni0394" unicode="&#x394;" horiz-adv-x="576" 
d="M321 671l242 -608v-62h-550v62l248 608h60zM94 63h387l-191 497z" />
    <glyph glyph-name="uni03A9" unicode="&#x3a9;" horiz-adv-x="710" 
d="M661 362q0 -107 -48.5 -185.5t-125.5 -112.5h174v-64h-258v64q65 27 115.5 100t50.5 193q0 122 -56.5 191.5t-156.5 69.5q-101 0 -157.5 -69t-56.5 -192q0 -202 166 -293v-64h-259v64h184q-81 35 -132.5 111.5t-51.5 186.5q0 144 83.5 232t223.5 88q139 0 222 -88
t83 -232z" />
    <glyph glyph-name="uni03BC" unicode="&#x3bc;" horiz-adv-x="640" 
d="M508 108q0 -48 52 -48v-60h-25q-56 1 -81.5 21t-29.5 67q-17 -49 -48 -72t-81 -23q-96 0 -129 93v-242h-86v654h86v-280q1 -75 29 -115.5t100 -40.5q71 0 99 40.5t29 115.5v280h85v-390z" />
    <glyph glyph-name="pi" unicode="&#x3c0;" horiz-adv-x="695" 
d="M614 498v-52h-85v-446h-85v446h-193v-446h-85v446h-86v52h534z" />
    <glyph glyph-name="Wgrave" unicode="&#x1e80;" horiz-adv-x="948" 
d="M509 739h-60l-94 116h101zM836 671h94l-186 -671h-121l-122 453q-15 72 -27 142q-13 -75 -27 -142l-122 -453h-122l-185 671h94l124 -476q16 -57 31 -129q14 73 28 128l123 477h112l122 -473q18 -71 29 -133q20 90 31 134z" />
    <glyph glyph-name="wgrave" unicode="&#x1e81;" horiz-adv-x="732" 
d="M400 574h-60l-94 116h101zM626 498h87l-138 -497h-48l-57 -1l-86 349q-11 46 -18 88q-10 -58 -17 -88l-87 -349l-57 1h-48l-138 497h88l83 -333q13 -49 23 -113q17 91 22 113l80 333h102l82 -337q8 -35 20 -107q10 60 22 108z" />
    <glyph glyph-name="Wacute" unicode="&#x1e82;" horiz-adv-x="948" 
d="M592 855l-94 -116h-60l53 116h101zM836 671h94l-186 -671h-121l-122 453q-15 72 -27 142q-13 -75 -27 -142l-122 -453h-122l-185 671h94l124 -476q16 -57 31 -129q14 73 28 128l123 477h112l122 -473q18 -71 29 -133q20 90 31 134z" />
    <glyph glyph-name="wacute" unicode="&#x1e83;" horiz-adv-x="732" 
d="M483 690l-94 -116h-60l53 116h101zM626 498h87l-138 -497h-48l-57 -1l-86 349q-11 46 -18 88q-10 -58 -17 -88l-87 -349l-57 1h-48l-138 497h88l83 -333q13 -49 23 -113q17 91 22 113l80 333h102l82 -337q8 -35 20 -107q10 60 22 108z" />
    <glyph glyph-name="Wdieresis" unicode="&#x1e84;" horiz-adv-x="948" 
d="M444 824v-85h-95v85h95zM596 824v-85h-94v85h94zM836 671h94l-186 -671h-121l-122 453q-15 72 -27 142q-13 -75 -27 -142l-122 -453h-122l-185 671h94l124 -476q16 -57 31 -129q14 73 28 128l123 477h112l122 -473q18 -71 29 -133q20 90 31 134z" />
    <glyph glyph-name="wdieresis" unicode="&#x1e85;" horiz-adv-x="732" 
d="M336 659v-85h-95v85h95zM488 659v-85h-94v85h94zM626 498h87l-138 -497h-48l-57 -1l-86 349q-11 46 -18 88q-10 -58 -17 -88l-87 -349l-57 1h-48l-138 497h88l83 -333q13 -49 23 -113q17 91 22 113l80 333h102l82 -337q8 -35 20 -107q10 60 22 108z" />
    <glyph glyph-name="uni1E9E" unicode="&#x1e9e;" horiz-adv-x="1213" 
d="M318 619q-69 0 -109 -26.5t-40 -71.5q0 -51 31.5 -75.5t120.5 -50.5q127 -36 180 -77.5t53 -129.5q0 -89 -65 -142t-180 -53q-113 0 -180.5 52.5t-73.5 143.5l77 48q1 -87 49.5 -135t132.5 -48q75 0 114 31t39 89q0 53 -37.5 81.5t-130.5 53.5q-118 31 -166.5 74
t-48.5 123t65 128t178 48q100 0 164.5 -49t74.5 -127l-74 -45q-5 74 -50.5 116t-123.5 42zM913 395q127 -36 180 -77.5t53 -129.5q0 -89 -65 -142t-180 -53q-113 0 -180.5 52.5t-73.5 143.5l77 48q1 -87 49.5 -135t132.5 -48q75 0 114 31t39 89q0 53 -37.5 81.5t-130.5 53.5
q-118 31 -166.5 74t-48.5 123t65 128t178 48q100 0 164.5 -49t74.5 -127l-74 -45q-5 74 -50.5 116t-123.5 42q-69 0 -109 -26.5t-40 -71.5q0 -51 31.5 -75.5t120.5 -50.5z" />
    <glyph glyph-name="uni1EA0" unicode="&#x1ea0;" horiz-adv-x="663" 
d="M650 0h-89l-77 204h-307l-79 -204h-85l263 671h116zM202 268h258l-86 228q-18 50 -42 123q-21 -64 -42 -122zM283 -160v90h95v-90h-95z" />
    <glyph glyph-name="uni1EA1" unicode="&#x1ea1;" horiz-adv-x="535" 
d="M261 514q96 0 148 -43t52 -121v-350h-86v96q-19 -47 -61 -75t-97 -28q-75 0 -121.5 38.5t-46.5 103.5q0 124 184 162l142 30v19q0 113 -119 113q-59 0 -92.5 -31t-40.5 -86l-74 32q8 60 67 100t145 40zM246 50q54 0 92 41.5t38 101.5v93l-125 -32q-107 -27 -107 -109
q0 -95 102 -95zM219 -160v90h95v-90h-95z" />
    <glyph glyph-name="uni1EA2" unicode="&#x1ea2;" horiz-adv-x="663" 
d="M305 731q37 36 41 69t-22 39.5t-68 -15.5v55q32 20 63.5 21t51 -15t29.5 -39.5t0.5 -55t-37.5 -59.5h-58zM561 0l-77 204h-307l-79 -204h-85l263 671h116l258 -671h-89zM202 268h258l-86 228q-18 50 -42 123q-21 -64 -42 -122z" />
    <glyph glyph-name="uni1EA3" unicode="&#x1ea3;" horiz-adv-x="535" 
d="M232 574q37 36 41 69t-22 39.5t-68 -15.5v55q32 20 63.5 21t51 -15t29.5 -39.5t0.5 -55t-37.5 -59.5h-58zM261 514q96 0 148 -43t52 -121v-350h-86v96q-19 -47 -61 -75t-97 -28q-75 0 -121.5 38.5t-46.5 103.5q0 124 184 162l142 30v19q0 113 -119 113q-59 0 -92.5 -31
t-40.5 -86l-74 32q8 60 67 100t145 40zM246 50q54 0 92 41.5t38 101.5v93l-125 -32q-107 -27 -107 -109q0 -95 102 -95z" />
    <glyph glyph-name="uni1EA4" unicode="&#x1ea4;" horiz-adv-x="663" 
d="M584 927l-94 -116h-60l53 116h101zM338 802l-53 -77h-89l105 116h73l105 -116h-89zM561 0l-77 204h-307l-79 -204h-85l263 671h116l258 -671h-89zM202 268h258l-86 228q-18 50 -42 123q-21 -64 -42 -122z" />
    <glyph glyph-name="uni1EA5" unicode="&#x1ea5;" horiz-adv-x="535" 
d="M511 770l-94 -116h-60l53 116h101zM265 645l-53 -77h-89l105 116h73l105 -116h-89zM261 514q96 0 148 -43t52 -121v-350h-86v96q-19 -47 -61 -75t-97 -28q-75 0 -121.5 38.5t-46.5 103.5q0 124 184 162l142 30v19q0 113 -119 113q-59 0 -92.5 -31t-40.5 -86l-74 32
q8 60 67 100t145 40zM246 50q54 0 92 41.5t38 101.5v93l-125 -32q-107 -27 -107 -109q0 -95 102 -95z" />
    <glyph glyph-name="uni1EA6" unicode="&#x1ea6;" horiz-adv-x="663" 
d="M246 807h-60l-94 116h101zM283 725h-89l104 116h74l104 -116h-89l-52 76zM561 0l-77 204h-307l-79 -204h-85l263 671h116l258 -671h-89zM202 268h258l-86 228q-18 50 -42 123q-21 -64 -42 -122z" />
    <glyph glyph-name="uni1EA7" unicode="&#x1ea7;" horiz-adv-x="535" 
d="M173 650h-60l-94 116h101zM210 568h-89l104 116h74l104 -116h-89l-52 76zM261 514q96 0 148 -43t52 -121v-350h-86v96q-19 -47 -61 -75t-97 -28q-75 0 -121.5 38.5t-46.5 103.5q0 124 184 162l142 30v19q0 113 -119 113q-59 0 -92.5 -31t-40.5 -86l-74 32q8 60 67 100
t145 40zM246 50q54 0 92 41.5t38 101.5v93l-125 -32q-107 -27 -107 -109q0 -95 102 -95z" />
    <glyph glyph-name="uni1EA8" unicode="&#x1ea8;" horiz-adv-x="663" 
d="M424 818q51 49 40 87q-9 30 -48 23q-19 -3 -40 -16v54q32 20 63 21t50.5 -14.5t29.5 -39.5t1 -55.5t-37 -59.5h-59zM338 802l-53 -77h-89l105 116h73l105 -116h-89zM561 0l-77 204h-307l-79 -204h-85l263 671h116l258 -671h-89zM202 268h258l-86 228q-18 50 -42 123
q-21 -64 -42 -122z" />
    <glyph glyph-name="uni1EA9" unicode="&#x1ea9;" horiz-adv-x="535" 
d="M351 660q51 49 40 87q-9 30 -48 23q-19 -3 -40 -16v54q32 20 63 21t50.5 -14.5t29.5 -39.5t1 -55.5t-37 -59.5h-59zM265 644l-53 -77h-89l105 116h73l105 -116h-89zM261 514q96 0 148 -43t52 -121v-350h-86v96q-19 -47 -61 -75t-97 -28q-75 0 -121.5 38.5t-46.5 103.5
q0 124 184 162l142 30v19q0 113 -119 113q-59 0 -92.5 -31t-40.5 -86l-74 32q8 60 67 100t145 40zM246 50q54 0 92 41.5t38 101.5v93l-125 -32q-107 -27 -107 -109q0 -95 102 -95z" />
    <glyph glyph-name="uni1EAA" unicode="&#x1eaa;" horiz-adv-x="663" 
d="M288 906q-27 0 -30 -40h-49q9 95 82 95q25 0 59 -23.5t46 -23.5q28 0 29 41h49q-9 -96 -82 -96q-25 0 -58 23.5t-46 23.5zM338 802l-53 -77h-89l105 116h73l105 -116h-89zM561 0l-77 204h-307l-79 -204h-85l263 671h116l258 -671h-89zM202 268h258l-86 228
q-18 50 -42 123q-21 -64 -42 -122z" />
    <glyph glyph-name="uni1EAB" unicode="&#x1eab;" horiz-adv-x="535" 
d="M215 749q-27 0 -30 -40h-49q9 95 82 95q25 0 59 -23.5t46 -23.5q28 0 29 41h49q-9 -96 -82 -96q-25 0 -58 23.5t-46 23.5zM265 645l-53 -77h-89l105 116h73l105 -116h-89zM261 514q96 0 148 -43t52 -121v-350h-86v96q-19 -47 -61 -75t-97 -28q-75 0 -121.5 38.5
t-46.5 103.5q0 124 184 162l142 30v19q0 113 -119 113q-59 0 -92.5 -31t-40.5 -86l-74 32q8 60 67 100t145 40zM246 50q54 0 92 41.5t38 101.5v93l-125 -32q-107 -27 -107 -109q0 -95 102 -95z" />
    <glyph glyph-name="uni1EAC" unicode="&#x1eac;" horiz-adv-x="663" 
d="M338 802l-53 -77h-89l105 116h73l105 -116h-89zM650 0h-89l-77 204h-307l-79 -204h-85l263 671h116zM202 268h258l-86 228q-18 50 -42 123q-21 -64 -42 -122zM283 -160v90h95v-90h-95z" />
    <glyph glyph-name="uni1EAD" unicode="&#x1ead;" horiz-adv-x="535" 
d="M265 645l-53 -77h-89l105 116h73l105 -116h-89zM261 514q96 0 148 -43t52 -121v-350h-86v96q-19 -47 -61 -75t-97 -28q-75 0 -121.5 38.5t-46.5 103.5q0 124 184 162l142 30v19q0 113 -119 113q-59 0 -92.5 -31t-40.5 -86l-74 32q8 60 67 100t145 40zM246 50
q54 0 92 41.5t38 101.5v93l-125 -32q-107 -27 -107 -109q0 -95 102 -95zM219 -160v90h95v-90h-95z" />
    <glyph glyph-name="uni1EAE" unicode="&#x1eae;" horiz-adv-x="663" 
d="M458 976l-94 -116h-60l53 116h101zM338 725q-73 0 -104 32t-38 91h83q0 -74 59 -74q58 0 58 74h83q-7 -59 -38.5 -91t-102.5 -32zM561 0l-77 204h-307l-79 -204h-85l263 671h116l258 -671h-89zM202 268h258l-86 228q-18 50 -42 123q-21 -64 -42 -122z" />
    <glyph glyph-name="uni1EAF" unicode="&#x1eaf;" horiz-adv-x="535" 
d="M385 819l-94 -116h-60l53 116h101zM265 568q-73 0 -104 32t-38 91h83q0 -74 59 -74q58 0 58 74h83q-7 -59 -38.5 -91t-102.5 -32zM261 514q96 0 148 -43t52 -121v-350h-86v96q-19 -47 -61 -75t-97 -28q-75 0 -121.5 38.5t-46.5 103.5q0 124 184 162l142 30v19
q0 113 -119 113q-59 0 -92.5 -31t-40.5 -86l-74 32q8 60 67 100t145 40zM246 50q54 0 92 41.5t38 101.5v93l-125 -32q-107 -27 -107 -109q0 -95 102 -95z" />
    <glyph glyph-name="uni1EB0" unicode="&#x1eb0;" horiz-adv-x="663" 
d="M371 860h-60l-94 116h101zM338 725q-73 0 -104 32t-38 91h83q0 -74 59 -74q58 0 58 74h83q-7 -59 -38.5 -91t-102.5 -32zM561 0l-77 204h-307l-79 -204h-85l263 671h116l258 -671h-89zM202 268h258l-86 228q-18 50 -42 123q-21 -64 -42 -122z" />
    <glyph glyph-name="uni1EB1" unicode="&#x1eb1;" horiz-adv-x="535" 
d="M298 703h-60l-94 116h101zM265 568q-73 0 -104 32t-38 91h83q0 -74 59 -74q58 0 58 74h83q-7 -59 -38.5 -91t-102.5 -32zM261 514q96 0 148 -43t52 -121v-350h-86v96q-19 -47 -61 -75t-97 -28q-75 0 -121.5 38.5t-46.5 103.5q0 124 184 162l142 30v19q0 113 -119 113
q-59 0 -92.5 -31t-40.5 -86l-74 32q8 60 67 100t145 40zM246 50q54 0 92 41.5t38 101.5v93l-125 -32q-107 -27 -107 -109q0 -95 102 -95z" />
    <glyph glyph-name="uni1EB2" unicode="&#x1eb2;" horiz-adv-x="663" 
d="M300 847q37 36 41 69t-22 39.5t-68 -15.5v55q32 20 63.5 21t51 -15t29.5 -39.5t0.5 -55t-37.5 -59.5h-58zM338 725q-73 0 -104 32t-38 91h83q0 -74 59 -74q58 0 58 74h83q-7 -59 -38.5 -91t-102.5 -32zM561 0l-77 204h-307l-79 -204h-85l263 671h116l258 -671h-89z
M202 268h258l-86 228q-18 50 -42 123q-21 -64 -42 -122z" />
    <glyph glyph-name="uni1EB3" unicode="&#x1eb3;" horiz-adv-x="535" 
d="M227 690q37 36 41 69t-22 39.5t-68 -15.5v55q32 20 63.5 21t51 -15t29.5 -39.5t0.5 -55t-37.5 -59.5h-58zM265 568q-73 0 -104 32t-38 91h83q0 -74 59 -74q58 0 58 74h83q-7 -59 -38.5 -91t-102.5 -32zM261 514q96 0 148 -43t52 -121v-350h-86v96q-19 -47 -61 -75
t-97 -28q-75 0 -121.5 38.5t-46.5 103.5q0 124 184 162l142 30v19q0 113 -119 113q-59 0 -92.5 -31t-40.5 -86l-74 32q8 60 67 100t145 40zM246 50q54 0 92 41.5t38 101.5v93l-125 -32q-107 -27 -107 -109q0 -95 102 -95z" />
    <glyph glyph-name="uni1EB4" unicode="&#x1eb4;" horiz-adv-x="663" 
d="M289 931q-28 0 -29 -41h-50q11 96 83 96q25 0 58.5 -23.5t45.5 -23.5q27 0 30 41h49q-11 -96 -83 -96q-25 0 -58 23.5t-46 23.5zM338 725q-73 0 -104 32t-38 91h83q0 -74 59 -74q58 0 58 74h83q-7 -59 -38.5 -91t-102.5 -32zM561 0l-77 204h-307l-79 -204h-85l263 671
h116l258 -671h-89zM202 268h258l-86 228q-18 50 -42 123q-21 -64 -42 -122z" />
    <glyph glyph-name="uni1EB5" unicode="&#x1eb5;" horiz-adv-x="535" 
d="M216 774q-28 0 -29 -41h-50q11 96 83 96q25 0 58.5 -23.5t45.5 -23.5q27 0 30 41h49q-11 -96 -83 -96q-25 0 -58 23.5t-46 23.5zM265 568q-73 0 -104 32t-38 91h83q0 -74 59 -74q58 0 58 74h83q-7 -59 -38.5 -91t-102.5 -32zM261 514q96 0 148 -43t52 -121v-350h-86v96
q-19 -47 -61 -75t-97 -28q-75 0 -121.5 38.5t-46.5 103.5q0 124 184 162l142 30v19q0 113 -119 113q-59 0 -92.5 -31t-40.5 -86l-74 32q8 60 67 100t145 40zM246 50q54 0 92 41.5t38 101.5v93l-125 -32q-107 -27 -107 -109q0 -95 102 -95z" />
    <glyph glyph-name="uni1EB6" unicode="&#x1eb6;" horiz-adv-x="663" 
d="M338 725q-73 0 -104 32t-38 91h83q0 -74 59 -74q58 0 58 74h83q-7 -59 -38.5 -91t-102.5 -32zM650 0h-89l-77 204h-307l-79 -204h-85l263 671h116zM202 268h258l-86 228q-18 50 -42 123q-21 -64 -42 -122zM283 -160v90h95v-90h-95z" />
    <glyph glyph-name="uni1EB7" unicode="&#x1eb7;" horiz-adv-x="535" 
d="M265 568q-73 0 -104 32t-38 91h83q0 -74 59 -74q58 0 58 74h83q-7 -59 -38.5 -91t-102.5 -32zM261 514q96 0 148 -43t52 -121v-350h-86v96q-19 -47 -61 -75t-97 -28q-75 0 -121.5 38.5t-46.5 103.5q0 124 184 162l142 30v19q0 113 -119 113q-59 0 -92.5 -31t-40.5 -86
l-74 32q8 60 67 100t145 40zM246 50q54 0 92 41.5t38 101.5v93l-125 -32q-107 -27 -107 -109q0 -95 102 -95zM219 -160v90h95v-90h-95z" />
    <glyph glyph-name="uni1EB8" unicode="&#x1eb8;" horiz-adv-x="568" 
d="M519 607h-352v-235h328v-64h-328v-244h352v-64h-440v671h440v-64zM273 -160v90h95v-90h-95z" />
    <glyph glyph-name="uni1EB9" unicode="&#x1eb9;" horiz-adv-x="553" 
d="M434 162l72 -43q-57 -126 -213 -126q-112 0 -178 70t-66 190q0 118 64 189.5t169 71.5q102 0 159.5 -71t58.5 -192h-1l1 -3h-359q2 -94 44.5 -147t117.5 -53q105 0 131 114zM282 459q-60 0 -95.5 -43t-43.5 -121h263q-5 86 -34.5 125t-89.5 39zM228 -160v90h95v-90h-95z
" />
    <glyph glyph-name="uni1EBA" unicode="&#x1eba;" horiz-adv-x="568" 
d="M274 739q37 36 41 69t-22 39.5t-68 -15.5v55q32 20 63.5 21t51 -15t29.5 -39.5t0.5 -55t-37.5 -59.5h-58zM519 607h-352v-235h328v-64h-328v-244h352v-64h-440v671h440v-64z" />
    <glyph glyph-name="uni1EBB" unicode="&#x1ebb;" horiz-adv-x="553" 
d="M248 574q37 36 41 69t-22 39.5t-68 -15.5v55q32 20 63.5 21t51 -15t29.5 -39.5t0.5 -55t-37.5 -59.5h-58zM434 162l72 -43q-57 -126 -213 -126q-112 0 -178 70t-66 190q0 118 64 189.5t169 71.5q102 0 159.5 -71t58.5 -192h-1l1 -3h-359q2 -94 44.5 -147t117.5 -53
q105 0 131 114zM282 459q-60 0 -95.5 -43t-43.5 -121h263q-5 86 -34.5 125t-89.5 39z" />
    <glyph glyph-name="uni1EBC" unicode="&#x1ebc;" horiz-adv-x="568" 
d="M252 787q-28 0 -29 -41h-50q11 96 83 96q25 0 58.5 -23.5t45.5 -23.5q27 0 30 41h49q-11 -96 -83 -96q-25 0 -58 23.5t-46 23.5zM519 607h-352v-235h328v-64h-328v-244h352v-64h-440v671h440v-64z" />
    <glyph glyph-name="uni1EBD" unicode="&#x1ebd;" horiz-adv-x="553" 
d="M226 622q-28 0 -29 -41h-50q11 96 83 96q25 0 58.5 -23.5t45.5 -23.5q27 0 30 41h49q-11 -96 -83 -96q-25 0 -58 23.5t-46 23.5zM434 162l72 -43q-57 -126 -213 -126q-112 0 -178 70t-66 190q0 118 64 189.5t169 71.5q102 0 159.5 -71t58.5 -192h-1l1 -3h-359
q2 -94 44.5 -147t117.5 -53q105 0 131 114zM282 459q-60 0 -95.5 -43t-43.5 -121h263q-5 86 -34.5 125t-89.5 39z" />
    <glyph glyph-name="uni1EBE" unicode="&#x1ebe;" horiz-adv-x="568" 
d="M554 935l-94 -116h-60l53 116h101zM308 810l-53 -77h-89l105 116h73l105 -116h-89zM519 671v-64h-352v-235h328v-64h-328v-244h352v-64h-440v671h440z" />
    <glyph glyph-name="uni1EBF" unicode="&#x1ebf;" horiz-adv-x="553" 
d="M528 770l-94 -116h-60l53 116h101zM282 645l-53 -77h-89l105 116h73l105 -116h-89zM303 48q105 0 131 114l72 -43q-57 -126 -213 -126q-112 0 -178 70t-66 190q0 118 64 189.5t169 71.5q102 0 159.5 -71t58.5 -192h-1l1 -3h-359q2 -94 44.5 -147t117.5 -53zM282 459
q-60 0 -95.5 -43t-43.5 -121h263q-5 86 -34.5 125t-89.5 39z" />
    <glyph glyph-name="uni1EC0" unicode="&#x1ec0;" horiz-adv-x="568" 
d="M216 815h-60l-94 116h101zM253 733h-89l104 116h74l104 -116h-89l-52 76zM519 607h-352v-235h328v-64h-328v-244h352v-64h-440v671h440v-64z" />
    <glyph glyph-name="uni1EC1" unicode="&#x1ec1;" horiz-adv-x="553" 
d="M190 650h-60l-94 116h101zM227 568h-89l104 116h74l104 -116h-89l-52 76zM434 162l72 -43q-57 -126 -213 -126q-112 0 -178 70t-66 190q0 118 64 189.5t169 71.5q102 0 159.5 -71t58.5 -192h-1l1 -3h-359q2 -94 44.5 -147t117.5 -53q105 0 131 114zM282 459
q-60 0 -95.5 -43t-43.5 -121h263q-5 86 -34.5 125t-89.5 39z" />
    <glyph glyph-name="uni1EC2" unicode="&#x1ec2;" horiz-adv-x="568" 
d="M393 825q51 49 40 87q-9 30 -48 23q-19 -3 -40 -16v54q32 20 63 21t50.5 -14.5t29.5 -39.5t1 -55.5t-37 -59.5h-59zM307 809l-53 -77h-89l105 116h73l105 -116h-89zM519 607h-352v-235h328v-64h-328v-244h352v-64h-440v671h440v-64z" />
    <glyph glyph-name="uni1EC3" unicode="&#x1ec3;" horiz-adv-x="553" 
d="M367 660q51 49 40 87q-9 30 -48 23q-19 -3 -40 -16v54q32 20 63 21t50.5 -14.5t29.5 -39.5t1 -55.5t-37 -59.5h-59zM281 644l-53 -77h-89l105 116h73l105 -116h-89zM434 162l72 -43q-57 -126 -213 -126q-112 0 -178 70t-66 190q0 118 64 189.5t169 71.5q102 0 159.5 -71
t58.5 -192h-1l1 -3h-359q2 -94 44.5 -147t117.5 -53q105 0 131 114zM282 459q-60 0 -95.5 -43t-43.5 -121h263q-5 86 -34.5 125t-89.5 39z" />
    <glyph glyph-name="uni1EC4" unicode="&#x1ec4;" horiz-adv-x="568" 
d="M257 914q-27 0 -30 -40h-49q9 95 82 95q25 0 59 -23.5t46 -23.5q28 0 29 41h49q-9 -96 -82 -96q-25 0 -58 23.5t-46 23.5zM307 810l-53 -77h-89l105 116h73l105 -116h-89zM519 607h-352v-235h328v-64h-328v-244h352v-64h-440v671h440v-64z" />
    <glyph glyph-name="uni1EC5" unicode="&#x1ec5;" horiz-adv-x="553" 
d="M231 749q-27 0 -30 -40h-49q9 95 82 95q25 0 59 -23.5t46 -23.5q28 0 29 41h49q-9 -96 -82 -96q-25 0 -58 23.5t-46 23.5zM281 645l-53 -77h-89l105 116h73l105 -116h-89zM434 162l72 -43q-57 -126 -213 -126q-112 0 -178 70t-66 190q0 118 64 189.5t169 71.5
q102 0 159.5 -71t58.5 -192h-1l1 -3h-359q2 -94 44.5 -147t117.5 -53q105 0 131 114zM282 459q-60 0 -95.5 -43t-43.5 -121h263q-5 86 -34.5 125t-89.5 39z" />
    <glyph glyph-name="uni1EC6" unicode="&#x1ec6;" horiz-adv-x="568" 
d="M307 810l-53 -77h-89l105 116h73l105 -116h-89zM519 607h-352v-235h328v-64h-328v-244h352v-64h-440v671h440v-64zM273 -160v90h95v-90h-95z" />
    <glyph glyph-name="uni1EC7" unicode="&#x1ec7;" horiz-adv-x="553" 
d="M281 645l-53 -77h-89l105 116h73l105 -116h-89zM434 162l72 -43q-57 -126 -213 -126q-112 0 -178 70t-66 190q0 118 64 189.5t169 71.5q102 0 159.5 -71t58.5 -192h-1l1 -3h-359q2 -94 44.5 -147t117.5 -53q105 0 131 114zM282 459q-60 0 -95.5 -43t-43.5 -121h263
q-5 86 -34.5 125t-89.5 39zM228 -160v90h95v-90h-95z" />
    <glyph glyph-name="uni1EC8" unicode="&#x1ec8;" horiz-adv-x="246" 
d="M42 887q32 20 63.5 21t51 -15t29.5 -39.5t0.5 -55t-37.5 -59.5h-58q37 36 41 69t-22 39.5t-68 -15.5v55zM79 0v671h87v-671h-87z" />
    <glyph glyph-name="uni1EC9" unicode="&#x1ec9;" horiz-adv-x="246" 
d="M42 717q32 20 63.5 21t51 -15t29.5 -39.5t0.5 -55t-37.5 -59.5h-58q37 36 41 69t-22 39.5t-68 -15.5v55zM80 0v499h85v-499h-85z" />
    <glyph glyph-name="uni1ECA" unicode="&#x1eca;" horiz-adv-x="246" 
d="M79 0v671h87v-671h-87zM75 -160v90h95v-90h-95z" />
    <glyph glyph-name="uni1ECB" unicode="&#x1ecb;" horiz-adv-x="263" 
d="M81 587v84h100v-84h-100zM88 0v499h85v-499h-85zM83 -160v90h95v-90h-95z" />
    <glyph glyph-name="uni1ECC" unicode="&#x1ecc;" horiz-adv-x="710" 
d="M355 -7q-141 0 -223.5 92.5t-82.5 251.5t82.5 252t223.5 93t223.5 -92.5t82.5 -252.5q0 -159 -82.5 -251.5t-223.5 -92.5zM355 56q101 0 157.5 74t56.5 207t-57 207t-158 74q-100 0 -156 -74t-56 -207t56 -207t157 -74zM307 -160v90h95v-90h-95z" />
    <glyph glyph-name="uni1ECD" unicode="&#x1ecd;" horiz-adv-x="584" 
d="M292 -7q-111 0 -177 70.5t-66 189.5q0 120 66 190.5t177 70.5q112 0 177 -70.5t65 -190.5q0 -119 -65 -189.5t-177 -70.5zM292 48q73 0 111.5 53t38.5 152t-38.5 152.5t-111.5 53.5q-72 0 -111 -53.5t-39 -152.5q0 -98 39 -151.5t111 -53.5zM243 -160v90h95v-90h-95z" />
    <glyph glyph-name="uni1ECE" unicode="&#x1ece;" horiz-adv-x="710" 
d="M275 887q32 20 63.5 21t51 -15t29.5 -39.5t0.5 -55t-37.5 -59.5h-58q37 36 41 69t-22 39.5t-68 -15.5v55zM355 -7q-141 0 -223.5 92.5t-82.5 251.5t82.5 252t223.5 93t223.5 -92.5t82.5 -252.5q0 -159 -82.5 -251.5t-223.5 -92.5zM355 56q101 0 157.5 74t56.5 207
t-57 207t-158 74q-100 0 -156 -74t-56 -207t56 -207t157 -74z" />
    <glyph glyph-name="uni1ECF" unicode="&#x1ecf;" horiz-adv-x="584" 
d="M212 722q32 20 63.5 21t51 -15t29.5 -39.5t0.5 -55t-37.5 -59.5h-58q37 36 41 69t-22 39.5t-68 -15.5v55zM292 -7q-111 0 -177 70.5t-66 189.5q0 120 66 190.5t177 70.5q112 0 177 -70.5t65 -190.5q0 -119 -65 -189.5t-177 -70.5zM292 48q73 0 111.5 53t38.5 152
t-38.5 152.5t-111.5 53.5q-72 0 -111 -53.5t-39 -152.5q0 -98 39 -151.5t111 -53.5z" />
    <glyph glyph-name="uni1ED0" unicode="&#x1ed0;" horiz-adv-x="710" 
d="M603 935l-94 -116h-60l53 116h101zM357 810l-53 -77h-89l105 116h73l105 -116h-89zM355 682q141 0 223.5 -92.5t82.5 -252.5q0 -159 -82.5 -251.5t-223.5 -92.5t-223.5 92.5t-82.5 251.5t82.5 252t223.5 93zM355 56q101 0 157.5 74t56.5 207t-57 207t-158 74
q-100 0 -156 -74t-56 -207t56 -207t157 -74z" />
    <glyph glyph-name="uni1ED1" unicode="&#x1ed1;" horiz-adv-x="584" 
d="M540 770l-94 -116h-60l53 116h101zM294 645l-53 -77h-89l105 116h73l105 -116h-89zM292 514q112 0 177 -70.5t65 -190.5q0 -119 -65 -189.5t-177 -70.5q-111 0 -177 70.5t-66 189.5q0 120 66 190.5t177 70.5zM292 48q73 0 111.5 53t38.5 152t-38.5 152.5t-111.5 53.5
q-72 0 -111 -53.5t-39 -152.5q0 -98 39 -151.5t111 -53.5z" />
    <glyph glyph-name="uni1ED2" unicode="&#x1ed2;" horiz-adv-x="710" 
d="M265 815h-60l-94 116h101zM302 733h-89l104 116h74l104 -116h-89l-52 76zM355 682q141 0 223.5 -92.5t82.5 -252.5q0 -159 -82.5 -251.5t-223.5 -92.5t-223.5 92.5t-82.5 251.5t82.5 252t223.5 93zM355 56q101 0 157.5 74t56.5 207t-57 207t-158 74q-100 0 -156 -74
t-56 -207t56 -207t157 -74z" />
    <glyph glyph-name="uni1ED3" unicode="&#x1ed3;" horiz-adv-x="584" 
d="M202 650h-60l-94 116h101zM239 568h-89l104 116h74l104 -116h-89l-52 76zM292 514q112 0 177 -70.5t65 -190.5q0 -119 -65 -189.5t-177 -70.5q-111 0 -177 70.5t-66 189.5q0 120 66 190.5t177 70.5zM292 48q73 0 111.5 53t38.5 152t-38.5 152.5t-111.5 53.5
q-72 0 -111 -53.5t-39 -152.5q0 -98 39 -151.5t111 -53.5z" />
    <glyph glyph-name="uni1ED4" unicode="&#x1ed4;" horiz-adv-x="710" 
d="M443 825q51 49 40 87q-9 30 -48 23q-19 -3 -40 -16v54q32 20 63 21t50.5 -14.5t29.5 -39.5t1 -55.5t-37 -59.5h-59zM357 809l-53 -77h-89l105 116h73l105 -116h-89zM355 682q141 0 223.5 -92.5t82.5 -252.5q0 -159 -82.5 -251.5t-223.5 -92.5t-223.5 92.5t-82.5 251.5
t82.5 252t223.5 93zM355 56q101 0 157.5 74t56.5 207t-57 207t-158 74q-100 0 -156 -74t-56 -207t56 -207t157 -74z" />
    <glyph glyph-name="uni1ED5" unicode="&#x1ed5;" horiz-adv-x="584" 
d="M379 660q51 49 40 87q-9 30 -48 23q-19 -3 -40 -16v54q32 20 63 21t50.5 -14.5t29.5 -39.5t1 -55.5t-37 -59.5h-59zM293 644l-53 -77h-89l105 116h73l105 -116h-89zM292 514q112 0 177 -70.5t65 -190.5q0 -119 -65 -189.5t-177 -70.5q-111 0 -177 70.5t-66 189.5
q0 120 66 190.5t177 70.5zM292 48q73 0 111.5 53t38.5 152t-38.5 152.5t-111.5 53.5q-72 0 -111 -53.5t-39 -152.5q0 -98 39 -151.5t111 -53.5z" />
    <glyph glyph-name="uni1ED6" unicode="&#x1ed6;" horiz-adv-x="710" 
d="M307 914q-27 0 -30 -40h-49q9 95 82 95q25 0 59 -23.5t46 -23.5q28 0 29 41h49q-9 -96 -82 -96q-25 0 -58 23.5t-46 23.5zM357 810l-53 -77h-89l105 116h73l105 -116h-89zM355 682q141 0 223.5 -92.5t82.5 -252.5q0 -159 -82.5 -251.5t-223.5 -92.5t-223.5 92.5
t-82.5 251.5t82.5 252t223.5 93zM355 56q101 0 157.5 74t56.5 207t-57 207t-158 74q-100 0 -156 -74t-56 -207t56 -207t157 -74z" />
    <glyph glyph-name="uni1ED7" unicode="&#x1ed7;" horiz-adv-x="584" 
d="M243 749q-27 0 -30 -40h-49q9 95 82 95q25 0 59 -23.5t46 -23.5q28 0 29 41h49q-9 -96 -82 -96q-25 0 -58 23.5t-46 23.5zM293 645l-53 -77h-89l105 116h73l105 -116h-89zM292 514q112 0 177 -70.5t65 -190.5q0 -119 -65 -189.5t-177 -70.5q-111 0 -177 70.5t-66 189.5
q0 120 66 190.5t177 70.5zM292 48q73 0 111.5 53t38.5 152t-38.5 152.5t-111.5 53.5q-72 0 -111 -53.5t-39 -152.5q0 -98 39 -151.5t111 -53.5z" />
    <glyph glyph-name="uni1ED8" unicode="&#x1ed8;" horiz-adv-x="710" 
d="M357 810l-53 -77h-89l105 116h73l105 -116h-89zM355 682q141 0 223.5 -92.5t82.5 -252.5q0 -159 -82.5 -251.5t-223.5 -92.5t-223.5 92.5t-82.5 251.5t82.5 252t223.5 93zM355 56q101 0 157.5 74t56.5 207t-57 207t-158 74q-100 0 -156 -74t-56 -207t56 -207t157 -74z
M307 -160v90h95v-90h-95z" />
    <glyph glyph-name="uni1ED9" unicode="&#x1ed9;" horiz-adv-x="584" 
d="M293 645l-53 -77h-89l105 116h73l105 -116h-89zM292 514q112 0 177 -70.5t65 -190.5q0 -119 -65 -189.5t-177 -70.5q-111 0 -177 70.5t-66 189.5q0 120 66 190.5t177 70.5zM292 48q73 0 111.5 53t38.5 152t-38.5 152.5t-111.5 53.5q-72 0 -111 -53.5t-39 -152.5
q0 -98 39 -151.5t111 -53.5zM243 -160v90h95v-90h-95z" />
    <glyph glyph-name="uni1EDA" unicode="&#x1eda;" horiz-adv-x="710" 
d="M473 855l-94 -116h-60l53 116h101zM548 618q113 -91 113 -281q0 -159 -82.5 -251.5t-223.5 -92.5t-223.5 92.5t-82.5 251.5t82.5 252t223.5 93q40 0 72 -7h75q42 0 55 11t13 41v60h65v-69q0 -96 -87 -100zM355 56q101 0 157.5 74t56.5 207t-57 207t-158 74
q-100 0 -156 -74t-56 -207t56 -207t157 -74z" />
    <glyph glyph-name="uni1EDB" unicode="&#x1edb;" horiz-adv-x="584" 
d="M410 690l-94 -116h-60l53 116h101zM463 449q71 -69 71 -196q0 -119 -65 -189.5t-177 -70.5q-111 0 -177 70.5t-66 189.5q0 120 66 190.5t177 70.5q50 0 95 -16h7q42 0 55 11.5t13 40.5v60h54v-69q0 -75 -53 -92zM292 48q73 0 111.5 53t38.5 152t-38.5 152.5t-111.5 53.5
q-72 0 -111 -53.5t-39 -152.5q0 -98 39 -151.5t111 -53.5z" />
    <glyph glyph-name="uni1EDC" unicode="&#x1edc;" horiz-adv-x="710" 
d="M390 739h-60l-94 116h101zM548 618q113 -91 113 -281q0 -159 -82.5 -251.5t-223.5 -92.5t-223.5 92.5t-82.5 251.5t82.5 252t223.5 93q40 0 72 -7h75q42 0 55 11t13 41v60h65v-69q0 -96 -87 -100zM355 56q101 0 157.5 74t56.5 207t-57 207t-158 74q-100 0 -156 -74
t-56 -207t56 -207t157 -74z" />
    <glyph glyph-name="uni1EDD" unicode="&#x1edd;" horiz-adv-x="584" 
d="M327 574h-60l-94 116h101zM463 449q71 -69 71 -196q0 -119 -65 -189.5t-177 -70.5q-111 0 -177 70.5t-66 189.5q0 120 66 190.5t177 70.5q50 0 95 -16h7q42 0 55 11.5t13 40.5v60h54v-69q0 -75 -53 -92zM292 48q73 0 111.5 53t38.5 152t-38.5 152.5t-111.5 53.5
q-72 0 -111 -53.5t-39 -152.5q0 -98 39 -151.5t111 -53.5z" />
    <glyph glyph-name="uni1EDE" unicode="&#x1ede;" horiz-adv-x="710" 
d="M324 739q37 36 41 69t-22 39.5t-68 -15.5v55q32 20 63.5 21t51 -15t29.5 -39.5t0.5 -55t-37.5 -59.5h-58zM548 618q113 -91 113 -281q0 -159 -82.5 -251.5t-223.5 -92.5t-223.5 92.5t-82.5 251.5t82.5 252t223.5 93q40 0 72 -7h75q42 0 55 11t13 41v60h65v-69
q0 -96 -87 -100zM355 56q101 0 157.5 74t56.5 207t-57 207t-158 74q-100 0 -156 -74t-56 -207t56 -207t157 -74z" />
    <glyph glyph-name="uni1EDF" unicode="&#x1edf;" horiz-adv-x="584" 
d="M261 574q37 36 41 69t-22 39.5t-68 -15.5v55q32 20 63.5 21t51 -15t29.5 -39.5t0.5 -55t-37.5 -59.5h-58zM463 449q71 -69 71 -196q0 -119 -65 -189.5t-177 -70.5q-111 0 -177 70.5t-66 189.5q0 120 66 190.5t177 70.5q50 0 95 -16h7q42 0 55 11.5t13 40.5v60h54v-69
q0 -75 -53 -92zM292 48q73 0 111.5 53t38.5 152t-38.5 152.5t-111.5 53.5q-72 0 -111 -53.5t-39 -152.5q0 -98 39 -151.5t111 -53.5z" />
    <glyph glyph-name="uni1EE0" unicode="&#x1ee0;" horiz-adv-x="710" 
d="M301 787q-28 0 -29 -41h-50q11 96 83 96q25 0 58.5 -23.5t45.5 -23.5q27 0 30 41h49q-11 -96 -83 -96q-25 0 -58 23.5t-46 23.5zM548 618q113 -91 113 -281q0 -159 -82.5 -251.5t-223.5 -92.5t-223.5 92.5t-82.5 251.5t82.5 252t223.5 93q40 0 72 -7h75q42 0 55 11t13 41
v60h65v-69q0 -96 -87 -100zM355 56q101 0 157.5 74t56.5 207t-57 207t-158 74q-100 0 -156 -74t-56 -207t56 -207t157 -74z" />
    <glyph glyph-name="uni1EE1" unicode="&#x1ee1;" horiz-adv-x="584" 
d="M238 622q-28 0 -29 -41h-50q11 96 83 96q25 0 58.5 -23.5t45.5 -23.5q27 0 30 41h49q-11 -96 -83 -96q-25 0 -58 23.5t-46 23.5zM463 449q71 -69 71 -196q0 -119 -65 -189.5t-177 -70.5q-111 0 -177 70.5t-66 189.5q0 120 66 190.5t177 70.5q50 0 95 -16h7q42 0 55 11.5
t13 40.5v60h54v-69q0 -75 -53 -92zM292 48q73 0 111.5 53t38.5 152t-38.5 152.5t-111.5 53.5q-72 0 -111 -53.5t-39 -152.5q0 -98 39 -151.5t111 -53.5z" />
    <glyph glyph-name="uni1EE2" unicode="&#x1ee2;" horiz-adv-x="710" 
d="M548 618q113 -91 113 -281q0 -159 -82.5 -251.5t-223.5 -92.5t-223.5 92.5t-82.5 251.5t82.5 252t223.5 93q40 0 72 -7h75q42 0 55 11t13 41v60h65v-69q0 -96 -87 -100zM355 56q101 0 157.5 74t56.5 207t-57 207t-158 74q-100 0 -156 -74t-56 -207t56 -207t157 -74z
M307 -160v90h95v-90h-95z" />
    <glyph glyph-name="uni1EE3" unicode="&#x1ee3;" horiz-adv-x="584" 
d="M463 449q71 -69 71 -196q0 -119 -65 -189.5t-177 -70.5q-111 0 -177 70.5t-66 189.5q0 120 66 190.5t177 70.5q50 0 95 -16h7q42 0 55 11.5t13 40.5v60h54v-69q0 -75 -53 -92zM292 48q73 0 111.5 53t38.5 152t-38.5 152.5t-111.5 53.5q-72 0 -111 -53.5t-39 -152.5
q0 -98 39 -151.5t111 -53.5zM243 -160v90h95v-90h-95z" />
    <glyph glyph-name="uni1EE4" unicode="&#x1ee4;" horiz-adv-x="649" 
d="M488 671h87v-440q0 -120 -60 -179t-190 -59t-190.5 59t-60.5 179v440h87l1 -433q0 -93 36.5 -137t126.5 -44t126.5 44.5t36.5 136.5v433zM277 -160v90h95v-90h-95z" />
    <glyph glyph-name="uni1EE5" unicode="&#x1ee5;" horiz-adv-x="582" 
d="M417 498h85v-498h-85v106q-45 -113 -167 -113q-176 0 -176 174v331h86v-319q0 -60 29 -94.5t88 -34.5q65 0 102 43.5t38 112.5v292zM243 -160v90h95v-90h-95z" />
    <glyph glyph-name="uni1EE6" unicode="&#x1ee6;" horiz-adv-x="649" 
d="M293 739q37 36 41 69t-22 39.5t-68 -15.5v55q32 20 63.5 21t51 -15t29.5 -39.5t0.5 -55t-37.5 -59.5h-58zM488 671h87v-440q0 -120 -60 -179t-190 -59t-190.5 59t-60.5 179v440h87l1 -433q0 -93 36.5 -137t126.5 -44t126.5 44.5t36.5 136.5v433z" />
    <glyph glyph-name="uni1EE7" unicode="&#x1ee7;" horiz-adv-x="582" 
d="M260 574q37 36 41 69t-22 39.5t-68 -15.5v55q32 20 63.5 21t51 -15t29.5 -39.5t0.5 -55t-37.5 -59.5h-58zM417 498h85v-498h-85v106q-45 -113 -167 -113q-176 0 -176 174v331h86v-319q0 -60 29 -94.5t88 -34.5q65 0 102 43.5t38 112.5v292z" />
    <glyph glyph-name="uni1EE8" unicode="&#x1ee8;" horiz-adv-x="712" 
d="M442 855l-94 -116h-60l53 116h101zM639 783h58v-71q0 -53 -27.5 -78t-94.5 -18v-385q0 -120 -60 -179t-190 -59t-190.5 59t-60.5 179v440h87l1 -433q0 -93 36.5 -137t126.5 -44t126.5 44.5t36.5 136.5v433h87q41 0 52.5 11t11.5 41v60z" />
    <glyph glyph-name="uni1EE9" unicode="&#x1ee9;" horiz-adv-x="582" 
d="M410 690l-94 -116h-60l53 116h101zM567 610h58v-71q0 -53 -27.5 -78t-95.5 -18v-443h-85v106q-45 -113 -167 -113q-176 0 -176 174v331h86v-319q0 -60 29 -94.5t88 -34.5q65 0 102 43.5t38 112.5v292h85q42 0 53.5 11t11.5 41v60z" />
    <glyph glyph-name="uni1EEA" unicode="&#x1eea;" horiz-adv-x="712" 
d="M359 739h-60l-94 116h101zM639 783h58v-71q0 -53 -27.5 -78t-94.5 -18v-385q0 -120 -60 -179t-190 -59t-190.5 59t-60.5 179v440h87l1 -433q0 -93 36.5 -137t126.5 -44t126.5 44.5t36.5 136.5v433h87q41 0 52.5 11t11.5 41v60z" />
    <glyph glyph-name="uni1EEB" unicode="&#x1eeb;" horiz-adv-x="582" 
d="M327 574h-60l-94 116h101zM567 610h58v-71q0 -53 -27.5 -78t-95.5 -18v-443h-85v106q-45 -113 -167 -113q-176 0 -176 174v331h86v-319q0 -60 29 -94.5t88 -34.5q65 0 102 43.5t38 112.5v292h85q42 0 53.5 11t11.5 41v60z" />
    <glyph glyph-name="uni1EEC" unicode="&#x1eec;" horiz-adv-x="712" 
d="M293 739q37 36 41 69t-22 39.5t-68 -15.5v55q32 20 63.5 21t51 -15t29.5 -39.5t0.5 -55t-37.5 -59.5h-58zM639 783h58v-71q0 -53 -27.5 -78t-94.5 -18v-385q0 -120 -60 -179t-190 -59t-190.5 59t-60.5 179v440h87l1 -433q0 -93 36.5 -137t126.5 -44t126.5 44.5
t36.5 136.5v433h87q41 0 52.5 11t11.5 41v60z" />
    <glyph glyph-name="uni1EED" unicode="&#x1eed;" horiz-adv-x="582" 
d="M260 574q37 36 41 69t-22 39.5t-68 -15.5v55q32 20 63.5 21t51 -15t29.5 -39.5t0.5 -55t-37.5 -59.5h-58zM567 610h58v-71q0 -53 -27.5 -78t-95.5 -18v-443h-85v106q-45 -113 -167 -113q-176 0 -176 174v331h86v-319q0 -60 29 -94.5t88 -34.5q65 0 102 43.5t38 112.5v292
h85q42 0 53.5 11t11.5 41v60z" />
    <glyph glyph-name="uni1EEE" unicode="&#x1eee;" horiz-adv-x="712" 
d="M270 787q-28 0 -29 -41h-50q11 96 83 96q25 0 58.5 -23.5t45.5 -23.5q27 0 30 41h49q-11 -96 -83 -96q-25 0 -58 23.5t-46 23.5zM639 783h58v-71q0 -53 -27.5 -78t-94.5 -18v-385q0 -120 -60 -179t-190 -59t-190.5 59t-60.5 179v440h87l1 -433q0 -93 36.5 -137t126.5 -44
t126.5 44.5t36.5 136.5v433h87q41 0 52.5 11t11.5 41v60z" />
    <glyph glyph-name="uni1EEF" unicode="&#x1eef;" horiz-adv-x="582" 
d="M238 622q-28 0 -29 -41h-50q11 96 83 96q25 0 58.5 -23.5t45.5 -23.5q27 0 30 41h49q-11 -96 -83 -96q-25 0 -58 23.5t-46 23.5zM567 610h58v-71q0 -53 -27.5 -78t-95.5 -18v-443h-85v106q-45 -113 -167 -113q-176 0 -176 174v331h86v-319q0 -60 29 -94.5t88 -34.5
q65 0 102 43.5t38 112.5v292h85q42 0 53.5 11t11.5 41v60z" />
    <glyph glyph-name="uni1EF0" unicode="&#x1ef0;" horiz-adv-x="712" 
d="M639 783h58v-71q0 -53 -27.5 -78t-94.5 -18v-385q0 -120 -60 -179t-190 -59t-190.5 59t-60.5 179v440h87l1 -433q0 -93 36.5 -137t126.5 -44t126.5 44.5t36.5 136.5v433h87q41 0 52.5 11t11.5 41v60zM277 -160v90h95v-90h-95z" />
    <glyph glyph-name="uni1EF1" unicode="&#x1ef1;" horiz-adv-x="582" 
d="M567 610h58v-71q0 -53 -27.5 -78t-95.5 -18v-443h-85v106q-45 -113 -167 -113q-176 0 -176 174v331h86v-319q0 -60 29 -94.5t88 -34.5q65 0 102 43.5t38 112.5v292h85q42 0 53.5 11t11.5 41v60zM243 -160v90h95v-90h-95z" />
    <glyph glyph-name="Ygrave" unicode="&#x1ef2;" horiz-adv-x="588" 
d="M329 739h-60l-94 116h101zM579 671l-241 -383v-288h-86v285l-243 386h98l189 -309l189 309h94z" />
    <glyph glyph-name="ygrave" unicode="&#x1ef3;" horiz-adv-x="511" 
d="M296 574h-60l-94 116h101zM393 498h89l-249 -648h-86l80 180l-199 468h90l122 -303q18 -46 25 -69z" />
    <glyph glyph-name="uni1EF4" unicode="&#x1ef4;" horiz-adv-x="588" 
d="M252 0v285l-243 386h98l189 -309l189 309h94l-241 -383v-288h-86zM246 -160v90h95v-90h-95z" />
    <glyph glyph-name="uni1EF5" unicode="&#x1ef5;" horiz-adv-x="511" 
d="M147 -150l80 180l-199 468h90l122 -303q18 -46 25 -69l128 372h89l-249 -648h-86zM142 -289v90h95v-90h-95z" />
    <glyph glyph-name="uni1EF6" unicode="&#x1ef6;" horiz-adv-x="588" 
d="M262 739q37 36 41 69t-22 39.5t-68 -15.5v55q32 20 63.5 21t51 -15t29.5 -39.5t0.5 -55t-37.5 -59.5h-58zM579 671l-241 -383v-288h-86v285l-243 386h98l189 -309l189 309h94z" />
    <glyph glyph-name="uni1EF7" unicode="&#x1ef7;" horiz-adv-x="511" 
d="M229 574q37 36 41 69t-22 39.5t-68 -15.5v55q32 20 63.5 21t51 -15t29.5 -39.5t0.5 -55t-37.5 -59.5h-58zM393 498h89l-249 -648h-86l80 180l-199 468h90l122 -303q18 -46 25 -69z" />
    <glyph glyph-name="uni1EF8" unicode="&#x1ef8;" horiz-adv-x="588" 
d="M240 787q-28 0 -29 -41h-50q11 96 83 96q25 0 58.5 -23.5t45.5 -23.5q27 0 30 41h49q-11 -96 -83 -96q-25 0 -58 23.5t-46 23.5zM579 671l-241 -383v-288h-86v285l-243 386h98l189 -309l189 309h94z" />
    <glyph glyph-name="uni1EF9" unicode="&#x1ef9;" horiz-adv-x="511" 
d="M206 622q-28 0 -29 -41h-50q11 96 83 96q25 0 58.5 -23.5t45.5 -23.5q27 0 30 41h49q-11 -96 -83 -96q-25 0 -58 23.5t-46 23.5zM393 498h89l-249 -648h-86l80 180l-199 468h90l122 -303q18 -46 25 -69z" />
    <glyph glyph-name="endash" unicode="&#x2013;" horiz-adv-x="610" 
d="M80 233v64h450v-64h-450z" />
    <glyph glyph-name="emdash" unicode="&#x2014;" horiz-adv-x="857" 
d="M80 233v64h696v-64h-696z" />
    <glyph glyph-name="quoteleft" unicode="&#x2018;" horiz-adv-x="257" 
d="M183 618q-22 0 -34 -9.5t-12 -36.5v-35h44v-94h-106v129q0 49 30.5 74.5t77.5 24.5v-53z" />
    <glyph glyph-name="quoteright" unicode="&#x2019;" horiz-adv-x="259" 
d="M76 671h107v-130q-1 -49 -31.5 -74t-76.5 -24v53q45 -2 45 45v36h-44v94z" />
    <glyph glyph-name="quotesinglbase" unicode="&#x201a;" horiz-adv-x="257" 
d="M76 89h107v-129q-1 -49 -31.5 -74.5t-76.5 -24.5v53q22 0 33.5 9.5t11.5 36.5v35h-44v94z" />
    <glyph glyph-name="quotedblleft" unicode="&#x201c;" horiz-adv-x="440" 
d="M75 572q0 49 30.5 74.5t77.5 24.5v-53q-46 2 -46 -46v-35h44v-94h-106v129zM366 618q-46 2 -46 -46v-35h44v-94h-107v129q1 49 31.5 74.5t77.5 24.5v-53z" />
    <glyph glyph-name="quotedblright" unicode="&#x201d;" horiz-adv-x="440" 
d="M76 577v94h107v-130q-1 -49 -31.5 -74t-76.5 -24v53q45 -2 45 45v36h-44zM259 671h107v-130q-1 -49 -31.5 -74t-77.5 -24v53q46 -2 46 45v36h-44v94z" />
    <glyph glyph-name="quotedblbase" unicode="&#x201e;" horiz-adv-x="439" 
d="M76 -5v94h107v-129q-1 -49 -31.5 -74.5t-76.5 -24.5v53q22 0 33.5 9.5t11.5 36.5v35h-44zM258 89h106v-129q-1 -49 -31 -74.5t-77 -24.5v53q22 0 34 9.5t12 36.5v35h-44v94z" />
    <glyph glyph-name="dagger" unicode="&#x2020;" horiz-adv-x="542" 
d="M463 561v-63h-148v-259h-86v259h-150v63h150v128h86v-128h148z" />
    <glyph glyph-name="daggerdbl" unicode="&#x2021;" horiz-adv-x="542" 
d="M463 517h-148v-96h148v-63h-148v-119h-86v119h-150v63h150v96h-150v63h150v109h86v-109h148v-63z" />
    <glyph glyph-name="bullet" unicode="&#x2022;" horiz-adv-x="412" 
d="M206 150q-53 0 -90.5 37.5t-37.5 91.5q0 53 37.5 90.5t90.5 37.5t90.5 -37.5t37.5 -90.5q0 -54 -37.5 -91.5t-90.5 -37.5z" />
    <glyph glyph-name="ellipsis" unicode="&#x2026;" horiz-adv-x="593" 
d="M75 -6v99h98v-99h-98zM247 -6v99h99v-99h-99zM420 -6v99h99v-99h-99z" />
    <glyph glyph-name="perthousand" unicode="&#x2030;" horiz-adv-x="1407" 
d="M238 283q-73 0 -124.5 56t-51.5 143q0 88 51 144t125 56t124.5 -56t50.5 -144t-50.5 -143.5t-124.5 -55.5zM260 -7l401 688h75l-402 -688h-74zM239 337q44 0 71 38.5t27 106.5q0 69 -27 107.5t-71 38.5t-71 -38.5t-27 -107.5q0 -68 27 -106.5t71 -38.5zM759 -7
q-74 0 -125 56t-51 143q0 88 51 144t125 56q73 0 124 -56t51 -144t-50.5 -143.5t-124.5 -55.5zM1169 -7q-73 0 -124 56t-51 143t51 143.5t124 56.5q74 0 124.5 -56t50.5 -144t-50.5 -143.5t-124.5 -55.5zM760 47q44 0 70.5 38.5t26.5 106.5q0 69 -26.5 107.5t-70.5 38.5
q-45 0 -72 -38.5t-27 -107.5t27 -107t72 -38zM1170 47q44 0 71 38.5t27 106.5q0 69 -27 107.5t-71 38.5t-71 -38.5t-27 -107.5q0 -68 27 -106.5t71 -38.5z" />
    <glyph glyph-name="guilsinglleft" unicode="&#x2039;" horiz-adv-x="372" 
d="M317 444l-167 -191l167 -191h-90l-172 191l175 191h87z" />
    <glyph glyph-name="guilsinglright" unicode="&#x203a;" horiz-adv-x="372" 
d="M143 444l174 -191l-172 -191h-90l168 191l-168 191h88z" />
    <glyph glyph-name="fraction" unicode="&#x2044;" horiz-adv-x="613" 
d="M80 300v43h452v-43h-452z" />
    <glyph glyph-name="uni20A9" unicode="&#x20a9;" horiz-adv-x="1070" 
d="M991 671l-62 -225h62v-60h-79l-25 -91h104v-59h-120l-65 -236h-122l-62 236h-173l-63 -236h-121l-65 236h-121v59h104l-25 91h-79v60h62l-62 225h88l60 -225h193l57 225h117l56 -225h194l60 225h87zM506 453l-2 -7h63l-2 7q-6 29 -17 81.5t-13 64.5q-19 -102 -29 -146z
M242 386l25 -91h115l23 91h-163zM464 295h143l-24 91h-95zM804 295l25 91h-164l23 -91h116zM357 194l11 42h-86l11 -41q24 -90 35 -134q10 56 29 133zM779 199l10 37h-86l9 -38q21 -86 31 -136q6 27 20 78t16 59z" />
    <glyph glyph-name="Euro" unicode="&#x20ac;" horiz-adv-x="662" 
d="M549 189l73 -42q-22 -72 -76.5 -113t-136.5 -41q-106 0 -172 62t-86 176h-85v64h77q-1 14 -1 42q0 15 2 45h-78v64h86q23 112 89.5 174t165.5 62q82 0 136.5 -37t73.5 -100l-73 -37q-24 110 -137 110q-64 0 -106.5 -44.5t-58.5 -127.5h312l-26 -64h-295q-1 -14 -1 -45
q0 -29 1 -42h276l-26 -64h-242q15 -85 58 -129.5t110 -44.5q119 0 140 132z" />
    <glyph glyph-name="uni20B9" unicode="&#x20b9;" horiz-adv-x="584" 
d="M542 671v-64h-128q54 -35 64 -105h64v-63h-64q-12 -82 -77.5 -119.5t-162.5 -37.5h-18l287 -282h-109l-339 336h172q144 0 163 103h-335v63h336q-16 105 -155 105h-181v64h483z" />
    <glyph glyph-name="uni20BA" unicode="&#x20ba;" horiz-adv-x="655" 
d="M537 337l72 -49q-4 -82 -32.5 -140t-79 -89.5t-112 -45t-141.5 -13.5h-87v232l-91 -37v67l91 37v86l-91 -37v67l91 37v219h87v-183l168 68v-67l-168 -68v-86l168 68v-67l-168 -68v-204q158 0 223 64t70 209z" />
    <glyph glyph-name="uni20BD" unicode="&#x20bd;" horiz-adv-x="686" 
d="M423 302h-180v-87h227v-64h-227v-151h-87v151h-90v64h90v87h-90v63h90v306h267q108 0 168 -46t60 -139q0 -92 -60 -138t-168 -46zM243 607v-242h173q146 0 146 121t-146 121h-173z" />
    <glyph glyph-name="uni20BF" unicode="&#x20bf;" horiz-adv-x="631" 
d="M576 180q0 -70 -43 -114.5t-122 -58.5v-93h-68v86h-12h-59v-86h-68v86h-125v671h125v91h68v-91h58h13v91h68v-98q147 -27 147 -168q0 -129 -126 -153q69 -13 106.5 -56t37.5 -107zM321 607h-154v-236h145q79 0 118 27.5t39 89.5q0 63 -36 91t-112 28zM324 64
q160 0 160 121q0 122 -156 122h-161v-243h157z" />
    <glyph glyph-name="uni2116" unicode="&#x2116;" horiz-adv-x="1098" 
d="M874 393q-61 0 -103.5 42.5t-42.5 102.5t42.5 102.5t103.5 42.5q60 0 102 -42.5t42 -102.5t-42 -102.5t-102 -42.5zM546 69v602h83v-671h-134l-272 479q-26 47 -61 125v-604h-83v671h134l269 -475q29 -51 64 -127zM874 622q-35 0 -58.5 -24t-23.5 -60t23.5 -60.5
t58.5 -24.5q33 0 56.5 24.5t23.5 60.5t-23.5 60t-56.5 24zM736 242v64h275v-64h-275z" />
    <glyph glyph-name="trademark" unicode="&#x2122;" horiz-adv-x="834" 
d="M49 633v40h301v-40h-121v-281h-56v281h-124zM784 673v-321h-54v270l-105 -270h-68l-106 270v-270h-54v321h84l110 -285l109 285h84z" />
    <glyph glyph-name="arrowleft" unicode="&#x2190;" horiz-adv-x="649" 
d="M576 336l-1 -70h-402l160 -148l1 -104l-261 252l1 70l254 248l1 -100l-161 -148h408z" />
    <glyph glyph-name="arrowup" unicode="&#x2191;" horiz-adv-x="714" 
d="M641 343h-99l-145 160v-403h-76v397l-144 -158h-104l248 257h76z" />
    <glyph glyph-name="arrowright" unicode="&#x2192;" horiz-adv-x="648" 
d="M315 570l260 -252v-71l-255 -247v100l159 147l-406 1v70h402l-160 147v105z" />
    <glyph glyph-name="arrowdown" unicode="&#x2193;" horiz-adv-x="714" 
d="M537 309h104l-248 -256l-76 -1l-244 253h99l145 -155v398l76 1v-397z" />
    <glyph glyph-name="arrowboth" unicode="&#x2194;" horiz-adv-x="945" 
d="M612 14l1 104l160 148h-601l161 -148l1 -104l-261 252l1 70l254 248l1 -100l-161 -148h605l-162 148l1 104l259 -252l1 -70z" />
    <glyph glyph-name="arrowupdn" unicode="&#x2195;" horiz-adv-x="718" 
d="M397 102l145 155h99l-244 -252l-76 -1l-248 257h104l144 -156v477l-144 -157h-104l248 257l76 -1l248 -256h-104l-144 156v-479z" />
    <glyph glyph-name="uni2196" unicode="&#x2196;" horiz-adv-x="559" 
d="M406 438h-215l286 -287l-51 -52l-289 290v-226l-64 -70v360l51 52h354z" />
    <glyph glyph-name="uni2197" unicode="&#x2197;" horiz-adv-x="566" 
d="M441 504l52 -52v-354l-67 73v214l-287 -285l-52 51l289 288h-225l-70 65h360z" />
    <glyph glyph-name="uni2198" unicode="&#x2198;" horiz-adv-x="559" 
d="M421 435l65 70v-360l-52 -52h-353l72 67h214l-285 287l51 52l288 -289v225z" />
    <glyph glyph-name="uni2199" unicode="&#x2199;" horiz-adv-x="566" 
d="M414 158l70 -64h-359l-53 51v354l67 -72v-215l287 286l52 -51l-289 -289h225z" />
    <glyph glyph-name="partialdiff" unicode="&#x2202;" horiz-adv-x="564" 
d="M271 678q126 -38 190 -134.5t51 -246.5q-12 -142 -78.5 -223.5t-179.5 -81.5q-105 0 -158.5 65t-44.5 170q9 104 72.5 170.5t154.5 66.5q61 0 103 -35.5t57 -101.5q7 67 -10 125t-72 113t-147 88zM415 227q7 76 -27 129t-91 53q-61 0 -103.5 -52t-49.5 -130t26 -129.5
t95 -51.5t102.5 50t47.5 131z" />
    <glyph glyph-name="emptyset" unicode="&#x2205;" horiz-adv-x="695" 
d="M567 488q79 -84 79 -200q0 -123 -87.5 -209t-210.5 -86q-98 0 -176 56l-47 -52l-42 39l46 51q-80 85 -80 201q0 122 87.5 208.5t211.5 86.5q97 0 175 -56l50 55l44 -38zM122 288q0 -85 52 -150l306 340q-59 43 -132 43q-94 0 -160 -68.5t-66 -164.5zM348 55
q94 0 160 67.5t66 165.5q0 85 -52 150l-306 -340q59 -43 132 -43z" />
    <glyph glyph-name="product" unicode="&#x220f;" horiz-adv-x="793" 
d="M713 679v-64h-130v-715h-85v715h-203v-715h-86v715h-130v64h634z" />
    <glyph glyph-name="summation" unicode="&#x2211;" horiz-adv-x="598" 
d="M519 671v-64h-310l204 -314l-207 -330h313v-63h-440l247 393l-247 378h440z" />
    <glyph glyph-name="minus" unicode="&#x2212;" horiz-adv-x="510" 
d="M80 233v64h350v-64h-350z" />
    <glyph glyph-name="radical" unicode="&#x221a;" horiz-adv-x="553" 
d="M553 675v-51h-98l-192 -724h-101l-143 385h81l108 -315l174 705h171z" />
    <glyph glyph-name="infinity" unicode="&#x221e;" horiz-adv-x="953" 
d="M671 442q88 0 144.5 -56.5t56.5 -140.5t-56.5 -141t-144.5 -57q-115 0 -195 136q-86 -136 -194 -136q-88 0 -145 57t-57 141t57 140.5t145 56.5q116 0 196 -136q82 136 193 136zM283 109q91 0 164 136q-73 135 -164 135q-56 0 -91 -39.5t-35 -95.5q0 -57 34.5 -96.5
t91.5 -39.5zM670 109q57 0 91.5 39.5t34.5 96.5q0 56 -35 95.5t-91 39.5q-91 0 -164 -135q73 -136 164 -136z" />
    <glyph glyph-name="integral" unicode="&#x222b;" horiz-adv-x="550" 
d="M434 685q32 0 56 -12l-15 -76q-19 13 -42 13q-43 0 -57 -56l-119 -590q-13 -60 -45.5 -90t-95.5 -30q-32 0 -56 12l15 76q20 -13 42 -13q45 0 57 56l119 586q25 124 141 124z" />
    <glyph glyph-name="approxequal" unicode="&#x2248;" horiz-adv-x="584" 
d="M504 315v-14q0 -151 -116 -151q-32 0 -70 25.5t-70.5 51t-50.5 25.5q-28 0 -38.5 -21.5t-10.5 -63.5h-68v14q0 75 30.5 112.5t86.5 37.5q33 0 71 -25.5t70.5 -51t50.5 -25.5q28 0 39 21.5t11 64.5h65z" />
    <glyph glyph-name="notequal" unicode="&#x2260;" horiz-adv-x="600" 
d="M550 326h-181l-31 -131h212v-64h-227l-28 -121h-73l28 121h-170v64h185l31 131h-216v64h230l26 110h73l-26 -110h167v-64z" />
    <glyph glyph-name="lessequal" unicode="&#x2264;" horiz-adv-x="570" 
d="M490 507v-68l-334 -125l334 -122v-69l-410 156v69zM80 0v64h410v-64h-410z" />
    <glyph glyph-name="greaterequal" unicode="&#x2265;" horiz-adv-x="570" 
d="M80 507l410 -159v-69l-410 -156v69l334 122l-334 125v68zM80 0v64h410v-64h-410z" />
    <glyph glyph-name="lozenge" unicode="&#x25ca;" horiz-adv-x="618" 
d="M339 671l200 -335l-200 -336h-56l-204 336l204 335h56zM310 83l151 253l-151 252l-153 -252z" />
    <glyph glyph-name="Q.ss01" horiz-adv-x="716" 
d="M625 -19l41 -63q-20 -32 -65 -53t-98 -21q-82 0 -128.5 41t-54.5 110q-126 11 -198.5 102t-72.5 240q0 159 82.5 252t223.5 93t223.5 -92.5t82.5 -252.5q0 -145 -69 -235.5t-190 -105.5q6 -40 34 -62.5t67 -22.5q75 0 122 70zM142 337q0 -133 56 -207t157 -74t157.5 74
t56.5 207t-56.5 207t-157.5 74t-157 -74t-56 -207z" />
    <glyph glyph-name="R.ss01" horiz-adv-x="650" 
d="M511 0l-209 302h-136v-302h-87v671h277q108 0 168 -46t60 -139q0 -78 -51 -124t-135 -57l217 -305h-104zM166 607v-242h173q156 0 156 121q0 64 -36.5 92.5t-109.5 28.5h-183z" />
    <glyph glyph-name="Racute.ss01" horiz-adv-x="650" 
d="M448 850l-94 -116h-60l53 116h101zM511 0l-209 302h-136v-302h-87v671h277q108 0 168 -46t60 -139q0 -78 -51 -124t-135 -57l217 -305h-104zM166 607v-242h173q156 0 156 121q0 64 -36.5 92.5t-109.5 28.5h-183z" />
    <glyph glyph-name="Rcaron.ss01" horiz-adv-x="650" 
d="M294 728l-105 116h89l53 -77l52 77h89l-105 -116h-73zM511 0l-209 302h-136v-302h-87v671h277q108 0 168 -46t60 -139q0 -78 -51 -124t-135 -57l217 -305h-104zM166 607v-242h173q156 0 156 121q0 64 -36.5 92.5t-109.5 28.5h-183z" />
    <glyph glyph-name="uni0156.ss01" horiz-adv-x="650" 
d="M398 305l217 -305h-104l-209 302h-136v-302h-87v671h277q108 0 168 -46t60 -139q0 -78 -51 -124t-135 -57zM166 607v-242h173q156 0 156 121q0 64 -36.5 92.5t-109.5 28.5h-183zM231 -164l53 116h101l-94 -116h-60z" />
    <glyph glyph-name="i.loclTRK" horiz-adv-x="246" 
d="M75 569v90h95v-90h-95zM80 0v499h85v-499h-85z" />
    <glyph glyph-name="a.002" horiz-adv-x="535" 
d="M261 514q94 0 142 -42.5t48 -121.5v-350h-76v97q-21 -48 -63.5 -76t-99.5 -28q-74 0 -118.5 38.5t-44.5 103.5q0 124 184 162l142 30v19q0 113 -119 113q-59 0 -92.5 -31t-40.5 -86l-74 32q8 60 67 100t145 40zM246 50q54 0 92 41.5t38 101.5v93l-125 -32
q-107 -27 -107 -109q0 -95 102 -95z" />
    <glyph glyph-name="y.ss01" horiz-adv-x="508" 
d="M390 498h88l-211 -554q-20 -52 -48 -76.5t-77 -24.5q-31 0 -62 11v76q24 -13 50 -13q28 0 45 14.5t31 48.5l23 56l-200 462h91l122 -303q16 -40 23 -61z" />
    <glyph glyph-name="yacute.ss01" horiz-adv-x="508" 
d="M381 685l-94 -116h-60l53 116h101zM390 498h88l-211 -554q-20 -52 -48 -76.5t-77 -24.5q-31 0 -62 11v76q24 -13 50 -13q28 0 45 14.5t31 48.5l23 56l-200 462h91l122 -303q16 -40 23 -61z" />
    <glyph glyph-name="ycircumflex.ss01" horiz-adv-x="508" 
d="M264 640l-53 -77h-89l105 116h73l105 -116h-89zM390 498h88l-211 -554q-20 -52 -48 -76.5t-77 -24.5q-31 0 -62 11v76q24 -13 50 -13q28 0 45 14.5t31 48.5l23 56l-200 462h91l122 -303q16 -40 23 -61z" />
    <glyph glyph-name="ydieresis.ss01" horiz-adv-x="508" 
d="M233 654v-85h-95v85h95zM385 654v-85h-94v85h94zM390 498h88l-211 -554q-20 -52 -48 -76.5t-77 -24.5q-31 0 -62 11v76q24 -13 50 -13q28 0 45 14.5t31 48.5l23 56l-200 462h91l122 -303q16 -40 23 -61z" />
    <glyph glyph-name="uni1EF5.ss01" horiz-adv-x="508" 
d="M390 498h88l-211 -554q-20 -52 -48 -76.5t-77 -24.5q-31 0 -62 11v76q24 -13 50 -13q28 0 45 14.5t31 48.5l23 56l-200 462h91l122 -303q16 -40 23 -61zM142 -289v90h95v-90h-95z" />
    <glyph glyph-name="ygrave.ss01" horiz-adv-x="508" 
d="M298 569h-60l-94 116h101zM390 498h88l-211 -554q-20 -52 -48 -76.5t-77 -24.5q-31 0 -62 11v76q24 -13 50 -13q28 0 45 14.5t31 48.5l23 56l-200 462h91l122 -303q16 -40 23 -61z" />
    <glyph glyph-name="uni1EF7.ss01" horiz-adv-x="508" 
d="M231 569q37 36 41 69t-22 39.5t-68 -15.5v55q32 20 63.5 21t51 -15t29.5 -39.5t0.5 -55t-37.5 -59.5h-58zM390 498h88l-211 -554q-20 -52 -48 -76.5t-77 -24.5q-31 0 -62 11v76q24 -13 50 -13q28 0 45 14.5t31 48.5l23 56l-200 462h91l122 -303q16 -40 23 -61z" />
    <glyph glyph-name="uni1EF9.ss01" horiz-adv-x="508" 
d="M208 617q-28 0 -29 -41h-50q11 96 83 96q25 0 58.5 -23.5t45.5 -23.5q27 0 30 41h49q-11 -96 -83 -96q-25 0 -58 23.5t-46 23.5zM390 498h88l-211 -554q-20 -52 -48 -76.5t-77 -24.5q-31 0 -62 11v76q24 -13 50 -13q28 0 45 14.5t31 48.5l23 56l-200 462h91l122 -303
q16 -40 23 -61z" />
    <glyph glyph-name="I_J" horiz-adv-x="614" 
d="M453 671h86v-461q0 -110 -55 -163.5t-177 -53.5q-116 0 -172 47.5t-56 134.5h90q0 -63 32 -90.5t116 -27.5q73 0 104.5 39t31.5 123v452zM169 671v-418h-87v418h87z" />
    <glyph glyph-name="zero.tf" horiz-adv-x="619" 
d="M323 -7q-126 0 -203 95.5t-77 251.5q0 155 77.5 250t202.5 95q124 0 201 -95t77 -250q0 -156 -77 -251.5t-201 -95.5zM323 57q85 0 135.5 76.5t50.5 206.5q0 129 -51 205.5t-135 76.5q-85 0 -136.5 -76.5t-51.5 -205.5q0 -130 51.5 -206.5t136.5 -76.5z" />
    <glyph glyph-name="one.tf" horiz-adv-x="619" 
d="M409 65h152v-65h-415v65h177v517q-87 -94 -192 -138l-29 70q66 29 113 65.5t100 90.5h94v-605z" />
    <glyph glyph-name="two.tf" horiz-adv-x="619" 
d="M371 223q-5 -3 -45 -26t-52.5 -32t-38.5 -28.5t-36.5 -37.5t-12.5 -38h381v-65h-475q-1 54 14 96t51 75.5t58.5 48.5t74.5 45q11 7 17 10q96 55 133 95t37 101q0 74 -39 114t-110 40q-79 0 -125.5 -50t-43.5 -133l-82 35q-2 91 70 151t185 60q111 0 173 -55t62 -154
q0 -48 -14.5 -86t-46 -69t-59.5 -50t-76 -47z" />
    <glyph glyph-name="three.tf" horiz-adv-x="619" 
d="M405 345q83 -8 128.5 -50.5t45.5 -112.5q0 -87 -69.5 -138t-186.5 -51q-113 0 -186.5 58.5t-71.5 152.5l79 32q-2 -81 47 -130.5t132 -49.5q165 0 165 133q0 122 -177 122h-63v62h48q176 0 176 120q0 58 -39 92t-106 34q-71 0 -116 -41t-47 -110l-81 41q7 78 75 125.5
t169 47.5q108 0 170.5 -49t62.5 -131q0 -66 -41 -108t-114 -49z" />
    <glyph glyph-name="four.tf" horiz-adv-x="619" 
d="M606 242v-65h-114v-177h-88v177h-350v65l327 428h111v-428h114zM142 242h262v267q0 43 3 86q-34 -50 -63 -88z" />
    <glyph glyph-name="five.tf" horiz-adv-x="619" 
d="M338 447q104 0 168.5 -62.5t64.5 -167.5q0 -99 -66 -161.5t-181 -62.5q-103 0 -168.5 47t-82.5 133l81 32q1 -69 48 -108.5t122 -39.5q76 -1 116 41.5t40 119.5q0 76 -42.5 122.5t-119.5 46.5q-51 0 -95.5 -25t-65.5 -62l-75 25l74 345h367v-64h-301l-46 -214
q66 55 162 55z" />
    <glyph glyph-name="six.tf" horiz-adv-x="619" 
d="M350 437q102 0 162.5 -61.5t60.5 -160.5q0 -98 -69 -159.5t-180 -61.5q-128 0 -193.5 82.5t-65.5 237.5q0 179 73.5 274t210.5 95q92 0 153 -44t76 -116l-77 -32q-13 59 -52 93.5t-102 34.5q-100 0 -150.5 -82t-48.5 -223q21 50 73 86.5t129 36.5zM329 58q70 0 112.5 43
t42.5 114q0 73 -40 115.5t-110 42.5q-71 0 -119 -45.5t-48 -112.5q0 -66 45.5 -111.5t116.5 -45.5z" />
    <glyph glyph-name="seven.tf" horiz-adv-x="619" 
d="M76 670h477v-64q-147 -124 -217 -284t-54 -322h-103q1 169 76 324t220 282h-399v64z" />
    <glyph glyph-name="eight.tf" horiz-adv-x="619" 
d="M410 351q71 -6 121 -54.5t50 -115.5q0 -86 -70 -137t-189 -51t-189.5 51t-70.5 137q0 67 50.5 115.5t121.5 54.5q-63 11 -103.5 54t-40.5 103q0 78 64.5 126.5t167.5 48.5t167 -48.5t64 -126.5q0 -60 -40 -103t-103 -54zM177 499q0 -56 39.5 -89t105.5 -33
q65 0 104.5 33.5t39.5 88.5q0 56 -35.5 88t-108.5 32t-109 -32t-36 -88zM322 57q85 0 127 36t42 95q0 61 -46 96.5t-123 35.5q-78 0 -124 -35.5t-46 -96.5q0 -59 42.5 -95t127.5 -36z" />
    <glyph glyph-name="nine.tf" horiz-adv-x="619" 
d="M322 682q123 0 189.5 -84.5t66.5 -235.5q0 -188 -63.5 -278.5t-204.5 -90.5q-100 0 -163.5 45.5t-81.5 123.5l77 30q12 -63 56 -99.5t112 -36.5q99 0 144.5 75.5t43.5 226.5q-22 -49 -71.5 -84t-123.5 -35q-105 0 -168.5 61t-63.5 161q0 98 69 159.5t182 61.5zM315 302
q71 0 117 45t46 114q0 67 -43 112.5t-115 45.5t-115.5 -43.5t-43.5 -114.5t42 -115t112 -44z" />
    <glyph glyph-name="one.dnom" horiz-adv-x="408" 
d="M247 38h61v-40h-189v40h69v183q-33 -43 -71 -56l-17 43q56 23 87 66h60v-236z" />
    <glyph glyph-name="two.dnom" horiz-adv-x="418" 
d="M237 88q-44 -22 -70 -45h154v-45h-220q-4 9 -1.5 19.5t2.5 17t6 15t8.5 13.5t11 11.5t13 10t13.5 9.5t14 8.5t14.5 7.5t13.5 8q35 20 48 36t13 38q0 24 -13 36.5t-33 12.5q-26 0 -40.5 -21.5t-8.5 -58.5l-62 29q-2 39 32.5 65t81.5 26q49 0 78.5 -23.5t29.5 -63.5
q0 -25 -12.5 -45t-28.5 -32t-44 -29z" />
    <glyph glyph-name="three.dnom" horiz-adv-x="422" 
d="M258 136q67 -13 67 -68q0 -35 -31.5 -56t-79.5 -21q-47 0 -81.5 24t-35.5 60l58 22q-1 -32 14.5 -49t40.5 -17q49 0 49 44q0 22 -12.5 31.5t-41.5 9.5h-32v37h26q29 0 41.5 9.5t12.5 31.5q0 19 -12 30t-30 11q-20 0 -33.5 -14t-14.5 -40l-58 24q8 32 39.5 50.5t71.5 18.5
q44 0 73 -20t29 -53q0 -51 -60 -65z" />
    <glyph glyph-name="four.dnom" horiz-adv-x="444" 
d="M344 100v-39h-47v-64h-59v64h-138v39l133 175h64v-175h47zM153 100h85v77q0 21 3 46q-13 -25 -27 -44z" />
    <glyph glyph-name="one.numr" horiz-adv-x="408" 
d="M247 446h61v-40h-189v40h69v182q-36 -44 -71 -55l-17 43q56 22 87 65h60v-235z" />
    <glyph glyph-name="two.numr" horiz-adv-x="418" 
d="M237 497q-36 -18 -71 -45h155v-44h-220q0 13 -1.5 21.5t3.5 18.5t7.5 16t11 13.5t13 12t14.5 11t15.5 9.5t16 9t15.5 9q35 20 48 35.5t13 37.5q0 24 -13 37t-33 13q-26 0 -40.5 -22t-8.5 -59l-62 29q-2 40 32 65.5t82 25.5q49 0 78.5 -23t29.5 -64q0 -25 -12.5 -45
t-28.5 -32t-44 -29z" />
    <glyph glyph-name="three.numr" horiz-adv-x="422" 
d="M258 550q67 -13 67 -68q0 -35 -31.5 -56t-79.5 -21q-47 0 -79.5 24t-33.5 60l54 22q-1 -32 15 -49t41 -17q50 0 50 44q0 41 -56 41h-32v37h26q57 0 57 41q0 20 -12 30.5t-31 10.5q-21 0 -35 -14t-15 -40l-54 24q7 32 37 50.5t70 18.5q44 0 73 -20t29 -53q0 -51 -60 -65z
" />
    <glyph glyph-name="four.numr" horiz-adv-x="449" 
d="M335 507v-39h-47v-65h-59v65h-138v39l133 174h64v-174h47zM144 507h85v77q0 20 3 45q-14 -27 -27 -43z" />
    <glyph glyph-name="Euro.001" horiz-adv-x="660" 
d="M607 126l28 -62q-70 -67 -189 -67q-116 0 -192 61t-100 174h-88v64h79q-2 28 -2 43q0 16 2 44h-79v64h88q24 112 98 173.5t184 61.5q116 0 189 -62l-28 -66q-62 64 -161 64q-74 0 -124 -44t-69 -127h311l-26 -64h-294q-2 -28 -2 -44q0 -15 2 -43h275l-26 -64h-240
q40 -171 203 -171q110 0 161 65z" />
    <glyph glyph-name="ampersand.ss01" horiz-adv-x="611" 
d="M600 207q0 -100 -106 -159l92 -133h-98l-67 95q-62 -18 -132 -18q-125 1 -188.5 49t-63.5 129q0 111 154 177q-2 4 -15.5 23t-16 23t-12.5 20.5t-12.5 22.5t-9 19.5t-8.5 22.5t-4 21t-2 24q0 68 47 110t131 42q81 0 128 -44.5t47 -108.5q0 -108 -141 -152
q124 -2 200.5 -44t76.5 -119zM290 614q-43 0 -66.5 -24t-23.5 -65q0 -24 10.5 -50.5t20 -41.5t33.5 -50q66 31 93 63.5t27 77.5q0 39 -26 64.5t-68 25.5zM522 204q0 44 -34 73t-80.5 40.5t-107.5 13.5l160 -232q62 40 62 105zM129 176q0 -62 45.5 -92.5t121.5 -30.5
q41 0 86 12l-161 233q-92 -39 -92 -122z" />
    <glyph glyph-name="uni031B.001" 
d="M-202 571l-63 52h63q42 0 55 11.5t13 40.5v60h54v-69q0 -53 -27.5 -78t-94.5 -17z" />
    <glyph glyph-name="uni031B.001.002" 
d="M-203 568l-137 18v37h126q42 0 55 11t13 41v60h65v-69q0 -54 -27.5 -80t-94.5 -18z" />
    <glyph glyph-name="uni03060301" 
d="M-202 820h101l-94 -116h-60zM-163 692h83q-7 -59 -38.5 -91t-102.5 -32q-73 0 -104 32t-38 91h83q0 -74 59 -74q58 0 58 74z" />
    <glyph glyph-name="uni03060300" 
d="M-241 820l53 -116h-60l-94 116h101zM-163 692h83q-7 -59 -38.5 -91t-102.5 -32q-73 0 -104 32t-38 91h83q0 -74 59 -74q58 0 58 74z" />
    <glyph glyph-name="uni03060309" 
d="M-308 839q32 20 63.5 21t51 -15t29.5 -39.5t0.5 -55t-37.5 -59.5h-58q37 36 41 69t-22 39.5t-68 -15.5v55zM-163 692h83q-7 -59 -38.5 -91t-102.5 -32q-73 0 -104 32t-38 91h83q0 -74 59 -74q58 0 58 74z" />
    <glyph glyph-name="uni03060303" 
d="M-167 728q-25 0 -58 23.5t-46 23.5q-28 0 -29 -41h-50q11 96 83 96q25 0 58.5 -23.5t45.5 -23.5q27 0 30 41h49q-11 -96 -83 -96zM-164 692h83q-7 -59 -38.5 -91t-102.5 -32q-73 0 -104 32t-38 91h83q0 -74 59 -74q58 0 58 74z" />
    <glyph glyph-name="uni03020301" 
d="M-181 771h101l-94 -116h-60zM-290 685l105 -116h-89l-52 77l-53 -77h-89l105 116h73z" />
    <glyph glyph-name="uni03020300" 
d="M-364 767l53 -116h-60l-94 116h101zM-81 569h-89l-52 76l-52 -76h-89l104 116h74z" />
    <glyph glyph-name="uni03020309" 
d="M-228 809q32 20 63 21t50.5 -14.5t29.5 -39.5t1 -55.5t-37 -59.5h-59q51 49 40 87q-9 30 -48 23q-19 -3 -40 -16v54zM-230 684l105 -116h-89l-52 77l-53 -77h-89l105 116h73z" />
    <glyph glyph-name="uni03020303" 
d="M-271 750q-27 0 -30 -40h-49q9 95 82 95q25 0 59 -23.5t46 -23.5q28 0 29 41h49q-9 -96 -82 -96q-25 0 -58 23.5t-46 23.5zM-80 569h-89l-52 77l-53 -77h-89l105 116h73z" />
    <glyph glyph-name="caront" horiz-adv-x="314" 
d="M133 635h101l-94 -116h-60z" />
    </font>
</defs>
</svg>
