<?xml version="1.0" standalone="no"?>
<!DOCTYPE svg PUBLIC "-//W3C//DTD SVG 1.1//EN" "http://www.w3.org/Graphics/SVG/1.1/DTD/svg11.dtd" >
<svg xmlns="http://www.w3.org/2000/svg" xmlns:xlink="http://www.w3.org/1999/xlink" version="1.1">
<metadata>
Created by FontForge 20190801 at Tue Sep 12 15:50:22 2017
 By www-data
Copyright (c) 2017 by Good Type Foundry Kenneth Knutsen. All rights reserved.
</metadata>
<defs>
<font id="GoodTypeFoundryAdieuBlackSlanted" horiz-adv-x="0" >
  <font-face 
    font-family="GoodTypeFoundryAdieuBlackSlanted"
    font-weight="900"
    font-style="oblique"
    font-stretch="normal"
    units-per-em="1000"
    panose-1="0 0 10 0 0 0 0 0 0 0"
    ascent="800"
    descent="-200"
    x-height="500"
    cap-height="700"
    bbox="-1115 -532 1720.52 1021"
    underline-thickness="50"
    underline-position="-100"
    unicode-range="U+0020-25CA"
  />
<missing-glyph horiz-adv-x="843" 
d="M422 -11q-151 0 -256.5 107t-105.5 255q0 147 106.5 254t255.5 107q147 0 254 -106t107 -255q0 -150 -107 -256t-254 -106zM422 63q119 0 203 84t84 204t-84 203.5t-203 83.5q-120 0 -204 -83.5t-84 -203.5t84 -204t204 -84zM329 394q-28 0 -47 18.5t-19 45.5
q0 26 19 44.5t47 18.5q26 0 45 -18.5t19 -44.5q0 -27 -19 -45.5t-45 -18.5zM521 394q-27 0 -45 18.5t-18 45.5q0 26 18 44.5t45 18.5t46 -18.5t19 -44.5q0 -27 -19 -45.5t-46 -18.5zM422 151q-94 0 -156 51.5t-62 136.5l64 9q4 -46 40 -80t114 -34q77 0 114.5 34.5
t39.5 79.5l63 -9q0 -85 -63 -136.5t-154 -51.5z" />
    <glyph glyph-name=".notdef" horiz-adv-x="843" 
d="M422 -11q-151 0 -256.5 107t-105.5 255q0 147 106.5 254t255.5 107q147 0 254 -106t107 -255q0 -150 -107 -256t-254 -106zM422 63q119 0 203 84t84 204t-84 203.5t-203 83.5q-120 0 -204 -83.5t-84 -203.5t84 -204t204 -84zM329 394q-28 0 -47 18.5t-19 45.5
q0 26 19 44.5t47 18.5q26 0 45 -18.5t19 -44.5q0 -27 -19 -45.5t-45 -18.5zM521 394q-27 0 -45 18.5t-18 45.5q0 26 18 44.5t45 18.5t46 -18.5t19 -44.5q0 -27 -19 -45.5t-46 -18.5zM422 151q-94 0 -156 51.5t-62 136.5l64 9q4 -46 40 -80t114 -34q77 0 114.5 34.5
t39.5 79.5l63 -9q0 -85 -63 -136.5t-154 -51.5z" />
    <glyph glyph-name=".null" 
 />
    <glyph glyph-name="nonmarkingreturn" horiz-adv-x="333" 
 />
    <glyph glyph-name="space" unicode=" " horiz-adv-x="300" 
 />
    <glyph glyph-name="exclam" unicode="!" horiz-adv-x="325" 
d="M63 294l62 406h202l-82 -406h-182zM89 -10q-52 0 -77 28t-16 79t44 79t87 28t77.5 -28t16.5 -79t-43.5 -79t-88.5 -28z" />
    <glyph glyph-name="quotedbl" unicode="&#x22;" horiz-adv-x="425" 
d="M23 430l31 270h170l-81 -270h-120zM218 430l31 270h170l-81 -270h-120z" />
    <glyph glyph-name="numbersign" unicode="#" horiz-adv-x="1009" 
d="M94 0l72 183h-165l42 127h173l25 63h-177l42 127h184l79 200h171l-79 -200h227l79 200h171l-79 -200h146l-42 -127h-153l-25 -63h157l-42 -127h-165l-72 -183h-171l72 183h-227l-72 -183h-171zM387 310h227l25 63h-227z" />
    <glyph glyph-name="dollar" unicode="$" horiz-adv-x="863" 
d="M841 469h-216v17.5t-9.5 19.5t-24 18t-43.5 13.5t-67 6.5q-187 4 -198 -60q-4 -22 26.5 -33.5t81.5 -17t113.5 -10t123 -16t108.5 -31t73 -59.5t14 -98q-19 -95 -117.5 -157t-249.5 -75l-17 -97h-202l18 104q-127 22 -190.5 84.5t-45.5 152.5h216q-2 -9 1 -18t13 -19
t27.5 -18t48.5 -13.5t71 -6.5q212 -4 223 60q4 20 -27 30t-82.5 13.5t-113.5 7t-123 14.5t-109 31.5t-72.5 63.5t-12.5 105q17 87 97.5 146.5t204.5 79.5l22 128h202l-21 -124q133 -17 203 -81.5t54 -160.5z" />
    <glyph glyph-name="percent" unicode="%" horiz-adv-x="1039" 
d="M278 460q-86 0 -141.5 35t-45.5 90t77.5 90t153.5 35q93 0 145 -34.5t42 -90.5t-74 -90.5t-157 -34.5zM48 0l812 700h141l-812 -700h-141zM289 522q34 0 58 16.5t28 46.5q5 31 -12 47t-51 16q-33 0 -56.5 -16.5t-29.5 -46.5q-5 -30 12.5 -46.5t50.5 -16.5zM717 -10
q-87 0 -142 35t-45 90t77.5 90t153.5 35q93 0 145 -34.5t42 -90.5t-74 -90.5t-157 -34.5zM727 52q33 0 57.5 16.5t29.5 46.5q4 31 -13 47t-51 16q-33 0 -56.5 -16.5t-28.5 -46.5q-6 -30 11.5 -46.5t50.5 -16.5z" />
    <glyph glyph-name="ampersand" unicode="&#x26;" horiz-adv-x="971" 
d="M293 -12q-52 0 -100.5 8t-98.5 28t-75.5 61.5t-15.5 100.5q15 89 91.5 147.5t170.5 60.5l-135 156l27 150h625l-36 -200h-276l160 -185q74 60 129 127l115 -150q-47 -66 -114 -125l145 -167h-298l-41 47q-137 -59 -273 -59zM334 180q48 0 100 19l-131 151
q-56 -1 -94.5 -22t-43.5 -51q-9 -49 36.5 -73t132.5 -24z" />
    <glyph glyph-name="quotesingle" unicode="'" horiz-adv-x="230" 
d="M23 430l31 270h170l-81 -270h-120z" />
    <glyph glyph-name="parenleft" unicode="(" horiz-adv-x="470" 
d="M334 -137q-173 1 -248 133.5t-36 353.5t161 353.5t295 133.5l-31 -176q-98 -1 -173 -86.5t-100 -224.5t20 -224.5t143 -86.5z" />
    <glyph glyph-name="parenright" unicode=")" horiz-adv-x="470" 
d="M-36 -137l31 176q110 1 177 74.5t96 236.5t-12 236.5t-151 74.5l31 176q173 -1 248 -133.5t36 -353.5t-161 -353.5t-295 -133.5z" />
    <glyph glyph-name="asterisk" unicode="*" horiz-adv-x="615" 
d="M203 194l68 195l-156 -158l-70 75l195 117l-220 -30l20 108l208 -30l-153 117l96 76l100 -159l2 195h118l-67 -195l156 159l70 -76l-196 -117l221 30l-20 -108l-209 30l154 -117l-96 -75l-100 158l-3 -195h-118z" />
    <glyph glyph-name="plus" unicode="+" horiz-adv-x="580" 
d="M158 71l30 173h-173l30 173h174l30 174h173l-30 -174h173l-30 -173h-174l-30 -173h-173z" />
    <glyph glyph-name="comma" unicode="," horiz-adv-x="293" 
d="M6 -169l111 270h170l-161 -270h-120z" />
    <glyph glyph-name="hyphen" unicode="-" horiz-adv-x="460" 
d="M15 244l30 173h400l-30 -173h-400z" />
    <glyph glyph-name="period" unicode="." horiz-adv-x="285" 
d="M123 -10q-52 0 -77 28t-16 79t44 79t87 28t77.5 -28t16.5 -79t-43.5 -79t-88.5 -28z" />
    <glyph glyph-name="slash" unicode="/" horiz-adv-x="1063" 
d="M-32 0l956 700h171l-956 -700h-171z" />
    <glyph glyph-name="zero" unicode="0" horiz-adv-x="965" 
d="M417 -16q-203 0 -304.5 100t-72.5 266t166.5 266t340.5 100q204 0 305.5 -100t72.5 -266t-166.5 -266t-341.5 -100zM448 156q116 0 187 49.5t88 144.5t-37 144.5t-170 49.5q-115 0 -186 -49.5t-88 -144.5t37 -144.5t169 -49.5z" />
    <glyph glyph-name="one" unicode="1" horiz-adv-x="643" 
d="M299 0l95 539l-389 -218l35 201l443 178h142l-124 -700h-202z" />
    <glyph glyph-name="two" unicode="2" horiz-adv-x="842" 
d="M-33 0l24 139q63 27 167 69t173 70.5t141.5 63t111.5 65t44 57.5q7 42 -37 58.5t-150 16.5q-75 0 -188.5 -13.5t-147.5 -25.5l32 180q44 13 148.5 23.5t196.5 11.5q207 2 292 -42.5t64 -166.5q-10 -57 -57 -107.5t-109 -84.5t-146.5 -63.5t-155 -46.5t-149.5 -32h528
l-30 -172h-752z" />
    <glyph glyph-name="three" unicode="3" horiz-adv-x="798" 
d="M291 -16q-210 2 -318 44l30 172q44 -20 135 -32t174 -12q228 0 238 52q3 19 -15.5 31.5t-73 23.5t-151 19t-251.5 16l18 101q135 6 228.5 13.5t145.5 14.5t80.5 17t36.5 18t10 20q4 23 -30 38t-77.5 20t-91.5 5q-79 0 -174.5 -12.5t-148.5 -32.5l31 172q62 22 157.5 33.5
t175.5 11.5q71 0 123 -3.5t103 -15.5t81 -32.5t45 -56t7 -84.5q-6 -35 -28.5 -63.5t-50 -45.5t-67.5 -29.5t-68.5 -18t-67 -8.5t-50 -3h-28.5l-1 -9q2 0 31 -0.5t48.5 -1.5t55 -5t60 -10t53 -18t45 -28.5t25.5 -41.5t3 -56q-11 -62 -47.5 -103.5t-98.5 -63t-133 -29.5
t-169 -7z" />
    <glyph glyph-name="four" unicode="4" horiz-adv-x="858" 
d="M490 0l19 109h-541l23 134l523 457h302l-74 -419h89l-30 -172h-90l-19 -109h-202zM225 281h315l61 351z" />
    <glyph glyph-name="five" unicode="5" horiz-adv-x="802" 
d="M284 -16q-75 0 -171.5 11.5t-138.5 29.5l32 183q37 -18 135 -34t171 -16q105 0 163 15t65 53q7 43 -32.5 63t-140.5 20q-52 0 -104 -5t-129 -16l-77 -12l75 424h655l-30 -172h-500l-20 -110q109 36 230 36q50 0 90.5 -5t81 -20t65.5 -39.5t36.5 -66t1.5 -97.5
q-21 -114 -145.5 -178t-312.5 -64z" />
    <glyph glyph-name="six" unicode="6" horiz-adv-x="856" 
d="M386 -12q-190 0 -283.5 94t-60.5 280q30 170 165.5 261.5t335.5 91.5q165 0 273 -58l-33 -185q-114 70 -266 70q-113 0 -185 -46.5t-88 -133.5l-1 -5q125 103 273 103q163 0 231 -68.5t44 -179.5q-21 -103 -128.5 -163.5t-276.5 -60.5zM407 160q76 0 127.5 19.5
t58.5 57.5q6 37 -26.5 57.5t-100.5 20.5q-112 0 -220 -45q28 -110 161 -110z" />
    <glyph glyph-name="seven" unicode="7" horiz-adv-x="830" 
d="M-1 0l536 528h-494l31 172h810l-16 -89l-585 -611h-282z" />
    <glyph glyph-name="eight" unicode="8" horiz-adv-x="866" 
d="M368 -20q-186 -2 -285 52t-82 151q24 137 267 161q-38 6 -70 17.5t-63.5 31.5t-46 53t-7.5 75q16 92 128 142t289 50q165 0 265 -49.5t84 -142.5q-7 -42 -33.5 -75t-65.5 -53t-75 -31.5t-76 -17.5q42 -4 77.5 -13t71 -26.5t52 -48.5t9.5 -73q-17 -96 -139.5 -150.5
t-299.5 -52.5zM447 428q62 0 102.5 5.5t58 16.5t23 19.5t7.5 21.5q3 18 -10.5 30t-40 18.5t-55 9t-63.5 2.5q-180 0 -191 -60q1 -8 -1.5 -16.5t6 -17t24 -15t51.5 -10.5t89 -4zM396 142q201 0 211 58q1 11 0 20t-11.5 16.5t-30 13t-57 8.5t-90.5 3q-87 0 -134.5 -8.5
t-60 -20.5t-16.5 -32q-11 -58 189 -58z" />
    <glyph glyph-name="nine" unicode="9" horiz-adv-x="856" 
d="M480 714q190 0 283.5 -94t60.5 -280q-30 -170 -165.5 -261.5t-335.5 -91.5q-165 0 -273 58l33 185q114 -70 266 -70q113 0 185 46.5t88 133.5l1 5q-125 -103 -273 -103q-163 0 -231 68.5t-44 179.5q21 103 128.5 163.5t276.5 60.5zM459 542q-76 0 -127.5 -19.5
t-58.5 -57.5q-6 -37 26.5 -57.5t100.5 -20.5q112 0 220 45q-28 110 -161 110z" />
    <glyph glyph-name="colon" unicode=":" horiz-adv-x="305" 
d="M150 296q-52 0 -77 28t-16 79t44 79t87 28t77.5 -28t16.5 -79t-43.5 -79t-88.5 -28zM96 -10q-52 0 -77 28t-16 79t44 79t87 28t77.5 -28t16.5 -79t-43.5 -79t-88.5 -28z" />
    <glyph glyph-name="semicolon" unicode=";" horiz-adv-x="293" 
d="M186 296q-52 0 -77 28t-16 79t44 79t87 28t77.5 -28t16.5 -79t-43.5 -79t-88.5 -28zM-30 -169l111 270h170l-161 -270h-120z" />
    <glyph glyph-name="less" unicode="&#x3c;" horiz-adv-x="506" 
d="M192 0l-162 250l250 250h240l-258 -250l170 -250h-240z" />
    <glyph glyph-name="equal" unicode="=" horiz-adv-x="580" 
d="M37 367l31 173h520l-31 -173h-520zM-8 114l31 173h520l-31 -173h-520z" />
    <glyph glyph-name="greater" unicode="&#x3e;" horiz-adv-x="506" 
d="M-14 0l258 250l-170 250h240l162 -250l-250 -250h-240z" />
    <glyph glyph-name="question" unicode="?" horiz-adv-x="728" 
d="M168 232q7 72 39.5 114t75 54.5t84 17t73 13.5t35.5 33q7 42 -37 58.5t-150 16.5q-102 0 -249 -21l32 179q122 16 258 18q206 2 292 -42t64 -167q-10 -58 -35.5 -98t-58 -58.5t-69 -29t-71 -14.5t-62 -10.5t-43.5 -21.5t-15 -42h-163zM205 -10q-52 0 -77 28t-16 79t44 79
t87 28t77.5 -28t16.5 -79t-43.5 -79t-88.5 -28z" />
    <glyph glyph-name="at" unicode="@" horiz-adv-x="1073" 
d="M607 725q220 0 334.5 -107.5t86.5 -265.5q-14 -77 -65 -138t-139 -92h-227l41 147h-10q-35 -88 -82 -124t-138 -36q-27 0 -49.5 4t-45.5 14t-34 33t-5 57q13 67 99 101.5t258 45.5q3 17 -16 28t-53 11q-101 0 -211 -42l25 141q128 45 245 45q207 0 175 -193l-36 -203
q62 40 92 86t42 115q21 114 -61 184t-247 70q-169 0 -273 -72.5t-129 -211.5t54 -211.5t248 -72.5q99 0 175 25l-22 -124q-83 -20 -174 -20q-224 0 -335.5 110t-79.5 293t183 293t374 110zM505 221q40 0 74.5 20t40.5 59q-162 -10 -169 -50q-2 -14 13.5 -21.5t40.5 -7.5z
" />
    <glyph glyph-name="A" unicode="A" horiz-adv-x="1105" 
d="M-37 0l543 700h217l295 -700h-239l-45 118h-445l-87 -118h-239zM415 290h254l-87 228z" />
    <glyph glyph-name="B" unicode="B" horiz-adv-x="926" 
d="M18 0l124 700h535q106 0 156.5 -51t35.5 -134q-26 -147 -222 -159q101 -2 151.5 -46t35.5 -124q-15 -84 -86 -135t-173 -51h-557zM298 435h297q59 0 66 46q5 26 -8.5 36.5t-41.5 10.5h-297zM252 173h319q58 0 66 49q5 27 -8.5 40.5t-39.5 13.5h-319z" />
    <glyph glyph-name="C" unicode="C" horiz-adv-x="924" 
d="M397 -16q-190 0 -288 100.5t-69 265.5t163 265.5t324 100.5t290 -88t75 -233h-204q7 74 -45 111.5t-147 37.5q-101 0 -169 -50t-85 -144t33.5 -144t152.5 -50q95 0 160 37.5t84 111.5h204q-25 -145 -157 -233t-322 -88z" />
    <glyph glyph-name="D" unicode="D" horiz-adv-x="865" 
d="M18 0l124 700h337q192 0 284 -90t62 -260q-30 -171 -154 -260.5t-316 -89.5h-337zM251 172h135q105 0 163 43.5t74 134.5q16 92 -27.5 135t-147.5 43h-135z" />
    <glyph glyph-name="E" unicode="E" horiz-adv-x="855" 
d="M18 0l124 700h705l-31 -172h-503l-16 -91h494l-28 -163h-494l-18 -102h503l-31 -172h-705z" />
    <glyph glyph-name="F" unicode="F" horiz-adv-x="765" 
d="M18 0l124 700h645l-31 -172h-443l-16 -91h434l-28 -163h-435l-48 -274h-202z" />
    <glyph glyph-name="G" unicode="G" horiz-adv-x="954" 
d="M407 -16q-190 0 -288 100.5t-69 265.5t163 265.5t324 100.5q182 0 288 -75.5t85 -196.5h-211q9 52 -42.5 76t-150.5 24q-101 0 -169 -50t-85 -144t33.5 -144t152.5 -50q175 0 228 97h-316l25 140h537l-70 -393h-116l12 149q-52 -83 -138 -124t-193 -41z" />
    <glyph glyph-name="H" unicode="H" horiz-adv-x="975" 
d="M18 0l124 700h202l-44 -248h411l44 248h202l-124 -700h-202l49 279h-411l-49 -279h-202z" />
    <glyph glyph-name="I" unicode="I" horiz-adv-x="362" 
d="M18 0l124 700h202l-124 -700h-202z" />
    <glyph glyph-name="J" unicode="J" horiz-adv-x="815" 
d="M330 -16q-342 0 -281 355h203q-17 -98 12 -140.5t96 -42.5t111 42.5t61 140.5l34 189h-390l30 172h592l-64 -361q-61 -355 -404 -355z" />
    <glyph glyph-name="K" unicode="K" horiz-adv-x="972" 
d="M18 0l124 700h202l-56 -316l384 316h300l-321 -246l229 -454h-281l-141 307l-212 -162l-26 -145h-202z" />
    <glyph glyph-name="L" unicode="L" horiz-adv-x="715" 
d="M18 0l124 700h202l-93 -528h443l-31 -172h-645z" />
    <glyph glyph-name="M" unicode="M" horiz-adv-x="1042" 
d="M18 0l124 700h161l206 -417l354 417h161l-124 -700h-202l59 333l-277 -333h-42l-159 334l-59 -334h-202z" />
    <glyph glyph-name="N" unicode="N" horiz-adv-x="978" 
d="M18 0l124 700h159l389 -387l68 387h202l-124 -700h-160l-388 386l-68 -386h-202z" />
    <glyph glyph-name="O" unicode="O" horiz-adv-x="965" 
d="M417 -16q-203 0 -304.5 100t-72.5 266t166.5 266t340.5 100q204 0 305.5 -100t72.5 -266t-166.5 -266t-341.5 -100zM448 156q116 0 187 49.5t88 144.5t-37 144.5t-170 49.5q-115 0 -186 -49.5t-88 -144.5t37 -144.5t169 -49.5z" />
    <glyph glyph-name="P" unicode="P" horiz-adv-x="870" 
d="M18 0l124 700h515q106 0 159.5 -62t37.5 -152q-18 -103 -93 -158t-180 -55h-313l-48 -273h-202zM296 435h289q57 0 67 51q10 52 -49 52h-288z" />
    <glyph glyph-name="Q" unicode="Q" horiz-adv-x="985" 
d="M955 145l-167 -171l-79 78q-124 -68 -291 -68q-203 0 -304.5 100t-72.5 266t166.5 266t340.5 100q204 0 305.5 -100t72.5 -266q-15 -82 -57 -150zM449 156q78 0 134 22l-92 92l103 106l117 -75q9 28 13 49q17 95 -37 144.5t-170 49.5q-115 0 -186 -49.5t-88 -144.5
t37 -144.5t169 -49.5z" />
    <glyph glyph-name="R" unicode="R" horiz-adv-x="941" 
d="M18 0l124 700h565q106 0 156.5 -51t35.5 -134t-84 -129.5t-172 -46.5h-72q63 -4 106 -24t75.5 -66t54.5 -99.5t52 -149.5h-266q-67 175 -90 214q-32 54 -80 64q-18 4 -44 4h-110l-49 -282h-202zM296 435h329q57 0 67 51q10 52 -49 52h-329z" />
    <glyph glyph-name="S" unicode="S" horiz-adv-x="886" 
d="M368 -16q-179 3 -275 70.5t-74 176.5h216q-2 -9 1 -18t13 -19t27.5 -18t48.5 -13.5t71 -6.5q212 -4 223 60q4 20 -27 30t-82.5 13.5t-113.5 7t-123 14.5t-109 31.5t-72.5 63.5t-12.5 105q21 109 139 173.5t291 61.5q167 -3 258.5 -70.5t73.5 -176.5h-216v17.5t-9.5 19.5
t-24 18t-43.5 13.5t-67 6.5q-187 4 -198 -60q-4 -22 26.5 -33.5t81.5 -17t113.5 -10t123 -16t108.5 -31t73 -59.5t14 -98q-21 -109 -146 -173.5t-309 -61.5z" />
    <glyph glyph-name="T" unicode="T" horiz-adv-x="873" 
d="M273 0l94 528h-311l31 172h823l-31 -172h-310l-94 -528h-202z" />
    <glyph glyph-name="U" unicode="U" horiz-adv-x="924" 
d="M399 -16q-59 0 -106.5 7.5t-89 25t-68 46t-44.5 70.5t-18 99.5t11 131.5l59 336h202l-64 -366q-15 -83 25 -126.5t125 -43.5t140 43.5t70 126.5l64 366h202l-59 -336q-19 -109 -59.5 -184.5t-100 -117.5t-129.5 -60t-160 -18z" />
    <glyph glyph-name="V" unicode="V" horiz-adv-x="1080" 
d="M332 0l-245 700h239l178 -554l374 554h239l-493 -700h-292z" />
    <glyph glyph-name="W" unicode="W" horiz-adv-x="1281" 
d="M222 0l-135 700h229l72 -416l200 416h229l54 -416l218 416h229l-383 -700h-242l-52 350l-177 -350h-242z" />
    <glyph glyph-name="X" unicode="X" horiz-adv-x="945" 
d="M-37 0l369 354l-240 346h279l132 -191l200 191h279l-369 -352l240 -348h-276l-135 194l-203 -194h-276z" />
    <glyph glyph-name="Y" unicode="Y" horiz-adv-x="1070" 
d="M372 0l40 226l-325 474h249l206 -311l316 311h249l-492 -472l-41 -228h-202z" />
    <glyph glyph-name="Z" unicode="Z" horiz-adv-x="913" 
d="M-27 0l24 132l554 396h-477l31 172h825l-23 -130l-553 -398h493l-31 -172h-843z" />
    <glyph glyph-name="bracketleft" unicode="[" horiz-adv-x="513" 
d="M-48 -190l156 890h453l-25 -142h-251l-106 -606h251l-25 -142h-453z" />
    <glyph glyph-name="backslash" unicode="\" horiz-adv-x="1063" 
d="M800 0l-708 700h171l708 -700h-171z" />
    <glyph glyph-name="bracketright" unicode="]" horiz-adv-x="513" 
d="M-48 -190l25 142h251l106 606h-251l25 142h453l-156 -890h-453z" />
    <glyph glyph-name="asciicircum" unicode="^" horiz-adv-x="560" 
d="M-5 317l21 118l299 274l201 -274l-21 -118l-207 242z" />
    <glyph glyph-name="underscore" unicode="_" horiz-adv-x="1060" 
d="M15 0l30 173h1000l-30 -173h-1000z" />
    <glyph glyph-name="grave" unicode="`" horiz-adv-x="387" 
d="M314 544l-259 164l18 102l255 -186z" />
    <glyph glyph-name="a" unicode="a" horiz-adv-x="694" 
d="M179 -16q-33 0 -60.5 4.5t-55.5 17.5t-41 41t-6 69q15 81 120 123t314 55q4 21 -19.5 34t-64.5 13q-58 0 -129.5 -14.5t-126.5 -36.5l30 172q157 54 297 54q253 0 213 -234l-50 -282h-192l50 179h-12q-42 -107 -99 -151t-168 -44zM297 120q48 0 90 24.5t49 71.5
q-196 -12 -205 -60q-3 -17 16 -26.5t50 -9.5z" />
    <glyph glyph-name="b" unicode="b" horiz-adv-x="786" 
d="M432 -16q-96 0 -156 49.5t-62 129.5h-11l-7 -163h-206l123 700h202l-64 -361v-1h4q31 80 105 129t164 49q114 0 170.5 -72t35.5 -190q-21 -122 -103 -196t-195 -74zM379 146q58 0 104 26.5t55 79.5q9 52 -27.5 77t-94.5 25q-59 0 -105 -25t-55 -77q-9 -53 27.5 -79.5
t95.5 -26.5z" />
    <glyph glyph-name="c" unicode="c" horiz-adv-x="609" 
d="M284 -16q-135 0 -200 72.5t-44 193.5q21 123 110 194.5t229 71.5q117 0 227 -54l-30 -170q-93 62 -200 62q-58 0 -97 -28.5t-47 -75.5q-8 -46 22 -75t89 -29q109 0 218 61l-29 -169q-71 -29 -124.5 -41.5t-123.5 -12.5z" />
    <glyph glyph-name="d" unicode="d" horiz-adv-x="786" 
d="M228 -16q-113 0 -168.5 74.5t-33.5 195.5q20 118 102 190t196 72q90 0 147 -49t59 -129h4l1 1l63 361h202l-124 -700h-206l50 163h-11q-30 -80 -107.5 -129.5t-173.5 -49.5zM338 146q59 0 105 26.5t56 79.5q9 52 -28 77t-96 25t-104 -25t-54 -77q-10 -53 26.5 -79.5
t94.5 -26.5z" />
    <glyph glyph-name="e" unicode="e" horiz-adv-x="682" 
d="M294 -16q-136 0 -205.5 73t-48.5 193t116.5 193t231.5 73q134 0 206 -62.5t55 -164.5l-15 -82h-402q15 -68 139 -68q29 0 56.5 2.5t45.5 6t41 10.5t33.5 11t33 13t29.5 12l-28 -161q-74 -26 -133 -37.5t-155 -11.5zM239 277l213 5q4 36 -22.5 54t-70.5 18
q-40 0 -72.5 -19.5t-47.5 -57.5z" />
    <glyph glyph-name="f" unicode="f" horiz-adv-x="413" 
d="M24 0l62 352h-57l27 148h56l4 20q10 57 21 90.5t31.5 57.5t51.5 33t80 9q61 0 148 -17l-22 -123q-48 3 -68.5 -2t-28.5 -18.5t-14 -49.5h99l-25 -138h-99l-64 -362h-202z" />
    <glyph glyph-name="g" unicode="g" horiz-adv-x="734" 
d="M271 -200q-161 0 -275 29l30 168q25 -14 88 -24.5t138 -10.5q107 0 151.5 36t69.5 143l1 5q-33 -69 -105 -105.5t-165 -36.5q-115 0 -171.5 65.5t-35.5 184.5q21 118 103 190t196 72q90 0 147 -49t59 -129h17l12 162h203l-77 -440q-23 -132 -125.5 -196t-260.5 -64z
M310 146q59 0 105 26.5t56 79.5q9 52 -28 77t-96 25t-104 -25t-54 -77q-10 -53 26.5 -79.5t94.5 -26.5z" />
    <glyph glyph-name="h" unicode="h" horiz-adv-x="748" 
d="M-12 0l124 700h216l-92 -406h10q41 123 106 172.5t184 49.5q45 -1 74 -8t51 -26t30.5 -52.5t7.5 -85.5t-14 -127l-39 -217h-202l36 200q17 95 -3 129.5t-84 34.5q-60 0 -109.5 -56t-63.5 -140v1l-30 -169h-202z" />
    <glyph glyph-name="i" unicode="i" horiz-adv-x="302" 
d="M180 541q-59 0 -84 24t-15 79q9 55 42.5 79t92.5 24t84.5 -24t16.5 -79q-10 -55 -43 -79t-94 -24zM-15 0l88 500h202l-88 -500h-202z" />
    <glyph glyph-name="j" unicode="j" horiz-adv-x="329" 
d="M207 541q-59 0 -83.5 24t-15.5 79q10 55 43 79t92 24t85 -24.5t16 -78.5q-10 -55 -43 -79t-94 -24zM-122 -200l19 110q47 0 77 22.5t36 57.5l90 510h202l-90 -510q-16 -90 -103 -140t-231 -50z" />
    <glyph glyph-name="k" unicode="k" horiz-adv-x="722" 
d="M-12 0l124 700h202l-63 -354l183 154h278l-220 -169l148 -331h-251l-76 193l-103 -79l-20 -114h-202z" />
    <glyph glyph-name="l" unicode="l" horiz-adv-x="302" 
d="M-12 0l124 700h202l-124 -700h-202z" />
    <glyph glyph-name="m" unicode="m" horiz-adv-x="1214" 
d="M5 0l88 500h216l-57 -206h10q41 123 106 172.5t184 49.5q66 -1 101 -18.5t49.5 -66t5.5 -137.5h10q41 123 106 172.5t184 49.5q45 -1 74 -8t51.5 -26t31 -52.5t7 -85.5t-14.5 -127l-38 -217h-202l35 200q17 96 -2.5 130t-83.5 34q-60 0 -109.5 -56t-64.5 -140l-29 -168
h-202l35 200q17 96 -2.5 130t-83.5 34q-60 0 -109.5 -56t-64.5 -140l-29 -168h-202z" />
    <glyph glyph-name="n" unicode="n" horiz-adv-x="758" 
d="M5 0l88 500h216l-57 -206h10q41 123 106 172.5t184 49.5q45 -1 74 -8t51.5 -26t31 -52.5t7 -85.5t-14.5 -127l-38 -217h-202l35 200q17 96 -2.5 130t-83.5 34q-59 0 -107.5 -53.5t-65.5 -134.5l-30 -176h-202z" />
    <glyph glyph-name="o" unicode="o" horiz-adv-x="722" 
d="M314 -16q-145 0 -220 73t-54 193t122 193t246 73t220 -73t54 -193t-122 -193t-246 -73zM343 146q58 0 98.5 28.5t48.5 75.5q8 46 -22.5 75t-88.5 29t-98.5 -28.5t-48.5 -75.5q-8 -46 22.5 -75t88.5 -29z" />
    <glyph glyph-name="p" unicode="p" horiz-adv-x="786" 
d="M-14 -200l124 700h206l-50 -163h11q30 80 107.5 129.5t173.5 49.5q113 0 168.5 -74.5t33.5 -195.5q-20 -118 -102 -190t-196 -72q-90 0 -147 49t-59 129h-4l-1 -1l-63 -361h-202zM411 146q59 0 104 25t54 77q10 53 -26.5 79.5t-94.5 26.5q-59 0 -105 -26.5t-56 -79.5
q-9 -52 28 -77t96 -25z" />
    <glyph glyph-name="q" unicode="q" horiz-adv-x="786" 
d="M354 516q96 0 156 -49.5t62 -129.5h11l7 163h206l-123 -700h-202l64 361v1h-4q-31 -80 -105 -129t-164 -49q-114 0 -170.5 72t-35.5 190q21 122 103 196t195 74zM407 354q-58 0 -104 -26.5t-55 -79.5q-9 -52 27.5 -77t94.5 -25q59 0 105 25t55 77q9 53 -27.5 79.5
t-95.5 26.5z" />
    <glyph glyph-name="r" unicode="r" horiz-adv-x="541" 
d="M5 0l88 500h216l-57 -206h10q41 121 110 171.5t189 50.5l-30 -172q-60 0 -96.5 -2.5t-73.5 -12t-58.5 -27.5t-38.5 -48.5t-26 -76.5l-31 -177h-202z" />
    <glyph glyph-name="s" unicode="s" horiz-adv-x="664" 
d="M283 -16q-133 0 -261 39l30 169q105 -43 230 -43q132 0 136 24q2 13 -18.5 18.5t-54.5 7t-76 2.5t-82.5 7.5t-73 19.5t-49 42t-8.5 72q15 87 101.5 130.5t223.5 43.5q107 0 245 -28l-30 -169q-118 26 -215 26q-132 0 -136 -21q-2 -10 26.5 -13.5t72.5 -2t93.5 -4.5
t91 -18t64.5 -45.5t14 -84.5q-29 -172 -324 -172z" />
    <glyph glyph-name="t" unicode="t" horiz-adv-x="418" 
d="M180 -10q-94 0 -115.5 39t-1.5 151l30 172h-56l26 148h76l22 120l185 20l-25 -140h100l-26 -148h-100l-25 -142q-9 -36 -6 -55t21.5 -24t69.5 -1l-21 -120q-77 -20 -154 -20z" />
    <glyph glyph-name="u" unicode="u" horiz-adv-x="758" 
d="M753 500l-88 -500h-216l57 206h-10q-41 -123 -106 -172.5t-184 -49.5q-45 1 -74 8t-51.5 26t-31 52.5t-7 85.5t14.5 127l38 217h202l-35 -200q-17 -96 2.5 -130t83.5 -34q59 0 107.5 53.5t65.5 134.5l30 176h202z" />
    <glyph glyph-name="v" unicode="v" horiz-adv-x="820" 
d="M245 0l-176 500h219l111 -315l221 315h219l-352 -500h-242z" />
    <glyph glyph-name="w" unicode="w" horiz-adv-x="1121" 
d="M195 0l-126 500h209l66 -270l156 270h199l68 -276l164 276h209l-302 -500h-222l-58 250l-141 -250h-222z" />
    <glyph glyph-name="x" unicode="x" horiz-adv-x="838" 
d="M-19 0l301 251l-212 249h254l116 -136l163 136h254l-313 -259l205 -241h-253l-109 128l-153 -128h-253z" />
    <glyph glyph-name="y" unicode="y" horiz-adv-x="806" 
d="M122 -200l149 211l-184 489h232l98 -280l197 280h229l-493 -700h-228z" />
    <glyph glyph-name="z" unicode="z" horiz-adv-x="723" 
d="M-14 0l20 112l356 236h-307l27 152h655l-19 -110l-355 -238h303l-27 -152h-653z" />
    <glyph glyph-name="braceleft" unicode="{" horiz-adv-x="705" 
d="M599 -80q-147 0 -223.5 23t-97.5 65t-8 115q17 95 -45 143.5t-201 48.5l12 68q134 2 196.5 49t78.5 136q13 76 48 118.5t120 66.5t235 24l-11 -62q-71 2 -111 -2.5t-66 -23t-36.5 -44.5t-19.5 -77q-7 -36 -13.5 -58.5t-23.5 -51.5t-42 -47.5t-69 -35.5t-104 -25
q70 -3 116.5 -21t68.5 -48t28.5 -70t-3.5 -88q-6 -33 -7 -53t3.5 -38.5t17 -26.5t34 -16t55 -7t79.5 0z" />
    <glyph glyph-name="bar" unicode="|" horiz-adv-x="322" 
d="M-18 -170l156 890h202l-156 -890h-202z" />
    <glyph glyph-name="braceright" unicode="}" horiz-adv-x="705" 
d="M-44 -80l11 62q94 -3 138.5 8.5t63 39.5t29.5 93q19 104 85.5 162.5t204.5 64.5q-70 10 -112 32t-55 50.5t-15 63.5t7 72q6 47 7 76.5t-19.5 46t-58.5 21.5t-110 3l11 62q113 0 183.5 -12.5t105 -38.5t42.5 -65.5t-2 -92.5q-15 -89 31 -136t179 -49l-12 -68
q-281 0 -314 -192q-13 -73 -48 -115t-120 -65t-232 -23z" />
    <glyph glyph-name="asciitilde" unicode="~" horiz-adv-x="441" 
d="M276 310q-31 0 -52.5 18t-37.5 36t-32 18q-28 0 -47.5 -18t-26.5 -53h-61q10 58 51 94t95 36q21 0 39 -11.5t28 -24.5t24.5 -24.5t30.5 -11.5q62 0 75 71h60q-11 -59 -51.5 -94.5t-94.5 -35.5z" />
    <glyph glyph-name="exclamdown" unicode="&#xa1;" horiz-adv-x="305" 
d="M215 517q54 0 78.5 -28t15.5 -79t-44.5 -79t-87.5 -28t-77 28t-16 79t44 79t87 28zM81 213h182l-61 -406h-202z" />
    <glyph glyph-name="cent" unicode="&#xa2;" horiz-adv-x="589" 
d="M366 444q-58 0 -97 -28.5t-47 -75.5q-8 -46 22 -75t89 -29q109 0 218 61l-29 -169q-83 -34 -145 -46l-19 -112h-202l20 116q-86 25 -124.5 91.5t-21.5 162.5q17 98 78 164.5t158 89.5l18 106h202l-18 -103q61 -12 128 -45l-30 -170q-93 62 -200 62z" />
    <glyph glyph-name="sterling" unicode="&#xa3;" horiz-adv-x="902" 
d="M22 0l30 169q57 29 80 59h-105l18 103h105l-5 40h-93l19 103h71q2 22 4 32q11 63 42.5 105t87.5 64.5t126.5 31.5t173.5 8q91 -1 192.5 -11.5t140.5 -23.5l-32 -180q-29 12 -138 25.5t-184 13.5q-100 0 -149.5 -14.5t-61.5 -50.5h447l-19 -103h-446q-6 -26 -10 -40h449
l-18 -103h-481q-35 -43 -81 -65h626l-29 -163h-760z" />
    <glyph glyph-name="currency" unicode="&#xa4;" horiz-adv-x="720" 
d="M115 5l-118 143l100 85q-13 42 -4 97q11 60 43 104l-73 88l168 143l99 -120q35 5 67 5q34 0 67 -5l141 120l118 -143l-104 -88q15 -44 4 -104q-9 -55 -36 -97l70 -85l-168 -143l-91 111q-38 -6 -79 -6q-42 0 -73 7zM344 251q97 0 112 79q7 37 -14.5 58t-69.5 21
q-97 0 -112 -79q-7 -37 14.5 -58t69.5 -21z" />
    <glyph glyph-name="yen" unicode="&#xa5;" horiz-adv-x="1030" 
d="M1107 700l-350 -336h136l-18 -103h-226l-34 -33l-1 -7h253l-18 -103h-254l-21 -118h-202l21 118h-254l18 103h254l1 5l-24 35h-223l18 103h134l-230 336h249l206 -311l316 311h249z" />
    <glyph glyph-name="brokenbar" unicode="&#xa6;" horiz-adv-x="322" 
d="M67 313l71 407h202l-71 -407h-202zM-18 -170l73 418h202l-73 -418h-202z" />
    <glyph glyph-name="section" unicode="&#xa7;" horiz-adv-x="644" 
d="M259 0q-133 0 -261 39l30 169q105 -43 260 -43q93 0 96 19q2 14 -18 20.5t-53 8.5t-73.5 3.5t-80 9t-71 22t-47 45t-7.5 75.5q9 45 42 72q-24 34 -14 86q14 80 100.5 122t222.5 42q107 0 245 -28l-30 -169q-118 26 -245 26q-93 0 -96 -21q-2 -10 26 -13.5t70.5 -3
t91 -6.5t88 -21t61.5 -51t12 -93q-7 -40 -38 -68q20 -38 10 -90q-13 -75 -99 -113.5t-222 -38.5zM316 323q88 -6 95 17q1 7 -4.5 12.5t-17.5 9t-27.5 5.5t-36.5 4q-84 7 -92 -18q-2 -12 18.5 -19t64.5 -11z" />
    <glyph glyph-name="dieresis" unicode="&#xa8;" horiz-adv-x="588" 
d="M134 538q-44 0 -67.5 23.5t-16.5 61.5t38.5 61.5t75.5 23.5q47 0 69 -23t15 -62t-37 -62t-77 -23zM424 538q-44 0 -67.5 23.5t-16.5 61.5t38.5 61.5t75.5 23.5q47 0 69 -23t15 -62t-37 -62t-77 -23z" />
    <glyph glyph-name="copyright" unicode="&#xa9;" horiz-adv-x="965" 
d="M417 -16q-202 0 -299.5 99.5t-67.5 266.5q29 166 163 266t334 100q204 0 301 -98.5t67 -267.5q-30 -167 -162.5 -266.5t-335.5 -99.5zM422 11q197 0 317 92.5t148 246.5q28 153 -60 246t-285 93q-191 0 -314.5 -93.5t-151.5 -245.5q-28 -151 63.5 -245t282.5 -94zM440 85
q-136 0 -205.5 73t-48.5 193t116.5 193t231.5 73q135 0 206 -65t52 -172h-204q-1 32 -23.5 52t-59.5 20q-44 0 -76.5 -27.5t-40.5 -73.5t14.5 -73.5t66.5 -27.5q39 0 70 22t42 58h203q-19 -110 -113.5 -177.5t-230.5 -67.5z" />
    <glyph glyph-name="guillemotleft" unicode="&#xab;" horiz-adv-x="885" 
d="M192 0l-162 250l250 250h240l-258 -250l170 -250h-240zM571 0l-162 250l250 250h240l-258 -250l170 -250h-240z" />
    <glyph glyph-name="logicalnot" unicode="&#xac;" horiz-adv-x="670" 
d="M437 76l29 168h-436l30 173h610l-30 -173l-30 -168h-173z" />
    <glyph glyph-name="registered" unicode="&#xae;" horiz-adv-x="965" 
d="M417 -16q-202 0 -299.5 99.5t-67.5 266.5q29 166 163 266t334 100q204 0 301 -98.5t67 -267.5q-30 -167 -162.5 -266.5t-335.5 -99.5zM422 11q197 0 317 92.5t148 246.5q28 153 -60 246t-285 93q-191 0 -314.5 -93.5t-151.5 -245.5q-28 -151 63.5 -245t282.5 -94z
M214 133l77 435h351q66 0 97 -32t22 -83q-9 -52 -52 -81t-107 -29h-44q74 -4 108 -48.5t70 -161.5h-165q-45 118 -64.5 146.5t-68.5 28.5h-68l-30 -175h-126zM387 403h204q35 0 42 32q6 32 -31 32h-204z" />
    <glyph glyph-name="macron" unicode="&#xaf;" horiz-adv-x="632" 
d="M45 646l10 54h532l-10 -54h-532z" />
    <glyph glyph-name="degree" unicode="&#xb0;" horiz-adv-x="518" 
d="M237 460q-86 0 -141.5 35t-45.5 90t77.5 90t153.5 35q93 0 145 -34.5t42 -90.5t-74 -90.5t-157 -34.5zM248 522q34 0 58 16.5t28 46.5q4 31 -13 47t-51 16q-33 0 -56.5 -16.5t-28.5 -46.5t12.5 -46.5t50.5 -16.5z" />
    <glyph glyph-name="plusminus" unicode="&#xb1;" horiz-adv-x="600" 
d="M208 196l23 130h-130l23 130h130l23 130h130l-23 -130h130l-23 -130h-130l-23 -130h-130zM-22 0l24 133h520l-24 -133h-520z" />
    <glyph glyph-name="acute" unicode="&#xb4;" horiz-adv-x="387" 
d="M27 544l14 80l319 186l-18 -102z" />
    <glyph glyph-name="paragraph" unicode="&#xb6;" horiz-adv-x="939" 
d="M316 -180l80 453h-129q-105 0 -160 55t-37 158q15 90 91 152t182 62h335l-156 -880h-206zM629 -180l156 880h202l-156 -880h-202z" />
    <glyph glyph-name="periodcentered" unicode="&#xb7;" horiz-adv-x="285" 
d="M123 236q-52 0 -77 28t-16 79t44 79t87 28t77.5 -28t16.5 -79t-43.5 -79t-88.5 -28z" />
    <glyph glyph-name="cedilla" unicode="&#xb8;" horiz-adv-x="526" 
d="M22 -287l9 55q232 1 242 55q3 17 -19 29.5t-73 20t-130 8.5l10 53l75 101h129l-73 -105q137 -9 210 -36.5t65 -70.5q-8 -47 -131.5 -78t-313.5 -32z" />
    <glyph glyph-name="guillemotright" unicode="&#xbb;" horiz-adv-x="885" 
d="M-14 0l258 250l-170 250h240l162 -250l-250 -250h-240zM365 0l258 250l-170 250h240l162 -250l-250 -250h-240z" />
    <glyph glyph-name="onequarter" unicode="&#xbc;" horiz-adv-x="1603" 
d="M355 -22l818 744h141l-818 -744h-141zM237 161l65 368l-266 -149l24 138l303 121h97l-85 -478h-138zM1288 61l13 74h-370l16 92l357 312h206l-50 -286h61l-21 -118h-61l-13 -74h-138zM1107 253h215l41 240z" />
    <glyph glyph-name="onehalf" unicode="&#xbd;" horiz-adv-x="1734" 
d="M354 -22l818 744h141l-818 -744h-141zM237 161l65 368l-266 -149l24 138l303 121h97l-85 -478h-138zM1116 61l17 95q43 19 114 47.5t118 48t96.5 43t76.5 44t30 39.5q5 28 -25 39.5t-103 11.5q-50 0 -128 -9t-101 -17l22 122q30 10 101.5 17t133.5 7q141 2 199.5 -28.5
t43.5 -113.5q-27 -156 -421 -229h361l-21 -117h-514z" />
    <glyph glyph-name="threequarters" unicode="&#xbe;" horiz-adv-x="1610" 
d="M362 -22l818 744h141l-818 -744h-141zM219 150q-144 2 -217 30l20 118q65 -30 211 -30q156 0 163 35q2 13 -10.5 21.5t-50 16.5t-103.5 13.5t-172 10.5l13 69q150 7 227 16.5t95 17.5t20 22q4 23 -39 33t-97 10q-140 0 -221 -30l21 117q90 31 228 31q61 0 103.5 -4.5
t80 -18t53 -40.5t8.5 -68q-5 -28 -23 -49.5t-46.5 -33t-53 -19t-56.5 -10t-42 -3t-25 -0.5l-1 -6q1 0 25 -0.5t40.5 -2t44 -5t46 -11t36.5 -19t25 -30t3 -42.5q-15 -81 -91.5 -110.5t-214.5 -28.5zM1295 58l13 74h-370l16 92l357 312h206l-50 -286h61l-21 -118h-61l-13 -74
h-138zM1114 250h215l41 240z" />
    <glyph glyph-name="questiondown" unicode="&#xbf;" horiz-adv-x="742" 
d="M507 517q52 0 77 -28t16 -79t-44 -79t-87 -28t-77.5 28t-16.5 79t43.5 79t88.5 28zM544 275q-7 -72 -39.5 -114t-75 -54.5t-84 -17t-73 -13.5t-35.5 -33q-7 -42 37 -58.5t150 -16.5q102 0 249 21l-32 -179q-122 -16 -258 -18q-206 -2 -292 42t-64 167q10 58 35.5 98
t58 58.5t69 29t71 14.5t62 10.5t43.5 21.5t15 42h163z" />
    <glyph glyph-name="Agrave" unicode="&#xc0;" horiz-adv-x="1105" 
d="M629 744l-259 164l18 102l255 -186zM-37 0l543 700h217l295 -700h-239l-45 118h-445l-87 -118h-239zM415 290h254l-87 228z" />
    <glyph glyph-name="Aacute" unicode="&#xc1;" horiz-adv-x="1105" 
d="M599 744l14 80l319 186l-18 -102zM-37 0l543 700h217l295 -700h-239l-45 118h-445l-87 -118h-239zM415 290h254l-87 228z" />
    <glyph glyph-name="Acircumflex" unicode="&#xc2;" horiz-adv-x="1105" 
d="M338 755l14 80l319 186l255 -186l-14 -80l-259 164zM-37 0l543 700h217l295 -700h-239l-45 118h-445l-87 -118h-239zM415 290h254l-87 228z" />
    <glyph glyph-name="Atilde" unicode="&#xc3;" horiz-adv-x="1105" 
d="M712 772q-31 0 -52.5 18t-37.5 36t-32 18q-28 0 -47.5 -18t-26.5 -53h-61q10 58 51 94t95 36q21 0 39 -11.5t28 -24.5t24.5 -24.5t30.5 -11.5q62 0 75 71h60q-11 -59 -51.5 -94.5t-94.5 -35.5zM-37 0l543 700h217l295 -700h-239l-45 118h-445l-87 -118h-239zM415 290h254
l-87 228z" />
    <glyph glyph-name="Adieresis" unicode="&#xc4;" horiz-adv-x="1105" 
d="M481 738q-44 0 -67.5 23.5t-16.5 61.5t38.5 61.5t75.5 23.5q47 0 69 -23t15 -62t-37 -62t-77 -23zM771 738q-44 0 -67.5 23.5t-16.5 61.5t38.5 61.5t75.5 23.5q47 0 69 -23t15 -62t-37 -62t-77 -23zM-37 0l543 700h217l295 -700h-239l-45 118h-445l-87 -118h-239z
M415 290h254l-87 228z" />
    <glyph glyph-name="Aring" unicode="&#xc5;" horiz-adv-x="1105" 
d="M622 738q-105 0 -174 29t-61 74t87 74t184 29q113 0 178 -28.5t57 -74.5t-83 -74.5t-188 -28.5zM631 789q41 0 68.5 13.5t31.5 38.5q4 26 -18.5 39t-63.5 13q-40 0 -67 -13.5t-31 -38.5t18 -38.5t62 -13.5zM-37 0l543 700h217l295 -700h-239l-45 118h-445l-87 -118h-239z
M415 290h254l-87 228z" />
    <glyph glyph-name="AE" unicode="&#xc6;" horiz-adv-x="1455" 
d="M-37 0l733 700h751l-31 -172h-443l-16 -91h434l-28 -163h-434l-18 -102h443l-31 -172h-645l21 118h-331l-116 -118h-289zM536 290h193l43 240z" />
    <glyph glyph-name="Ccedilla" unicode="&#xc7;" horiz-adv-x="924" 
d="M892 395h-204q7 74 -45 111.5t-147 37.5q-101 0 -169 -50t-85 -144t33.5 -144t152.5 -50q95 0 160 37.5t84 111.5h204q-22 -124 -124.5 -208t-255.5 -106l-42 -61q137 -9 210 -36.5t65 -70.5q-8 -47 -131.5 -78t-313.5 -32l9 55q232 1 242 55q3 17 -19 29.5t-73 20
t-130 8.5l10 53l38 51q-173 10 -261 109.5t-60 255.5q29 165 163 265.5t324 100.5t290 -88t75 -233z" />
    <glyph glyph-name="Egrave" unicode="&#xc8;" horiz-adv-x="855" 
d="M504 744l-259 164l18 102l255 -186zM18 0l124 700h705l-31 -172h-503l-16 -91h494l-28 -163h-494l-18 -102h503l-31 -172h-705z" />
    <glyph glyph-name="Eacute" unicode="&#xc9;" horiz-adv-x="855" 
d="M474 744l14 80l319 186l-18 -102zM18 0l124 700h705l-31 -172h-503l-16 -91h494l-28 -163h-494l-18 -102h503l-31 -172h-705z" />
    <glyph glyph-name="Ecircumflex" unicode="&#xca;" horiz-adv-x="855" 
d="M213 755l14 80l319 186l255 -186l-14 -80l-259 164zM18 0l124 700h705l-31 -172h-503l-16 -91h494l-28 -163h-494l-18 -102h503l-31 -172h-705z" />
    <glyph glyph-name="Edieresis" unicode="&#xcb;" horiz-adv-x="855" 
d="M356 738q-44 0 -67.5 23.5t-16.5 61.5t38.5 61.5t75.5 23.5q47 0 69 -23t15 -62t-37 -62t-77 -23zM646 738q-44 0 -67.5 23.5t-16.5 61.5t38.5 61.5t75.5 23.5q47 0 69 -23t15 -62t-37 -62t-77 -23zM18 0l124 700h705l-31 -172h-503l-16 -91h494l-28 -163h-494l-18 -102
h503l-31 -172h-705z" />
    <glyph glyph-name="Igrave" unicode="&#xcc;" horiz-adv-x="362" 
d="M257 744l-259 164l18 102l255 -186zM18 0l124 700h202l-124 -700h-202z" />
    <glyph glyph-name="Iacute" unicode="&#xcd;" horiz-adv-x="362" 
d="M227 744l14 80l319 186l-18 -102zM18 0l124 700h202l-124 -700h-202z" />
    <glyph glyph-name="Icircumflex" unicode="&#xce;" horiz-adv-x="362" 
d="M-34 755l14 80l319 186l255 -186l-14 -80l-259 164zM18 0l124 700h202l-124 -700h-202z" />
    <glyph glyph-name="Idieresis" unicode="&#xcf;" horiz-adv-x="362" 
d="M109 738q-44 0 -67.5 23.5t-16.5 61.5t38.5 61.5t75.5 23.5q47 0 69 -23t15 -62t-37 -62t-77 -23zM399 738q-44 0 -67.5 23.5t-16.5 61.5t38.5 61.5t75.5 23.5q47 0 69 -23t15 -62t-37 -62t-77 -23zM18 0l124 700h202l-124 -700h-202z" />
    <glyph glyph-name="Eth" unicode="&#xd0;" horiz-adv-x="865" 
d="M479 700q192 0 284 -90t62 -260q-30 -171 -154 -260.5t-316 -89.5h-337l47 264h-75l61 173h44l47 263h337zM623 350q16 92 -27.5 135t-147.5 43h-135l-16 -91h254l-61 -173h-223l-16 -92h135q105 0 163 43.5t74 134.5z" />
    <glyph glyph-name="Ntilde" unicode="&#xd1;" horiz-adv-x="978" 
d="M648 772q-31 0 -52.5 18t-37.5 36t-32 18q-28 0 -47.5 -18t-26.5 -53h-61q10 58 51 94t95 36q21 0 39 -11.5t28 -24.5t24.5 -24.5t30.5 -11.5q62 0 75 71h60q-11 -59 -51.5 -94.5t-94.5 -35.5zM18 0l124 700h159l389 -387l68 387h202l-124 -700h-160l-388 386l-68 -386
h-202z" />
    <glyph glyph-name="Ograve" unicode="&#xd2;" horiz-adv-x="965" 
d="M559 744l-259 164l18 102l255 -186zM417 -16q-203 0 -304.5 100t-72.5 266t166.5 266t340.5 100q204 0 305.5 -100t72.5 -266t-166.5 -266t-341.5 -100zM448 156q116 0 187 49.5t88 144.5t-37 144.5t-170 49.5q-115 0 -186 -49.5t-88 -144.5t37 -144.5t169 -49.5z" />
    <glyph glyph-name="Oacute" unicode="&#xd3;" horiz-adv-x="965" 
d="M529 744l14 80l319 186l-18 -102zM417 -16q-203 0 -304.5 100t-72.5 266t166.5 266t340.5 100q204 0 305.5 -100t72.5 -266t-166.5 -266t-341.5 -100zM448 156q116 0 187 49.5t88 144.5t-37 144.5t-170 49.5q-115 0 -186 -49.5t-88 -144.5t37 -144.5t169 -49.5z" />
    <glyph glyph-name="Ocircumflex" unicode="&#xd4;" horiz-adv-x="965" 
d="M268 755l14 80l319 186l255 -186l-14 -80l-259 164zM417 -16q-203 0 -304.5 100t-72.5 266t166.5 266t340.5 100q204 0 305.5 -100t72.5 -266t-166.5 -266t-341.5 -100zM448 156q116 0 187 49.5t88 144.5t-37 144.5t-170 49.5q-115 0 -186 -49.5t-88 -144.5t37 -144.5
t169 -49.5z" />
    <glyph glyph-name="Otilde" unicode="&#xd5;" horiz-adv-x="965" 
d="M642 772q-31 0 -52.5 18t-37.5 36t-32 18q-28 0 -47.5 -18t-26.5 -53h-61q10 58 51 94t95 36q21 0 39 -11.5t28 -24.5t24.5 -24.5t30.5 -11.5q62 0 75 71h60q-11 -59 -51.5 -94.5t-94.5 -35.5zM417 -16q-203 0 -304.5 100t-72.5 266t166.5 266t340.5 100
q204 0 305.5 -100t72.5 -266t-166.5 -266t-341.5 -100zM448 156q116 0 187 49.5t88 144.5t-37 144.5t-170 49.5q-115 0 -186 -49.5t-88 -144.5t37 -144.5t169 -49.5z" />
    <glyph glyph-name="Odieresis" unicode="&#xd6;" horiz-adv-x="965" 
d="M411 738q-44 0 -67.5 23.5t-16.5 61.5t38.5 61.5t75.5 23.5q47 0 69 -23t15 -62t-37 -62t-77 -23zM701 738q-44 0 -67.5 23.5t-16.5 61.5t38.5 61.5t75.5 23.5q47 0 69 -23t15 -62t-37 -62t-77 -23zM417 -16q-203 0 -304.5 100t-72.5 266t166.5 266t340.5 100
q204 0 305.5 -100t72.5 -266t-166.5 -266t-341.5 -100zM448 156q116 0 187 49.5t88 144.5t-37 144.5t-170 49.5q-115 0 -186 -49.5t-88 -144.5t37 -144.5t169 -49.5z" />
    <glyph glyph-name="multiply" unicode="&#xd7;" horiz-adv-x="600" 
d="M125 86l-102 122l144 123l-100 122l143 123l101 -123l144 123l102 -122l-145 -123l101 -123l-144 -122l-101 122z" />
    <glyph glyph-name="Oslash" unicode="&#xd8;" horiz-adv-x="965" 
d="M1046 700l-163 -119q66 -94 42 -231q-29 -166 -166.5 -266t-341.5 -100q-160 0 -261 65l-66 -49h-171l163 119q-66 94 -42 231q29 166 166.5 266t340.5 100q162 0 261 -65l67 49h171zM242 350q-12 -61 9 -107l385 282q-47 19 -120 19q-115 0 -186 -49.5t-88 -144.5z
M723 350q12 61 -9 107l-385 -282q47 -19 119 -19q116 0 187 49.5t88 144.5z" />
    <glyph glyph-name="Ugrave" unicode="&#xd9;" horiz-adv-x="924" 
d="M539 744l-259 164l18 102l255 -186zM399 -16q-59 0 -106.5 7.5t-89 25t-68 46t-44.5 70.5t-18 99.5t11 131.5l59 336h202l-64 -366q-15 -83 25 -126.5t125 -43.5t140 43.5t70 126.5l64 366h202l-59 -336q-19 -109 -59.5 -184.5t-100 -117.5t-129.5 -60t-160 -18z" />
    <glyph glyph-name="Uacute" unicode="&#xda;" horiz-adv-x="924" 
d="M509 744l14 80l319 186l-18 -102zM399 -16q-59 0 -106.5 7.5t-89 25t-68 46t-44.5 70.5t-18 99.5t11 131.5l59 336h202l-64 -366q-15 -83 25 -126.5t125 -43.5t140 43.5t70 126.5l64 366h202l-59 -336q-19 -109 -59.5 -184.5t-100 -117.5t-129.5 -60t-160 -18z" />
    <glyph glyph-name="Ucircumflex" unicode="&#xdb;" horiz-adv-x="924" 
d="M248 755l14 80l319 186l255 -186l-14 -80l-259 164zM399 -16q-59 0 -106.5 7.5t-89 25t-68 46t-44.5 70.5t-18 99.5t11 131.5l59 336h202l-64 -366q-15 -83 25 -126.5t125 -43.5t140 43.5t70 126.5l64 366h202l-59 -336q-19 -109 -59.5 -184.5t-100 -117.5t-129.5 -60
t-160 -18z" />
    <glyph glyph-name="Udieresis" unicode="&#xdc;" horiz-adv-x="924" 
d="M391 738q-44 0 -67.5 23.5t-16.5 61.5t38.5 61.5t75.5 23.5q47 0 69 -23t15 -62t-37 -62t-77 -23zM681 738q-44 0 -67.5 23.5t-16.5 61.5t38.5 61.5t75.5 23.5q47 0 69 -23t15 -62t-37 -62t-77 -23zM399 -16q-59 0 -106.5 7.5t-89 25t-68 46t-44.5 70.5t-18 99.5
t11 131.5l59 336h202l-64 -366q-15 -83 25 -126.5t125 -43.5t140 43.5t70 126.5l64 366h202l-59 -336q-19 -109 -59.5 -184.5t-100 -117.5t-129.5 -60t-160 -18z" />
    <glyph glyph-name="Yacute" unicode="&#xdd;" horiz-adv-x="1070" 
d="M581 744l14 80l319 186l-18 -102zM372 0l40 226l-325 474h249l206 -311l316 311h249l-492 -472l-41 -228h-202z" />
    <glyph glyph-name="Thorn" unicode="&#xde;" horiz-adv-x="830" 
d="M-2 0l124 700h205l-35 -200h309q106 0 159.5 -61.5t38.5 -152.5q-18 -103 -93 -158t-180 -55h-309l-13 -73h-206zM245 235h285q57 0 67 51q8 52 -49 52h-285z" />
    <glyph glyph-name="germandbls" unicode="&#xdf;" horiz-adv-x="858" 
d="M343 -16q-66 2 -100 4l30 171q47 -3 90 -3q230 0 238 52q4 21 -19.5 34.5t-92 24.5t-194.5 20l22 123q103 7 167 15t94 17.5t39.5 18t12.5 21.5q3 19 -14.5 32.5t-51 19.5t-65 8.5t-68.5 2.5h-163l-96 -545h-202l123 700h375q64 0 104 -1.5t90.5 -6.5t79 -16.5
t54.5 -30.5t33.5 -49t0.5 -71q-16 -88 -101 -128t-258 -40l-2 -9q183 -6 259.5 -44.5t62.5 -116.5q-11 -62 -47.5 -103.5t-98.5 -63t-133 -29.5t-169 -7z" />
    <glyph glyph-name="agrave" unicode="&#xe0;" horiz-adv-x="694" 
d="M444 544l-259 164l18 102l255 -186zM179 -16q-33 0 -60.5 4.5t-55.5 17.5t-41 41t-6 69q15 81 120 123t314 55q4 21 -19.5 34t-64.5 13q-58 0 -129.5 -14.5t-126.5 -36.5l30 172q157 54 297 54q253 0 213 -234l-50 -282h-192l50 179h-12q-42 -107 -99 -151t-168 -44z
M297 120q48 0 90 24.5t49 71.5q-196 -12 -205 -60q-3 -17 16 -26.5t50 -9.5z" />
    <glyph glyph-name="aacute" unicode="&#xe1;" horiz-adv-x="694" 
d="M414 544l14 80l319 186l-18 -102zM179 -16q-33 0 -60.5 4.5t-55.5 17.5t-41 41t-6 69q15 81 120 123t314 55q4 21 -19.5 34t-64.5 13q-58 0 -129.5 -14.5t-126.5 -36.5l30 172q157 54 297 54q253 0 213 -234l-50 -282h-192l50 179h-12q-42 -107 -99 -151t-168 -44z
M297 120q48 0 90 24.5t49 71.5q-196 -12 -205 -60q-3 -17 16 -26.5t50 -9.5z" />
    <glyph glyph-name="acircumflex" unicode="&#xe2;" horiz-adv-x="694" 
d="M153 555l14 80l319 186l255 -186l-14 -80l-259 164zM179 -16q-33 0 -60.5 4.5t-55.5 17.5t-41 41t-6 69q15 81 120 123t314 55q4 21 -19.5 34t-64.5 13q-58 0 -129.5 -14.5t-126.5 -36.5l30 172q157 54 297 54q253 0 213 -234l-50 -282h-192l50 179h-12
q-42 -107 -99 -151t-168 -44zM297 120q48 0 90 24.5t49 71.5q-196 -12 -205 -60q-3 -17 16 -26.5t50 -9.5z" />
    <glyph glyph-name="atilde" unicode="&#xe3;" horiz-adv-x="694" 
d="M527 572q-31 0 -52.5 18t-37.5 36t-32 18q-28 0 -47.5 -18t-26.5 -53h-61q10 58 51 94t95 36q21 0 39 -11.5t28 -24.5t24.5 -24.5t30.5 -11.5q62 0 75 71h60q-11 -59 -51.5 -94.5t-94.5 -35.5zM179 -16q-33 0 -60.5 4.5t-55.5 17.5t-41 41t-6 69q15 81 120 123t314 55
q4 21 -19.5 34t-64.5 13q-58 0 -129.5 -14.5t-126.5 -36.5l30 172q157 54 297 54q253 0 213 -234l-50 -282h-192l50 179h-12q-42 -107 -99 -151t-168 -44zM297 120q48 0 90 24.5t49 71.5q-196 -12 -205 -60q-3 -17 16 -26.5t50 -9.5z" />
    <glyph glyph-name="adieresis" unicode="&#xe4;" horiz-adv-x="694" 
d="M296 538q-44 0 -67.5 23.5t-16.5 61.5t38.5 61.5t75.5 23.5q47 0 69 -23t15 -62t-37 -62t-77 -23zM586 538q-44 0 -67.5 23.5t-16.5 61.5t38.5 61.5t75.5 23.5q47 0 69 -23t15 -62t-37 -62t-77 -23zM179 -16q-33 0 -60.5 4.5t-55.5 17.5t-41 41t-6 69q15 81 120 123
t314 55q4 21 -19.5 34t-64.5 13q-58 0 -129.5 -14.5t-126.5 -36.5l30 172q157 54 297 54q253 0 213 -234l-50 -282h-192l50 179h-12q-42 -107 -99 -151t-168 -44zM297 120q48 0 90 24.5t49 71.5q-196 -12 -205 -60q-3 -17 16 -26.5t50 -9.5z" />
    <glyph glyph-name="aring" unicode="&#xe5;" horiz-adv-x="694" 
d="M437 538q-105 0 -174 29t-61 74t87 74t184 29q113 0 178 -28.5t57 -74.5t-83 -74.5t-188 -28.5zM446 589q41 0 68.5 13.5t31.5 38.5q4 26 -18.5 39t-63.5 13q-40 0 -67 -13.5t-31 -38.5t18 -38.5t62 -13.5zM179 -16q-33 0 -60.5 4.5t-55.5 17.5t-41 41t-6 69
q15 81 120 123t314 55q4 21 -19.5 34t-64.5 13q-58 0 -129.5 -14.5t-126.5 -36.5l30 172q157 54 297 54q253 0 213 -234l-50 -282h-192l50 179h-12q-42 -107 -99 -151t-168 -44zM297 120q48 0 90 24.5t49 71.5q-196 -12 -205 -60q-3 -17 16 -26.5t50 -9.5z" />
    <glyph glyph-name="ae" unicode="&#xe6;" horiz-adv-x="1091" 
d="M179 -16q-33 0 -60.5 4.5t-55.5 17.5t-41 41t-6 69q8 44 46.5 76t86 48t111 25t107.5 11t88 1q7 39 -16.5 51.5t-72.5 12.5q-58 0 -129.5 -14.5t-126.5 -36.5l30 172q157 54 297 54q116 0 163 -50q88 50 197 50q134 0 205.5 -62.5t55.5 -164.5l-15 -82h-402
q15 -68 139 -68q29 0 56.5 2.5t45.5 6t41 10.5t33.5 11t33 13t29.5 12l-28 -161q-74 -26 -133 -37.5t-155 -11.5q-107 0 -174 46t-81 128q-27 -84 -96.5 -129t-172.5 -45zM649 277l213 5q2 36 -24 54t-70 18q-40 0 -72.5 -19.5t-46.5 -57.5zM299 119q45 1 85.5 24t50.5 65
q-194 0 -204 -52q-3 -17 17 -27t51 -10z" />
    <glyph glyph-name="ccedilla" unicode="&#xe7;" horiz-adv-x="609" 
d="M321 -70q137 -9 210 -36.5t65 -70.5q-8 -47 -131.5 -78t-313.5 -32l9 55q232 1 242 55q3 17 -19 29.5t-73 20t-130 8.5l10 53l40 53q-108 15 -158.5 85t-31.5 178q21 123 110 194.5t229 71.5q117 0 227 -54l-30 -170q-93 62 -200 62q-58 0 -97 -28.5t-47 -75.5
q-8 -46 22 -75t89 -29q109 0 218 61l-29 -169q-97 -40 -170 -50z" />
    <glyph glyph-name="egrave" unicode="&#xe8;" horiz-adv-x="682" 
d="M399 544l-259 164l18 102l255 -186zM294 -16q-136 0 -205.5 73t-48.5 193t116.5 193t231.5 73q134 0 206 -62.5t55 -164.5l-15 -82h-402q15 -68 139 -68q29 0 56.5 2.5t45.5 6t41 10.5t33.5 11t33 13t29.5 12l-28 -161q-74 -26 -133 -37.5t-155 -11.5zM239 277l213 5
q4 36 -22.5 54t-70.5 18q-40 0 -72.5 -19.5t-47.5 -57.5z" />
    <glyph glyph-name="eacute" unicode="&#xe9;" horiz-adv-x="682" 
d="M369 544l14 80l319 186l-18 -102zM294 -16q-136 0 -205.5 73t-48.5 193t116.5 193t231.5 73q134 0 206 -62.5t55 -164.5l-15 -82h-402q15 -68 139 -68q29 0 56.5 2.5t45.5 6t41 10.5t33.5 11t33 13t29.5 12l-28 -161q-74 -26 -133 -37.5t-155 -11.5zM239 277l213 5
q4 36 -22.5 54t-70.5 18q-40 0 -72.5 -19.5t-47.5 -57.5z" />
    <glyph glyph-name="ecircumflex" unicode="&#xea;" horiz-adv-x="682" 
d="M108 555l14 80l319 186l255 -186l-14 -80l-259 164zM294 -16q-136 0 -205.5 73t-48.5 193t116.5 193t231.5 73q134 0 206 -62.5t55 -164.5l-15 -82h-402q15 -68 139 -68q29 0 56.5 2.5t45.5 6t41 10.5t33.5 11t33 13t29.5 12l-28 -161q-74 -26 -133 -37.5t-155 -11.5z
M239 277l213 5q4 36 -22.5 54t-70.5 18q-40 0 -72.5 -19.5t-47.5 -57.5z" />
    <glyph glyph-name="edieresis" unicode="&#xeb;" horiz-adv-x="682" 
d="M251 538q-44 0 -67.5 23.5t-16.5 61.5t38.5 61.5t75.5 23.5q47 0 69 -23t15 -62t-37 -62t-77 -23zM541 538q-44 0 -67.5 23.5t-16.5 61.5t38.5 61.5t75.5 23.5q47 0 69 -23t15 -62t-37 -62t-77 -23zM294 -16q-136 0 -205.5 73t-48.5 193t116.5 193t231.5 73
q134 0 206 -62.5t55 -164.5l-15 -82h-402q15 -68 139 -68q29 0 56.5 2.5t45.5 6t41 10.5t33.5 11t33 13t29.5 12l-28 -161q-74 -26 -133 -37.5t-155 -11.5zM239 277l213 5q4 36 -22.5 54t-70.5 18q-40 0 -72.5 -19.5t-47.5 -57.5z" />
    <glyph glyph-name="igrave" unicode="&#xec;" horiz-adv-x="228" 
d="M181 542l-230 164l36 102l222 -186zM-31 0l88 500h202l-88 -500h-202z" />
    <glyph glyph-name="iacute" unicode="&#xed;" horiz-adv-x="228" 
d="M143 542l14 80l319 186l-18 -102zM-31 0l88 500h202l-88 -500h-202z" />
    <glyph glyph-name="icircumflex" unicode="&#xee;" horiz-adv-x="228" 
d="M-108 553l28 80l352 186l222 -186l-28 -80l-230 164zM-31 0l88 500h202l-88 -500h-202z" />
    <glyph glyph-name="idieresis" unicode="&#xef;" horiz-adv-x="228" 
d="M32 536q-44 0 -63 23.5t-6 61.5t49 61.5t80 23.5q47 0 65 -23t4 -62t-48 -62t-81 -23zM322 536q-44 0 -63 23.5t-6 61.5t49 61.5t80 23.5q47 0 65 -23t4 -62t-48 -62t-81 -23zM-31 0l88 500h202l-88 -500h-202z" />
    <glyph glyph-name="eth" unicode="&#xf0;" horiz-adv-x="837" 
d="M328 -12q-169 0 -254.5 60.5t-71.5 163.5q16 111 108 179.5t255 68.5q160 0 233 -117q21 101 -26 196l-184 -51l-11 99l133 37q-52 47 -118 47l19 84q168 0 277 -82l150 41l12 -98l-86 -24q63 -100 40 -230q-33 -186 -159.5 -280t-316.5 -94zM368 160q68 0 119 30t81 80
q-92 45 -204 45q-68 0 -108 -20.5t-47 -57.5q-6 -38 38.5 -57.5t120.5 -19.5z" />
    <glyph glyph-name="ntilde" unicode="&#xf1;" horiz-adv-x="758" 
d="M531 572q-31 0 -52.5 18t-37.5 36t-32 18q-28 0 -47.5 -18t-26.5 -53h-61q10 58 51 94t95 36q21 0 39 -11.5t28 -24.5t24.5 -24.5t30.5 -11.5q62 0 75 71h60q-11 -59 -51.5 -94.5t-94.5 -35.5zM5 0l88 500h216l-57 -206h10q41 123 106 172.5t184 49.5q45 -1 74 -8
t51.5 -26t31 -52.5t7 -85.5t-14.5 -127l-38 -217h-202l35 200q17 96 -2.5 130t-83.5 34q-59 0 -107.5 -53.5t-65.5 -134.5l-30 -176h-202z" />
    <glyph glyph-name="ograve" unicode="&#xf2;" horiz-adv-x="722" 
d="M420 544l-259 164l18 102l255 -186zM314 -16q-145 0 -220 73t-54 193t122 193t246 73t220 -73t54 -193t-122 -193t-246 -73zM343 146q58 0 98.5 28.5t48.5 75.5q8 46 -22.5 75t-88.5 29t-98.5 -28.5t-48.5 -75.5q-8 -46 22.5 -75t88.5 -29z" />
    <glyph glyph-name="oacute" unicode="&#xf3;" horiz-adv-x="722" 
d="M390 544l14 80l319 186l-18 -102zM314 -16q-145 0 -220 73t-54 193t122 193t246 73t220 -73t54 -193t-122 -193t-246 -73zM343 146q58 0 98.5 28.5t48.5 75.5q8 46 -22.5 75t-88.5 29t-98.5 -28.5t-48.5 -75.5q-8 -46 22.5 -75t88.5 -29z" />
    <glyph glyph-name="ocircumflex" unicode="&#xf4;" horiz-adv-x="722" 
d="M129 555l14 80l319 186l255 -186l-14 -80l-259 164zM314 -16q-145 0 -220 73t-54 193t122 193t246 73t220 -73t54 -193t-122 -193t-246 -73zM343 146q58 0 98.5 28.5t48.5 75.5q8 46 -22.5 75t-88.5 29t-98.5 -28.5t-48.5 -75.5q-8 -46 22.5 -75t88.5 -29z" />
    <glyph glyph-name="otilde" unicode="&#xf5;" horiz-adv-x="722" 
d="M503 572q-31 0 -52.5 18t-37.5 36t-32 18q-28 0 -47.5 -18t-26.5 -53h-61q10 58 51 94t95 36q21 0 39 -11.5t28 -24.5t24.5 -24.5t30.5 -11.5q62 0 75 71h60q-11 -59 -51.5 -94.5t-94.5 -35.5zM314 -16q-145 0 -220 73t-54 193t122 193t246 73t220 -73t54 -193t-122 -193
t-246 -73zM343 146q58 0 98.5 28.5t48.5 75.5q8 46 -22.5 75t-88.5 29t-98.5 -28.5t-48.5 -75.5q-8 -46 22.5 -75t88.5 -29z" />
    <glyph glyph-name="odieresis" unicode="&#xf6;" horiz-adv-x="722" 
d="M275 538q-44 0 -67.5 23.5t-16.5 61.5t38.5 61.5t75.5 23.5q47 0 69 -23t15 -62t-37 -62t-77 -23zM565 538q-44 0 -67.5 23.5t-16.5 61.5t38.5 61.5t75.5 23.5q47 0 69 -23t15 -62t-37 -62t-77 -23zM314 -16q-145 0 -220 73t-54 193t122 193t246 73t220 -73t54 -193
t-122 -193t-246 -73zM343 146q58 0 98.5 28.5t48.5 75.5q8 46 -22.5 75t-88.5 29t-98.5 -28.5t-48.5 -75.5q-8 -46 22.5 -75t88.5 -29z" />
    <glyph glyph-name="divide" unicode="&#xf7;" horiz-adv-x="600" 
d="M313 449q-52 0 -77 28t-16 79t44 79t87 28t77.5 -28t16.5 -79t-43.5 -79t-88.5 -28zM15 244l31 173h520l-31 -173h-520zM232 -10q-52 0 -77 28t-16 79t44 79t87 28t77.5 -28t16.5 -79t-43.5 -79t-88.5 -28z" />
    <glyph glyph-name="oslash" unicode="&#xf8;" horiz-adv-x="722" 
d="M788 500l-130 -95q40 -65 24 -155q-21 -120 -122 -193t-246 -73q-106 0 -175 40l-33 -24h-171l129 95q-40 65 -24 155q21 120 122 193t246 73q105 0 176 -40l33 24h171zM232 250q-3 -18 0 -33l182 134q-17 3 -35 3q-58 0 -98.5 -28.5t-48.5 -75.5zM490 250q3 15 1 32
l-182 -133q17 -3 34 -3q58 0 98.5 28.5t48.5 75.5z" />
    <glyph glyph-name="ugrave" unicode="&#xf9;" horiz-adv-x="758" 
d="M440 544l-259 164l18 102l255 -186zM753 500l-88 -500h-216l57 206h-10q-41 -123 -106 -172.5t-184 -49.5q-45 1 -74 8t-51.5 26t-31 52.5t-7 85.5t14.5 127l38 217h202l-35 -200q-17 -96 2.5 -130t83.5 -34q59 0 107.5 53.5t65.5 134.5l30 176h202z" />
    <glyph glyph-name="uacute" unicode="&#xfa;" horiz-adv-x="758" 
d="M410 544l14 80l319 186l-18 -102zM753 500l-88 -500h-216l57 206h-10q-41 -123 -106 -172.5t-184 -49.5q-45 1 -74 8t-51.5 26t-31 52.5t-7 85.5t14.5 127l38 217h202l-35 -200q-17 -96 2.5 -130t83.5 -34q59 0 107.5 53.5t65.5 134.5l30 176h202z" />
    <glyph glyph-name="ucircumflex" unicode="&#xfb;" horiz-adv-x="758" 
d="M149 555l14 80l319 186l255 -186l-14 -80l-259 164zM753 500l-88 -500h-216l57 206h-10q-41 -123 -106 -172.5t-184 -49.5q-45 1 -74 8t-51.5 26t-31 52.5t-7 85.5t14.5 127l38 217h202l-35 -200q-17 -96 2.5 -130t83.5 -34q59 0 107.5 53.5t65.5 134.5l30 176h202z" />
    <glyph glyph-name="udieresis" unicode="&#xfc;" horiz-adv-x="758" 
d="M292 538q-44 0 -67.5 23.5t-16.5 61.5t38.5 61.5t75.5 23.5q47 0 69 -23t15 -62t-37 -62t-77 -23zM582 538q-44 0 -67.5 23.5t-16.5 61.5t38.5 61.5t75.5 23.5q47 0 69 -23t15 -62t-37 -62t-77 -23zM753 500l-88 -500h-216l57 206h-10q-41 -123 -106 -172.5t-184 -49.5
q-45 1 -74 8t-51.5 26t-31 52.5t-7 85.5t14.5 127l38 217h202l-35 -200q-17 -96 2.5 -130t83.5 -34q59 0 107.5 53.5t65.5 134.5l30 176h202z" />
    <glyph glyph-name="yacute" unicode="&#xfd;" horiz-adv-x="806" 
d="M459 544l14 80l319 186l-18 -102zM122 -200l149 211l-184 489h232l98 -280l197 280h229l-493 -700h-228z" />
    <glyph glyph-name="thorn" unicode="&#xfe;" horiz-adv-x="716" 
d="M-49 -200l158 900h206l-86 -363h12q33 88 109 133.5t162 45.5q105 0 150.5 -71.5t22.5 -198.5q-22 -126 -92.5 -194t-176.5 -68q-83 0 -138 45.5t-58 132.5h-4v-1l-63 -361h-202zM342 155q125 0 142 93q9 53 -20.5 75t-87.5 22q-127 0 -144 -97q-10 -52 20.5 -72.5
t89.5 -20.5z" />
    <glyph glyph-name="ydieresis" unicode="&#xff;" horiz-adv-x="806" 
d="M341 538q-44 0 -67.5 23.5t-16.5 61.5t38.5 61.5t75.5 23.5q47 0 69 -23t15 -62t-37 -62t-77 -23zM631 538q-44 0 -67.5 23.5t-16.5 61.5t38.5 61.5t75.5 23.5q47 0 69 -23t15 -62t-37 -62t-77 -23zM122 -200l149 211l-184 489h232l98 -280l197 280h229l-493 -700h-228z
" />
    <glyph glyph-name="Amacron" unicode="&#x100;" horiz-adv-x="1105" 
d="M375 846l10 54h532l-10 -54h-532zM-37 0l543 700h217l295 -700h-239l-45 118h-445l-87 -118h-239zM415 290h254l-87 228z" />
    <glyph glyph-name="amacron" unicode="&#x101;" horiz-adv-x="694" 
d="M190 646l10 54h532l-10 -54h-532zM179 -16q-33 0 -60.5 4.5t-55.5 17.5t-41 41t-6 69q15 81 120 123t314 55q4 21 -19.5 34t-64.5 13q-58 0 -129.5 -14.5t-126.5 -36.5l30 172q157 54 297 54q253 0 213 -234l-50 -282h-192l50 179h-12q-42 -107 -99 -151t-168 -44z
M297 120q48 0 90 24.5t49 71.5q-196 -12 -205 -60q-3 -17 16 -26.5t50 -9.5z" />
    <glyph glyph-name="Abreve" unicode="&#x102;" horiz-adv-x="1105" 
d="M624 751q-93 0 -145.5 41t-41.5 108h105q-6 -40 20 -60.5t74 -20.5q103 0 124 81h103q-13 -69 -76 -109t-163 -40zM-37 0l543 700h217l295 -700h-239l-45 118h-445l-87 -118h-239zM415 290h254l-87 228z" />
    <glyph glyph-name="abreve" unicode="&#x103;" horiz-adv-x="694" 
d="M439 551q-93 0 -145.5 41t-41.5 108h105q-6 -40 20 -60.5t74 -20.5q103 0 124 81h103q-13 -69 -76 -109t-163 -40zM179 -16q-33 0 -60.5 4.5t-55.5 17.5t-41 41t-6 69q15 81 120 123t314 55q4 21 -19.5 34t-64.5 13q-58 0 -129.5 -14.5t-126.5 -36.5l30 172
q157 54 297 54q253 0 213 -234l-50 -282h-192l50 179h-12q-42 -107 -99 -151t-168 -44zM297 120q48 0 90 24.5t49 71.5q-196 -12 -205 -60q-3 -17 16 -26.5t50 -9.5z" />
    <glyph glyph-name="Aogonek" unicode="&#x104;" horiz-adv-x="1105" 
d="M932 0q-67 -60 -11 -90q52 -28 151 -13l29 5l-24 -116q-119 -35 -222 -1q-86 29 -98 90q-12 57 52 125h-30l-45 118h-445l-87 -118h-239l543 700h217l295 -700h-86zM415 290h254l-87 228z" />
    <glyph glyph-name="aogonek" unicode="&#x105;" horiz-adv-x="694" 
d="M532 0q-67 -60 -11 -90q52 -28 151 -13q15 2 29 5l-24 -116q-119 -35 -222 -1q-86 29 -98 90q-12 57 52 125h-1l50 179h-12q-42 -107 -99 -151t-168 -44q-33 0 -60.5 4.5t-55.5 17.5t-41 41t-6 69q15 81 120 123t314 55q4 21 -19.5 34t-64.5 13q-58 0 -129.5 -14.5
t-126.5 -36.5l30 172q157 54 297 54q253 0 213 -234l-50 -282h-68zM297 120q48 0 90 24.5t49 71.5q-196 -12 -205 -60q-3 -17 16 -26.5t50 -9.5z" />
    <glyph glyph-name="Cacute" unicode="&#x106;" horiz-adv-x="924" 
d="M516 744l28 80l352 186l-36 -102zM397 -16q-190 0 -288 100.5t-69 265.5t163 265.5t324 100.5t290 -88t75 -233h-204q7 74 -45 111.5t-147 37.5q-101 0 -169 -50t-85 -144t33.5 -144t152.5 -50q95 0 160 37.5t84 111.5h204q-25 -145 -157 -233t-322 -88z" />
    <glyph glyph-name="cacute" unicode="&#x107;" horiz-adv-x="609" 
d="M368 544l28 80l352 186l-36 -102zM284 -16q-135 0 -200 72.5t-44 193.5q21 123 110 194.5t229 71.5q117 0 227 -54l-30 -170q-93 62 -200 62q-58 0 -97 -28.5t-47 -75.5q-8 -46 22 -75t89 -29q109 0 218 61l-29 -169q-71 -29 -124.5 -41.5t-123.5 -12.5z" />
    <glyph glyph-name="Cdotaccent" unicode="&#x10a;" horiz-adv-x="924" 
d="M561 738q-44 0 -63 23.5t-6 61.5t49 61.5t80 23.5q47 0 65 -23t4 -62t-48 -62t-81 -23zM397 -16q-190 0 -288 100.5t-69 265.5t163 265.5t324 100.5t290 -88t75 -233h-204q7 74 -45 111.5t-147 37.5q-101 0 -169 -50t-85 -144t33.5 -144t152.5 -50q95 0 160 37.5
t84 111.5h204q-25 -145 -157 -233t-322 -88z" />
    <glyph glyph-name="cdotaccent" unicode="&#x10b;" horiz-adv-x="609" 
d="M390 538q-44 0 -63 23.5t-6 61.5t49 61.5t80 23.5q47 0 65 -23t4 -62t-48 -62t-81 -23zM284 -16q-135 0 -200 72.5t-44 193.5q21 123 110 194.5t229 71.5q117 0 227 -54l-30 -170q-93 62 -200 62q-58 0 -97 -28.5t-47 -75.5q-8 -46 22 -75t89 -29q109 0 218 61l-29 -169
q-71 -29 -124.5 -41.5t-123.5 -12.5z" />
    <glyph glyph-name="Ccaron" unicode="&#x10c;" horiz-adv-x="924" 
d="M534 755l-255 186l14 80l259 -164l315 164l-14 -80zM397 -16q-190 0 -288 100.5t-69 265.5t163 265.5t324 100.5t290 -88t75 -233h-204q7 74 -45 111.5t-147 37.5q-101 0 -169 -50t-85 -144t33.5 -144t152.5 -50q95 0 160 37.5t84 111.5h204q-25 -145 -157 -233t-322 -88
z" />
    <glyph glyph-name="ccaron" unicode="&#x10d;" horiz-adv-x="609" 
d="M386 555l-255 186l14 80l259 -164l315 164l-14 -80zM284 -16q-135 0 -200 72.5t-44 193.5q21 123 110 194.5t229 71.5q117 0 227 -54l-30 -170q-93 62 -200 62q-58 0 -97 -28.5t-47 -75.5q-8 -46 22 -75t89 -29q109 0 218 61l-29 -169q-71 -29 -124.5 -41.5t-123.5 -12.5
z" />
    <glyph glyph-name="Dcaron" unicode="&#x10e;" horiz-adv-x="865" 
d="M520 755l-255 186l14 80l259 -164l315 164l-14 -80zM18 0l124 700h337q192 0 284 -90t62 -260q-30 -171 -154 -260.5t-316 -89.5h-337zM251 172h135q105 0 163 43.5t74 134.5q16 92 -27.5 135t-147.5 43h-135z" />
    <glyph glyph-name="dcaron" unicode="&#x10f;" horiz-adv-x="1040" 
d="M228 -16q-113 0 -168.5 74.5t-33.5 195.5q20 118 102 190t196 72q90 0 147 -49t59 -129h4l1 1l63 361h202l-124 -700h-206l50 163h-11q-30 -80 -107.5 -129.5t-173.5 -49.5zM807 429l111 270h170l-161 -270h-120zM338 146q59 0 105 26.5t56 79.5q9 52 -28 77t-96 25
t-104 -25t-54 -77q-10 -53 26.5 -79.5t94.5 -26.5z" />
    <glyph glyph-name="Dcroat" unicode="&#x110;" horiz-adv-x="865" 
d="M479 700q192 0 284 -90t62 -260q-30 -171 -154 -260.5t-316 -89.5h-337l47 264h-75l61 173h44l47 263h337zM623 350q16 92 -27.5 135t-147.5 43h-135l-16 -91h254l-61 -173h-223l-16 -92h135q105 0 163 43.5t74 134.5z" />
    <glyph glyph-name="dcroat" unicode="&#x111;" horiz-adv-x="796" 
d="M845 639l-18 -103h-56l-95 -536h-206l50 163h-11q-30 -80 -107.5 -129.5t-173.5 -49.5q-113 0 -168.5 74.5t-33.5 195.5q20 118 102 190t196 72q90 0 147 -49t59 -129h4l1 1l34 197h-200l18 103h200l11 61h202l-11 -61h56zM499 252q9 52 -28 77t-96 25t-104 -25t-54 -77
q-10 -53 26.5 -79.5t94.5 -26.5q59 0 105 26.5t56 79.5z" />
    <glyph glyph-name="Emacron" unicode="&#x112;" horiz-adv-x="855" 
d="M250 846l10 54h532l-10 -54h-532zM18 0l124 700h705l-31 -172h-503l-16 -91h494l-28 -163h-494l-18 -102h503l-31 -172h-705z" />
    <glyph glyph-name="emacron" unicode="&#x113;" horiz-adv-x="682" 
d="M145 646l10 54h532l-10 -54h-532zM294 -16q-136 0 -205.5 73t-48.5 193t116.5 193t231.5 73q134 0 206 -62.5t55 -164.5l-15 -82h-402q15 -68 139 -68q29 0 56.5 2.5t45.5 6t41 10.5t33.5 11t33 13t29.5 12l-28 -161q-74 -26 -133 -37.5t-155 -11.5zM239 277l213 5
q4 36 -22.5 54t-70.5 18q-40 0 -72.5 -19.5t-47.5 -57.5z" />
    <glyph glyph-name="Edotaccent" unicode="&#x116;" horiz-adv-x="855" 
d="M504 738q-44 0 -63 23.5t-6 61.5t49 61.5t80 23.5q47 0 65 -23t4 -62t-48 -62t-81 -23zM18 0l124 700h705l-31 -172h-503l-16 -91h494l-28 -163h-494l-18 -102h503l-31 -172h-705z" />
    <glyph glyph-name="edotaccent" unicode="&#x117;" horiz-adv-x="682" 
d="M399 538q-44 0 -63 23.5t-6 61.5t49 61.5t80 23.5q47 0 65 -23t4 -62t-48 -62t-81 -23zM294 -16q-136 0 -205.5 73t-48.5 193t116.5 193t231.5 73q134 0 206 -62.5t55 -164.5l-15 -82h-402q15 -68 139 -68q29 0 56.5 2.5t45.5 6t41 10.5t33.5 11t33 13t29.5 12l-28 -161
q-74 -26 -133 -37.5t-155 -11.5zM239 277l213 5q4 36 -22.5 54t-70.5 18q-40 0 -72.5 -19.5t-47.5 -57.5z" />
    <glyph glyph-name="Eogonek" unicode="&#x118;" horiz-adv-x="855" 
d="M816 528h-503l-16 -91h494l-28 -163h-494l-18 -102h503l-31 -172h-293q-67 -60 -11 -90q52 -28 151 -13q15 2 29 5l-24 -116q-119 -35 -222 -1q-86 29 -98 90q-12 57 52 125h-289l124 700h705z" />
    <glyph glyph-name="eogonek" unicode="&#x119;" horiz-adv-x="682" 
d="M388 516q134 0 206 -62.5t55 -164.5l-15 -82h-402q15 -68 139 -68q29 0 56.5 2.5t45.5 6t41 10.5t33.5 11t33 13t29.5 12l-28 -161q-112 -39 -202 -46q-51 -54 9 -80q58 -25 154 -9q10 2 19 4l-24 -116q-118 -35 -221 -1q-87 29 -99 90q-11 51 39 111q-119 10 -177.5 81
t-39.5 183q21 120 116.5 193t231.5 73zM452 282q4 36 -22.5 54t-70.5 18q-40 0 -72.5 -19.5t-47.5 -57.5z" />
    <glyph glyph-name="Ecaron" unicode="&#x11a;" horiz-adv-x="855" 
d="M500 755l-255 186l14 80l259 -164l315 164l-14 -80zM18 0l124 700h705l-31 -172h-503l-16 -91h494l-28 -163h-494l-18 -102h503l-31 -172h-705z" />
    <glyph glyph-name="ecaron" unicode="&#x11b;" horiz-adv-x="682" 
d="M395 555l-255 186l14 80l259 -164l315 164l-14 -80zM294 -16q-136 0 -205.5 73t-48.5 193t116.5 193t231.5 73q134 0 206 -62.5t55 -164.5l-15 -82h-402q15 -68 139 -68q29 0 56.5 2.5t45.5 6t41 10.5t33.5 11t33 13t29.5 12l-28 -161q-74 -26 -133 -37.5t-155 -11.5z
M239 277l213 5q4 36 -22.5 54t-70.5 18q-40 0 -72.5 -19.5t-47.5 -57.5z" />
    <glyph glyph-name="Gbreve" unicode="&#x11e;" horiz-adv-x="954" 
d="M552 751q-92 0 -137.5 41t-23.5 108h105q-12 -40 10 -60.5t70 -20.5q104 0 138 81h103q-24 -69 -94 -109t-171 -40zM407 -16q-190 0 -288 100.5t-69 265.5t163 265.5t324 100.5q182 0 288 -75.5t85 -196.5h-211q9 52 -42.5 76t-150.5 24q-101 0 -169 -50t-85 -144
t33.5 -144t152.5 -50q175 0 228 97h-316l25 140h537l-70 -393h-116l12 149q-52 -83 -138 -124t-193 -41z" />
    <glyph glyph-name="gbreve" unicode="&#x11f;" horiz-adv-x="734" 
d="M452 551q-92 0 -137.5 41t-23.5 108h105q-12 -40 10 -60.5t70 -20.5q104 0 138 81h103q-24 -69 -94 -109t-171 -40zM271 -200q-161 0 -275 29l30 168q25 -14 88 -24.5t138 -10.5q107 0 151.5 36t69.5 143l1 5q-33 -69 -105 -105.5t-165 -36.5q-115 0 -171.5 65.5
t-35.5 184.5q21 118 103 190t196 72q90 0 147 -49t59 -129h17l12 162h203l-77 -440q-23 -132 -125.5 -196t-260.5 -64zM310 146q59 0 105 26.5t56 79.5q9 52 -28 77t-96 25t-104 -25t-54 -77q-10 -53 26.5 -79.5t94.5 -26.5z" />
    <glyph glyph-name="Gdotaccent" unicode="&#x120;" horiz-adv-x="954" 
d="M548 738q-44 0 -63 23.5t-6 61.5t49 61.5t80 23.5q47 0 65 -23t4 -62t-48 -62t-81 -23zM407 -16q-190 0 -288 100.5t-69 265.5t163 265.5t324 100.5q182 0 288 -75.5t85 -196.5h-211q9 52 -42.5 76t-150.5 24q-101 0 -169 -50t-85 -144t33.5 -144t152.5 -50q175 0 228 97
h-316l25 140h537l-70 -393h-116l12 149q-52 -83 -138 -124t-193 -41z" />
    <glyph glyph-name="gdotaccent" unicode="&#x121;" horiz-adv-x="734" 
d="M448 538q-44 0 -63 23.5t-6 61.5t49 61.5t80 23.5q47 0 65 -23t4 -62t-48 -62t-81 -23zM271 -200q-161 0 -275 29l30 168q25 -14 88 -24.5t138 -10.5q107 0 151.5 36t69.5 143l1 5q-33 -69 -105 -105.5t-165 -36.5q-115 0 -171.5 65.5t-35.5 184.5q21 118 103 190t196 72
q90 0 147 -49t59 -129h17l12 162h203l-77 -440q-23 -132 -125.5 -196t-260.5 -64zM310 146q59 0 105 26.5t56 79.5q9 52 -28 77t-96 25t-104 -25t-54 -77q-10 -53 26.5 -79.5t94.5 -26.5z" />
    <glyph glyph-name="Gcommaaccent" unicode="&#x122;" horiz-adv-x="954" 
d="M407 -16q-190 0 -288 100.5t-69 265.5t163 265.5t324 100.5q182 0 288 -75.5t85 -196.5h-211q9 52 -42.5 76t-150.5 24q-101 0 -169 -50t-85 -144t33.5 -144t152.5 -50q175 0 228 97h-316l25 140h537l-70 -393h-116l12 149q-52 -83 -138 -124t-193 -41zM314 -350l111 270
h170l-161 -270h-120z" />
    <glyph glyph-name="gcommaaccent" unicode="&#x123;" horiz-adv-x="804" 
d="M271 -200q-161 0 -275 29l30 168q25 -14 88 -24.5t138 -10.5q107 0 151.5 36t69.5 143l1 5q-33 -69 -105 -105.5t-165 -36.5q-115 0 -171.5 65.5t-35.5 184.5q21 118 103 190t196 72q90 0 147 -49t59 -129h17l12 162h203l-77 -440q-23 -132 -125.5 -196t-260.5 -64z
M310 146q59 0 105 26.5t56 79.5q9 52 -28 77t-96 25t-104 -25t-54 -77q-10 -53 26.5 -79.5t94.5 -26.5zM214 -532l111 270h170l-161 -270h-120z" />
    <glyph glyph-name="Hbar" unicode="&#x126;" horiz-adv-x="975" 
d="M1003 642l-24 -133h-56l-90 -509h-202l49 279h-411l-49 -279h-202l90 509h-62l24 133h62l10 58h202l-10 -58h411l10 58h202l-10 -58h56zM711 452l10 57h-411l-10 -57h411z" />
    <glyph glyph-name="hbar" unicode="&#x127;" horiz-adv-x="748" 
d="M536 516q45 -1 74 -8t51 -26t30.5 -52.5t7.5 -85.5t-14 -127l-39 -217h-202l36 200q17 95 -3 129.5t-84 34.5q-60 0 -109.5 -56t-63.5 -140v1l-30 -169h-202l95 536h-77l18 103h77l11 61h216l-14 -61h168l-18 -103h-173l-55 -242h10q41 123 106 172.5t184 49.5z" />
    <glyph glyph-name="Imacron" unicode="&#x12a;" horiz-adv-x="362" 
d="M3 846l10 54h532l-10 -54h-532zM18 0l124 700h202l-124 -700h-202z" />
    <glyph glyph-name="imacron" unicode="&#x12b;" horiz-adv-x="228" 
d="M-55 644l19 54h532l-19 -54h-532zM-31 0l88 500h202l-88 -500h-202z" />
    <glyph glyph-name="Iogonek" unicode="&#x12e;" horiz-adv-x="362" 
d="M134 0q-67 -60 -11 -90q52 -28 151 -13q15 2 29 5l-24 -116q-119 -34 -222 0q-86 29 -98 89q-12 62 61 134l122 691h202l-124 -700h-86z" />
    <glyph glyph-name="iogonek" unicode="&#x12f;" horiz-adv-x="302" 
d="M216 747q59 0 84.5 -24t16.5 -79q-10 -55 -43 -79t-94 -24q-59 0 -84 24t-15 79q9 55 42.5 79t92.5 24zM105 0q-77 -60 -27 -90q46 -27 146 -14q17 3 33 6l-45 -116q-125 -35 -222 -1q-79 28 -83 88q-3 60 79 131l87 496h202l-88 -500h-82z" />
    <glyph glyph-name="Idotaccent" unicode="&#x130;" horiz-adv-x="362" 
d="M250 738q-44 0 -67.5 23.5t-16.5 61.5t38.5 61.5t75.5 23.5q47 0 69 -23t15 -62t-37 -62t-77 -23zM18 0l124 700h202l-124 -700h-202z" />
    <glyph glyph-name="dotlessi" unicode="&#x131;" horiz-adv-x="228" 
d="M-31 0l88 500h202l-88 -500h-202z" />
    <glyph glyph-name="Kcommaaccent" unicode="&#x136;" horiz-adv-x="972" 
d="M18 0l124 700h202l-56 -316l384 316h300l-321 -246l229 -454h-281l-141 307l-212 -162l-26 -145h-202zM180 -350l111 270h170l-161 -270h-120z" />
    <glyph glyph-name="kcommaaccent" unicode="&#x137;" horiz-adv-x="722" 
d="M-12 0l124 700h202l-63 -354l183 154h278l-220 -169l148 -331h-251l-76 193l-103 -79l-20 -114h-202zM81 -350l111 270h170l-161 -270h-120z" />
    <glyph glyph-name="Lacute" unicode="&#x139;" horiz-adv-x="755" 
d="M244 744l28 80l352 186l-36 -102zM18 0l124 700h202l-93 -528h443l-31 -172h-645z" />
    <glyph glyph-name="lacute" unicode="&#x13a;" horiz-adv-x="302" 
d="M198 744l14 80l319 186l-18 -102zM-12 0l124 700h202l-124 -700h-202z" />
    <glyph glyph-name="Lcommaaccent" unicode="&#x13b;" horiz-adv-x="755" 
d="M18 0l124 700h202l-93 -528h443l-31 -172h-645zM136 -350l111 270h170l-161 -270h-120z" />
    <glyph glyph-name="lcommaaccent" unicode="&#x13c;" horiz-adv-x="302" 
d="M-12 0l124 700h202l-124 -700h-202zM-113 -350l111 270h170l-161 -270h-120z" />
    <glyph glyph-name="Lcaron" unicode="&#x13d;" horiz-adv-x="755" 
d="M18 0l124 700h202l-93 -528h443l-31 -172h-645zM375 429l111 270h170l-161 -270h-120z" />
    <glyph glyph-name="lcaron" unicode="&#x13e;" horiz-adv-x="512" 
d="M-12 0l124 700h202l-124 -700h-202zM304 429l111 270h170l-161 -270h-120z" />
    <glyph glyph-name="Lslash" unicode="&#x141;" horiz-adv-x="755" 
d="M251 172h443l-31 -172h-645l49 277l-67 -39l-65 114l162 93l45 255h202l-22 -126l78 45l66 -113l-174 -100z" />
    <glyph glyph-name="lslash" unicode="&#x142;" horiz-adv-x="591" 
d="M601 506l-170 -98l-72 -408h-202l49 279l-71 -41l-65 114l166 95l45 253h202l-22 -123l74 42z" />
    <glyph glyph-name="Nacute" unicode="&#x143;" horiz-adv-x="978" 
d="M543 744l28 80l352 186l-36 -102zM18 0l124 700h159l389 -387l68 387h202l-124 -700h-160l-388 386l-68 -386h-202z" />
    <glyph glyph-name="nacute" unicode="&#x144;" horiz-adv-x="758" 
d="M426 544l28 80l352 186l-36 -102zM5 0l88 500h216l-57 -206h10q41 123 106 172.5t184 49.5q45 -1 74 -8t51.5 -26t31 -52.5t7 -85.5t-14.5 -127l-38 -217h-202l35 200q17 96 -2.5 130t-83.5 34q-59 0 -107.5 -53.5t-65.5 -134.5l-30 -176h-202z" />
    <glyph glyph-name="Ncommaaccent" unicode="&#x145;" horiz-adv-x="978" 
d="M18 0l124 700h159l389 -387l68 387h202l-124 -700h-160l-388 386l-68 -386h-202zM236 -350l111 270h170l-161 -270h-120z" />
    <glyph glyph-name="ncommaaccent" unicode="&#x146;" horiz-adv-x="758" 
d="M5 0l88 500h216l-57 -206h10q41 123 106 172.5t184 49.5q45 -1 74 -8t51.5 -26t31 -52.5t7 -85.5t-14.5 -127l-38 -217h-202l35 200q17 96 -2.5 130t-83.5 34q-59 0 -107.5 -53.5t-65.5 -134.5l-30 -176h-202zM131 -350l111 270h170l-161 -270h-120z" />
    <glyph glyph-name="Ncaron" unicode="&#x147;" horiz-adv-x="978" 
d="M561 755l-255 186l14 80l259 -164l315 164l-14 -80zM18 0l124 700h159l389 -387l68 387h202l-124 -700h-160l-388 386l-68 -386h-202z" />
    <glyph glyph-name="ncaron" unicode="&#x148;" horiz-adv-x="758" 
d="M444 555l-255 186l14 80l259 -164l315 164l-14 -80zM5 0l88 500h216l-57 -206h10q41 123 106 172.5t184 49.5q45 -1 74 -8t51.5 -26t31 -52.5t7 -85.5t-14.5 -127l-38 -217h-202l35 200q17 96 -2.5 130t-83.5 34q-59 0 -107.5 -53.5t-65.5 -134.5l-30 -176h-202z" />
    <glyph glyph-name="Eng" unicode="&#x14a;" horiz-adv-x="978" 
d="M758 700h202l-124 -700q-14 -82 -58.5 -124t-136.5 -59t-268 -17l16 89q287 0 302 69q4 19 -15 42l-388 386l-68 -386h-202l124 700h159l389 -387z" />
    <glyph glyph-name="eng" unicode="&#x14b;" horiz-adv-x="758" 
d="M552 516q45 -1 74 -8t51.5 -26t31 -52.5t7 -85.5t-14.5 -127l-37 -212q-8 -48 -18 -76.5t-32.5 -54t-52.5 -38t-86.5 -22t-126.5 -12t-179 -2.5l15 89q148 0 205 14t66 65l6 32l35 200q17 96 -2.5 130t-83.5 34q-59 0 -107.5 -53.5t-65.5 -134.5l-30 -176h-202l88 500
h216l-57 -206h10q41 123 106 172.5t184 49.5z" />
    <glyph glyph-name="Omacron" unicode="&#x14c;" horiz-adv-x="965" 
d="M305 846l10 54h532l-10 -54h-532zM417 -16q-203 0 -304.5 100t-72.5 266t166.5 266t340.5 100q204 0 305.5 -100t72.5 -266t-166.5 -266t-341.5 -100zM448 156q116 0 187 49.5t88 144.5t-37 144.5t-170 49.5q-115 0 -186 -49.5t-88 -144.5t37 -144.5t169 -49.5z" />
    <glyph glyph-name="omacron" unicode="&#x14d;" horiz-adv-x="722" 
d="M175 646l10 54h532l-10 -54h-532zM314 -16q-145 0 -220 73t-54 193t122 193t246 73t220 -73t54 -193t-122 -193t-246 -73zM343 146q58 0 98.5 28.5t48.5 75.5q8 46 -22.5 75t-88.5 29t-98.5 -28.5t-48.5 -75.5q-8 -46 22.5 -75t88.5 -29z" />
    <glyph glyph-name="Ohungarumlaut" unicode="&#x150;" horiz-adv-x="965" 
d="M417 744l14 80l319 186l-18 -102zM667 744l14 80l319 186l-18 -102zM417 -16q-203 0 -304.5 100t-72.5 266t166.5 266t340.5 100q204 0 305.5 -100t72.5 -266t-166.5 -266t-341.5 -100zM448 156q116 0 187 49.5t88 144.5t-37 144.5t-170 49.5q-115 0 -186 -49.5
t-88 -144.5t37 -144.5t169 -49.5z" />
    <glyph glyph-name="ohungarumlaut" unicode="&#x151;" horiz-adv-x="722" 
d="M278 544l14 80l319 186l-18 -102zM528 544l14 80l319 186l-18 -102zM314 -16q-145 0 -220 73t-54 193t122 193t246 73t220 -73t54 -193t-122 -193t-246 -73zM343 146q58 0 98.5 28.5t48.5 75.5q8 46 -22.5 75t-88.5 29t-98.5 -28.5t-48.5 -75.5q-8 -46 22.5 -75t88.5 -29
z" />
    <glyph glyph-name="OE" unicode="&#x152;" horiz-adv-x="1515" 
d="M1476 528h-503l-16 -91h494l-28 -163h-494l-18 -102h503l-31 -172h-705l7 40q-118 -56 -268 -56q-203 0 -304.5 100t-72.5 266t166.5 266t340.5 100q150 0 248 -56l7 40h705zM448 156q116 0 187 49.5t88 144.5t-37 144.5t-170 49.5q-115 0 -186 -49.5t-88 -144.5
t37 -144.5t169 -49.5z" />
    <glyph glyph-name="oe" unicode="&#x153;" horiz-adv-x="1134" 
d="M840 516q134 0 206 -62.5t55 -164.5l-15 -82h-402q15 -68 139 -68q29 0 56.5 2.5t45.5 6t41 10.5t33.5 11t33 13t29.5 12l-28 -161q-74 -26 -133 -37.5t-155 -11.5q-127 0 -197 65q-100 -65 -235 -65q-145 0 -220 73t-54 193t122 193t246 73q135 0 211 -65q95 65 221 65z
M343 146q58 0 98.5 28.5t48.5 75.5q8 46 -22.5 75t-88.5 29t-98.5 -28.5t-48.5 -75.5q-8 -46 22.5 -75t88.5 -29zM904 282q4 36 -22.5 54t-70.5 18q-40 0 -72.5 -19.5t-47.5 -57.5z" />
    <glyph glyph-name="Racute" unicode="&#x154;" horiz-adv-x="941" 
d="M506 744l28 80l352 186l-36 -102zM18 0l124 700h565q106 0 156.5 -51t35.5 -134t-84 -129.5t-172 -46.5h-72q63 -4 106 -24t75.5 -66t54.5 -99.5t52 -149.5h-266q-67 175 -90 214q-32 54 -80 64q-18 4 -44 4h-110l-49 -282h-202zM296 435h329q57 0 67 51q10 52 -49 52
h-329z" />
    <glyph glyph-name="racute" unicode="&#x155;" horiz-adv-x="541" 
d="M326 544l28 80l352 186l-36 -102zM5 0l88 500h216l-57 -206h10q41 121 110 171.5t189 50.5l-30 -172q-60 0 -96.5 -2.5t-73.5 -12t-58.5 -27.5t-38.5 -48.5t-26 -76.5l-31 -177h-202z" />
    <glyph glyph-name="Rcommaaccent" unicode="&#x156;" horiz-adv-x="941" 
d="M18 0l124 700h565q106 0 156.5 -51t35.5 -134t-84 -129.5t-172 -46.5h-72q63 -4 106 -24t75.5 -66t54.5 -99.5t52 -149.5h-266q-67 175 -90 214q-32 54 -80 64q-18 4 -44 4h-110l-49 -282h-202zM296 435h329q57 0 67 51q10 52 -49 52h-329zM230 -350l111 270h170
l-161 -270h-120z" />
    <glyph glyph-name="rcommaaccent" unicode="&#x157;" horiz-adv-x="541" 
d="M5 0l88 500h216l-57 -206h10q41 121 110 171.5t189 50.5l-30 -172q-60 0 -96.5 -2.5t-73.5 -12t-58.5 -27.5t-38.5 -48.5t-26 -76.5l-31 -177h-202zM-96 -350l111 270h170l-161 -270h-120z" />
    <glyph glyph-name="Rcaron" unicode="&#x158;" horiz-adv-x="941" 
d="M524 755l-255 186l14 80l259 -164l315 164l-14 -80zM18 0l124 700h565q106 0 156.5 -51t35.5 -134t-84 -129.5t-172 -46.5h-72q63 -4 106 -24t75.5 -66t54.5 -99.5t52 -149.5h-266q-67 175 -90 214q-32 54 -80 64q-18 4 -44 4h-110l-49 -282h-202zM296 435h329
q57 0 67 51q10 52 -49 52h-329z" />
    <glyph glyph-name="rcaron" unicode="&#x159;" horiz-adv-x="541" 
d="M344 555l-255 186l14 80l259 -164l315 164l-14 -80zM5 0l88 500h216l-57 -206h10q41 121 110 171.5t189 50.5l-30 -172q-60 0 -96.5 -2.5t-73.5 -12t-58.5 -27.5t-38.5 -48.5t-26 -76.5l-31 -177h-202z" />
    <glyph glyph-name="Sacute" unicode="&#x15a;" horiz-adv-x="886" 
d="M492 744l28 80l352 186l-36 -102zM368 -16q-179 3 -275 70.5t-74 176.5h216q-2 -9 1 -18t13 -19t27.5 -18t48.5 -13.5t71 -6.5q212 -4 223 60q4 20 -27 30t-82.5 13.5t-113.5 7t-123 14.5t-109 31.5t-72.5 63.5t-12.5 105q21 109 139 173.5t291 61.5q167 -3 258.5 -70.5
t73.5 -176.5h-216v17.5t-9.5 19.5t-24 18t-43.5 13.5t-67 6.5q-187 4 -198 -60q-4 -22 26.5 -33.5t81.5 -17t113.5 -10t123 -16t108.5 -31t73 -59.5t14 -98q-21 -109 -146 -173.5t-309 -61.5z" />
    <glyph glyph-name="sacute" unicode="&#x15b;" horiz-adv-x="664" 
d="M368 544l28 80l352 186l-36 -102zM283 -16q-133 0 -261 39l30 169q105 -43 230 -43q132 0 136 24q2 13 -18.5 18.5t-54.5 7t-76 2.5t-82.5 7.5t-73 19.5t-49 42t-8.5 72q15 87 101.5 130.5t223.5 43.5q107 0 245 -28l-30 -169q-118 26 -215 26q-132 0 -136 -21
q-2 -10 26.5 -13.5t72.5 -2t93.5 -4.5t91 -18t64.5 -45.5t14 -84.5q-29 -172 -324 -172z" />
    <glyph glyph-name="Scedilla" unicode="&#x15e;" horiz-adv-x="886" 
d="M841 469h-216v17.5t-9.5 19.5t-24 18t-43.5 13.5t-67 6.5q-187 4 -198 -60q-4 -22 26.5 -33.5t81.5 -17t113.5 -10t123 -16t108.5 -31t73 -59.5t14 -98q-18 -94 -115.5 -156t-246.5 -76l-50 -57q135 -9 203 -36.5t53 -70.5q-17 -47 -146 -78t-319 -32l19 55q232 1 252 55
q18 50 -184 57l-28 1l19 53l48 52q-161 10 -245 76t-64 169h216q-2 -9 1 -18t13 -19t27.5 -18t48.5 -13.5t71 -6.5q212 -4 223 60q4 20 -27 30t-82.5 13.5t-113.5 7t-123 14.5t-109 31.5t-72.5 63.5t-12.5 105q21 109 139 173.5t291 61.5q167 -3 258.5 -70.5t73.5 -176.5z
" />
    <glyph glyph-name="scedilla" unicode="&#x15f;" horiz-adv-x="664" 
d="M245 324q-2 -10 26.5 -13.5t72.5 -2t93.5 -4.5t91 -18t64.5 -45.5t14 -84.5q-25 -148 -248 -169l-50 -57q135 -9 203 -36.5t53 -70.5q-17 -47 -146 -78t-319 -32l19 55q232 1 252 55q18 50 -184 57l-28 1l19 53l48 52q-105 8 -204 37l30 169q105 -43 230 -43
q132 0 136 24q2 13 -18.5 18.5t-54.5 7t-76 2.5t-82.5 7.5t-73 19.5t-49 42t-8.5 72q15 87 101.5 130.5t223.5 43.5q107 0 245 -28l-30 -169q-118 26 -215 26q-132 0 -136 -21z" />
    <glyph glyph-name="Scaron" unicode="&#x160;" horiz-adv-x="886" 
d="M510 755l-255 186l14 80l259 -164l315 164l-14 -80zM368 -16q-179 3 -275 70.5t-74 176.5h216q-2 -9 1 -18t13 -19t27.5 -18t48.5 -13.5t71 -6.5q212 -4 223 60q4 20 -27 30t-82.5 13.5t-113.5 7t-123 14.5t-109 31.5t-72.5 63.5t-12.5 105q21 109 139 173.5t291 61.5
q167 -3 258.5 -70.5t73.5 -176.5h-216v17.5t-9.5 19.5t-24 18t-43.5 13.5t-67 6.5q-187 4 -198 -60q-4 -22 26.5 -33.5t81.5 -17t113.5 -10t123 -16t108.5 -31t73 -59.5t14 -98q-21 -109 -146 -173.5t-309 -61.5z" />
    <glyph glyph-name="scaron" unicode="&#x161;" horiz-adv-x="664" 
d="M386 555l-255 186l14 80l259 -164l315 164l-14 -80zM283 -16q-133 0 -261 39l30 169q105 -43 230 -43q132 0 136 24q2 13 -18.5 18.5t-54.5 7t-76 2.5t-82.5 7.5t-73 19.5t-49 42t-8.5 72q15 87 101.5 130.5t223.5 43.5q107 0 245 -28l-30 -169q-118 26 -215 26
q-132 0 -136 -21q-2 -10 26.5 -13.5t72.5 -2t93.5 -4.5t91 -18t64.5 -45.5t14 -84.5q-29 -172 -324 -172z" />
    <glyph glyph-name="uni0162" unicode="&#x162;" horiz-adv-x="873" 
d="M475 0h-74l-61 -70q135 -9 203 -36.5t53 -70.5q-17 -47 -146 -78t-319 -32l19 55q232 1 252 55q18 50 -184 57l-28 1l19 53l65 70l93 524h-311l31 172h823l-31 -172h-310z" />
    <glyph glyph-name="uni0163" unicode="&#x163;" horiz-adv-x="418" 
d="M164 -70q135 -9 203 -36.5t53 -70.5q-17 -47 -146 -78t-319 -32l19 55q232 1 252 55q18 50 -184 57l-28 1l19 53l63 68q-36 16 -42 59t9 119l30 172h-56l26 148h76l22 120l185 20l-25 -140h100l-26 -148h-100l-25 -142q-9 -36 -6 -55t21.5 -24t69.5 -1l-21 -120
q-60 -16 -117 -19z" />
    <glyph glyph-name="Tcaron" unicode="&#x164;" horiz-adv-x="873" 
d="M509 755l-255 186l14 80l259 -164l315 164l-14 -80zM273 0l94 528h-311l31 172h823l-31 -172h-310l-94 -528h-202z" />
    <glyph glyph-name="tcaron" unicode="&#x165;" horiz-adv-x="659" 
d="M432 429l111 270h170l-161 -270h-120zM180 -10q-94 0 -115.5 39t-1.5 151l30 172h-56l26 148h76l22 120l185 20l-25 -140h100l-26 -148h-100l-25 -142q-9 -36 -6 -55t21.5 -24t69.5 -1l-21 -120q-77 -20 -154 -20z" />
    <glyph glyph-name="Tbar" unicode="&#x166;" horiz-adv-x="873" 
d="M879 528h-310l-20 -111h153l-30 -173h-154l-43 -244h-202l43 244h-144l30 173h145l20 111h-311l31 172h823z" />
    <glyph glyph-name="tbar" unicode="&#x167;" horiz-adv-x="418" 
d="M295 352l-6 -35h113l-26 -143h-112q-3 -32 13.5 -40t77.5 -4l-21 -120q-77 -20 -154 -20q-93 0 -115 38t-3 146h-45l26 143h44l6 35h-56l26 148h76l22 120l185 20l-25 -140h100l-26 -148h-100z" />
    <glyph glyph-name="Umacron" unicode="&#x16a;" horiz-adv-x="924" 
d="M285 846l10 54h532l-10 -54h-532zM399 -16q-59 0 -106.5 7.5t-89 25t-68 46t-44.5 70.5t-18 99.5t11 131.5l59 336h202l-64 -366q-15 -83 25 -126.5t125 -43.5t140 43.5t70 126.5l64 366h202l-59 -336q-19 -109 -59.5 -184.5t-100 -117.5t-129.5 -60t-160 -18z" />
    <glyph glyph-name="umacron" unicode="&#x16b;" horiz-adv-x="758" 
d="M186 646l10 54h532l-10 -54h-532zM753 500l-88 -500h-216l57 206h-10q-41 -123 -106 -172.5t-184 -49.5q-45 1 -74 8t-51.5 26t-31 52.5t-7 85.5t14.5 127l38 217h202l-35 -200q-17 -96 2.5 -130t83.5 -34q59 0 107.5 53.5t65.5 134.5l30 176h202z" />
    <glyph glyph-name="Uring" unicode="&#x16e;" horiz-adv-x="924" 
d="M539 738q-105 0 -169 29t-48 74t100 74t189 29q113 0 173 -28.5t44 -74.5t-96 -74.5t-193 -28.5zM557 789q41 0 71 13.5t38 38.5q8 26 -12 39t-61 13q-89 0 -107 -52q-9 -25 11 -38.5t60 -13.5zM399 -16q-59 0 -106.5 7.5t-89 25t-68 46t-44.5 70.5t-18 99.5t11 131.5
l59 336h202l-64 -366q-15 -83 25 -126.5t125 -43.5t140 43.5t70 126.5l64 366h202l-59 -336q-19 -109 -59.5 -184.5t-100 -117.5t-129.5 -60t-160 -18z" />
    <glyph glyph-name="uring" unicode="&#x16f;" horiz-adv-x="758" 
d="M440 538q-105 0 -169 29t-48 74t100 74t189 29q113 0 173 -28.5t44 -74.5t-96 -74.5t-193 -28.5zM458 589q41 0 71 13.5t38 38.5q8 26 -12 39t-61 13q-89 0 -107 -52q-9 -25 11 -38.5t60 -13.5zM753 500l-88 -500h-216l57 206h-10q-41 -123 -106 -172.5t-184 -49.5
q-45 1 -74 8t-51.5 26t-31 52.5t-7 85.5t14.5 127l38 217h202l-35 -200q-17 -96 2.5 -130t83.5 -34q59 0 107.5 53.5t65.5 134.5l30 176h202z" />
    <glyph glyph-name="Uhungarumlaut" unicode="&#x170;" horiz-adv-x="924" 
d="M397 744l14 80l319 186l-18 -102zM647 744l14 80l319 186l-18 -102zM399 -16q-59 0 -106.5 7.5t-89 25t-68 46t-44.5 70.5t-18 99.5t11 131.5l59 336h202l-64 -366q-15 -83 25 -126.5t125 -43.5t140 43.5t70 126.5l64 366h202l-59 -336q-19 -109 -59.5 -184.5
t-100 -117.5t-129.5 -60t-160 -18z" />
    <glyph glyph-name="uhungarumlaut" unicode="&#x171;" horiz-adv-x="758" 
d="M298 544l14 80l319 186l-18 -102zM548 544l14 80l319 186l-18 -102zM753 500l-88 -500h-216l57 206h-10q-41 -123 -106 -172.5t-184 -49.5q-45 1 -74 8t-51.5 26t-31 52.5t-7 85.5t14.5 127l38 217h202l-35 -200q-17 -96 2.5 -130t83.5 -34q59 0 107.5 53.5t65.5 134.5
l30 176h202z" />
    <glyph glyph-name="Uogonek" unicode="&#x172;" horiz-adv-x="924" 
d="M705 700h202l-59 -336q-34 -192 -130.5 -278.5t-253.5 -99.5q-50 -54 10 -79q58 -26 155 -9q8 2 17 4l-24 -116q-119 -35 -222 -1q-86 29 -98 90q-10 51 40 111q-157 11 -224.5 97.5t-33.5 280.5l59 336h202l-64 -366q-15 -83 25 -126.5t125 -43.5t140 43.5t70 126.5z
" />
    <glyph glyph-name="uogonek" unicode="&#x173;" horiz-adv-x="758" 
d="M567 0q-67 -60 -11 -90q52 -28 151 -13q15 2 29 5l-24 -116q-119 -34 -222 0q-86 28 -98 90q-12 60 59 131l55 199h-10q-41 -123 -106 -172.5t-184 -49.5q-45 1 -74 8t-51.5 26t-31 52.5t-7 85.5t14.5 127l38 217h202l-35 -200q-17 -96 2.5 -130t83.5 -34
q59 0 107.5 53.5t65.5 134.5l30 176h202l-88 -500h-98z" />
    <glyph glyph-name="Wcircumflex" unicode="&#x174;" horiz-adv-x="1281" 
d="M426 755l14 80l319 186l255 -186l-14 -80l-259 164zM222 0l-135 700h229l72 -416l200 416h229l54 -416l218 416h229l-383 -700h-242l-52 350l-177 -350h-242z" />
    <glyph glyph-name="wcircumflex" unicode="&#x175;" horiz-adv-x="1121" 
d="M322 555l14 80l319 186l255 -186l-14 -80l-259 164zM195 0l-126 500h209l66 -270l156 270h199l68 -276l164 276h209l-302 -500h-222l-58 250l-141 -250h-222z" />
    <glyph glyph-name="Ycircumflex" unicode="&#x176;" horiz-adv-x="1070" 
d="M320 755l14 80l319 186l255 -186l-14 -80l-259 164zM372 0l40 226l-325 474h249l206 -311l316 311h249l-492 -472l-41 -228h-202z" />
    <glyph glyph-name="ycircumflex" unicode="&#x177;" horiz-adv-x="806" 
d="M198 555l14 80l319 186l255 -186l-14 -80l-259 164zM122 -200l149 211l-184 489h232l98 -280l197 280h229l-493 -700h-228z" />
    <glyph glyph-name="Ydieresis" unicode="&#x178;" horiz-adv-x="1070" 
d="M463 738q-44 0 -67.5 23.5t-16.5 61.5t38.5 61.5t75.5 23.5q47 0 69 -23t15 -62t-37 -62t-77 -23zM753 738q-44 0 -67.5 23.5t-16.5 61.5t38.5 61.5t75.5 23.5q47 0 69 -23t15 -62t-37 -62t-77 -23zM372 0l40 226l-325 474h249l206 -311l316 311h249l-492 -472l-41 -228
h-202z" />
    <glyph glyph-name="Zacute" unicode="&#x179;" horiz-adv-x="913" 
d="M496 744l28 80l352 186l-36 -102zM-27 0l24 132l554 396h-477l31 172h825l-23 -130l-553 -398h493l-31 -172h-843z" />
    <glyph glyph-name="zacute" unicode="&#x17a;" horiz-adv-x="723" 
d="M409 544l28 80l352 186l-36 -102zM-14 0l20 112l356 236h-307l27 152h655l-19 -110l-355 -238h303l-27 -152h-653z" />
    <glyph glyph-name="Zdotaccent" unicode="&#x17b;" horiz-adv-x="913" 
d="M518 738q-44 0 -63 23.5t-6 61.5t49 61.5t80 23.5q47 0 65 -23t4 -62t-48 -62t-81 -23zM-27 0l24 132l554 396h-477l31 172h825l-23 -130l-553 -398h493l-31 -172h-843z" />
    <glyph glyph-name="zdotaccent" unicode="&#x17c;" horiz-adv-x="723" 
d="M431 538q-44 0 -63 23.5t-6 61.5t49 61.5t80 23.5q47 0 65 -23t4 -62t-48 -62t-81 -23zM-14 0l20 112l356 236h-307l27 152h655l-19 -110l-355 -238h303l-27 -152h-653z" />
    <glyph glyph-name="Zcaron" unicode="&#x17d;" horiz-adv-x="913" 
d="M514 755l-255 186l14 80l259 -164l315 164l-14 -80zM-27 0l24 132l554 396h-477l31 172h825l-23 -130l-553 -398h493l-31 -172h-843z" />
    <glyph glyph-name="zcaron" unicode="&#x17e;" horiz-adv-x="723" 
d="M427 555l-255 186l14 80l259 -164l315 164l-14 -80zM-14 0l20 112l356 236h-307l27 152h655l-19 -110l-355 -238h303l-27 -152h-653z" />
    <glyph glyph-name="Scommaaccent" unicode="&#x218;" horiz-adv-x="886" 
d="M368 -16q-179 3 -275 70.5t-74 176.5h216q-2 -9 1 -18t13 -19t27.5 -18t48.5 -13.5t71 -6.5q212 -4 223 60q4 20 -27 30t-82.5 13.5t-113.5 7t-123 14.5t-109 31.5t-72.5 63.5t-12.5 105q21 109 139 173.5t291 61.5q167 -3 258.5 -70.5t73.5 -176.5h-216v17.5t-9.5 19.5
t-24 18t-43.5 13.5t-67 6.5q-187 4 -198 -60q-4 -22 26.5 -33.5t81.5 -17t113.5 -10t123 -16t108.5 -31t73 -59.5t14 -98q-21 -109 -146 -173.5t-309 -61.5zM203 -350l111 270h170l-161 -270h-120z" />
    <glyph glyph-name="scommaaccent" unicode="&#x219;" horiz-adv-x="664" 
d="M283 -16q-133 0 -261 39l30 169q105 -43 230 -43q132 0 136 24q2 13 -18.5 18.5t-54.5 7t-76 2.5t-82.5 7.5t-73 19.5t-49 42t-8.5 72q15 87 101.5 130.5t223.5 43.5q107 0 245 -28l-30 -169q-118 26 -215 26q-132 0 -136 -21q-2 -10 26.5 -13.5t72.5 -2t93.5 -4.5
t91 -18t64.5 -45.5t14 -84.5q-29 -172 -324 -172zM85 -341l159 270h170l-209 -270h-120z" />
    <glyph glyph-name="uni021A" unicode="&#x21a;" horiz-adv-x="873" 
d="M273 0l94 528h-311l31 172h823l-31 -172h-310l-94 -528h-202zM167 -350l111 270h170l-161 -270h-120z" />
    <glyph glyph-name="uni021B" unicode="&#x21b;" horiz-adv-x="418" 
d="M180 -10q-94 0 -115.5 39t-1.5 151l30 172h-56l26 148h76l22 120l185 20l-25 -140h100l-26 -148h-100l-25 -142q-9 -36 -6 -55t21.5 -24t69.5 -1l-21 -120q-77 -20 -154 -20zM-54 -341l159 270h170l-209 -270h-120z" />
    <glyph glyph-name="circumflex" unicode="&#x2c6;" horiz-adv-x="674" 
d="M27 555l14 80l319 186l255 -186l-14 -80l-259 164z" />
    <glyph glyph-name="caron" unicode="&#x2c7;" horiz-adv-x="674" 
d="M314 555l-255 186l14 80l259 -164l315 164l-14 -80z" />
    <glyph glyph-name="breve" unicode="&#x2d8;" horiz-adv-x="526" 
d="M250 551q-93 0 -145.5 41t-41.5 108h105q-6 -40 20 -60.5t74 -20.5q103 0 124 81h103q-13 -69 -76 -109t-163 -40z" />
    <glyph glyph-name="dotaccent" unicode="&#x2d9;" horiz-adv-x="298" 
d="M134 538q-44 0 -67.5 23.5t-16.5 61.5t38.5 61.5t75.5 23.5q47 0 69 -23t15 -62t-37 -62t-77 -23z" />
    <glyph glyph-name="ring" unicode="&#x2da;" horiz-adv-x="606" 
d="M285 538q-105 0 -174 29t-61 74t87 74t184 29q113 0 178 -28.5t57 -74.5t-83 -74.5t-188 -28.5zM294 589q41 0 68.5 13.5t31.5 38.5q4 26 -18.5 39t-63.5 13q-40 0 -67 -13.5t-31 -38.5t18 -38.5t62 -13.5z" />
    <glyph glyph-name="ogonek" unicode="&#x2db;" horiz-adv-x="445" 
d="M369 -214q-119 -35 -222 0q-86 28 -98 89q-15 71 85 156q55 47 94 23q22 -13 17 -32q-1 -6 -6 -10q-83 -64 -32 -98q45 -30 144 -19q21 2 42 7z" />
    <glyph glyph-name="tilde" unicode="&#x2dc;" horiz-adv-x="481" 
d="M296 572q-31 0 -52.5 18t-37.5 36t-32 18q-28 0 -47.5 -18t-26.5 -53h-61q10 58 51 94t95 36q21 0 39 -11.5t28 -24.5t24.5 -24.5t30.5 -11.5q62 0 75 71h60q-11 -59 -51.5 -94.5t-94.5 -35.5z" />
    <glyph glyph-name="hungarumlaut" unicode="&#x2dd;" horiz-adv-x="637" 
d="M27 544l14 80l319 186l-18 -102zM277 544l14 80l319 186l-18 -102z" />
    <glyph glyph-name="gravecomb" unicode="&#x300;" 
d="M-96 544l-230 164l36 102l222 -186z" />
    <glyph glyph-name="acutecomb" unicode="&#x301;" 
d="M-383 544l28 80l352 186l-36 -102z" />
    <glyph glyph-name="uni0302" unicode="&#x302;" 
d="M-670 555l28 80l352 186l222 -186l-28 -80l-230 164z" />
    <glyph glyph-name="tildecomb" unicode="&#x303;" 
d="M-196 572q-24 0 -41.5 11t-25 25t-18.5 25t-24 11q-62 0 -87 -71h-61q21 58 68 94t101 36q21 0 37 -11.5t23.5 -24.5t20 -24.5t28.5 -11.5q62 0 88 71h60q-22 -59 -68.5 -94.5t-100.5 -35.5z" />
    <glyph glyph-name="uni0304" unicode="&#x304;" 
d="M-592 646l19 54h532l-19 -54h-532z" />
    <glyph glyph-name="uni0306" unicode="&#x306;" 
d="M-289 551q-92 0 -137.5 41t-23.5 108h105q-12 -40 10 -60.5t70 -20.5q104 0 138 81h103q-24 -69 -94 -109t-171 -40z" />
    <glyph glyph-name="uni0307" unicode="&#x307;" 
d="M-179 538q-44 0 -63 23.5t-6 61.5t49 61.5t80 23.5q47 0 65 -23t4 -62t-48 -62t-81 -23z" />
    <glyph glyph-name="uni0308" unicode="&#x308;" 
d="M-469 538q-44 0 -63 23.5t-6 61.5t49 61.5t80 23.5q47 0 65 -23t4 -62t-48 -62t-81 -23zM-179 538q-44 0 -63 23.5t-6 61.5t49 61.5t80 23.5q47 0 65 -23t4 -62t-48 -62t-81 -23z" />
    <glyph glyph-name="uni030A" unicode="&#x30a;" 
d="M-339 538q-105 0 -169 29t-48 74t100 74t189 29q113 0 173 -28.5t44 -74.5t-96 -74.5t-193 -28.5zM-321 589q41 0 71 13.5t38 38.5q8 26 -12 39t-61 13q-89 0 -107 -52q-9 -25 11 -38.5t60 -13.5z" />
    <glyph glyph-name="uni030B" unicode="&#x30b;" 
d="M-633 544l28 80l352 186l-36 -102zM-383 544l28 80l352 186l-36 -102z" />
    <glyph glyph-name="uni030C" unicode="&#x30c;" 
d="M-383 555l-222 186l28 80l230 -164l344 164l-28 -80z" />
    <glyph glyph-name="uni0312" unicode="&#x312;" 
d="M-2 798l-159 -270h-170l209 270h120z" />
    <glyph glyph-name="uni0326" unicode="&#x326;" 
d="M-331 -341l159 270h170l-209 -270h-120z" />
    <glyph glyph-name="uni0327" unicode="&#x327;" 
d="M-533 -287l19 55q232 1 252 55q18 50 -184 57l-28 1l19 53l93 101h129l-91 -105q135 -9 203 -36.5t53 -70.5q-17 -47 -146 -78t-319 -32z" />
    <glyph glyph-name="uni0328" unicode="&#x328;" 
d="M-99 -214q-112 -31 -205.5 -5.5t-99 90t112.5 160.5q64 47 99 23q20 -14 11 -33q-3 -5 -8 -9q-95 -65 -48 -99q40 -29 140 -18q22 3 43 7z" />
    <glyph glyph-name="uni0335" unicode="&#x335;" 
d="M-580 244l61 173h500l-61 -173h-500z" />
    <glyph glyph-name="uni0336" unicode="&#x336;" 
d="M-1080 244l61 173h1000l-61 -173h-1000z" />
    <glyph glyph-name="uni0337" unicode="&#x337;" 
d="M-859 0l682 500h171l-682 -500h-171z" />
    <glyph glyph-name="uni0338" unicode="&#x338;" 
d="M-1115 0l956 700h171l-956 -700h-171z" />
    <glyph glyph-name="uni0401" unicode="&#x401;" horiz-adv-x="855" 
d="M363 738q-44 0 -63 23.5t-6 61.5t49 61.5t80 23.5q47 0 65 -23t4 -62t-48 -62t-81 -23zM653 738q-44 0 -63 23.5t-6 61.5t49 61.5t80 23.5q47 0 65 -23t4 -62t-48 -62t-81 -23zM18 0l124 700h705l-31 -172h-503l-16 -91h494l-28 -163h-494l-18 -102h503l-31 -172h-705z
" />
    <glyph glyph-name="uni0410" unicode="&#x410;" horiz-adv-x="1105" 
d="M-37 0l543 700h217l295 -700h-239l-45 118h-445l-87 -118h-239zM415 290h254l-87 228z" />
    <glyph glyph-name="uni0411" unicode="&#x411;" horiz-adv-x="870" 
d="M609 427q105 0 160.5 -55t37.5 -158q-16 -91 -91.5 -152.5t-181.5 -61.5h-515l123 700h699l-30 -172h-497l-18 -101h313zM605 214q8 51 -49 51h-289l-18 -103h288q60 0 68 52z" />
    <glyph glyph-name="uni0412" unicode="&#x412;" horiz-adv-x="926" 
d="M18 0l124 700h535q106 0 156.5 -51t35.5 -134q-26 -147 -222 -159q101 -2 151.5 -46t35.5 -124q-15 -84 -86 -135t-173 -51h-557zM298 435h297q59 0 66 46q5 26 -8.5 36.5t-41.5 10.5h-297zM252 173h319q58 0 66 49q5 27 -8.5 40.5t-39.5 13.5h-319z" />
    <glyph glyph-name="uni0413" unicode="&#x413;" horiz-adv-x="733" 
d="M18 0l124 700h643l-31 -172h-440l-94 -528h-202z" />
    <glyph glyph-name="uni0414" unicode="&#x414;" horiz-adv-x="927" 
d="M-59 -103l36 205q105 0 126 81l138 517h635l-106 -598h102l-36 -205h-202l18 103h-491l-18 -103h-202zM302 172h278l64 356h-245l-91 -336z" />
    <glyph glyph-name="uni0415" unicode="&#x415;" horiz-adv-x="855" 
d="M18 0l124 700h705l-31 -172h-503l-16 -91h494l-28 -163h-494l-18 -102h503l-31 -172h-705z" />
    <glyph glyph-name="uni0416" unicode="&#x416;" horiz-adv-x="1508" 
d="M-52 0l497 354l-363 346h284l295 -305l54 305h202l-54 -305l403 305h284l-485 -346l371 -354h-294l-295 305l-54 -305h-202l54 305l-403 -305h-294z" />
    <glyph glyph-name="uni0417" unicode="&#x417;" horiz-adv-x="798" 
d="M291 -16q-210 2 -318 44l30 172q44 -20 135 -32t174 -12q228 0 238 52q3 19 -15.5 31.5t-73 23.5t-151 19t-251.5 16l18 101q135 6 228.5 13.5t145.5 14.5t80.5 17t36.5 18t10 20q4 23 -30 38t-77.5 20t-91.5 5q-79 0 -174.5 -12.5t-148.5 -32.5l31 172q62 22 157.5 33.5
t175.5 11.5q71 0 123 -3.5t103 -15.5t81 -32.5t45 -56t7 -84.5q-6 -35 -28.5 -63.5t-50 -45.5t-67.5 -29.5t-68.5 -18t-67 -8.5t-50 -3h-28.5l-1 -9q2 0 31 -0.5t48.5 -1.5t55 -5t60 -10t53 -18t45 -28.5t25.5 -41.5t3 -56q-11 -62 -47.5 -103.5t-98.5 -63t-133 -29.5
t-169 -7z" />
    <glyph glyph-name="uni0418" unicode="&#x418;" horiz-adv-x="978" 
d="M836 0h-202l68 386l-524 -386h-160l123 700h202l-69 -387l526 387h159z" />
    <glyph glyph-name="uni0419" unicode="&#x419;" horiz-adv-x="978" 
d="M495 751q-93 0 -116.5 40.5t34.5 108.5h105q-33 -41 -22 -61t59 -20q103 0 181 81h103q-62 -69 -153 -109t-191 -40zM802 0h-202l68 386l-524 -386h-160l123 700h202l-69 -387l526 387h159z" />
    <glyph glyph-name="uni041A" unicode="&#x41a;" horiz-adv-x="935" 
d="M18 0l124 700h202l-54 -305l403 305h284l-485 -346l371 -354h-294l-295 305l-54 -305h-202z" />
    <glyph glyph-name="uni041B" unicode="&#x41b;" horiz-adv-x="895" 
d="M-53 -15l21 80q48 -4 79 17.5t41 63.5l145 554h635l-123 -700h-202l93 528h-246l-96 -373q-24 -90 -114 -134t-233 -36z" />
    <glyph glyph-name="uni041C" unicode="&#x41c;" horiz-adv-x="1042" 
d="M18 0l124 700h161l206 -417l354 417h161l-124 -700h-202l59 333l-277 -333h-42l-159 334l-59 -334h-202z" />
    <glyph glyph-name="uni041D" unicode="&#x41d;" horiz-adv-x="975" 
d="M18 0l124 700h202l-44 -248h411l44 248h202l-124 -700h-202l49 279h-411l-49 -279h-202z" />
    <glyph glyph-name="uni041E" unicode="&#x41e;" horiz-adv-x="965" 
d="M417 -16q-203 0 -304.5 100t-72.5 266t166.5 266t340.5 100q204 0 305.5 -100t72.5 -266t-166.5 -266t-341.5 -100zM448 156q116 0 187 49.5t88 144.5t-37 144.5t-170 49.5q-115 0 -186 -49.5t-88 -144.5t37 -144.5t169 -49.5z" />
    <glyph glyph-name="uni041F" unicode="&#x41f;" horiz-adv-x="825" 
d="M18 0l124 700h665l-124 -700h-202l94 528h-261l-94 -528h-202z" />
    <glyph glyph-name="uni0420" unicode="&#x420;" horiz-adv-x="870" 
d="M18 0l124 700h515q106 0 159.5 -62t37.5 -152q-18 -103 -93 -158t-180 -55h-313l-48 -273h-202zM296 435h289q57 0 67 51q10 52 -49 52h-288z" />
    <glyph glyph-name="uni0421" unicode="&#x421;" horiz-adv-x="924" 
d="M397 -16q-190 0 -288 100.5t-69 265.5t163 265.5t324 100.5t290 -88t75 -233h-204q7 74 -45 111.5t-147 37.5q-101 0 -169 -50t-85 -144t33.5 -144t152.5 -50q95 0 160 37.5t84 111.5h204q-25 -145 -157 -233t-322 -88z" />
    <glyph glyph-name="uni0422" unicode="&#x422;" horiz-adv-x="873" 
d="M273 0l94 528h-311l31 172h823l-31 -172h-310l-94 -528h-202z" />
    <glyph glyph-name="uni0423" unicode="&#x423;" horiz-adv-x="806" 
d="M122 -1l149 211l-184 489h232l98 -280l197 280h229l-493 -700h-228z" />
    <glyph glyph-name="uni0424" unicode="&#x424;" horiz-adv-x="722" 
d="M469 617q117 -15 174.5 -85.5t38.5 -176.5t-101.5 -176.5t-204.5 -85.5l-16 -93h-122l16 93q-117 15 -175 85t-39 177t102 177.5t205 84.5l15 83h122zM232 355q-12 -68 52 -94l34 188q-74 -26 -86 -94zM490 355q12 67 -51 93l-33 -186q71 25 84 93z" />
    <glyph glyph-name="uni0425" unicode="&#x425;" horiz-adv-x="945" 
d="M-37 0l369 354l-240 346h279l132 -191l200 191h279l-369 -352l240 -348h-276l-135 194l-203 -194h-276z" />
    <glyph glyph-name="uni0426" unicode="&#x426;" horiz-adv-x="827" 
d="M534 -103l18 103h-515l124 700h202l-94 -528h191l94 528h202l-94 -528h123l-49 -275h-202z" />
    <glyph glyph-name="uni0427" unicode="&#x427;" horiz-adv-x="748" 
d="M760 700l-124 -700h-216l92 406h-10q-41 -123 -106 -172.5t-184 -49.5q-45 1 -74 8t-51 26t-30.5 52.5t-7.5 85.5t14 127l39 217h202l-36 -200q-17 -95 3 -129.5t84 -34.5q60 0 109.5 56t63.5 140v-1l30 169h202z" />
    <glyph glyph-name="uni0428" unicode="&#x428;" horiz-adv-x="1168" 
d="M28 0l124 700h202l-94 -528h191l94 528h202l-94 -528h191l94 528h202l-124 -700h-988z" />
    <glyph glyph-name="uni0429" unicode="&#x429;" horiz-adv-x="1220" 
d="M927 -103l18 103h-908l124 700h202l-94 -528h191l94 528h202l-94 -528h191l94 528h202l-94 -528h123l-49 -275h-202z" />
    <glyph glyph-name="uni042A" unicode="&#x42a;" horiz-adv-x="870" 
d="M609 427q105 0 160.5 -55t37.5 -158q-16 -91 -91.5 -152.5t-181.5 -61.5h-515l105 598h-58l18 102h260l-48 -273h313zM605 214q8 51 -49 51h-289l-18 -103h288q60 0 68 52z" />
    <glyph glyph-name="uni042B" unicode="&#x42b;" horiz-adv-x="1255" 
d="M142 700h202l-48 -273h313q105 0 160.5 -55t37.5 -158q-16 -91 -91.5 -152.5t-181.5 -61.5h-515zM901 0l124 700h202l-124 -700h-202zM267 265l-18 -103h288q60 0 68 52q8 51 -49 51h-289z" />
    <glyph glyph-name="uni042C" unicode="&#x42c;" horiz-adv-x="870" 
d="M142 700h202l-48 -273h313q105 0 160.5 -55t37.5 -158q-16 -91 -91.5 -152.5t-181.5 -61.5h-515zM267 265l-18 -103h288q60 0 68 52q8 51 -49 51h-289z" />
    <glyph glyph-name="uni042D" unicode="&#x42d;" horiz-adv-x="924" 
d="M526 716q190 0 288 -100.5t69 -265.5q-28 -165 -162 -265.5t-324 -100.5t-290 88t-75 233h204q-7 -74 44.5 -111.5t146.5 -37.5q156 0 222 107h-284l31 172h284q-13 53 -61 81t-123 28q-95 0 -160 -37.5t-85 -111.5h-204q25 145 157 233t322 88z" />
    <glyph glyph-name="uni042E" unicode="&#x42e;" horiz-adv-x="1345" 
d="M927 716q204 0 305.5 -100t72.5 -266t-166.5 -266t-341.5 -100q-175 0 -275.5 74.5t-107.5 204.5h-137l-47 -263h-202l124 700h202l-47 -265h137q52 130 180 205.5t303 75.5zM1103 350q17 95 -37 144.5t-170 49.5q-115 0 -186 -49.5t-88 -144.5t37 -144.5t169 -49.5
q116 0 187 49.5t88 144.5z" />
    <glyph glyph-name="uni042F" unicode="&#x42f;" horiz-adv-x="941" 
d="M799 0h-202l50 282h-110q-76 0 -123 -43.5t-173 -215.5q-11 -15 -17 -23h-266q63 96 104 149.5t90 99.5t99 66t115 24h-72q-103 0 -156 46.5t-38 129.5q14 82 82.5 133.5t174.5 51.5h565zM674 435l19 103h-329q-60 0 -68 -52q-4 -27 8 -39t41 -12h329z" />
    <glyph glyph-name="uni0430" unicode="&#x430;" horiz-adv-x="694" 
d="M179 -16q-33 0 -60.5 4.5t-55.5 17.5t-41 41t-6 69q15 81 120 123t314 55q4 21 -19.5 34t-64.5 13q-58 0 -129.5 -14.5t-126.5 -36.5l30 172q157 54 297 54q253 0 213 -234l-50 -282h-192l50 179h-12q-42 -107 -99 -151t-168 -44zM297 120q48 0 90 24.5t49 71.5
q-196 -12 -205 -60q-3 -17 16 -26.5t50 -9.5z" />
    <glyph glyph-name="uni0431" unicode="&#x431;" horiz-adv-x="856" 
d="M385 -12q-190 0 -283.5 94t-60.5 280q30 170 165.5 261.5t335.5 91.5q214 0 285 12l-32 -185q-29 -7 -67.5 -7t-101.5 3.5t-110 3.5q-117 0 -188 -47.5t-86 -137.5q122 103 273 103q163 0 231 -68.5t44 -179.5q-21 -103 -128.5 -163.5t-276.5 -60.5zM406 160
q76 0 127.5 19.5t58.5 57.5q6 37 -26.5 57.5t-100.5 20.5q-112 0 -220 -45q13 -51 53 -80.5t108 -29.5z" />
    <glyph glyph-name="uni0432" unicode="&#x432;" horiz-adv-x="793" 
d="M46 0l88 500h425q119 0 166.5 -32t34.5 -103q-9 -53 -57.5 -79t-145.5 -30q108 -2 152 -30.5t34 -89.5q-13 -71 -72.5 -103.5t-177.5 -32.5h-447zM300 295h108q138 0 147 49q5 29 -25.5 41.5t-103.5 12.5h-109zM267 103h129q138 0 148 59q5 27 -26 40.5t-102 13.5h-130z
" />
    <glyph glyph-name="uni0433" unicode="&#x433;" horiz-adv-x="600" 
d="M46 0l88 500h473l-30 -172h-271l-58 -328h-202z" />
    <glyph glyph-name="uni0434" unicode="&#x434;" horiz-adv-x="817" 
d="M-44 -103l36 205q106 0 125 81l92 352h522l-76 -433h121l-36 -205h-202l18 103h-380l-18 -103h-202zM290 172h166l35 191h-126l-27 -101q-13 -51 -48 -90z" />
    <glyph glyph-name="uni0435" unicode="&#x435;" horiz-adv-x="682" 
d="M294 -16q-136 0 -205.5 73t-48.5 193t116.5 193t231.5 73q134 0 206 -62.5t55 -164.5l-15 -82h-402q15 -68 139 -68q29 0 56.5 2.5t45.5 6t41 10.5t33.5 11t33 13t29.5 12l-28 -161q-74 -26 -133 -37.5t-155 -11.5zM239 277l213 5q4 36 -22.5 54t-70.5 18
q-40 0 -72.5 -19.5t-47.5 -57.5z" />
    <glyph glyph-name="uni0436" unicode="&#x436;" horiz-adv-x="1268" 
d="M-34 0l441 251l-343 249h264l219 -168l30 168h202l-30 -168l279 168h264l-431 -249l353 -251h-274l-219 168l-30 -168h-202l30 168l-279 -168h-274z" />
    <glyph glyph-name="uni0437" unicode="&#x437;" horiz-adv-x="818" 
d="M319 -15q-210 2 -318 44l30 172q44 -20 135 -32t174 -12q198 0 204 32q1 5 -6.5 9t-29 7.5t-55 6.5t-88 7t-123.5 7.5t-167 7.5l6 35q279 11 370.5 19.5t94.5 24.5q2 8 -7.5 13.5t-31 9.5t-55 5.5t-81.5 1.5q-79 0 -174.5 -12.5t-148.5 -32.5l31 172q62 22 157.5 33.5
t175.5 11.5q86 0 151 -5.5t120 -19.5t80.5 -40t18.5 -64q-5 -31 -30.5 -55t-66 -37t-75.5 -21.5t-82.5 -11t-62 -3t-36.5 -0.5l-1 -9h27t40.5 -0.5t48.5 -2t53 -5t51 -9t47 -15t36 -21.5t22.5 -29.5t2.5 -38.5q-25 -146 -437 -143z" />
    <glyph glyph-name="uni0438" unicode="&#x438;" horiz-adv-x="928" 
d="M46 0l88 500h202l-48 -273l435 273h159l-88 -500h-202l48 276l-434 -276h-160z" />
    <glyph glyph-name="uni0439" unicode="&#x439;" horiz-adv-x="928" 
d="M465 551q-92 0 -123 40.5t15 108.5h105q-26 -41 -11.5 -61t62.5 -20q104 0 167 81h103q-49 -69 -133 -109t-185 -40zM28 0l88 500h202l-48 -274l435 274h159l-88 -500h-202l49 276l-435 -276h-160z" />
    <glyph glyph-name="uni043A" unicode="&#x43a;" horiz-adv-x="795" 
d="M36 0l88 500h202l-30 -168l279 168h264l-431 -249l353 -251h-274l-219 168l-30 -168h-202z" />
    <glyph glyph-name="uni043B" unicode="&#x43b;" horiz-adv-x="782" 
d="M-28 -12l11 80q101 0 120 81l92 351h542l-88 -500h-202l58 328h-152l-44 -170q-24 -90 -109.5 -134t-227.5 -36z" />
    <glyph glyph-name="uni043C" unicode="&#x43c;" horiz-adv-x="1042" 
d="M46 0l88 500h181l201 -277l299 277h181l-88 -500h-202l41 233l-259 -233h-22l-178 229l-40 -229h-202z" />
    <glyph glyph-name="uni043D" unicode="&#x43d;" horiz-adv-x="855" 
d="M46 0l88 500h202l-27 -153h271l27 153h202l-88 -500h-202l31 175h-271l-31 -175h-202z" />
    <glyph glyph-name="uni043E" unicode="&#x43e;" horiz-adv-x="722" 
d="M314 -16q-145 0 -220 73t-54 193t122 193t246 73t220 -73t54 -193t-122 -193t-246 -73zM343 146q58 0 98.5 28.5t48.5 75.5q8 46 -22.5 75t-88.5 29t-98.5 -28.5t-48.5 -75.5q-8 -46 22.5 -75t88.5 -29z" />
    <glyph glyph-name="uni043F" unicode="&#x43f;" horiz-adv-x="775" 
d="M36 0l88 500h615l-88 -500h-202l56 318h-211l-56 -318h-202z" />
    <glyph glyph-name="uni0440" unicode="&#x440;" horiz-adv-x="786" 
d="M-14 -200l124 700h206l-50 -163h11q30 80 107.5 129.5t173.5 49.5q113 0 168.5 -74.5t33.5 -195.5q-20 -118 -102 -190t-196 -72q-90 0 -147 49t-59 129h-4l-1 -1l-63 -361h-202zM411 146q59 0 104 25t54 77q10 53 -26.5 79.5t-94.5 26.5q-59 0 -105 -26.5t-56 -79.5
q-9 -52 28 -77t96 -25z" />
    <glyph glyph-name="uni0441" unicode="&#x441;" horiz-adv-x="609" 
d="M284 -16q-135 0 -200 72.5t-44 193.5q21 123 110 194.5t229 71.5q117 0 227 -54l-30 -170q-93 62 -200 62q-58 0 -97 -28.5t-47 -75.5q-8 -46 22 -75t89 -29q109 0 218 61l-29 -169q-71 -29 -124.5 -41.5t-123.5 -12.5z" />
    <glyph glyph-name="uni0442" unicode="&#x442;" horiz-adv-x="713" 
d="M212 0l58 328h-231l30 172h663l-30 -172h-230l-58 -328h-202z" />
    <glyph glyph-name="uni0443" unicode="&#x443;" horiz-adv-x="806" 
d="M122 -200l149 211l-184 489h232l98 -280l197 280h229l-493 -700h-228z" />
    <glyph glyph-name="uni0444" unicode="&#x444;" horiz-adv-x="722" 
d="M468 512q117 -15 175 -85t39 -177t-102 -177t-205 -85l-15 -84h-122l15 84q-117 15 -174.5 85.5t-38.5 176.5t101.5 176.5t204.5 85.5l16 92h122zM490 250q12 68 -52 94l-33 -188q73 26 85 94zM232 250q-12 -67 51 -93l33 186q-72 -26 -84 -93z" />
    <glyph glyph-name="uni0445" unicode="&#x445;" horiz-adv-x="838" 
d="M-19 0l301 251l-212 249h254l116 -136l163 136h254l-313 -259l205 -241h-253l-109 128l-153 -128h-253z" />
    <glyph glyph-name="uni0446" unicode="&#x446;" horiz-adv-x="807" 
d="M532 -103l18 103h-495l88 500h202l-58 -328h171l58 328h202l-58 -328h122l-48 -275h-202z" />
    <glyph glyph-name="uni0447" unicode="&#x447;" horiz-adv-x="748" 
d="M438 0l76 336h-7q-41 -123 -106 -172.5t-184 -49.5q-45 1 -74 8t-51 26t-30.5 52.5t-7 85.5t14.5 127l15 87h202l-12 -70q-17 -96 2.5 -130t83.5 -34q60 0 109.5 56t63.5 140v-2l7 40h202l-88 -500h-216z" />
    <glyph glyph-name="uni0448" unicode="&#x448;" horiz-adv-x="1128" 
d="M46 0l88 500h202l-58 -328h171l58 328h202l-58 -328h171l58 328h202l-88 -500h-948z" />
    <glyph glyph-name="uni0449" unicode="&#x449;" horiz-adv-x="1180" 
d="M905 -103l18 103h-868l88 500h202l-58 -328h171l58 328h202l-58 -328h171l58 328h202l-58 -328h122l-48 -275h-202z" />
    <glyph glyph-name="uni044A" unicode="&#x44a;" horiz-adv-x="840" 
d="M18 0l94 528h-111l31 172h312l-48 -273h273q105 0 160 -55t37 -158q-16 -91 -91.5 -152.5t-181.5 -61.5h-475zM248 162h249q57 0 67 52q10 51 -49 51h-248z" />
    <glyph glyph-name="uni044B" unicode="&#x44b;" horiz-adv-x="1225" 
d="M28 0l124 700h202l-48 -273h273q105 0 160 -55t37 -158q-16 -91 -91.5 -152.5t-181.5 -61.5h-475zM871 0l124 700h202l-124 -700h-202zM258 162h249q57 0 67 52q10 51 -49 51h-248z" />
    <glyph glyph-name="uni044C" unicode="&#x44c;" horiz-adv-x="840" 
d="M18 0l124 700h202l-48 -273h273q105 0 160 -55t37 -158q-16 -91 -91.5 -152.5t-181.5 -61.5h-475zM248 162h249q57 0 67 52q10 51 -49 51h-248z" />
    <glyph glyph-name="uni044D" unicode="&#x44d;" horiz-adv-x="609" 
d="M324 516q140 0 203.5 -71.5t41.5 -194.5q-21 -121 -112 -193.5t-226 -72.5q-70 0 -118.5 12.5t-110.5 41.5l31 169q88 -61 196 -61q83 0 125 53h-191l18 102h192q-21 53 -103 53q-107 0 -222 -62l30 170q129 54 246 54z" />
    <glyph glyph-name="uni044E" unicode="&#x44e;" horiz-adv-x="982" 
d="M668 516q145 0 220 -73t54 -193t-122 -193t-246 -73q-116 0 -188.5 48t-86.5 132h-62l-29 -164h-202l88 500h202l-29 -164h62q43 84 133 132t206 48zM750 250q8 46 -22.5 75t-88.5 29t-98.5 -28.5t-48.5 -75.5q-8 -46 22.5 -75t88.5 -29t98.5 28.5t48.5 75.5z" />
    <glyph glyph-name="uni044F" unicode="&#x44f;" horiz-adv-x="811" 
d="M-14 0q110 113 183 153.5t185 45.5h-57q-119 0 -165.5 36t-31.5 120q13 78 72 111.5t178 33.5h415l-88 -500h-202l29 162h-38q-43 0 -88 -28t-154 -134h-238zM427 285h99l17 93h-99q-84 0 -112 -6t-34 -36q-6 -35 20.5 -43t108.5 -8z" />
    <glyph glyph-name="uni0451" unicode="&#x451;" horiz-adv-x="682" 
d="M258 538q-44 0 -63 23.5t-6 61.5t49 61.5t80 23.5q47 0 65 -23t4 -62t-48 -62t-81 -23zM548 538q-44 0 -63 23.5t-6 61.5t49 61.5t80 23.5q47 0 65 -23t4 -62t-48 -62t-81 -23zM294 -16q-136 0 -205.5 73t-48.5 193t116.5 193t231.5 73q134 0 206 -62.5t55 -164.5
l-15 -82h-402q15 -68 139 -68q29 0 56.5 2.5t45.5 6t41 10.5t33.5 11t33 13t29.5 12l-28 -161q-74 -26 -133 -37.5t-155 -11.5zM239 277l213 5q4 36 -22.5 54t-70.5 18q-40 0 -72.5 -19.5t-47.5 -57.5z" />
    <glyph glyph-name="Wgrave" unicode="&#x1e80;" horiz-adv-x="1281" 
d="M717 744l-259 164l18 102l255 -186zM222 0l-135 700h229l72 -416l200 416h229l54 -416l218 416h229l-383 -700h-242l-52 350l-177 -350h-242z" />
    <glyph glyph-name="wgrave" unicode="&#x1e81;" horiz-adv-x="1121" 
d="M613 544l-259 164l18 102l255 -186zM195 0l-126 500h209l66 -270l156 270h199l68 -276l164 276h209l-302 -500h-222l-58 250l-141 -250h-222z" />
    <glyph glyph-name="Wacute" unicode="&#x1e82;" horiz-adv-x="1281" 
d="M687 744l14 80l319 186l-18 -102zM222 0l-135 700h229l72 -416l200 416h229l54 -416l218 416h229l-383 -700h-242l-52 350l-177 -350h-242z" />
    <glyph glyph-name="wacute" unicode="&#x1e83;" horiz-adv-x="1121" 
d="M583 544l14 80l319 186l-18 -102zM195 0l-126 500h209l66 -270l156 270h199l68 -276l164 276h209l-302 -500h-222l-58 250l-141 -250h-222z" />
    <glyph glyph-name="Wdieresis" unicode="&#x1e84;" horiz-adv-x="1281" 
d="M569 738q-44 0 -67.5 23.5t-16.5 61.5t38.5 61.5t75.5 23.5q47 0 69 -23t15 -62t-37 -62t-77 -23zM859 738q-44 0 -67.5 23.5t-16.5 61.5t38.5 61.5t75.5 23.5q47 0 69 -23t15 -62t-37 -62t-77 -23zM222 0l-135 700h229l72 -416l200 416h229l54 -416l218 416h229
l-383 -700h-242l-52 350l-177 -350h-242z" />
    <glyph glyph-name="wdieresis" unicode="&#x1e85;" horiz-adv-x="1121" 
d="M454 538q-44 0 -67.5 23.5t-16.5 61.5t38.5 61.5t75.5 23.5q47 0 69 -23t15 -62t-37 -62t-77 -23zM744 538q-44 0 -67.5 23.5t-16.5 61.5t38.5 61.5t75.5 23.5q47 0 69 -23t15 -62t-37 -62t-77 -23zM195 0l-126 500h209l66 -270l156 270h199l68 -276l164 276h209
l-302 -500h-222l-58 250l-141 -250h-222z" />
    <glyph glyph-name="Ygrave" unicode="&#x1ef2;" horiz-adv-x="1070" 
d="M611 744l-259 164l18 102l255 -186zM372 0l40 226l-325 474h249l206 -311l316 311h249l-492 -472l-41 -228h-202z" />
    <glyph glyph-name="ygrave" unicode="&#x1ef3;" horiz-adv-x="806" 
d="M489 544l-259 164l18 102l255 -186zM122 -200l149 211l-184 489h232l98 -280l197 280h229l-493 -700h-228z" />
    <glyph glyph-name="endash" unicode="&#x2013;" horiz-adv-x="560" 
d="M15 244l30 173h500l-30 -173h-500z" />
    <glyph glyph-name="emdash" unicode="&#x2014;" horiz-adv-x="1060" 
d="M15 244l30 173h1000l-30 -173h-1000z" />
    <glyph glyph-name="quoteleft" unicode="&#x2018;" horiz-adv-x="293" 
d="M287 700l-111 -270h-170l161 270h120z" />
    <glyph glyph-name="quoteright" unicode="&#x2019;" horiz-adv-x="293" 
d="M6 430l111 270h170l-161 -270h-120z" />
    <glyph glyph-name="quotesinglbase" unicode="&#x201a;" horiz-adv-x="293" 
d="M6 -169l111 270h170l-161 -270h-120z" />
    <glyph glyph-name="quotedblleft" unicode="&#x201c;" horiz-adv-x="515" 
d="M287 700l-111 -270h-170l161 270h120zM509 700l-111 -270h-170l161 270h120z" />
    <glyph glyph-name="quotedblright" unicode="&#x201d;" horiz-adv-x="515" 
d="M6 430l111 270h170l-161 -270h-120zM228 430l111 270h170l-161 -270h-120z" />
    <glyph glyph-name="quotedblbase" unicode="&#x201e;" horiz-adv-x="293" 
d="M117 101h170l-161 -270h-120z" />
    <glyph glyph-name="dagger" unicode="&#x2020;" horiz-adv-x="580" 
d="M111 -170l87 496h-159l30 173h159l39 221h202l-39 -221h159l-30 -173h-159l-87 -496h-202z" />
    <glyph glyph-name="daggerdbl" unicode="&#x2021;" horiz-adv-x="600" 
d="M111 -170l30 170h-159l30 173h159l27 153h-159l30 173h159l39 221h202l-39 -221h159l-30 -173h-159l-27 -153h159l-30 -173h-159l-30 -170h-202z" />
    <glyph glyph-name="bullet" unicode="&#x2022;" horiz-adv-x="647" 
d="M272 75q-136 0 -201 73.5t-42 205.5q24 133 115 206.5t227 73.5q137 0 203 -74t43 -206q-23 -133 -113.5 -206t-231.5 -73z" />
    <glyph glyph-name="ellipsis" unicode="&#x2026;" horiz-adv-x="905" 
d="M123 -10q-52 0 -77 28t-16 79t44 79t87 28t77.5 -28t16.5 -79t-43.5 -79t-88.5 -28zM423 -10q-52 0 -77 28t-16 79t44 79t87 28t77.5 -28t16.5 -79t-43.5 -79t-88.5 -28zM723 -10q-52 0 -77 28t-16 79t44 79t87 28t77.5 -28t16.5 -79t-43.5 -79t-88.5 -28z" />
    <glyph glyph-name="perthousand" unicode="&#x2030;" horiz-adv-x="1519" 
d="M278 460q-86 0 -141.5 35t-45.5 90t77.5 90t153.5 35q93 0 145 -34.5t42 -90.5t-74 -90.5t-157 -34.5zM48 0l812 700h141l-812 -700h-141zM289 522q34 0 58 16.5t28 46.5q5 31 -12 47t-51 16q-33 0 -56.5 -16.5t-29.5 -46.5q-5 -30 12.5 -46.5t50.5 -16.5zM717 -10
q-87 0 -142 35t-45 90t77.5 90t153.5 35q93 0 145 -34.5t42 -90.5t-74 -90.5t-157 -34.5zM1197 -10q-87 0 -142 35t-45 90t77.5 90t153.5 35q93 0 145 -34.5t42 -90.5t-74 -90.5t-157 -34.5zM727 52q33 0 57.5 16.5t29.5 46.5q4 31 -13 47t-51 16q-33 0 -56.5 -16.5
t-28.5 -46.5q-6 -30 11.5 -46.5t50.5 -16.5zM1207 52q33 0 57.5 16.5t29.5 46.5q4 31 -13 47t-51 16q-33 0 -56.5 -16.5t-28.5 -46.5q-6 -30 11.5 -46.5t50.5 -16.5z" />
    <glyph glyph-name="guilsinglleft" unicode="&#x2039;" horiz-adv-x="506" 
d="M192 0l-162 250l250 250h240l-258 -250l170 -250h-240z" />
    <glyph glyph-name="guilsinglright" unicode="&#x203a;" horiz-adv-x="506" 
d="M-14 0l258 250l-170 250h240l162 -250l-250 -250h-240z" />
    <glyph glyph-name="fraction" unicode="&#x2044;" horiz-adv-x="1083" 
d="M-39 -100l990 900h171l-990 -900h-171z" />
    <glyph glyph-name="Euro" unicode="&#x20ac;" horiz-adv-x="1017" 
d="M992 395h-204q7 74 -45 111.5t-147 37.5q-122 0 -192 -70h278l-18 -103h-317q-4 -14 -5 -21l-3 -19h317l-18 -103h-279q44 -72 169 -72q95 0 160 37.5t84 111.5h204q-25 -145 -157 -233t-322 -88q-151 0 -246 65.5t-113 178.5h-130l18 103h111l3 19q0 4 1.5 11t2.5 10
h-110l18 103h130q59 113 177 177.5t268 64.5q190 0 290 -88t75 -233z" />
    <glyph glyph-name="trademark" unicode="&#x2122;" horiz-adv-x="1308" 
d="M233 222l65 361h-213l21 117h563l-22 -117h-211l-65 -361h-138zM627 222l85 478h110l141 -285l241 285h110l-84 -478h-138l40 227l-189 -227h-29l-108 228l-41 -228h-138z" />
    <glyph glyph-name="oneeighth" unicode="&#x215b;" horiz-adv-x="1704" 
d="M355 -22l818 744h141l-818 -744h-141zM237 161l65 368l-266 -149l24 138l303 121h97l-85 -478h-138zM1344 47q-127 -2 -194.5 35.5t-55.5 103.5q16 93 182 110q-58 10 -97.5 38.5t-30.5 82.5q11 63 87.5 97t197.5 34q113 0 181.5 -33.5t57.5 -97.5q-10 -54 -60 -82.5
t-111 -38.5q160 -17 143 -110q-12 -66 -95 -103.5t-205 -35.5zM1398 353q42 0 70 4t40 11.5t15.5 13t5.5 14.5q2 12 -7 20.5t-27.5 13t-38 6t-43.5 1.5q-123 0 -130 -41q0 -5 -1.5 -11t4.5 -11.5t16.5 -10t35 -7.5t60.5 -3zM1363 158q138 0 145 40q2 14 -4 22t-36 13.5
t-90 5.5q-85 0 -113 -10t-31 -31q-3 -20 28.5 -30t100.5 -10z" />
    <glyph glyph-name="threeeighths" unicode="&#x215c;" horiz-adv-x="1711" 
d="M351 -22l818 744h141l-818 -744h-141zM219 150q-144 2 -217 30l20 118q65 -30 211 -30q156 0 163 35q2 13 -10.5 21.5t-50 16.5t-103.5 13.5t-172 10.5l13 69q150 7 227 16.5t95 17.5t20 22q4 23 -39 33t-97 10q-140 0 -221 -30l21 117q90 31 228 31q61 0 103.5 -4.5
t80 -18t53 -40.5t8.5 -68q-5 -28 -23 -49.5t-46.5 -33t-53 -19t-56.5 -10t-42 -3t-25 -0.5l-1 -6q1 0 25 -0.5t40.5 -2t44 -5t46 -11t36.5 -19t25 -30t3 -42.5q-15 -81 -91.5 -110.5t-214.5 -28.5zM1351 44q-127 -2 -194.5 35.5t-55.5 103.5q16 93 182 110
q-58 10 -97.5 38.5t-30.5 82.5q11 63 87.5 97t197.5 34q113 0 181.5 -33.5t57.5 -97.5q-10 -54 -60 -82.5t-111 -38.5q160 -17 143 -110q-12 -66 -95 -103.5t-205 -35.5zM1405 350q42 0 70 4t40 11.5t15.5 13t5.5 14.5q2 12 -7 20.5t-27.5 13t-38 6t-43.5 1.5
q-123 0 -130 -41q0 -5 -1.5 -11t4.5 -11.5t16.5 -10t35 -7.5t60.5 -3zM1370 155q138 0 145 40q2 14 -4 22t-36 13.5t-90 5.5q-85 0 -113 -10t-31 -31q-3 -20 28.5 -30t100.5 -10z" />
    <glyph glyph-name="fiveeighths" unicode="&#x215d;" horiz-adv-x="1751" 
d="M395 -22l818 744h141l-818 -744h-141zM214 147q-52 0 -117.5 8t-94.5 20l22 125q25 -13 92 -23.5t117 -10.5q147 0 156 46q5 30 -22 43.5t-96 13.5q-35 0 -73.5 -4t-83 -10.5t-55.5 -7.5l51 289h448l-21 -117h-341l-14 -76q72 25 157 25q44 0 77.5 -6t63.5 -22
t42.5 -48.5t4.5 -79.5q-14 -78 -99 -121.5t-214 -43.5zM1391 44q-127 -2 -194.5 35.5t-55.5 103.5q16 93 182 110q-58 10 -97.5 38.5t-30.5 82.5q11 63 87.5 97t197.5 34q113 0 181.5 -33.5t57.5 -97.5q-10 -54 -60 -82.5t-111 -38.5q160 -17 143 -110q-12 -66 -95 -103.5
t-205 -35.5zM1445 350q42 0 70 4t40 11.5t15.5 13t5.5 14.5q2 12 -7 20.5t-27.5 13t-38 6t-43.5 1.5q-123 0 -130 -41q0 -5 -1.5 -11t4.5 -11.5t16.5 -10t35 -7.5t60.5 -3zM1410 155q138 0 145 40q2 14 -4 22t-36 13.5t-90 5.5q-85 0 -113 -10t-31 -31q-3 -20 28.5 -30
t100.5 -10z" />
    <glyph glyph-name="seveneighths" unicode="&#x215e;" horiz-adv-x="1618" 
d="M249 -22l818 744h141l-818 -744h-141zM19 158l366 361h-337l21 117h553l-11 -61l-399 -417h-193zM1258 44q-127 -2 -194.5 35.5t-55.5 103.5q16 93 182 110q-58 10 -97.5 38.5t-30.5 82.5q11 63 87.5 97t197.5 34q113 0 181.5 -33.5t57.5 -97.5q-10 -54 -60 -82.5
t-111 -38.5q160 -17 143 -110q-12 -66 -95 -103.5t-205 -35.5zM1312 350q42 0 70 4t40 11.5t15.5 13t5.5 14.5q2 12 -7 20.5t-27.5 13t-38 6t-43.5 1.5q-123 0 -130 -41q0 -5 -1.5 -11t4.5 -11.5t16.5 -10t35 -7.5t60.5 -3zM1277 155q138 0 145 40q2 14 -4 22t-36 13.5
t-90 5.5q-85 0 -113 -10t-31 -31q-3 -20 28.5 -30t100.5 -10z" />
    <glyph glyph-name="arrowleft" unicode="&#x2190;" horiz-adv-x="830" 
d="M800 243h-504l140 -164l-200 1l-206 250l206 250h200l-140 -164h504v-173z" />
    <glyph glyph-name="arrowup" unicode="&#x2191;" horiz-adv-x="561" 
d="M194 -58v504l-164 -140l1 200l250 206l250 -206v-200l-164 140v-504h-173z" />
    <glyph glyph-name="arrowright" unicode="&#x2192;" horiz-adv-x="830" 
d="M30 417h504l-140 164l200 -1l206 -250l-206 -250h-200l140 164h-504v173z" />
    <glyph glyph-name="arrowdown" unicode="&#x2193;" horiz-adv-x="561" 
d="M367 699v-504l164 140l-1 -200l-250 -206l-250 206v200l164 -140v504h173z" />
    <glyph glyph-name="partialdiff" unicode="&#x2202;" horiz-adv-x="836" 
d="M328 -12q-169 0 -254.5 60.5t-71.5 163.5q16 111 108 179.5t255 68.5q160 0 233 -117q21 113 -42 189t-171 76l26 147q197 0 310 -110.5t83 -282.5q-33 -186 -159.5 -280t-316.5 -94zM368 160q68 0 119 30t81 80q-92 45 -204 45q-68 0 -108 -20.5t-47 -57.5
q-6 -38 38.5 -57.5t120.5 -19.5z" />
    <glyph glyph-name="emptyset" unicode="&#x2205;" horiz-adv-x="702" 
d="M739 500l-93 -78q54 -69 36 -172q-21 -120 -122 -193t-246 -73q-88 0 -154 29l-110 -93l-76 80l98 83q-50 69 -32 167q21 120 122 193t246 73q86 0 147 -26l103 86zM232 250q-3 -18 0 -33l162 136q-5 1 -15 1q-58 0 -98.5 -28.5t-48.5 -75.5zM490 250q4 19 -1 40
l-169 -143q7 -1 23 -1q58 0 98.5 28.5t48.5 75.5z" />
    <glyph glyph-name="product" unicode="&#x220f;" horiz-adv-x="790" 
d="M32 -170l123 697h-79l31 173h730l-31 -173h-79l-123 -697h-202l123 697h-168l-123 -697h-202z" />
    <glyph glyph-name="summation" unicode="&#x2211;" horiz-adv-x="790" 
d="M-32 0l31 173l328 167l-266 187l31 173h730l-31 -173h-458l266 -187l-328 -167h458l-31 -173h-730z" />
    <glyph glyph-name="minus" unicode="&#x2212;" horiz-adv-x="580" 
d="M15 244l30 173h520l-30 -173h-520z" />
    <glyph glyph-name="radical" unicode="&#x221a;" horiz-adv-x="1109" 
d="M207 0l-175 501h219l111 -316l361 515h418l-31 -173h-290l-371 -527h-242z" />
    <glyph glyph-name="infinity" unicode="&#x221e;" horiz-adv-x="988" 
d="M237 77q-109 0 -166.5 68t-41.5 160q17 95 101 165.5t191 70.5q95 0 142 -44.5t42 -122.5q23 79 87 123t157 44q107 0 166 -71t42 -165q-16 -92 -97.5 -160t-190.5 -68q-97 0 -145 41t-43 116q-23 -75 -85 -116t-159 -41zM273 222q40 4 65.5 26.5t30.5 56.5
q7 36 -12.5 58.5t-62.5 22.5q-38 0 -67 -23.5t-35 -57.5q-6 -37 16.5 -61.5t64.5 -21.5zM685 222q40 -3 71.5 21.5t37.5 61.5q6 34 -14 57.5t-58 23.5q-42 0 -70 -22.5t-35 -58.5q-5 -34 12 -56.5t56 -26.5z" />
    <glyph glyph-name="integral" unicode="&#x222b;" horiz-adv-x="712" 
d="M-67 -140l23 58q46 0 89.5 25t57.5 59l242 587q59 142 434 142l-23 -58q-46 0 -89.5 -24.5t-57.5 -59.5l-242 -587q-60 -142 -434 -142z" />
    <glyph glyph-name="approxequal" unicode="&#x2248;" horiz-adv-x="441" 
d="M291 310q-31 0 -52.5 18t-37.5 36t-32 18q-28 0 -47.5 -18t-26.5 -53h-61q10 58 51 94t95 36q21 0 39 -11.5t28 -24.5t24.5 -24.5t30.5 -11.5q62 0 75 71h60q-11 -59 -51.5 -94.5t-94.5 -35.5zM261 140q-31 0 -52.5 18t-37.5 36t-32 18q-28 0 -47.5 -18t-26.5 -53h-61
q10 58 51 94t95 36q21 0 39 -11.5t28 -24.5t24.5 -24.5t30.5 -11.5q62 0 75 71h60q-11 -59 -51.5 -94.5t-94.5 -35.5z" />
    <glyph glyph-name="notequal" unicode="&#x2260;" horiz-adv-x="580" 
d="M-19 20l69 94h-56l30 173h153l58 80h-197l31 173h293l59 80h171l-59 -80h56l-31 -173h-152l-58 -80h196l-30 -173h-293l-69 -94h-171z" />
    <glyph glyph-name="lessequal" unicode="&#x2264;" horiz-adv-x="600" 
d="M272 204l-224 141l274 141h291l-284 -141l234 -141h-291zM10 0l24 133h520l-24 -133h-520z" />
    <glyph glyph-name="greaterequal" unicode="&#x2265;" horiz-adv-x="600" 
d="M26 204l284 141l-234 141h291l224 -141l-274 -141h-291zM-13 0l24 133h520l-24 -133h-520z" />
    <glyph glyph-name="lozenge" unicode="&#x25ca;" horiz-adv-x="726" 
d="M192 0l-162 250l250 250h254l162 -250l-250 -250h-254zM342 132l122 118l-80 118l-122 -118z" />
    <glyph glyph-name="A.001" horiz-adv-x="1105" 
d="M-37 0l503 700h297l255 -700h-229l-38 118h-479l-80 -118h-229zM387 290h309l-100 310z" />
    <glyph glyph-name="B.001" horiz-adv-x="926" 
d="M18 0l124 700h535q106 0 156.5 -51t35.5 -134q-27 -150 -251 -150h-41l-4 -20h63q107 0 159.5 -39t38.5 -120q-15 -84 -86 -135t-173 -51h-557zM298 435h297q59 0 66 46q5 26 -8.5 36.5t-41.5 10.5h-297zM252 173h319q58 0 66 49q5 27 -8.5 40.5t-39.5 13.5h-319z" />
    <glyph glyph-name="C.001" horiz-adv-x="847" 
d="M447 -16q-224 0 -330.5 99t-76.5 267t171.5 267t365.5 99q173 -1 285 -54l-32 -182q-116 64 -284 64q-269 0 -304 -194q-17 -96 41.5 -145t194.5 -49q169 0 306 64l-32 -182q-130 -53 -305 -54z" />
    <glyph glyph-name="G.001" horiz-adv-x="927" 
d="M457 -16q-224 0 -330.5 99t-76.5 267t171.5 267t365.5 99q214 -2 325 -54l-32 -182q-51 28 -143.5 46t-180.5 18q-269 0 -304 -194q-17 -96 41.5 -145t194.5 -49q79 0 188 16l16 92h-328l29 163h498l-65 -369q-119 -74 -369 -74z" />
    <glyph glyph-name="J.001" horiz-adv-x="722" 
d="M237 -16q-174 1 -286 54l34 192q135 -74 282 -74q67 0 111 42.5t61 140.5l64 361h202l-64 -361q-61 -355 -404 -355z" />
    <glyph glyph-name="K.001" horiz-adv-x="972" 
d="M18 0l124 700h202l-59 -331l367 331h300l-305 -239l233 -461h-281l-143 312q-123 -89 -202 -122l-34 -190h-202z" />
    <glyph glyph-name="R.001" horiz-adv-x="931" 
d="M18 0l124 700h565q106 0 156.5 -51t35.5 -134t-84 -129.5t-172 -46.5h-105l-4 -21q75 0 123.5 -14.5t85 -55t61.5 -95.5t55 -153h-266q-67 175 -90 214q-32 54 -80 64q-18 4 -44 4h-110l-49 -282h-202zM296 435h329q57 0 67 51q10 52 -49 52h-329z" />
    <glyph glyph-name="S.001" horiz-adv-x="879" 
d="M363 -15q-107 1 -202.5 24.5t-145.5 49.5l32 185q52 -30 152 -58.5t184 -28.5q220 0 234 77q4 22 -20 33.5t-65.5 12.5t-95 3t-109.5 2.5t-107.5 12.5t-90 32.5t-56.5 62t-8 101.5q10 59 50.5 103t101.5 69t131 37t149 12q226 -2 337 -54l-32 -182q-51 28 -148 46
t-177 18q-99 0 -153 -19t-60 -49q-3 -19 21 -28.5t65.5 -11t95 -3.5t109 -3.5t106.5 -14.5t89.5 -34t56.5 -63t8 -101q-11 -66 -56.5 -113.5t-113 -72t-137 -35t-145.5 -10.5z" />
    <glyph glyph-name="i.loclTRK" horiz-adv-x="228" 
d="M173 536q-44 0 -63 23.5t-6 61.5t49 61.5t80 23.5q47 0 65 -23t4 -62t-48 -62t-81 -23zM-31 0l88 500h202l-88 -500h-202z" />
    <glyph glyph-name="c.001" horiz-adv-x="682" 
d="M294 -16q-136 0 -205.5 73t-48.5 193t116.5 193t231.5 73q135 0 206 -65t52 -172h-204q-1 32 -23.5 52t-59.5 20q-44 0 -76.5 -27.5t-40.5 -73.5t14.5 -73.5t66.5 -27.5q39 0 70 22t42 58h203q-20 -110 -114 -177.5t-230 -67.5z" />
    <glyph glyph-name="e.001" horiz-adv-x="685" 
d="M294 -16q-136 0 -205.5 73t-48.5 193t116.5 193t231.5 73q134 0 206 -62.5t55 -164.5l-15 -82h-394q9 -68 91 -68q86 0 93 36h208q-17 -93 -109 -142t-229 -49zM249 277l193 4q4 38 -17.5 59t-63.5 21q-39 0 -68.5 -22t-43.5 -62z" />
    <glyph glyph-name="g.001" horiz-adv-x="803" 
d="M339 -200q-155 0 -233.5 51.5t-63.5 138.5h202q-4 -22 26.5 -36t83.5 -14q92 0 127.5 39.5t56.5 154.5q-35 -64 -105 -97t-159 -33q-115 0 -171.5 65.5t-35.5 184.5q21 118 103 190t196 72q90 0 147 -49t59 -129h13l13 162h203l-75 -440q-22 -124 -119.5 -192t-267.5 -68
zM380 146q59 0 105 26.5t56 79.5q9 52 -28 77t-96 25t-104 -25t-54 -77q-10 -53 26.5 -79.5t94.5 -26.5z" />
    <glyph glyph-name="zero.tf" horiz-adv-x="945" 
d="M407 -16q-202 0 -299.5 99.5t-67.5 266.5q29 166 163 266t334 100q204 0 301 -98.5t67 -267.5q-30 -167 -162.5 -266.5t-335.5 -99.5zM413 11q197 0 317 92.5t148 246.5q28 153 -60 246t-285 93q-191 0 -314.5 -93.5t-151.5 -245.5q-28 -151 63.5 -245t282.5 -94z
M432 123q-126 0 -189 62t-45 165t103 165.5t212 62.5t190 -62.5t44 -165.5q-18 -103 -103 -165t-212 -62zM451 230q72 0 116.5 30.5t54.5 89.5t-23.5 90t-105.5 31q-147 0 -170 -121q-10 -59 23.5 -89.5t104.5 -30.5z" />
    <glyph glyph-name="one.tf" horiz-adv-x="945" 
d="M407 -16q-202 0 -299.5 99.5t-67.5 266.5q29 166 163 266t334 100q204 0 301 -98.5t67 -267.5q-30 -167 -162.5 -266.5t-335.5 -99.5zM412 11q197 0 317 92.5t148 246.5q28 153 -60 246t-285 93q-191 0 -314.5 -93.5t-151.5 -245.5q-28 -151 63.5 -245t282.5 -94z
M411 133l59 335l-242 -136l22 125l275 111h88l-77 -435h-125z" />
    <glyph glyph-name="two.tf" horiz-adv-x="945" 
d="M407 -16q-202 0 -299.5 99.5t-67.5 266.5q29 165 163.5 265.5t333.5 100.5q204 0 301 -98.5t67 -267.5q-30 -167 -162.5 -266.5t-335.5 -99.5zM412 11q197 0 317 92.5t148 246.5q28 153 -60 246t-285 93q-191 0 -314.5 -93.5t-151.5 -245.5q-28 -151 63.5 -245t282.5 -94
zM206 136l14 86q39 17 103.5 43t107.5 44t88 39t69.5 40t27.5 36q4 26 -23 36.5t-93 10.5q-46 0 -116.5 -8.5t-92.5 -16.5l20 112q67 20 214 22q129 1 182 -26.5t39 -103.5q-24 -141 -383 -207h328l-19 -107h-466z" />
    <glyph glyph-name="three.tf" horiz-adv-x="945" 
d="M407 -16q-202 0 -299.5 99.5t-67.5 266.5q29 165 163.5 265.5t333.5 100.5q204 0 301 -98.5t67 -267.5q-30 -167 -162.5 -266.5t-335.5 -99.5zM412 11q197 0 317 92.5t148 246.5q28 153 -60 246t-285 93q-191 0 -314.5 -93.5t-151.5 -245.5q-28 -151 63.5 -245t282.5 -94
zM437 123q-131 2 -198 27l19 107q58 -27 192 -27q141 0 147 32q2 12 -9.5 20t-45 15t-93.5 11.5t-156 9.5l11 63q84 4 142 8.5t90.5 9t50 10.5t22.5 11t6 12q2 14 -19 23.5t-48 12.5t-57 3q-128 0 -200 -28l19 107q81 28 207 28q56 0 94 -4t72.5 -16t48.5 -36.5t8 -62.5
q-5 -25 -21.5 -44.5t-42 -30t-48 -17.5t-51.5 -9t-38.5 -2.5t-22.5 -0.5v-6h17t25 -0.5t29.5 -2t33 -4.5t31 -7.5t29 -12t21 -17.5t13 -24.5t0.5 -31.5q-13 -73 -83 -100t-195 -26z" />
    <glyph glyph-name="four.tf" horiz-adv-x="945" 
d="M407 -16q-202 0 -299.5 99.5t-67.5 266.5q29 165 163.5 265.5t333.5 100.5q204 0 301 -98.5t67 -267.5q-30 -167 -162.5 -266.5t-335.5 -99.5zM412 11q197 0 317 92.5t148 246.5q28 153 -60 246t-285 93q-191 0 -314.5 -93.5t-151.5 -245.5q-28 -151 63.5 -245t282.5 -94
zM490 133l12 68h-336l14 83l325 284h188l-46 -261h55l-19 -106h-56l-11 -68h-126zM326 307h195l38 218z" />
    <glyph glyph-name="five.tf" horiz-adv-x="945" 
d="M407 -16q-202 0 -299.5 99.5t-67.5 266.5q29 165 163.5 265.5t333.5 100.5q204 0 301 -98.5t67 -267.5q-30 -167 -162.5 -266.5t-335.5 -99.5zM412 11q197 0 317 92.5t148 246.5q28 153 -60 246t-285 93q-191 0 -314.5 -93.5t-151.5 -245.5q-28 -151 63.5 -245t282.5 -94
zM414 119q-47 0 -106.5 7t-85.5 19l20 113q23 -11 84 -21t106 -10q133 0 141 42q5 27 -20 39.5t-87 12.5q-52 0 -193 -21l47 264h407l-19 -107h-310l-13 -68q69 22 143 22q31 0 56 -3t50.5 -12.5t41 -24.5t22.5 -41t1 -61q-13 -71 -90.5 -110.5t-194.5 -39.5z" />
    <glyph glyph-name="six.tf" horiz-adv-x="945" 
d="M407 -16q-202 0 -299.5 99.5t-67.5 266.5q29 165 163.5 265.5t333.5 100.5q204 0 301 -98.5t67 -267.5q-30 -167 -162.5 -266.5t-335.5 -99.5zM412 11q197 0 317 92.5t148 246.5q28 153 -60 246t-285 93q-191 0 -314.5 -93.5t-151.5 -245.5q-28 -151 63.5 -245t282.5 -94
zM444 126q-118 0 -176 58t-38 174q19 105 103 162t208 57q103 0 170 -36l-21 -115q-70 44 -165 44q-70 0 -115 -29t-55 -83v-3q78 64 169 64q101 0 143.5 -42.5t27.5 -111.5q-13 -64 -79.5 -101.5t-171.5 -37.5zM457 232q106 0 115 48q4 23 -16.5 36t-62.5 13
q-67 0 -136 -28q17 -69 100 -69z" />
    <glyph glyph-name="seven.tf" horiz-adv-x="945" 
d="M407 -16q-202 0 -299.5 99.5t-67.5 266.5q29 165 163.5 265.5t333.5 100.5q204 0 301 -98.5t67 -267.5q-30 -167 -162.5 -266.5t-335.5 -99.5zM412 11q197 0 317 92.5t148 246.5q28 153 -60 246t-285 93q-191 0 -314.5 -93.5t-151.5 -245.5q-28 -151 63.5 -245t282.5 -94
zM245 133l333 328h-307l20 107h503l-10 -56l-364 -379h-175z" />
    <glyph glyph-name="eight.tf" horiz-adv-x="945" 
d="M408 -16q-202 0 -299.5 99.5t-67.5 266.5q29 165 163.5 265.5t333.5 100.5q204 0 301 -98.5t67 -267.5q-30 -167 -162.5 -266.5t-335.5 -99.5zM414 11q197 0 317 92.5t148 246.5q28 153 -60 246t-285 93q-191 0 -314.5 -93.5t-151.5 -245.5q-28 -151 63.5 -245t282.5 -94
zM432 120q-115 -2 -176.5 31.5t-50.5 94.5q15 83 165 100q-32 5 -58 15.5t-45 35t-13 58.5q10 58 79.5 89t179.5 31q103 0 165 -31t52 -89q-9 -49 -54 -74.5t-101 -34.5q27 -3 48.5 -8.5t43.5 -16.5t32.5 -30t5.5 -45q-10 -60 -86 -94t-187 -32zM482 398q50 0 77.5 7
t33.5 14t7 18q2 11 -6.5 18.5t-24.5 11.5t-34.5 5.5t-39.5 1.5q-112 0 -118 -37q0 -5 -1.5 -10t4 -10.5t15 -9.5t32 -6.5t55.5 -2.5zM450 220q125 0 131 36q2 13 -3.5 20t-32.5 12.5t-81 5.5t-83.5 -5.5t-37.5 -12.5t-10 -20q-8 -36 117 -36z" />
    <glyph glyph-name="nine.tf" horiz-adv-x="945" 
d="M407 -16q-202 0 -299.5 99.5t-67.5 266.5q29 165 163.5 265.5t333.5 100.5q204 0 301 -98.5t67 -267.5q-30 -167 -162.5 -266.5t-335.5 -99.5zM413 11q197 0 317 92.5t148 246.5q28 153 -60 246t-285 93q-191 0 -314.5 -93.5t-151.5 -245.5q-28 -151 63.5 -245t282.5 -94
zM530 576q118 0 176 -58.5t38 -173.5q-19 -105 -103 -162t-208 -57q-103 0 -170 36l21 115q70 -44 165 -44q70 0 114.5 29t54.5 83l1 3q-78 -64 -170 -64q-101 0 -143 42.5t-27 111.5q13 64 79.5 101.5t171.5 37.5zM517 470q-106 0 -115 -48q-4 -23 16 -36t62 -13
q68 0 137 28q-17 69 -100 69z" />
    <glyph glyph-name="dollar.001" horiz-adv-x="863" 
d="M227 -110l17 102q-148 19 -242 67l33 185q52 -30 152 -58.5t184 -28.5q220 0 233 77q4 25 -27 36t-83 12t-116 1t-126 8t-111.5 27t-74.5 63.5t-13 112.5q17 93 103.5 146.5t214.5 68.5l22 126h202l-21 -123q162 -11 248 -51l-32 -182q-52 28 -148.5 46t-176.5 18
q-99 0 -153 -19t-60 -49q-3 -19 21 -28.5t65.5 -11t95 -3.5t109 -3.5t106.5 -14.5t89.5 -34t56.5 -63t8 -101q-10 -55 -43.5 -98t-84.5 -68.5t-107.5 -40t-121.5 -20.5l-17 -99h-202z" />
    <glyph glyph-name="Euro.001" horiz-adv-x="927" 
d="M537 -16q-179 0 -284 64.5t-125 179.5h-120l19 103h100l3 19q1 4 2.5 11t1.5 10h-100l18 103h121q60 114 188 178t306 64q173 -1 285 -54l-32 -182q-116 64 -284 64q-161 0 -239 -70h365l-18 -103h-407l-5 -21l-3 -19h408l-19 -103h-366q51 -72 216 -72q169 0 306 64
l-32 -182q-130 -53 -305 -54z" />
    <glyph glyph-name="brevecombcy" 
d="M-276 551q-93 0 -131 41t-3 108h105q-19 -41 -1 -61t66 -20q103 0 153 81h103q-37 -69 -114.5 -109t-177.5 -40z" />
    </font>
</defs>
</svg>
