<?xml version="1.0" standalone="no"?>
<!DOCTYPE svg PUBLIC "-//W3C//DTD SVG 1.1//EN" "http://www.w3.org/Graphics/SVG/1.1/DTD/svg11.dtd" >
<svg xmlns="http://www.w3.org/2000/svg" xmlns:xlink="http://www.w3.org/1999/xlink" version="1.1">
<metadata>
Created by FontForge 20190801 at Tue Sep 12 15:50:22 2017
 By www-data
Copyright (c) 2017 by Good Type Foundry Kenneth Knutsen. All rights reserved.
</metadata>
<defs>
<font id="GoodTypeFoundryAdieuRegularSlanted" horiz-adv-x="0" >
  <font-face 
    font-family="GoodTypeFoundryAdieuRegularSlanted"
    font-weight="400"
    font-style="oblique"
    font-stretch="normal"
    units-per-em="1000"
    panose-1="0 0 5 0 0 0 0 0 0 0"
    ascent="800"
    descent="-200"
    x-height="500"
    cap-height="700"
    bbox="-1085 -532 1715.65 1021"
    underline-thickness="50"
    underline-position="-100"
    unicode-range="U+0020-25CA"
  />
<missing-glyph horiz-adv-x="843" 
d="M422 -11q-151 0 -256.5 107t-105.5 255q0 147 106.5 254t255.5 107q147 0 254 -106t107 -255q0 -150 -107 -256t-254 -106zM422 63q119 0 203 84t84 204t-84 203.5t-203 83.5q-120 0 -204 -83.5t-84 -203.5t84 -204t204 -84zM329 394q-28 0 -47 18.5t-19 45.5
q0 26 19 44.5t47 18.5q26 0 45 -18.5t19 -44.5q0 -27 -19 -45.5t-45 -18.5zM521 394q-27 0 -45 18.5t-18 45.5q0 26 18 44.5t45 18.5t46 -18.5t19 -44.5q0 -27 -19 -45.5t-46 -18.5zM422 151q-94 0 -156 51.5t-62 136.5l64 9q4 -46 40 -80t114 -34q77 0 114.5 34.5
t39.5 79.5l63 -9q0 -85 -63 -136.5t-154 -51.5z" />
    <glyph glyph-name=".notdef" horiz-adv-x="843" 
d="M422 -11q-151 0 -256.5 107t-105.5 255q0 147 106.5 254t255.5 107q147 0 254 -106t107 -255q0 -150 -107 -256t-254 -106zM422 63q119 0 203 84t84 204t-84 203.5t-203 83.5q-120 0 -204 -83.5t-84 -203.5t84 -204t204 -84zM329 394q-28 0 -47 18.5t-19 45.5
q0 26 19 44.5t47 18.5q26 0 45 -18.5t19 -44.5q0 -27 -19 -45.5t-45 -18.5zM521 394q-27 0 -45 18.5t-18 45.5q0 26 18 44.5t45 18.5t46 -18.5t19 -44.5q0 -27 -19 -45.5t-46 -18.5zM422 151q-94 0 -156 51.5t-62 136.5l64 9q4 -46 40 -80t114 -34q77 0 114.5 34.5
t39.5 79.5l63 -9q0 -85 -63 -136.5t-154 -51.5z" />
    <glyph glyph-name=".null" 
 />
    <glyph glyph-name="nonmarkingreturn" horiz-adv-x="333" 
 />
    <glyph glyph-name="space" unicode=" " horiz-adv-x="300" 
 />
    <glyph glyph-name="exclam" unicode="!" horiz-adv-x="280" 
d="M64 294l61 406h157l-81 -406h-137zM74 -15q-34 0 -54 22t-14 56q6 33 33.5 55t62.5 22t55 -22t14 -55q-6 -34 -33 -56t-64 -22z" />
    <glyph glyph-name="quotedbl" unicode="&#x22;" horiz-adv-x="380" 
d="M23 430l31 270h133l-81 -270h-83zM211 430l31 270h132l-81 -270h-82z" />
    <glyph glyph-name="numbersign" unicode="#" horiz-adv-x="1009" 
d="M94 0l72 183h-165l32 97h171l48 123h-178l32 97h184l79 200h141l-79 -200h287l79 200h141l-79 -200h146l-32 -97h-152l-48 -123h159l-32 -97h-165l-72 -183h-141l72 183h-287l-72 -183h-141zM345 280h287l48 123h-287z" />
    <glyph glyph-name="dollar" unicode="$" horiz-adv-x="863" 
d="M830 476h-149q10 51 -41.5 85.5t-152.5 35.5q-240 3 -257 -92q-6 -32 25.5 -49.5t85.5 -24.5t120 -11.5t131.5 -15t117 -30.5t77.5 -63t14 -107q-18 -92 -112.5 -148.5t-240.5 -68.5l-17 -97h-172l17 99q-136 17 -204.5 79.5t-50.5 155.5h149q-10 -52 44.5 -85.5
t159.5 -34.5q264 -3 284 96q7 35 -23.5 55t-84.5 27.5t-121 11.5t-132.5 13.5t-118 27.5t-79.5 58.5t-15 102.5q18 89 103 145t217 71l21 123h172l-21 -124q132 -16 200.5 -78.5t53.5 -156.5z" />
    <glyph glyph-name="percent" unicode="%" horiz-adv-x="1039" 
d="M278 460q-86 0 -141 35t-45 90t77.5 90t153.5 35q93 0 145 -34.5t42 -90.5t-74.5 -90.5t-157.5 -34.5zM48 0l827 700h126l-827 -700h-126zM287 507q48 0 80.5 21t38.5 57q5 36 -20 57t-72 21q-46 0 -78.5 -21t-38.5 -57q-7 -36 18 -57t72 -21zM717 -11q-86 0 -141.5 35
t-45.5 90t78 90t154 35q93 0 144.5 -34.5t41.5 -90.5t-74 -90.5t-157 -34.5zM726 36q47 0 80 21.5t38 56.5q6 36 -19 57t-72 21q-46 0 -78.5 -21t-39.5 -57q-6 -36 19 -57t72 -21z" />
    <glyph glyph-name="ampersand" unicode="&#x26;" horiz-adv-x="901" 
d="M291 -12q-41 0 -79.5 4.5t-82 18.5t-73.5 36.5t-45.5 62t-6.5 91.5q15 87 102.5 146.5t187.5 54.5l-158 193l19 105h625l-23 -126h-423l286 -344q99 78 160 170l71 -100q-64 -91 -154 -161l117 -139h-187l-50 61q-143 -73 -286 -73zM320 113q89 0 178 43l-157 190
q-72 13 -134.5 -16t-71.5 -83q-23 -134 185 -134z" />
    <glyph glyph-name="quotesingle" unicode="'" horiz-adv-x="193" 
d="M23 430l31 270h133l-81 -270h-83z" />
    <glyph glyph-name="parenleft" unicode="(" horiz-adv-x="470" 
d="M334 -137q-173 1 -248 133.5t-36 353.5t161 353.5t295 133.5l-20 -116q-115 -1 -203.5 -102.5t-117.5 -268.5t23 -268.5t167 -102.5z" />
    <glyph glyph-name="parenright" unicode=")" horiz-adv-x="470" 
d="M-36 -137l20 116q118 1 204.5 100t117.5 271q30 173 -21 271.5t-169 99.5l20 116q173 -1 248 -133.5t36 -353.5t-161 -353.5t-295 -133.5z" />
    <glyph glyph-name="asterisk" unicode="*" horiz-adv-x="615" 
d="M203 194l68 195l-156 -158l-70 75l195 117l-220 -30l20 108l208 -30l-153 117l96 76l100 -159l2 195h118l-67 -195l156 159l70 -76l-196 -117l221 30l-20 -108l-209 30l154 -117l-96 -75l-100 158l-3 -195h-118z" />
    <glyph glyph-name="plus" unicode="+" horiz-adv-x="580" 
d="M188 71l36 203h-204l20 113h203l36 204h113l-36 -204h204l-20 -113h-203l-36 -203h-113z" />
    <glyph glyph-name="comma" unicode="," horiz-adv-x="248" 
d="M6 -169l111 270h125l-161 -270h-75z" />
    <glyph glyph-name="hyphen" unicode="-" horiz-adv-x="460" 
d="M20 274l20 113h400l-20 -113h-400z" />
    <glyph glyph-name="period" unicode="." horiz-adv-x="255" 
d="M113 -15q-34 0 -54 22t-14 56q6 33 33.5 55t62.5 22t55 -22t14 -55q-6 -34 -33 -56t-64 -22z" />
    <glyph glyph-name="slash" unicode="/" horiz-adv-x="1033" 
d="M-32 0l956 700h141l-956 -700h-141z" />
    <glyph glyph-name="zero" unicode="0" horiz-adv-x="973" 
d="M421 -16q-203 0 -304.5 100t-72.5 266t166.5 266t340.5 100q204 0 305.5 -100t72.5 -266t-166.5 -266t-341.5 -100zM442 104q138 0 231 65.5t114 180.5q20 115 -49.5 181t-207.5 66t-231 -66t-113 -181q-21 -115 48.5 -180.5t207.5 -65.5z" />
    <glyph glyph-name="one" unicode="1" horiz-adv-x="606" 
d="M314 0l100 568l-374 -217l25 141l433 208h82l-124 -700h-142z" />
    <glyph glyph-name="two" unicode="2" horiz-adv-x="850" 
d="M-17 0l15 87q43 20 122.5 55t133 59.5t125 58t119.5 60.5t94 57t71 58t29 52q10 59 -43.5 83.5t-190.5 24.5q-75 0 -188.5 -13.5t-147.5 -25.5l23 124q44 13 148.5 23.5t196.5 11.5q99 1 165.5 -7.5t113.5 -31t64 -62.5t7 -100q-11 -62 -73.5 -124t-158 -112.5
t-189 -88.5t-192.5 -69h513l-21 -120h-736z" />
    <glyph glyph-name="three" unicode="3" horiz-adv-x="813" 
d="M299 -16q-209 2 -319 44l22 120q44 -20 135 -32t173 -12q289 0 304 82q5 30 -15.5 49t-83.5 33.5t-168 23.5t-279 17l15 82q226 9 350 24.5t167.5 36t48.5 53.5q9 47 -55.5 70t-197.5 23q-79 0 -174.5 -12.5t-148.5 -32.5l22 119q62 22 157.5 33.5t175.5 11.5
q71 0 123 -3.5t103 -15.5t81 -32.5t45 -56t7 -84.5q-6 -35 -28.5 -63.5t-50 -45.5t-67.5 -29.5t-68.5 -18t-67 -8.5t-50 -3h-28.5l-1 -9q1 0 31 -0.5t48.5 -1.5t55 -5t60 -10.5t52.5 -19.5t45 -29.5t24.5 -43t2.5 -58.5q-10 -59 -46 -99t-97.5 -61t-133.5 -29t-169 -7z" />
    <glyph glyph-name="four" unicode="4" horiz-adv-x="873" 
d="M543 0l21 124h-586l15 89l589 487h227l-81 -456h104l-21 -120h-105l-21 -124h-142zM170 244h415l73 410z" />
    <glyph glyph-name="five" unicode="5" horiz-adv-x="817" 
d="M292 -16q-75 0 -171.5 11.5t-139.5 29.5l24 129q36 -18 134 -34t171 -16q142 0 214 30.5t84 99.5q11 58 -37.5 82.5t-159.5 24.5q-149 0 -346 -63l75 422h655l-21 -119h-546l-29 -169q130 42 276 42q50 0 90.5 -5t81 -20t65.5 -39.5t36.5 -66t1.5 -97.5
q-21 -114 -145.5 -178t-312.5 -64z" />
    <glyph glyph-name="six" unicode="6" horiz-adv-x="864" 
d="M390 -12q-190 0 -283.5 94t-60.5 280q30 170 165.5 261.5t335.5 91.5q165 0 273 -58l-23 -132q-114 70 -282 70q-127 0 -217.5 -63.5t-109.5 -169.5l-3 -20q64 49 151.5 83.5t183.5 34.5q163 0 231 -68.5t44 -179.5q-21 -103 -128.5 -163.5t-276.5 -60.5zM402 108
q116 0 178.5 28.5t74.5 93.5q11 60 -34 91.5t-145 31.5q-73 0 -159 -29t-134 -74q10 -73 63.5 -107.5t155.5 -34.5z" />
    <glyph glyph-name="seven" unicode="7" horiz-adv-x="819" 
d="M78 0l567 581h-590l21 119h787l-10 -59l-591 -641h-184z" />
    <glyph glyph-name="eight" unicode="8" horiz-adv-x="851" 
d="M361 -20q-177 -1 -273.5 50t-78.5 153q24 137 255 161q-36 6 -66 17.5t-59.5 31.5t-43 53t-6.5 75q16 93 123 142.5t279 49.5q160 0 255.5 -49.5t78.5 -142.5q-7 -42 -32.5 -75t-62 -53t-71 -31.5t-72.5 -17.5q40 -4 73.5 -13t67 -26.5t49 -48.5t8.5 -73
q-17 -97 -134 -151t-290 -52zM436 404q123 0 177.5 23t63.5 72q8 45 -50 71t-157 26t-167 -26t-76 -71q-9 -49 38 -72t171 -23zM382 97q114 0 183.5 25t77.5 71q9 47 -43 70t-185 23t-193 -23t-69 -70q-8 -46 53 -71t176 -25z" />
    <glyph glyph-name="nine" unicode="9" horiz-adv-x="864" 
d="M476 714q190 0 283.5 -94t60.5 -280q-30 -170 -165.5 -261.5t-335.5 -91.5q-165 0 -273 58l23 132q114 -70 282 -70q127 0 217.5 63.5t109.5 169.5l3 20q-64 -49 -151.5 -83.5t-183.5 -34.5q-163 0 -231 68.5t-44 179.5q21 103 128.5 163.5t276.5 60.5zM464 594
q-116 0 -178.5 -28.5t-74.5 -93.5q-11 -60 34 -91.5t145 -31.5q73 0 159 29t134 74q-10 73 -63.5 107.5t-155.5 34.5z" />
    <glyph glyph-name="colon" unicode=":" horiz-adv-x="305" 
d="M140 291q-34 0 -54 22t-14 56q6 33 33.5 55t62.5 22t55 -22t14 -55q-6 -34 -33 -56t-64 -22zM86 -15q-34 0 -54 22t-14 56q6 33 33.5 55t62.5 22t55 -22t14 -55q-6 -34 -33 -56t-64 -22z" />
    <glyph glyph-name="semicolon" unicode=";" horiz-adv-x="293" 
d="M175 291q-34 0 -54 22t-14 56q6 33 33.5 55t62.5 22t55 -22t14 -55q-6 -34 -33 -56t-64 -22zM-25 -169l111 270h125l-161 -270h-75z" />
    <glyph glyph-name="less" unicode="&#x3c;" horiz-adv-x="476" 
d="M192 0l-162 250l250 250h180l-258 -250l170 -250h-180z" />
    <glyph glyph-name="equal" unicode="=" horiz-adv-x="580" 
d="M42 397l21 113h520l-21 -113h-520zM-3 144l21 113h520l-21 -113h-520z" />
    <glyph glyph-name="greater" unicode="&#x3e;" horiz-adv-x="446" 
d="M-14 0l258 250l-170 250h180l162 -250l-250 -250h-180z" />
    <glyph glyph-name="question" unicode="?" horiz-adv-x="728" 
d="M198 232q4 52 30 88t62 52t78 29t78 21t62.5 26t31.5 46q12 61 -37.5 81t-203.5 20q-102 0 -249 -21l21 123q124 16 259 18q206 2 292 -42t64 -167q-12 -67 -54.5 -107.5t-95 -55.5t-104.5 -25t-89 -29.5t-42 -56.5h-103zM204 -15q-34 0 -54 22t-14 56q6 33 33.5 55
t62.5 22t55 -22t14 -55q-6 -34 -33 -56t-64 -22z" />
    <glyph glyph-name="at" unicode="@" horiz-adv-x="1073" 
d="M607 725q220 0 334.5 -107.5t86.5 -265.5q-14 -77 -65 -138t-139 -92h-194l48 147h-7q-64 -160 -259 -160q-21 0 -39 2t-39 9t-34.5 18t-20.5 31.5t-2 47.5q8 41 43.5 69.5t107 44.5t107 21t119.5 12q12 1 18 2q7 48 -17 68t-86 20q-93 0 -206 -46l16 94q130 45 238 45
q202 0 170 -193l-38 -212q78 41 112.5 88.5t47.5 121.5q22 121 -65.5 195t-254.5 74q-168 0 -282 -81t-138 -218t61.5 -218t252.5 -81q100 0 176 25l-20 -109q-83 -20 -174 -20q-224 0 -335.5 110t-79.5 293t183 293t374 110zM505 194q58 8 101 35.5t53 76.5
q-10 -1 -43 -3.5t-49 -4t-45 -5t-45 -8t-34.5 -11t-28 -16.5t-11.5 -22q-5 -26 23.5 -37.5t78.5 -4.5z" />
    <glyph glyph-name="A" unicode="A" horiz-adv-x="1090" 
d="M-30 0l551 700h172l303 -700h-164l-60 148h-517l-113 -148h-172zM344 268h380l-132 327z" />
    <glyph glyph-name="B" unicode="B" horiz-adv-x="926" 
d="M26 0l124 700h520q106 0 156.5 -51t35.5 -134q-26 -147 -222 -159q101 -2 151.5 -46t35.5 -124q-15 -84 -86 -135t-173 -51h-542zM240 405h342q119 0 133 86q9 46 -17.5 68t-84.5 22h-343zM190 121h364q118 0 135 94q8 46 -18 68.5t-84 22.5h-365z" />
    <glyph glyph-name="C" unicode="C" horiz-adv-x="932" 
d="M401 -16q-190 0 -288 100.5t-69 265.5t163 265.5t324 100.5t290 -88t75 -233h-144q12 95 -54 148.5t-188 53.5q-128 0 -216 -66t-108 -181q-21 -115 43.5 -180.5t192.5 -65.5q123 0 208 53t106 148h144q-25 -145 -157 -233t-322 -88z" />
    <glyph glyph-name="D" unicode="D" horiz-adv-x="869" 
d="M26 0l124 700h329q192 0 284 -90t62 -260q-30 -171 -154 -260.5t-316 -89.5h-329zM189 120h187q128 0 212 60.5t103 169.5q19 110 -43.5 170.5t-189.5 60.5h-188z" />
    <glyph glyph-name="E" unicode="E" horiz-adv-x="825" 
d="M26 0l124 700h660l-22 -119h-518l-30 -170h509l-19 -111h-509l-32 -180h518l-21 -120h-660z" />
    <glyph glyph-name="F" unicode="F" horiz-adv-x="773" 
d="M26 0l124 700h637l-21 -119h-496l-30 -170h487l-19 -111h-487l-53 -300h-142z" />
    <glyph glyph-name="G" unicode="G" horiz-adv-x="965" 
d="M411 -16q-190 0 -288 100.5t-69 265.5t163 265.5t324 100.5q180 0 280.5 -75t84.5 -197h-143q7 74 -57 113.5t-186 39.5q-128 0 -216 -66t-108 -181q-21 -115 43.5 -180.5t192.5 -65.5q115 0 197 43t109 123h-381l18 104h530l-67 -374h-108l23 132q-59 -74 -149.5 -111
t-192.5 -37z" />
    <glyph glyph-name="H" unicode="H" horiz-adv-x="930" 
d="M26 0l124 700h142l-50 -278h471l50 278h142l-124 -700h-142l53 302h-471l-53 -302h-142z" />
    <glyph glyph-name="I" unicode="I" horiz-adv-x="317" 
d="M26 0l124 700h142l-124 -700h-142z" />
    <glyph glyph-name="J" unicode="J" horiz-adv-x="830" 
d="M338 -16q-342 0 -281 355h143q-22 -127 16 -181t143 -54q104 0 161.5 54t79.5 181l43 242h-450l21 119h592l-64 -361q-61 -355 -404 -355z" />
    <glyph glyph-name="K" unicode="K" horiz-adv-x="957" 
d="M26 0l124 700h142l-70 -394l518 394h202l-330 -244l231 -456h-184l-175 362l-290 -214l-26 -148h-142z" />
    <glyph glyph-name="L" unicode="L" horiz-adv-x="697" 
d="M26 0l124 700h142l-103 -580h488l-21 -120h-630z" />
    <glyph glyph-name="M" unicode="M" horiz-adv-x="1057" 
d="M26 0l124 700h146l208 -492l382 492h146l-124 -700h-142l83 474l-369 -474h-27l-202 472l-83 -472h-142z" />
    <glyph glyph-name="N" unicode="N" horiz-adv-x="971" 
d="M26 0l124 700h129l435 -505l89 505h142l-124 -700h-130l-434 503l-89 -503h-142z" />
    <glyph glyph-name="O" unicode="O" horiz-adv-x="973" 
d="M421 -16q-203 0 -304.5 100t-72.5 266t166.5 266t340.5 100q204 0 305.5 -100t72.5 -266t-166.5 -266t-341.5 -100zM442 104q138 0 231 65.5t114 180.5q20 115 -49.5 181t-207.5 66t-231 -66t-113 -181q-21 -115 48.5 -180.5t207.5 -65.5z" />
    <glyph glyph-name="P" unicode="P" horiz-adv-x="878" 
d="M26 0l124 700h500q106 0 159.5 -62t37.5 -152q-18 -103 -93 -158t-180 -55h-358l-48 -273h-142zM236 390h333q62 0 94 22.5t42 73.5q9 51 -15 74t-86 23h-334z" />
    <glyph glyph-name="Q" unicode="Q" horiz-adv-x="993" 
d="M551 716q204 0 305.5 -100t72.5 -266q-21 -114 -95 -201l75 -53l-101 -103l-83 66q-130 -75 -304 -75q-203 0 -304.5 100t-72.5 266t166.5 266t340.5 100zM561 339l168 -117q45 54 58 128q20 115 -49.5 181t-207.5 66t-231 -66t-113 -181q-21 -115 48.5 -180.5
t207.5 -65.5q102 0 181 37l-142 113z" />
    <glyph glyph-name="R" unicode="R" horiz-adv-x="941" 
d="M26 0l124 700h550q106 0 156.5 -51t35.5 -134t-84 -129.5t-172 -46.5h-74q41 -3 72.5 -12.5t58 -30.5t46 -44.5t39.5 -65.5t36 -82t38 -104h-170q-67 175 -91 217q-37 62 -91 75q-22 5 -52 5h-228l-52 -297h-142zM240 413h374q118 0 132 81q8 46 -16 67.5t-86 21.5h-375z
" />
    <glyph glyph-name="S" unicode="S" horiz-adv-x="871" 
d="M357 -16q-173 2 -264.5 68t-71.5 172h149q-10 -52 44.5 -85.5t159.5 -34.5q264 -3 284 96q7 35 -23.5 55t-84.5 27.5t-121 11.5t-132.5 13.5t-118 27.5t-79.5 58.5t-15 102.5q21 106 135.5 164.5t285.5 55.5q164 -3 252.5 -68.5t72.5 -171.5h-149q10 51 -41.5 85.5
t-152.5 35.5q-240 3 -257 -92q-6 -32 25.5 -49.5t85.5 -24.5t120 -11.5t131.5 -15t117 -30.5t77.5 -63t14 -107q-21 -106 -142 -164t-302 -56z" />
    <glyph glyph-name="T" unicode="T" horiz-adv-x="888" 
d="M311 0l103 581h-341l22 119h823l-22 -119h-340l-103 -581h-142z" />
    <glyph glyph-name="U" unicode="U" horiz-adv-x="909" 
d="M392 -16q-71 0 -124 11.5t-95.5 39t-63 72t-27.5 110.5t11 155l58 328h142l-64 -358q-21 -120 24 -178t160 -58t180 58t86 178l64 358h142l-58 -328q-20 -110 -57.5 -186t-94.5 -120t-125.5 -63t-157.5 -19z" />
    <glyph glyph-name="V" unicode="V" horiz-adv-x="1050" 
d="M340 0l-245 700h171l210 -630l432 630h172l-493 -700h-247z" />
    <glyph glyph-name="W" unicode="W" horiz-adv-x="1266" 
d="M245 0l-135 700h154l96 -516l266 516h139l84 -516l278 516h154l-383 -700h-160l-80 493l-254 -493h-159z" />
    <glyph glyph-name="X" unicode="X" horiz-adv-x="934" 
d="M-15 0l386 352l-260 348h185l189 -252l278 252h185l-390 -354l258 -346h-183l-188 251l-277 -251h-183z" />
    <glyph glyph-name="Y" unicode="Y" horiz-adv-x="935" 
d="M335 0l40 226l-288 474h174l207 -349l330 349h174l-454 -472l-41 -228h-142z" />
    <glyph glyph-name="Z" unicode="Z" horiz-adv-x="891" 
d="M-20 0l16 87l659 494h-564l22 119h787l-15 -85l-655 -495h577l-21 -120h-806z" />
    <glyph glyph-name="bracketleft" unicode="[" horiz-adv-x="513" 
d="M-48 -190l156 890h453l-14 -82h-311l-128 -726h311l-14 -82h-453z" />
    <glyph glyph-name="backslash" unicode="\" horiz-adv-x="1033" 
d="M800 0l-708 700h141l708 -700h-141z" />
    <glyph glyph-name="bracketright" unicode="]" horiz-adv-x="513" 
d="M-48 -190l14 82h311l128 726h-311l14 82h453l-156 -890h-453z" />
    <glyph glyph-name="asciicircum" unicode="^" horiz-adv-x="560" 
d="M-5 317l21 118l299 274l201 -274l-21 -118l-207 242z" />
    <glyph glyph-name="underscore" unicode="_" horiz-adv-x="1060" 
d="M20 0l20 113h1000l-20 -113h-1000z" />
    <glyph glyph-name="grave" unicode="`" horiz-adv-x="387" 
d="M314 544l-259 164l18 102l255 -186z" />
    <glyph glyph-name="a" unicode="a" horiz-adv-x="679" 
d="M183 -16q-33 0 -60.5 4.5t-55.5 17.5t-41 41t-6 69q9 50 53.5 85t129 53.5t132 25t144.5 14.5q14 1 20 2q10 58 -20 82.5t-105 24.5q-113 0 -250 -55l20 114q157 54 289 54q246 0 206 -234l-50 -282h-140l58 179h-9q-77 -195 -315 -195zM296 87q71 9 123.5 43t64.5 94
q-12 -1 -52 -4t-59.5 -5t-55 -6.5t-55 -10t-42 -13.5t-34 -20t-14.5 -27q-5 -31 29 -45t95 -6z" />
    <glyph glyph-name="b" unicode="b" horiz-adv-x="775" 
d="M410 -16q-101 0 -170 46.5t-71 132.5h-11l-7 -163h-146l123 700h142l-64 -361v-1h4q33 85 114 131.5t178 46.5q110 0 172 -73t41 -189q-21 -119 -108.5 -194.5t-196.5 -75.5zM370 94q78 0 135.5 43t70.5 115q12 71 -30.5 113t-120.5 42q-74 0 -134 -42.5t-72 -112.5
q-13 -71 32 -114.5t119 -43.5z" />
    <glyph glyph-name="c" unicode="c" horiz-adv-x="624" 
d="M303 -16q-136 0 -208 73t-51 193q21 121 117 193.5t237 72.5q64 0 112.5 -12.5t106.5 -41.5l-20 -117q-99 62 -192 62q-98 0 -152.5 -37.5t-69.5 -119.5t27.5 -119t141.5 -37q107 0 211 58l-20 -114q-74 -30 -122.5 -42t-117.5 -12z" />
    <glyph glyph-name="d" unicode="d" horiz-adv-x="775" 
d="M239 -16q-109 0 -170 75.5t-39 194.5q20 116 107.5 189t197.5 73q97 0 161.5 -46.5t67.5 -131.5h4l1 1l63 361h142l-124 -700h-146l50 163h-11q-32 -86 -117.5 -132.5t-186.5 -46.5zM318 94q74 0 134.5 43.5t72.5 114.5q13 70 -32 112.5t-119 42.5q-78 0 -135.5 -42
t-70.5 -113q-13 -72 29 -115t121 -43z" />
    <glyph glyph-name="e" unicode="e" horiz-adv-x="690" 
d="M298 -16q-136 0 -205.5 73t-48.5 193t116.5 193t231.5 73q134 0 206 -62.5t55 -164.5l-15 -82h-465q1 -61 47.5 -88t146.5 -27q29 0 56.5 2.5t45.5 6t41 10.5t33.5 11t33 13t29.5 12l-20 -114q-79 -29 -137.5 -39t-150.5 -10zM182 276l335 8q9 66 -26 94.5t-118 28.5
q-80 0 -126 -30.5t-65 -100.5z" />
    <glyph glyph-name="f" unicode="f" horiz-adv-x="443" 
d="M47 0l70 397h-65l19 103h64l4 20q16 94 54.5 136.5t111.5 49.5q51 7 143 -13l-14 -78q-65 3 -93.5 -6t-40.5 -31t-22 -78h136l-17 -93h-136l-72 -407h-142z" />
    <glyph glyph-name="g" unicode="g" horiz-adv-x="761" 
d="M305 -200q-80 0 -133.5 10.5t-115.5 33.5l22 123q32 -26 96.5 -42t138.5 -16q106 0 160.5 42.5t73.5 130.5l14 66q-36 -78 -117.5 -118.5t-178.5 -40.5q-109 0 -171 73t-41 192q21 116 109 189t198 73q97 0 161.5 -46.5t66.5 -131.5h14l16 162h136l-77 -440
q-23 -131 -122 -195.5t-250 -64.5zM342 94q74 0 134.5 43.5t73.5 114.5q12 70 -33.5 112.5t-119.5 42.5q-78 0 -134.5 -42t-69.5 -113q-13 -72 29 -115t120 -43z" />
    <glyph glyph-name="h" unicode="h" horiz-adv-x="707" 
d="M3 0l124 700h156l-92 -406h8q75 222 285 222q108 -2 146 -70.5t10 -228.5l-39 -217h-142l36 200q19 113 -4.5 161t-96.5 48q-81 0 -141.5 -74t-82.5 -197v2l-25 -140h-142z" />
    <glyph glyph-name="i" unicode="i" horiz-adv-x="290" 
d="M182 586q-42 0 -61 20.5t-12 60.5q7 39 33.5 59.5t67.5 20.5q42 0 62 -20t13 -60q-15 -81 -103 -81zM9 0l88 500h142l-88 -500h-142z" />
    <glyph glyph-name="j" unicode="j" horiz-adv-x="295" 
d="M200 586q-41 0 -60 20.5t-12 60.5q13 80 100 80q42 0 62.5 -20.5t13.5 -59.5q-15 -81 -104 -81zM-107 -200l15 87q48 0 77.5 24t36.5 64l93 525h142l-90 -510q-15 -87 -92.5 -138.5t-181.5 -51.5z" />
    <glyph glyph-name="k" unicode="k" horiz-adv-x="730" 
d="M3 0l124 700h142l-77 -433l310 233h203l-231 -164l151 -336h-174l-99 248l-186 -131l-21 -117h-142z" />
    <glyph glyph-name="l" unicode="l" horiz-adv-x="272" 
d="M3 0l124 700h142l-124 -700h-142z" />
    <glyph glyph-name="m" unicode="m" horiz-adv-x="1165" 
d="M20 0l88 500h156l-57 -206h8q75 222 285 222q94 -2 134.5 -53t30.5 -169h6q75 222 285 222q108 -2 146 -70.5t10 -228.5l-38 -217h-142l35 200q20 114 -3.5 162.5t-97.5 46.5q-81 0 -141.5 -74t-82.5 -197l-24 -138h-142l35 200q20 114 -3.5 162.5t-97.5 46.5
q-81 0 -141.5 -74t-82.5 -197l-24 -138h-142z" />
    <glyph glyph-name="n" unicode="n" horiz-adv-x="709" 
d="M20 0l88 500h156l-57 -206h8q75 222 285 222q108 -2 146 -70.5t10 -228.5l-38 -217h-142l35 200q19 113 -4.5 161t-96.5 48q-79 0 -139 -70t-83 -188l-26 -151h-142z" />
    <glyph glyph-name="o" unicode="o" horiz-adv-x="715" 
d="M310 -16q-141 0 -214 73t-52 193t120 193t240 73q142 0 215 -73t52 -193t-120 -193t-241 -73zM330 94q81 0 139 43t70 113q12 71 -30 114t-124 43q-81 0 -139 -43.5t-70 -113.5t30 -113t124 -43z" />
    <glyph glyph-name="p" unicode="p" horiz-adv-x="775" 
d="M2 -200l124 700h146l-51 -163h11q32 86 117 132.5t186 46.5q109 0 170.5 -75.5t40.5 -194.5q-20 -115 -108 -188.5t-198 -73.5q-97 0 -161.5 46.5t-67.5 131.5h-4v-1l-63 -361h-142zM402 94q79 0 135.5 41.5t69.5 112.5q13 73 -29 116t-120 43q-74 0 -134 -43.5
t-74 -115.5q-12 -70 33 -112t119 -42z" />
    <glyph glyph-name="q" unicode="q" horiz-adv-x="775" 
d="M365 516q101 0 170 -46.5t71 -132.5h11l7 163h146l-123 -700h-142l64 361v1h-4q-33 -85 -114 -131.5t-178 -46.5q-110 0 -172 73t-41 189q21 119 108.5 194.5t196.5 75.5zM405 406q-78 0 -135.5 -43t-70.5 -115q-12 -71 30.5 -113t120.5 -42q74 0 134 42.5t72 112.5
q13 71 -32 114.5t-119 43.5z" />
    <glyph glyph-name="r" unicode="r" horiz-adv-x="534" 
d="M20 0l88 500h156l-57 -206h10q41 123 115 172.5t214 49.5l-20 -119q-154 0 -232 -51.5t-101 -168.5l-31 -177h-142z" />
    <glyph glyph-name="s" unicode="s" horiz-adv-x="672" 
d="M287 -16q-133 0 -261 39l20 114q105 -43 238 -43q95 0 138 12t49 43q4 25 -27 37.5t-80 14t-105.5 8t-104 17t-75 42t-18.5 82.5q15 82 101.5 124t222.5 42q107 0 245 -28l-20 -110q-118 26 -230 26q-169 0 -178 -52q-4 -22 26.5 -33.5t79.5 -13.5t105.5 -9t103.5 -18.5
t74.5 -44.5t18.5 -84q-14 -84 -99.5 -124.5t-223.5 -40.5z" />
    <glyph glyph-name="t" unicode="t" horiz-adv-x="433" 
d="M203 -10q-94 0 -115.5 39t-1.5 151l38 217h-72l19 103h91l22 120l125 20l-25 -140h145l-19 -103h-144l-33 -187q-19 -89 -1.5 -110t123.5 -15l-13 -75q-63 -20 -139 -20z" />
    <glyph glyph-name="u" unicode="u" horiz-adv-x="709" 
d="M689 500l-88 -500h-156l57 206h-8q-75 -222 -285 -222q-108 2 -146 70.5t-10 228.5l38 217h142l-35 -200q-19 -113 4.5 -161t96.5 -48q79 0 139 70t83 188l26 151h142z" />
    <glyph glyph-name="v" unicode="v" horiz-adv-x="790" 
d="M253 0l-176 500h151l141 -400l281 400h152l-352 -500h-197z" />
    <glyph glyph-name="w" unicode="w" horiz-adv-x="1076" 
d="M195 0l-126 500h142l93 -378l219 378h109l94 -381l228 381h141l-302 -500h-184l-67 288l-162 -288h-185z" />
    <glyph glyph-name="x" unicode="x" horiz-adv-x="791" 
d="M-18 0l315 251l-227 249h184l155 -170l217 170h183l-323 -255l223 -245h-183l-152 166l-210 -166h-182z" />
    <glyph glyph-name="y" unicode="y" horiz-adv-x="772" 
d="M152 -200l148 201l-213 499h157l144 -368l271 368h150l-508 -700h-149z" />
    <glyph glyph-name="z" unicode="z" horiz-adv-x="716" 
d="M-14 0l10 60l465 333h-398l19 107h648l-10 -57l-463 -336h393l-18 -107h-646z" />
    <glyph glyph-name="braceleft" unicode="{" horiz-adv-x="690" 
d="M584 -80q-111 0 -179 12.5t-99.5 37.5t-38.5 63t3 90q17 95 -45 143.5t-201 48.5l12 68q134 2 196.5 49t78.5 136q10 58 28.5 93.5t60 63.5t114 40t185.5 12l-11 -62q-99 3 -150 -9t-76.5 -43t-36.5 -95q-6 -32 -8 -43t-10 -38t-15.5 -38.5t-23 -31t-35 -29.5t-49 -21
t-66.5 -17q78 -4 119.5 -34t48.5 -79t-3 -114q-15 -88 28.5 -116.5t183.5 -25.5z" />
    <glyph glyph-name="bar" unicode="|" horiz-adv-x="262" 
d="M-18 -170l156 890h142l-156 -890h-142z" />
    <glyph glyph-name="braceright" unicode="}" horiz-adv-x="705" 
d="M27 -80l3 61q139 -3 189 25.5t54 116.5q4 105 52 163t163 64q-61 10 -97 32t-47.5 50.5t-15 63.5t0.5 72q5 93 -40 122t-190 25l2 62q91 0 153.5 -8.5t100.5 -23.5t58 -42.5t26 -58t4 -76.5q-3 -89 49 -136t185 -49l-3 -68q-280 0 -288 -192q-2 -44 -11 -74.5
t-31.5 -56.5t-62 -40.5t-102.5 -23t-152 -8.5z" />
    <glyph glyph-name="asciitilde" unicode="~" horiz-adv-x="441" 
d="M276 310q-31 0 -52.5 18t-37.5 36t-32 18q-28 0 -47.5 -18t-26.5 -53h-61q10 58 51 94t95 36q21 0 39 -11.5t28 -24.5t24.5 -24.5t30.5 -11.5q62 0 75 71h60q-11 -59 -51.5 -94.5t-94.5 -35.5z" />
    <glyph glyph-name="exclamdown" unicode="&#xa1;" horiz-adv-x="275" 
d="M200 522q37 0 56.5 -22t13.5 -56q-6 -33 -33.5 -55t-62.5 -22t-55 22t-14 55q6 34 33.5 56t61.5 22zM81 213h137l-62 -406h-157z" />
    <glyph glyph-name="cent" unicode="&#xa2;" horiz-adv-x="589" 
d="M395 497q-98 0 -152.5 -37.5t-69.5 -119.5t27.5 -119t141.5 -37q107 0 211 58l-20 -114q-104 -43 -172 -50l-18 -108h-172l20 117q-89 25 -131 92t-26 161q16 96 81.5 163t165.5 91l18 106h172l-17 -98q69 -9 153 -50l-20 -117q-99 62 -192 62z" />
    <glyph glyph-name="sterling" unicode="&#xa3;" horiz-adv-x="902" 
d="M22 0l21 119q99 41 117 110h-133l18 102h120l-5 41h-107l18 102h86q2 22 4 32q20 114 118.5 162.5t296.5 46.5q91 -1 192.5 -11.5t140.5 -23.5l-22 -124q-29 12 -138 25.5t-184 13.5q-132 0 -190.5 -26t-75.5 -95h492l-18 -102h-481q0 -27 -1 -41h474l-18 -102h-476
q-24 -73 -91 -112h623l-21 -117h-760z" />
    <glyph glyph-name="currency" unicode="&#xa4;" horiz-adv-x="720" 
d="M97 26l-83 100l95 81q-28 51 -16 123q14 76 65 129l-70 85l118 100l88 -107q52 13 103 13q59 0 101 -12l125 106l83 -100l-99 -84q30 -50 16 -130q-12 -74 -56 -124l65 -80l-117 -100l-82 98q-51 -14 -114 -14q-61 0 -105 15zM334 196q71 0 120.5 37t60.5 97
q11 61 -25 97.5t-108 36.5t-120.5 -36.5t-59.5 -97.5q-11 -60 25 -97t107 -37z" />
    <glyph glyph-name="yen" unicode="&#xa5;" horiz-adv-x="895" 
d="M972 700l-323 -336h183l-18 -102h-263l-33 -34l-1 -7h289l-18 -102h-290l-21 -119h-142l21 119h-278l18 102h278l1 5l-22 36h-249l18 102h169l-204 336h174l199 -336h20l318 336h174z" />
    <glyph glyph-name="brokenbar" unicode="&#xa6;" horiz-adv-x="262" 
d="M67 313l71 407h142l-71 -407h-142zM-18 -170l73 418h142l-73 -418h-142z" />
    <glyph glyph-name="section" unicode="&#xa7;" horiz-adv-x="644" 
d="M259 0q-133 0 -261 39l20 109q59 -24 115.5 -33.5t144.5 -9.5q87 0 121 7.5t37 26.5q5 27 -38.5 40.5t-107.5 20t-126.5 18t-102 45t-29.5 90.5q9 56 66 80q-45 41 -36 93q14 80 100.5 122t222.5 42q107 0 245 -28l-19 -109q-118 26 -245 26q-88 0 -122 -8.5t-38 -34.5
q-3 -14 20 -22t61.5 -12t84.5 -8t91.5 -14.5t81.5 -27t54.5 -49.5t10.5 -78q-9 -50 -60 -83q39 -42 30 -90q-13 -75 -99 -113.5t-222 -38.5zM305 280q144 -10 162 56q9 34 -22.5 52.5t-108.5 26.5q-76 6 -112 -8t-47 -49q-8 -34 22.5 -52.5t105.5 -25.5z" />
    <glyph glyph-name="dieresis" unicode="&#xa8;" horiz-adv-x="588" 
d="M134 538q-44 0 -67.5 23.5t-16.5 61.5t38.5 61.5t75.5 23.5q47 0 69 -23t15 -62t-37 -62t-77 -23zM424 538q-44 0 -67.5 23.5t-16.5 61.5t38.5 61.5t75.5 23.5q47 0 69 -23t15 -62t-37 -62t-77 -23z" />
    <glyph glyph-name="copyright" unicode="&#xa9;" horiz-adv-x="965" 
d="M417 -16q-202 0 -299.5 99.5t-67.5 266.5q29 166 163 266t334 100q204 0 301 -98.5t67 -267.5q-30 -167 -162.5 -266.5t-335.5 -99.5zM422 11q197 0 317 92.5t148 246.5q28 153 -60 246t-285 93q-191 0 -314.5 -93.5t-151.5 -245.5q-28 -151 63.5 -245t282.5 -94zM440 85
q-136 0 -205.5 73t-48.5 193t116.5 193t231.5 73q135 0 206 -65t52 -172h-144q5 59 -31.5 95.5t-100.5 36.5q-71 0 -123 -44t-65 -117t23.5 -117t107.5 -44q67 0 117.5 38.5t64.5 101.5h143q-19 -110 -113.5 -177.5t-230.5 -67.5z" />
    <glyph glyph-name="guillemotleft" unicode="&#xab;" horiz-adv-x="855" 
d="M207 0l-162 250l250 250h180l-258 -250l170 -250h-180zM586 0l-162 250l250 250h180l-258 -250l170 -250h-180z" />
    <glyph glyph-name="logicalnot" unicode="&#xac;" horiz-adv-x="670" 
d="M497 76l40 228h-496l19 113h610l-20 -113l-40 -228h-113z" />
    <glyph glyph-name="registered" unicode="&#xae;" horiz-adv-x="965" 
d="M417 -16q-202 0 -299.5 99.5t-67.5 266.5q29 166 163 266t334 100q203 0 300.5 -99t67.5 -267q-30 -167 -162.5 -266.5t-335.5 -99.5zM422 11q197 0 317 92.5t148 246.5q28 153 -60 246t-285 93q-191 0 -314.5 -93.5t-151.5 -245.5q-28 -151 63.5 -245t282.5 -94z
M219 133l77 435h342q66 0 97 -32t22 -83q-10 -52 -52.5 -81t-106.5 -29h-46q71 -4 105.5 -48.5t74.5 -161.5h-106q-45 120 -63 145q-33 37 -82 39h-141l-33 -184h-88zM352 389h232q74 0 82 51q5 29 -10 42t-53 13h-233z" />
    <glyph glyph-name="macron" unicode="&#xaf;" horiz-adv-x="632" 
d="M45 646l10 54h532l-10 -54h-532z" />
    <glyph glyph-name="degree" unicode="&#xb0;" horiz-adv-x="518" 
d="M237 460q-86 0 -141.5 35t-45.5 90t77.5 90t153.5 35q93 0 145 -34.5t42 -90.5t-74 -90.5t-157 -34.5zM245 507q48 0 81 21t38 57q6 36 -19 57t-72 21q-46 0 -78.5 -21t-39.5 -57q-6 -36 19 -57t71 -21z" />
    <glyph glyph-name="plusminus" unicode="&#xb1;" horiz-adv-x="600" 
d="M223 196l26 145h-146l18 100h145l26 145h100l-26 -145h145l-18 -100h-144l-26 -145h-100zM-22 0l13 73h521l-14 -73h-520z" />
    <glyph glyph-name="acute" unicode="&#xb4;" horiz-adv-x="387" 
d="M27 544l14 80l319 186l-18 -102z" />
    <glyph glyph-name="paragraph" unicode="&#xb6;" horiz-adv-x="939" 
d="M316 -180l80 453h-129q-105 0 -160 55t-37 158q15 90 91 152t182 62h275l-156 -880h-146zM689 -180l156 880h142l-156 -880h-142z" />
    <glyph glyph-name="periodcentered" unicode="&#xb7;" horiz-adv-x="255" 
d="M113 231q-34 0 -54 22t-14 56q6 33 33.5 55t62.5 22t55 -22t14 -55q-6 -34 -33 -56t-64 -22z" />
    <glyph glyph-name="cedilla" unicode="&#xb8;" horiz-adv-x="526" 
d="M22 -287l9 55q277 1 287 55q3 18 -21 30t-85 19.5t-161 8.5l10 53l75 101h107l-72 -104q146 -8 225 -36t71 -72q-8 -47 -131.5 -78t-313.5 -32z" />
    <glyph glyph-name="guillemotright" unicode="&#xbb;" horiz-adv-x="885" 
d="M1 0l258 250l-170 250h180l162 -250l-250 -250h-180zM380 0l258 250l-170 250h180l162 -250l-250 -250h-180z" />
    <glyph glyph-name="onequarter" unicode="&#xbc;" horiz-adv-x="1603" 
d="M355 -22l818 744h116l-818 -744h-116zM247 161l69 388l-256 -148l17 96l296 142h56l-85 -478h-97zM1324 61l14 85h-400l10 60l403 333h155l-56 -311h71l-14 -82h-72l-14 -85h-97zM1069 228h284l49 280z" />
    <glyph glyph-name="onehalf" unicode="&#xbd;" horiz-adv-x="1734" 
d="M354 -22l818 744h116l-818 -744h-116zM247 161l69 388l-256 -148l17 96l296 142h56l-85 -478h-97zM1127 61l11 59q29 13 83 37.5t91 41t85.5 39.5t81.5 41.5t64.5 39t48.5 39.5t20 36q7 40 -29.5 56.5t-130.5 16.5q-51 0 -129 -9t-101 -17l16 84q30 10 102 17t134 7
q68 1 113.5 -5t77.5 -21t43.5 -42.5t4.5 -68.5q-7 -43 -50 -85t-108 -76.5t-129 -60.5t-132 -47h350l-14 -82h-503z" />
    <glyph glyph-name="threequarters" unicode="&#xbe;" horiz-adv-x="1610" 
d="M362 -22l818 744h116l-818 -744h-116zM224 150q-142 2 -218 30l15 82q30 -14 92 -22t119 -8q198 0 207 56q3 21 -10.5 34t-57 22.5t-114.5 16t-191 11.5l11 56q154 6 238.5 16.5t114 24.5t33.5 37q6 32 -38 47.5t-135 15.5q-54 0 -119.5 -8.5t-100.5 -21.5l15 81
q90 31 227 31q61 0 103.5 -4.5t80 -18t53.5 -40.5t9 -68q-6 -33 -33 -57t-55.5 -34.5t-69.5 -16.5t-55.5 -6.5t-32.5 -0.5l-1 -6q1 0 25.5 -0.5t40 -2t43.5 -5t46 -11.5t36 -20t25 -31.5t2 -44.5q-7 -40 -31.5 -67.5t-66.5 -41.5t-91 -19.5t-116 -5.5zM1331 58l14 85h-400
l10 60l403 333h155l-56 -311h71l-14 -82h-72l-14 -85h-97zM1076 225h284l49 280z" />
    <glyph glyph-name="questiondown" unicode="&#xbf;" horiz-adv-x="742" 
d="M508 522q34 0 54 -22t14 -56q-6 -33 -33.5 -55t-62.5 -22t-55 22t-14 55q6 34 33 56t64 22zM514 275q-4 -52 -30 -88t-62 -52t-78 -29t-78 -21t-62.5 -26t-31.5 -46q-12 -61 37.5 -81t203.5 -20q102 0 249 21l-21 -123q-124 -16 -259 -18q-206 -2 -292 42t-64 167
q12 67 54.5 107.5t95 55.5t104.5 25t89 29.5t42 56.5h103z" />
    <glyph glyph-name="Agrave" unicode="&#xc0;" horiz-adv-x="1090" 
d="M618 744l-259 164l18 102l255 -186zM-30 0l551 700h172l303 -700h-164l-60 148h-517l-113 -148h-172zM344 268h380l-132 327z" />
    <glyph glyph-name="Aacute" unicode="&#xc1;" horiz-adv-x="1090" 
d="M588 744l14 80l319 186l-18 -102zM-30 0l551 700h172l303 -700h-164l-60 148h-517l-113 -148h-172zM344 268h380l-132 327z" />
    <glyph glyph-name="Acircumflex" unicode="&#xc2;" horiz-adv-x="1090" 
d="M327 755l14 80l319 186l255 -186l-14 -80l-259 164zM-30 0l551 700h172l303 -700h-164l-60 148h-517l-113 -148h-172zM344 268h380l-132 327z" />
    <glyph glyph-name="Atilde" unicode="&#xc3;" horiz-adv-x="1090" 
d="M701 772q-31 0 -52.5 18t-37.5 36t-32 18q-28 0 -47.5 -18t-26.5 -53h-61q10 58 51 94t95 36q21 0 39 -11.5t28 -24.5t24.5 -24.5t30.5 -11.5q62 0 75 71h60q-11 -59 -51.5 -94.5t-94.5 -35.5zM-30 0l551 700h172l303 -700h-164l-60 148h-517l-113 -148h-172zM344 268
h380l-132 327z" />
    <glyph glyph-name="Adieresis" unicode="&#xc4;" horiz-adv-x="1090" 
d="M470 738q-44 0 -67.5 23.5t-16.5 61.5t38.5 61.5t75.5 23.5q47 0 69 -23t15 -62t-37 -62t-77 -23zM760 738q-44 0 -67.5 23.5t-16.5 61.5t38.5 61.5t75.5 23.5q47 0 69 -23t15 -62t-37 -62t-77 -23zM-30 0l551 700h172l303 -700h-164l-60 148h-517l-113 -148h-172z
M344 268h380l-132 327z" />
    <glyph glyph-name="Aring" unicode="&#xc5;" horiz-adv-x="1090" 
d="M611 738q-105 0 -174 29t-61 74t87 74t184 29q113 0 178 -28.5t57 -74.5t-83 -74.5t-188 -28.5zM620 789q41 0 68.5 13.5t31.5 38.5q4 26 -18.5 39t-63.5 13q-40 0 -67 -13.5t-31 -38.5t18 -38.5t62 -13.5zM-30 0l551 700h172l303 -700h-164l-60 148h-517l-113 -148h-172
zM344 268h380l-132 327z" />
    <glyph glyph-name="AE" unicode="&#xc6;" horiz-adv-x="1433" 
d="M-30 0l719 700h728l-20 -112h-503l-32 -181h494l-18 -103h-494l-33 -192h503l-21 -112h-645l26 148h-374l-145 -148h-185zM410 260h284l63 353z" />
    <glyph glyph-name="Ccedilla" unicode="&#xc7;" horiz-adv-x="932" 
d="M896 395h-144q12 95 -54 148.5t-188 53.5q-128 0 -216 -66t-108 -181q-21 -115 43.5 -180.5t192.5 -65.5q123 0 208 53t106 148h144q-22 -123 -122.5 -206.5t-250.5 -106.5l-42 -61q146 -8 225 -36t71 -72q-8 -47 -131.5 -78t-313.5 -32l9 55q277 1 287 55q3 18 -21 30
t-85 19.5t-161 8.5l10 53l37 50q-185 2 -281 102.5t-67 263.5q29 165 163 265.5t324 100.5t290 -88t75 -233z" />
    <glyph glyph-name="Egrave" unicode="&#xc8;" horiz-adv-x="825" 
d="M497 744l-259 164l18 102l255 -186zM26 0l124 700h660l-22 -119h-518l-30 -170h509l-19 -111h-509l-32 -180h518l-21 -120h-660z" />
    <glyph glyph-name="Eacute" unicode="&#xc9;" horiz-adv-x="825" 
d="M467 744l14 80l319 186l-18 -102zM26 0l124 700h660l-22 -119h-518l-30 -170h509l-19 -111h-509l-32 -180h518l-21 -120h-660z" />
    <glyph glyph-name="Ecircumflex" unicode="&#xca;" horiz-adv-x="825" 
d="M206 755l14 80l319 186l255 -186l-14 -80l-259 164zM26 0l124 700h660l-22 -119h-518l-30 -170h509l-19 -111h-509l-32 -180h518l-21 -120h-660z" />
    <glyph glyph-name="Edieresis" unicode="&#xcb;" horiz-adv-x="825" 
d="M349 738q-44 0 -67.5 23.5t-16.5 61.5t38.5 61.5t75.5 23.5q47 0 69 -23t15 -62t-37 -62t-77 -23zM639 738q-44 0 -67.5 23.5t-16.5 61.5t38.5 61.5t75.5 23.5q47 0 69 -23t15 -62t-37 -62t-77 -23zM26 0l124 700h660l-22 -119h-518l-30 -170h509l-19 -111h-509l-32 -180
h518l-21 -120h-660z" />
    <glyph glyph-name="Igrave" unicode="&#xcc;" horiz-adv-x="317" 
d="M235 744l-259 164l18 102l255 -186zM26 0l124 700h142l-124 -700h-142z" />
    <glyph glyph-name="Iacute" unicode="&#xcd;" horiz-adv-x="317" 
d="M205 744l14 80l319 186l-18 -102zM26 0l124 700h142l-124 -700h-142z" />
    <glyph glyph-name="Icircumflex" unicode="&#xce;" horiz-adv-x="317" 
d="M-56 755l14 80l319 186l255 -186l-14 -80l-259 164zM26 0l124 700h142l-124 -700h-142z" />
    <glyph glyph-name="Idieresis" unicode="&#xcf;" horiz-adv-x="317" 
d="M87 738q-44 0 -67.5 23.5t-16.5 61.5t38.5 61.5t75.5 23.5q47 0 69 -23t15 -62t-37 -62t-77 -23zM377 738q-44 0 -67.5 23.5t-16.5 61.5t38.5 61.5t75.5 23.5q47 0 69 -23t15 -62t-37 -62t-77 -23zM26 0l124 700h142l-124 -700h-142z" />
    <glyph glyph-name="Eth" unicode="&#xd0;" horiz-adv-x="869" 
d="M479 700q192 0 284 -90t62 -260q-30 -171 -154 -260.5t-316 -89.5h-329l52 294h-78l40 113h58l52 293h329zM691 350q19 110 -43.5 170.5t-189.5 60.5h-188l-31 -174h301l-40 -113h-280l-31 -174h187q128 0 212 60.5t103 169.5z" />
    <glyph glyph-name="Ntilde" unicode="&#xd1;" horiz-adv-x="971" 
d="M648 772q-31 0 -52.5 18t-37.5 36t-32 18q-28 0 -47.5 -18t-26.5 -53h-61q10 58 51 94t95 36q21 0 39 -11.5t28 -24.5t24.5 -24.5t30.5 -11.5q62 0 75 71h60q-11 -59 -51.5 -94.5t-94.5 -35.5zM26 0l124 700h129l435 -505l89 505h142l-124 -700h-130l-434 503l-89 -503
h-142z" />
    <glyph glyph-name="Ograve" unicode="&#xd2;" horiz-adv-x="973" 
d="M563 744l-259 164l18 102l255 -186zM421 -16q-203 0 -304.5 100t-72.5 266t166.5 266t340.5 100q204 0 305.5 -100t72.5 -266t-166.5 -266t-341.5 -100zM442 104q138 0 231 65.5t114 180.5q20 115 -49.5 181t-207.5 66t-231 -66t-113 -181q-21 -115 48.5 -180.5
t207.5 -65.5z" />
    <glyph glyph-name="Oacute" unicode="&#xd3;" horiz-adv-x="973" 
d="M533 744l14 80l319 186l-18 -102zM421 -16q-203 0 -304.5 100t-72.5 266t166.5 266t340.5 100q204 0 305.5 -100t72.5 -266t-166.5 -266t-341.5 -100zM442 104q138 0 231 65.5t114 180.5q20 115 -49.5 181t-207.5 66t-231 -66t-113 -181q-21 -115 48.5 -180.5
t207.5 -65.5z" />
    <glyph glyph-name="Ocircumflex" unicode="&#xd4;" horiz-adv-x="973" 
d="M272 755l14 80l319 186l255 -186l-14 -80l-259 164zM421 -16q-203 0 -304.5 100t-72.5 266t166.5 266t340.5 100q204 0 305.5 -100t72.5 -266t-166.5 -266t-341.5 -100zM442 104q138 0 231 65.5t114 180.5q20 115 -49.5 181t-207.5 66t-231 -66t-113 -181
q-21 -115 48.5 -180.5t207.5 -65.5z" />
    <glyph glyph-name="Otilde" unicode="&#xd5;" horiz-adv-x="973" 
d="M646 772q-31 0 -52.5 18t-37.5 36t-32 18q-28 0 -47.5 -18t-26.5 -53h-61q10 58 51 94t95 36q21 0 39 -11.5t28 -24.5t24.5 -24.5t30.5 -11.5q62 0 75 71h60q-11 -59 -51.5 -94.5t-94.5 -35.5zM421 -16q-203 0 -304.5 100t-72.5 266t166.5 266t340.5 100
q204 0 305.5 -100t72.5 -266t-166.5 -266t-341.5 -100zM442 104q138 0 231 65.5t114 180.5q20 115 -49.5 181t-207.5 66t-231 -66t-113 -181q-21 -115 48.5 -180.5t207.5 -65.5z" />
    <glyph glyph-name="Odieresis" unicode="&#xd6;" horiz-adv-x="973" 
d="M415 738q-44 0 -67.5 23.5t-16.5 61.5t38.5 61.5t75.5 23.5q47 0 69 -23t15 -62t-37 -62t-77 -23zM705 738q-44 0 -67.5 23.5t-16.5 61.5t38.5 61.5t75.5 23.5q47 0 69 -23t15 -62t-37 -62t-77 -23zM421 -16q-203 0 -304.5 100t-72.5 266t166.5 266t340.5 100
q204 0 305.5 -100t72.5 -266t-166.5 -266t-341.5 -100zM442 104q138 0 231 65.5t114 180.5q20 115 -49.5 181t-207.5 66t-231 -66t-113 -181q-21 -115 48.5 -180.5t207.5 -65.5z" />
    <glyph glyph-name="multiply" unicode="&#xd7;" horiz-adv-x="600" 
d="M107 107l-66 80l169 144l-118 144l93 79l118 -143l170 144l66 -80l-170 -144l119 -144l-93 -80l-119 144z" />
    <glyph glyph-name="Oslash" unicode="&#xd8;" horiz-adv-x="973" 
d="M990 700l-120 -98q86 -97 59 -252q-29 -166 -166.5 -266t-341.5 -100q-148 0 -245 55l-49 -39h-141l118 96q-87 98 -60 254q29 166 166.5 266t340.5 100q150 0 248 -56l50 40h141zM186 350q-18 -98 32 -162l467 379q-61 30 -155 30q-138 0 -231 -66t-113 -181zM787 350
q17 98 -31 160l-466 -378q64 -28 152 -28q138 0 231 65.5t114 180.5z" />
    <glyph glyph-name="Ugrave" unicode="&#xd9;" horiz-adv-x="909" 
d="M532 744l-259 164l18 102l255 -186zM392 -16q-71 0 -124 11.5t-95.5 39t-63 72t-27.5 110.5t11 155l58 328h142l-64 -358q-21 -120 24 -178t160 -58t180 58t86 178l64 358h142l-58 -328q-20 -110 -57.5 -186t-94.5 -120t-125.5 -63t-157.5 -19z" />
    <glyph glyph-name="Uacute" unicode="&#xda;" horiz-adv-x="909" 
d="M502 744l14 80l319 186l-18 -102zM392 -16q-71 0 -124 11.5t-95.5 39t-63 72t-27.5 110.5t11 155l58 328h142l-64 -358q-21 -120 24 -178t160 -58t180 58t86 178l64 358h142l-58 -328q-20 -110 -57.5 -186t-94.5 -120t-125.5 -63t-157.5 -19z" />
    <glyph glyph-name="Ucircumflex" unicode="&#xdb;" horiz-adv-x="909" 
d="M241 755l14 80l319 186l255 -186l-14 -80l-259 164zM392 -16q-71 0 -124 11.5t-95.5 39t-63 72t-27.5 110.5t11 155l58 328h142l-64 -358q-21 -120 24 -178t160 -58t180 58t86 178l64 358h142l-58 -328q-20 -110 -57.5 -186t-94.5 -120t-125.5 -63t-157.5 -19z" />
    <glyph glyph-name="Udieresis" unicode="&#xdc;" horiz-adv-x="909" 
d="M384 738q-44 0 -67.5 23.5t-16.5 61.5t38.5 61.5t75.5 23.5q47 0 69 -23t15 -62t-37 -62t-77 -23zM674 738q-44 0 -67.5 23.5t-16.5 61.5t38.5 61.5t75.5 23.5q47 0 69 -23t15 -62t-37 -62t-77 -23zM392 -16q-71 0 -124 11.5t-95.5 39t-63 72t-27.5 110.5t11 155l58 328
h142l-64 -358q-21 -120 24 -178t160 -58t180 58t86 178l64 358h142l-58 -328q-20 -110 -57.5 -186t-94.5 -120t-125.5 -63t-157.5 -19z" />
    <glyph glyph-name="Yacute" unicode="&#xdd;" horiz-adv-x="935" 
d="M514 744l14 80l319 186l-18 -102zM335 0l40 226l-288 474h174l207 -349l330 349h174l-454 -472l-41 -228h-142z" />
    <glyph glyph-name="Thorn" unicode="&#xde;" horiz-adv-x="815" 
d="M13 0l124 700h145l-35 -200h339q106 0 159.5 -61.5t38.5 -152.5q-18 -103 -93 -158t-180 -55h-339l-13 -73h-146zM191 183h314q54 0 91.5 28.5t45.5 74.5t-19.5 75.5t-80.5 29.5h-314z" />
    <glyph glyph-name="germandbls" unicode="&#xdf;" horiz-adv-x="847" 
d="M328 -16q-66 2 -100 4l20 119q48 -3 91 -3q159 0 227 18.5t79 74.5q5 29 -6 46t-52 30.5t-111 21.5t-191 15l14 85q153 9 231 21.5t110 31.5t38 53q9 50 -47.5 67t-207.5 17h-193l-103 -585h-142l123 700h345q64 0 104 -1.5t90.5 -6.5t79 -16.5t54.5 -30.5t33.5 -49
t0.5 -71q-16 -88 -101 -128t-258 -40l-2 -9q183 -6 259.5 -44.5t62.5 -116.5q-11 -62 -47.5 -103.5t-98.5 -63t-133 -29.5t-169 -7z" />
    <glyph glyph-name="agrave" unicode="&#xe0;" horiz-adv-x="679" 
d="M425 544l-259 164l18 102l255 -186zM183 -16q-33 0 -60.5 4.5t-55.5 17.5t-41 41t-6 69q9 50 53.5 85t129 53.5t132 25t144.5 14.5q14 1 20 2q10 58 -20 82.5t-105 24.5q-113 0 -250 -55l20 114q157 54 289 54q246 0 206 -234l-50 -282h-140l58 179h-9
q-77 -195 -315 -195zM296 87q71 9 123.5 43t64.5 94q-12 -1 -52 -4t-59.5 -5t-55 -6.5t-55 -10t-42 -13.5t-34 -20t-14.5 -27q-5 -31 29 -45t95 -6z" />
    <glyph glyph-name="aacute" unicode="&#xe1;" horiz-adv-x="679" 
d="M395 544l14 80l319 186l-18 -102zM183 -16q-33 0 -60.5 4.5t-55.5 17.5t-41 41t-6 69q9 50 53.5 85t129 53.5t132 25t144.5 14.5q14 1 20 2q10 58 -20 82.5t-105 24.5q-113 0 -250 -55l20 114q157 54 289 54q246 0 206 -234l-50 -282h-140l58 179h-9q-77 -195 -315 -195z
M296 87q71 9 123.5 43t64.5 94q-12 -1 -52 -4t-59.5 -5t-55 -6.5t-55 -10t-42 -13.5t-34 -20t-14.5 -27q-5 -31 29 -45t95 -6z" />
    <glyph glyph-name="acircumflex" unicode="&#xe2;" horiz-adv-x="679" 
d="M134 555l14 80l319 186l255 -186l-14 -80l-259 164zM183 -16q-33 0 -60.5 4.5t-55.5 17.5t-41 41t-6 69q9 50 53.5 85t129 53.5t132 25t144.5 14.5q14 1 20 2q10 58 -20 82.5t-105 24.5q-113 0 -250 -55l20 114q157 54 289 54q246 0 206 -234l-50 -282h-140l58 179h-9
q-77 -195 -315 -195zM296 87q71 9 123.5 43t64.5 94q-12 -1 -52 -4t-59.5 -5t-55 -6.5t-55 -10t-42 -13.5t-34 -20t-14.5 -27q-5 -31 29 -45t95 -6z" />
    <glyph glyph-name="atilde" unicode="&#xe3;" horiz-adv-x="679" 
d="M508 572q-31 0 -52.5 18t-37.5 36t-32 18q-28 0 -47.5 -18t-26.5 -53h-61q10 58 51 94t95 36q21 0 39 -11.5t28 -24.5t24.5 -24.5t30.5 -11.5q62 0 75 71h60q-11 -59 -51.5 -94.5t-94.5 -35.5zM183 -16q-33 0 -60.5 4.5t-55.5 17.5t-41 41t-6 69q9 50 53.5 85t129 53.5
t132 25t144.5 14.5q14 1 20 2q10 58 -20 82.5t-105 24.5q-113 0 -250 -55l20 114q157 54 289 54q246 0 206 -234l-50 -282h-140l58 179h-9q-77 -195 -315 -195zM296 87q71 9 123.5 43t64.5 94q-12 -1 -52 -4t-59.5 -5t-55 -6.5t-55 -10t-42 -13.5t-34 -20t-14.5 -27
q-5 -31 29 -45t95 -6z" />
    <glyph glyph-name="adieresis" unicode="&#xe4;" horiz-adv-x="679" 
d="M277 538q-44 0 -67.5 23.5t-16.5 61.5t38.5 61.5t75.5 23.5q47 0 69 -23t15 -62t-37 -62t-77 -23zM567 538q-44 0 -67.5 23.5t-16.5 61.5t38.5 61.5t75.5 23.5q47 0 69 -23t15 -62t-37 -62t-77 -23zM183 -16q-33 0 -60.5 4.5t-55.5 17.5t-41 41t-6 69q9 50 53.5 85
t129 53.5t132 25t144.5 14.5q14 1 20 2q10 58 -20 82.5t-105 24.5q-113 0 -250 -55l20 114q157 54 289 54q246 0 206 -234l-50 -282h-140l58 179h-9q-77 -195 -315 -195zM296 87q71 9 123.5 43t64.5 94q-12 -1 -52 -4t-59.5 -5t-55 -6.5t-55 -10t-42 -13.5t-34 -20
t-14.5 -27q-5 -31 29 -45t95 -6z" />
    <glyph glyph-name="aring" unicode="&#xe5;" horiz-adv-x="679" 
d="M418 538q-105 0 -174 29t-61 74t87 74t184 29q113 0 178 -28.5t57 -74.5t-83 -74.5t-188 -28.5zM427 589q41 0 68.5 13.5t31.5 38.5q4 26 -18.5 39t-63.5 13q-40 0 -67 -13.5t-31 -38.5t18 -38.5t62 -13.5zM183 -16q-33 0 -60.5 4.5t-55.5 17.5t-41 41t-6 69
q9 50 53.5 85t129 53.5t132 25t144.5 14.5q14 1 20 2q10 58 -20 82.5t-105 24.5q-113 0 -250 -55l20 114q157 54 289 54q246 0 206 -234l-50 -282h-140l58 179h-9q-77 -195 -315 -195zM296 87q71 9 123.5 43t64.5 94q-12 -1 -52 -4t-59.5 -5t-55 -6.5t-55 -10t-42 -13.5
t-34 -20t-14.5 -27q-5 -31 29 -45t95 -6z" />
    <glyph glyph-name="ae" unicode="&#xe6;" horiz-adv-x="1137" 
d="M183 -16q-33 0 -60.5 4.5t-55.5 17.5t-41 41t-6 69q27 149 447 173q18 1 26 2q12 68 -14.5 90t-104.5 22q-118 0 -250 -53l20 112q157 54 289 54t175 -74q96 74 231 74q134 0 205.5 -62.5t55.5 -164.5l-15 -82h-466q1 -61 48 -88t147 -27q29 0 56.5 2.5t45.5 6t41 10.5
t33.5 11t33 13t29.5 12l-20 -114q-79 -29 -137.5 -39t-150.5 -10q-109 0 -177 49t-79 134q-75 -183 -306 -183zM630 276l334 8q10 67 -25.5 95t-118.5 28q-81 0 -126.5 -30t-63.5 -101zM296 87q69 9 119.5 42.5t63.5 92.5q-12 -1 -49.5 -3t-57.5 -4t-54.5 -5.5t-54.5 -9.5
t-42.5 -14t-34 -20t-14.5 -28q-5 -31 29.5 -45t94.5 -6z" />
    <glyph glyph-name="ccedilla" unicode="&#xe7;" horiz-adv-x="624" 
d="M332 -69q146 -8 225 -36t71 -72q-8 -47 -131.5 -78t-313.5 -32l9 55q277 1 287 55q3 18 -21 30t-85 19.5t-161 8.5l10 53l39 52q-117 11 -176.5 82.5t-40.5 181.5q21 121 117 193.5t237 72.5q64 0 112.5 -12.5t106.5 -41.5l-20 -117q-99 62 -192 62q-98 0 -152.5 -37.5
t-69.5 -119.5t27.5 -119t141.5 -37q107 0 211 58l-20 -114q-106 -43 -172 -50z" />
    <glyph glyph-name="egrave" unicode="&#xe8;" horiz-adv-x="690" 
d="M411 544l-259 164l18 102l255 -186zM298 -16q-136 0 -205.5 73t-48.5 193t116.5 193t231.5 73q134 0 206 -62.5t55 -164.5l-15 -82h-465q1 -61 47.5 -88t146.5 -27q29 0 56.5 2.5t45.5 6t41 10.5t33.5 11t33 13t29.5 12l-20 -114q-79 -29 -137.5 -39t-150.5 -10zM182 276
l335 8q9 66 -26 94.5t-118 28.5q-80 0 -126 -30.5t-65 -100.5z" />
    <glyph glyph-name="eacute" unicode="&#xe9;" horiz-adv-x="690" 
d="M373 544l14 80l319 186l-18 -102zM298 -16q-136 0 -205.5 73t-48.5 193t116.5 193t231.5 73q134 0 206 -62.5t55 -164.5l-15 -82h-465q1 -61 47.5 -88t146.5 -27q29 0 56.5 2.5t45.5 6t41 10.5t33.5 11t33 13t29.5 12l-20 -114q-79 -29 -137.5 -39t-150.5 -10zM182 276
l335 8q9 66 -26 94.5t-118 28.5q-80 0 -126 -30.5t-65 -100.5z" />
    <glyph glyph-name="ecircumflex" unicode="&#xea;" horiz-adv-x="690" 
d="M112 555l14 80l319 186l255 -186l-14 -80l-259 164zM298 -16q-136 0 -205.5 73t-48.5 193t116.5 193t231.5 73q134 0 206 -62.5t55 -164.5l-15 -82h-465q1 -61 47.5 -88t146.5 -27q29 0 56.5 2.5t45.5 6t41 10.5t33.5 11t33 13t29.5 12l-20 -114q-79 -29 -137.5 -39
t-150.5 -10zM182 276l335 8q9 66 -26 94.5t-118 28.5q-80 0 -126 -30.5t-65 -100.5z" />
    <glyph glyph-name="edieresis" unicode="&#xeb;" horiz-adv-x="690" 
d="M255 538q-44 0 -67.5 23.5t-16.5 61.5t38.5 61.5t75.5 23.5q47 0 69 -23t15 -62t-37 -62t-77 -23zM545 538q-44 0 -67.5 23.5t-16.5 61.5t38.5 61.5t75.5 23.5q47 0 69 -23t15 -62t-37 -62t-77 -23zM298 -16q-136 0 -205.5 73t-48.5 193t116.5 193t231.5 73
q134 0 206 -62.5t55 -164.5l-15 -82h-465q1 -61 47.5 -88t146.5 -27q29 0 56.5 2.5t45.5 6t41 10.5t33.5 11t33 13t29.5 12l-20 -114q-79 -29 -137.5 -39t-150.5 -10zM182 276l335 8q9 66 -26 94.5t-118 28.5q-80 0 -126 -30.5t-65 -100.5z" />
    <glyph glyph-name="igrave" unicode="&#xec;" horiz-adv-x="194" 
d="M163 541l-230 164l36 102l222 -186zM-18 0l88 500h142l-88 -500h-142z" />
    <glyph glyph-name="iacute" unicode="&#xed;" horiz-adv-x="194" 
d="M125 541l14 80l319 186l-18 -102zM-18 0l88 500h142l-88 -500h-142z" />
    <glyph glyph-name="icircumflex" unicode="&#xee;" horiz-adv-x="194" 
d="M-126 552l28 80l352 186l222 -186l-28 -80l-230 164zM-18 0l88 500h142l-88 -500h-142z" />
    <glyph glyph-name="idieresis" unicode="&#xef;" horiz-adv-x="194" 
d="M14 535q-44 0 -63 23.5t-6 61.5t49 61.5t80 23.5q47 0 65 -23t4 -62t-48 -62t-81 -23zM304 535q-44 0 -63 23.5t-6 61.5t49 61.5t80 23.5q47 0 65 -23t4 -62t-48 -62t-81 -23zM-18 0l88 500h142l-88 -500h-142z" />
    <glyph glyph-name="eth" unicode="&#xf0;" horiz-adv-x="822" 
d="M328 -12q-169 0 -254.5 60.5t-71.5 163.5q16 111 108 179.5t255 68.5q98 0 166.5 -40t107.5 -97q34 147 -24 242l-225 -62l-13 84l174 48q-62 44 -157 51l17 69q168 0 273 -83l154 42l15 -83l-105 -29q66 -102 41 -240q-33 -187 -153 -280.5t-308 -93.5zM358 100
q186 0 253 143q-28 55 -94.5 93.5t-141.5 38.5q-92 0 -153.5 -37.5t-72.5 -100.5q-10 -63 47.5 -100t161.5 -37z" />
    <glyph glyph-name="ntilde" unicode="&#xf1;" horiz-adv-x="709" 
d="M499 572q-31 0 -52.5 18t-37.5 36t-32 18q-28 0 -47.5 -18t-26.5 -53h-61q10 58 51 94t95 36q21 0 39 -11.5t28 -24.5t24.5 -24.5t30.5 -11.5q62 0 75 71h60q-11 -59 -51.5 -94.5t-94.5 -35.5zM20 0l88 500h156l-57 -206h8q75 222 285 222q108 -2 146 -70.5t10 -228.5
l-38 -217h-142l35 200q19 113 -4.5 161t-96.5 48q-79 0 -139 -70t-83 -188l-26 -151h-142z" />
    <glyph glyph-name="ograve" unicode="&#xf2;" horiz-adv-x="715" 
d="M416 544l-259 164l18 102l255 -186zM310 -16q-141 0 -214 73t-52 193t120 193t240 73q142 0 215 -73t52 -193t-120 -193t-241 -73zM330 94q81 0 139 43t70 113q12 71 -30 114t-124 43q-81 0 -139 -43.5t-70 -113.5t30 -113t124 -43z" />
    <glyph glyph-name="oacute" unicode="&#xf3;" horiz-adv-x="715" 
d="M386 544l14 80l319 186l-18 -102zM310 -16q-141 0 -214 73t-52 193t120 193t240 73q142 0 215 -73t52 -193t-120 -193t-241 -73zM330 94q81 0 139 43t70 113q12 71 -30 114t-124 43q-81 0 -139 -43.5t-70 -113.5t30 -113t124 -43z" />
    <glyph glyph-name="ocircumflex" unicode="&#xf4;" horiz-adv-x="715" 
d="M125 555l14 80l319 186l255 -186l-14 -80l-259 164zM310 -16q-141 0 -214 73t-52 193t120 193t240 73q142 0 215 -73t52 -193t-120 -193t-241 -73zM330 94q81 0 139 43t70 113q12 71 -30 114t-124 43q-81 0 -139 -43.5t-70 -113.5t30 -113t124 -43z" />
    <glyph glyph-name="otilde" unicode="&#xf5;" horiz-adv-x="715" 
d="M499 572q-31 0 -52.5 18t-37.5 36t-32 18q-28 0 -47.5 -18t-26.5 -53h-61q10 58 51 94t95 36q21 0 39 -11.5t28 -24.5t24.5 -24.5t30.5 -11.5q62 0 75 71h60q-11 -59 -51.5 -94.5t-94.5 -35.5zM310 -16q-141 0 -214 73t-52 193t120 193t240 73q142 0 215 -73t52 -193
t-120 -193t-241 -73zM330 94q81 0 139 43t70 113q12 71 -30 114t-124 43q-81 0 -139 -43.5t-70 -113.5t30 -113t124 -43z" />
    <glyph glyph-name="odieresis" unicode="&#xf6;" horiz-adv-x="715" 
d="M278 538q-44 0 -67.5 23.5t-16.5 61.5t38.5 61.5t75.5 23.5q47 0 69 -23t15 -62t-37 -62t-77 -23zM568 538q-44 0 -67.5 23.5t-16.5 61.5t38.5 61.5t75.5 23.5q47 0 69 -23t15 -62t-37 -62t-77 -23zM310 -16q-141 0 -214 73t-52 193t120 193t240 73q142 0 215 -73
t52 -193t-120 -193t-241 -73zM330 94q81 0 139 43t70 113q12 71 -30 114t-124 43q-81 0 -139 -43.5t-70 -113.5t30 -113t124 -43z" />
    <glyph glyph-name="divide" unicode="&#xf7;" horiz-adv-x="600" 
d="M324 444q-34 0 -54 22t-14 56q6 33 33.5 55t62.5 22t55 -22t14 -55q-6 -34 -33 -56t-64 -22zM28 243l20 113h520l-20 -113h-520zM244 -15q-34 0 -54 22t-14 56q6 33 33.5 55t62.5 22t55 -22t14 -55q-6 -34 -33 -56t-64 -22z" />
    <glyph glyph-name="oslash" unicode="&#xf8;" horiz-adv-x="715" 
d="M773 500l-126 -92q40 -67 24 -158q-21 -120 -120 -193t-241 -73q-109 0 -179 45l-40 -29h-141l121 88q-43 68 -27 162q21 120 120 193t240 73q114 0 184 -48l44 32h141zM176 250q-7 -43 7 -79l295 216q-38 20 -93 20q-81 0 -139 -43.5t-70 -113.5zM539 250q7 41 -5 75
l-291 -214q37 -17 87 -17q81 0 139 43t70 113z" />
    <glyph glyph-name="ugrave" unicode="&#xf9;" horiz-adv-x="709" 
d="M405 544l-259 164l18 102l255 -186zM689 500l-88 -500h-156l57 206h-8q-75 -222 -285 -222q-108 2 -146 70.5t-10 228.5l38 217h142l-35 -200q-19 -113 4.5 -161t96.5 -48q79 0 139 70t83 188l26 151h142z" />
    <glyph glyph-name="uacute" unicode="&#xfa;" horiz-adv-x="709" 
d="M375 544l14 80l319 186l-18 -102zM689 500l-88 -500h-156l57 206h-8q-75 -222 -285 -222q-108 2 -146 70.5t-10 228.5l38 217h142l-35 -200q-19 -113 4.5 -161t96.5 -48q79 0 139 70t83 188l26 151h142z" />
    <glyph glyph-name="ucircumflex" unicode="&#xfb;" horiz-adv-x="709" 
d="M114 555l14 80l319 186l255 -186l-14 -80l-259 164zM689 500l-88 -500h-156l57 206h-8q-75 -222 -285 -222q-108 2 -146 70.5t-10 228.5l38 217h142l-35 -200q-19 -113 4.5 -161t96.5 -48q79 0 139 70t83 188l26 151h142z" />
    <glyph glyph-name="udieresis" unicode="&#xfc;" horiz-adv-x="709" 
d="M257 538q-44 0 -67.5 23.5t-16.5 61.5t38.5 61.5t75.5 23.5q47 0 69 -23t15 -62t-37 -62t-77 -23zM547 538q-44 0 -67.5 23.5t-16.5 61.5t38.5 61.5t75.5 23.5q47 0 69 -23t15 -62t-37 -62t-77 -23zM689 500l-88 -500h-156l57 206h-8q-75 -222 -285 -222
q-108 2 -146 70.5t-10 228.5l38 217h142l-35 -200q-19 -113 4.5 -161t96.5 -48q79 0 139 70t83 188l26 151h142z" />
    <glyph glyph-name="yacute" unicode="&#xfd;" horiz-adv-x="772" 
d="M444 544l14 80l319 186l-18 -102zM152 -200l148 201l-213 499h157l144 -368l271 368h150l-508 -700h-149z" />
    <glyph glyph-name="thorn" unicode="&#xfe;" horiz-adv-x="686" 
d="M-19 -200l98 900h146l-62 -363h13q28 89 102 134t171 45q105 0 162.5 -74t44.5 -196q-13 -119 -87 -190.5t-180 -71.5q-93 0 -153.5 45t-69.5 133h-4v-1l-39 -361h-142zM339 88q157 0 175 160q8 82 -29 123t-113 41q-70 0 -119.5 -40.5t-57.5 -123.5q-9 -82 32 -121
t112 -39z" />
    <glyph glyph-name="ydieresis" unicode="&#xff;" horiz-adv-x="772" 
d="M326 538q-44 0 -67.5 23.5t-16.5 61.5t38.5 61.5t75.5 23.5q47 0 69 -23t15 -62t-37 -62t-77 -23zM616 538q-44 0 -67.5 23.5t-16.5 61.5t38.5 61.5t75.5 23.5q47 0 69 -23t15 -62t-37 -62t-77 -23zM152 -200l148 201l-213 499h157l144 -368l271 368h150l-508 -700h-149z
" />
    <glyph glyph-name="Amacron" unicode="&#x100;" horiz-adv-x="1090" 
d="M364 846l10 54h532l-10 -54h-532zM-30 0l551 700h172l303 -700h-164l-60 148h-517l-113 -148h-172zM344 268h380l-132 327z" />
    <glyph glyph-name="amacron" unicode="&#x101;" horiz-adv-x="679" 
d="M171 646l10 54h532l-10 -54h-532zM183 -16q-33 0 -60.5 4.5t-55.5 17.5t-41 41t-6 69q9 50 53.5 85t129 53.5t132 25t144.5 14.5q14 1 20 2q10 58 -20 82.5t-105 24.5q-113 0 -250 -55l20 114q157 54 289 54q246 0 206 -234l-50 -282h-140l58 179h-9q-77 -195 -315 -195z
M296 87q71 9 123.5 43t64.5 94q-12 -1 -52 -4t-59.5 -5t-55 -6.5t-55 -10t-42 -13.5t-34 -20t-14.5 -27q-5 -31 29 -45t95 -6z" />
    <glyph glyph-name="Abreve" unicode="&#x102;" horiz-adv-x="1090" 
d="M613 751q-93 0 -145.5 41t-41.5 108h105q-6 -40 20 -60.5t74 -20.5q103 0 124 81h103q-13 -69 -76 -109t-163 -40zM-30 0l551 700h172l303 -700h-164l-60 148h-517l-113 -148h-172zM344 268h380l-132 327z" />
    <glyph glyph-name="abreve" unicode="&#x103;" horiz-adv-x="679" 
d="M420 551q-93 0 -145.5 41t-41.5 108h105q-6 -40 20 -60.5t74 -20.5q103 0 124 81h103q-13 -69 -76 -109t-163 -40zM183 -16q-33 0 -60.5 4.5t-55.5 17.5t-41 41t-6 69q9 50 53.5 85t129 53.5t132 25t144.5 14.5q14 1 20 2q10 58 -20 82.5t-105 24.5q-113 0 -250 -55
l20 114q157 54 289 54q246 0 206 -234l-50 -282h-140l58 179h-9q-77 -195 -315 -195zM296 87q71 9 123.5 43t64.5 94q-12 -1 -52 -4t-59.5 -5t-55 -6.5t-55 -10t-42 -13.5t-34 -20t-14.5 -27q-5 -31 29 -45t95 -6z" />
    <glyph glyph-name="Aogonek" unicode="&#x104;" horiz-adv-x="1090" 
d="M933 0q-66 -59 -32 -104q33 -43 128 -42q39 1 80 10l-17 -78q-100 -29 -189 -8t-109.5 78.5t53.5 143.5h-15l-60 148h-517l-113 -148h-172l551 700h172l303 -700h-63zM344 268h380l-132 327z" />
    <glyph glyph-name="aogonek" unicode="&#x105;" horiz-adv-x="679" 
d="M520 0q-66 -59 -32 -104q33 -43 128 -42q39 1 80 10l-17 -78q-105 -31 -196 -6.5t-105.5 86.5t78.5 155l51 158h-9q-77 -195 -315 -195q-33 0 -60.5 4.5t-55.5 17.5t-41 41t-6 69q9 50 53.5 85t129 53.5t132 25t144.5 14.5q14 1 20 2q10 58 -20 82.5t-105 24.5
q-113 0 -250 -55l20 114q157 54 289 54q246 0 206 -234l-50 -282h-69zM296 87q71 9 123.5 43t64.5 94q-12 -1 -52 -4t-59.5 -5t-55 -6.5t-55 -10t-42 -13.5t-34 -20t-14.5 -27q-5 -31 29 -45t95 -6z" />
    <glyph glyph-name="Cacute" unicode="&#x106;" horiz-adv-x="932" 
d="M520 744l28 80l352 186l-36 -102zM401 -16q-190 0 -288 100.5t-69 265.5t163 265.5t324 100.5t290 -88t75 -233h-144q12 95 -54 148.5t-188 53.5q-128 0 -216 -66t-108 -181q-21 -115 43.5 -180.5t192.5 -65.5q123 0 208 53t106 148h144q-25 -145 -157 -233t-322 -88z
" />
    <glyph glyph-name="cacute" unicode="&#x107;" horiz-adv-x="624" 
d="M387 544l28 80l352 186l-36 -102zM303 -16q-136 0 -208 73t-51 193q21 121 117 193.5t237 72.5q64 0 112.5 -12.5t106.5 -41.5l-20 -117q-99 62 -192 62q-98 0 -152.5 -37.5t-69.5 -119.5t27.5 -119t141.5 -37q107 0 211 58l-20 -114q-74 -30 -122.5 -42t-117.5 -12z" />
    <glyph glyph-name="Cdotaccent" unicode="&#x10a;" horiz-adv-x="932" 
d="M557 738q-44 0 -63 23.5t-6 61.5t49 61.5t80 23.5q47 0 65 -23t4 -62t-48 -62t-81 -23zM401 -16q-190 0 -288 100.5t-69 265.5t163 265.5t324 100.5t290 -88t75 -233h-144q12 95 -54 148.5t-188 53.5q-128 0 -216 -66t-108 -181q-21 -115 43.5 -180.5t192.5 -65.5
q123 0 208 53t106 148h144q-25 -145 -157 -233t-322 -88z" />
    <glyph glyph-name="cdotaccent" unicode="&#x10b;" horiz-adv-x="624" 
d="M409 538q-44 0 -63 23.5t-6 61.5t49 61.5t80 23.5q47 0 65 -23t4 -62t-48 -62t-81 -23zM303 -16q-136 0 -208 73t-51 193q21 121 117 193.5t237 72.5q64 0 112.5 -12.5t106.5 -41.5l-20 -117q-99 62 -192 62q-98 0 -152.5 -37.5t-69.5 -119.5t27.5 -119t141.5 -37
q107 0 211 58l-20 -114q-74 -30 -122.5 -42t-117.5 -12z" />
    <glyph glyph-name="Ccaron" unicode="&#x10c;" horiz-adv-x="932" 
d="M538 755l-255 186l14 80l259 -164l315 164l-14 -80zM401 -16q-190 0 -288 100.5t-69 265.5t163 265.5t324 100.5t290 -88t75 -233h-144q12 95 -54 148.5t-188 53.5q-128 0 -216 -66t-108 -181q-21 -115 43.5 -180.5t192.5 -65.5q123 0 208 53t106 148h144
q-25 -145 -157 -233t-322 -88z" />
    <glyph glyph-name="ccaron" unicode="&#x10d;" horiz-adv-x="624" 
d="M405 555l-255 186l14 80l259 -164l315 164l-14 -80zM303 -16q-136 0 -208 73t-51 193q21 121 117 193.5t237 72.5q64 0 112.5 -12.5t106.5 -41.5l-20 -117q-99 62 -192 62q-98 0 -152.5 -37.5t-69.5 -119.5t27.5 -119t141.5 -37q107 0 211 58l-20 -114
q-74 -30 -122.5 -42t-117.5 -12z" />
    <glyph glyph-name="Dcaron" unicode="&#x10e;" horiz-adv-x="869" 
d="M504 755l-255 186l14 80l259 -164l315 164l-14 -80zM26 0l124 700h329q192 0 284 -90t62 -260q-30 -171 -154 -260.5t-316 -89.5h-329zM189 120h187q128 0 212 60.5t103 169.5q19 110 -43.5 170.5t-189.5 60.5h-188z" />
    <glyph glyph-name="dcaron" unicode="&#x10f;" horiz-adv-x="958" 
d="M239 -16q-109 0 -170 75.5t-39 194.5q20 116 107.5 189t197.5 73q97 0 161.5 -46.5t67.5 -131.5h4l1 1l63 361h142l-124 -700h-146l50 163h-11q-32 -86 -117.5 -132.5t-186.5 -46.5zM767 429l111 270h125l-161 -270h-75zM318 94q74 0 134.5 43.5t72.5 114.5
q13 70 -32 112.5t-119 42.5q-78 0 -135.5 -42t-70.5 -113q-13 -72 29 -115t121 -43z" />
    <glyph glyph-name="Dcroat" unicode="&#x110;" horiz-adv-x="869" 
d="M479 700q192 0 284 -90t62 -260q-30 -171 -154 -260.5t-316 -89.5h-329l52 294h-78l40 113h58l52 293h329zM691 350q19 110 -43.5 170.5t-189.5 60.5h-188l-31 -174h301l-40 -113h-280l-31 -174h187q128 0 212 60.5t103 169.5z" />
    <glyph glyph-name="dcroat" unicode="&#x111;" horiz-adv-x="785" 
d="M793 639l-18 -103h-30l-95 -536h-146l50 163h-11q-32 -86 -117.5 -132.5t-186.5 -46.5q-109 0 -170 75.5t-39 194.5q20 116 107.5 189t197.5 73q97 0 161.5 -46.5t67.5 -131.5h4l1 1l34 197h-286l18 103h286l11 61h142l-11 -61h30zM525 252q13 70 -32 112.5t-119 42.5
q-78 0 -135.5 -42t-70.5 -113q-13 -72 29 -115t121 -43q74 0 134.5 43.5t72.5 114.5z" />
    <glyph glyph-name="Emacron" unicode="&#x112;" horiz-adv-x="825" 
d="M243 846l10 54h532l-10 -54h-532zM26 0l124 700h660l-22 -119h-518l-30 -170h509l-19 -111h-509l-32 -180h518l-21 -120h-660z" />
    <glyph glyph-name="emacron" unicode="&#x113;" horiz-adv-x="690" 
d="M149 646l10 54h532l-10 -54h-532zM298 -16q-136 0 -205.5 73t-48.5 193t116.5 193t231.5 73q134 0 206 -62.5t55 -164.5l-15 -82h-465q1 -61 47.5 -88t146.5 -27q29 0 56.5 2.5t45.5 6t41 10.5t33.5 11t33 13t29.5 12l-20 -114q-79 -29 -137.5 -39t-150.5 -10zM182 276
l335 8q9 66 -26 94.5t-118 28.5q-80 0 -126 -30.5t-65 -100.5z" />
    <glyph glyph-name="Edotaccent" unicode="&#x116;" horiz-adv-x="825" 
d="M497 738q-44 0 -63 23.5t-6 61.5t49 61.5t80 23.5q47 0 65 -23t4 -62t-48 -62t-81 -23zM26 0l124 700h660l-22 -119h-518l-30 -170h509l-19 -111h-509l-32 -180h518l-21 -120h-660z" />
    <glyph glyph-name="edotaccent" unicode="&#x117;" horiz-adv-x="690" 
d="M403 538q-44 0 -63 23.5t-6 61.5t49 61.5t80 23.5q47 0 65 -23t4 -62t-48 -62t-81 -23zM298 -16q-136 0 -205.5 73t-48.5 193t116.5 193t231.5 73q134 0 206 -62.5t55 -164.5l-15 -82h-465q1 -61 47.5 -88t146.5 -27q29 0 56.5 2.5t45.5 6t41 10.5t33.5 11t33 13t29.5 12
l-20 -114q-79 -29 -137.5 -39t-150.5 -10zM182 276l335 8q9 66 -26 94.5t-118 28.5q-80 0 -126 -30.5t-65 -100.5z" />
    <glyph glyph-name="Eogonek" unicode="&#x118;" horiz-adv-x="825" 
d="M788 581h-518l-30 -170h509l-19 -111h-509l-32 -180h518l-21 -120h-282q-66 -59 -32 -104q33 -43 128 -42q39 1 80 10l-17 -78q-100 -29 -189 -8t-109.5 78.5t53.5 143.5h-292l124 700h660z" />
    <glyph glyph-name="eogonek" unicode="&#x119;" horiz-adv-x="690" 
d="M392 516q134 0 206 -62.5t55 -164.5l-15 -82h-465q1 -61 47.5 -88t146.5 -27q29 0 56.5 2.5t45.5 6t41 10.5t33.5 11t33 13t29.5 12l-20 -114q-103 -37 -189 -45q-54 -58 -13 -98q43 -42 146 -34q27 2 56 8l-17 -78q-97 -28 -184 -9t-112 72.5t36 134.5h-11
q-136 0 -205.5 73t-48.5 193t116.5 193t231.5 73zM517 284q9 66 -26 94.5t-118 28.5q-80 0 -126 -30.5t-65 -100.5z" />
    <glyph glyph-name="Ecaron" unicode="&#x11a;" horiz-adv-x="825" 
d="M493 755l-255 186l14 80l259 -164l315 164l-14 -80zM26 0l124 700h660l-22 -119h-518l-30 -170h509l-19 -111h-509l-32 -180h518l-21 -120h-660z" />
    <glyph glyph-name="ecaron" unicode="&#x11b;" horiz-adv-x="690" 
d="M399 555l-255 186l14 80l259 -164l315 164l-14 -80zM298 -16q-136 0 -205.5 73t-48.5 193t116.5 193t231.5 73q134 0 206 -62.5t55 -164.5l-15 -82h-465q1 -61 47.5 -88t146.5 -27q29 0 56.5 2.5t45.5 6t41 10.5t33.5 11t33 13t29.5 12l-20 -114q-79 -29 -137.5 -39
t-150.5 -10zM182 276l335 8q9 66 -26 94.5t-118 28.5q-80 0 -126 -30.5t-65 -100.5z" />
    <glyph glyph-name="Gbreve" unicode="&#x11e;" horiz-adv-x="965" 
d="M556 751q-92 0 -137.5 41t-23.5 108h105q-12 -40 10 -60.5t70 -20.5q104 0 138 81h103q-24 -69 -94 -109t-171 -40zM411 -16q-190 0 -288 100.5t-69 265.5t163 265.5t324 100.5q180 0 280.5 -75t84.5 -197h-143q7 74 -57 113.5t-186 39.5q-128 0 -216 -66t-108 -181
q-21 -115 43.5 -180.5t192.5 -65.5q115 0 197 43t109 123h-381l18 104h530l-67 -374h-108l23 132q-59 -74 -149.5 -111t-192.5 -37z" />
    <glyph glyph-name="gbreve" unicode="&#x11f;" horiz-adv-x="761" 
d="M494 551q-92 0 -137.5 41t-23.5 108h105q-12 -40 10 -60.5t70 -20.5q104 0 138 81h103q-24 -69 -94 -109t-171 -40zM305 -200q-80 0 -133.5 10.5t-115.5 33.5l22 123q32 -26 96.5 -42t138.5 -16q106 0 160.5 42.5t73.5 130.5l14 66q-36 -78 -117.5 -118.5t-178.5 -40.5
q-109 0 -171 73t-41 192q21 116 109 189t198 73q97 0 161.5 -46.5t66.5 -131.5h14l16 162h136l-77 -440q-23 -131 -122 -195.5t-250 -64.5zM342 94q74 0 134.5 43.5t73.5 114.5q12 70 -33.5 112.5t-119.5 42.5q-78 0 -134.5 -42t-69.5 -113q-13 -72 29 -115t120 -43z" />
    <glyph glyph-name="Gdotaccent" unicode="&#x120;" horiz-adv-x="965" 
d="M552 738q-44 0 -63 23.5t-6 61.5t49 61.5t80 23.5q47 0 65 -23t4 -62t-48 -62t-81 -23zM411 -16q-190 0 -288 100.5t-69 265.5t163 265.5t324 100.5q180 0 280.5 -75t84.5 -197h-143q7 74 -57 113.5t-186 39.5q-128 0 -216 -66t-108 -181q-21 -115 43.5 -180.5
t192.5 -65.5q115 0 197 43t109 123h-381l18 104h530l-67 -374h-108l23 132q-59 -74 -149.5 -111t-192.5 -37z" />
    <glyph glyph-name="gdotaccent" unicode="&#x121;" horiz-adv-x="761" 
d="M490 538q-44 0 -63 23.5t-6 61.5t49 61.5t80 23.5q47 0 65 -23t4 -62t-48 -62t-81 -23zM305 -200q-80 0 -133.5 10.5t-115.5 33.5l22 123q32 -26 96.5 -42t138.5 -16q106 0 160.5 42.5t73.5 130.5l14 66q-36 -78 -117.5 -118.5t-178.5 -40.5q-109 0 -171 73t-41 192
q21 116 109 189t198 73q97 0 161.5 -46.5t66.5 -131.5h14l16 162h136l-77 -440q-23 -131 -122 -195.5t-250 -64.5zM342 94q74 0 134.5 43.5t73.5 114.5q12 70 -33.5 112.5t-119.5 42.5q-78 0 -134.5 -42t-69.5 -113q-13 -72 29 -115t120 -43z" />
    <glyph glyph-name="Gcommaaccent" unicode="&#x122;" horiz-adv-x="965" 
d="M411 -16q-190 0 -288 100.5t-69 265.5t163 265.5t324 100.5q180 0 280.5 -75t84.5 -197h-143q7 74 -57 113.5t-186 39.5q-128 0 -216 -66t-108 -181q-21 -115 43.5 -180.5t192.5 -65.5q115 0 197 43t109 123h-381l18 104h530l-67 -374h-108l23 132q-59 -74 -149.5 -111
t-192.5 -37zM306 -350l111 270h125l-161 -270h-75z" />
    <glyph glyph-name="gcommaaccent" unicode="&#x123;" horiz-adv-x="779" 
d="M305 -200q-80 0 -133.5 10.5t-115.5 33.5l22 123q32 -26 96.5 -42t138.5 -16q106 0 160.5 42.5t73.5 130.5l14 66q-36 -78 -117.5 -118.5t-178.5 -40.5q-109 0 -171 73t-41 192q21 116 109 189t198 73q97 0 161.5 -46.5t66.5 -131.5h14l16 162h136l-77 -440
q-23 -131 -122 -195.5t-250 -64.5zM342 94q74 0 134.5 43.5t73.5 114.5q12 70 -33.5 112.5t-119.5 42.5q-78 0 -134.5 -42t-69.5 -113q-13 -72 29 -115t120 -43zM229 -532l111 270h125l-161 -270h-75z" />
    <glyph glyph-name="Hbar" unicode="&#x126;" horiz-adv-x="930" 
d="M944 642l-18 -103h-50l-95 -539h-142l53 302h-471l-53 -302h-142l95 539h-55l18 103h56l10 58h142l-10 -58h471l10 58h142l-10 -58h49zM713 422l21 117h-471l-21 -117h471z" />
    <glyph glyph-name="hbar" unicode="&#x127;" horiz-adv-x="707" 
d="M484 516q108 -2 146 -70.5t10 -228.5l-39 -217h-142l36 200q19 113 -4.5 161t-96.5 48q-81 0 -141.5 -74t-82.5 -197v2l-25 -140h-142l95 536h-92l18 103h92l11 61h156l-14 -61h213l-18 -103h-218l-55 -242h8q75 222 285 222z" />
    <glyph glyph-name="Imacron" unicode="&#x12a;" horiz-adv-x="317" 
d="M-19 846l10 54h532l-10 -54h-532zM26 0l124 700h142l-124 -700h-142z" />
    <glyph glyph-name="imacron" unicode="&#x12b;" horiz-adv-x="194" 
d="M-73 643l19 54h532l-19 -54h-532zM-18 0l88 500h142l-88 -500h-142z" />
    <glyph glyph-name="Iogonek" unicode="&#x12e;" horiz-adv-x="317" 
d="M103 0q-66 -59 -32 -104q33 -43 128 -42q39 1 80 10l-17 -78q-102 -30 -192.5 -7t-108 83t66.5 149l122 689h142l-124 -700h-65z" />
    <glyph glyph-name="iogonek" unicode="&#x12f;" horiz-adv-x="290" 
d="M210 747q42 0 62 -20t13 -60q-15 -81 -103 -81q-42 0 -61 20.5t-12 60.5q7 39 33.5 59.5t67.5 20.5zM82 0q-77 -59 -49 -104q26 -43 120 -42q39 1 82 10l-31 -78q-108 -30 -194.5 -7t-93 83.5t94.5 150.5l86 487h142l-88 -500h-69z" />
    <glyph glyph-name="Idotaccent" unicode="&#x130;" horiz-adv-x="317" 
d="M227 738q-44 0 -67.5 23.5t-16.5 61.5t38.5 61.5t75.5 23.5q47 0 69 -23t15 -62t-37 -62t-77 -23zM26 0l124 700h142l-124 -700h-142z" />
    <glyph glyph-name="dotlessi" unicode="&#x131;" horiz-adv-x="194" 
d="M-18 0l88 500h142l-88 -500h-142z" />
    <glyph glyph-name="Kcommaaccent" unicode="&#x136;" horiz-adv-x="957" 
d="M26 0l124 700h142l-70 -394l518 394h202l-330 -244l231 -456h-184l-175 362l-290 -214l-26 -148h-142zM224 -350l111 270h125l-161 -270h-75z" />
    <glyph glyph-name="kcommaaccent" unicode="&#x137;" horiz-adv-x="730" 
d="M3 0l124 700h142l-77 -433l310 233h203l-231 -164l151 -336h-174l-99 248l-186 -131l-21 -117h-142zM110 -350l111 270h125l-161 -270h-75z" />
    <glyph glyph-name="Lacute" unicode="&#x139;" horiz-adv-x="755" 
d="M219 744l28 80l352 186l-36 -102zM26 0l124 700h142l-103 -580h488l-21 -120h-630z" />
    <glyph glyph-name="lacute" unicode="&#x13a;" horiz-adv-x="272" 
d="M183 744l14 80l319 186l-18 -102zM3 0l124 700h142l-124 -700h-142z" />
    <glyph glyph-name="Lcommaaccent" unicode="&#x13b;" horiz-adv-x="755" 
d="M26 0l124 700h142l-103 -580h488l-21 -120h-630zM161 -350l111 270h125l-161 -270h-75z" />
    <glyph glyph-name="lcommaaccent" unicode="&#x13c;" horiz-adv-x="272" 
d="M3 0l124 700h142l-124 -700h-142zM-107 -350l111 270h125l-161 -270h-75z" />
    <glyph glyph-name="Lcaron" unicode="&#x13d;" horiz-adv-x="755" 
d="M26 0l124 700h142l-103 -580h488l-21 -120h-630zM329 429l111 270h125l-161 -270h-75z" />
    <glyph glyph-name="lcaron" unicode="&#x13e;" horiz-adv-x="460" 
d="M3 0l124 700h142l-124 -700h-142zM283 429l111 270h125l-161 -270h-75z" />
    <glyph glyph-name="Lslash" unicode="&#x141;" horiz-adv-x="755" 
d="M189 120h488l-21 -120h-630l53 298l-68 -39l-54 93l146 84l47 264h142l-31 -174l162 93l54 -92l-240 -138z" />
    <glyph glyph-name="lslash" unicode="&#x142;" horiz-adv-x="557" 
d="M560 537l-185 -106l-76 -431h-142l60 340l-123 -71l-46 83l191 110l42 238h142l-26 -148l116 67z" />
    <glyph glyph-name="Nacute" unicode="&#x143;" horiz-adv-x="971" 
d="M543 744l28 80l352 186l-36 -102zM26 0l124 700h129l435 -505l89 505h142l-124 -700h-130l-434 503l-89 -503h-142z" />
    <glyph glyph-name="nacute" unicode="&#x144;" horiz-adv-x="709" 
d="M394 544l28 80l352 186l-36 -102zM20 0l88 500h156l-57 -206h8q75 222 285 222q108 -2 146 -70.5t10 -228.5l-38 -217h-142l35 200q19 113 -4.5 161t-96.5 48q-79 0 -139 -70t-83 -188l-26 -151h-142z" />
    <glyph glyph-name="Ncommaaccent" unicode="&#x145;" horiz-adv-x="971" 
d="M26 0l124 700h129l435 -505l89 505h142l-124 -700h-130l-434 503l-89 -503h-142zM228 -350l111 270h125l-161 -270h-75z" />
    <glyph glyph-name="ncommaaccent" unicode="&#x146;" horiz-adv-x="709" 
d="M20 0l88 500h156l-57 -206h8q75 222 285 222q108 -2 146 -70.5t10 -228.5l-38 -217h-142l35 200q19 113 -4.5 161t-96.5 48q-79 0 -139 -70t-83 -188l-26 -151h-142zM135 -350l111 270h125l-161 -270h-75z" />
    <glyph glyph-name="Ncaron" unicode="&#x147;" horiz-adv-x="971" 
d="M561 755l-255 186l14 80l259 -164l315 164l-14 -80zM26 0l124 700h129l435 -505l89 505h142l-124 -700h-130l-434 503l-89 -503h-142z" />
    <glyph glyph-name="ncaron" unicode="&#x148;" horiz-adv-x="709" 
d="M412 555l-255 186l14 80l259 -164l315 164l-14 -80zM20 0l88 500h156l-57 -206h8q75 222 285 222q108 -2 146 -70.5t10 -228.5l-38 -217h-142l35 200q19 113 -4.5 161t-96.5 48q-79 0 -139 -70t-83 -188l-26 -151h-142z" />
    <glyph glyph-name="Eng" unicode="&#x14a;" horiz-adv-x="971" 
d="M803 700h142l-124 -700q-14 -83 -58.5 -124.5t-136.5 -59t-268 -16.5l16 89q268 0 320 57q22 24 -3 54l-434 503l-89 -503h-142l124 700h129l435 -505z" />
    <glyph glyph-name="eng" unicode="&#x14b;" horiz-adv-x="709" 
d="M500 516q108 -2 146 -70.5t10 -228.5l-37 -212q-8 -47 -18 -76t-31 -54.5t-48.5 -38t-78.5 -22t-114 -12t-160 -2.5l15 89q158 0 217.5 14t68.5 65l6 32l35 200q19 113 -4.5 161t-96.5 48q-79 0 -139 -70t-83 -188l-26 -151h-142l88 500h156l-57 -206h8q75 222 285 222z
" />
    <glyph glyph-name="Omacron" unicode="&#x14c;" horiz-adv-x="973" 
d="M309 846l10 54h532l-10 -54h-532zM421 -16q-203 0 -304.5 100t-72.5 266t166.5 266t340.5 100q204 0 305.5 -100t72.5 -266t-166.5 -266t-341.5 -100zM442 104q138 0 231 65.5t114 180.5q20 115 -49.5 181t-207.5 66t-231 -66t-113 -181q-21 -115 48.5 -180.5
t207.5 -65.5z" />
    <glyph glyph-name="omacron" unicode="&#x14d;" horiz-adv-x="715" 
d="M174 646l10 54h532l-10 -54h-532zM310 -16q-141 0 -214 73t-52 193t120 193t240 73q142 0 215 -73t52 -193t-120 -193t-241 -73zM330 94q81 0 139 43t70 113q12 71 -30 114t-124 43q-81 0 -139 -43.5t-70 -113.5t30 -113t124 -43z" />
    <glyph glyph-name="Ohungarumlaut" unicode="&#x150;" horiz-adv-x="973" 
d="M421 744l14 80l319 186l-18 -102zM671 744l14 80l319 186l-18 -102zM421 -16q-203 0 -304.5 100t-72.5 266t166.5 266t340.5 100q204 0 305.5 -100t72.5 -266t-166.5 -266t-341.5 -100zM442 104q138 0 231 65.5t114 180.5q20 115 -49.5 181t-207.5 66t-231 -66t-113 -181
q-21 -115 48.5 -180.5t207.5 -65.5z" />
    <glyph glyph-name="ohungarumlaut" unicode="&#x151;" horiz-adv-x="715" 
d="M274 544l14 80l319 186l-18 -102zM524 544l14 80l319 186l-18 -102zM310 -16q-141 0 -214 73t-52 193t120 193t240 73q142 0 215 -73t52 -193t-120 -193t-241 -73zM330 94q81 0 139 43t70 113q12 71 -30 114t-124 43q-81 0 -139 -43.5t-70 -113.5t30 -113t124 -43z" />
    <glyph glyph-name="OE" unicode="&#x152;" horiz-adv-x="1541" 
d="M1504 581h-518l-30 -170h509l-19 -111h-509l-32 -180h518l-21 -120h-660l14 79q-138 -95 -335 -95q-203 0 -304.5 100t-72.5 266t166.5 266t340.5 100q198 0 301 -95l14 79h660zM442 104q138 0 231 65.5t114 180.5q20 115 -49.5 181t-207.5 66t-231 -66t-113 -181
q-21 -115 48.5 -180.5t207.5 -65.5z" />
    <glyph glyph-name="oe" unicode="&#x153;" horiz-adv-x="1189" 
d="M891 516q134 0 206 -62.5t55 -164.5l-15 -82h-465q1 -61 47.5 -88t146.5 -27q29 0 56.5 2.5t45.5 6t41 10.5t33.5 11t33 13t29.5 12l-20 -114q-79 -29 -137.5 -39t-150.5 -10q-156 0 -222 93q-102 -93 -265 -93q-141 0 -214 73t-52 193t120 193t240 73q163 0 232 -93
q99 93 255 93zM330 94q81 0 139 43t70 113q12 71 -30 114t-124 43q-81 0 -139 -43.5t-70 -113.5t30 -113t124 -43zM1016 284q9 66 -26 94.5t-118 28.5q-80 0 -126 -30.5t-65 -100.5z" />
    <glyph glyph-name="Racute" unicode="&#x154;" horiz-adv-x="941" 
d="M460 744l28 80l352 186l-36 -102zM26 0l124 700h550q106 0 156.5 -51t35.5 -134t-84 -129.5t-172 -46.5h-74q41 -3 72.5 -12.5t58 -30.5t46 -44.5t39.5 -65.5t36 -82t38 -104h-170q-67 175 -91 217q-37 62 -91 75q-22 5 -52 5h-228l-52 -297h-142zM240 413h374
q118 0 132 81q8 46 -16 67.5t-86 21.5h-375z" />
    <glyph glyph-name="racute" unicode="&#x155;" horiz-adv-x="534" 
d="M326 544l28 80l352 186l-36 -102zM20 0l88 500h156l-57 -206h10q41 123 115 172.5t214 49.5l-20 -119q-154 0 -232 -51.5t-101 -168.5l-31 -177h-142z" />
    <glyph glyph-name="Rcommaaccent" unicode="&#x156;" horiz-adv-x="941" 
d="M26 0l124 700h550q106 0 156.5 -51t35.5 -134t-84 -129.5t-172 -46.5h-74q41 -3 72.5 -12.5t58 -30.5t46 -44.5t39.5 -65.5t36 -82t38 -104h-170q-67 175 -91 217q-37 62 -91 75q-22 5 -52 5h-228l-52 -297h-142zM240 413h374q118 0 132 81q8 46 -16 67.5t-86 21.5h-375z
M251 -350l111 270h125l-161 -270h-75z" />
    <glyph glyph-name="rcommaaccent" unicode="&#x157;" horiz-adv-x="534" 
d="M20 0l88 500h156l-57 -206h10q41 123 115 172.5t214 49.5l-20 -119q-154 0 -232 -51.5t-101 -168.5l-31 -177h-142zM-95 -350l111 270h125l-161 -270h-75z" />
    <glyph glyph-name="Rcaron" unicode="&#x158;" horiz-adv-x="941" 
d="M478 755l-255 186l14 80l259 -164l315 164l-14 -80zM26 0l124 700h550q106 0 156.5 -51t35.5 -134t-84 -129.5t-172 -46.5h-74q41 -3 72.5 -12.5t58 -30.5t46 -44.5t39.5 -65.5t36 -82t38 -104h-170q-67 175 -91 217q-37 62 -91 75q-22 5 -52 5h-228l-52 -297h-142z
M240 413h374q118 0 132 81q8 46 -16 67.5t-86 21.5h-375z" />
    <glyph glyph-name="rcaron" unicode="&#x159;" horiz-adv-x="534" 
d="M344 555l-255 186l14 80l259 -164l315 164l-14 -80zM20 0l88 500h156l-57 -206h10q41 123 115 172.5t214 49.5l-20 -119q-154 0 -232 -51.5t-101 -168.5l-31 -177h-142z" />
    <glyph glyph-name="Sacute" unicode="&#x15a;" horiz-adv-x="871" 
d="M492 744l28 80l352 186l-36 -102zM357 -16q-173 2 -264.5 68t-71.5 172h149q-10 -52 44.5 -85.5t159.5 -34.5q264 -3 284 96q7 35 -23.5 55t-84.5 27.5t-121 11.5t-132.5 13.5t-118 27.5t-79.5 58.5t-15 102.5q21 106 135.5 164.5t285.5 55.5q164 -3 252.5 -68.5
t72.5 -171.5h-149q10 51 -41.5 85.5t-152.5 35.5q-240 3 -257 -92q-6 -32 25.5 -49.5t85.5 -24.5t120 -11.5t131.5 -15t117 -30.5t77.5 -63t14 -107q-21 -106 -142 -164t-302 -56z" />
    <glyph glyph-name="sacute" unicode="&#x15b;" horiz-adv-x="672" 
d="M372 544l28 80l352 186l-36 -102zM287 -16q-133 0 -261 39l20 114q105 -43 238 -43q95 0 138 12t49 43q4 25 -27 37.5t-80 14t-105.5 8t-104 17t-75 42t-18.5 82.5q15 82 101.5 124t222.5 42q107 0 245 -28l-20 -110q-118 26 -230 26q-169 0 -178 -52q-4 -22 26.5 -33.5
t79.5 -13.5t105.5 -9t103.5 -18.5t74.5 -44.5t18.5 -84q-14 -84 -99.5 -124.5t-223.5 -40.5z" />
    <glyph glyph-name="Scedilla" unicode="&#x15e;" horiz-adv-x="871" 
d="M830 476h-149q10 51 -41.5 85.5t-152.5 35.5q-240 3 -257 -92q-6 -32 25.5 -49.5t85.5 -24.5t120 -11.5t131.5 -15t117 -30.5t77.5 -63t14 -107q-18 -93 -113.5 -149.5t-243.5 -67.5l-48 -56q145 -8 218.5 -36t58.5 -72q-17 -47 -146 -78t-319 -32l19 55q277 1 297 55
q9 24 -37 38q-60 18 -220 20l19 53l47 51q-162 7 -247 72t-65 167h149q-10 -52 44.5 -85.5t159.5 -34.5q264 -3 284 96q7 35 -23.5 55t-84.5 27.5t-121 11.5t-132.5 13.5t-118 27.5t-79.5 58.5t-15 102.5q21 106 135.5 164.5t285.5 55.5q164 -3 252.5 -68.5t72.5 -171.5z
" />
    <glyph glyph-name="scedilla" unicode="&#x15f;" horiz-adv-x="672" 
d="M202 352q-4 -22 26.5 -33.5t79.5 -13.5t105.5 -9t103.5 -18.5t74.5 -44.5t18.5 -84q-24 -142 -252 -162l-48 -56q145 -8 218.5 -36t58.5 -72q-17 -47 -146 -78t-319 -32l19 55q277 1 297 55q9 24 -37 38q-60 18 -220 20l19 53l47 51q-117 7 -221 38l20 114
q105 -43 238 -43q95 0 138 12t49 43q4 25 -27 37.5t-80 14t-105.5 8t-104 17t-75 42t-18.5 82.5q15 82 101.5 124t222.5 42q107 0 245 -28l-20 -110q-118 26 -230 26q-169 0 -178 -52z" />
    <glyph glyph-name="Scaron" unicode="&#x160;" horiz-adv-x="871" 
d="M510 755l-255 186l14 80l259 -164l315 164l-14 -80zM357 -16q-173 2 -264.5 68t-71.5 172h149q-10 -52 44.5 -85.5t159.5 -34.5q264 -3 284 96q7 35 -23.5 55t-84.5 27.5t-121 11.5t-132.5 13.5t-118 27.5t-79.5 58.5t-15 102.5q21 106 135.5 164.5t285.5 55.5
q164 -3 252.5 -68.5t72.5 -171.5h-149q10 51 -41.5 85.5t-152.5 35.5q-240 3 -257 -92q-6 -32 25.5 -49.5t85.5 -24.5t120 -11.5t131.5 -15t117 -30.5t77.5 -63t14 -107q-21 -106 -142 -164t-302 -56z" />
    <glyph glyph-name="scaron" unicode="&#x161;" horiz-adv-x="672" 
d="M390 555l-255 186l14 80l259 -164l315 164l-14 -80zM287 -16q-133 0 -261 39l20 114q105 -43 238 -43q95 0 138 12t49 43q4 25 -27 37.5t-80 14t-105.5 8t-104 17t-75 42t-18.5 82.5q15 82 101.5 124t222.5 42q107 0 245 -28l-20 -110q-118 26 -230 26q-169 0 -178 -52
q-4 -22 26.5 -33.5t79.5 -13.5t105.5 -9t103.5 -18.5t74.5 -44.5t18.5 -84q-14 -84 -99.5 -124.5t-223.5 -40.5z" />
    <glyph glyph-name="uni0162" unicode="&#x162;" horiz-adv-x="888" 
d="M453 0h-45l-60 -69q145 -8 218.5 -36t58.5 -72q-17 -47 -146 -78t-319 -32l19 55q277 1 297 55q9 24 -37 38q-60 18 -220 20l19 53l76 82l100 565h-341l22 119h823l-22 -119h-340z" />
    <glyph glyph-name="uni0163" unicode="&#x163;" horiz-adv-x="433" 
d="M181 -69q145 -8 218.5 -36t58.5 -72q-17 -47 -146 -78t-319 -32l19 55q277 1 297 55q9 24 -37 38q-60 18 -220 20l19 53l59 64q-44 14 -52 57t8 125l38 217h-72l19 103h91l22 120l125 20l-25 -140h145l-19 -103h-144l-33 -187q-19 -89 -1.5 -110t123.5 -15l-13 -75
q-53 -16 -109 -19z" />
    <glyph glyph-name="Tcaron" unicode="&#x164;" horiz-adv-x="888" 
d="M517 755l-255 186l14 80l259 -164l315 164l-14 -80zM311 0l103 581h-341l22 119h823l-22 -119h-340l-103 -581h-142z" />
    <glyph glyph-name="tcaron" unicode="&#x165;" horiz-adv-x="607" 
d="M440 429l111 270h125l-161 -270h-75zM203 -10q-94 0 -115.5 39t-1.5 151l38 217h-72l19 103h91l22 120l125 20l-25 -140h145l-19 -103h-144l-33 -187q-19 -89 -1.5 -110t123.5 -15l-13 -75q-63 -20 -139 -20z" />
    <glyph glyph-name="Tbar" unicode="&#x166;" horiz-adv-x="888" 
d="M896 581h-340l-34 -194h183l-20 -113h-183l-49 -274h-142l49 274h-175l20 113h175l34 194h-341l22 119h823z" />
    <glyph glyph-name="tbar" unicode="&#x167;" horiz-adv-x="433" 
d="M410 397h-144l-14 -80h155l-19 -105h-155v-2q-19 -89 -1.5 -110t123.5 -15l-13 -75q-63 -20 -139 -20q-94 0 -115.5 39t-1.5 151l6 32h-63l19 105h62l14 80h-72l19 103h91l22 120l125 20l-25 -140h145z" />
    <glyph glyph-name="Umacron" unicode="&#x16a;" horiz-adv-x="909" 
d="M278 846l10 54h532l-10 -54h-532zM392 -16q-71 0 -124 11.5t-95.5 39t-63 72t-27.5 110.5t11 155l58 328h142l-64 -358q-21 -120 24 -178t160 -58t180 58t86 178l64 358h142l-58 -328q-20 -110 -57.5 -186t-94.5 -120t-125.5 -63t-157.5 -19z" />
    <glyph glyph-name="umacron" unicode="&#x16b;" horiz-adv-x="709" 
d="M148 646l10 54h532l-10 -54h-532zM689 500l-88 -500h-156l57 206h-8q-75 -222 -285 -222q-108 2 -146 70.5t-10 228.5l38 217h142l-35 -200q-19 -113 4.5 -161t96.5 -48q79 0 139 70t83 188l26 151h142z" />
    <glyph glyph-name="Uring" unicode="&#x16e;" horiz-adv-x="909" 
d="M532 738q-105 0 -169 29t-48 74t100 74t189 29q113 0 173 -28.5t44 -74.5t-96 -74.5t-193 -28.5zM550 789q41 0 71 13.5t38 38.5q8 26 -12 39t-61 13q-89 0 -107 -52q-9 -25 11 -38.5t60 -13.5zM392 -16q-71 0 -124 11.5t-95.5 39t-63 72t-27.5 110.5t11 155l58 328h142
l-64 -358q-21 -120 24 -178t160 -58t180 58t86 178l64 358h142l-58 -328q-20 -110 -57.5 -186t-94.5 -120t-125.5 -63t-157.5 -19z" />
    <glyph glyph-name="uring" unicode="&#x16f;" horiz-adv-x="709" 
d="M405 538q-105 0 -169 29t-48 74t100 74t189 29q113 0 173 -28.5t44 -74.5t-96 -74.5t-193 -28.5zM423 589q41 0 71 13.5t38 38.5q8 26 -12 39t-61 13q-89 0 -107 -52q-9 -25 11 -38.5t60 -13.5zM689 500l-88 -500h-156l57 206h-8q-75 -222 -285 -222q-108 2 -146 70.5
t-10 228.5l38 217h142l-35 -200q-19 -113 4.5 -161t96.5 -48q79 0 139 70t83 188l26 151h142z" />
    <glyph glyph-name="Uhungarumlaut" unicode="&#x170;" horiz-adv-x="909" 
d="M390 744l14 80l319 186l-18 -102zM640 744l14 80l319 186l-18 -102zM392 -16q-71 0 -124 11.5t-95.5 39t-63 72t-27.5 110.5t11 155l58 328h142l-64 -358q-21 -120 24 -178t160 -58t180 58t86 178l64 358h142l-58 -328q-20 -110 -57.5 -186t-94.5 -120t-125.5 -63
t-157.5 -19z" />
    <glyph glyph-name="uhungarumlaut" unicode="&#x171;" horiz-adv-x="709" 
d="M263 544l14 80l319 186l-18 -102zM513 544l14 80l319 186l-18 -102zM689 500l-88 -500h-156l57 206h-8q-75 -222 -285 -222q-108 2 -146 70.5t-10 228.5l38 217h142l-35 -200q-19 -113 4.5 -161t96.5 -48q79 0 139 70t83 188l26 151h142z" />
    <glyph glyph-name="Uogonek" unicode="&#x172;" horiz-adv-x="909" 
d="M743 700h142l-58 -328q-25 -140 -82 -226.5t-136 -122t-191 -39.5q-51 -56 -9 -96q44 -41 146 -32q27 2 55 8l-17 -78q-97 -28 -184.5 -9t-112 73t38.5 136q-152 12 -214.5 101t-27.5 285l58 328h142l-64 -358q-21 -120 24 -178t160 -58t180 58t86 178z" />
    <glyph glyph-name="uogonek" unicode="&#x173;" horiz-adv-x="709" 
d="M522 0q-66 -59 -32 -104q33 -43 128 -42q39 1 80 10l-17 -78q-103 -30 -193 -7t-107.5 83.5t68.5 150.5l53 193h-8q-75 -222 -285 -222q-108 2 -146 70.5t-10 228.5l38 217h142l-35 -200q-19 -113 4.5 -161t96.5 -48q79 0 139 70t83 188l26 151h142l-88 -500h-79z" />
    <glyph glyph-name="Wcircumflex" unicode="&#x174;" horiz-adv-x="1266" 
d="M419 755l14 80l319 186l255 -186l-14 -80l-259 164zM245 0l-135 700h154l96 -516l266 516h139l84 -516l278 516h154l-383 -700h-160l-80 493l-254 -493h-159z" />
    <glyph glyph-name="wcircumflex" unicode="&#x175;" horiz-adv-x="1076" 
d="M300 555l14 80l319 186l255 -186l-14 -80l-259 164zM195 0l-126 500h142l93 -378l219 378h109l94 -381l228 381h141l-302 -500h-184l-67 288l-162 -288h-185z" />
    <glyph glyph-name="Ycircumflex" unicode="&#x176;" horiz-adv-x="935" 
d="M253 755l14 80l319 186l255 -186l-14 -80l-259 164zM335 0l40 226l-288 474h174l207 -349l330 349h174l-454 -472l-41 -228h-142z" />
    <glyph glyph-name="ycircumflex" unicode="&#x177;" horiz-adv-x="772" 
d="M183 555l14 80l319 186l255 -186l-14 -80l-259 164zM152 -200l148 201l-213 499h157l144 -368l271 368h150l-508 -700h-149z" />
    <glyph glyph-name="Ydieresis" unicode="&#x178;" horiz-adv-x="935" 
d="M396 738q-44 0 -67.5 23.5t-16.5 61.5t38.5 61.5t75.5 23.5q47 0 69 -23t15 -62t-37 -62t-77 -23zM686 738q-44 0 -67.5 23.5t-16.5 61.5t38.5 61.5t75.5 23.5q47 0 69 -23t15 -62t-37 -62t-77 -23zM335 0l40 226l-288 474h174l207 -349l330 349h174l-454 -472l-41 -228
h-142z" />
    <glyph glyph-name="Zacute" unicode="&#x179;" horiz-adv-x="891" 
d="M481 744l28 80l352 186l-36 -102zM-20 0l16 87l659 494h-564l22 119h787l-15 -85l-655 -495h577l-21 -120h-806z" />
    <glyph glyph-name="zacute" unicode="&#x17a;" horiz-adv-x="716" 
d="M409 544l28 80l352 186l-36 -102zM-14 0l10 60l465 333h-398l19 107h648l-10 -57l-463 -336h393l-18 -107h-646z" />
    <glyph glyph-name="Zdotaccent" unicode="&#x17b;" horiz-adv-x="891" 
d="M503 738q-44 0 -63 23.5t-6 61.5t49 61.5t80 23.5q47 0 65 -23t4 -62t-48 -62t-81 -23zM-20 0l16 87l659 494h-564l22 119h787l-15 -85l-655 -495h577l-21 -120h-806z" />
    <glyph glyph-name="zdotaccent" unicode="&#x17c;" horiz-adv-x="716" 
d="M431 538q-44 0 -63 23.5t-6 61.5t49 61.5t80 23.5q47 0 65 -23t4 -62t-48 -62t-81 -23zM-14 0l10 60l465 333h-398l19 107h648l-10 -57l-463 -336h393l-18 -107h-646z" />
    <glyph glyph-name="Zcaron" unicode="&#x17d;" horiz-adv-x="891" 
d="M499 755l-255 186l14 80l259 -164l315 164l-14 -80zM-20 0l16 87l659 494h-564l22 119h787l-15 -85l-655 -495h577l-21 -120h-806z" />
    <glyph glyph-name="zcaron" unicode="&#x17e;" horiz-adv-x="716" 
d="M427 555l-255 186l14 80l259 -164l315 164l-14 -80zM-14 0l10 60l465 333h-398l19 107h648l-10 -57l-463 -336h393l-18 -107h-646z" />
    <glyph glyph-name="Scommaaccent" unicode="&#x218;" horiz-adv-x="871" 
d="M357 -16q-173 2 -264.5 68t-71.5 172h149q-10 -52 44.5 -85.5t159.5 -34.5q264 -3 284 96q7 35 -23.5 55t-84.5 27.5t-121 11.5t-132.5 13.5t-118 27.5t-79.5 58.5t-15 102.5q21 106 135.5 164.5t285.5 55.5q164 -3 252.5 -68.5t72.5 -171.5h-149q10 51 -41.5 85.5
t-152.5 35.5q-240 3 -257 -92q-6 -32 25.5 -49.5t85.5 -24.5t120 -11.5t131.5 -15t117 -30.5t77.5 -63t14 -107q-21 -106 -142 -164t-302 -56zM204 -350l111 270h125l-161 -270h-75z" />
    <glyph glyph-name="scommaaccent" unicode="&#x219;" horiz-adv-x="672" 
d="M287 -16q-133 0 -261 39l20 114q105 -43 238 -43q95 0 138 12t49 43q4 25 -27 37.5t-80 14t-105.5 8t-104 17t-75 42t-18.5 82.5q15 82 101.5 124t222.5 42q107 0 245 -28l-20 -110q-118 26 -230 26q-169 0 -178 -52q-4 -22 26.5 -33.5t79.5 -13.5t105.5 -9t103.5 -18.5
t74.5 -44.5t18.5 -84q-14 -84 -99.5 -124.5t-223.5 -40.5zM85 -341l159 270h125l-209 -270h-75z" />
    <glyph glyph-name="uni021A" unicode="&#x21a;" horiz-adv-x="888" 
d="M311 0l103 581h-341l22 119h823l-22 -119h-340l-103 -581h-142zM196 -350l111 270h125l-161 -270h-75z" />
    <glyph glyph-name="uni021B" unicode="&#x21b;" horiz-adv-x="433" 
d="M203 -10q-94 0 -115.5 39t-1.5 151l38 217h-72l19 103h91l22 120l125 20l-25 -140h145l-19 -103h-144l-33 -187q-19 -89 -1.5 -110t123.5 -15l-13 -75q-63 -20 -139 -20zM-27 -341l159 270h125l-209 -270h-75z" />
    <glyph glyph-name="circumflex" unicode="&#x2c6;" horiz-adv-x="674" 
d="M27 555l14 80l319 186l255 -186l-14 -80l-259 164z" />
    <glyph glyph-name="caron" unicode="&#x2c7;" horiz-adv-x="674" 
d="M314 555l-255 186l14 80l259 -164l315 164l-14 -80z" />
    <glyph glyph-name="breve" unicode="&#x2d8;" horiz-adv-x="526" 
d="M250 551q-93 0 -145.5 41t-41.5 108h105q-6 -40 20 -60.5t74 -20.5q103 0 124 81h103q-13 -69 -76 -109t-163 -40z" />
    <glyph glyph-name="dotaccent" unicode="&#x2d9;" horiz-adv-x="298" 
d="M134 538q-44 0 -67.5 23.5t-16.5 61.5t38.5 61.5t75.5 23.5q47 0 69 -23t15 -62t-37 -62t-77 -23z" />
    <glyph glyph-name="ring" unicode="&#x2da;" horiz-adv-x="606" 
d="M285 538q-105 0 -174 29t-61 74t87 74t184 29q113 0 178 -28.5t57 -74.5t-83 -74.5t-188 -28.5zM294 589q41 0 68.5 13.5t31.5 38.5q4 26 -18.5 39t-63.5 13q-40 0 -67 -13.5t-31 -38.5t18 -38.5t62 -13.5z" />
    <glyph glyph-name="ogonek" unicode="&#x2db;" horiz-adv-x="445" 
d="M354 -214q-45 -13 -90.5 -16t-83.5 4.5t-68.5 22.5t-45.5 39.5t-15.5 53.5t22.5 65.5t69 75.5q56 47 75 23q12 -16 -3 -36q-2 -3 -5 -6q-78 -61 -50 -110q25 -43 115 -47q46 -2 97 9z" />
    <glyph glyph-name="tilde" unicode="&#x2dc;" horiz-adv-x="481" 
d="M296 572q-31 0 -52.5 18t-37.5 36t-32 18q-28 0 -47.5 -18t-26.5 -53h-61q10 58 51 94t95 36q21 0 39 -11.5t28 -24.5t24.5 -24.5t30.5 -11.5q62 0 75 71h60q-11 -59 -51.5 -94.5t-94.5 -35.5z" />
    <glyph glyph-name="hungarumlaut" unicode="&#x2dd;" horiz-adv-x="637" 
d="M27 544l14 80l319 186l-18 -102zM277 544l14 80l319 186l-18 -102z" />
    <glyph glyph-name="gravecomb" unicode="&#x300;" 
d="M-96 544l-230 164l36 102l222 -186z" />
    <glyph glyph-name="acutecomb" unicode="&#x301;" 
d="M-383 544l28 80l352 186l-36 -102z" />
    <glyph glyph-name="uni0302" unicode="&#x302;" 
d="M-670 555l28 80l352 186l222 -186l-28 -80l-230 164z" />
    <glyph glyph-name="tildecomb" unicode="&#x303;" 
d="M-196 572q-24 0 -41.5 11t-25 25t-18.5 25t-24 11q-62 0 -87 -71h-61q21 58 68 94t101 36q21 0 37 -11.5t23.5 -24.5t20 -24.5t28.5 -11.5q62 0 88 71h60q-22 -59 -68.5 -94.5t-100.5 -35.5z" />
    <glyph glyph-name="uni0304" unicode="&#x304;" 
d="M-592 646l19 54h532l-19 -54h-532z" />
    <glyph glyph-name="uni0306" unicode="&#x306;" 
d="M-289 551q-92 0 -137.5 41t-23.5 108h105q-12 -40 10 -60.5t70 -20.5q104 0 138 81h103q-24 -69 -94 -109t-171 -40z" />
    <glyph glyph-name="uni0307" unicode="&#x307;" 
d="M-121 538q-44 0 -63 23.5t-6 61.5t49 61.5t80 23.5q47 0 65 -23t4 -62t-48 -62t-81 -23z" />
    <glyph glyph-name="uni0308" unicode="&#x308;" 
d="M-469 538q-44 0 -63 23.5t-6 61.5t49 61.5t80 23.5q47 0 65 -23t4 -62t-48 -62t-81 -23zM-179 538q-44 0 -63 23.5t-6 61.5t49 61.5t80 23.5q47 0 65 -23t4 -62t-48 -62t-81 -23z" />
    <glyph glyph-name="uni030A" unicode="&#x30a;" 
d="M-339 538q-105 0 -169 29t-48 74t100 74t189 29q113 0 173 -28.5t44 -74.5t-96 -74.5t-193 -28.5zM-321 589q41 0 71 13.5t38 38.5q8 26 -12 39t-61 13q-89 0 -107 -52q-9 -25 11 -38.5t60 -13.5z" />
    <glyph glyph-name="uni030B" unicode="&#x30b;" 
d="M-633 544l28 80l352 186l-36 -102zM-383 544l28 80l352 186l-36 -102z" />
    <glyph glyph-name="uni030C" unicode="&#x30c;" 
d="M-383 555l-222 186l28 80l230 -164l344 164l-28 -80z" />
    <glyph glyph-name="uni0312" unicode="&#x312;" 
d="M-2 798l-159 -270h-125l209 270h75z" />
    <glyph glyph-name="uni0326" unicode="&#x326;" 
d="M-301 -341l159 270h125l-209 -270h-75z" />
    <glyph glyph-name="uni0327" unicode="&#x327;" 
d="M-533 -287l19 55q277 1 297 55q9 24 -37 38q-60 18 -220 20l19 53l93 101h107l-90 -104q145 -8 218.5 -36t58.5 -72q-17 -47 -146 -78t-319 -32z" />
    <glyph glyph-name="uni0328" unicode="&#x328;" 
d="M-114 -214q-55 -15 -107.5 -16t-92.5 10.5t-63.5 35t-25 55t28.5 73.5t91 87q63 47 78 23q10 -15 -7 -35q-3 -4 -7 -7q-89 -61 -69 -109q16 -43 101 -48q47 -3 104 9z" />
    <glyph glyph-name="uni0335" unicode="&#x335;" 
d="M-570 274l40 113h500l-40 -113h-500z" />
    <glyph glyph-name="uni0336" unicode="&#x336;" 
d="M-1070 274l40 113h1000l-40 -113h-1000z" />
    <glyph glyph-name="uni0337" unicode="&#x337;" 
d="M-829 0l682 500h141l-682 -500h-141z" />
    <glyph glyph-name="uni0338" unicode="&#x338;" 
d="M-1085 0l956 700h141l-956 -700h-141z" />
    <glyph glyph-name="uni0401" unicode="&#x401;" horiz-adv-x="825" 
d="M356 738q-44 0 -63 23.5t-6 61.5t49 61.5t80 23.5q47 0 65 -23t4 -62t-48 -62t-81 -23zM646 738q-44 0 -63 23.5t-6 61.5t49 61.5t80 23.5q47 0 65 -23t4 -62t-48 -62t-81 -23zM26 0l124 700h660l-22 -119h-518l-30 -170h509l-19 -111h-509l-32 -180h518l-21 -120h-660z
" />
    <glyph glyph-name="uni0410" unicode="&#x410;" horiz-adv-x="1090" 
d="M-30 0l551 700h172l303 -700h-164l-60 148h-517l-113 -148h-172zM344 268h380l-132 327z" />
    <glyph glyph-name="uni0411" unicode="&#x411;" horiz-adv-x="878" 
d="M825 581h-554l-27 -154h358q105 0 160.5 -55t37.5 -158q-16 -91 -91.5 -152.5t-181.5 -61.5h-500l123 700h696zM555 310h-333l-34 -193h334q62 0 94.5 23t41.5 74q8 51 -16.5 73.5t-86.5 22.5z" />
    <glyph glyph-name="uni0412" unicode="&#x412;" horiz-adv-x="926" 
d="M26 0l124 700h520q106 0 156.5 -51t35.5 -134q-26 -147 -222 -159q101 -2 151.5 -46t35.5 -124q-15 -84 -86 -135t-173 -51h-542zM240 405h342q119 0 133 86q9 46 -17.5 68t-84.5 22h-343zM190 121h364q118 0 135 94q8 46 -18 68.5t-84 22.5h-365z" />
    <glyph glyph-name="uni0413" unicode="&#x413;" horiz-adv-x="741" 
d="M26 0l124 700h643l-22 -119h-501l-102 -581h-142z" />
    <glyph glyph-name="uni0414" unicode="&#x414;" horiz-adv-x="927" 
d="M-59 -103l36 205q105 0 126 81l136 518l622 -1l-106 -598h117l-36 -205h-142l18 103h-611l-18 -103h-142zM211 120h405l82 461h-348l-102 -389q-11 -40 -37 -72z" />
    <glyph glyph-name="uni0415" unicode="&#x415;" horiz-adv-x="825" 
d="M26 0l124 700h660l-22 -119h-518l-30 -170h509l-19 -111h-509l-32 -180h518l-21 -120h-660z" />
    <glyph glyph-name="uni0416" unicode="&#x416;" horiz-adv-x="1313" 
d="M-52 0l492 351l-365 349h201l314 -324l58 324h142l-58 -324l429 324h202l-490 -349l368 -351h-204l-314 324l-57 -324h-142l57 324l-429 -324h-204z" />
    <glyph glyph-name="uni0417" unicode="&#x417;" horiz-adv-x="813" 
d="M299 -16q-209 2 -319 44l22 120q44 -20 135 -32t173 -12q289 0 304 82q5 30 -15.5 49t-83.5 33.5t-168 23.5t-279 17l15 82q226 9 350 24.5t167.5 36t48.5 53.5q9 47 -55.5 70t-197.5 23q-79 0 -174.5 -12.5t-148.5 -32.5l22 119q62 22 157.5 33.5t175.5 11.5
q71 0 123 -3.5t103 -15.5t81 -32.5t45 -56t7 -84.5q-6 -35 -28.5 -63.5t-50 -45.5t-67.5 -29.5t-68.5 -18t-67 -8.5t-50 -3h-28.5l-1 -9q1 0 31 -0.5t48.5 -1.5t55 -5t60 -10.5t52.5 -19.5t45 -29.5t24.5 -43t2.5 -58.5q-10 -59 -46 -99t-97.5 -61t-133.5 -29t-169 -7z" />
    <glyph glyph-name="uni0418" unicode="&#x418;" horiz-adv-x="971" 
d="M821 0h-142l88 503l-611 -503h-130l123 700h142l-89 -505l613 505h129z" />
    <glyph glyph-name="uni0419" unicode="&#x419;" horiz-adv-x="971" 
d="M543 751q-93 0 -133 41t-8 108h105q-18 -40 1.5 -60.5t67.5 -20.5q103 0 149 81h103q-34 -69 -109.5 -109t-175.5 -40zM787 0h-142l88 503l-611 -503h-130l123 700h142l-89 -505l613 505h129z" />
    <glyph glyph-name="uni041A" unicode="&#x41a;" horiz-adv-x="823" 
d="M26 0l124 700h142l-58 -324l429 324h202l-490 -349l368 -351h-204l-314 324l-57 -324h-142z" />
    <glyph glyph-name="uni041B" unicode="&#x41b;" horiz-adv-x="880" 
d="M-53 -15l21 80q48 -4 79 17.5t41 63.5l145 554h620l-123 -700h-142l102 581h-346l-110 -426q-23 -87 -104.5 -133t-182.5 -37z" />
    <glyph glyph-name="uni041C" unicode="&#x41c;" horiz-adv-x="1057" 
d="M26 0l124 700h146l208 -492l382 492h146l-124 -700h-142l83 474l-369 -474h-27l-202 472l-83 -472h-142z" />
    <glyph glyph-name="uni041D" unicode="&#x41d;" horiz-adv-x="930" 
d="M26 0l124 700h142l-50 -278h471l50 278h142l-124 -700h-142l53 302h-471l-53 -302h-142z" />
    <glyph glyph-name="uni041E" unicode="&#x41e;" horiz-adv-x="973" 
d="M421 -16q-203 0 -304.5 100t-72.5 266t166.5 266t340.5 100q204 0 305.5 -100t72.5 -266t-166.5 -266t-341.5 -100zM442 104q138 0 231 65.5t114 180.5q20 115 -49.5 181t-207.5 66t-231 -66t-113 -181q-21 -115 48.5 -180.5t207.5 -65.5z" />
    <glyph glyph-name="uni041F" unicode="&#x41f;" horiz-adv-x="825" 
d="M26 0l124 700h650l-124 -700h-142l102 581h-366l-102 -581h-142z" />
    <glyph glyph-name="uni0420" unicode="&#x420;" horiz-adv-x="878" 
d="M26 0l124 700h500q106 0 159.5 -62t37.5 -152q-18 -103 -93 -158t-180 -55h-358l-48 -273h-142zM236 390h333q62 0 94 22.5t42 73.5q9 51 -15 74t-86 23h-334z" />
    <glyph glyph-name="uni0421" unicode="&#x421;" horiz-adv-x="932" 
d="M401 -16q-190 0 -288 100.5t-69 265.5t163 265.5t324 100.5t290 -88t75 -233h-144q12 95 -54 148.5t-188 53.5q-128 0 -216 -66t-108 -181q-21 -115 43.5 -180.5t192.5 -65.5q123 0 208 53t106 148h144q-25 -145 -157 -233t-322 -88z" />
    <glyph glyph-name="uni0422" unicode="&#x422;" horiz-adv-x="888" 
d="M311 0l103 581h-341l22 119h823l-22 -119h-340l-103 -581h-142z" />
    <glyph glyph-name="uni0423" unicode="&#x423;" horiz-adv-x="772" 
d="M152 -1l148 201l-213 499h157l144 -368l271 368h150l-508 -700h-149z" />
    <glyph glyph-name="uni0424" unicode="&#x424;" horiz-adv-x="715" 
d="M465 617q113 -16 169 -86t37 -176t-99.5 -176t-199.5 -86l-16 -93h-122l16 93q-113 15 -169 85.5t-37 176.5t100 176.5t199 85.5l15 83h122zM176 355q-10 -55 15.5 -95t79.5 -54l52 299q-58 -14 -97.5 -54t-49.5 -96zM539 355q10 56 -15 95.5t-79 53.5l-52 -297
q58 14 97 53.5t49 94.5z" />
    <glyph glyph-name="uni0425" unicode="&#x425;" horiz-adv-x="934" 
d="M-15 0l386 352l-260 348h185l189 -252l278 252h185l-390 -354l258 -346h-183l-188 251l-277 -251h-183z" />
    <glyph glyph-name="uni0426" unicode="&#x426;" horiz-adv-x="820" 
d="M594 -103l18 103h-575l124 700h142l-103 -580h311l103 580h142l-103 -580h122l-39 -223h-142z" />
    <glyph glyph-name="uni0427" unicode="&#x427;" horiz-adv-x="707" 
d="M704 700l-124 -700h-156l92 406h-8q-75 -222 -285 -222q-108 2 -146 70.5t-10 228.5l39 217h142l-36 -200q-19 -113 4.5 -161t96.5 -48q81 0 141.5 74t82.5 197v-2l25 140h142z" />
    <glyph glyph-name="uni0428" unicode="&#x428;" horiz-adv-x="1138" 
d="M28 0l124 700h142l-103 -580h266l103 580h142l-103 -580h266l103 580h142l-124 -700h-958z" />
    <glyph glyph-name="uni0429" unicode="&#x429;" horiz-adv-x="1183" 
d="M957 -103l18 103h-938l124 700h142l-103 -580h266l103 580h142l-103 -580h266l103 580h142l-103 -580h122l-39 -223h-142z" />
    <glyph glyph-name="uni042A" unicode="&#x42a;" horiz-adv-x="878" 
d="M602 427q105 0 160.5 -55t37.5 -158q-16 -91 -91.5 -152.5t-181.5 -61.5h-500l105 598h-66l18 102h208l-48 -273h358zM658 214q8 51 -16.5 73.5t-86.5 22.5h-333l-34 -193h334q62 0 94.5 23t41.5 74z" />
    <glyph glyph-name="uni042B" unicode="&#x42b;" horiz-adv-x="1195" 
d="M150 700h142l-48 -273h358q105 0 160.5 -55t37.5 -158q-16 -91 -91.5 -152.5t-181.5 -61.5h-500zM901 0l124 700h142l-124 -700h-142zM222 310l-34 -193h334q62 0 94.5 23t41.5 74q8 51 -16.5 73.5t-86.5 22.5h-333z" />
    <glyph glyph-name="uni042C" unicode="&#x42c;" horiz-adv-x="878" 
d="M150 700h142l-48 -273h358q105 0 160.5 -55t37.5 -158q-16 -91 -91.5 -152.5t-181.5 -61.5h-500zM222 310l-34 -193h334q62 0 94.5 23t41.5 74q8 51 -16.5 73.5t-86.5 22.5h-333z" />
    <glyph glyph-name="uni042D" unicode="&#x42d;" horiz-adv-x="932" 
d="M530 716q190 0 288 -100.5t69 -265.5q-28 -165 -162 -265.5t-324 -100.5t-290 88t-75 233h144q-13 -94 53.5 -147.5t189.5 -53.5q110 0 190.5 48.5t114.5 136.5h-358l22 120h358q-3 89 -67.5 138.5t-173.5 49.5q-122 0 -207.5 -53.5t-106.5 -148.5h-144q25 145 157 233
t322 88z" />
    <glyph glyph-name="uni042E" unicode="&#x42e;" horiz-adv-x="1343" 
d="M921 716q204 0 305.5 -100t72.5 -266t-166.5 -266t-341.5 -100q-184 0 -285 82t-98 223h-187l-51 -289h-142l124 700h142l-52 -291h187q46 142 177 224.5t315 82.5zM1157 350q20 115 -49.5 181t-207.5 66t-231 -66t-113 -181q-21 -115 48.5 -180.5t207.5 -65.5t231 65.5
t114 180.5z" />
    <glyph glyph-name="uni042F" unicode="&#x42f;" horiz-adv-x="941" 
d="M791 0h-142l53 297h-228q-37 0 -65.5 -8.5t-55 -26.5t-56 -51t-64 -78t-83.5 -112l-15 -21h-170q54 77 88.5 123t75.5 90.5t76 68t77.5 39t92.5 18.5h-74q-103 0 -156 46.5t-38 129.5q14 82 82.5 133.5t174.5 51.5h550zM723 413l31 170h-375q-62 0 -94 -21.5t-40 -67.5
q-7 -40 18 -60.5t86 -20.5h374z" />
    <glyph glyph-name="uni0430" unicode="&#x430;" horiz-adv-x="679" 
d="M183 -16q-33 0 -60.5 4.5t-55.5 17.5t-41 41t-6 69q9 50 53.5 85t129 53.5t132 25t144.5 14.5q14 1 20 2q10 58 -20 82.5t-105 24.5q-113 0 -250 -55l20 114q157 54 289 54q246 0 206 -234l-50 -282h-140l58 179h-9q-77 -195 -315 -195zM296 87q71 9 123.5 43t64.5 94
q-12 -1 -52 -4t-59.5 -5t-55 -6.5t-55 -10t-42 -13.5t-34 -20t-14.5 -27q-5 -31 29 -45t95 -6z" />
    <glyph glyph-name="uni0431" unicode="&#x431;" horiz-adv-x="864" 
d="M388 -12q-190 0 -283.5 94t-60.5 280q30 170 165.5 261.5t335.5 91.5q31 0 83 -2t78 -2t61.5 5.5t64.5 18.5l-23 -133q-40 -12 -82 -13.5t-108.5 2.5t-105.5 4q-132 0 -223.5 -67.5t-106.5 -185.5q64 49 152 83.5t183 34.5q163 0 231 -68.5t44 -179.5
q-21 -103 -128.5 -163.5t-276.5 -60.5zM400 108q116 0 179 28.5t75 93.5q11 60 -34 91.5t-146 31.5q-73 0 -159 -29t-134 -74q10 -73 63.5 -107.5t155.5 -34.5z" />
    <glyph glyph-name="uni0432" unicode="&#x432;" horiz-adv-x="801" 
d="M46 0l88 500h425q119 0 166.5 -32t34.5 -103q-9 -53 -57.5 -79t-145.5 -30q108 -2 152 -30.5t34 -89.5q-13 -71 -72.5 -103.5t-177.5 -32.5h-447zM240 295h228q138 0 147 49q5 29 -25.5 41.5t-103.5 12.5h-229zM207 103h249q138 0 148 59q5 27 -26 40.5t-102 13.5h-250z
" />
    <glyph glyph-name="uni0433" unicode="&#x433;" horiz-adv-x="580" 
d="M46 0l88 500h473l-21 -119h-331l-67 -381h-142z" />
    <glyph glyph-name="uni0434" unicode="&#x434;" horiz-adv-x="817" 
d="M-44 -103l36 205q106 0 125 81l92 352h522l-76 -433h121l-36 -205h-142l18 103h-500l-18 -103h-142zM219 120h295l52 296h-246l-53 -206q-13 -50 -48 -90z" />
    <glyph glyph-name="uni0435" unicode="&#x435;" horiz-adv-x="690" 
d="M298 -16q-136 0 -205.5 73t-48.5 193t116.5 193t231.5 73q134 0 206 -62.5t55 -164.5l-15 -82h-465q1 -61 47.5 -88t146.5 -27q29 0 56.5 2.5t45.5 6t41 10.5t33.5 11t33 13t29.5 12l-20 -114q-79 -29 -137.5 -39t-150.5 -10zM182 276l335 8q9 66 -26 94.5t-118 28.5
q-80 0 -126 -30.5t-65 -100.5z" />
    <glyph glyph-name="uni0436" unicode="&#x436;" horiz-adv-x="1193" 
d="M-34 0l441 251l-343 249h204l266 -203l36 203h142l-36 -204l337 204h204l-431 -249l353 -251h-214l-266 203l-35 -203h-142l35 204l-337 -204h-214z" />
    <glyph glyph-name="uni0437" unicode="&#x437;" horiz-adv-x="818" 
d="M319 -15q-210 2 -318 44l21 120q44 -20 135 -32t173 -12q162 0 223.5 9t65.5 30q2 11 -6 19t-34 15t-63 12t-103 10t-144 9.5t-196 9.5l11 65q332 12 439 24.5t112 42.5q2 12 -8.5 20.5t-39.5 14t-79 8t-127 2.5q-79 0 -174.5 -12.5t-148.5 -32.5l21 119
q62 22 157.5 33.5t175.5 11.5q86 0 151 -5.5t120 -19.5t80.5 -40t18.5 -64q-5 -31 -30.5 -55t-66 -37t-75.5 -21.5t-82.5 -11t-62 -3t-36.5 -0.5l-1 -9h27t40.5 -0.5t48.5 -2t53 -5t51 -9t47 -15t36 -21.5t22.5 -29.5t2.5 -38.5q-25 -146 -437 -143z" />
    <glyph glyph-name="uni0438" unicode="&#x438;" horiz-adv-x="868" 
d="M46 0l88 500h142l-61 -347l478 347h129l-88 -500h-142l61 347l-477 -347h-130z" />
    <glyph glyph-name="uni0439" unicode="&#x439;" horiz-adv-x="868" 
d="M435 551q-92 0 -123 40.5t15 108.5h105q-26 -41 -11.5 -61t62.5 -20q104 0 167 81h103q-49 -69 -133 -109t-185 -40zM28 0l88 500h142l-61 -348l478 348h129l-88 -500h-142l62 348l-478 -348h-130z" />
    <glyph glyph-name="uni043A" unicode="&#x43a;" horiz-adv-x="750" 
d="M44 0l88 500h142l-36 -204l337 204h204l-431 -249l353 -251h-214l-266 203l-35 -203h-142z" />
    <glyph glyph-name="uni043B" unicode="&#x43b;" horiz-adv-x="715" 
d="M-28 -12l11 80q101 0 120 81l92 351h527l-88 -500h-142l67 381h-253l-57 -223q-24 -88 -100.5 -133t-176.5 -37z" />
    <glyph glyph-name="uni043C" unicode="&#x43c;" horiz-adv-x="982" 
d="M46 0l88 500h151l194 -322l306 322h151l-88 -500h-142l54 307l-302 -307h-22l-193 310l-55 -310h-142z" />
    <glyph glyph-name="uni043D" unicode="&#x43d;" horiz-adv-x="855" 
d="M46 0l88 500h142l-32 -179h391l32 179h142l-88 -500h-142l35 201h-391l-35 -201h-142z" />
    <glyph glyph-name="uni043E" unicode="&#x43e;" horiz-adv-x="715" 
d="M310 -16q-141 0 -214 73t-52 193t120 193t240 73q142 0 215 -73t52 -193t-120 -193t-241 -73zM330 94q81 0 139 43t70 113q12 71 -30 114t-124 43q-81 0 -139 -43.5t-70 -113.5t30 -113t124 -43z" />
    <glyph glyph-name="uni043F" unicode="&#x43f;" horiz-adv-x="790" 
d="M44 0l88 500h615l-88 -500h-142l66 378h-331l-66 -378h-142z" />
    <glyph glyph-name="uni0440" unicode="&#x440;" horiz-adv-x="775" 
d="M2 -200l124 700h146l-51 -163h11q32 86 117 132.5t186 46.5q109 0 170.5 -75.5t40.5 -194.5q-20 -115 -108 -188.5t-198 -73.5q-97 0 -161.5 46.5t-67.5 131.5h-4v-1l-63 -361h-142zM402 94q79 0 135.5 41.5t69.5 112.5q13 73 -29 116t-120 43q-74 0 -134 -43.5
t-74 -115.5q-12 -70 33 -112t119 -42z" />
    <glyph glyph-name="uni0441" unicode="&#x441;" horiz-adv-x="624" 
d="M303 -16q-136 0 -208 73t-51 193q21 121 117 193.5t237 72.5q64 0 112.5 -12.5t106.5 -41.5l-20 -117q-99 62 -192 62q-98 0 -152.5 -37.5t-69.5 -119.5t27.5 -119t141.5 -37q107 0 211 58l-20 -114q-74 -30 -122.5 -42t-117.5 -12z" />
    <glyph glyph-name="uni0442" unicode="&#x442;" horiz-adv-x="728" 
d="M250 0l66 381h-260l21 119h663l-21 -119h-261l-66 -381h-142z" />
    <glyph glyph-name="uni0443" unicode="&#x443;" horiz-adv-x="772" 
d="M152 -200l148 201l-213 499h157l144 -368l271 368h150l-508 -700h-149z" />
    <glyph glyph-name="uni0444" unicode="&#x444;" horiz-adv-x="715" 
d="M464 512q114 -15 170 -85.5t37 -176.5t-100 -176.5t-200 -85.5l-15 -84h-122l15 84q-112 16 -168 86t-37 176t99.5 176t198.5 86l16 92h122zM539 250q10 56 -15.5 96t-79.5 54l-53 -299q59 14 98.5 53.5t49.5 95.5zM176 250q-10 -55 15 -94.5t78 -53.5l53 297
q-58 -14 -97 -53.5t-49 -95.5z" />
    <glyph glyph-name="uni0445" unicode="&#x445;" horiz-adv-x="791" 
d="M-18 0l315 251l-227 249h184l155 -170l217 170h183l-323 -255l223 -245h-183l-152 166l-210 -166h-182z" />
    <glyph glyph-name="uni0446" unicode="&#x446;" horiz-adv-x="785" 
d="M576 -103l18 103h-539l88 500h142l-67 -380h276l67 380h142l-67 -380h121l-39 -223h-142z" />
    <glyph glyph-name="uni0447" unicode="&#x447;" horiz-adv-x="707" 
d="M442 0l71 314h-4q-75 -222 -284 -222q-109 2 -147 70.5t-10 228.5l20 109h142l-17 -92q-19 -113 4.5 -161t96.5 -48q81 0 142 73.5t82 197.5v-2l6 32h142l-88 -500h-156z" />
    <glyph glyph-name="uni0448" unicode="&#x448;" horiz-adv-x="1113" 
d="M46 0l88 500h142l-67 -380h254l67 380h142l-67 -380h253l67 380h142l-88 -500h-933z" />
    <glyph glyph-name="uni0449" unicode="&#x449;" horiz-adv-x="1158" 
d="M949 -103l18 103h-912l88 500h142l-67 -380h254l67 380h142l-67 -380h253l67 380h142l-67 -380h121l-39 -223h-142z" />
    <glyph glyph-name="uni044A" unicode="&#x44a;" horiz-adv-x="840" 
d="M26 0l102 581h-117l21 119h260l-49 -273h319q105 0 160 -55t37 -158q-16 -91 -91.5 -152.5t-181.5 -61.5h-460zM188 117h293q62 0 94 23t42 74q9 51 -15 73.5t-86 22.5h-294z" />
    <glyph glyph-name="uni044B" unicode="&#x44b;" horiz-adv-x="1158" 
d="M28 0l124 700h142l-48 -273h318q105 0 160 -55t37 -158q-16 -91 -91.5 -152.5t-181.5 -61.5h-460zM864 0l124 700h142l-124 -700h-142zM191 117h293q62 0 94 23t41 74t-15 73.5t-86 22.5h-293z" />
    <glyph glyph-name="uni044C" unicode="&#x44c;" horiz-adv-x="840" 
d="M26 0l124 700h142l-49 -273h319q105 0 160 -55t37 -158q-16 -91 -91.5 -152.5t-181.5 -61.5h-460zM188 117h293q62 0 94 23t42 74q9 51 -15 73.5t-86 22.5h-294z" />
    <glyph glyph-name="uni044D" unicode="&#x44d;" horiz-adv-x="624" 
d="M320 516q141 0 211.5 -72.5t48.5 -193.5q-21 -119 -119 -192.5t-234 -73.5q-69 0 -113 12t-108 42l21 114q83 -58 190 -58q165 0 210 105h-264l18 102h264q-8 106 -170 106q-93 0 -214 -62l21 117q69 29 121.5 41.5t116.5 12.5z" />
    <glyph glyph-name="uni044E" unicode="&#x44e;" horiz-adv-x="1008" 
d="M664 516q142 0 215 -73t52 -193t-120 -193t-241 -73q-122 0 -194 55.5t-76 150.5h-89l-33 -190h-142l88 500h142l-33 -190h88q37 95 129 150.5t214 55.5zM799 250q12 71 -30 114t-124 43q-81 0 -139 -43.5t-70 -113.5t30 -113t124 -43q81 0 139 43t70 113z" />
    <glyph glyph-name="uni044F" unicode="&#x44f;" horiz-adv-x="811" 
d="M-13 0q109 113 183 153.5t186 45.5h-57q-119 0 -165.5 35t-33.5 114q13 73 71.5 105t177.5 32h415l-85 -485h-142l29 162h-114q-61 0 -95 -9t-80.5 -42.5t-125.5 -110.5h-164zM366 270h219l19 108h-219q-74 0 -108 -11t-39 -38q-5 -33 24.5 -46t103.5 -13z" />
    <glyph glyph-name="uni0451" unicode="&#x451;" horiz-adv-x="690" 
d="M262 538q-44 0 -63 23.5t-6 61.5t49 61.5t80 23.5q47 0 65 -23t4 -62t-48 -62t-81 -23zM552 538q-44 0 -63 23.5t-6 61.5t49 61.5t80 23.5q47 0 65 -23t4 -62t-48 -62t-81 -23zM298 -16q-136 0 -205.5 73t-48.5 193t116.5 193t231.5 73q134 0 206 -62.5t55 -164.5
l-15 -82h-465q1 -61 47.5 -88t146.5 -27q29 0 56.5 2.5t45.5 6t41 10.5t33.5 11t33 13t29.5 12l-20 -114q-79 -29 -137.5 -39t-150.5 -10zM182 276l335 8q9 66 -26 94.5t-118 28.5q-80 0 -126 -30.5t-65 -100.5z" />
    <glyph glyph-name="Wgrave" unicode="&#x1e80;" horiz-adv-x="1266" 
d="M710 744l-259 164l18 102l255 -186zM245 0l-135 700h154l96 -516l266 516h139l84 -516l278 516h154l-383 -700h-160l-80 493l-254 -493h-159z" />
    <glyph glyph-name="wgrave" unicode="&#x1e81;" horiz-adv-x="1076" 
d="M591 544l-259 164l18 102l255 -186zM195 0l-126 500h142l93 -378l219 378h109l94 -381l228 381h141l-302 -500h-184l-67 288l-162 -288h-185z" />
    <glyph glyph-name="Wacute" unicode="&#x1e82;" horiz-adv-x="1266" 
d="M680 744l14 80l319 186l-18 -102zM245 0l-135 700h154l96 -516l266 516h139l84 -516l278 516h154l-383 -700h-160l-80 493l-254 -493h-159z" />
    <glyph glyph-name="wacute" unicode="&#x1e83;" horiz-adv-x="1076" 
d="M561 544l14 80l319 186l-18 -102zM195 0l-126 500h142l93 -378l219 378h109l94 -381l228 381h141l-302 -500h-184l-67 288l-162 -288h-185z" />
    <glyph glyph-name="Wdieresis" unicode="&#x1e84;" horiz-adv-x="1266" 
d="M562 738q-44 0 -67.5 23.5t-16.5 61.5t38.5 61.5t75.5 23.5q47 0 69 -23t15 -62t-37 -62t-77 -23zM852 738q-44 0 -67.5 23.5t-16.5 61.5t38.5 61.5t75.5 23.5q47 0 69 -23t15 -62t-37 -62t-77 -23zM245 0l-135 700h154l96 -516l266 516h139l84 -516l278 516h154
l-383 -700h-160l-80 493l-254 -493h-159z" />
    <glyph glyph-name="wdieresis" unicode="&#x1e85;" horiz-adv-x="1076" 
d="M437 538q-44 0 -67.5 23.5t-16.5 61.5t38.5 61.5t75.5 23.5q47 0 69 -23t15 -62t-37 -62t-77 -23zM727 538q-44 0 -67.5 23.5t-16.5 61.5t38.5 61.5t75.5 23.5q47 0 69 -23t15 -62t-37 -62t-77 -23zM195 0l-126 500h142l93 -378l219 378h109l94 -381l228 381h141
l-302 -500h-184l-67 288l-162 -288h-185z" />
    <glyph glyph-name="Ygrave" unicode="&#x1ef2;" horiz-adv-x="935" 
d="M544 744l-259 164l18 102l255 -186zM335 0l40 226l-288 474h174l207 -349l330 349h174l-454 -472l-41 -228h-142z" />
    <glyph glyph-name="ygrave" unicode="&#x1ef3;" horiz-adv-x="772" 
d="M474 544l-259 164l18 102l255 -186zM152 -200l148 201l-213 499h157l144 -368l271 368h150l-508 -700h-149z" />
    <glyph glyph-name="endash" unicode="&#x2013;" horiz-adv-x="560" 
d="M20 274l20 113h500l-20 -113h-500z" />
    <glyph glyph-name="emdash" unicode="&#x2014;" horiz-adv-x="1060" 
d="M20 274l20 113h1000l-20 -113h-1000z" />
    <glyph glyph-name="quoteleft" unicode="&#x2018;" horiz-adv-x="293" 
d="M287 700l-111 -270h-125l161 270h75z" />
    <glyph glyph-name="quoteright" unicode="&#x2019;" horiz-adv-x="293" 
d="M6 430l111 270h125l-161 -270h-75z" />
    <glyph glyph-name="quotesinglbase" unicode="&#x201a;" horiz-adv-x="293" 
d="M6 -169l111 270h125l-161 -270h-75z" />
    <glyph glyph-name="quotedblleft" unicode="&#x201c;" horiz-adv-x="515" 
d="M287 700l-111 -270h-125l161 270h75zM509 700l-111 -270h-125l161 270h75z" />
    <glyph glyph-name="quotedblright" unicode="&#x201d;" horiz-adv-x="515" 
d="M6 430l111 270h125l-161 -270h-75zM228 430l111 270h125l-161 -270h-75z" />
    <glyph glyph-name="quotedblbase" unicode="&#x201e;" horiz-adv-x="293" 
d="M117 101h125l-161 -270h-75z" />
    <glyph glyph-name="dagger" unicode="&#x2020;" horiz-adv-x="580" 
d="M141 -170l97 556h-188l19 113h189l39 221h142l-39 -221h189l-19 -113h-190l-97 -556h-142z" />
    <glyph glyph-name="daggerdbl" unicode="&#x2021;" horiz-adv-x="600" 
d="M141 -170l30 170h-189l20 113h189l47 273h-188l19 113h189l39 221h142l-39 -221h189l-19 -113h-190l-47 -273h189l-20 -113h-189l-30 -170h-142z" />
    <glyph glyph-name="bullet" unicode="&#x2022;" horiz-adv-x="568" 
d="M246 62q-89 0 -140.5 57.5t-36.5 146.5q15 87 87 144t163 57t143.5 -57t36.5 -144q-15 -90 -86 -147t-167 -57z" />
    <glyph glyph-name="ellipsis" unicode="&#x2026;" horiz-adv-x="905" 
d="M122 -15q-34 0 -56.5 22t-21.5 56q1 33 25.5 55t59.5 22t58 -22t22 -55q-1 -34 -25.5 -56t-61.5 -22zM422 -15q-34 0 -56.5 22t-21.5 56q1 33 25.5 55t59.5 22t58 -22t22 -55q-1 -34 -25.5 -56t-61.5 -22zM722 -15q-34 0 -56.5 22t-21.5 56q1 33 25.5 55t59.5 22t58 -22
t22 -55q-1 -34 -25.5 -56t-61.5 -22z" />
    <glyph glyph-name="perthousand" unicode="&#x2030;" horiz-adv-x="1519" 
d="M278 460q-86 0 -141 35t-45 90t77.5 90t153.5 35q93 0 145 -34.5t42 -90.5t-74.5 -90.5t-157.5 -34.5zM48 0l827 700h126l-827 -700h-126zM287 507q48 0 80.5 21t38.5 57q5 36 -20 57t-72 21q-46 0 -78.5 -21t-38.5 -57q-7 -36 18 -57t72 -21zM717 -11q-86 0 -141.5 35
t-45.5 90t78 90t154 35q93 0 144.5 -34.5t41.5 -90.5t-74 -90.5t-157 -34.5zM1196 -11q-86 0 -141.5 35t-45.5 90t78 90t154 35q93 0 144.5 -34.5t41.5 -90.5t-74 -90.5t-157 -34.5zM726 36q47 0 80 21.5t38 56.5q6 36 -19 57t-72 21q-46 0 -78.5 -21t-39.5 -57
q-6 -36 19 -57t72 -21zM1205 36q47 0 80 21.5t38 56.5q6 36 -19 57t-72 21q-46 0 -78.5 -21t-39.5 -57q-6 -36 19 -57t72 -21z" />
    <glyph glyph-name="guilsinglleft" unicode="&#x2039;" horiz-adv-x="446" 
d="M192 0l-162 250l250 250h180l-258 -250l170 -250h-180z" />
    <glyph glyph-name="guilsinglright" unicode="&#x203a;" horiz-adv-x="446" 
d="M-14 0l258 250l-170 250h180l162 -250l-250 -250h-180z" />
    <glyph glyph-name="fraction" unicode="&#x2044;" horiz-adv-x="1053" 
d="M-39 -100l990 900h141l-990 -900h-141z" />
    <glyph glyph-name="Euro" unicode="&#x20ac;" horiz-adv-x="1017" 
d="M981 395h-144q12 95 -54 148.5t-188 53.5q-87 0 -158 -32t-114 -91h344l-18 -102h-373q-4 -13 -5 -22l-3 -19h373l-18 -102h-345q22 -60 81.5 -92.5t147.5 -32.5q123 0 208 53t106 148h144q-25 -145 -157 -233t-322 -88q-151 0 -246 65.5t-113 179.5h-134l18 102h115
l3 19q1 3 2 10.5t2 11.5h-114l18 102h134q59 113 177 177.5t268 64.5q190 0 290 -88t75 -233z" />
    <glyph glyph-name="trademark" unicode="&#x2122;" horiz-adv-x="1308" 
d="M259 222l71 397h-233l15 81h562l-15 -81h-232l-71 -397h-97zM633 222l84 478h100l142 -336l261 336h100l-85 -478h-97l57 324l-252 -324h-19l-138 322l-56 -322h-97z" />
    <glyph glyph-name="oneeighth" unicode="&#x215b;" horiz-adv-x="1704" 
d="M355 -22l818 744h116l-818 -744h-116zM247 161l69 388l-256 -148l17 96l296 142h56l-85 -478h-97zM1340 47q-122 0 -187.5 35t-53.5 104q16 93 174 110q-55 10 -92 38.5t-27 82.5q11 63 83.5 97t190.5 34q110 0 174.5 -33.5t53.5 -97.5q-9 -54 -56.5 -82.5t-105.5 -38.5
q62 -7 103 -31.5t32 -78.5q-12 -66 -92 -103.5t-197 -35.5zM1391 337q84 0 121.5 16t42.5 49q6 30 -34 48t-107 18t-113.5 -18t-52.5 -48q-5 -34 26.5 -49.5t116.5 -15.5zM1354 127q78 0 125.5 17t52.5 49q6 32 -29.5 47.5t-126.5 15.5q-90 0 -131.5 -15.5t-47.5 -47.5
q-5 -32 36.5 -49t120.5 -17z" />
    <glyph glyph-name="threeeighths" unicode="&#x215c;" horiz-adv-x="1711" 
d="M351 -22l818 744h116l-818 -744h-116zM224 150q-142 2 -218 30l15 82q30 -14 92 -22t119 -8q198 0 207 56q3 21 -10.5 34t-57 22.5t-114.5 16t-191 11.5l11 56q154 6 238.5 16.5t114 24.5t33.5 37q6 32 -38 47.5t-135 15.5q-54 0 -119.5 -8.5t-100.5 -21.5l15 81
q90 31 227 31q61 0 103.5 -4.5t80 -18t53.5 -40.5t9 -68q-6 -33 -33 -57t-55.5 -34.5t-69.5 -16.5t-55.5 -6.5t-32.5 -0.5l-1 -6q1 0 25.5 -0.5t40 -2t43.5 -5t46 -11.5t36 -20t25 -31.5t2 -44.5q-7 -40 -31.5 -67.5t-66.5 -41.5t-91 -19.5t-116 -5.5zM1347 44
q-122 0 -187.5 35t-53.5 104q16 93 174 110q-55 10 -92 38.5t-27 82.5q11 63 83.5 97t190.5 34q110 0 174.5 -33.5t53.5 -97.5q-9 -54 -56.5 -82.5t-105.5 -38.5q62 -7 103 -31.5t32 -78.5q-12 -66 -92 -103.5t-197 -35.5zM1398 334q84 0 121.5 16t42.5 49q6 30 -34 48
t-107 18t-113.5 -18t-52.5 -48q-5 -34 26.5 -49.5t116.5 -15.5zM1361 124q78 0 125.5 17t52.5 49q6 32 -29.5 47.5t-126.5 15.5q-90 0 -131.5 -15.5t-47.5 -47.5q-5 -32 36.5 -49t120.5 -17z" />
    <glyph glyph-name="fiveeighths" unicode="&#x215d;" horiz-adv-x="1751" 
d="M395 -22l818 744h116l-818 -744h-116zM219 147q-51 0 -117 8t-95 20l16 88q25 -13 92 -23.5t117 -10.5q97 0 146 21t57 68q8 39 -25 56t-109 17q-100 0 -237 -43l52 288h447l-14 -81h-373l-20 -116q88 29 188 29q44 0 77.5 -6t63.5 -22t42.5 -48.5t4.5 -79.5
q-14 -78 -99 -121.5t-214 -43.5zM1387 44q-122 0 -187.5 35t-53.5 104q16 93 174 110q-55 10 -92 38.5t-27 82.5q11 63 83.5 97t190.5 34q110 0 174.5 -33.5t53.5 -97.5q-9 -54 -56.5 -82.5t-105.5 -38.5q62 -7 103 -31.5t32 -78.5q-12 -66 -92 -103.5t-197 -35.5zM1438 334
q84 0 121.5 16t42.5 49q6 30 -34 48t-107 18t-113.5 -18t-52.5 -48q-5 -34 26.5 -49.5t116.5 -15.5zM1401 124q78 0 125.5 17t52.5 49q6 32 -29.5 47.5t-126.5 15.5q-90 0 -131.5 -15.5t-47.5 -47.5q-5 -32 36.5 -49t120.5 -17z" />
    <glyph glyph-name="seveneighths" unicode="&#x215e;" horiz-adv-x="1618" 
d="M249 -22l818 744h116l-818 -744h-116zM73 158l388 397h-403l14 81h537l-6 -40l-404 -438h-126zM1254 44q-122 0 -187.5 35t-53.5 104q16 93 174 110q-55 10 -92 38.5t-27 82.5q11 63 83.5 97t190.5 34q110 0 174.5 -33.5t53.5 -97.5q-9 -54 -56.5 -82.5t-105.5 -38.5
q62 -7 103 -31.5t32 -78.5q-12 -66 -92 -103.5t-197 -35.5zM1305 334q84 0 121.5 16t42.5 49q6 30 -34 48t-107 18t-113.5 -18t-52.5 -48q-5 -34 26.5 -49.5t116.5 -15.5zM1268 124q78 0 125.5 17t52.5 49q6 32 -29.5 47.5t-126.5 15.5q-90 0 -131.5 -15.5t-47.5 -47.5
q-5 -32 36.5 -49t120.5 -17z" />
    <glyph glyph-name="arrowleft" unicode="&#x2190;" horiz-adv-x="830" 
d="M797 267h-568l159 -187l-155 1l-206 250l206 250h155l-160 -186h569v-128z" />
    <glyph glyph-name="arrowup" unicode="&#x2191;" horiz-adv-x="561" 
d="M217 -58v568l-187 -159l1 155l250 206l250 -206v-155l-186 160v-569h-128z" />
    <glyph glyph-name="arrowright" unicode="&#x2192;" horiz-adv-x="830" 
d="M33 394h568l-159 187l155 -1l206 -250l-206 -250h-155l160 186h-569v128z" />
    <glyph glyph-name="arrowdown" unicode="&#x2193;" horiz-adv-x="561" 
d="M344 699v-568l187 159l-1 -155l-250 -206l-250 206v155l186 -160v569h128z" />
    <glyph glyph-name="partialdiff" unicode="&#x2202;" horiz-adv-x="836" 
d="M328 -12q-169 0 -254.5 60.5t-71.5 163.5q16 111 108 179.5t255 68.5q98 0 166.5 -40t107.5 -97q35 153 -31 245t-215 102l18 85q196 0 302.5 -110t75.5 -283q-33 -187 -153 -280.5t-308 -93.5zM358 100q186 0 253 143q-28 55 -94.5 93.5t-141.5 38.5q-92 0 -153.5 -37.5
t-72.5 -100.5q-10 -63 47.5 -100t161.5 -37z" />
    <glyph glyph-name="emptyset" unicode="&#x2205;" horiz-adv-x="702" 
d="M770 496l-106 -80q37 -69 8 -166q-37 -120 -145.5 -193t-250.5 -73q-85 0 -144 28l-128 -97l-65 80l115 87q-39 68 -9 168q37 120 145.5 193t249.5 73q87 0 147 -29l112 85zM177 250q-13 -43 -4 -77l297 225q-27 9 -63 9q-81 0 -145 -43.5t-85 -113.5zM540 250
q13 44 4 75l-294 -223q29 -8 60 -8q81 0 145 43t85 113z" />
    <glyph glyph-name="product" unicode="&#x220f;" horiz-adv-x="790" 
d="M32 -170l134 757h-79l20 113h730l-20 -113h-79l-134 -757h-142l134 757h-288l-134 -757h-142z" />
    <glyph glyph-name="summation" unicode="&#x2211;" horiz-adv-x="790" 
d="M-32 0l20 113l339 227l-255 247l20 113h730l-20 -113h-518l255 -247l-338 -227h518l-21 -113h-730z" />
    <glyph glyph-name="minus" unicode="&#x2212;" horiz-adv-x="580" 
d="M20 274l20 113h520l-20 -113h-520z" />
    <glyph glyph-name="radical" unicode="&#x221a;" horiz-adv-x="1109" 
d="M207 0l-175 501h159l151 -429l441 628h358l-20 -113h-259l-413 -587h-242z" />
    <glyph glyph-name="infinity" unicode="&#x221e;" horiz-adv-x="988" 
d="M237 77q-109 0 -166.5 68t-41.5 160q17 95 101 165.5t191 70.5q95 0 142 -44.5t42 -122.5q23 79 87 123t157 44q107 0 166 -71t42 -165q-16 -92 -97.5 -160t-190.5 -68q-97 0 -145 41t-43 116q-23 -75 -85 -116t-159 -41zM270 193q55 6 89 36.5t42 76.5q9 48 -18 78.5
t-85 30.5q-52 0 -90.5 -31t-46.5 -78q-8 -50 22.5 -83.5t86.5 -29.5zM678 193q55 -4 97.5 29.5t50.5 83.5q8 47 -19.5 78t-79.5 31q-58 0 -95 -30t-46 -79q-8 -46 15.5 -76.5t76.5 -36.5z" />
    <glyph glyph-name="integral" unicode="&#x222b;" horiz-adv-x="682" 
d="M-67 -140l23 58q56 0 101.5 24.5t60.5 59.5l242 587q28 68 113.5 105t275.5 37l-23 -58q-56 0 -102 -24t-60 -60l-242 -587q-14 -32 -37 -55.5t-66 -44t-115 -31.5t-171 -11z" />
    <glyph glyph-name="approxequal" unicode="&#x2248;" horiz-adv-x="441" 
d="M291 310q-31 0 -52.5 18t-37.5 36t-32 18q-28 0 -47.5 -18t-26.5 -53h-61q10 58 51 94t95 36q21 0 39 -11.5t28 -24.5t24.5 -24.5t30.5 -11.5q62 0 75 71h60q-11 -59 -51.5 -94.5t-94.5 -35.5zM261 140q-31 0 -52.5 18t-37.5 36t-32 18q-28 0 -47.5 -18t-26.5 -53h-61
q10 58 51 94t95 36q21 0 39 -11.5t28 -24.5t24.5 -24.5t30.5 -11.5q62 0 75 71h60q-11 -59 -51.5 -94.5t-94.5 -35.5z" />
    <glyph glyph-name="notequal" unicode="&#x2260;" horiz-adv-x="580" 
d="M11 20l91 124h-103l20 113h166l102 140h-244l21 113h306l81 110h111l-81 -110h103l-21 -113h-165l-102 -140h243l-20 -113h-306l-91 -124h-111z" />
    <glyph glyph-name="lessequal" unicode="&#x2264;" horiz-adv-x="600" 
d="M302 204l-224 141l274 141h231l-284 -141l234 -141h-231zM40 0l13 73h490l-13 -73h-490z" />
    <glyph glyph-name="greaterequal" unicode="&#x2265;" horiz-adv-x="600" 
d="M86 204l284 141l-234 141h231l224 -141l-274 -141h-231zM17 0l13 73h490l-13 -73h-490z" />
    <glyph glyph-name="lozenge" unicode="&#x25ca;" horiz-adv-x="726" 
d="M192 0l-162 250l250 250h254l162 -250l-250 -250h-254zM330 62l194 188l-128 188l-194 -188z" />
    <glyph glyph-name="A.001" horiz-adv-x="1090" 
d="M-30 0l519 700h237l270 -700h-169l-52 148h-524l-104 -148h-177zM329 260h408l-136 389z" />
    <glyph glyph-name="B.001" horiz-adv-x="926" 
d="M26 0l124 700h520q105 0 156 -50t37 -127q-28 -161 -253 -161h-41l-3 -14h63q107 0 159.5 -41.5t36.5 -127.5q-14 -79 -85 -129t-172 -50h-542zM240 405h335q65 0 98.5 19t40.5 61q10 50 -16.5 73t-91.5 23h-335zM191 121h355q127 0 144 97q8 46 -19 67t-92 21h-356z" />
    <glyph glyph-name="C.001" horiz-adv-x="855" 
d="M451 -16q-224 0 -330.5 99t-76.5 267t171.5 267t365.5 99q173 -1 285 -54l-23 -129q-116 64 -283 64q-153 0 -253.5 -65.5t-120.5 -181.5q-21 -116 56 -181t230 -65q170 0 307 64l-23 -130q-130 -53 -305 -54z" />
    <glyph glyph-name="G.001" horiz-adv-x="890" 
d="M453 -16q-224 0 -330.5 99t-76.5 267t171.5 267t365.5 99q184 -2 295 -54l-23 -129q-115 64 -293 64q-153 0 -253 -65.5t-121 -181.5q-20 -116 57 -181t230 -65q99 0 200 24l28 159h-369l20 110h498l-60 -339q-165 -73 -339 -74z" />
    <glyph glyph-name="J.001" horiz-adv-x="700" 
d="M222 -16q-89 1 -148.5 12.5t-122.5 41.5l25 140q135 -74 267 -74q96 0 150 54t76 181l64 361h142l-64 -361q-32 -186 -126.5 -270.5t-262.5 -84.5z" />
    <glyph glyph-name="K.001" horiz-adv-x="950" 
d="M26 0l124 700h142l-75 -419l465 419h225l-305 -239l233 -461h-191l-167 363q-183 -141 -279 -193l-30 -170h-142z" />
    <glyph glyph-name="R.001" horiz-adv-x="916" 
d="M26 0l124 700h527q106 0 156.5 -51t35.5 -134q-14 -81 -80.5 -120t-172.5 -39h-83l-2 -15q112 0 180.5 -78t125.5 -263h-176q-68 179 -120.5 244.5t-133.5 65.5h-186l-53 -310h-142zM242 428h344q68 0 100 17t39 58q8 44 -17 62t-94 18h-345z" />
    <glyph glyph-name="S.001" horiz-adv-x="887" 
d="M367 -15q-107 1 -202.5 24.5t-145.5 49.5l23 133q52 -30 152 -58.5t184 -28.5q147 0 217.5 22t78.5 70q6 35 -26.5 56.5t-88.5 31t-125 15.5t-137.5 16.5t-123 29.5t-84 58.5t-19.5 97.5q10 56 50.5 98t101 67t131 36.5t148.5 11.5q226 -2 337 -54l-23 -129
q-51 28 -148 46t-177 18q-261 0 -277 -91q-5 -31 27.5 -49.5t89 -27t125.5 -14.5t137.5 -17.5t123 -31t83.5 -59t19 -97.5q-11 -64 -56 -110t-112.5 -69.5t-137 -34t-145.5 -10.5z" />
    <glyph glyph-name="i.loclTRK" horiz-adv-x="194" 
d="M149 535q-44 0 -63 23.5t-6 61.5t49 61.5t80 23.5q47 0 65 -23t4 -62t-48 -62t-81 -23zM-18 0l88 500h142l-88 -500h-142z" />
    <glyph glyph-name="c.001" horiz-adv-x="690" 
d="M298 -16q-136 0 -205.5 73t-48.5 193t116.5 193t231.5 73q135 0 206 -65t52 -172h-144q5 59 -31 93t-102 34q-72 0 -123 -42t-64 -114t23 -114t108 -42q68 0 117.5 36.5t64.5 98.5h143q-20 -110 -114 -177.5t-230 -67.5z" />
    <glyph glyph-name="e.001" horiz-adv-x="693" 
d="M298 -16q-136 0 -205.5 73t-48.5 193t116.5 193t231.5 73q135 0 205.5 -63.5t53.5 -170.5l-13 -75h-455q4 -54 42 -84.5t102 -30.5q58 0 101.5 23t59.5 60h148q-28 -90 -116 -140.5t-222 -50.5zM190 269l315 7q8 60 -28 96t-104 36q-67 0 -116.5 -37.5t-66.5 -101.5z" />
    <glyph glyph-name="g.001" horiz-adv-x="775" 
d="M316 -200q-156 -1 -229 50t-58 140h142q-7 -42 30 -64t126 -22q123 0 172 46t72 182q-36 -66 -107 -104.5t-158 -38.5q-125 0 -190.5 72.5t-43.5 192.5q21 116 109 189t197 73q97 0 161.5 -46.5t67.5 -131.5h12l13 162h135l-71 -410q-26 -149 -117.5 -219t-262.5 -71z
M361 94q73 0 133.5 43.5t73.5 114.5q12 69 -33 112t-119 43q-79 0 -135.5 -42t-69.5 -113q-13 -72 29 -115t121 -43z" />
    <glyph glyph-name="zero.tf" horiz-adv-x="953" 
d="M411 -16q-202 0 -299.5 99.5t-67.5 266.5q29 166 163 266t334 100q204 0 301 -98.5t67 -267.5q-30 -167 -162.5 -266.5t-335.5 -99.5zM417 11q197 0 317 92.5t148 246.5q28 153 -60 246t-285 93q-191 0 -314.5 -93.5t-151.5 -245.5q-28 -151 63.5 -245t282.5 -94z
M436 123q-126 0 -189 62t-45 165q19 103 104 165.5t211 62.5q127 0 190 -62.5t45 -165.5t-103.5 -165t-212.5 -62zM449 198q86 0 144 40.5t71 111.5q12 72 -31 113t-129 41t-143.5 -41t-70.5 -113q-13 -71 30 -111.5t129 -40.5z" />
    <glyph glyph-name="one.tf" horiz-adv-x="953" 
d="M411 -16q-202 0 -299.5 99.5t-67.5 266.5q29 166 163 266t334 100q204 0 301 -98.5t67 -267.5q-30 -167 -162.5 -266.5t-335.5 -99.5zM416 11q197 0 317 92.5t148 246.5q28 153 -60 246t-285 93q-191 0 -314.5 -93.5t-151.5 -245.5q-28 -151 63.5 -245t282.5 -94z
M424 133l62 353l-232 -135l15 87l269 130h51l-77 -435h-88z" />
    <glyph glyph-name="two.tf" horiz-adv-x="953" 
d="M411 -16q-202 0 -299.5 99.5t-67.5 266.5q29 165 163.5 265.5t333.5 100.5q204 0 301 -98.5t67 -267.5q-30 -167 -162.5 -266.5t-335.5 -99.5zM417 11q197 0 317 92.5t148 246.5q28 153 -60 246t-285 93q-191 0 -314.5 -93.5t-151.5 -245.5q-28 -151 63.5 -245t282.5 -94
zM210 136l10 54q26 12 76 34t83 37t77.5 36t74 37.5t58.5 35.5t44 36t18 32q6 37 -27 52t-119 15q-46 0 -117 -8t-91 -16l14 77q67 20 214 22q125 1 177.5 -26t40.5 -99q-9 -51 -77 -102t-143.5 -83.5t-160.5 -58.5h318l-13 -75h-457z" />
    <glyph glyph-name="three.tf" horiz-adv-x="953" 
d="M411 -16q-202 0 -299.5 99.5t-67.5 266.5q29 165 163.5 265.5t333.5 100.5q204 0 301 -98.5t67 -267.5q-30 -167 -162.5 -266.5t-335.5 -99.5zM416 11q197 0 317 92.5t148 246.5q28 153 -60 246t-285 93q-191 0 -314.5 -93.5t-151.5 -245.5q-28 -151 63.5 -245t282.5 -94
zM438 123q-131 2 -198 27l13 75q59 -27 191 -27q180 0 189 50q3 19 -9.5 30.5t-52 21t-104.5 15t-173 10.5l10 51q140 5 217 15t104 22.5t30 33.5q5 29 -35 43t-122 14q-129 0 -201 -28l14 74q81 28 207 28q56 0 94 -4t72.5 -16t48.5 -36.5t8 -62.5q-5 -25 -21.5 -44.5
t-42 -30t-48 -17.5t-51.5 -9t-38.5 -2.5t-22.5 -0.5v-6h16.5t25.5 -0.5t29.5 -2t33 -4.5t31 -8t28.5 -13t21 -18t13 -25t0 -33q-7 -37 -29.5 -61.5t-60.5 -37.5t-82.5 -18t-104.5 -5z" />
    <glyph glyph-name="four.tf" horiz-adv-x="953" 
d="M411 -16q-202 0 -299.5 99.5t-67.5 266.5q29 165 163.5 265.5t333.5 100.5q204 0 301 -98.5t67 -267.5q-30 -167 -162.5 -266.5t-335.5 -99.5zM416 11q197 0 317 92.5t148 246.5q28 153 -60 246t-285 93q-191 0 -314.5 -93.5t-151.5 -245.5q-28 -151 63.5 -245t282.5 -94
zM519 133l13 77h-364l10 55l365 303h141l-50 -284h65l-13 -74h-66l-13 -77h-88zM288 284h257l46 255z" />
    <glyph glyph-name="five.tf" horiz-adv-x="953" 
d="M411 -16q-202 0 -299.5 99.5t-67.5 266.5q29 165 163.5 265.5t333.5 100.5q204 0 301 -98.5t67 -267.5q-30 -167 -162.5 -266.5t-335.5 -99.5zM417 11q197 0 317 92.5t148 246.5q28 153 -60 246t-285 93q-191 0 -314.5 -93.5t-151.5 -245.5q-28 -151 63.5 -245t282.5 -94
zM424 119q-47 0 -106.5 7t-86.5 19l15 80q23 -12 83 -21.5t106 -9.5q89 0 134 19t52 61q7 36 -23.5 51.5t-99.5 15.5q-88 0 -215 -39l47 262h407l-13 -74h-339l-18 -105q79 26 171 26q31 0 56 -3t50.5 -12.5t41 -24.5t22.5 -41t1 -61q-13 -71 -90.5 -110.5t-194.5 -39.5z
" />
    <glyph glyph-name="six.tf" horiz-adv-x="953" 
d="M411 -16q-202 0 -299.5 99.5t-67.5 266.5q29 165 163.5 265.5t333.5 100.5q204 0 301 -98.5t67 -267.5q-30 -167 -162.5 -266.5t-335.5 -99.5zM417 11q197 0 317 92.5t148 246.5q28 153 -60 246t-285 93q-191 0 -314.5 -93.5t-151.5 -245.5q-28 -151 63.5 -245t282.5 -94
zM442 126q-118 0 -175.5 58t-37.5 174q18 106 102 162.5t209 56.5q102 0 169 -36l-14 -82q-70 43 -175 43q-79 0 -135.5 -39t-67.5 -105l-2 -13q95 74 208 74q101 0 143 -42.5t28 -111.5q-14 -64 -80.5 -101.5t-171.5 -37.5zM450 200q143 0 157 76q6 37 -21.5 56.5
t-89.5 19.5q-46 0 -99 -18t-83 -46q6 -46 39 -67t97 -21z" />
    <glyph glyph-name="seven.tf" horiz-adv-x="953" 
d="M411 -16q-202 0 -299.5 99.5t-67.5 266.5q29 165 163.5 265.5t333.5 100.5q204 0 301 -98.5t67 -267.5q-30 -167 -162.5 -266.5t-335.5 -99.5zM416 11q197 0 317 92.5t148 246.5q28 153 -60 246t-285 93q-191 0 -314.5 -93.5t-151.5 -245.5q-28 -151 63.5 -245t282.5 -94
zM298 133l352 361h-366l13 74h489l-6 -37l-367 -398h-115z" />
    <glyph glyph-name="eight.tf" horiz-adv-x="953" 
d="M411 -16q-202 0 -299.5 99.5t-67.5 266.5q29 165 163.5 265.5t333.5 100.5q204 0 301 -98.5t67 -267.5q-30 -167 -162.5 -266.5t-335.5 -99.5zM417 11q197 0 317 92.5t148 246.5q28 153 -60 246t-285 93q-191 0 -314.5 -93.5t-151.5 -245.5q-28 -151 63.5 -245t282.5 -94
zM427 120q-110 -1 -170 30.5t-48 95.5q15 83 158 100q-50 9 -84 34.5t-25 74.5q10 58 76.5 89t173.5 31q99 0 158.5 -31t48.5 -89q-16 -87 -148 -109q26 -3 46.5 -8.5t41 -16.5t30.5 -30t5 -45q-10 -60 -83 -94t-180 -32zM474 383q76 0 110 14.5t39 44.5q5 28 -31 44t-97 16
q-62 0 -104 -16t-47 -44q-5 -30 23.5 -44.5t106.5 -14.5zM440 192q71 0 114 15.5t48 44.5q5 30 -27 44t-114 14t-120 -14.5t-43 -43.5t33 -44.5t109 -15.5z" />
    <glyph glyph-name="nine.tf" horiz-adv-x="953" 
d="M411 -16q-202 0 -299.5 99.5t-67.5 266.5q29 165 163.5 265.5t333.5 100.5q204 0 301 -98.5t67 -267.5q-30 -167 -162.5 -266.5t-335.5 -99.5zM417 11q197 0 317 92.5t148 246.5q28 153 -60 246t-285 93q-191 0 -314.5 -93.5t-151.5 -245.5q-28 -151 63.5 -245t282.5 -94
zM526 576q118 0 175.5 -58.5t37.5 -173.5q-18 -106 -102 -162.5t-209 -56.5q-103 0 -169 36l14 82q70 -44 175 -44q79 0 135 39.5t68 105.5l2 13q-95 -74 -208 -74q-101 0 -143.5 42.5t-27.5 111.5q13 64 80 101.5t172 37.5zM518 502q-143 0 -157 -76q-7 -38 21 -57t90 -19
q45 0 98.5 18t83.5 46q-12 88 -136 88z" />
    <glyph glyph-name="dollar.001" horiz-adv-x="863" 
d="M242 -110l17 101q-151 17 -253 68l24 133q52 -30 151.5 -58.5t183.5 -28.5q147 0 218 22t79 70q6 35 -26.5 56.5t-88.5 31t-125 15.5t-137.5 16.5t-123 29.5t-84 58.5t-19.5 97.5q16 91 106 142.5t223 65.5l21 125h172l-21 -122q174 -9 267 -52l-23 -129q-51 28 -148 46
t-177 18q-261 0 -277 -91q-5 -31 27.5 -49.5t89 -27t125.5 -14.5t137 -17.5t122.5 -31t83.5 -59t19 -97.5q-12 -73 -72 -123t-134.5 -71t-167.5 -28l-17 -97h-172z" />
    <glyph glyph-name="Euro.001" horiz-adv-x="927" 
d="M537 -16q-179 0 -284 64.5t-125 179.5h-120l19 103h100l3 19q1 4 2.5 11t1.5 10h-100l18 103h121q60 114 188 178t306 64q173 -1 285 -54l-23 -129q-122 64 -283 64q-214 0 -317 -123h433l-18 -103h-467l-5 -21l-3 -19h468l-19 -103h-434q27 -60 97.5 -92t176.5 -32
q170 0 307 64l-23 -130q-130 -53 -305 -54z" />
    <glyph glyph-name="brevecombcy" 
d="M-296 551q-93 0 -131 41t-3 108h105q-19 -41 -1 -61t66 -20q103 0 153 81h103q-37 -69 -114.5 -109t-177.5 -40z" />
    </font>
</defs>
</svg>
