<?xml version="1.0" standalone="no"?>
<!DOCTYPE svg PUBLIC "-//W3C//DTD SVG 1.1//EN" "http://www.w3.org/Graphics/SVG/1.1/DTD/svg11.dtd" >
<svg xmlns="http://www.w3.org/2000/svg" xmlns:xlink="http://www.w3.org/1999/xlink" version="1.1">
<metadata>
Created by FontForge 20190801 at Tue Sep 12 15:50:22 2017
 By www-data
Copyright (c) 2017 by Good Type Foundry Kenneth Knutsen. All rights reserved.
</metadata>
<defs>
<font id="GoodTypeFoundryAdieuBoldSlanted" horiz-adv-x="0" >
  <font-face 
    font-family="GoodTypeFoundryAdieuBoldSlanted"
    font-weight="700"
    font-style="oblique"
    font-stretch="normal"
    units-per-em="1000"
    panose-1="0 0 8 0 0 0 0 0 0 0"
    ascent="800"
    descent="-200"
    x-height="500"
    cap-height="700"
    bbox="-1100 -532 1714.72 1021"
    underline-thickness="50"
    underline-position="-100"
    unicode-range="U+0020-25CA"
  />
<missing-glyph horiz-adv-x="843" 
d="M422 -11q-151 0 -256.5 107t-105.5 255q0 147 106.5 254t255.5 107q147 0 254 -106t107 -255q0 -150 -107 -256t-254 -106zM422 63q119 0 203 84t84 204t-84 203.5t-203 83.5q-120 0 -204 -83.5t-84 -203.5t84 -204t204 -84zM329 394q-28 0 -47 18.5t-19 45.5
q0 26 19 44.5t47 18.5q26 0 45 -18.5t19 -44.5q0 -27 -19 -45.5t-45 -18.5zM521 394q-27 0 -45 18.5t-18 45.5q0 26 18 44.5t45 18.5t46 -18.5t19 -44.5q0 -27 -19 -45.5t-46 -18.5zM422 151q-94 0 -156 51.5t-62 136.5l64 9q4 -46 40 -80t114 -34q77 0 114.5 34.5
t39.5 79.5l63 -9q0 -85 -63 -136.5t-154 -51.5z" />
    <glyph glyph-name=".notdef" horiz-adv-x="843" 
d="M422 -11q-151 0 -256.5 107t-105.5 255q0 147 106.5 254t255.5 107q147 0 254 -106t107 -255q0 -150 -107 -256t-254 -106zM422 63q119 0 203 84t84 204t-84 203.5t-203 83.5q-120 0 -204 -83.5t-84 -203.5t84 -204t204 -84zM329 394q-28 0 -47 18.5t-19 45.5
q0 26 19 44.5t47 18.5q26 0 45 -18.5t19 -44.5q0 -27 -19 -45.5t-45 -18.5zM521 394q-27 0 -45 18.5t-18 45.5q0 26 18 44.5t45 18.5t46 -18.5t19 -44.5q0 -27 -19 -45.5t-46 -18.5zM422 151q-94 0 -156 51.5t-62 136.5l64 9q4 -46 40 -80t114 -34q77 0 114.5 34.5
t39.5 79.5l63 -9q0 -85 -63 -136.5t-154 -51.5z" />
    <glyph glyph-name=".null" 
 />
    <glyph glyph-name="nonmarkingreturn" horiz-adv-x="333" 
 />
    <glyph glyph-name="space" unicode=" " horiz-adv-x="300" 
 />
    <glyph glyph-name="exclam" unicode="!" horiz-adv-x="303" 
d="M63 294l62 406h180l-82 -406h-160zM81 -13q-43 0 -65.5 25.5t-14.5 67.5q7 42 38.5 67t74.5 25q44 0 66.5 -25t15.5 -67q-8 -43 -39 -68t-76 -25z" />
    <glyph glyph-name="quotedbl" unicode="&#x22;" horiz-adv-x="403" 
d="M23 430l31 270h151l-81 -270h-101zM214 430l31 270h152l-81 -270h-102z" />
    <glyph glyph-name="numbersign" unicode="#" horiz-adv-x="1009" 
d="M94 0l72 183h-165l37 112h172l36 93h-177l37 112h184l79 200h156l-79 -200h257l79 200h156l-79 -200h146l-37 -112h-153l-36 -93h158l-37 -112h-165l-72 -183h-156l72 183h-257l-72 -183h-156zM366 295h257l36 93h-257z" />
    <glyph glyph-name="dollar" unicode="$" horiz-adv-x="863" 
d="M835 472h-182q8 40 -32.5 68.5t-136.5 29.5q-214 3 -228 -75q-5 -27 26 -42t84 -20.5t117 -10.5t127 -16t113 -30.5t75.5 -61t13.5 -102.5q-18 -93 -115 -153t-245 -72l-17 -97h-187l17 102q-131 19 -197 81.5t-48 154.5h182q-7 -39 38.5 -68t144.5 -30q238 -4 254 78
q5 28 -25.5 43t-83.5 20.5t-117 9t-127.5 14t-113.5 29.5t-76 61t-14 104q16 88 99.5 146t211.5 75l21 125h187l-21 -124q133 -17 202 -80.5t53 -158.5z" />
    <glyph glyph-name="percent" unicode="%" horiz-adv-x="1039" 
d="M278 460q-86 0 -141.5 35t-45.5 90t77.5 90t153.5 35q93 0 145 -34.5t42 -90.5t-74 -90.5t-157 -34.5zM48 0l820 700h133l-819 -700h-134zM288 515q41 0 69.5 19t32.5 51q5 33 -16 52t-61 19t-68 -19t-34 -52q-5 -33 16 -51.5t61 -18.5zM717 -10q-87 0 -142 35t-45 90
t77.5 90t153.5 35q93 0 145 -34.5t42 -90.5t-74 -90.5t-157 -34.5zM726 44q41 0 69.5 19t33.5 52t-16 51.5t-61 18.5t-68 -18.5t-34 -51.5t15.5 -52t60.5 -19z" />
    <glyph glyph-name="ampersand" unicode="&#x26;" horiz-adv-x="936" 
d="M292 -12q-52 0 -100.5 8.5t-98.5 29t-75.5 64t-14.5 104.5q16 88 98 147t179 57l-147 175l23 127h625l-29 -163h-350l223 -264q83 65 145 148l92 -125q-57 -79 -133 -143l130 -153h-242l-46 54q-141 -66 -279 -66zM327 146q66 0 139 31l-144 171q-64 6 -114 -19t-58 -67
q-10 -59 36.5 -87.5t140.5 -28.5z" />
    <glyph glyph-name="quotesingle" unicode="'" horiz-adv-x="211" 
d="M23 430l31 270h151l-81 -270h-101z" />
    <glyph glyph-name="parenleft" unicode="(" horiz-adv-x="470" 
d="M334 -137q-173 1 -248 133.5t-36 353.5t161 353.5t295 133.5l-26 -146q-107 -1 -188.5 -94.5t-108.5 -246.5t21.5 -246.5t155.5 -94.5z" />
    <glyph glyph-name="parenright" unicode=")" horiz-adv-x="470" 
d="M-36 -137l26 146q114 1 190.5 87.5t106.5 253.5q30 168 -16.5 254t-160.5 87l26 146q173 -1 248 -133.5t36 -353.5t-161 -353.5t-295 -133.5z" />
    <glyph glyph-name="asterisk" unicode="*" horiz-adv-x="615" 
d="M203 194l68 195l-156 -158l-70 75l195 117l-220 -30l20 108l208 -30l-153 117l96 76l100 -159l2 195h118l-67 -195l156 159l70 -76l-196 -117l221 30l-20 -108l-209 30l154 -117l-96 -75l-100 158l-3 -195h-118z" />
    <glyph glyph-name="plus" unicode="+" horiz-adv-x="580" 
d="M173 71l33 188h-188l24 143h189l33 189h143l-33 -189h188l-24 -143h-189l-33 -188h-143z" />
    <glyph glyph-name="comma" unicode="," horiz-adv-x="271" 
d="M6 -169l111 270h148l-161 -270h-98z" />
    <glyph glyph-name="hyphen" unicode="-" horiz-adv-x="460" 
d="M18 259l24 143h400l-24 -143h-400z" />
    <glyph glyph-name="period" unicode="." horiz-adv-x="270" 
d="M118 -13q-43 0 -65.5 25.5t-14.5 67.5q7 42 38.5 67t74.5 25q44 0 66.5 -25t15.5 -67q-8 -43 -39 -68t-76 -25z" />
    <glyph glyph-name="slash" unicode="/" horiz-adv-x="1048" 
d="M-32 0l956 700h156l-956 -700h-156z" />
    <glyph glyph-name="zero" unicode="0" horiz-adv-x="969" 
d="M419 -16q-203 0 -304.5 100t-72.5 266t166.5 266t340.5 100q204 0 305.5 -100t72.5 -266t-166.5 -266t-341.5 -100zM445 130q127 0 209 57.5t101 162.5q19 106 -43 163t-189 57t-208.5 -57.5t-100.5 -162.5t43 -162.5t188 -57.5z" />
    <glyph glyph-name="one" unicode="1" horiz-adv-x="624" 
d="M307 0l97 553l-381 -217l29 171l439 193h112l-124 -700h-172z" />
    <glyph glyph-name="two" unicode="2" horiz-adv-x="846" 
d="M-25 0l20 113q56 25 169 73t181.5 79t147.5 71t120.5 74.5t46.5 64.5q9 50 -40 71t-170 21q-75 0 -188.5 -13.5t-147.5 -25.5l27 152q44 13 148.5 23.5t196.5 11.5q101 1 168 -7.5t114.5 -31.5t64.5 -63.5t6 -102.5q-12 -67 -75 -127t-160 -105t-188.5 -76t-191.5 -56
h521l-26 -146h-744z" />
    <glyph glyph-name="three" unicode="3" horiz-adv-x="806" 
d="M295 -16q-210 2 -318 44l25 146q44 -20 135 -32t174 -12q258 0 271 67q4 24 -15 40t-78 29t-159.5 21.5t-265.5 16.5l16 91q169 7 276 16.5t161.5 22.5t73.5 26t23 33q5 27 -26 45t-81.5 25.5t-118.5 7.5q-79 0 -174.5 -12.5t-148.5 -32.5l26 146q62 22 157.5 33.5
t175.5 11.5q71 0 123 -3.5t103 -15.5t81 -32.5t45 -56t7 -84.5q-6 -35 -28.5 -63.5t-50 -45.5t-67.5 -29.5t-68.5 -18t-67 -8.5t-50 -3h-28.5l-1 -9q1 0 31 -0.5t48.5 -1.5t54.5 -5t60 -10.5t53 -19t45 -29t25 -42t3 -57.5q-11 -60 -47 -101t-97.5 -62t-133 -29t-169.5 -7z
" />
    <glyph glyph-name="four" unicode="4" horiz-adv-x="866" 
d="M516 0l21 117h-564l19 111l556 472h264l-77 -438h96l-25 -145h-97l-21 -117h-172zM198 262h364l68 381z" />
    <glyph glyph-name="five" unicode="5" horiz-adv-x="810" 
d="M288 -16q-75 0 -171.5 11.5t-138.5 29.5l27 156q37 -18 135 -34t171 -16q124 0 189 22.5t74 76.5q9 50 -35 72.5t-150 22.5q-125 0 -328 -48l75 423h655l-26 -146h-522l-25 -139q120 39 253 39q50 0 90.5 -5t81 -20t65.5 -39.5t36.5 -66t1.5 -97.5q-21 -114 -145.5 -178
t-312.5 -64z" />
    <glyph glyph-name="six" unicode="6" horiz-adv-x="860" 
d="M388 -12q-190 0 -283.5 94t-60.5 280q30 170 165.5 261.5t335.5 91.5q165 0 273 -58l-28 -159q-114 71 -274 71q-120 0 -201.5 -55.5t-98.5 -151.5l-2 -13q137 111 304 111q163 0 231 -68.5t44 -179.5q-21 -103 -128.5 -163.5t-276.5 -60.5zM404 134q202 0 220 99
q8 49 -30.5 75t-122.5 26q-63 0 -136.5 -20.5t-120.5 -53.5q23 -126 190 -126z" />
    <glyph glyph-name="seven" unicode="7" horiz-adv-x="824" 
d="M38 0l552 554h-542l26 146h799l-14 -74l-587 -626h-234z" />
    <glyph glyph-name="eight" unicode="8" horiz-adv-x="859" 
d="M364 -20q-119 -1 -203 21t-126 68.5t-30 113.5q24 137 261 161q-37 6 -68 17.5t-61.5 31.5t-44.5 53t-7 75q16 92 125.5 142t283.5 50q163 0 260.5 -49.5t81.5 -142.5q-7 -42 -33 -75t-63.5 -53t-73 -31.5t-74.5 -17.5q41 -4 75.5 -13t69 -26.5t50.5 -48.5t9 -73
q-17 -96 -137 -150.5t-295 -52.5zM441 416q82 0 131 11.5t65 27t21 40.5q7 39 -47.5 59t-141.5 20q-86 0 -147.5 -20t-68.5 -59q-5 -25 5 -40.5t54.5 -27t128.5 -11.5zM389 120q222 0 236 76q5 26 -9 42t-62.5 25.5t-136.5 9.5q-129 0 -179.5 -19t-57.5 -58
q-7 -37 46.5 -56.5t162.5 -19.5z" />
    <glyph glyph-name="nine" unicode="9" horiz-adv-x="860" 
d="M478 714q190 0 283.5 -94t60.5 -280q-30 -170 -165.5 -261.5t-335.5 -91.5q-165 0 -273 58l28 159q114 -71 274 -71q120 0 201.5 55.5t98.5 151.5l2 13q-137 -111 -304 -111q-163 0 -231 68.5t-44 179.5q21 103 128.5 163.5t276.5 60.5zM462 568q-202 0 -220 -99
q-8 -49 30.5 -75t122.5 -26q63 0 136.5 20.5t120.5 53.5q-23 126 -190 126z" />
    <glyph glyph-name="colon" unicode=":" horiz-adv-x="305" 
d="M145 293q-43 0 -65.5 25.5t-14.5 67.5q7 42 38.5 67t74.5 25q44 0 66.5 -25t15.5 -67q-8 -43 -39 -68t-76 -25zM91 -13q-43 0 -65.5 25.5t-14.5 67.5q7 42 38.5 67t74.5 25q44 0 66.5 -25t15.5 -67q-8 -43 -39 -68t-76 -25z" />
    <glyph glyph-name="semicolon" unicode=";" horiz-adv-x="293" 
d="M181 293q-43 0 -65.5 25.5t-14.5 67.5q7 42 38.5 67t74.5 25q44 0 66.5 -25t15.5 -67q-8 -43 -39 -68t-76 -25zM-27 -169l111 270h148l-161 -270h-98z" />
    <glyph glyph-name="less" unicode="&#x3c;" horiz-adv-x="491" 
d="M192 0l-162 250l250 250h210l-258 -250l170 -250h-210z" />
    <glyph glyph-name="equal" unicode="=" horiz-adv-x="580" 
d="M40 382l25 143h520l-25 -143h-520zM-5 129l25 143h520l-25 -143h-520z" />
    <glyph glyph-name="greater" unicode="&#x3e;" horiz-adv-x="476" 
d="M-14 0l258 250l-170 250h210l162 -250l-250 -250h-210z" />
    <glyph glyph-name="question" unicode="?" horiz-adv-x="728" 
d="M183 232q5 56 30 94t59.5 53.5t74 26.5t73.5 16t59 19t29 38q9 52 -37.5 70t-177.5 18q-102 0 -249 -21l27 151q122 16 258 18q206 2 292 -42t64 -167q-11 -62 -43 -102.5t-72 -56t-85 -26.5t-81.5 -16.5t-61.5 -23.5t-26 -49h-133zM205 -13q-43 0 -65.5 25.5t-14.5 67.5
q7 42 38.5 67t74.5 25q44 0 66.5 -25t15.5 -67q-8 -43 -39 -68t-76 -25z" />
    <glyph glyph-name="at" unicode="@" horiz-adv-x="1073" 
d="M607 725q220 0 334.5 -107.5t86.5 -265.5q-14 -77 -65 -138t-139 -92h-210l44 147h-9q-33 -84 -89 -122t-150 -38q-153 0 -134 108q7 38 40 66t89 44t112.5 24t133.5 14q6 33 -15.5 48t-70.5 15q-100 0 -208 -44l21 118q128 45 241 45q206 0 172 -193l-37 -209
q71 42 103.5 89t44.5 118q21 118 -63.5 190t-250.5 72q-168 0 -277.5 -77t-133.5 -215q-25 -138 57.5 -214.5t250.5 -76.5q99 0 175 25l-21 -117q-83 -20 -174 -20q-224 0 -335.5 110t-79.5 293t183 293t374 110zM505 208q49 3 88 27t46 68q-48 -4 -74.5 -6.5t-62.5 -9
t-54.5 -17.5t-21.5 -27q-3 -19 19.5 -29t59.5 -6z" />
    <glyph glyph-name="A" unicode="A" horiz-adv-x="1098" 
d="M-33 0l547 700h194l299 -700h-202l-52 133h-481l-100 -133h-205zM379 279h317l-109 277z" />
    <glyph glyph-name="B" unicode="B" horiz-adv-x="926" 
d="M22 0l124 700h527q106 0 156.5 -51t35.5 -134q-26 -147 -222 -159q101 -2 151.5 -46t35.5 -124q-15 -84 -86 -135t-173 -51h-549zM269 420h320q88 0 99 66q6 36 -13.5 52t-62.5 16h-320zM221 147h341q88 0 101 71q7 37 -13 55t-62 18h-342z" />
    <glyph glyph-name="C" unicode="C" horiz-adv-x="928" 
d="M399 -16q-190 0 -288 100.5t-69 265.5t163 265.5t324 100.5t290 -88t75 -233h-174q9 84 -50 129.5t-167 45.5q-115 0 -193 -57.5t-96 -162.5q-18 -104 39.5 -162t171.5 -58q109 0 184 45.5t95 129.5h174q-25 -145 -157 -233t-322 -88z" />
    <glyph glyph-name="D" unicode="D" horiz-adv-x="867" 
d="M22 0l124 700h333q192 0 284 -90t62 -260q-30 -171 -154 -260.5t-316 -89.5h-333zM220 146h161q116 0 187 52t89 152q18 101 -35.5 152.5t-168.5 51.5h-161z" />
    <glyph glyph-name="E" unicode="E" horiz-adv-x="840" 
d="M22 0l124 700h682l-26 -146h-510l-23 -130h501l-23 -137h-502l-25 -141h510l-26 -146h-682z" />
    <glyph glyph-name="F" unicode="F" horiz-adv-x="769" 
d="M22 0l124 700h641l-26 -146h-469l-23 -130h460l-24 -137h-461l-50 -287h-172z" />
    <glyph glyph-name="G" unicode="G" horiz-adv-x="960" 
d="M409 -16q-190 0 -288 100.5t-69 265.5t163 265.5t324 100.5q181 0 284 -75t85 -197h-177q8 63 -49.5 94.5t-168.5 31.5q-115 0 -193 -57.5t-96 -162.5q-18 -104 39.5 -162t171.5 -58q96 0 168 33t99 98h-349l22 123h533l-68 -384h-112l18 140q-56 -78 -144 -117t-193 -39
z" />
    <glyph glyph-name="H" unicode="H" horiz-adv-x="953" 
d="M22 0l124 700h172l-47 -263h441l47 263h172l-124 -700h-172l51 291h-441l-51 -291h-172z" />
    <glyph glyph-name="I" unicode="I" horiz-adv-x="340" 
d="M22 0l124 700h172l-124 -700h-172z" />
    <glyph glyph-name="J" unicode="J" horiz-adv-x="823" 
d="M334 -16q-342 0 -281 355h173q-20 -113 13.5 -161t119.5 -48t136.5 48t70.5 161l38 215h-420l26 146h592l-64 -361q-61 -355 -404 -355z" />
    <glyph glyph-name="K" unicode="K" horiz-adv-x="965" 
d="M22 0l124 700h172l-63 -355l451 355h251l-325 -245l229 -455h-232l-158 334l-251 -187l-26 -147h-172z" />
    <glyph glyph-name="L" unicode="L" horiz-adv-x="706" 
d="M22 0l124 700h172l-98 -554h465l-26 -146h-637z" />
    <glyph glyph-name="M" unicode="M" horiz-adv-x="1050" 
d="M22 0l124 700h153l207 -454l368 454h154l-124 -700h-172l71 404l-323 -404h-34l-181 403l-71 -403h-172z" />
    <glyph glyph-name="N" unicode="N" horiz-adv-x="974" 
d="M22 0l124 700h144l412 -446l79 446h172l-124 -700h-145l-412 445l-78 -445h-172z" />
    <glyph glyph-name="O" unicode="O" horiz-adv-x="969" 
d="M419 -16q-203 0 -304.5 100t-72.5 266t166.5 266t340.5 100q204 0 305.5 -100t72.5 -266t-166.5 -266t-341.5 -100zM445 130q127 0 209 57.5t101 162.5q19 106 -43 163t-189 57t-208.5 -57.5t-100.5 -162.5t43 -162.5t188 -57.5z" />
    <glyph glyph-name="P" unicode="P" horiz-adv-x="874" 
d="M22 0l124 700h507q106 0 159.5 -62t37.5 -152q-18 -103 -93 -158t-180 -55h-335l-48 -273h-172zM266 413h311q46 0 70 17t31 56q14 75 -75 75h-310z" />
    <glyph glyph-name="Q" unicode="Q" horiz-adv-x="989" 
d="M928 350q-18 -100 -75 -176l79 -53l-134 -137l-81 72q-127 -72 -297 -72q-203 0 -304.5 100t-72.5 266t166.5 266t340.5 100q204 0 305.5 -100t72.5 -266zM446 130q88 0 156 28l-116 104l92 96l145 -97q24 39 33 89q19 106 -43 163t-189 57t-208.5 -57.5t-100.5 -162.5
t43 -162.5t188 -57.5z" />
    <glyph glyph-name="R" unicode="R" horiz-adv-x="941" 
d="M22 0l124 700h557q106 0 156.5 -51t35.5 -134t-84 -129.5t-172 -46.5h-72q62 -4 104 -24t75 -66t55.5 -99.5t53.5 -149.5h-218q-67 175 -90 215q-34 59 -85 70q-21 5 -48 5h-170l-50 -290h-172zM268 424h351q88 0 100 66q7 37 -11.5 54t-64.5 17h-351z" />
    <glyph glyph-name="S" unicode="S" horiz-adv-x="879" 
d="M362 -16q-176 3 -269.5 69.5t-72.5 174.5h182q-7 -39 38.5 -68t144.5 -30q238 -4 254 78q5 28 -25.5 43t-83.5 20.5t-117 9t-127.5 14t-113.5 29.5t-76 61t-14 104q20 107 136.5 168.5t288.5 58.5q166 -3 256 -69.5t72 -174.5h-182q8 40 -32.5 68.5t-136.5 29.5
q-214 3 -228 -75q-5 -27 26 -42t84 -20.5t117 -10.5t127 -16t113 -30.5t75.5 -61t13.5 -102.5q-21 -108 -144 -169.5t-306 -58.5z" />
    <glyph glyph-name="T" unicode="T" horiz-adv-x="881" 
d="M292 0l98 554h-325l26 146h823l-26 -146h-326l-98 -554h-172z" />
    <glyph glyph-name="U" unicode="U" horiz-adv-x="917" 
d="M395 -16q-59 0 -106 8t-87 25.5t-65.5 46.5t-42.5 72t-16.5 100.5t11.5 131.5l58 332h172l-64 -362q-36 -203 167 -203q202 0 238 203l64 362h172l-58 -332q-19 -109 -58.5 -185t-98 -119t-127.5 -61.5t-159 -18.5z" />
    <glyph glyph-name="V" unicode="V" horiz-adv-x="1065" 
d="M336 0l-245 700h205l194 -592l403 592h205l-493 -700h-269z" />
    <glyph glyph-name="W" unicode="W" horiz-adv-x="1274" 
d="M233 0l-135 700h192l84 -466l233 466h184l69 -466l248 466h191l-383 -700h-200l-66 421l-216 -421h-201z" />
    <glyph glyph-name="X" unicode="X" horiz-adv-x="939" 
d="M-26 0l378 353l-251 347h233l160 -222l239 222h232l-379 -353l248 -347h-229l-161 223l-241 -223h-229z" />
    <glyph glyph-name="Y" unicode="Y" horiz-adv-x="1003" 
d="M353 0l40 226l-306 474h212l206 -330l323 330h212l-474 -472l-41 -228h-172z" />
    <glyph glyph-name="Z" unicode="Z" horiz-adv-x="902" 
d="M-23 0l20 110l606 444h-520l26 146h806l-19 -107l-604 -447h535l-26 -146h-824z" />
    <glyph glyph-name="bracketleft" unicode="[" horiz-adv-x="513" 
d="M-48 -190l156 890h453l-19 -112h-282l-116 -666h280l-19 -112h-453z" />
    <glyph glyph-name="backslash" unicode="\" horiz-adv-x="1048" 
d="M800 0l-708 700h156l708 -700h-156z" />
    <glyph glyph-name="bracketright" unicode="]" horiz-adv-x="513" 
d="M-48 -190l19 112h282l116 666h-280l19 112h453l-156 -890h-453z" />
    <glyph glyph-name="asciicircum" unicode="^" horiz-adv-x="560" 
d="M-5 317l21 118l299 274l201 -274l-21 -118l-207 242z" />
    <glyph glyph-name="underscore" unicode="_" horiz-adv-x="1060" 
d="M18 0l24 143h1000l-24 -143h-1000z" />
    <glyph glyph-name="grave" unicode="`" horiz-adv-x="387" 
d="M314 544l-259 164l18 102l255 -186z" />
    <glyph glyph-name="a" unicode="a" horiz-adv-x="687" 
d="M181 -16q-33 0 -60.5 4.5t-55.5 17.5t-41 41t-6 69q8 46 48 79.5t108 53t138 30t162 16.5q7 40 -19 58.5t-85 18.5q-121 0 -253 -53l25 143q157 54 293 54q249 0 209 -234l-50 -282h-165l53 179h-10q-41 -103 -109 -149t-182 -46zM296 104q60 4 107.5 33t56.5 83
q-38 -3 -60 -4.5t-56 -5.5t-54.5 -9t-42 -12.5t-33 -18t-13.5 -23.5q-4 -24 23 -36t72 -7z" />
    <glyph glyph-name="b" unicode="b" horiz-adv-x="780" 
d="M421 -16q-98 0 -162.5 48t-66.5 131h-12l-6 -163h-177l124 700h172l-64 -361l-1 -1h5q32 83 109 130.5t171 47.5q111 0 171 -72.5t39 -189.5q-21 -120 -106 -195t-196 -75zM375 120q67 0 119 35t63 97t-28.5 95t-107.5 33q-67 0 -120 -33.5t-64 -94.5q-11 -62 30 -97
t108 -35z" />
    <glyph glyph-name="c" unicode="c" horiz-adv-x="617" 
d="M293 -16q-135 0 -203.5 73t-47.5 193q21 122 113.5 194t232.5 72q115 0 224 -54l-25 -144q-95 62 -197 62q-160 0 -182 -130q-12 -64 24.5 -97t115.5 -33q109 0 214 60l-24 -142q-72 -30 -123.5 -42t-121.5 -12z" />
    <glyph glyph-name="d" unicode="d" horiz-adv-x="780" 
d="M233 -16q-111 0 -169.5 75t-36.5 195q20 117 105.5 189.5t196.5 72.5q94 0 154.5 -47.5t62.5 -130.5h5v1l63 361h172l-123 -700h-177l51 163h-12q-31 -83 -112.5 -131t-179.5 -48zM327 120q67 0 120.5 35t64.5 97q11 61 -30.5 94.5t-108.5 33.5q-68 0 -119 -33t-62 -95
t28.5 -97t106.5 -35z" />
    <glyph glyph-name="e" unicode="e" horiz-adv-x="686" 
d="M296 -16q-136 0 -205.5 73t-48.5 193t116.5 193t231.5 73q134 0 206 -62.5t55 -164.5l-15 -82h-434q9 -92 167 -92q29 0 56.5 2.5t45.5 6t41 10.5t33.5 11t33 13t29.5 12l-24 -137q-76 -27 -135 -38t-153 -11zM211 277l273 6q7 51 -24 74t-94 23q-123 0 -155 -103z" />
    <glyph glyph-name="f" unicode="f" horiz-adv-x="428" 
d="M36 0l65 375h-60l23 125h60l3 20q18 103 55 143.5t120 44.5q57 4 146 -15l-18 -100q-56 3 -81 -4t-35 -25t-18 -64h118l-21 -115h-118l-67 -385h-172z" />
    <glyph glyph-name="g" unicode="g" horiz-adv-x="748" 
d="M288 -200q-141 0 -262 36l26 146q29 -19 92.5 -32.5t137.5 -13.5q107 0 156.5 39t71.5 136l8 36q-35 -74 -112 -112.5t-172 -38.5q-112 0 -171 69.5t-38 188.5q21 117 106 189.5t197 72.5q93 0 154 -47.5t63 -130.5h16l14 162h169l-77 -440q-23 -131 -124 -195.5
t-255 -64.5zM326 120q66 0 119.5 35t64.5 97q11 61 -30 94.5t-108 33.5q-68 0 -119 -33t-62 -95q-12 -63 27.5 -97.5t107.5 -34.5z" />
    <glyph glyph-name="h" unicode="h" horiz-adv-x="727" 
d="M-5 0l125 700h186l-92 -406h8q39 114 107 168t181 54q55 -1 89 -15t55.5 -48t21.5 -91.5t-13 -144.5l-39 -217h-172l36 200q18 104 -4 145.5t-91 41.5q-70 0 -125 -65t-73 -169v1l-27 -154h-173z" />
    <glyph glyph-name="i" unicode="i" horiz-adv-x="296" 
d="M181 564q-103 0 -86 91q16 92 118 92q104 0 88 -92q-17 -91 -120 -91zM-3 0l88 500h172l-88 -500h-172z" />
    <glyph glyph-name="j" unicode="j" horiz-adv-x="312" 
d="M204 564q-103 0 -86 91q17 92 118 92q105 0 88 -92q-17 -91 -120 -91zM-115 -200l18 99q48 0 77.5 23t35.5 60l92 518h172l-90 -510q-16 -89 -98 -139.5t-207 -50.5z" />
    <glyph glyph-name="k" unicode="k" horiz-adv-x="726" 
d="M-5 0l125 700h172l-71 -394l247 194h240l-225 -166l150 -334h-213l-87 220l-145 -104l-20 -116h-173z" />
    <glyph glyph-name="l" unicode="l" horiz-adv-x="287" 
d="M-5 0l125 700h172l-124 -700h-173z" />
    <glyph glyph-name="m" unicode="m" horiz-adv-x="1190" 
d="M13 0l88 500h186l-57 -206h8q39 114 107 168t181 54q96 -2 134 -50t26 -172h8q39 114 107 168t181 54q55 -1 89 -15t55.5 -48t21.5 -91.5t-13 -144.5l-38 -217h-172l35 200q18 105 -3.5 146t-90.5 41q-70 0 -125.5 -65t-73.5 -169l-26 -153h-172l35 200q18 105 -3.5 146
t-90.5 41q-70 0 -125.5 -65t-73.5 -169l-26 -153h-172z" />
    <glyph glyph-name="n" unicode="n" horiz-adv-x="734" 
d="M13 0l88 500h186l-57 -206h8q39 114 107 168t181 54q55 -1 89 -15t55.5 -48t21.5 -91.5t-13 -144.5l-38 -217h-172l35 200q18 104 -4 145.5t-90 41.5q-69 0 -123 -62t-74 -161l-28 -164h-172z" />
    <glyph glyph-name="o" unicode="o" horiz-adv-x="718" 
d="M312 -16q-143 0 -217 73t-53 193t121 193t243 73t217 -73t53 -193t-121 -193t-243 -73zM336 120q70 0 119 36t59 94t-26 94t-106 36t-118.5 -35.5t-59.5 -94.5q-10 -58 26.5 -94t105.5 -36z" />
    <glyph glyph-name="p" unicode="p" horiz-adv-x="780" 
d="M-6 -200l124 700h176l-51 -163h11q31 83 112.5 131t180.5 48q111 0 169.5 -75t36.5 -195q-20 -117 -105 -189.5t-197 -72.5q-93 0 -154 47.5t-64 130.5h-4v-1l-63 -361h-172zM407 120q68 0 119 33.5t62 94.5q11 62 -28.5 97t-106.5 35q-66 0 -119.5 -35t-64.5 -97
q-11 -60 30 -94t108 -34z" />
    <glyph glyph-name="q" unicode="q" horiz-adv-x="780" 
d="M359 516q98 0 162.5 -48t66.5 -131h12l6 163h177l-124 -700h-172l64 361l1 1h-5q-32 -83 -109 -130.5t-171 -47.5q-111 0 -171 72.5t-39 189.5q21 120 106 195t196 75zM405 380q-67 0 -119 -35t-63 -97t28.5 -95t107.5 -33q67 0 120 33.5t64 94.5q11 62 -30 97t-108 35z
" />
    <glyph glyph-name="r" unicode="r" horiz-adv-x="537" 
d="M13 0l88 500h186l-57 -206h10q41 122 112.5 172t201.5 50l-26 -146q-149 0 -219.5 -40.5t-92.5 -152.5l-31 -177h-172z" />
    <glyph glyph-name="s" unicode="s" horiz-adv-x="668" 
d="M285 -16q-133 0 -261 39l25 142q105 -43 234 -43q83 0 120 8.5t41 30.5q4 20 -25.5 29t-76 9.5t-99.5 6.5t-97.5 16.5t-70 42t-16.5 81.5q15 84 101 127t223 43q107 0 245 -28l-25 -139q-118 26 -222 26q-151 0 -158 -37q-3 -14 19 -21t58.5 -9.5t81 -4.5t87.5 -9.5
t77.5 -21.5t52.5 -45t10 -75q-30 -168 -324 -168z" />
    <glyph glyph-name="t" unicode="t" horiz-adv-x="426" 
d="M191 -10q-94 0 -115.5 39t-1.5 151l34 195h-63l22 125h84l22 120l154 20l-25 -140h123l-22 -125h-123l-29 -165q-16 -72 -0.5 -90t104.5 -12l-17 -98q-70 -20 -147 -20z" />
    <glyph glyph-name="u" unicode="u" horiz-adv-x="734" 
d="M721 500l-88 -500h-186l57 206h-8q-39 -114 -107 -168t-181 -54q-55 1 -89 15t-55.5 48t-21.5 91.5t13 144.5l38 217h172l-35 -200q-18 -104 4 -145.5t90 -41.5q69 0 123 62t74 161l28 164h172z" />
    <glyph glyph-name="v" unicode="v" horiz-adv-x="805" 
d="M249 0l-176 500h185l126 -358l251 358h185l-352 -500h-219z" />
    <glyph glyph-name="w" unicode="w" horiz-adv-x="1099" 
d="M195 0l-126 500h175l80 -324l187 324h154l81 -328l196 328h176l-302 -500h-204l-62 269l-152 -269h-203z" />
    <glyph glyph-name="x" unicode="x" horiz-adv-x="814" 
d="M-19 0l309 251l-220 249h219l136 -153l189 153h219l-318 -257l214 -243h-218l-130 147l-182 -147h-218z" />
    <glyph glyph-name="y" unicode="y" horiz-adv-x="789" 
d="M137 -200l149 206l-199 494h195l120 -324l235 324h189l-500 -700h-189z" />
    <glyph glyph-name="z" unicode="z" horiz-adv-x="719" 
d="M-14 0l15 86l411 285h-353l23 129h651l-14 -84l-409 -286h348l-23 -130h-649z" />
    <glyph glyph-name="braceleft" unicode="{" horiz-adv-x="698" 
d="M592 -80q-111 0 -180 12.5t-102.5 37.5t-41.5 63t2 90q17 95 -45 143.5t-201 48.5l12 68q134 2 196.5 49t78.5 136q14 77 46.5 119t116.5 66t233 24l-11 -62q-97 3 -145 -9t-69.5 -42t-33.5 -96q-7 -38 -12.5 -59t-21 -51t-38 -48t-62.5 -35t-96 -25q85 -4 132 -34
t56.5 -79t-0.5 -114q-16 -91 21.5 -118t175.5 -23z" />
    <glyph glyph-name="bar" unicode="|" horiz-adv-x="292" 
d="M-18 -170l156 890h172l-156 -890h-172z" />
    <glyph glyph-name="braceright" unicode="}" horiz-adv-x="705" 
d="M-9 -80l7 62q136 -4 181.5 23t55.5 118q11 104 69 162.5t184 64.5q-66 10 -105 32t-51 50.5t-15 63.5t4 72q11 95 -27 123t-179 24l7 62q91 0 153.5 -8t101 -24.5t57.5 -41.5t24 -58.5t0 -76.5q-10 -89 39.5 -136t182.5 -49l-8 -68q-280 0 -301 -192q-6 -55 -24 -90.5
t-59 -62.5t-113.5 -38.5t-183.5 -11.5z" />
    <glyph glyph-name="asciitilde" unicode="~" horiz-adv-x="441" 
d="M276 310q-31 0 -52.5 18t-37.5 36t-32 18q-28 0 -47.5 -18t-26.5 -53h-61q10 58 51 94t95 36q21 0 39 -11.5t28 -24.5t24.5 -24.5t30.5 -11.5q62 0 75 71h60q-11 -59 -51.5 -94.5t-94.5 -35.5z" />
    <glyph glyph-name="exclamdown" unicode="&#xa1;" horiz-adv-x="290" 
d="M207 520q45 0 67 -25t15 -68q-7 -42 -39 -67t-76 -25q-43 0 -65 25t-15 67t38.5 67.5t74.5 25.5zM80 213h160l-61 -406h-180z" />
    <glyph glyph-name="cent" unicode="&#xa2;" horiz-adv-x="589" 
d="M380 470q-160 0 -182 -130q-12 -64 24.5 -97t115.5 -33q109 0 214 60l-24 -142q-94 -38 -158 -48l-19 -110h-187l20 117q-87 24 -127.5 90.5t-24.5 162.5q17 97 80.5 164t161.5 90l18 106h187l-17 -100q65 -11 140 -48l-25 -144q-95 62 -197 62z" />
    <glyph glyph-name="sterling" unicode="&#xa3;" horiz-adv-x="902" 
d="M22 0l26 144q77 34 98 84h-119l18 103h113l-6 40h-100l19 103h78q1 10 5 32q20 118 120 164.5t302 44.5q91 -1 192.5 -11.5t140.5 -23.5l-27 -152q-29 12 -138 25.5t-184 13.5q-116 0 -170 -20.5t-68 -72.5h469l-19 -103h-463q-1 -19 -6 -40h462l-18 -103h-479
q-29 -57 -86 -88h625l-25 -140h-760z" />
    <glyph glyph-name="currency" unicode="&#xa4;" horiz-adv-x="720" 
d="M106 16l-100 121l97 83q-21 47 -10 110q12 68 54 116l-72 87l143 122l94 -114q39 9 85 9q48 0 84 -9l133 114l100 -122l-101 -86q22 -48 10 -117q-11 -66 -46 -110l68 -83l-143 -121l-86 104q-48 -10 -97 -10q-48 0 -89 11zM339 224q60 0 99 28.5t47 77.5
q9 49 -19.5 77.5t-88.5 28.5t-99 -28.5t-47 -77.5q-9 -49 19.5 -77.5t88.5 -28.5z" />
    <glyph glyph-name="yen" unicode="&#xa5;" horiz-adv-x="963" 
d="M1040 700l-337 -336h160l-18 -103h-246l-33 -33l-1 -7h272l-18 -103h-273l-21 -118h-172l21 118h-265l18 103h265l1 5l-23 35h-235l18 103h151l-217 336h212l206 -330l323 330h212z" />
    <glyph glyph-name="brokenbar" unicode="&#xa6;" horiz-adv-x="292" 
d="M67 313l71 407h172l-71 -407h-172zM-18 -170l73 418h172l-73 -418h-172z" />
    <glyph glyph-name="section" unicode="&#xa7;" horiz-adv-x="644" 
d="M259 0q-133 0 -261 39l25 139q105 -43 260 -43q123 0 127 27q3 19 -25.5 29.5t-74 12.5t-97.5 10t-95.5 20t-68.5 44.5t-16 82.5t54 76q-34 38 -25 89q14 80 100.5 122t222.5 42q107 0 245 -28l-25 -139q-118 26 -245 26q-123 0 -128 -32q-3 -15 39 -20t101.5 -9.5
t118 -16.5t94 -50.5t24.5 -102.5q-8 -44 -49 -76q29 -42 20 -90q-13 -75 -99 -113.5t-222 -38.5zM310 302q116 -10 129 36q6 24 -21.5 37t-87.5 18q-63 5 -90.5 -4.5t-34.5 -33.5q-5 -22 20.5 -35t84.5 -18z" />
    <glyph glyph-name="dieresis" unicode="&#xa8;" horiz-adv-x="588" 
d="M134 538q-44 0 -67.5 23.5t-16.5 61.5t38.5 61.5t75.5 23.5q47 0 69 -23t15 -62t-37 -62t-77 -23zM424 538q-44 0 -67.5 23.5t-16.5 61.5t38.5 61.5t75.5 23.5q47 0 69 -23t15 -62t-37 -62t-77 -23z" />
    <glyph glyph-name="copyright" unicode="&#xa9;" horiz-adv-x="965" 
d="M417 -16q-202 0 -299.5 99.5t-67.5 266.5q29 166 163 266t334 100q204 0 301 -98.5t67 -267.5q-30 -167 -162.5 -266.5t-335.5 -99.5zM422 11q197 0 317 92.5t148 246.5q28 153 -60 246t-285 93q-191 0 -314.5 -93.5t-151.5 -245.5q-28 -151 63.5 -245t282.5 -94zM440 85
q-136 0 -205.5 73t-48.5 193t116.5 193t231.5 73q135 0 206 -65t52 -172h-174q2 46 -27.5 74t-80.5 28q-58 0 -100 -36t-52 -95t19 -95t87 -36q53 0 93.5 30.5t53.5 79.5h173q-19 -110 -113.5 -177.5t-230.5 -67.5z" />
    <glyph glyph-name="guillemotleft" unicode="&#xab;" horiz-adv-x="870" 
d="M200 0l-162 250l250 250h210l-258 -250l170 -250h-210zM579 0l-162 250l250 250h210l-258 -250l170 -250h-210z" />
    <glyph glyph-name="logicalnot" unicode="&#xac;" horiz-adv-x="670" 
d="M467 76l34 198h-466l25 143h610l-25 -143l-35 -198h-143z" />
    <glyph glyph-name="registered" unicode="&#xae;" horiz-adv-x="965" 
d="M417 -16q-202 0 -299.5 99.5t-67.5 266.5q29 166 163 266t334 100q204 0 301 -98.5t67 -267.5q-30 -167 -162.5 -266.5t-335.5 -99.5zM422 11q197 0 317 92.5t148 246.5q28 153 -60 246t-285 93q-191 0 -314.5 -93.5t-151.5 -245.5q-28 -151 63.5 -245t282.5 -94z
M217 133l77 435h345q66 0 97.5 -32t22.5 -83q-10 -52 -52.5 -81t-106.5 -29h-45q73 -4 107 -49t72 -161h-135q-46 120 -67 150t-72 30h-106l-31 -180h-106zM369 396h218q54 0 62 41q4 23 -7 33.5t-40 10.5h-218z" />
    <glyph glyph-name="macron" unicode="&#xaf;" horiz-adv-x="632" 
d="M45 646l10 54h532l-10 -54h-532z" />
    <glyph glyph-name="degree" unicode="&#xb0;" horiz-adv-x="518" 
d="M237 460q-86 0 -141.5 35t-45.5 90t77.5 90t153.5 35q93 0 145 -34.5t42 -90.5t-74 -90.5t-157 -34.5zM247 515q41 0 69 19t33 51q5 33 -16 52t-61 19t-68 -19t-34 -52t15.5 -51.5t61.5 -18.5z" />
    <glyph glyph-name="plusminus" unicode="&#xb1;" horiz-adv-x="600" 
d="M216 196l24 138h-138l21 115h137l25 137h115l-25 -137h138l-21 -115h-137l-24 -138h-115zM-22 0l19 103h520l-19 -103h-520z" />
    <glyph glyph-name="acute" unicode="&#xb4;" horiz-adv-x="387" 
d="M27 544l14 80l319 186l-18 -102z" />
    <glyph glyph-name="paragraph" unicode="&#xb6;" horiz-adv-x="939" 
d="M316 -180l80 453h-129q-105 0 -160 55t-37 158q15 90 91 152t182 62h305l-156 -880h-176zM659 -180l156 880h172l-156 -880h-172z" />
    <glyph glyph-name="periodcentered" unicode="&#xb7;" horiz-adv-x="270" 
d="M118 233q-43 0 -65.5 25.5t-14.5 67.5q7 42 38.5 67t74.5 25q44 0 66.5 -25t15.5 -67q-8 -43 -39 -68t-76 -25z" />
    <glyph glyph-name="cedilla" unicode="&#xb8;" horiz-adv-x="526" 
d="M22 -287l9 55q255 1 265 55q3 17 -20 29.5t-79 20t-146 8.5l10 53l75 101h118l-72 -105q141 -8 217 -36t68 -71q-8 -47 -131.5 -78t-313.5 -32z" />
    <glyph glyph-name="guillemotright" unicode="&#xbb;" horiz-adv-x="885" 
d="M-7 0l259 250l-170 250h210l162 -250l-250 -250h-211zM373 0l258 250l-170 250h210l162 -250l-250 -250h-210z" />
    <glyph glyph-name="onequarter" unicode="&#xbc;" horiz-adv-x="1603" 
d="M355 -22l818 744h129l-818 -744h-129zM243 161l66 378l-260 -149l20 117l299 132h77l-85 -478h-117zM1305 61l15 80h-385l13 76l379 322h181l-53 -299h66l-18 -99h-66l-14 -80h-118zM1088 240h249l46 260z" />
    <glyph glyph-name="onehalf" unicode="&#xbd;" horiz-adv-x="1734" 
d="M354 -22l818 744h129l-818 -744h-129zM243 161l66 378l-260 -149l20 117l299 132h77l-85 -478h-117zM1122 61l14 77q38 17 115 50t124 54t101 48t82 50.5t32 44.5q6 35 -27 49t-117 14q-51 0 -128.5 -9t-100.5 -17l18 103q30 10 102 17t134 7q139 2 197 -28t44 -112
q-8 -45 -51.5 -86.5t-109.5 -72t-128.5 -51.5t-130.5 -38h356l-18 -100h-508z" />
    <glyph glyph-name="threequarters" unicode="&#xbe;" horiz-adv-x="1610" 
d="M362 -22l818 744h129l-818 -744h-129zM221 150q-142 2 -217 30l17 100q30 -14 92 -22t119 -8q176 0 186 46q3 16 -10.5 27t-54 19.5t-108.5 14.5t-181 12l11 62q115 5 188 11t110 15t50 18t16 23q3 19 -18 31t-55.5 17t-80.5 5q-54 0 -119 -8.5t-102 -22.5l18 100
q90 31 228 31q61 0 103.5 -4.5t80 -18t53 -40.5t8.5 -68q-5 -28 -23 -49.5t-46.5 -33t-53 -19t-56.5 -10t-42 -3t-25 -0.5l-1 -6q1 0 25.5 -0.5t40 -2t43.5 -5t46 -11.5t36.5 -19.5t25.5 -30.5t2 -44q-14 -79 -91 -108t-215 -28zM1312 58l15 80h-385l13 76l379 322h181
l-53 -299h66l-18 -99h-66l-14 -80h-118zM1095 237h249l46 260z" />
    <glyph glyph-name="questiondown" unicode="&#xbf;" horiz-adv-x="742" 
d="M507 520q43 0 65.5 -25.5t14.5 -67.5q-7 -42 -38.5 -67t-74.5 -25q-44 0 -66.5 25t-15.5 67q8 43 39 68t76 25zM529 275q-5 -56 -30 -94t-59.5 -53.5t-74 -26.5t-73.5 -16t-59 -19t-29 -38q-9 -52 37.5 -70t177.5 -18q102 0 249 21l-27 -151q-122 -16 -258 -18
q-206 -2 -292 42t-64 167q11 62 43 102.5t72 56t85 26.5t81.5 16.5t61.5 23.5t26 49h133z" />
    <glyph glyph-name="Agrave" unicode="&#xc0;" horiz-adv-x="1098" 
d="M623 744l-259 164l18 102l255 -186zM-33 0l547 700h194l299 -700h-202l-52 133h-481l-100 -133h-205zM379 279h317l-109 277z" />
    <glyph glyph-name="Aacute" unicode="&#xc1;" horiz-adv-x="1098" 
d="M593 744l14 80l319 186l-18 -102zM-33 0l547 700h194l299 -700h-202l-52 133h-481l-100 -133h-205zM379 279h317l-109 277z" />
    <glyph glyph-name="Acircumflex" unicode="&#xc2;" horiz-adv-x="1098" 
d="M332 755l14 80l319 186l255 -186l-14 -80l-259 164zM-33 0l547 700h194l299 -700h-202l-52 133h-481l-100 -133h-205zM379 279h317l-109 277z" />
    <glyph glyph-name="Atilde" unicode="&#xc3;" horiz-adv-x="1098" 
d="M706 772q-31 0 -52.5 18t-37.5 36t-32 18q-28 0 -47.5 -18t-26.5 -53h-61q10 58 51 94t95 36q21 0 39 -11.5t28 -24.5t24.5 -24.5t30.5 -11.5q62 0 75 71h60q-11 -59 -51.5 -94.5t-94.5 -35.5zM-33 0l547 700h194l299 -700h-202l-52 133h-481l-100 -133h-205zM379 279
h317l-109 277z" />
    <glyph glyph-name="Adieresis" unicode="&#xc4;" horiz-adv-x="1098" 
d="M475 738q-44 0 -67.5 23.5t-16.5 61.5t38.5 61.5t75.5 23.5q47 0 69 -23t15 -62t-37 -62t-77 -23zM765 738q-44 0 -67.5 23.5t-16.5 61.5t38.5 61.5t75.5 23.5q47 0 69 -23t15 -62t-37 -62t-77 -23zM-33 0l547 700h194l299 -700h-202l-52 133h-481l-100 -133h-205z
M379 279h317l-109 277z" />
    <glyph glyph-name="Aring" unicode="&#xc5;" horiz-adv-x="1098" 
d="M616 738q-105 0 -174 29t-61 74t87 74t184 29q113 0 178 -28.5t57 -74.5t-83 -74.5t-188 -28.5zM625 789q41 0 68.5 13.5t31.5 38.5q4 26 -18.5 39t-63.5 13q-40 0 -67 -13.5t-31 -38.5t18 -38.5t62 -13.5zM-33 0l547 700h194l299 -700h-202l-52 133h-481l-100 -133h-205
zM379 279h317l-109 277z" />
    <glyph glyph-name="AE" unicode="&#xc6;" horiz-adv-x="1444" 
d="M-33 0l725 700h740l-26 -142h-473l-23 -136h463l-22 -133h-465l-25 -147h473l-26 -142h-645l24 133h-353l-131 -133h-236zM473 275h239l52 297z" />
    <glyph glyph-name="Ccedilla" unicode="&#xc7;" horiz-adv-x="928" 
d="M894 395h-174q9 84 -50 129.5t-167 45.5q-115 0 -193 -57.5t-96 -162.5q-18 -104 39.5 -162t171.5 -58q109 0 184 45.5t95 129.5h174q-22 -124 -123 -207.5t-253 -106.5l-42 -61q141 -8 217 -36t68 -71q-8 -47 -131.5 -78t-313.5 -32l9 55q255 1 265 55q3 17 -20 29.5
t-79 20t-146 8.5l10 53l37 50q-179 7 -270.5 107t-63.5 259q29 165 163 265.5t324 100.5t290 -88t75 -233z" />
    <glyph glyph-name="Egrave" unicode="&#xc8;" horiz-adv-x="840" 
d="M500 744l-259 164l18 102l255 -186zM22 0l124 700h682l-26 -146h-510l-23 -130h501l-23 -137h-502l-25 -141h510l-26 -146h-682z" />
    <glyph glyph-name="Eacute" unicode="&#xc9;" horiz-adv-x="840" 
d="M470 744l14 80l319 186l-18 -102zM22 0l124 700h682l-26 -146h-510l-23 -130h501l-23 -137h-502l-25 -141h510l-26 -146h-682z" />
    <glyph glyph-name="Ecircumflex" unicode="&#xca;" horiz-adv-x="840" 
d="M209 755l14 80l319 186l255 -186l-14 -80l-259 164zM22 0l124 700h682l-26 -146h-510l-23 -130h501l-23 -137h-502l-25 -141h510l-26 -146h-682z" />
    <glyph glyph-name="Edieresis" unicode="&#xcb;" horiz-adv-x="840" 
d="M352 738q-44 0 -67.5 23.5t-16.5 61.5t38.5 61.5t75.5 23.5q47 0 69 -23t15 -62t-37 -62t-77 -23zM642 738q-44 0 -67.5 23.5t-16.5 61.5t38.5 61.5t75.5 23.5q47 0 69 -23t15 -62t-37 -62t-77 -23zM22 0l124 700h682l-26 -146h-510l-23 -130h501l-23 -137h-502l-25 -141
h510l-26 -146h-682z" />
    <glyph glyph-name="Igrave" unicode="&#xcc;" horiz-adv-x="340" 
d="M246 744l-259 164l18 102l255 -186zM22 0l124 700h172l-124 -700h-172z" />
    <glyph glyph-name="Iacute" unicode="&#xcd;" horiz-adv-x="340" 
d="M216 744l14 80l319 186l-18 -102zM22 0l124 700h172l-124 -700h-172z" />
    <glyph glyph-name="Icircumflex" unicode="&#xce;" horiz-adv-x="340" 
d="M-45 755l14 80l319 186l255 -186l-14 -80l-259 164zM22 0l124 700h172l-124 -700h-172z" />
    <glyph glyph-name="Idieresis" unicode="&#xcf;" horiz-adv-x="340" 
d="M98 738q-44 0 -67.5 23.5t-16.5 61.5t38.5 61.5t75.5 23.5q47 0 69 -23t15 -62t-37 -62t-77 -23zM388 738q-44 0 -67.5 23.5t-16.5 61.5t38.5 61.5t75.5 23.5q47 0 69 -23t15 -62t-37 -62t-77 -23zM22 0l124 700h172l-124 -700h-172z" />
    <glyph glyph-name="Eth" unicode="&#xd0;" horiz-adv-x="867" 
d="M479 700q192 0 284 -90t62 -260q-30 -171 -154 -260.5t-316 -89.5h-333l49 279h-75l49 143h52l49 278h333zM657 350q18 101 -35.5 152.5t-168.5 51.5h-161l-23 -132h276l-49 -143h-253l-23 -133h161q116 0 187 52t89 152z" />
    <glyph glyph-name="Ntilde" unicode="&#xd1;" horiz-adv-x="974" 
d="M648 772q-31 0 -52.5 18t-37.5 36t-32 18q-28 0 -47.5 -18t-26.5 -53h-61q10 58 51 94t95 36q21 0 39 -11.5t28 -24.5t24.5 -24.5t30.5 -11.5q62 0 75 71h60q-11 -59 -51.5 -94.5t-94.5 -35.5zM22 0l124 700h144l412 -446l79 446h172l-124 -700h-145l-412 445l-78 -445
h-172z" />
    <glyph glyph-name="Ograve" unicode="&#xd2;" horiz-adv-x="969" 
d="M561 744l-259 164l18 102l255 -186zM419 -16q-203 0 -304.5 100t-72.5 266t166.5 266t340.5 100q204 0 305.5 -100t72.5 -266t-166.5 -266t-341.5 -100zM445 130q127 0 209 57.5t101 162.5q19 106 -43 163t-189 57t-208.5 -57.5t-100.5 -162.5t43 -162.5t188 -57.5z" />
    <glyph glyph-name="Oacute" unicode="&#xd3;" horiz-adv-x="969" 
d="M531 744l14 80l319 186l-18 -102zM419 -16q-203 0 -304.5 100t-72.5 266t166.5 266t340.5 100q204 0 305.5 -100t72.5 -266t-166.5 -266t-341.5 -100zM445 130q127 0 209 57.5t101 162.5q19 106 -43 163t-189 57t-208.5 -57.5t-100.5 -162.5t43 -162.5t188 -57.5z" />
    <glyph glyph-name="Ocircumflex" unicode="&#xd4;" horiz-adv-x="969" 
d="M270 755l14 80l319 186l255 -186l-14 -80l-259 164zM419 -16q-203 0 -304.5 100t-72.5 266t166.5 266t340.5 100q204 0 305.5 -100t72.5 -266t-166.5 -266t-341.5 -100zM445 130q127 0 209 57.5t101 162.5q19 106 -43 163t-189 57t-208.5 -57.5t-100.5 -162.5t43 -162.5
t188 -57.5z" />
    <glyph glyph-name="Otilde" unicode="&#xd5;" horiz-adv-x="969" 
d="M644 772q-31 0 -52.5 18t-37.5 36t-32 18q-28 0 -47.5 -18t-26.5 -53h-61q10 58 51 94t95 36q21 0 39 -11.5t28 -24.5t24.5 -24.5t30.5 -11.5q62 0 75 71h60q-11 -59 -51.5 -94.5t-94.5 -35.5zM419 -16q-203 0 -304.5 100t-72.5 266t166.5 266t340.5 100
q204 0 305.5 -100t72.5 -266t-166.5 -266t-341.5 -100zM445 130q127 0 209 57.5t101 162.5q19 106 -43 163t-189 57t-208.5 -57.5t-100.5 -162.5t43 -162.5t188 -57.5z" />
    <glyph glyph-name="Odieresis" unicode="&#xd6;" horiz-adv-x="969" 
d="M413 738q-44 0 -67.5 23.5t-16.5 61.5t38.5 61.5t75.5 23.5q47 0 69 -23t15 -62t-37 -62t-77 -23zM703 738q-44 0 -67.5 23.5t-16.5 61.5t38.5 61.5t75.5 23.5q47 0 69 -23t15 -62t-37 -62t-77 -23zM419 -16q-203 0 -304.5 100t-72.5 266t166.5 266t340.5 100
q204 0 305.5 -100t72.5 -266t-166.5 -266t-341.5 -100zM445 130q127 0 209 57.5t101 162.5q19 106 -43 163t-189 57t-208.5 -57.5t-100.5 -162.5t43 -162.5t188 -57.5z" />
    <glyph glyph-name="multiply" unicode="&#xd7;" horiz-adv-x="600" 
d="M116 97l-84 101l157 133l-110 133l119 101l109 -133l157 134l84 -101l-157 -134l109 -133l-118 -101l-110 133z" />
    <glyph glyph-name="Oslash" unicode="&#xd8;" horiz-adv-x="969" 
d="M1019 700l-142 -109q75 -96 50 -241q-29 -166 -166.5 -266t-341.5 -100q-156 0 -253 60l-57 -44h-156l140 108q-77 95 -51 242q29 166 166.5 266t340.5 100q156 0 256 -61l58 45h156zM214 350q-15 -79 20 -134l428 329q-54 25 -139 25q-127 0 -208.5 -57.5t-100.5 -162.5
zM755 350q14 81 -19 133l-427 -329q56 -24 136 -24q127 0 209 57.5t101 162.5z" />
    <glyph glyph-name="Ugrave" unicode="&#xd9;" horiz-adv-x="917" 
d="M535 744l-259 164l18 102l255 -186zM395 -16q-59 0 -106 8t-87 25.5t-65.5 46.5t-42.5 72t-16.5 100.5t11.5 131.5l58 332h172l-64 -362q-36 -203 167 -203q202 0 238 203l64 362h172l-58 -332q-19 -109 -58.5 -185t-98 -119t-127.5 -61.5t-159 -18.5z" />
    <glyph glyph-name="Uacute" unicode="&#xda;" horiz-adv-x="917" 
d="M505 744l14 80l319 186l-18 -102zM395 -16q-59 0 -106 8t-87 25.5t-65.5 46.5t-42.5 72t-16.5 100.5t11.5 131.5l58 332h172l-64 -362q-36 -203 167 -203q202 0 238 203l64 362h172l-58 -332q-19 -109 -58.5 -185t-98 -119t-127.5 -61.5t-159 -18.5z" />
    <glyph glyph-name="Ucircumflex" unicode="&#xdb;" horiz-adv-x="917" 
d="M244 755l14 80l319 186l255 -186l-14 -80l-259 164zM395 -16q-59 0 -106 8t-87 25.5t-65.5 46.5t-42.5 72t-16.5 100.5t11.5 131.5l58 332h172l-64 -362q-36 -203 167 -203q202 0 238 203l64 362h172l-58 -332q-19 -109 -58.5 -185t-98 -119t-127.5 -61.5t-159 -18.5z
" />
    <glyph glyph-name="Udieresis" unicode="&#xdc;" horiz-adv-x="917" 
d="M387 738q-44 0 -67.5 23.5t-16.5 61.5t38.5 61.5t75.5 23.5q47 0 69 -23t15 -62t-37 -62t-77 -23zM677 738q-44 0 -67.5 23.5t-16.5 61.5t38.5 61.5t75.5 23.5q47 0 69 -23t15 -62t-37 -62t-77 -23zM395 -16q-59 0 -106 8t-87 25.5t-65.5 46.5t-42.5 72t-16.5 100.5
t11.5 131.5l58 332h172l-64 -362q-36 -203 167 -203q202 0 238 203l64 362h172l-58 -332q-19 -109 -58.5 -185t-98 -119t-127.5 -61.5t-159 -18.5z" />
    <glyph glyph-name="Yacute" unicode="&#xdd;" horiz-adv-x="1003" 
d="M547 744l14 80l319 186l-18 -102zM353 0l40 226l-306 474h212l206 -330l323 330h212l-474 -472l-41 -228h-172z" />
    <glyph glyph-name="Thorn" unicode="&#xde;" horiz-adv-x="823" 
d="M6 0l124 700h175l-36 -200h325q106 0 159.5 -61.5t38.5 -152.5q-18 -103 -93 -158t-180 -55h-325l-12 -73h-176zM218 209h300q41 0 68 20.5t34 56.5q6 37 -14 57.5t-61 20.5h-299z" />
    <glyph glyph-name="germandbls" unicode="&#xdf;" horiz-adv-x="852" 
d="M336 -16q-66 2 -100 4l25 145q47 -3 90 -3q135 0 200 15.5t72 56.5q4 22 -7.5 36t-49 26t-103 19.5t-173.5 14.5l18 105q144 9 218.5 21t98.5 26.5t29 40.5q4 23 -10.5 38t-47.5 22.5t-72.5 10.5t-96.5 3h-178l-99 -565h-173l124 700h360q64 0 104 -1.5t90.5 -6.5
t79 -16.5t54.5 -30.5t33.5 -49t0.5 -71q-16 -88 -101 -128t-258 -40l-2 -9q183 -6 259.5 -44.5t62.5 -116.5q-11 -62 -47.5 -103.5t-98.5 -63t-133 -29.5t-169 -7z" />
    <glyph glyph-name="agrave" unicode="&#xe0;" horiz-adv-x="687" 
d="M435 544l-259 164l18 102l255 -186zM181 -16q-33 0 -60.5 4.5t-55.5 17.5t-41 41t-6 69q8 46 48 79.5t108 53t138 30t162 16.5q7 40 -19 58.5t-85 18.5q-121 0 -253 -53l25 143q157 54 293 54q249 0 209 -234l-50 -282h-165l53 179h-10q-41 -103 -109 -149t-182 -46z
M296 104q60 4 107.5 33t56.5 83q-38 -3 -60 -4.5t-56 -5.5t-54.5 -9t-42 -12.5t-33 -18t-13.5 -23.5q-4 -24 23 -36t72 -7z" />
    <glyph glyph-name="aacute" unicode="&#xe1;" horiz-adv-x="687" 
d="M405 544l14 80l319 186l-18 -102zM181 -16q-33 0 -60.5 4.5t-55.5 17.5t-41 41t-6 69q8 46 48 79.5t108 53t138 30t162 16.5q7 40 -19 58.5t-85 18.5q-121 0 -253 -53l25 143q157 54 293 54q249 0 209 -234l-50 -282h-165l53 179h-10q-41 -103 -109 -149t-182 -46z
M296 104q60 4 107.5 33t56.5 83q-38 -3 -60 -4.5t-56 -5.5t-54.5 -9t-42 -12.5t-33 -18t-13.5 -23.5q-4 -24 23 -36t72 -7z" />
    <glyph glyph-name="acircumflex" unicode="&#xe2;" horiz-adv-x="687" 
d="M144 555l14 80l319 186l255 -186l-14 -80l-259 164zM181 -16q-33 0 -60.5 4.5t-55.5 17.5t-41 41t-6 69q8 46 48 79.5t108 53t138 30t162 16.5q7 40 -19 58.5t-85 18.5q-121 0 -253 -53l25 143q157 54 293 54q249 0 209 -234l-50 -282h-165l53 179h-10
q-41 -103 -109 -149t-182 -46zM296 104q60 4 107.5 33t56.5 83q-38 -3 -60 -4.5t-56 -5.5t-54.5 -9t-42 -12.5t-33 -18t-13.5 -23.5q-4 -24 23 -36t72 -7z" />
    <glyph glyph-name="atilde" unicode="&#xe3;" horiz-adv-x="687" 
d="M518 572q-31 0 -52.5 18t-37.5 36t-32 18q-28 0 -47.5 -18t-26.5 -53h-61q10 58 51 94t95 36q21 0 39 -11.5t28 -24.5t24.5 -24.5t30.5 -11.5q62 0 75 71h60q-11 -59 -51.5 -94.5t-94.5 -35.5zM181 -16q-33 0 -60.5 4.5t-55.5 17.5t-41 41t-6 69q8 46 48 79.5t108 53
t138 30t162 16.5q7 40 -19 58.5t-85 18.5q-121 0 -253 -53l25 143q157 54 293 54q249 0 209 -234l-50 -282h-165l53 179h-10q-41 -103 -109 -149t-182 -46zM296 104q60 4 107.5 33t56.5 83q-38 -3 -60 -4.5t-56 -5.5t-54.5 -9t-42 -12.5t-33 -18t-13.5 -23.5q-4 -24 23 -36
t72 -7z" />
    <glyph glyph-name="adieresis" unicode="&#xe4;" horiz-adv-x="687" 
d="M287 538q-44 0 -67.5 23.5t-16.5 61.5t38.5 61.5t75.5 23.5q47 0 69 -23t15 -62t-37 -62t-77 -23zM577 538q-44 0 -67.5 23.5t-16.5 61.5t38.5 61.5t75.5 23.5q47 0 69 -23t15 -62t-37 -62t-77 -23zM181 -16q-33 0 -60.5 4.5t-55.5 17.5t-41 41t-6 69q8 46 48 79.5
t108 53t138 30t162 16.5q7 40 -19 58.5t-85 18.5q-121 0 -253 -53l25 143q157 54 293 54q249 0 209 -234l-50 -282h-165l53 179h-10q-41 -103 -109 -149t-182 -46zM296 104q60 4 107.5 33t56.5 83q-38 -3 -60 -4.5t-56 -5.5t-54.5 -9t-42 -12.5t-33 -18t-13.5 -23.5
q-4 -24 23 -36t72 -7z" />
    <glyph glyph-name="aring" unicode="&#xe5;" horiz-adv-x="687" 
d="M428 538q-105 0 -174 29t-61 74t87 74t184 29q113 0 178 -28.5t57 -74.5t-83 -74.5t-188 -28.5zM437 589q41 0 68.5 13.5t31.5 38.5q4 26 -18.5 39t-63.5 13q-40 0 -67 -13.5t-31 -38.5t18 -38.5t62 -13.5zM181 -16q-33 0 -60.5 4.5t-55.5 17.5t-41 41t-6 69
q8 46 48 79.5t108 53t138 30t162 16.5q7 40 -19 58.5t-85 18.5q-121 0 -253 -53l25 143q157 54 293 54q249 0 209 -234l-50 -282h-165l53 179h-10q-41 -103 -109 -149t-182 -46zM296 104q60 4 107.5 33t56.5 83q-38 -3 -60 -4.5t-56 -5.5t-54.5 -9t-42 -12.5t-33 -18
t-13.5 -23.5q-4 -24 23 -36t72 -7z" />
    <glyph glyph-name="ae" unicode="&#xe6;" horiz-adv-x="1114" 
d="M181 -16q-33 0 -60.5 4.5t-55.5 17.5t-41 41t-6 69q7 37 34 66.5t71.5 46.5t86.5 28.5t100.5 17t88.5 7t75 2.5q9 53 -16 70.5t-88 17.5q-124 0 -253 -52l25 142q157 54 293 54q124 0 169 -62q90 62 214 62q134 0 205.5 -62.5t55.5 -164.5l-15 -82h-434q9 -92 167 -92
q29 0 56.5 2.5t45.5 6t41 10.5t33.5 11t33 13t29.5 12l-24 -137q-76 -27 -135 -38t-153 -11q-108 0 -175.5 47.5t-80.5 131.5q-65 -179 -287 -179zM639 277l274 6q6 51 -24.5 74t-94.5 23q-123 0 -155 -103zM298 103q57 5 102.5 33t56.5 79q-146 -6 -195 -20
q-55 -16 -61 -48q-4 -24 23 -36t74 -8z" />
    <glyph glyph-name="ccedilla" unicode="&#xe7;" horiz-adv-x="617" 
d="M327 -70q141 -8 217 -36t68 -71q-8 -47 -131.5 -78t-313.5 -32l9 55q255 1 265 55q3 17 -20 29.5t-79 20t-146 8.5l10 53l39 53q-113 13 -167.5 83.5t-35.5 179.5q21 122 113.5 194t232.5 72q115 0 224 -54l-25 -144q-95 62 -197 62q-160 0 -182 -130q-12 -64 24.5 -97
t115.5 -33q109 0 214 60l-24 -142q-103 -42 -171 -50z" />
    <glyph glyph-name="egrave" unicode="&#xe8;" horiz-adv-x="686" 
d="M405 544l-259 164l18 102l255 -186zM296 -16q-136 0 -205.5 73t-48.5 193t116.5 193t231.5 73q134 0 206 -62.5t55 -164.5l-15 -82h-434q9 -92 167 -92q29 0 56.5 2.5t45.5 6t41 10.5t33.5 11t33 13t29.5 12l-24 -137q-76 -27 -135 -38t-153 -11zM211 277l273 6
q7 51 -24 74t-94 23q-123 0 -155 -103z" />
    <glyph glyph-name="eacute" unicode="&#xe9;" horiz-adv-x="686" 
d="M371 544l14 80l319 186l-18 -102zM296 -16q-136 0 -205.5 73t-48.5 193t116.5 193t231.5 73q134 0 206 -62.5t55 -164.5l-15 -82h-434q9 -92 167 -92q29 0 56.5 2.5t45.5 6t41 10.5t33.5 11t33 13t29.5 12l-24 -137q-76 -27 -135 -38t-153 -11zM211 277l273 6
q7 51 -24 74t-94 23q-123 0 -155 -103z" />
    <glyph glyph-name="ecircumflex" unicode="&#xea;" horiz-adv-x="686" 
d="M110 555l14 80l319 186l255 -186l-14 -80l-259 164zM296 -16q-136 0 -205.5 73t-48.5 193t116.5 193t231.5 73q134 0 206 -62.5t55 -164.5l-15 -82h-434q9 -92 167 -92q29 0 56.5 2.5t45.5 6t41 10.5t33.5 11t33 13t29.5 12l-24 -137q-76 -27 -135 -38t-153 -11zM211 277
l273 6q7 51 -24 74t-94 23q-123 0 -155 -103z" />
    <glyph glyph-name="edieresis" unicode="&#xeb;" horiz-adv-x="686" 
d="M253 538q-44 0 -67.5 23.5t-16.5 61.5t38.5 61.5t75.5 23.5q47 0 69 -23t15 -62t-37 -62t-77 -23zM543 538q-44 0 -67.5 23.5t-16.5 61.5t38.5 61.5t75.5 23.5q47 0 69 -23t15 -62t-37 -62t-77 -23zM296 -16q-136 0 -205.5 73t-48.5 193t116.5 193t231.5 73
q134 0 206 -62.5t55 -164.5l-15 -82h-434q9 -92 167 -92q29 0 56.5 2.5t45.5 6t41 10.5t33.5 11t33 13t29.5 12l-24 -137q-76 -27 -135 -38t-153 -11zM211 277l273 6q7 51 -24 74t-94 23q-123 0 -155 -103z" />
    <glyph glyph-name="igrave" unicode="&#xec;" horiz-adv-x="211" 
d="M172 542l-230 164l36 102l222 -186zM-25 0l88 500h172l-88 -500h-172z" />
    <glyph glyph-name="iacute" unicode="&#xed;" horiz-adv-x="211" 
d="M134 542l14 80l319 186l-18 -102zM-25 0l88 500h172l-88 -500h-172z" />
    <glyph glyph-name="icircumflex" unicode="&#xee;" horiz-adv-x="211" 
d="M-117 553l28 80l352 186l222 -186l-28 -80l-230 164zM-25 0l88 500h172l-88 -500h-172z" />
    <glyph glyph-name="idieresis" unicode="&#xef;" horiz-adv-x="211" 
d="M23 536q-44 0 -63 23.5t-6 61.5t49 61.5t80 23.5q47 0 65 -23t4 -62t-48 -62t-81 -23zM313 536q-44 0 -63 23.5t-6 61.5t49 61.5t80 23.5q47 0 65 -23t4 -62t-48 -62t-81 -23zM-25 0l88 500h172l-88 -500h-172z" />
    <glyph glyph-name="eth" unicode="&#xf0;" horiz-adv-x="830" 
d="M328 -12q-169 0 -254.5 60.5t-71.5 163.5q16 111 108 179.5t255 68.5q169 0 254 -127q27 124 -25 219l-205 -56l-12 91l154 42q-57 46 -138 50l18 76q169 0 275 -83l152 42l14 -90l-96 -27q65 -101 41 -235q-33 -186 -156.5 -280t-312.5 -94zM363 130q160 0 227 127
q-34 37 -95.5 62.5t-125.5 25.5q-79 0 -130 -29t-60 -79t42.5 -78.5t141.5 -28.5z" />
    <glyph glyph-name="ntilde" unicode="&#xf1;" horiz-adv-x="734" 
d="M515 572q-31 0 -52.5 18t-37.5 36t-32 18q-28 0 -47.5 -18t-26.5 -53h-61q10 58 51 94t95 36q21 0 39 -11.5t28 -24.5t24.5 -24.5t30.5 -11.5q62 0 75 71h60q-11 -59 -51.5 -94.5t-94.5 -35.5zM13 0l88 500h186l-57 -206h8q39 114 107 168t181 54q55 -1 89 -15t55.5 -48
t21.5 -91.5t-13 -144.5l-38 -217h-172l35 200q18 104 -4 145.5t-90 41.5q-69 0 -123 -62t-74 -161l-28 -164h-172z" />
    <glyph glyph-name="ograve" unicode="&#xf2;" horiz-adv-x="718" 
d="M418 544l-259 164l18 102l255 -186zM312 -16q-143 0 -217 73t-53 193t121 193t243 73t217 -73t53 -193t-121 -193t-243 -73zM336 120q70 0 119 36t59 94t-26 94t-106 36t-118.5 -35.5t-59.5 -94.5q-10 -58 26.5 -94t105.5 -36z" />
    <glyph glyph-name="oacute" unicode="&#xf3;" horiz-adv-x="718" 
d="M388 544l14 80l319 186l-18 -102zM312 -16q-143 0 -217 73t-53 193t121 193t243 73t217 -73t53 -193t-121 -193t-243 -73zM336 120q70 0 119 36t59 94t-26 94t-106 36t-118.5 -35.5t-59.5 -94.5q-10 -58 26.5 -94t105.5 -36z" />
    <glyph glyph-name="ocircumflex" unicode="&#xf4;" horiz-adv-x="718" 
d="M127 555l14 80l319 186l255 -186l-14 -80l-259 164zM312 -16q-143 0 -217 73t-53 193t121 193t243 73t217 -73t53 -193t-121 -193t-243 -73zM336 120q70 0 119 36t59 94t-26 94t-106 36t-118.5 -35.5t-59.5 -94.5q-10 -58 26.5 -94t105.5 -36z" />
    <glyph glyph-name="otilde" unicode="&#xf5;" horiz-adv-x="718" 
d="M501 572q-31 0 -52.5 18t-37.5 36t-32 18q-28 0 -47.5 -18t-26.5 -53h-61q10 58 51 94t95 36q21 0 39 -11.5t28 -24.5t24.5 -24.5t30.5 -11.5q62 0 75 71h60q-11 -59 -51.5 -94.5t-94.5 -35.5zM312 -16q-143 0 -217 73t-53 193t121 193t243 73t217 -73t53 -193t-121 -193
t-243 -73zM336 120q70 0 119 36t59 94t-26 94t-106 36t-118.5 -35.5t-59.5 -94.5q-10 -58 26.5 -94t105.5 -36z" />
    <glyph glyph-name="odieresis" unicode="&#xf6;" horiz-adv-x="718" 
d="M277 538q-44 0 -67.5 23.5t-16.5 61.5t38.5 61.5t75.5 23.5q47 0 69 -23t15 -62t-37 -62t-77 -23zM567 538q-44 0 -67.5 23.5t-16.5 61.5t38.5 61.5t75.5 23.5q47 0 69 -23t15 -62t-37 -62t-77 -23zM312 -16q-143 0 -217 73t-53 193t121 193t243 73t217 -73t53 -193
t-121 -193t-243 -73zM336 120q70 0 119 36t59 94t-26 94t-106 36t-118.5 -35.5t-59.5 -94.5q-10 -58 26.5 -94t105.5 -36z" />
    <glyph glyph-name="divide" unicode="&#xf7;" horiz-adv-x="600" 
d="M319 446q-43 0 -65.5 25.5t-14.5 67.5q7 42 38.5 67t74.5 25q44 0 66.5 -25t15.5 -67q-8 -43 -39 -68t-76 -25zM21 243l26 143h520l-26 -143h-520zM238 -13q-43 0 -65.5 25.5t-14.5 67.5q7 42 38.5 67t74.5 25q44 0 66.5 -25t15.5 -67q-8 -43 -39 -68t-76 -25z" />
    <glyph glyph-name="oslash" unicode="&#xf8;" horiz-adv-x="718" 
d="M780 500l-128 -94q40 -65 24 -156q-21 -120 -121 -193t-243 -73q-107 0 -178 43l-36 -27h-156l125 92q-41 67 -25 158q21 120 121 193t243 73q108 0 180 -44l38 28h156zM204 250q-6 -31 3 -56l239 176q-30 10 -64 10q-70 0 -118.5 -35.5t-59.5 -94.5zM514 250q6 29 -2 54
l-238 -175q27 -9 62 -9q70 0 119 36t59 94z" />
    <glyph glyph-name="ugrave" unicode="&#xf9;" horiz-adv-x="734" 
d="M422 544l-259 164l18 102l255 -186zM721 500l-88 -500h-186l57 206h-8q-39 -114 -107 -168t-181 -54q-55 1 -89 15t-55.5 48t-21.5 91.5t13 144.5l38 217h172l-35 -200q-18 -104 4 -145.5t90 -41.5q69 0 123 62t74 161l28 164h172z" />
    <glyph glyph-name="uacute" unicode="&#xfa;" horiz-adv-x="734" 
d="M392 544l14 80l319 186l-18 -102zM721 500l-88 -500h-186l57 206h-8q-39 -114 -107 -168t-181 -54q-55 1 -89 15t-55.5 48t-21.5 91.5t13 144.5l38 217h172l-35 -200q-18 -104 4 -145.5t90 -41.5q69 0 123 62t74 161l28 164h172z" />
    <glyph glyph-name="ucircumflex" unicode="&#xfb;" horiz-adv-x="734" 
d="M131 555l14 80l319 186l255 -186l-14 -80l-259 164zM721 500l-88 -500h-186l57 206h-8q-39 -114 -107 -168t-181 -54q-55 1 -89 15t-55.5 48t-21.5 91.5t13 144.5l38 217h172l-35 -200q-18 -104 4 -145.5t90 -41.5q69 0 123 62t74 161l28 164h172z" />
    <glyph glyph-name="udieresis" unicode="&#xfc;" horiz-adv-x="734" 
d="M274 538q-44 0 -67.5 23.5t-16.5 61.5t38.5 61.5t75.5 23.5q47 0 69 -23t15 -62t-37 -62t-77 -23zM564 538q-44 0 -67.5 23.5t-16.5 61.5t38.5 61.5t75.5 23.5q47 0 69 -23t15 -62t-37 -62t-77 -23zM721 500l-88 -500h-186l57 206h-8q-39 -114 -107 -168t-181 -54
q-55 1 -89 15t-55.5 48t-21.5 91.5t13 144.5l38 217h172l-35 -200q-18 -104 4 -145.5t90 -41.5q69 0 123 62t74 161l28 164h172z" />
    <glyph glyph-name="yacute" unicode="&#xfd;" horiz-adv-x="789" 
d="M452 544l14 80l319 186l-18 -102zM137 -200l149 206l-199 494h195l120 -324l235 324h189l-500 -700h-189z" />
    <glyph glyph-name="thorn" unicode="&#xfe;" horiz-adv-x="701" 
d="M-34 -200l128 900h176l-74 -363h12q31 89 106 134t167 45q104 0 155.5 -73t33.5 -197q-18 -122 -89.5 -192t-177.5 -70q-89 0 -146.5 45t-63.5 133h-4v-1l-51 -361h-172zM341 122q140 0 158 126q9 67 -25 98.5t-100 31.5q-64 0 -108 -31t-53 -99q-9 -67 27 -96.5
t101 -29.5z" />
    <glyph glyph-name="ydieresis" unicode="&#xff;" horiz-adv-x="789" 
d="M334 538q-44 0 -67.5 23.5t-16.5 61.5t38.5 61.5t75.5 23.5q47 0 69 -23t15 -62t-37 -62t-77 -23zM624 538q-44 0 -67.5 23.5t-16.5 61.5t38.5 61.5t75.5 23.5q47 0 69 -23t15 -62t-37 -62t-77 -23zM137 -200l149 206l-199 494h195l120 -324l235 324h189l-500 -700h-189z
" />
    <glyph glyph-name="Amacron" unicode="&#x100;" horiz-adv-x="1098" 
d="M369 846l10 54h532l-10 -54h-532zM-33 0l547 700h194l299 -700h-202l-52 133h-481l-100 -133h-205zM379 279h317l-109 277z" />
    <glyph glyph-name="amacron" unicode="&#x101;" horiz-adv-x="687" 
d="M181 646l10 54h532l-10 -54h-532zM181 -16q-33 0 -60.5 4.5t-55.5 17.5t-41 41t-6 69q8 46 48 79.5t108 53t138 30t162 16.5q7 40 -19 58.5t-85 18.5q-121 0 -253 -53l25 143q157 54 293 54q249 0 209 -234l-50 -282h-165l53 179h-10q-41 -103 -109 -149t-182 -46z
M296 104q60 4 107.5 33t56.5 83q-38 -3 -60 -4.5t-56 -5.5t-54.5 -9t-42 -12.5t-33 -18t-13.5 -23.5q-4 -24 23 -36t72 -7z" />
    <glyph glyph-name="Abreve" unicode="&#x102;" horiz-adv-x="1098" 
d="M618 751q-93 0 -145.5 41t-41.5 108h105q-6 -40 20 -60.5t74 -20.5q103 0 124 81h103q-13 -69 -76 -109t-163 -40zM-33 0l547 700h194l299 -700h-202l-52 133h-481l-100 -133h-205zM379 279h317l-109 277z" />
    <glyph glyph-name="abreve" unicode="&#x103;" horiz-adv-x="687" 
d="M430 551q-93 0 -145.5 41t-41.5 108h105q-6 -40 20 -60.5t74 -20.5q103 0 124 81h103q-13 -69 -76 -109t-163 -40zM181 -16q-33 0 -60.5 4.5t-55.5 17.5t-41 41t-6 69q8 46 48 79.5t108 53t138 30t162 16.5q7 40 -19 58.5t-85 18.5q-121 0 -253 -53l25 143q157 54 293 54
q249 0 209 -234l-50 -282h-165l53 179h-10q-41 -103 -109 -149t-182 -46zM296 104q60 4 107.5 33t56.5 83q-38 -3 -60 -4.5t-56 -5.5t-54.5 -9t-42 -12.5t-33 -18t-13.5 -23.5q-4 -24 23 -36t72 -7z" />
    <glyph glyph-name="Aogonek" unicode="&#x104;" horiz-adv-x="1098" 
d="M933 0q-67 -59 -22 -98q42 -35 141 -27q26 2 53 8l-20 -97q-119 -35 -219 -1q-83 29 -93 90q-9 57 55 125h-23l-52 133h-481l-100 -133h-205l547 700h194l299 -700h-74zM379 279h317l-109 277z" />
    <glyph glyph-name="aogonek" unicode="&#x105;" horiz-adv-x="687" 
d="M527 0q-67 -59 -22 -98q42 -35 141 -27l53 8l-20 -97q-119 -35 -218 -1q-83 29 -94 89q-11 62 65 136l50 169h-10q-41 -103 -109 -149t-182 -46q-33 0 -60.5 4.5t-55.5 17.5t-41 41t-6 69q8 46 48 79.5t108 53t138 30t162 16.5q7 40 -19 58.5t-85 18.5q-121 0 -253 -53
l25 143q157 54 293 54q249 0 209 -234l-50 -282h-67zM296 104q60 4 107.5 33t56.5 83q-38 -3 -60 -4.5t-56 -5.5t-54.5 -9t-42 -12.5t-33 -18t-13.5 -23.5q-4 -24 23 -36t72 -7z" />
    <glyph glyph-name="Cacute" unicode="&#x106;" horiz-adv-x="928" 
d="M518 744l28 80l352 186l-36 -102zM399 -16q-190 0 -288 100.5t-69 265.5t163 265.5t324 100.5t290 -88t75 -233h-174q9 84 -50 129.5t-167 45.5q-115 0 -193 -57.5t-96 -162.5q-18 -104 39.5 -162t171.5 -58q109 0 184 45.5t95 129.5h174q-25 -145 -157 -233t-322 -88z
" />
    <glyph glyph-name="cacute" unicode="&#x107;" horiz-adv-x="617" 
d="M377 544l28 80l352 186l-36 -102zM293 -16q-135 0 -203.5 73t-47.5 193q21 122 113.5 194t232.5 72q115 0 224 -54l-25 -144q-95 62 -197 62q-160 0 -182 -130q-12 -64 24.5 -97t115.5 -33q109 0 214 60l-24 -142q-72 -30 -123.5 -42t-121.5 -12z" />
    <glyph glyph-name="Cdotaccent" unicode="&#x10a;" horiz-adv-x="928" 
d="M559 738q-44 0 -63 23.5t-6 61.5t49 61.5t80 23.5q47 0 65 -23t4 -62t-48 -62t-81 -23zM399 -16q-190 0 -288 100.5t-69 265.5t163 265.5t324 100.5t290 -88t75 -233h-174q9 84 -50 129.5t-167 45.5q-115 0 -193 -57.5t-96 -162.5q-18 -104 39.5 -162t171.5 -58
q109 0 184 45.5t95 129.5h174q-25 -145 -157 -233t-322 -88z" />
    <glyph glyph-name="cdotaccent" unicode="&#x10b;" horiz-adv-x="617" 
d="M399 538q-44 0 -63 23.5t-6 61.5t49 61.5t80 23.5q47 0 65 -23t4 -62t-48 -62t-81 -23zM293 -16q-135 0 -203.5 73t-47.5 193q21 122 113.5 194t232.5 72q115 0 224 -54l-25 -144q-95 62 -197 62q-160 0 -182 -130q-12 -64 24.5 -97t115.5 -33q109 0 214 60l-24 -142
q-72 -30 -123.5 -42t-121.5 -12z" />
    <glyph glyph-name="Ccaron" unicode="&#x10c;" horiz-adv-x="928" 
d="M536 755l-255 186l14 80l259 -164l315 164l-14 -80zM399 -16q-190 0 -288 100.5t-69 265.5t163 265.5t324 100.5t290 -88t75 -233h-174q9 84 -50 129.5t-167 45.5q-115 0 -193 -57.5t-96 -162.5q-18 -104 39.5 -162t171.5 -58q109 0 184 45.5t95 129.5h174
q-25 -145 -157 -233t-322 -88z" />
    <glyph glyph-name="ccaron" unicode="&#x10d;" horiz-adv-x="617" 
d="M395 555l-255 186l14 80l259 -164l315 164l-14 -80zM293 -16q-135 0 -203.5 73t-47.5 193q21 122 113.5 194t232.5 72q115 0 224 -54l-25 -144q-95 62 -197 62q-160 0 -182 -130q-12 -64 24.5 -97t115.5 -33q109 0 214 60l-24 -142q-72 -30 -123.5 -42t-121.5 -12z" />
    <glyph glyph-name="Dcaron" unicode="&#x10e;" horiz-adv-x="867" 
d="M512 755l-255 186l14 80l259 -164l315 164l-14 -80zM22 0l124 700h333q192 0 284 -90t62 -260q-30 -171 -154 -260.5t-316 -89.5h-333zM220 146h161q116 0 187 52t89 152q18 101 -35.5 152.5t-168.5 51.5h-161z" />
    <glyph glyph-name="dcaron" unicode="&#x10f;" horiz-adv-x="999" 
d="M233 -16q-111 0 -169.5 75t-36.5 195q20 117 105.5 189.5t196.5 72.5q94 0 154.5 -47.5t62.5 -130.5h5v1l63 361h172l-123 -700h-177l51 163h-12q-31 -83 -112.5 -131t-179.5 -48zM787 429l111 270h148l-161 -270h-98zM327 120q67 0 120.5 35t64.5 97q11 61 -30.5 94.5
t-108.5 33.5q-68 0 -119 -33t-62 -95t28.5 -97t106.5 -35z" />
    <glyph glyph-name="Dcroat" unicode="&#x110;" horiz-adv-x="867" 
d="M479 700q192 0 284 -90t62 -260q-30 -171 -154 -260.5t-316 -89.5h-333l49 279h-75l49 143h52l49 278h333zM657 350q18 101 -35.5 152.5t-168.5 51.5h-161l-23 -132h276l-49 -143h-253l-23 -133h161q116 0 187 52t89 152z" />
    <glyph glyph-name="dcroat" unicode="&#x111;" horiz-adv-x="790" 
d="M819 639l-18 -103h-44l-94 -536h-177l51 163h-12q-31 -83 -112.5 -131t-179.5 -48q-111 0 -169.5 75t-36.5 195q20 117 105.5 189.5t196.5 72.5q94 0 154.5 -47.5t62.5 -130.5h5v1l34 197h-242l18 103h242l11 61h172l-11 -61h44zM512 252q11 61 -30.5 94.5t-108.5 33.5
q-68 0 -119 -33t-62 -95t28.5 -97t106.5 -35t120.5 35t64.5 97z" />
    <glyph glyph-name="Emacron" unicode="&#x112;" horiz-adv-x="840" 
d="M246 846l10 54h532l-10 -54h-532zM22 0l124 700h682l-26 -146h-510l-23 -130h501l-23 -137h-502l-25 -141h510l-26 -146h-682z" />
    <glyph glyph-name="emacron" unicode="&#x113;" horiz-adv-x="686" 
d="M147 646l10 54h532l-10 -54h-532zM296 -16q-136 0 -205.5 73t-48.5 193t116.5 193t231.5 73q134 0 206 -62.5t55 -164.5l-15 -82h-434q9 -92 167 -92q29 0 56.5 2.5t45.5 6t41 10.5t33.5 11t33 13t29.5 12l-24 -137q-76 -27 -135 -38t-153 -11zM211 277l273 6
q7 51 -24 74t-94 23q-123 0 -155 -103z" />
    <glyph glyph-name="Edotaccent" unicode="&#x116;" horiz-adv-x="840" 
d="M500 738q-44 0 -63 23.5t-6 61.5t49 61.5t80 23.5q47 0 65 -23t4 -62t-48 -62t-81 -23zM22 0l124 700h682l-26 -146h-510l-23 -130h501l-23 -137h-502l-25 -141h510l-26 -146h-682z" />
    <glyph glyph-name="edotaccent" unicode="&#x117;" horiz-adv-x="686" 
d="M401 538q-44 0 -63 23.5t-6 61.5t49 61.5t80 23.5q47 0 65 -23t4 -62t-48 -62t-81 -23zM296 -16q-136 0 -205.5 73t-48.5 193t116.5 193t231.5 73q134 0 206 -62.5t55 -164.5l-15 -82h-434q9 -92 167 -92q29 0 56.5 2.5t45.5 6t41 10.5t33.5 11t33 13t29.5 12l-24 -137
q-76 -27 -135 -38t-153 -11zM211 277l273 6q7 51 -24 74t-94 23q-123 0 -155 -103z" />
    <glyph glyph-name="Eogonek" unicode="&#x118;" horiz-adv-x="840" 
d="M802 554h-510l-23 -130h501l-23 -137h-502l-25 -141h510l-26 -146h-286q-67 -59 -22 -98q42 -35 141 -27l53 8l-20 -97q-119 -35 -219 -1q-83 29 -93 90q-9 57 55 125h-291l124 700h682z" />
    <glyph glyph-name="eogonek" unicode="&#x119;" horiz-adv-x="686" 
d="M390 516q134 0 206 -62.5t55 -164.5l-15 -82h-434q9 -92 167 -92q29 0 56.5 2.5t45.5 6t41 10.5t33.5 11t33 13t29.5 12l-24 -137q-107 -38 -196 -46q-53 -56 -1.5 -89.5t153.5 -20.5q17 2 34 6l-20 -97q-119 -35 -219 0q-82 28 -93 89q-8 50 41 109q-130 4 -195.5 76.5
t-45.5 189.5q21 120 116.5 193t231.5 73zM484 283q7 51 -24 74t-94 23q-123 0 -155 -103z" />
    <glyph glyph-name="Ecaron" unicode="&#x11a;" horiz-adv-x="840" 
d="M496 755l-255 186l14 80l259 -164l315 164l-14 -80zM22 0l124 700h682l-26 -146h-510l-23 -130h501l-23 -137h-502l-25 -141h510l-26 -146h-682z" />
    <glyph glyph-name="ecaron" unicode="&#x11b;" horiz-adv-x="686" 
d="M397 555l-255 186l14 80l259 -164l315 164l-14 -80zM296 -16q-136 0 -205.5 73t-48.5 193t116.5 193t231.5 73q134 0 206 -62.5t55 -164.5l-15 -82h-434q9 -92 167 -92q29 0 56.5 2.5t45.5 6t41 10.5t33.5 11t33 13t29.5 12l-24 -137q-76 -27 -135 -38t-153 -11zM211 277
l273 6q7 51 -24 74t-94 23q-123 0 -155 -103z" />
    <glyph glyph-name="Gbreve" unicode="&#x11e;" horiz-adv-x="960" 
d="M554 751q-92 0 -137.5 41t-23.5 108h105q-12 -40 10 -60.5t70 -20.5q104 0 138 81h103q-24 -69 -94 -109t-171 -40zM409 -16q-190 0 -288 100.5t-69 265.5t163 265.5t324 100.5q181 0 284 -75t85 -197h-177q8 63 -49.5 94.5t-168.5 31.5q-115 0 -193 -57.5t-96 -162.5
q-18 -104 39.5 -162t171.5 -58q96 0 168 33t99 98h-349l22 123h533l-68 -384h-112l18 140q-56 -78 -144 -117t-193 -39z" />
    <glyph glyph-name="gbreve" unicode="&#x11f;" horiz-adv-x="748" 
d="M473 551q-92 0 -137.5 41t-23.5 108h105q-12 -40 10 -60.5t70 -20.5q104 0 138 81h103q-24 -69 -94 -109t-171 -40zM288 -200q-141 0 -262 36l26 146q29 -19 92.5 -32.5t137.5 -13.5q107 0 156.5 39t71.5 136l8 36q-35 -74 -112 -112.5t-172 -38.5q-112 0 -171 69.5
t-38 188.5q21 117 106 189.5t197 72.5q93 0 154 -47.5t63 -130.5h16l14 162h169l-77 -440q-23 -131 -124 -195.5t-255 -64.5zM326 120q66 0 119.5 35t64.5 97q11 61 -30 94.5t-108 33.5q-68 0 -119 -33t-62 -95q-12 -63 27.5 -97.5t107.5 -34.5z" />
    <glyph glyph-name="Gdotaccent" unicode="&#x120;" horiz-adv-x="960" 
d="M550 738q-44 0 -63 23.5t-6 61.5t49 61.5t80 23.5q47 0 65 -23t4 -62t-48 -62t-81 -23zM409 -16q-190 0 -288 100.5t-69 265.5t163 265.5t324 100.5q181 0 284 -75t85 -197h-177q8 63 -49.5 94.5t-168.5 31.5q-115 0 -193 -57.5t-96 -162.5q-18 -104 39.5 -162t171.5 -58
q96 0 168 33t99 98h-349l22 123h533l-68 -384h-112l18 140q-56 -78 -144 -117t-193 -39z" />
    <glyph glyph-name="gdotaccent" unicode="&#x121;" horiz-adv-x="748" 
d="M469 538q-44 0 -63 23.5t-6 61.5t49 61.5t80 23.5q47 0 65 -23t4 -62t-48 -62t-81 -23zM288 -200q-141 0 -262 36l26 146q29 -19 92.5 -32.5t137.5 -13.5q107 0 156.5 39t71.5 136l8 36q-35 -74 -112 -112.5t-172 -38.5q-112 0 -171 69.5t-38 188.5q21 117 106 189.5
t197 72.5q93 0 154 -47.5t63 -130.5h16l14 162h169l-77 -440q-23 -131 -124 -195.5t-255 -64.5zM326 120q66 0 119.5 35t64.5 97q11 61 -30 94.5t-108 33.5q-68 0 -119 -33t-62 -95q-12 -63 27.5 -97.5t107.5 -34.5z" />
    <glyph glyph-name="Gcommaaccent" unicode="&#x122;" horiz-adv-x="960" 
d="M409 -16q-190 0 -288 100.5t-69 265.5t163 265.5t324 100.5q181 0 284 -75t85 -197h-177q8 63 -49.5 94.5t-168.5 31.5q-115 0 -193 -57.5t-96 -162.5q-18 -104 39.5 -162t171.5 -58q96 0 168 33t99 98h-349l22 123h533l-68 -384h-112l18 140q-56 -78 -144 -117t-193 -39
zM310 -350l111 270h148l-161 -270h-98z" />
    <glyph glyph-name="gcommaaccent" unicode="&#x123;" horiz-adv-x="791" 
d="M288 -200q-141 0 -262 36l26 146q29 -19 92.5 -32.5t137.5 -13.5q107 0 156.5 39t71.5 136l8 36q-35 -74 -112 -112.5t-172 -38.5q-112 0 -171 69.5t-38 188.5q21 117 106 189.5t197 72.5q93 0 154 -47.5t63 -130.5h16l14 162h169l-77 -440q-23 -131 -124 -195.5
t-255 -64.5zM326 120q66 0 119.5 35t64.5 97q11 61 -30 94.5t-108 33.5q-68 0 -119 -33t-62 -95q-12 -63 27.5 -97.5t107.5 -34.5zM222 -532l111 270h148l-161 -270h-98z" />
    <glyph glyph-name="Hbar" unicode="&#x126;" horiz-adv-x="953" 
d="M973 642l-21 -118h-52l-93 -524h-172l51 291h-441l-51 -291h-172l93 524h-59l21 118h59l10 58h172l-10 -58h441l10 58h172l-10 -58h52zM712 437l16 87h-441l-16 -87h441z" />
    <glyph glyph-name="hbar" unicode="&#x127;" horiz-adv-x="727" 
d="M510 516q55 -1 89 -15t55.5 -48t21.5 -91.5t-13 -144.5l-39 -217h-172l36 200q18 104 -4 145.5t-91 41.5q-70 0 -125 -65t-73 -169v1l-27 -154h-173l96 536h-85l18 103h85l11 61h186l-14 -61h190l-18 -103h-195l-55 -242h8q39 114 107 168t181 54z" />
    <glyph glyph-name="Imacron" unicode="&#x12a;" horiz-adv-x="340" 
d="M-8 846l10 54h532l-10 -54h-532zM22 0l124 700h172l-124 -700h-172z" />
    <glyph glyph-name="imacron" unicode="&#x12b;" horiz-adv-x="211" 
d="M-64 644l19 54h532l-19 -54h-532zM-25 0l88 500h172l-88 -500h-172z" />
    <glyph glyph-name="Iogonek" unicode="&#x12e;" horiz-adv-x="340" 
d="M119 0q-67 -59 -22 -98q42 -35 141 -27q26 2 53 8l-20 -97q-119 -35 -218 -1q-83 29 -93 89q-11 62 64 136l122 690h172l-124 -700h-75z" />
    <glyph glyph-name="iogonek" unicode="&#x12f;" horiz-adv-x="296" 
d="M213 747q104 0 88 -92q-17 -91 -120 -91t-86 91q16 92 118 92zM94 0q-77 -59 -39 -97q36 -36 134 -28l57 8l-37 -97q-125 -34 -219 0q-78 28 -77 89q0 61 85 133l87 492h172l-88 -500h-75z" />
    <glyph glyph-name="Idotaccent" unicode="&#x130;" horiz-adv-x="340" 
d="M239 738q-44 0 -67.5 23.5t-16.5 61.5t38.5 61.5t75.5 23.5q47 0 69 -23t15 -62t-37 -62t-77 -23zM22 0l124 700h172l-124 -700h-172z" />
    <glyph glyph-name="dotlessi" unicode="&#x131;" horiz-adv-x="211" 
d="M-25 0l88 500h172l-88 -500h-172z" />
    <glyph glyph-name="Kcommaaccent" unicode="&#x136;" horiz-adv-x="965" 
d="M22 0l124 700h172l-63 -355l451 355h251l-325 -245l229 -455h-232l-158 334l-251 -187l-26 -147h-172zM202 -350l111 270h148l-161 -270h-98z" />
    <glyph glyph-name="kcommaaccent" unicode="&#x137;" horiz-adv-x="726" 
d="M-5 0l125 700h172l-71 -394l247 194h240l-225 -166l150 -334h-213l-87 220l-145 -104l-20 -116h-173zM95 -350l111 270h148l-161 -270h-98z" />
    <glyph glyph-name="Lacute" unicode="&#x139;" horiz-adv-x="755" 
d="M231 744l28 80l352 186l-36 -102zM22 0l124 700h172l-98 -554h465l-26 -146h-637z" />
    <glyph glyph-name="lacute" unicode="&#x13a;" horiz-adv-x="287" 
d="M191 744l14 80l319 186l-18 -102zM-5 0l125 700h172l-124 -700h-173z" />
    <glyph glyph-name="Lcommaaccent" unicode="&#x13b;" horiz-adv-x="755" 
d="M22 0l124 700h172l-98 -554h465l-26 -146h-637zM148 -350l111 270h148l-161 -270h-98z" />
    <glyph glyph-name="lcommaaccent" unicode="&#x13c;" horiz-adv-x="287" 
d="M-5 0l125 700h172l-124 -700h-173zM-110 -350l111 270h148l-161 -270h-98z" />
    <glyph glyph-name="Lcaron" unicode="&#x13d;" horiz-adv-x="755" 
d="M22 0l124 700h172l-98 -554h465l-26 -146h-637zM352 429l111 270h148l-161 -270h-98z" />
    <glyph glyph-name="lcaron" unicode="&#x13e;" horiz-adv-x="486" 
d="M-5 0l125 700h172l-124 -700h-173zM294 429l111 270h148l-161 -270h-98z" />
    <glyph glyph-name="Lslash" unicode="&#x141;" horiz-adv-x="755" 
d="M220 146h465l-26 -146h-637l51 288l-68 -39l-59 103l154 88l46 260h172l-26 -150l119 69l60 -102l-206 -119z" />
    <glyph glyph-name="lslash" unicode="&#x142;" horiz-adv-x="574" 
d="M580 521l-176 -101l-74 -420h-173l55 310l-98 -57l-55 99l179 103l44 245h172l-24 -135l94 54z" />
    <glyph glyph-name="Nacute" unicode="&#x143;" horiz-adv-x="974" 
d="M543 744l28 80l352 186l-36 -102zM22 0l124 700h144l412 -446l79 446h172l-124 -700h-145l-412 445l-78 -445h-172z" />
    <glyph glyph-name="nacute" unicode="&#x144;" horiz-adv-x="734" 
d="M410 544l28 80l352 186l-36 -102zM13 0l88 500h186l-57 -206h8q39 114 107 168t181 54q55 -1 89 -15t55.5 -48t21.5 -91.5t-13 -144.5l-38 -217h-172l35 200q18 104 -4 145.5t-90 41.5q-69 0 -123 -62t-74 -161l-28 -164h-172z" />
    <glyph glyph-name="Ncommaaccent" unicode="&#x145;" horiz-adv-x="974" 
d="M22 0l124 700h144l412 -446l79 446h172l-124 -700h-145l-412 445l-78 -445h-172zM232 -350l111 270h148l-161 -270h-98z" />
    <glyph glyph-name="ncommaaccent" unicode="&#x146;" horiz-adv-x="734" 
d="M13 0l88 500h186l-57 -206h8q39 114 107 168t181 54q55 -1 89 -15t55.5 -48t21.5 -91.5t-13 -144.5l-38 -217h-172l35 200q18 104 -4 145.5t-90 41.5q-69 0 -123 -62t-74 -161l-28 -164h-172zM133 -350l111 270h148l-161 -270h-98z" />
    <glyph glyph-name="Ncaron" unicode="&#x147;" horiz-adv-x="974" 
d="M561 755l-255 186l14 80l259 -164l315 164l-14 -80zM22 0l124 700h144l412 -446l79 446h172l-124 -700h-145l-412 445l-78 -445h-172z" />
    <glyph glyph-name="ncaron" unicode="&#x148;" horiz-adv-x="734" 
d="M428 555l-255 186l14 80l259 -164l315 164l-14 -80zM13 0l88 500h186l-57 -206h8q39 114 107 168t181 54q55 -1 89 -15t55.5 -48t21.5 -91.5t-13 -144.5l-38 -217h-172l35 200q18 104 -4 145.5t-90 41.5q-69 0 -123 -62t-74 -161l-28 -164h-172z" />
    <glyph glyph-name="Eng" unicode="&#x14a;" horiz-adv-x="974" 
d="M781 700h172l-124 -700q-14 -82 -58.5 -124t-136.5 -59t-268 -17l16 89q276 0 312 62q12 22 -10 49l-412 445l-78 -445h-172l124 700h144l412 -446z" />
    <glyph glyph-name="eng" unicode="&#x14b;" horiz-adv-x="734" 
d="M526 516q55 -1 89 -15t55.5 -48t21.5 -91.5t-13 -144.5l-37 -212q-8 -47 -18 -76t-31.5 -54.5t-50.5 -38t-83 -22t-120.5 -12t-169.5 -2.5l15 89q153 0 211.5 14t67.5 65l6 32l35 200q18 104 -4 145.5t-90 41.5q-69 0 -123 -62t-74 -161l-28 -164h-172l88 500h186
l-57 -206h8q39 114 107 168t181 54z" />
    <glyph glyph-name="Omacron" unicode="&#x14c;" horiz-adv-x="969" 
d="M307 846l10 54h532l-10 -54h-532zM419 -16q-203 0 -304.5 100t-72.5 266t166.5 266t340.5 100q204 0 305.5 -100t72.5 -266t-166.5 -266t-341.5 -100zM445 130q127 0 209 57.5t101 162.5q19 106 -43 163t-189 57t-208.5 -57.5t-100.5 -162.5t43 -162.5t188 -57.5z" />
    <glyph glyph-name="omacron" unicode="&#x14d;" horiz-adv-x="718" 
d="M175 646l10 54h532l-10 -54h-532zM312 -16q-143 0 -217 73t-53 193t121 193t243 73t217 -73t53 -193t-121 -193t-243 -73zM336 120q70 0 119 36t59 94t-26 94t-106 36t-118.5 -35.5t-59.5 -94.5q-10 -58 26.5 -94t105.5 -36z" />
    <glyph glyph-name="Ohungarumlaut" unicode="&#x150;" horiz-adv-x="969" 
d="M419 744l14 80l319 186l-18 -102zM669 744l14 80l319 186l-18 -102zM419 -16q-203 0 -304.5 100t-72.5 266t166.5 266t340.5 100q204 0 305.5 -100t72.5 -266t-166.5 -266t-341.5 -100zM445 130q127 0 209 57.5t101 162.5q19 106 -43 163t-189 57t-208.5 -57.5
t-100.5 -162.5t43 -162.5t188 -57.5z" />
    <glyph glyph-name="ohungarumlaut" unicode="&#x151;" horiz-adv-x="718" 
d="M276 544l14 80l319 186l-18 -102zM526 544l14 80l319 186l-18 -102zM312 -16q-143 0 -217 73t-53 193t121 193t243 73t217 -73t53 -193t-121 -193t-243 -73zM336 120q70 0 119 36t59 94t-26 94t-106 36t-118.5 -35.5t-59.5 -94.5q-10 -58 26.5 -94t105.5 -36z" />
    <glyph glyph-name="OE" unicode="&#x152;" horiz-adv-x="1528" 
d="M1490 554h-510l-23 -130h501l-23 -137h-502l-25 -141h510l-26 -146h-682l10 58q-129 -74 -301 -74q-203 0 -304.5 100t-72.5 266t166.5 266t340.5 100q175 0 275 -74l10 58h682zM445 130q127 0 209 57.5t101 162.5q19 106 -43 163t-189 57t-208.5 -57.5t-100.5 -162.5
t43 -162.5t188 -57.5z" />
    <glyph glyph-name="oe" unicode="&#x153;" horiz-adv-x="1161" 
d="M866 516q134 0 206 -62.5t55 -164.5l-15 -82h-434q9 -92 167 -92q29 0 56.5 2.5t45.5 6t41 10.5t33.5 11t33 13t29.5 12l-24 -137q-76 -27 -135 -38t-153 -11q-141 0 -210 78q-100 -78 -250 -78q-143 0 -217 73t-53 193t121 193t243 73q149 0 222 -78q97 78 238 78z
M336 120q70 0 119 36t59 94t-26 94t-106 36t-118.5 -35.5t-59.5 -94.5q-10 -58 26.5 -94t105.5 -36zM960 283q7 51 -24 74t-94 23q-123 0 -155 -103z" />
    <glyph glyph-name="Racute" unicode="&#x154;" horiz-adv-x="941" 
d="M483 744l28 80l352 186l-36 -102zM22 0l124 700h557q106 0 156.5 -51t35.5 -134t-84 -129.5t-172 -46.5h-72q62 -4 104 -24t75 -66t55.5 -99.5t53.5 -149.5h-218q-67 175 -90 215q-34 59 -85 70q-21 5 -48 5h-170l-50 -290h-172zM268 424h351q88 0 100 66q7 37 -11.5 54
t-64.5 17h-351z" />
    <glyph glyph-name="racute" unicode="&#x155;" horiz-adv-x="537" 
d="M326 544l28 80l352 186l-36 -102zM13 0l88 500h186l-57 -206h10q41 122 112.5 172t201.5 50l-26 -146q-149 0 -219.5 -40.5t-92.5 -152.5l-31 -177h-172z" />
    <glyph glyph-name="Rcommaaccent" unicode="&#x156;" horiz-adv-x="941" 
d="M22 0l124 700h557q106 0 156.5 -51t35.5 -134t-84 -129.5t-172 -46.5h-72q62 -4 104 -24t75 -66t55.5 -99.5t53.5 -149.5h-218q-67 175 -90 215q-34 59 -85 70q-21 5 -48 5h-170l-50 -290h-172zM268 424h351q88 0 100 66q7 37 -11.5 54t-64.5 17h-351zM241 -350l111 270
h148l-161 -270h-98z" />
    <glyph glyph-name="rcommaaccent" unicode="&#x157;" horiz-adv-x="537" 
d="M13 0l88 500h186l-57 -206h10q41 122 112.5 172t201.5 50l-26 -146q-149 0 -219.5 -40.5t-92.5 -152.5l-31 -177h-172zM-95 -350l111 270h148l-161 -270h-98z" />
    <glyph glyph-name="Rcaron" unicode="&#x158;" horiz-adv-x="941" 
d="M501 755l-255 186l14 80l259 -164l315 164l-14 -80zM22 0l124 700h557q106 0 156.5 -51t35.5 -134t-84 -129.5t-172 -46.5h-72q62 -4 104 -24t75 -66t55.5 -99.5t53.5 -149.5h-218q-67 175 -90 215q-34 59 -85 70q-21 5 -48 5h-170l-50 -290h-172zM268 424h351
q88 0 100 66q7 37 -11.5 54t-64.5 17h-351z" />
    <glyph glyph-name="rcaron" unicode="&#x159;" horiz-adv-x="537" 
d="M344 555l-255 186l14 80l259 -164l315 164l-14 -80zM13 0l88 500h186l-57 -206h10q41 122 112.5 172t201.5 50l-26 -146q-149 0 -219.5 -40.5t-92.5 -152.5l-31 -177h-172z" />
    <glyph glyph-name="Sacute" unicode="&#x15a;" horiz-adv-x="879" 
d="M492 744l28 80l352 186l-36 -102zM362 -16q-176 3 -269.5 69.5t-72.5 174.5h182q-7 -39 38.5 -68t144.5 -30q238 -4 254 78q5 28 -25.5 43t-83.5 20.5t-117 9t-127.5 14t-113.5 29.5t-76 61t-14 104q20 107 136.5 168.5t288.5 58.5q166 -3 256 -69.5t72 -174.5h-182
q8 40 -32.5 68.5t-136.5 29.5q-214 3 -228 -75q-5 -27 26 -42t84 -20.5t117 -10.5t127 -16t113 -30.5t75.5 -61t13.5 -102.5q-21 -108 -144 -169.5t-306 -58.5z" />
    <glyph glyph-name="sacute" unicode="&#x15b;" horiz-adv-x="668" 
d="M370 544l28 80l352 186l-36 -102zM285 -16q-133 0 -261 39l25 142q105 -43 234 -43q83 0 120 8.5t41 30.5q4 20 -25.5 29t-76 9.5t-99.5 6.5t-97.5 16.5t-70 42t-16.5 81.5q15 84 101 127t223 43q107 0 245 -28l-25 -139q-118 26 -222 26q-151 0 -158 -37q-3 -14 19 -21
t58.5 -9.5t81 -4.5t87.5 -9.5t77.5 -21.5t52.5 -45t10 -75q-30 -168 -324 -168z" />
    <glyph glyph-name="Scedilla" unicode="&#x15e;" horiz-adv-x="879" 
d="M835 472h-182q8 40 -32.5 68.5t-136.5 29.5q-214 3 -228 -75q-5 -27 26 -42t84 -20.5t117 -10.5t127 -16t113 -30.5t75.5 -61t13.5 -102.5q-18 -93 -114.5 -152.5t-244.5 -72.5l-49 -57q139 -8 210 -36t56 -71q-17 -47 -146 -78t-319 -32l19 55q255 1 275 55q9 25 -39 39
q-56 17 -196 19l19 53l47 51q-161 9 -245.5 75t-64.5 168h182q-7 -39 38.5 -68t144.5 -30q238 -4 254 78q5 28 -25.5 43t-83.5 20.5t-117 9t-127.5 14t-113.5 29.5t-76 61t-14 104q20 107 136.5 168.5t288.5 58.5q166 -3 256 -69.5t72 -174.5z" />
    <glyph glyph-name="scedilla" unicode="&#x15f;" horiz-adv-x="668" 
d="M223 338q-3 -14 19 -21t58.5 -9.5t81 -4.5t87.5 -9.5t77.5 -21.5t52.5 -45t10 -75q-25 -144 -250 -165l-49 -57q139 -8 210 -36t56 -71q-17 -47 -146 -78t-319 -32l19 55q255 1 275 55q9 25 -39 39q-56 17 -196 19l19 53l48 52q-112 6 -213 37l25 142q105 -43 234 -43
q83 0 120 8.5t41 30.5q4 20 -25.5 29t-76 9.5t-99.5 6.5t-97.5 16.5t-70 42t-16.5 81.5q15 84 101 127t223 43q107 0 245 -28l-25 -139q-118 26 -222 26q-151 0 -158 -37z" />
    <glyph glyph-name="Scaron" unicode="&#x160;" horiz-adv-x="879" 
d="M510 755l-255 186l14 80l259 -164l315 164l-14 -80zM362 -16q-176 3 -269.5 69.5t-72.5 174.5h182q-7 -39 38.5 -68t144.5 -30q238 -4 254 78q5 28 -25.5 43t-83.5 20.5t-117 9t-127.5 14t-113.5 29.5t-76 61t-14 104q20 107 136.5 168.5t288.5 58.5q166 -3 256 -69.5
t72 -174.5h-182q8 40 -32.5 68.5t-136.5 29.5q-214 3 -228 -75q-5 -27 26 -42t84 -20.5t117 -10.5t127 -16t113 -30.5t75.5 -61t13.5 -102.5q-21 -108 -144 -169.5t-306 -58.5z" />
    <glyph glyph-name="scaron" unicode="&#x161;" horiz-adv-x="668" 
d="M388 555l-255 186l14 80l259 -164l315 164l-14 -80zM285 -16q-133 0 -261 39l25 142q105 -43 234 -43q83 0 120 8.5t41 30.5q4 20 -25.5 29t-76 9.5t-99.5 6.5t-97.5 16.5t-70 42t-16.5 81.5q15 84 101 127t223 43q107 0 245 -28l-25 -139q-118 26 -222 26
q-151 0 -158 -37q-3 -14 19 -21t58.5 -9.5t81 -4.5t87.5 -9.5t77.5 -21.5t52.5 -45t10 -75q-30 -168 -324 -168z" />
    <glyph glyph-name="uni0162" unicode="&#x162;" horiz-adv-x="881" 
d="M464 0h-60l-60 -70q139 -8 210 -36t56 -71q-17 -47 -146 -78t-319 -32l19 55q255 1 275 55q9 25 -39 39q-56 17 -196 19l19 53l71 77l96 543h-325l26 146h823l-26 -146h-326z" />
    <glyph glyph-name="uni0163" unicode="&#x163;" horiz-adv-x="426" 
d="M173 -70q139 -8 210 -36t56 -71q-17 -47 -146 -78t-319 -32l19 55q255 1 275 55q9 25 -39 39q-56 17 -196 19l19 53l61 66q-40 14 -47.5 57.5t8.5 122.5l34 195h-63l22 125h84l22 120l154 20l-25 -140h123l-22 -125h-123l-29 -165q-16 -72 -0.5 -90t104.5 -12l-17 -98
q-56 -16 -113 -19z" />
    <glyph glyph-name="Tcaron" unicode="&#x164;" horiz-adv-x="881" 
d="M513 755l-255 186l14 80l259 -164l315 164l-14 -80zM292 0l98 554h-325l26 146h823l-26 -146h-326l-98 -554h-172z" />
    <glyph glyph-name="tcaron" unicode="&#x165;" horiz-adv-x="633" 
d="M436 429l111 270h148l-161 -270h-98zM191 -10q-94 0 -115.5 39t-1.5 151l34 195h-63l22 125h84l22 120l154 20l-25 -140h123l-22 -125h-123l-29 -165q-16 -72 -0.5 -90t104.5 -12l-17 -98q-70 -20 -147 -20z" />
    <glyph glyph-name="Tbar" unicode="&#x166;" horiz-adv-x="881" 
d="M888 554h-326l-27 -152h168l-24 -143h-169l-46 -259h-172l46 259h-159l24 143h160l27 152h-325l26 146h823z" />
    <glyph glyph-name="tbar" unicode="&#x167;" horiz-adv-x="426" 
d="M280 375l-10 -58h134l-22 -124h-134q-10 -40 -3.5 -60t29 -24.5t81.5 -0.5l-17 -98q-70 -20 -147 -20q-94 0 -115.5 39t-1.5 151l2 13h-53l22 124h53l10 58h-63l22 125h84l22 120l154 20l-25 -140h123l-22 -125h-123z" />
    <glyph glyph-name="Umacron" unicode="&#x16a;" horiz-adv-x="917" 
d="M281 846l10 54h532l-10 -54h-532zM395 -16q-59 0 -106 8t-87 25.5t-65.5 46.5t-42.5 72t-16.5 100.5t11.5 131.5l58 332h172l-64 -362q-36 -203 167 -203q202 0 238 203l64 362h172l-58 -332q-19 -109 -58.5 -185t-98 -119t-127.5 -61.5t-159 -18.5z" />
    <glyph glyph-name="umacron" unicode="&#x16b;" horiz-adv-x="734" 
d="M167 646l10 54h532l-10 -54h-532zM721 500l-88 -500h-186l57 206h-8q-39 -114 -107 -168t-181 -54q-55 1 -89 15t-55.5 48t-21.5 91.5t13 144.5l38 217h172l-35 -200q-18 -104 4 -145.5t90 -41.5q69 0 123 62t74 161l28 164h172z" />
    <glyph glyph-name="Uring" unicode="&#x16e;" horiz-adv-x="917" 
d="M535 738q-105 0 -169 29t-48 74t100 74t189 29q113 0 173 -28.5t44 -74.5t-96 -74.5t-193 -28.5zM553 789q41 0 71 13.5t38 38.5q8 26 -12 39t-61 13q-89 0 -107 -52q-9 -25 11 -38.5t60 -13.5zM395 -16q-59 0 -106 8t-87 25.5t-65.5 46.5t-42.5 72t-16.5 100.5
t11.5 131.5l58 332h172l-64 -362q-36 -203 167 -203q202 0 238 203l64 362h172l-58 -332q-19 -109 -58.5 -185t-98 -119t-127.5 -61.5t-159 -18.5z" />
    <glyph glyph-name="uring" unicode="&#x16f;" horiz-adv-x="734" 
d="M422 538q-105 0 -169 29t-48 74t100 74t189 29q113 0 173 -28.5t44 -74.5t-96 -74.5t-193 -28.5zM440 589q41 0 71 13.5t38 38.5q8 26 -12 39t-61 13q-89 0 -107 -52q-9 -25 11 -38.5t60 -13.5zM721 500l-88 -500h-186l57 206h-8q-39 -114 -107 -168t-181 -54
q-55 1 -89 15t-55.5 48t-21.5 91.5t13 144.5l38 217h172l-35 -200q-18 -104 4 -145.5t90 -41.5q69 0 123 62t74 161l28 164h172z" />
    <glyph glyph-name="Uhungarumlaut" unicode="&#x170;" horiz-adv-x="917" 
d="M393 744l14 80l319 186l-18 -102zM643 744l14 80l319 186l-18 -102zM395 -16q-59 0 -106 8t-87 25.5t-65.5 46.5t-42.5 72t-16.5 100.5t11.5 131.5l58 332h172l-64 -362q-36 -203 167 -203q202 0 238 203l64 362h172l-58 -332q-19 -109 -58.5 -185t-98 -119t-127.5 -61.5
t-159 -18.5z" />
    <glyph glyph-name="uhungarumlaut" unicode="&#x171;" horiz-adv-x="734" 
d="M280 544l14 80l319 186l-18 -102zM530 544l14 80l319 186l-18 -102zM721 500l-88 -500h-186l57 206h-8q-39 -114 -107 -168t-181 -54q-55 1 -89 15t-55.5 48t-21.5 91.5t13 144.5l38 217h172l-35 -200q-18 -104 4 -145.5t90 -41.5q69 0 123 62t74 161l28 164h172z" />
    <glyph glyph-name="Uogonek" unicode="&#x172;" horiz-adv-x="917" 
d="M724 700h172l-58 -332q-35 -199 -134.5 -286t-263.5 -97q-50 -56 1 -89q53 -33 156 -19q15 3 31 6l-20 -97q-119 -35 -218 -1q-83 29 -94 89q-9 52 42 112q-75 5 -127 27t-88 67t-42.5 115.5t8.5 172.5l58 332h172l-64 -362q-36 -203 167 -203q202 0 238 203z" />
    <glyph glyph-name="uogonek" unicode="&#x173;" horiz-adv-x="734" 
d="M545 0q-67 -59 -22 -98q42 -35 141 -27l53 8l-20 -97q-119 -35 -218 -1q-83 29 -93 89q-11 62 64 136l54 196h-8q-39 -114 -107 -168t-181 -54q-55 1 -89 15t-55.5 48t-21.5 91.5t13 144.5l38 217h172l-35 -200q-18 -104 4 -145.5t90 -41.5q69 0 123 62t74 161l28 164
h172l-88 -500h-88z" />
    <glyph glyph-name="Wcircumflex" unicode="&#x174;" horiz-adv-x="1274" 
d="M422 755l14 80l319 186l255 -186l-14 -80l-259 164zM233 0l-135 700h192l84 -466l233 466h184l69 -466l248 466h191l-383 -700h-200l-66 421l-216 -421h-201z" />
    <glyph glyph-name="wcircumflex" unicode="&#x175;" horiz-adv-x="1099" 
d="M311 555l14 80l319 186l255 -186l-14 -80l-259 164zM195 0l-126 500h175l80 -324l187 324h154l81 -328l196 328h176l-302 -500h-204l-62 269l-152 -269h-203z" />
    <glyph glyph-name="Ycircumflex" unicode="&#x176;" horiz-adv-x="1003" 
d="M286 755l14 80l319 186l255 -186l-14 -80l-259 164zM353 0l40 226l-306 474h212l206 -330l323 330h212l-474 -472l-41 -228h-172z" />
    <glyph glyph-name="ycircumflex" unicode="&#x177;" horiz-adv-x="789" 
d="M191 555l14 80l319 186l255 -186l-14 -80l-259 164zM137 -200l149 206l-199 494h195l120 -324l235 324h189l-500 -700h-189z" />
    <glyph glyph-name="Ydieresis" unicode="&#x178;" horiz-adv-x="1003" 
d="M429 738q-44 0 -67.5 23.5t-16.5 61.5t38.5 61.5t75.5 23.5q47 0 69 -23t15 -62t-37 -62t-77 -23zM719 738q-44 0 -67.5 23.5t-16.5 61.5t38.5 61.5t75.5 23.5q47 0 69 -23t15 -62t-37 -62t-77 -23zM353 0l40 226l-306 474h212l206 -330l323 330h212l-474 -472l-41 -228
h-172z" />
    <glyph glyph-name="Zacute" unicode="&#x179;" horiz-adv-x="902" 
d="M489 744l28 80l352 186l-36 -102zM-23 0l20 110l606 444h-520l26 146h806l-19 -107l-604 -447h535l-26 -146h-824z" />
    <glyph glyph-name="zacute" unicode="&#x17a;" horiz-adv-x="719" 
d="M409 544l28 80l352 186l-36 -102zM-14 0l15 86l411 285h-353l23 129h651l-14 -84l-409 -286h348l-23 -130h-649z" />
    <glyph glyph-name="Zdotaccent" unicode="&#x17b;" horiz-adv-x="902" 
d="M511 738q-44 0 -63 23.5t-6 61.5t49 61.5t80 23.5q47 0 65 -23t4 -62t-48 -62t-81 -23zM-23 0l20 110l606 444h-520l26 146h806l-19 -107l-604 -447h535l-26 -146h-824z" />
    <glyph glyph-name="zdotaccent" unicode="&#x17c;" horiz-adv-x="719" 
d="M431 538q-44 0 -63 23.5t-6 61.5t49 61.5t80 23.5q47 0 65 -23t4 -62t-48 -62t-81 -23zM-14 0l15 86l411 285h-353l23 129h651l-14 -84l-409 -286h348l-23 -130h-649z" />
    <glyph glyph-name="Zcaron" unicode="&#x17d;" horiz-adv-x="902" 
d="M507 755l-255 186l14 80l259 -164l315 164l-14 -80zM-23 0l20 110l606 444h-520l26 146h806l-19 -107l-604 -447h535l-26 -146h-824z" />
    <glyph glyph-name="zcaron" unicode="&#x17e;" horiz-adv-x="719" 
d="M427 555l-255 186l14 80l259 -164l315 164l-14 -80zM-14 0l15 86l411 285h-353l23 129h651l-14 -84l-409 -286h348l-23 -130h-649z" />
    <glyph glyph-name="Scommaaccent" unicode="&#x218;" horiz-adv-x="879" 
d="M362 -16q-176 3 -269.5 69.5t-72.5 174.5h182q-7 -39 38.5 -68t144.5 -30q238 -4 254 78q5 28 -25.5 43t-83.5 20.5t-117 9t-127.5 14t-113.5 29.5t-76 61t-14 104q20 107 136.5 168.5t288.5 58.5q166 -3 256 -69.5t72 -174.5h-182q8 40 -32.5 68.5t-136.5 29.5
q-214 3 -228 -75q-5 -27 26 -42t84 -20.5t117 -10.5t127 -16t113 -30.5t75.5 -61t13.5 -102.5q-21 -108 -144 -169.5t-306 -58.5zM203 -350l111 270h148l-161 -270h-98z" />
    <glyph glyph-name="scommaaccent" unicode="&#x219;" horiz-adv-x="668" 
d="M285 -16q-133 0 -261 39l25 142q105 -43 234 -43q83 0 120 8.5t41 30.5q4 20 -25.5 29t-76 9.5t-99.5 6.5t-97.5 16.5t-70 42t-16.5 81.5q15 84 101 127t223 43q107 0 245 -28l-25 -139q-118 26 -222 26q-151 0 -158 -37q-3 -14 19 -21t58.5 -9.5t81 -4.5t87.5 -9.5
t77.5 -21.5t52.5 -45t10 -75q-30 -168 -324 -168zM85 -341l159 270h148l-209 -270h-98z" />
    <glyph glyph-name="uni021A" unicode="&#x21a;" horiz-adv-x="881" 
d="M292 0l98 554h-325l26 146h823l-26 -146h-326l-98 -554h-172zM182 -350l111 270h148l-161 -270h-98z" />
    <glyph glyph-name="uni021B" unicode="&#x21b;" horiz-adv-x="426" 
d="M191 -10q-94 0 -115.5 39t-1.5 151l34 195h-63l22 125h84l22 120l154 20l-25 -140h123l-22 -125h-123l-29 -165q-16 -72 -0.5 -90t104.5 -12l-17 -98q-70 -20 -147 -20zM-41 -341l159 270h148l-209 -270h-98z" />
    <glyph glyph-name="circumflex" unicode="&#x2c6;" horiz-adv-x="674" 
d="M27 555l14 80l319 186l255 -186l-14 -80l-259 164z" />
    <glyph glyph-name="caron" unicode="&#x2c7;" horiz-adv-x="674" 
d="M314 555l-255 186l14 80l259 -164l315 164l-14 -80z" />
    <glyph glyph-name="breve" unicode="&#x2d8;" horiz-adv-x="526" 
d="M250 551q-93 0 -145.5 41t-41.5 108h105q-6 -40 20 -60.5t74 -20.5q103 0 124 81h103q-13 -69 -76 -109t-163 -40z" />
    <glyph glyph-name="dotaccent" unicode="&#x2d9;" horiz-adv-x="298" 
d="M134 538q-44 0 -67.5 23.5t-16.5 61.5t38.5 61.5t75.5 23.5q47 0 69 -23t15 -62t-37 -62t-77 -23z" />
    <glyph glyph-name="ring" unicode="&#x2da;" horiz-adv-x="606" 
d="M285 538q-105 0 -174 29t-61 74t87 74t184 29q113 0 178 -28.5t57 -74.5t-83 -74.5t-188 -28.5zM294 589q41 0 68.5 13.5t31.5 38.5q4 26 -18.5 39t-63.5 13q-40 0 -67 -13.5t-31 -38.5t18 -38.5t62 -13.5z" />
    <glyph glyph-name="ogonek" unicode="&#x2db;" horiz-adv-x="445" 
d="M362 -214q-107 -31 -201.5 -5.5t-109.5 90t87 160.5q54 46 84 23q17 -13 9 -33q-3 -5 -7 -9q-81 -63 -41 -105q36 -37 132 -33q33 2 67 9z" />
    <glyph glyph-name="tilde" unicode="&#x2dc;" horiz-adv-x="481" 
d="M296 572q-31 0 -52.5 18t-37.5 36t-32 18q-28 0 -47.5 -18t-26.5 -53h-61q10 58 51 94t95 36q21 0 39 -11.5t28 -24.5t24.5 -24.5t30.5 -11.5q62 0 75 71h60q-11 -59 -51.5 -94.5t-94.5 -35.5z" />
    <glyph glyph-name="hungarumlaut" unicode="&#x2dd;" horiz-adv-x="637" 
d="M27 544l14 80l319 186l-18 -102zM277 544l14 80l319 186l-18 -102z" />
    <glyph glyph-name="gravecomb" unicode="&#x300;" 
d="M-96 544l-230 164l36 102l222 -186z" />
    <glyph glyph-name="acutecomb" unicode="&#x301;" 
d="M-383 544l28 80l352 186l-36 -102z" />
    <glyph glyph-name="uni0302" unicode="&#x302;" 
d="M-670 555l28 80l352 186l222 -186l-28 -80l-230 164z" />
    <glyph glyph-name="tildecomb" unicode="&#x303;" 
d="M-196 572q-24 0 -41.5 11t-25 25t-18.5 25t-24 11q-62 0 -87 -71h-61q21 58 68 94t101 36q21 0 37 -11.5t23.5 -24.5t20 -24.5t28.5 -11.5q62 0 88 71h60q-22 -59 -68.5 -94.5t-100.5 -35.5z" />
    <glyph glyph-name="uni0304" unicode="&#x304;" 
d="M-592 646l19 54h532l-19 -54h-532z" />
    <glyph glyph-name="uni0306" unicode="&#x306;" 
d="M-289 551q-92 0 -137.5 41t-23.5 108h105q-12 -40 10 -60.5t70 -20.5q104 0 138 81h103q-24 -69 -94 -109t-171 -40z" />
    <glyph glyph-name="uni0307" unicode="&#x307;" 
d="M-150 538q-44 0 -63 23.5t-6 61.5t49 61.5t80 23.5q47 0 65 -23t4 -62t-48 -62t-81 -23z" />
    <glyph glyph-name="uni0308" unicode="&#x308;" 
d="M-469 538q-44 0 -63 23.5t-6 61.5t49 61.5t80 23.5q47 0 65 -23t4 -62t-48 -62t-81 -23zM-179 538q-44 0 -63 23.5t-6 61.5t49 61.5t80 23.5q47 0 65 -23t4 -62t-48 -62t-81 -23z" />
    <glyph glyph-name="uni030A" unicode="&#x30a;" 
d="M-339 538q-105 0 -169 29t-48 74t100 74t189 29q113 0 173 -28.5t44 -74.5t-96 -74.5t-193 -28.5zM-321 589q41 0 71 13.5t38 38.5q8 26 -12 39t-61 13q-89 0 -107 -52q-9 -25 11 -38.5t60 -13.5z" />
    <glyph glyph-name="uni030B" unicode="&#x30b;" 
d="M-633 544l28 80l352 186l-36 -102zM-383 544l28 80l352 186l-36 -102z" />
    <glyph glyph-name="uni030C" unicode="&#x30c;" 
d="M-383 555l-222 186l28 80l230 -164l344 164l-28 -80z" />
    <glyph glyph-name="uni0312" unicode="&#x312;" 
d="M-2 798l-159 -270h-148l209 270h98z" />
    <glyph glyph-name="uni0326" unicode="&#x326;" 
d="M-316 -341l159 270h148l-209 -270h-98z" />
    <glyph glyph-name="uni0327" unicode="&#x327;" 
d="M-533 -287l19 55q255 1 275 55q9 25 -39 39q-56 17 -196 19l19 53l93 101h118l-90 -105q139 -8 210 -36t56 -71q-17 -47 -146 -78t-319 -32z" />
    <glyph glyph-name="uni0328" unicode="&#x328;" 
d="M-106 -214q-47 -13 -94 -16t-84 4.5t-66.5 22.5t-42 39.5t-8.5 53t33 65.5t81 76q63 47 89 23q15 -14 2 -34q-3 -5 -8 -8q-92 -63 -59 -105q28 -37 123 -33q35 1 71 9z" />
    <glyph glyph-name="uni0335" unicode="&#x335;" 
d="M-574 259l49 143h500l-49 -143h-500z" />
    <glyph glyph-name="uni0336" unicode="&#x336;" 
d="M-1074 259l49 143h1000l-49 -143h-1000z" />
    <glyph glyph-name="uni0337" unicode="&#x337;" 
d="M-844 0l682 500h156l-682 -500h-156z" />
    <glyph glyph-name="uni0338" unicode="&#x338;" 
d="M-1100 0l956 700h156l-956 -700h-156z" />
    <glyph glyph-name="uni0401" unicode="&#x401;" horiz-adv-x="840" 
d="M359 738q-44 0 -63 23.5t-6 61.5t49 61.5t80 23.5q47 0 65 -23t4 -62t-48 -62t-81 -23zM649 738q-44 0 -63 23.5t-6 61.5t49 61.5t80 23.5q47 0 65 -23t4 -62t-48 -62t-81 -23zM22 0l124 700h682l-26 -146h-510l-23 -130h501l-23 -137h-502l-25 -141h510l-26 -146h-682z
" />
    <glyph glyph-name="uni0410" unicode="&#x410;" horiz-adv-x="1098" 
d="M-33 0l547 700h194l299 -700h-202l-52 133h-481l-100 -133h-205zM379 279h317l-109 277z" />
    <glyph glyph-name="uni0411" unicode="&#x411;" horiz-adv-x="874" 
d="M818 554h-526l-22 -127h335q105 0 160.5 -55t37.5 -158q-16 -91 -91.5 -152.5t-181.5 -61.5h-507l123 700h697zM555 287h-311l-25 -148h310q89 0 102 75q7 39 -11.5 56t-64.5 17z" />
    <glyph glyph-name="uni0412" unicode="&#x412;" horiz-adv-x="926" 
d="M22 0l124 700h527q106 0 156.5 -51t35.5 -134q-26 -147 -222 -159q101 -2 151.5 -46t35.5 -124q-15 -84 -86 -135t-173 -51h-549zM269 420h320q88 0 99 66q6 36 -13.5 52t-62.5 16h-320zM221 147h341q88 0 101 71q7 37 -13 55t-62 18h-342z" />
    <glyph glyph-name="uni0413" unicode="&#x413;" horiz-adv-x="737" 
d="M22 0l124 700h643l-26 -146h-471l-98 -554h-172z" />
    <glyph glyph-name="uni0414" unicode="&#x414;" horiz-adv-x="927" 
d="M-59 -103l36 205q105 0 126 81l137 517h629l-106 -598h109l-36 -205h-172l18 103h-551l-18 -103h-172zM256 146h342l73 408h-297l-96 -362q-8 -27 -22 -46z" />
    <glyph glyph-name="uni0415" unicode="&#x415;" horiz-adv-x="840" 
d="M22 0l124 700h682l-26 -146h-510l-23 -130h501l-23 -137h-502l-25 -141h510l-26 -146h-682z" />
    <glyph glyph-name="uni0416" unicode="&#x416;" horiz-adv-x="1411" 
d="M-52 0l494 352l-364 348h243l305 -314l55 314h172l-55 -314l416 314h242l-487 -347l370 -353h-249l-305 314l-56 -314h-172l56 314l-416 -314h-249z" />
    <glyph glyph-name="uni0417" unicode="&#x417;" horiz-adv-x="806" 
d="M295 -16q-210 2 -318 44l25 146q44 -20 135 -32t174 -12q258 0 271 67q4 24 -15 40t-78 29t-159.5 21.5t-265.5 16.5l16 91q169 7 276 16.5t161.5 22.5t73.5 26t23 33q5 27 -26 45t-81.5 25.5t-118.5 7.5q-79 0 -174.5 -12.5t-148.5 -32.5l26 146q62 22 157.5 33.5
t175.5 11.5q71 0 123 -3.5t103 -15.5t81 -32.5t45 -56t7 -84.5q-6 -35 -28.5 -63.5t-50 -45.5t-67.5 -29.5t-68.5 -18t-67 -8.5t-50 -3h-28.5l-1 -9q1 0 31 -0.5t48.5 -1.5t54.5 -5t60 -10.5t53 -19t45 -29t25 -42t3 -57.5q-11 -60 -47 -101t-97.5 -62t-133 -29t-169.5 -7z
" />
    <glyph glyph-name="uni0418" unicode="&#x418;" horiz-adv-x="974" 
d="M828 0h-172l79 445l-569 -445h-145l123 700h172l-78 -446l569 446h144z" />
    <glyph glyph-name="uni0419" unicode="&#x419;" horiz-adv-x="974" 
d="M519 751q-93 0 -124.5 40.5t13.5 108.5h105q-25 -41 -10 -61t63 -20q103 0 165 81h103q-48 -69 -131.5 -109t-183.5 -40zM794 0h-172l79 445l-569 -445h-145l123 700h172l-78 -446l569 446h144z" />
    <glyph glyph-name="uni041A" unicode="&#x41a;" horiz-adv-x="879" 
d="M22 0l124 700h172l-56 -315l416 315h243l-487 -347l369 -353h-249l-305 315l-55 -315h-172z" />
    <glyph glyph-name="uni041B" unicode="&#x41b;" horiz-adv-x="888" 
d="M-53 -15l21 80q48 -4 79 17.5t41 63.5l145 554h628l-123 -700h-172l97 554h-296l-103 -399q-24 -88 -109.5 -133t-207.5 -37z" />
    <glyph glyph-name="uni041C" unicode="&#x41c;" horiz-adv-x="1050" 
d="M22 0l124 700h153l207 -454l368 454h154l-124 -700h-172l71 404l-323 -404h-34l-181 403l-71 -403h-172z" />
    <glyph glyph-name="uni041D" unicode="&#x41d;" horiz-adv-x="953" 
d="M22 0l124 700h172l-47 -263h441l47 263h172l-124 -700h-172l51 291h-441l-51 -291h-172z" />
    <glyph glyph-name="uni041E" unicode="&#x41e;" horiz-adv-x="969" 
d="M419 -16q-203 0 -304.5 100t-72.5 266t166.5 266t340.5 100q204 0 305.5 -100t72.5 -266t-166.5 -266t-341.5 -100zM445 130q127 0 209 57.5t101 162.5q19 106 -43 163t-189 57t-208.5 -57.5t-100.5 -162.5t43 -162.5t188 -57.5z" />
    <glyph glyph-name="uni041F" unicode="&#x41f;" horiz-adv-x="825" 
d="M22 0l124 700h657l-124 -700h-172l98 554h-313l-98 -554h-172z" />
    <glyph glyph-name="uni0420" unicode="&#x420;" horiz-adv-x="874" 
d="M22 0l124 700h507q106 0 159.5 -62t37.5 -152q-18 -103 -93 -158t-180 -55h-335l-48 -273h-172zM266 413h311q46 0 70 17t31 56q14 75 -75 75h-310z" />
    <glyph glyph-name="uni0421" unicode="&#x421;" horiz-adv-x="928" 
d="M399 -16q-190 0 -288 100.5t-69 265.5t163 265.5t324 100.5t290 -88t75 -233h-174q9 84 -50 129.5t-167 45.5q-115 0 -193 -57.5t-96 -162.5q-18 -104 39.5 -162t171.5 -58q109 0 184 45.5t95 129.5h174q-25 -145 -157 -233t-322 -88z" />
    <glyph glyph-name="uni0422" unicode="&#x422;" horiz-adv-x="881" 
d="M292 0l98 554h-325l26 146h823l-26 -146h-326l-98 -554h-172z" />
    <glyph glyph-name="uni0423" unicode="&#x423;" horiz-adv-x="789" 
d="M137 -1l149 206l-199 494h195l120 -324l235 324h189l-500 -700h-189z" />
    <glyph glyph-name="uni0424" unicode="&#x424;" horiz-adv-x="718" 
d="M467 617q115 -16 171.5 -86t37.5 -176t-100.5 -176.5t-201.5 -85.5l-16 -93h-122l16 93q-115 15 -172 85t-38 177t100.5 177t202.5 85l15 83h122zM204 355q-8 -44 11.5 -76t61.5 -46l43 244q-46 -14 -77 -46t-39 -76zM514 355q8 44 -11 75.5t-61 45.5l-43 -242
q46 14 77 45.5t38 75.5z" />
    <glyph glyph-name="uni0425" unicode="&#x425;" horiz-adv-x="939" 
d="M-26 0l378 353l-251 347h233l160 -222l239 222h232l-379 -353l248 -347h-229l-161 223l-241 -223h-229z" />
    <glyph glyph-name="uni0426" unicode="&#x426;" horiz-adv-x="823" 
d="M564 -103l18 103h-545l124 700h172l-98 -554h251l98 554h172l-98 -554h122l-44 -249h-172z" />
    <glyph glyph-name="uni0427" unicode="&#x427;" horiz-adv-x="727" 
d="M732 700l-125 -700h-186l92 406h-8q-39 -114 -107 -168t-181 -54q-55 1 -89 15t-55.5 48t-21.5 91.5t13 144.5l39 217h172l-36 -200q-18 -104 4 -145.5t91 -41.5q70 0 125 65t73 169v-1l27 154h173z" />
    <glyph glyph-name="uni0428" unicode="&#x428;" horiz-adv-x="1153" 
d="M28 0l124 700h172l-98 -554h228l99 554h172l-99 -554h229l98 554h172l-124 -700h-973z" />
    <glyph glyph-name="uni0429" unicode="&#x429;" horiz-adv-x="1201" 
d="M942 -103l18 103h-923l124 700h172l-98 -554h228l99 554h172l-99 -554h229l98 554h172l-98 -554h122l-44 -249h-172z" />
    <glyph glyph-name="uni042A" unicode="&#x42a;" horiz-adv-x="874" 
d="M605 427q105 0 160.5 -55t37.5 -158q-16 -91 -91.5 -152.5t-181.5 -61.5h-507l105 598h-62l18 102h234l-48 -273h335zM631 214q7 39 -11.5 56t-64.5 17h-311l-25 -148h310q89 0 102 75z" />
    <glyph glyph-name="uni042B" unicode="&#x42b;" horiz-adv-x="1225" 
d="M146 700h172l-48 -273h335q105 0 160.5 -55t37.5 -158q-16 -91 -91.5 -152.5t-181.5 -61.5h-507zM901 0l124 700h172l-124 -700h-172zM244 287l-25 -148h310q89 0 102 75q7 39 -11.5 56t-64.5 17h-311z" />
    <glyph glyph-name="uni042C" unicode="&#x42c;" horiz-adv-x="874" 
d="M146 700h172l-48 -273h335q105 0 160.5 -55t37.5 -158q-16 -91 -91.5 -152.5t-181.5 -61.5h-507zM244 287l-25 -148h310q89 0 102 75q7 39 -11.5 56t-64.5 17h-311z" />
    <glyph glyph-name="uni042D" unicode="&#x42d;" horiz-adv-x="928" 
d="M528 716q190 0 288 -100.5t69 -265.5q-28 -165 -162 -265.5t-324 -100.5t-290 88t-75 233h174q-10 -84 49 -129.5t168 -45.5q91 0 161 38t104 108h-322l26 146h322q-8 71 -64.5 109.5t-149.5 38.5q-108 0 -183 -45.5t-96 -129.5h-174q25 145 157 233t322 88z" />
    <glyph glyph-name="uni042E" unicode="&#x42e;" horiz-adv-x="1344" 
d="M924 716q204 0 305.5 -100t72.5 -266t-166.5 -266t-341.5 -100q-179 0 -280 78.5t-103 213.5h-162l-49 -276h-172l124 700h172l-49 -278h161q49 136 178.5 215t309.5 79zM1130 350q19 106 -43 163t-189 57t-208.5 -57.5t-100.5 -162.5t43 -162.5t188 -57.5
q127 0 209 57.5t101 162.5z" />
    <glyph glyph-name="uni042F" unicode="&#x42f;" horiz-adv-x="941" 
d="M795 0h-172l52 290h-170q-80 0 -129.5 -46t-175.5 -217q-13 -18 -20 -27h-218q65 96 106.5 149.5t90.5 99.5t98.5 66t112.5 24h-72q-103 0 -156 46.5t-38 129.5q14 82 82.5 133.5t174.5 51.5h557zM699 424l24 137h-351q-90 0 -101 -71q-6 -33 13 -49.5t64 -16.5h351z" />
    <glyph glyph-name="uni0430" unicode="&#x430;" horiz-adv-x="687" 
d="M181 -16q-33 0 -60.5 4.5t-55.5 17.5t-41 41t-6 69q8 46 48 79.5t108 53t138 30t162 16.5q7 40 -19 58.5t-85 18.5q-121 0 -253 -53l25 143q157 54 293 54q249 0 209 -234l-50 -282h-165l53 179h-10q-41 -103 -109 -149t-182 -46zM296 104q60 4 107.5 33t56.5 83
q-38 -3 -60 -4.5t-56 -5.5t-54.5 -9t-42 -12.5t-33 -18t-13.5 -23.5q-4 -24 23 -36t72 -7z" />
    <glyph glyph-name="uni0431" unicode="&#x431;" horiz-adv-x="860" 
d="M387 -12q-190 0 -283.5 94.5t-60.5 279.5q30 170 165.5 261.5t335.5 91.5q24 0 82 -1t80.5 -0.5t58.5 4.5t64 13l-27 -159q-34 -9 -74.5 -10t-105 3t-107.5 4q-125 0 -206 -57.5t-97 -161.5q139 110 305 110q163 0 231 -68.5t44 -179.5q-21 -103 -128.5 -163.5
t-276.5 -60.5zM403 134q202 0 220 99q8 49 -30.5 75t-122.5 26q-63 0 -137 -21t-120 -53q22 -126 190 -126z" />
    <glyph glyph-name="uni0432" unicode="&#x432;" horiz-adv-x="797" 
d="M46 0l88 500h425q119 0 166.5 -32t34.5 -103q-9 -53 -57.5 -79t-145.5 -30q108 -2 152 -30.5t34 -89.5q-13 -71 -72.5 -103.5t-177.5 -32.5h-447zM270 295h168q138 0 147 49q5 29 -25.5 41.5t-103.5 12.5h-169zM237 103h189q138 0 148 59q5 27 -26 40.5t-102 13.5h-190z
" />
    <glyph glyph-name="uni0433" unicode="&#x433;" horiz-adv-x="590" 
d="M46 0l88 500h473l-25 -146h-302l-62 -354h-172z" />
    <glyph glyph-name="uni0434" unicode="&#x434;" horiz-adv-x="817" 
d="M-44 -103l36 205q106 0 125 81l92 352h522l-76 -433h121l-36 -205h-172l18 103h-440l-18 -103h-172zM254 146h231l44 243h-186l-41 -153q-13 -50 -48 -90z" />
    <glyph glyph-name="uni0435" unicode="&#x435;" horiz-adv-x="686" 
d="M296 -16q-136 0 -205.5 73t-48.5 193t116.5 193t231.5 73q134 0 206 -62.5t55 -164.5l-15 -82h-434q9 -92 167 -92q29 0 56.5 2.5t45.5 6t41 10.5t33.5 11t33 13t29.5 12l-24 -137q-76 -27 -135 -38t-153 -11zM211 277l273 6q7 51 -24 74t-94 23q-123 0 -155 -103z" />
    <glyph glyph-name="uni0436" unicode="&#x436;" horiz-adv-x="1231" 
d="M-34 0l441 251l-343 249h234l243 -185l32 185h172l-32 -186l308 186h234l-431 -249l353 -251h-244l-243 185l-33 -185h-172l33 186l-308 -186h-244z" />
    <glyph glyph-name="uni0437" unicode="&#x437;" horiz-adv-x="818" 
d="M319 -15q-210 2 -318 44l26 146q44 -20 135 -32t173 -12q132 0 187.5 8.5t59.5 27.5q1 8 -7 14t-31.5 11t-58.5 9.5t-96 8.5t-133.5 8t-181.5 9l9 50q307 11 405.5 21.5t102.5 33.5q2 10 -8.5 17t-35.5 11.5t-67 6.5t-104 2q-79 0 -174.5 -12.5t-148.5 -32.5l26 146
q62 22 157.5 33.5t175.5 11.5q86 0 151 -5.5t120 -19.5t80.5 -40t18.5 -64q-5 -31 -30.5 -55t-66 -37t-75.5 -21.5t-82.5 -11t-62 -3t-36.5 -0.5l-1 -9h27t40.5 -0.5t48.5 -2t53 -5t51 -9t47 -15t36 -21.5t22.5 -29.5t2.5 -38.5q-25 -146 -437 -143z" />
    <glyph glyph-name="uni0438" unicode="&#x438;" horiz-adv-x="898" 
d="M46 0l88 500h172l-55 -310l457 310h144l-88 -500h-172l55 312l-456 -312h-145z" />
    <glyph glyph-name="uni0439" unicode="&#x439;" horiz-adv-x="898" 
d="M450 551q-92 0 -123 40.5t15 108.5h105q-26 -41 -11.5 -61t62.5 -20q104 0 167 81h103q-49 -69 -133 -109t-185 -40zM28 0l88 500h172l-55 -311l457 311h144l-88 -500h-172l55 312l-456 -312h-145z" />
    <glyph glyph-name="uni043A" unicode="&#x43a;" horiz-adv-x="773" 
d="M40 0l88 500h172l-33 -186l308 186h234l-431 -249l353 -251h-244l-243 185l-32 -185h-172z" />
    <glyph glyph-name="uni043B" unicode="&#x43b;" horiz-adv-x="748" 
d="M-28 -12l11 80q101 0 120 81l92 351h535l-88 -500h-172l62 354h-203l-50 -196q-24 -89 -105 -133.5t-202 -36.5z" />
    <glyph glyph-name="uni043C" unicode="&#x43c;" horiz-adv-x="1012" 
d="M46 0l88 500h166l197 -299l303 299h166l-88 -500h-172l48 270l-281 -270h-22l-185 269l-48 -269h-172z" />
    <glyph glyph-name="uni043D" unicode="&#x43d;" horiz-adv-x="855" 
d="M46 0l88 500h172l-29 -166h331l29 166h172l-88 -500h-172l33 188h-331l-33 -188h-172z" />
    <glyph glyph-name="uni043E" unicode="&#x43e;" horiz-adv-x="718" 
d="M312 -16q-143 0 -217 73t-53 193t121 193t243 73t217 -73t53 -193t-121 -193t-243 -73zM336 120q70 0 119 36t59 94t-26 94t-106 36t-118.5 -35.5t-59.5 -94.5q-10 -58 26.5 -94t105.5 -36z" />
    <glyph glyph-name="uni043F" unicode="&#x43f;" horiz-adv-x="783" 
d="M40 0l88 500h615l-88 -500h-172l61 348h-271l-61 -348h-172z" />
    <glyph glyph-name="uni0440" unicode="&#x440;" horiz-adv-x="780" 
d="M-6 -200l124 700h176l-51 -163h11q31 83 112.5 131t180.5 48q111 0 169.5 -75t36.5 -195q-20 -117 -105 -189.5t-197 -72.5q-93 0 -154 47.5t-64 130.5h-4v-1l-63 -361h-172zM407 120q68 0 119 33.5t62 94.5q11 62 -28.5 97t-106.5 35q-66 0 -119.5 -35t-64.5 -97
q-11 -60 30 -94t108 -34z" />
    <glyph glyph-name="uni0441" unicode="&#x441;" horiz-adv-x="617" 
d="M293 -16q-135 0 -203.5 73t-47.5 193q21 122 113.5 194t232.5 72q115 0 224 -54l-25 -144q-95 62 -197 62q-160 0 -182 -130q-12 -64 24.5 -97t115.5 -33q109 0 214 60l-24 -142q-72 -30 -123.5 -42t-121.5 -12z" />
    <glyph glyph-name="uni0442" unicode="&#x442;" horiz-adv-x="721" 
d="M231 0l62 354h-246l26 146h663l-26 -146h-245l-62 -354h-172z" />
    <glyph glyph-name="uni0443" unicode="&#x443;" horiz-adv-x="789" 
d="M137 -200l149 206l-199 494h195l120 -324l235 324h189l-500 -700h-189z" />
    <glyph glyph-name="uni0444" unicode="&#x444;" horiz-adv-x="718" 
d="M466 512q115 -15 172 -85.5t38 -176.5q-19 -107 -100.5 -177t-202.5 -85l-15 -84h-122l15 84q-115 16 -171.5 86t-37.5 176t100.5 176.5t201.5 85.5l16 92h122zM514 250q8 44 -11.5 76t-61.5 46l-43 -244q47 14 78 45.5t38 76.5zM204 250q-8 -44 11.5 -75.5t60.5 -45.5
l43 242q-46 -14 -76.5 -45.5t-38.5 -75.5z" />
    <glyph glyph-name="uni0445" unicode="&#x445;" horiz-adv-x="814" 
d="M-19 0l309 251l-220 249h219l136 -153l189 153h219l-318 -257l214 -243h-218l-130 147l-182 -147h-218z" />
    <glyph glyph-name="uni0446" unicode="&#x446;" horiz-adv-x="796" 
d="M554 -103l18 103h-517l88 500h172l-62 -354h223l63 354h172l-63 -354h122l-44 -249h-172z" />
    <glyph glyph-name="uni0447" unicode="&#x447;" horiz-adv-x="727" 
d="M440 0l73 325h-5q-38 -114 -106 -168t-181 -54q-74 1 -111.5 26.5t-50.5 92t10 180.5l17 98h172l-14 -81q-18 -104 3.5 -145.5t89.5 -41.5q71 0 126 65t73 169v-2l6 36h172l-88 -500h-186z" />
    <glyph glyph-name="uni0448" unicode="&#x448;" horiz-adv-x="1121" 
d="M46 0l88 500h172l-62 -354h212l62 354h172l-62 -354h212l63 354h172l-88 -500h-941z" />
    <glyph glyph-name="uni0449" unicode="&#x449;" horiz-adv-x="1169" 
d="M927 -103l18 103h-890l88 500h172l-62 -354h212l62 354h172l-62 -354h212l63 354h172l-63 -354h122l-44 -249h-172z" />
    <glyph glyph-name="uni044A" unicode="&#x44a;" horiz-adv-x="840" 
d="M22 0l98 554h-114l26 146h286l-49 -273h296q105 0 160 -55t37 -158q-16 -91 -91.5 -152.5t-181.5 -61.5h-467zM218 140h271q88 0 101 74q7 39 -11 56.5t-64 17.5h-270z" />
    <glyph glyph-name="uni044B" unicode="&#x44b;" horiz-adv-x="1191" 
d="M28 0l124 700h172l-48 -273h296q105 0 160 -55t37 -158q-16 -91 -91.5 -152.5t-181.5 -61.5h-468zM867 0l124 700h172l-124 -700h-172zM225 140h270q88 0 102 74q7 39 -11.5 56.5t-63.5 17.5h-271z" />
    <glyph glyph-name="uni044C" unicode="&#x44c;" horiz-adv-x="840" 
d="M22 0l124 700h172l-49 -273h296q105 0 160 -55t37 -158q-16 -91 -91.5 -152.5t-181.5 -61.5h-467zM218 140h271q88 0 101 74q7 39 -11 56.5t-64 17.5h-270z" />
    <glyph glyph-name="uni044D" unicode="&#x44d;" horiz-adv-x="617" 
d="M323 516q140 0 207 -72t45 -194q-21 -120 -115.5 -193t-229.5 -73q-70 0 -116.5 12t-109.5 42l26 142q84 -60 193 -60q125 0 169 79h-229l18 102h229q-13 79 -137 79q-102 0 -219 -62l26 144q129 54 243 54z" />
    <glyph glyph-name="uni044E" unicode="&#x44e;" horiz-adv-x="995" 
d="M666 516q143 0 217 -73t53 -193t-121 -193t-243 -73q-119 0 -191.5 52t-81.5 141h-75l-31 -177h-172l88 500h172l-31 -177h74q41 89 132 141t210 52zM774 250q10 58 -26 94t-106 36t-118.5 -35.5t-59.5 -94.5q-10 -58 26.5 -94t105.5 -36q70 0 119 36t59 94z" />
    <glyph glyph-name="uni044F" unicode="&#x44f;" horiz-adv-x="811" 
d="M-13 0q110 113 183 153.5t185 45.5h-57q-119 0 -165.5 35.5t-32.5 116.5q13 76 71.5 109t177.5 33h415l-86 -493h-172l29 162h-76q-65 0 -113 -26.5t-159 -135.5h-200zM396 278h160l18 100h-160q-78 0 -109 -8.5t-37 -37.5q-6 -34 22 -44t106 -10z" />
    <glyph glyph-name="uni0451" unicode="&#x451;" horiz-adv-x="686" 
d="M260 538q-44 0 -63 23.5t-6 61.5t49 61.5t80 23.5q47 0 65 -23t4 -62t-48 -62t-81 -23zM550 538q-44 0 -63 23.5t-6 61.5t49 61.5t80 23.5q47 0 65 -23t4 -62t-48 -62t-81 -23zM296 -16q-136 0 -205.5 73t-48.5 193t116.5 193t231.5 73q134 0 206 -62.5t55 -164.5
l-15 -82h-434q9 -92 167 -92q29 0 56.5 2.5t45.5 6t41 10.5t33.5 11t33 13t29.5 12l-24 -137q-76 -27 -135 -38t-153 -11zM211 277l273 6q7 51 -24 74t-94 23q-123 0 -155 -103z" />
    <glyph glyph-name="Wgrave" unicode="&#x1e80;" horiz-adv-x="1274" 
d="M713 744l-259 164l18 102l255 -186zM233 0l-135 700h192l84 -466l233 466h184l69 -466l248 466h191l-383 -700h-200l-66 421l-216 -421h-201z" />
    <glyph glyph-name="wgrave" unicode="&#x1e81;" horiz-adv-x="1099" 
d="M602 544l-259 164l18 102l255 -186zM195 0l-126 500h175l80 -324l187 324h154l81 -328l196 328h176l-302 -500h-204l-62 269l-152 -269h-203z" />
    <glyph glyph-name="Wacute" unicode="&#x1e82;" horiz-adv-x="1274" 
d="M683 744l14 80l319 186l-18 -102zM233 0l-135 700h192l84 -466l233 466h184l69 -466l248 466h191l-383 -700h-200l-66 421l-216 -421h-201z" />
    <glyph glyph-name="wacute" unicode="&#x1e83;" horiz-adv-x="1099" 
d="M572 544l14 80l319 186l-18 -102zM195 0l-126 500h175l80 -324l187 324h154l81 -328l196 328h176l-302 -500h-204l-62 269l-152 -269h-203z" />
    <glyph glyph-name="Wdieresis" unicode="&#x1e84;" horiz-adv-x="1274" 
d="M565 738q-44 0 -67.5 23.5t-16.5 61.5t38.5 61.5t75.5 23.5q47 0 69 -23t15 -62t-37 -62t-77 -23zM855 738q-44 0 -67.5 23.5t-16.5 61.5t38.5 61.5t75.5 23.5q47 0 69 -23t15 -62t-37 -62t-77 -23zM233 0l-135 700h192l84 -466l233 466h184l69 -466l248 466h191
l-383 -700h-200l-66 421l-216 -421h-201z" />
    <glyph glyph-name="wdieresis" unicode="&#x1e85;" horiz-adv-x="1099" 
d="M445 538q-44 0 -67.5 23.5t-16.5 61.5t38.5 61.5t75.5 23.5q47 0 69 -23t15 -62t-37 -62t-77 -23zM735 538q-44 0 -67.5 23.5t-16.5 61.5t38.5 61.5t75.5 23.5q47 0 69 -23t15 -62t-37 -62t-77 -23zM195 0l-126 500h175l80 -324l187 324h154l81 -328l196 328h176
l-302 -500h-204l-62 269l-152 -269h-203z" />
    <glyph glyph-name="Ygrave" unicode="&#x1ef2;" horiz-adv-x="1003" 
d="M577 744l-259 164l18 102l255 -186zM353 0l40 226l-306 474h212l206 -330l323 330h212l-474 -472l-41 -228h-172z" />
    <glyph glyph-name="ygrave" unicode="&#x1ef3;" horiz-adv-x="789" 
d="M482 544l-259 164l18 102l255 -186zM137 -200l149 206l-199 494h195l120 -324l235 324h189l-500 -700h-189z" />
    <glyph glyph-name="endash" unicode="&#x2013;" horiz-adv-x="560" 
d="M18 259l24 143h500l-24 -143h-500z" />
    <glyph glyph-name="emdash" unicode="&#x2014;" horiz-adv-x="1060" 
d="M18 259l24 143h1000l-24 -143h-1000z" />
    <glyph glyph-name="quoteleft" unicode="&#x2018;" horiz-adv-x="293" 
d="M287 700l-111 -270h-148l161 270h98z" />
    <glyph glyph-name="quoteright" unicode="&#x2019;" horiz-adv-x="293" 
d="M6 430l111 270h148l-161 -270h-98z" />
    <glyph glyph-name="quotesinglbase" unicode="&#x201a;" horiz-adv-x="293" 
d="M6 -169l111 270h148l-161 -270h-98z" />
    <glyph glyph-name="quotedblleft" unicode="&#x201c;" horiz-adv-x="515" 
d="M287 700l-111 -270h-148l161 270h98zM509 700l-111 -270h-148l161 270h98z" />
    <glyph glyph-name="quotedblright" unicode="&#x201d;" horiz-adv-x="515" 
d="M6 430l111 270h148l-161 -270h-98zM228 430l111 270h148l-161 -270h-98z" />
    <glyph glyph-name="quotedblbase" unicode="&#x201e;" horiz-adv-x="293" 
d="M117 101h148l-161 -270h-98z" />
    <glyph glyph-name="dagger" unicode="&#x2020;" horiz-adv-x="580" 
d="M126 -170l92 526h-174l25 143h174l39 221h172l-39 -221h174l-25 -143h-174l-92 -526h-172z" />
    <glyph glyph-name="daggerdbl" unicode="&#x2021;" horiz-adv-x="600" 
d="M126 -170l30 170h-174l25 143h174l37 213h-174l25 143h174l39 221h172l-39 -221h174l-25 -143h-174l-37 -213h174l-25 -143h-174l-30 -170h-172z" />
    <glyph glyph-name="bullet" unicode="&#x2022;" horiz-adv-x="608" 
d="M259 67q-113 0 -171.5 66t-37.5 177q19 110 100.5 175t194.5 65q115 0 174.5 -65t39.5 -175q-21 -112 -101 -177.5t-199 -65.5z" />
    <glyph glyph-name="ellipsis" unicode="&#x2026;" horiz-adv-x="905" 
d="M122 -13q-43 0 -67.5 25.5t-18.5 67.5q4 42 34 67t73 25q44 0 68 -25t20 -67q-6 -43 -35 -68t-74 -25zM422 -13q-43 0 -67.5 25.5t-18.5 67.5q4 42 34 67t73 25q44 0 68 -25t20 -67q-6 -43 -35 -68t-74 -25zM722 -13q-43 0 -67.5 25.5t-18.5 67.5q4 42 34 67t73 25
q44 0 68 -25t20 -67q-6 -43 -35 -68t-74 -25z" />
    <glyph glyph-name="perthousand" unicode="&#x2030;" horiz-adv-x="1519" 
d="M278 460q-86 0 -141.5 35t-45.5 90t77.5 90t153.5 35q93 0 145 -34.5t42 -90.5t-74 -90.5t-157 -34.5zM48 0l820 700h133l-819 -700h-134zM288 515q41 0 69.5 19t32.5 51q5 33 -16 52t-61 19t-68 -19t-34 -52q-5 -33 16 -51.5t61 -18.5zM717 -10q-87 0 -142 35t-45 90
t77.5 90t153.5 35q93 0 145 -34.5t42 -90.5t-74 -90.5t-157 -34.5zM1197 -10q-87 0 -142 35t-45 90t77.5 90t153.5 35q93 0 145 -34.5t42 -90.5t-74 -90.5t-157 -34.5zM726 44q41 0 69.5 19t33.5 52t-16 51.5t-61 18.5t-68 -18.5t-34 -51.5t15.5 -52t60.5 -19zM1206 44
q41 0 69.5 19t33.5 52q4 33 -17 51.5t-61 18.5t-68 -18.5t-33 -51.5q-6 -33 15 -52t61 -19z" />
    <glyph glyph-name="guilsinglleft" unicode="&#x2039;" horiz-adv-x="476" 
d="M192 0l-162 250l250 250h210l-258 -250l170 -250h-210z" />
    <glyph glyph-name="guilsinglright" unicode="&#x203a;" horiz-adv-x="476" 
d="M-14 0l258 250l-170 250h210l162 -250l-250 -250h-210z" />
    <glyph glyph-name="fraction" unicode="&#x2044;" horiz-adv-x="1068" 
d="M-39 -100l990 900h156l-990 -900h-156z" />
    <glyph glyph-name="Euro" unicode="&#x20ac;" horiz-adv-x="1017" 
d="M987 395h-174q9 84 -50 129.5t-167 45.5q-154 0 -233 -96h312l-18 -103h-346q0 -3 -1.5 -10t-2.5 -11l-3 -19h345l-18 -103h-313q46 -98 200 -98q109 0 184 45.5t95 129.5h174q-25 -145 -157 -233t-322 -88q-151 0 -246 65.5t-113 178.5h-132l18 103h113l3 19q1 4 2 11
t2 10h-112l18 103h132q59 113 177 177.5t268 64.5q190 0 290 -88t75 -233z" />
    <glyph glyph-name="trademark" unicode="&#x2122;" horiz-adv-x="1308" 
d="M246 222l67 378h-222l18 100h562l-17 -100h-223l-67 -378h-118zM630 222l85 478h104l142 -310l251 310h105l-85 -478h-117l48 276l-220 -276h-23l-124 275l-48 -275h-118z" />
    <glyph glyph-name="oneeighth" unicode="&#x215b;" horiz-adv-x="1704" 
d="M355 -22l818 744h129l-818 -744h-129zM243 161l66 378l-260 -149l20 117l299 132h77l-85 -478h-117zM1342 47q-125 -1 -191.5 35t-54.5 104q17 93 179 110q-56 10 -94.5 38.5t-29.5 82.5q11 63 86 97t193 34q112 0 178.5 -33.5t55.5 -97.5q-9 -54 -58 -82.5t-109 -38.5
q64 -7 106.5 -31.5t33.5 -78.5q-12 -66 -94 -103.5t-201 -35.5zM1394 345q81 0 112.5 14t35.5 40q5 27 -32 40.5t-97 13.5q-59 0 -100.5 -13.5t-46.5 -40.5q-3 -17 3.5 -27.5t37 -18.5t87.5 -8zM1359 143q152 0 161 52q3 18 -6.5 28.5t-42.5 17t-93 6.5q-89 0 -123 -12.5
t-39 -39.5q-9 -52 143 -52z" />
    <glyph glyph-name="threeeighths" unicode="&#x215c;" horiz-adv-x="1711" 
d="M351 -22l818 744h129l-818 -744h-129zM221 150q-142 2 -217 30l17 100q30 -14 92 -22t119 -8q176 0 186 46q3 16 -10.5 27t-54 19.5t-108.5 14.5t-181 12l11 62q115 5 188 11t110 15t50 18t16 23q3 19 -18 31t-55.5 17t-80.5 5q-54 0 -119 -8.5t-102 -22.5l18 100
q90 31 228 31q61 0 103.5 -4.5t80 -18t53 -40.5t8.5 -68q-5 -28 -23 -49.5t-46.5 -33t-53 -19t-56.5 -10t-42 -3t-25 -0.5l-1 -6q1 0 25.5 -0.5t40 -2t43.5 -5t46 -11.5t36.5 -19.5t25.5 -30.5t2 -44q-14 -79 -91 -108t-215 -28zM1349 44q-125 -1 -191.5 35t-54.5 104
q17 93 179 110q-56 10 -94.5 38.5t-29.5 82.5q11 63 86 97t193 34q112 0 178.5 -33.5t55.5 -97.5q-9 -54 -58 -82.5t-109 -38.5q64 -7 106.5 -31.5t33.5 -78.5q-12 -66 -94 -103.5t-201 -35.5zM1401 342q81 0 112.5 14t35.5 40q5 27 -32 40.5t-97 13.5q-59 0 -100.5 -13.5
t-46.5 -40.5q-3 -17 3.5 -27.5t37 -18.5t87.5 -8zM1366 140q152 0 161 52q3 18 -6.5 28.5t-42.5 17t-93 6.5q-89 0 -123 -12.5t-39 -39.5q-9 -52 143 -52z" />
    <glyph glyph-name="fiveeighths" unicode="&#x215d;" horiz-adv-x="1751" 
d="M395 -22l818 744h129l-818 -744h-129zM217 147q-52 0 -117.5 8t-94.5 20l18 107q26 -13 93.5 -24t115.5 -11q168 0 180 68q6 34 -24 49.5t-102 15.5q-81 0 -224 -33l51 289h447l-18 -100h-356l-17 -95q81 27 173 27q44 0 77.5 -6t63.5 -22t42.5 -48.5t4.5 -79.5
q-15 -78 -100 -121.5t-213 -43.5zM1389 44q-125 -1 -191.5 35t-54.5 104q17 93 179 110q-56 10 -94.5 38.5t-29.5 82.5q11 63 86 97t193 34q112 0 178.5 -33.5t55.5 -97.5q-9 -54 -58 -82.5t-109 -38.5q64 -7 106.5 -31.5t33.5 -78.5q-12 -66 -94 -103.5t-201 -35.5z
M1441 342q81 0 112.5 14t35.5 40q5 27 -32 40.5t-97 13.5q-59 0 -100.5 -13.5t-46.5 -40.5q-3 -17 3.5 -27.5t37 -18.5t87.5 -8zM1406 140q152 0 161 52q3 18 -6.5 28.5t-42.5 17t-93 6.5q-89 0 -123 -12.5t-39 -39.5q-9 -52 143 -52z" />
    <glyph glyph-name="seveneighths" unicode="&#x215e;" horiz-adv-x="1618" 
d="M249 -22l818 744h129l-818 -744h-129zM46 158l377 378h-370l18 100h545l-9 -50l-401 -428h-160zM1256 44q-125 -1 -191.5 35t-54.5 104q17 93 179 110q-56 10 -94.5 38.5t-29.5 82.5q11 63 86 97t193 34q112 0 178.5 -33.5t55.5 -97.5q-9 -54 -58 -82.5t-109 -38.5
q64 -7 106.5 -31.5t33.5 -78.5q-12 -66 -94 -103.5t-201 -35.5zM1308 342q81 0 112.5 14t35.5 40q5 27 -32 40.5t-97 13.5q-59 0 -100.5 -13.5t-46.5 -40.5q-3 -17 3.5 -27.5t37 -18.5t87.5 -8zM1273 140q152 0 161 52q3 18 -6.5 28.5t-42.5 17t-93 6.5q-89 0 -123 -12.5
t-39 -39.5q-9 -52 143 -52z" />
    <glyph glyph-name="arrowleft" unicode="&#x2190;" horiz-adv-x="830" 
d="M799 254h-536l149 -175l-177 1l-206 250l206 250h177l-150 -175h537v-151z" />
    <glyph glyph-name="arrowup" unicode="&#x2191;" horiz-adv-x="561" 
d="M205 -58v536l-175 -149l1 177l250 206l250 -206v-177l-175 150v-537h-151z" />
    <glyph glyph-name="arrowright" unicode="&#x2192;" horiz-adv-x="830" 
d="M32 406h536l-149 175l177 -1l206 -250l-206 -250h-177l150 175h-537v151z" />
    <glyph glyph-name="arrowdown" unicode="&#x2193;" horiz-adv-x="561" 
d="M356 699v-536l175 149l-1 -177l-250 -206l-250 206v177l175 -150v537h151z" />
    <glyph glyph-name="partialdiff" unicode="&#x2202;" horiz-adv-x="836" 
d="M328 -12q-169 0 -254.5 60.5t-71.5 163.5q16 111 108 179.5t255 68.5q169 0 254 -127q27 133 -37 217t-193 89l22 116q129 0 224 -49.5t138.5 -139.5t23.5 -204q-33 -186 -156.5 -280t-312.5 -94zM363 130q160 0 227 127q-34 37 -95.5 62.5t-125.5 25.5q-79 0 -130 -29
t-60 -79t42.5 -78.5t141.5 -28.5z" />
    <glyph glyph-name="emptyset" unicode="&#x2205;" horiz-adv-x="702" 
d="M754 498l-99 -79q46 -68 22 -169q-29 -120 -134 -193t-248 -73q-88 0 -149 29l-119 -95l-71 80l107 85q-44 69 -20 167q28 120 133 193t248 73q85 0 147 -28l108 86zM205 250q-8 -32 -2 -55l228 181q-16 4 -40 4q-70 0 -121 -35.5t-65 -94.5zM515 250q7 31 1 58
l-231 -184q17 -4 43 -4q70 0 121.5 36t65.5 94z" />
    <glyph glyph-name="product" unicode="&#x220f;" horiz-adv-x="790" 
d="M32 -170l129 727h-80l26 143h730l-26 -143h-78l-129 -727h-172l129 727h-228l-129 -727h-172z" />
    <glyph glyph-name="summation" unicode="&#x2211;" horiz-adv-x="790" 
d="M-32 0l26 143l333 197l-261 217l26 143h730l-26 -143h-488l261 -217l-333 -197h488l-26 -143h-730z" />
    <glyph glyph-name="minus" unicode="&#x2212;" horiz-adv-x="580" 
d="M18 259l24 143h520l-24 -143h-520z" />
    <glyph glyph-name="radical" unicode="&#x221a;" horiz-adv-x="1109" 
d="M207 0l-175 501h189l131 -372l401 571h388l-26 -143h-274l-392 -557h-242z" />
    <glyph glyph-name="infinity" unicode="&#x221e;" horiz-adv-x="988" 
d="M237 77q-109 0 -166.5 68t-41.5 160q17 95 101 165.5t191 70.5q95 0 142 -44.5t42 -122.5q23 79 87 123t157 44q107 0 166 -71t42 -165q-16 -92 -97.5 -160t-190.5 -68q-97 0 -145 41t-43 116q-23 -75 -85 -116t-159 -41zM272 207q47 6 76.5 32.5t36.5 65.5
q8 43 -15.5 69.5t-73.5 26.5q-45 0 -78.5 -27.5t-41.5 -68.5q-7 -43 19.5 -72t76.5 -26zM681 207q48 -3 84.5 26t44.5 72q7 41 -16.5 68.5t-68.5 27.5q-50 0 -82.5 -26.5t-41.5 -69.5q-6 -39 14.5 -65.5t65.5 -32.5z" />
    <glyph glyph-name="integral" unicode="&#x222b;" horiz-adv-x="697" 
d="M-67 -140l23 58q51 0 96 24.5t59 59.5l242 587q28 67 121 104.5t290 37.5l-23 -58q-51 0 -95.5 -24.5t-58.5 -59.5l-242 -587q-28 -66 -121.5 -104t-290.5 -38z" />
    <glyph glyph-name="approxequal" unicode="&#x2248;" horiz-adv-x="441" 
d="M291 310q-31 0 -52.5 18t-37.5 36t-32 18q-28 0 -47.5 -18t-26.5 -53h-61q10 58 51 94t95 36q21 0 39 -11.5t28 -24.5t24.5 -24.5t30.5 -11.5q62 0 75 71h60q-11 -59 -51.5 -94.5t-94.5 -35.5zM261 140q-31 0 -52.5 18t-37.5 36t-32 18q-28 0 -47.5 -18t-26.5 -53h-61
q10 58 51 94t95 36q21 0 39 -11.5t28 -24.5t24.5 -24.5t30.5 -11.5q62 0 75 71h60q-11 -59 -51.5 -94.5t-94.5 -35.5z" />
    <glyph glyph-name="notequal" unicode="&#x2260;" horiz-adv-x="580" 
d="M-4 20l80 109h-79l24 143h160l80 110h-220l25 143h300l70 95h141l-70 -95h79l-25 -143h-159l-80 -110h219l-24 -143h-300l-80 -109h-141z" />
    <glyph glyph-name="lessequal" unicode="&#x2264;" horiz-adv-x="600" 
d="M287 204l-224 141l274 141h261l-284 -141l234 -141h-261zM25 0l18 103h505l-18 -103h-505z" />
    <glyph glyph-name="greaterequal" unicode="&#x2265;" horiz-adv-x="600" 
d="M56 204l284 141l-234 141h261l224 -141l-274 -141h-261zM2 0l18 103h505l-18 -103h-505z" />
    <glyph glyph-name="lozenge" unicode="&#x25ca;" horiz-adv-x="726" 
d="M192 0l-162 250l250 250h254l162 -250l-250 -250h-254zM336 97l158 153l-104 153l-158 -153z" />
    <glyph glyph-name="A.001" horiz-adv-x="1098" 
d="M-33 0l510 700h267l263 -700h-199l-45 133h-501l-92 -133h-203zM358 275h358l-117 349z" />
    <glyph glyph-name="B.001" horiz-adv-x="926" 
d="M22 0l124 700h527q106 0 156.5 -50.5t36.5 -130.5q-28 -155 -252 -155h-41l-4 -17h64q106 0 158.5 -40.5t38.5 -124.5q-15 -81 -86 -131.5t-173 -50.5h-549zM269 420h316q92 0 103 63q7 38 -13.5 54.5t-66.5 16.5h-316zM221 147h338q91 0 104 73q7 36 -13 53.5t-66 17.5
h-338z" />
    <glyph glyph-name="C.001" horiz-adv-x="851" 
d="M449 -16q-224 0 -330.5 99t-76.5 267t171.5 267t365.5 99q173 -1 285 -54l-28 -156q-116 64 -283 64q-145 0 -232.5 -57t-106.5 -163t49 -163t212 -57q169 0 306 64l-27 -156q-130 -53 -305 -54z" />
    <glyph glyph-name="G.001" horiz-adv-x="908" 
d="M455 -16q-224 0 -330.5 99t-76.5 267t171.5 267t365.5 99q199 -2 310 -54l-27 -156q-53 29 -138.5 46.5t-170.5 17.5q-144 0 -232 -57t-107 -163t49 -163t212 -57q91 0 194 20l22 125h-348l25 137h498l-63 -354q-143 -74 -354 -74z" />
    <glyph glyph-name="J.001" horiz-adv-x="711" 
d="M230 -16q-167 1 -279 54l29 166q136 -74 275 -74q82 0 130.5 48t68.5 161l64 361h172l-64 -361q-32 -186 -131.5 -270.5t-264.5 -84.5z" />
    <glyph glyph-name="K.001" horiz-adv-x="961" 
d="M22 0l124 700h172l-67 -375l416 375h263l-305 -239l233 -461h-236l-155 338q-149 -113 -241 -158l-32 -180h-172z" />
    <glyph glyph-name="R.001" horiz-adv-x="924" 
d="M22 0l124 700h546q106 0 156.5 -51t35.5 -134q-15 -82 -82.5 -125t-171.5 -43h-94l-3 -17q127 0 192 -71.5t123 -258.5h-221q-70 183 -112.5 239.5t-121.5 56.5h-148l-51 -296h-172zM269 431h337q48 0 72 14.5t31 48.5q6 36 -13 51.5t-68 15.5h-337z" />
    <glyph glyph-name="S.001" horiz-adv-x="883" 
d="M365 -15q-107 1 -202.5 24.5t-145.5 49.5l27 159q52 -30 152 -58.5t184 -28.5q132 0 195 20.5t71 63.5q5 30 -27 46.5t-86.5 21.5t-121 8.5t-131.5 12.5t-117 28t-79 61t-16 105q13 75 80 126t156 71.5t195 19.5q226 -2 337 -54l-28 -156q-51 28 -148 46t-177 18
q-231 0 -244 -79q-5 -26 27 -40t86.5 -18.5t120.5 -8.5t131 -14t117 -30t79.5 -62.5t16.5 -104.5q-11 -65 -56.5 -111.5t-113 -70.5t-137 -34.5t-145.5 -10.5z" />
    <glyph glyph-name="i.loclTRK" horiz-adv-x="211" 
d="M161 536q-44 0 -63 23.5t-6 61.5t49 61.5t80 23.5q47 0 65 -23t4 -62t-48 -62t-81 -23zM-25 0l88 500h172l-88 -500h-172z" />
    <glyph glyph-name="c.001" horiz-adv-x="686" 
d="M296 -16q-136 0 -205.5 73t-48.5 193t116.5 193t231.5 73q135 0 206 -65t52 -172h-174q2 46 -27.5 72.5t-80.5 26.5q-58 0 -100 -34.5t-52 -93.5t19 -93.5t87 -34.5q54 0 94 29t53 78h173q-20 -110 -114 -177.5t-230 -67.5z" />
    <glyph glyph-name="e.001" horiz-adv-x="689" 
d="M296 -16q-136 0 -205.5 73t-48.5 193t116.5 193t231.5 73q134 0 205 -63t55 -168l-14 -78h-424q4 -43 34.5 -67.5t82.5 -24.5q51 0 84.5 16.5t42.5 43.5h178q-22 -91 -112.5 -141t-225.5 -50zM220 273l253 6q6 49 -22.5 77.5t-83.5 28.5q-53 0 -92.5 -30t-54.5 -82z" />
    <glyph glyph-name="g.001" horiz-adv-x="789" 
d="M327 -200q-155 -1 -230.5 50.5t-60.5 139.5h172q-6 -32 27.5 -50t105.5 -18q107 0 149 42.5t65 168.5q-35 -65 -106 -101t-159 -36q-120 0 -181 69t-40 189q21 117 106.5 189.5t196.5 72.5q94 0 154.5 -47.5t62.5 -130.5h13l13 162h169l-73 -425q-49 -274 -384 -275z
M370 120q66 0 120 35t65 97q10 61 -31 94.5t-108 33.5q-68 0 -119 -33t-62 -95q-12 -63 27.5 -97.5t107.5 -34.5z" />
    <glyph glyph-name="zero.tf" horiz-adv-x="949" 
d="M409 -16q-202 0 -299.5 99.5t-67.5 266.5q29 166 163 266t334 100q204 0 301 -98.5t67 -267.5q-30 -167 -162.5 -266.5t-335.5 -99.5zM415 11q197 0 317 92.5t148 246.5q28 153 -60 246t-285 93q-191 0 -314.5 -93.5t-151.5 -245.5q-28 -151 63.5 -245t282.5 -94z
M434 123q-126 0 -189 62t-45 165t103 165.5t212 62.5t190 -62.5t45 -165.5q-19 -103 -104.5 -165t-211.5 -62zM450 214q79 0 130 35.5t63 100.5q11 65 -27 101t-117 36t-130 -36t-62 -101q-12 -65 26.5 -100.5t116.5 -35.5z" />
    <glyph glyph-name="one.tf" horiz-adv-x="949" 
d="M409 -16q-202 0 -299.5 99.5t-67.5 266.5q29 166 163 266t334 100q204 0 301 -98.5t67 -267.5q-30 -167 -162.5 -266.5t-335.5 -99.5zM414 11q197 0 317 92.5t148 246.5q28 153 -60 246t-285 93q-191 0 -314.5 -93.5t-151.5 -245.5q-28 -151 63.5 -245t282.5 -94z
M418 133l60 343l-237 -134l18 106l273 120h69l-77 -435h-106z" />
    <glyph glyph-name="two.tf" horiz-adv-x="949" 
d="M409 -16q-202 0 -299.5 99.5t-67.5 266.5q29 165 163.5 265.5t333.5 100.5q204 0 301 -98.5t67 -267.5q-30 -167 -162.5 -266.5t-335.5 -99.5zM414 11q197 0 317 92.5t148 246.5q28 153 -60 246t-285 93q-191 0 -314.5 -93.5t-151.5 -245.5q-28 -151 63.5 -245t282.5 -94
zM207 136l13 70q36 16 105 45.5t112.5 49t92 44t74.5 46t29 40.5q5 31 -25 44t-106 13q-46 0 -117 -8t-91 -16l17 94q66 20 214 22q126 1 179 -26t40 -101q-7 -41 -46.5 -79t-99.5 -65.5t-117 -47t-119 -34.5h324l-17 -91h-462z" />
    <glyph glyph-name="three.tf" horiz-adv-x="949" 
d="M409 -16q-202 0 -299.5 99.5t-67.5 266.5q29 165 163.5 265.5t333.5 100.5q204 0 301 -98.5t67 -267.5q-30 -167 -162.5 -266.5t-335.5 -99.5zM414 11q197 0 317 92.5t148 246.5q28 153 -60 246t-285 93q-191 0 -314.5 -93.5t-151.5 -245.5q-28 -151 63.5 -245t282.5 -94
zM437 123q-130 2 -197 27l15 91q58 -27 192 -27q161 0 168 41q3 15 -9 25t-48.5 18t-99 13.5t-164.5 10.5l10 56q105 5 171 10.5t100 13.5t46 16.5t14 20.5q3 17 -16 28t-51 16t-73 5q-125 0 -201 -28l17 90q81 28 206 28q56 0 94.5 -4t72.5 -16t48 -36.5t8 -62.5
q-5 -30 -29.5 -51.5t-50.5 -31.5t-63 -15t-50 -5.5t-30 -0.5l-1 -6h16.5t26 -0.5t29.5 -2t32.5 -4.5t31 -8t29 -12.5t21.5 -17.5t13 -24.5t0 -32.5q-13 -72 -83 -98.5t-195 -25.5z" />
    <glyph glyph-name="four.tf" horiz-adv-x="949" 
d="M409 -16q-202 0 -299.5 99.5t-67.5 266.5q29 165 163.5 265.5t333.5 100.5q204 0 301 -98.5t67 -267.5q-30 -167 -162.5 -266.5t-335.5 -99.5zM414 11q197 0 317 92.5t148 246.5q28 153 -60 246t-285 93q-191 0 -314.5 -93.5t-151.5 -245.5q-28 -151 63.5 -245t282.5 -94
zM504 133l13 73h-350l12 69l345 293h164l-48 -272h60l-16 -90h-60l-13 -73h-107zM307 296h226l42 236z" />
    <glyph glyph-name="five.tf" horiz-adv-x="949" 
d="M409 -16q-202 0 -299.5 99.5t-67.5 266.5q29 165 163.5 265.5t333.5 100.5q204 0 301 -98.5t67 -267.5q-30 -167 -162.5 -266.5t-335.5 -99.5zM414 11q197 0 317 92.5t148 246.5q28 153 -60 246t-285 93q-191 0 -314.5 -93.5t-151.5 -245.5q-28 -151 63.5 -245t282.5 -94
zM420 119q-47 0 -107 7t-86 19l17 96q23 -11 84 -21t106 -10q152 0 163 62q6 31 -21.5 45t-92.5 14q-76 0 -204 -30l46 263h407l-16 -91h-324l-16 -86q78 24 157 24q40 0 70.5 -5.5t58 -20t39 -44t3.5 -72.5q-13 -71 -90 -110.5t-194 -39.5z" />
    <glyph glyph-name="six.tf" horiz-adv-x="949" 
d="M409 -16q-202 0 -299.5 99.5t-67.5 266.5q29 165 163.5 265.5t333.5 100.5q204 0 301 -98.5t67 -267.5q-30 -167 -162.5 -266.5t-335.5 -99.5zM414 11q197 0 317 92.5t148 246.5q28 153 -60 246t-285 93q-191 0 -314.5 -93.5t-151.5 -245.5q-28 -151 63.5 -245t282.5 -94
zM443 126q-118 0 -176 58t-38 174q19 105 103 162t208 57q103 0 170 -36l-17 -99q-69 44 -171 44q-74 0 -125 -34.5t-61 -93.5l-1 -8q85 69 189 69q101 0 143 -42.5t27 -111.5q-13 -64 -79.5 -101.5t-171.5 -37.5zM453 216q125 0 136 62q5 30 -18.5 46t-76.5 16
q-39 0 -84.5 -12.5t-74.5 -33.5q14 -78 118 -78z" />
    <glyph glyph-name="seven.tf" horiz-adv-x="949" 
d="M409 -16q-202 0 -299.5 99.5t-67.5 266.5q29 165 163.5 265.5t333.5 100.5q204 0 301 -98.5t67 -267.5q-30 -167 -162.5 -266.5t-335.5 -99.5zM414 11q197 0 317 92.5t148 246.5q28 153 -60 246t-285 93q-191 0 -314.5 -93.5t-151.5 -245.5q-28 -151 63.5 -245t282.5 -94
zM272 133l342 344h-336l16 91h496l-9 -46l-364 -389h-145z" />
    <glyph glyph-name="eight.tf" horiz-adv-x="949" 
d="M410 -16q-202 0 -299.5 99.5t-67.5 266.5q29 165 163.5 265.5t333.5 100.5q204 0 301 -98.5t67 -267.5q-30 -167 -162.5 -266.5t-335.5 -99.5zM416 11q197 0 317 92.5t148 246.5q28 153 -60 246t-285 93q-191 0 -314.5 -93.5t-151.5 -245.5q-28 -151 63.5 -245t282.5 -94
zM429 120q-113 -2 -173.5 31t-49.5 95q15 83 162 100q-51 9 -86 34.5t-26 74.5q10 58 78 89t176 31q101 0 161.5 -31t50.5 -89q-16 -87 -151 -109q26 -3 47 -8.5t42.5 -16.5t31.5 -30t5 -45q-10 -60 -84.5 -94t-183.5 -32zM477 390q74 0 102.5 13t32.5 36q4 24 -30 36.5
t-88 12.5t-92 -12.5t-42 -36.5q-3 -16 3 -25.5t33.5 -16.5t80.5 -7zM445 207q137 0 146 47q3 16 -5.5 25.5t-39 16t-84.5 6.5q-80 0 -111.5 -12t-35.5 -36q-9 -47 130 -47z" />
    <glyph glyph-name="nine.tf" horiz-adv-x="949" 
d="M409 -16q-202 0 -299.5 99.5t-67.5 266.5q29 165 163.5 265.5t333.5 100.5q204 0 301 -98.5t67 -267.5q-30 -167 -162.5 -266.5t-335.5 -99.5zM415 11q197 0 317 92.5t148 246.5q28 153 -60 246t-285 93q-191 0 -314.5 -93.5t-151.5 -245.5q-28 -151 63.5 -245t282.5 -94
zM528 576q118 0 175.5 -58.5t37.5 -173.5q-18 -106 -102 -162.5t-209 -56.5q-102 0 -169 36l17 99q69 -44 170 -44q74 0 125 34t62 94l1 8q-85 -69 -189 -69q-101 0 -143 42.5t-28 111.5q14 64 80.5 101.5t171.5 37.5zM518 486q-126 0 -137 -62q-5 -30 19 -46.5t76 -16.5
q39 0 84.5 13t75.5 33q-14 79 -118 79z" />
    <glyph glyph-name="dollar.001" horiz-adv-x="863" 
d="M235 -110l17 101q-152 19 -248 68l28 159q52 -30 152 -58.5t184 -28.5q131 0 194 20.5t71 63.5q5 30 -26.5 46.5t-86 21.5t-121 8.5t-131.5 12.5t-117 28t-79 61t-16 105q16 92 104 144t219 67l22 126h187l-21 -123q167 -9 257 -51l-28 -156q-51 28 -148 46t-177 18
q-231 0 -244 -79q-5 -26 27 -40t86.5 -18.5t120.5 -8.5t131 -14t117 -30t79 -62.5t16 -104.5q-9 -55 -44 -97.5t-87.5 -68t-110 -39.5t-124.5 -19l-16 -98h-187z" />
    <glyph glyph-name="Euro.001" horiz-adv-x="927" 
d="M537 -16q-179 0 -284 64.5t-125 179.5h-120l19 103h100l3 19q1 4 2.5 11t1.5 10h-100l18 103h121q60 114 188 178t306 64q173 -1 285 -54l-27 -156q-119 64 -284 64q-188 0 -278 -96h399l-18 -103h-437l-5 -21l-3 -19h438l-19 -103h-400q54 -98 245 -98q170 0 307 64
l-28 -156q-130 -53 -305 -54z" />
    <glyph glyph-name="brevecombcy" 
d="M-286 551q-93 0 -131 41t-3 108h105q-19 -41 -1 -61t66 -20q103 0 153 81h103q-37 -69 -114.5 -109t-177.5 -40z" />
    </font>
</defs>
</svg>
