<?xml version="1.0" standalone="no"?>
<!DOCTYPE svg PUBLIC "-//W3C//DTD SVG 1.1//EN" "http://www.w3.org/Graphics/SVG/1.1/DTD/svg11.dtd" >
<svg xmlns="http://www.w3.org/2000/svg" xmlns:xlink="http://www.w3.org/1999/xlink" version="1.1">
<metadata>
Created by FontForge 20190801 at Tue Sep 12 15:49:39 2017
 By www-data
Copyright (c) 2017 by Good Type Foundry Kenneth Knutsen. All rights reserved.
</metadata>
<defs>
<font id="GoodTypeFoundryAdieuBlack" horiz-adv-x="0" >
  <font-face 
    font-family="GoodTypeFoundryAdieuBlack"
    font-weight="900"
    font-stretch="normal"
    units-per-em="1000"
    panose-1="0 0 10 0 0 0 0 0 0 0"
    ascent="800"
    descent="-200"
    x-height="500"
    cap-height="700"
    bbox="-1053 -532 1711 1021"
    underline-thickness="50"
    underline-position="-100"
    unicode-range="U+0020-25CA"
  />
<missing-glyph horiz-adv-x="843" 
d="M422 -11q-151 0 -256.5 107t-105.5 255q0 147 106.5 254t255.5 107q147 0 254 -106t107 -255q0 -150 -107 -256t-254 -106zM422 63q119 0 203 84t84 204t-84 203.5t-203 83.5q-120 0 -204 -83.5t-84 -203.5t84 -204t204 -84zM329 394q-28 0 -47 18.5t-19 45.5
q0 26 19 44.5t47 18.5q26 0 45 -18.5t19 -44.5q0 -27 -19 -45.5t-45 -18.5zM521 394q-27 0 -45 18.5t-18 45.5q0 26 18 44.5t45 18.5t46 -18.5t19 -44.5q0 -27 -19 -45.5t-46 -18.5zM422 151q-94 0 -156 51.5t-62 136.5l64 9q4 -46 40 -80t114 -34q77 0 114.5 34.5
t39.5 79.5l63 -9q0 -85 -63 -136.5t-154 -51.5z" />
    <glyph glyph-name=".notdef" horiz-adv-x="843" 
d="M422 -11q-151 0 -256.5 107t-105.5 255q0 147 106.5 254t255.5 107q147 0 254 -106t107 -255q0 -150 -107 -256t-254 -106zM422 63q119 0 203 84t84 204t-84 203.5t-203 83.5q-120 0 -204 -83.5t-84 -203.5t84 -204t204 -84zM329 394q-28 0 -47 18.5t-19 45.5
q0 26 19 44.5t47 18.5q26 0 45 -18.5t19 -44.5q0 -27 -19 -45.5t-45 -18.5zM521 394q-27 0 -45 18.5t-18 45.5q0 26 18 44.5t45 18.5t46 -18.5t19 -44.5q0 -27 -19 -45.5t-46 -18.5zM422 151q-94 0 -156 51.5t-62 136.5l64 9q4 -46 40 -80t114 -34q77 0 114.5 34.5
t39.5 79.5l63 -9q0 -85 -63 -136.5t-154 -51.5z" />
    <glyph glyph-name=".null" 
 />
    <glyph glyph-name="nonmarkingreturn" horiz-adv-x="333" 
 />
    <glyph glyph-name="space" unicode=" " horiz-adv-x="300" 
 />
    <glyph glyph-name="exclam" unicode="!" horiz-adv-x="325" 
d="M72 294l-10 406h202l-10 -406h-182zM152 -10q-52 0 -82 28t-30 79t30 79t82 28t82.5 -28t30.5 -79t-29.5 -79t-83.5 -28z" />
    <glyph glyph-name="quotedbl" unicode="&#x22;" horiz-adv-x="425" 
d="M47 430l-17 270h170l-33 -270h-120zM242 430l-17 270h170l-33 -270h-120z" />
    <glyph glyph-name="numbersign" unicode="#" horiz-adv-x="1009" 
d="M959 373h-154l-13 -63h157l-20 -127h-165l-39 -183h-171l39 183h-227l-39 -183h-171l39 183h-165l20 127h173l13 63h-176l20 127h184l43 200h171l-43 -200h227l43 200h171l-43 -200h146zM621 310l13 63h-227l-13 -63h227z" />
    <glyph glyph-name="dollar" unicode="$" horiz-adv-x="863" 
d="M846 222q0 -96 -87.5 -158.5t-236.5 -76.5v-97h-202v104q-131 21 -206 84t-74 153h216q-1 -15 12.5 -30.5t55 -29.5t106.5 -15q213 -4 213 60q0 23 -43.5 33.5t-108.5 12t-141.5 11t-141.5 26.5t-108.5 62.5t-43.5 116.5q0 89 71 149.5t193 80.5v127h202v-125
q135 -17 216 -81.5t82 -159.5h-216q0 11 -6 22.5t-21.5 23.5t-49 20t-80.5 9q-88 2 -138 -10.5t-50 -49.5q0 -22 32.5 -34t84 -17t114.5 -9.5t125.5 -15.5t114 -30.5t84 -59t32.5 -96.5z" />
    <glyph glyph-name="percent" unicode="%" horiz-adv-x="1039" 
d="M259 460q-86 0 -147.5 35t-61.5 90t61.5 90t147.5 35q93 0 151 -34.5t58 -90.5t-58 -90.5t-151 -34.5zM110 0l688 700h141l-688 -700h-141zM259 522q33 0 54 16t21 45q0 32 -20 48.5t-55 16.5q-33 0 -53.5 -16.5t-20.5 -46.5t20.5 -46.5t53.5 -16.5zM780 -10
q-86 0 -147.5 35t-61.5 90t61.5 90t147.5 35q93 0 151 -34.5t58 -90.5t-58 -90.5t-151 -34.5zM780 52q33 0 54 16t21 45q0 32 -20 48.5t-55 16.5q-33 0 -53.5 -16.5t-20.5 -46.5t20.5 -46.5t53.5 -16.5z" />
    <glyph glyph-name="ampersand" unicode="&#x26;" horiz-adv-x="980" 
d="M365 -12q-52 0 -102 8t-103.5 28t-86.5 61.5t-33 100.5q0 89 66 147.5t160 60.5l-163 156v150h625v-200h-277l194 -185q65 64 105 127l142 -150q-37 -69 -92 -125l175 -167h-298l-49 47q-127 -59 -263 -59zM372 180q47 0 98 19l-158 151q-56 -1 -91 -22t-35 -51
q0 -49 49.5 -73t136.5 -24z" />
    <glyph glyph-name="quotesingle" unicode="'" horiz-adv-x="230" 
d="M47 430l-17 270h170l-33 -270h-120z" />
    <glyph glyph-name="parenleft" unicode="(" horiz-adv-x="470" 
d="M420 -137q-173 1 -271.5 133.5t-98.5 353.5t98.5 353.5t271.5 133.5v-176q-98 -1 -158 -86.5t-60 -224.5t60 -224.5t158 -86.5v-176z" />
    <glyph glyph-name="parenright" unicode=")" horiz-adv-x="470" 
d="M50 -137v176q110 1 164 74.5t54 236.5t-54 236.5t-164 74.5v176q173 -1 271.5 -133.5t98.5 -353.5t-98.5 -353.5t-271.5 -133.5z" />
    <glyph glyph-name="asterisk" unicode="*" horiz-adv-x="615" 
d="M248 194l33 195l-128 -158l-83 75l174 117l-214 -30v108l214 -30l-174 117l83 76l128 -159l-33 195h118l-32 -195l128 159l83 -76l-175 -117l215 30v-108l-215 30l175 -117l-83 -75l-128 158l32 -195h-118z" />
    <glyph glyph-name="plus" unicode="+" horiz-adv-x="580" 
d="M204 71v173h-174v173h173v174h173v-174h174v-173h-173v-173h-173z" />
    <glyph glyph-name="comma" unicode="," horiz-adv-x="293" 
d="M30 -169l63 270h170l-113 -270h-120z" />
    <glyph glyph-name="hyphen" unicode="-" horiz-adv-x="460" 
d="M30 244v173h400v-173h-400z" />
    <glyph glyph-name="period" unicode="." horiz-adv-x="285" 
d="M142 -10q-52 0 -82 28t-30 79t30 79t82 28t82.5 -28t30.5 -79t-29.5 -79t-83.5 -28z" />
    <glyph glyph-name="slash" unicode="/" horiz-adv-x="1063" 
d="M30 0l832 700h171l-832 -700h-171z" />
    <glyph glyph-name="zero" unicode="0" horiz-adv-x="965" 
d="M482 -16q-203 0 -322.5 100t-119.5 266t119.5 266t322.5 100q204 0 323.5 -100t119.5 -266t-119.5 -266t-323.5 -100zM482 156q116 0 178.5 49.5t62.5 144.5t-62.5 144.5t-178.5 49.5q-115 0 -177.5 -49.5t-62.5 -144.5t62.5 -144.5t177.5 -49.5z" />
    <glyph glyph-name="one" unicode="1" horiz-adv-x="643" 
d="M361 0v539l-351 -218v201l411 178h142v-700h-202z" />
    <glyph glyph-name="two" unicode="2" horiz-adv-x="842" 
d="M30 0v139q58 27 154.5 69t160.5 70.5t130.5 63t100 65t33.5 57.5q0 42 -47 58.5t-153 16.5q-75 0 -186.5 -13.5t-142.5 -25.5v180q43 14 153.5 24.5t203.5 10.5q197 0 286 -44.5t89 -164.5q0 -57 -38 -107.5t-94 -84.5t-136 -63.5t-147 -46.5t-144 -32h529v-172h-752z
" />
    <glyph glyph-name="three" unicode="3" horiz-adv-x="798" 
d="M356 -16q-211 2 -326 44v172q48 -20 140.5 -32t175.5 -12q229 0 229 52q0 25 -40 40.5t-149.5 27.5t-317.5 22v101q134 6 226.5 13.5t143.5 14.5t77.5 17t33 18t6.5 20q0 33 -65.5 48t-144.5 15t-172.5 -12.5t-142.5 -32.5v172q59 22 152 33.5t173 11.5q71 0 123.5 -3.5
t106 -15.5t87.5 -32.5t55 -56t21 -84.5q0 -31 -12.5 -56.5t-35.5 -42.5t-47.5 -30t-58.5 -20t-57 -11.5t-55 -5.5t-40.5 -1.5t-23.5 -0.5v-9q2 0 31.5 -0.5t48.5 -1.5t56 -5t62 -10t56 -18t50 -28.5t32.5 -41.5t13.5 -56q0 -50 -20 -86.5t-54.5 -59t-88.5 -36t-113 -18
t-136 -3.5z" />
    <glyph glyph-name="four" unicode="4" horiz-adv-x="858" 
d="M552 0v109h-542v134l442 457h302v-419h89v-172h-89v-109h-202zM237 281h315v352z" />
    <glyph glyph-name="five" unicode="5" horiz-adv-x="802" 
d="M347 -16q-75 0 -173.5 11.5t-143.5 29.5v183q40 -18 140.5 -34t173.5 -16q106 0 161 15t55 53q0 43 -43 63t-144 20q-40 0 -87.5 -4t-79 -8.5t-77 -11.5t-60.5 -9v424h655v-172h-500v-109q104 35 223 35q50 0 91.5 -5t84.5 -20t72.5 -39.5t48 -66t18.5 -97.5
q0 -114 -113.5 -178t-301.5 -64z" />
    <glyph glyph-name="six" unicode="6" horiz-adv-x="856" 
d="M450 -12q-190 0 -300 94t-110 280q0 170 119.5 261.5t319.5 91.5q165 0 283 -58v-185q-126 70 -279 70q-113 0 -177 -46.5t-64 -133.5v-5q105 103 255 103q159 0 239 -65t80 -173q0 -107 -96.5 -170.5t-269.5 -63.5zM441 160q76 0 124 19.5t48 57.5q0 37 -36.5 57.5
t-104.5 20.5q-111 0 -212 -45q21 -50 67 -80t114 -30z" />
    <glyph glyph-name="seven" unicode="7" horiz-adv-x="830" 
d="M61 0l442 528h-493v172h810v-89l-477 -611h-282z" />
    <glyph glyph-name="eight" unicode="8" horiz-adv-x="866" 
d="M433 -20q-186 -2 -294.5 51.5t-108.5 151.5q0 137 238 161q-39 6 -73 17.5t-69 31.5t-55.5 53t-20.5 75q0 92 103 142t280 50q107 0 191.5 -20.5t138 -64.5t53.5 -107q0 -42 -20.5 -75t-55.5 -53t-69 -31.5t-73 -17.5q238 -24 238 -161q0 -96 -112.5 -150.5t-290.5 -52.5
zM433 428q50 0 85.5 4.5t53.5 10t28 15.5t11.5 16.5t1.5 16.5q0 60 -180 60t-180 -60q0 -12 0.5 -17t9.5 -16t26.5 -16t54 -9.5t89.5 -4.5zM432 142q201 0 201 58q0 20 -10.5 32t-56.5 20.5t-133 8.5t-133 -8.5t-56.5 -20.5t-10.5 -32q0 -58 199 -58z" />
    <glyph glyph-name="nine" unicode="9" horiz-adv-x="856" 
d="M406 714q190 0 300 -94t110 -280q0 -170 -119.5 -261.5t-319.5 -91.5q-165 0 -283 58v185q126 -70 279 -70q113 0 177 46.5t64 133.5v5q-105 -103 -255 -103q-159 0 -239 65t-80 173q0 107 96.5 170.5t269.5 63.5zM415 542q-76 0 -124 -19.5t-48 -57.5q0 -37 36.5 -57.5
t104.5 -20.5q111 0 212 45q-21 50 -67 80t-114 30z" />
    <glyph glyph-name="colon" unicode=":" horiz-adv-x="305" 
d="M142 296q-52 0 -82 28t-30 79t30 79t82 28t82.5 -28t30.5 -79t-29.5 -79t-83.5 -28zM142 -10q-52 0 -82 28t-30 79t30 79t82 28t82.5 -28t30.5 -79t-29.5 -79t-83.5 -28z" />
    <glyph glyph-name="semicolon" unicode=";" horiz-adv-x="293" 
d="M164 296q-52 0 -82 28t-30 79t30 79t82 28t82.5 -28t30.5 -79t-29.5 -79t-83.5 -28zM30 -169l63 270h170l-113 -270h-120z" />
    <glyph glyph-name="less" unicode="&#x3c;" horiz-adv-x="506" 
d="M236 0l-206 250l206 250h240l-214 -250l214 -250h-240z" />
    <glyph glyph-name="equal" unicode="=" horiz-adv-x="580" 
d="M30 367v173h520v-173h-520zM30 114v173h520v-173h-520z" />
    <glyph glyph-name="greater" unicode="&#x3e;" horiz-adv-x="506" 
d="M30 0l214 250l-214 250h240l206 -250l-206 -250h-240z" />
    <glyph glyph-name="question" unicode="?" horiz-adv-x="728" 
d="M189 232q-1 9 -1 26q0 53 20 87t49.5 47t64 20.5t64 9.5t49.5 12t20 30q0 42 -47 58.5t-153 16.5q-102 0 -245 -21v179q134 18 280 18q193 0 280.5 -45t87.5 -164q0 -65 -23 -108t-57 -61t-74 -30t-74 -17t-57 -19t-23 -39h-161zM269 -10q-52 0 -82 28t-30 79t30 79
t82 28t82.5 -28t30.5 -79t-29.5 -79t-83.5 -28z" />
    <glyph glyph-name="at" unicode="@" horiz-adv-x="1073" 
d="M536 725q220 0 353.5 -107.5t133.5 -265.5q0 -77 -40.5 -138t-123.5 -92h-226l15 147h-9q-20 -88 -60.5 -124t-131.5 -36q-153 0 -153 108q0 67 80.5 101.5t250.5 45.5q0 17 -21 28t-55 11q-103 0 -203 -42v141q119 45 236 45q209 0 209 -193v-203q55 40 76.5 86
t21.5 115q0 115 -94 184.5t-259 69.5q-169 0 -260.5 -72.5t-91.5 -211.5t91.5 -211.5t260.5 -72.5q99 0 171 25v-124q-80 -20 -171 -20q-224 0 -355 110t-131 293t131 293t355 110zM524 221q40 0 71 20t30 59q-160 -10 -160 -50q0 -14 17 -21.5t42 -7.5z" />
    <glyph glyph-name="A" unicode="A" horiz-adv-x="1105" 
d="M25 0l419 700h217l419 -700h-239l-66 118h-445l-66 -118h-239zM426 290h253l-126 228z" />
    <glyph glyph-name="B" unicode="B" horiz-adv-x="926" 
d="M80 0v700h535q106 0 165.5 -51t59.5 -134q0 -147 -194 -159q101 -2 159 -46t58 -124q0 -84 -62 -135t-164 -51h-557zM283 435h297q58 0 58 46q0 47 -58 47h-298zM284 173h318q58 0 58 49q0 27 -16 40.5t-42 13.5h-319z" />
    <glyph glyph-name="C" unicode="C" horiz-adv-x="924" 
d="M462 -16q-190 0 -306 100.5t-116 265.5t116 265.5t306 100.5t306 -88t116 -233h-204q-7 74 -65 111.5t-153 37.5q-101 0 -160.5 -50t-59.5 -144t59.5 -144t160.5 -50q95 0 153.5 37.5t64.5 111.5h204q0 -145 -116 -233t-306 -88z" />
    <glyph glyph-name="D" unicode="D" horiz-adv-x="865" 
d="M80 0v700h337q192 0 300 -90t108 -260q0 -171 -108 -260.5t-300 -89.5h-337zM282 172h135q105 0 155.5 43.5t50.5 134.5q0 93 -51 135.5t-155 42.5h-135v-356z" />
    <glyph glyph-name="E" unicode="E" horiz-adv-x="855" 
d="M80 0v700h705v-172h-503v-91h494v-163h-494v-102h503v-172h-705z" />
    <glyph glyph-name="F" unicode="F" horiz-adv-x="765" 
d="M80 0v700h645v-172h-443v-91h434v-163h-434v-274h-202z" />
    <glyph glyph-name="G" unicode="G" horiz-adv-x="954" 
d="M472 -16q-190 0 -306 100.5t-116 265.5t116 265.5t306 100.5q182 0 301.5 -75.5t119.5 -196.5h-211q0 100 -210 100q-101 0 -160.5 -50t-59.5 -144t59.5 -144t160.5 -50q175 0 212 97h-317v140h537v-393h-116l-15 149q-37 -83 -115.5 -124t-185.5 -41z" />
    <glyph glyph-name="H" unicode="H" horiz-adv-x="975" 
d="M80 0v700h202v-248h411v248h202v-700h-202v279h-411v-279h-202z" />
    <glyph glyph-name="I" unicode="I" horiz-adv-x="362" 
d="M80 0v700h202v-700h-202z" />
    <glyph glyph-name="J" unicode="J" horiz-adv-x="815" 
d="M393 -16q-343 0 -343 355h203q0 -98 36.5 -140.5t103.5 -42.5t103.5 42.5t36.5 140.5v189h-390v172h592v-361q0 -355 -342 -355z" />
    <glyph glyph-name="K" unicode="K" horiz-adv-x="972" 
d="M80 0v700h202v-316l328 316h300l-278 -246l310 -454h-281l-195 307l-184 -162v-145h-202z" />
    <glyph glyph-name="L" unicode="L" horiz-adv-x="755" 
d="M80 0v700h202v-528h443v-172h-645z" />
    <glyph glyph-name="M" unicode="M" horiz-adv-x="1042" 
d="M80 0v700h161l280 -417l280 417h161v-700h-202v334l-218 -334h-42l-218 334v-334h-202z" />
    <glyph glyph-name="N" unicode="N" horiz-adv-x="978" 
d="M80 0v700h159l457 -386v386h202v-700h-160l-456 386v-386h-202z" />
    <glyph glyph-name="O" unicode="O" horiz-adv-x="965" 
d="M482 -16q-203 0 -322.5 100t-119.5 266t119.5 266t322.5 100q204 0 323.5 -100t119.5 -266t-119.5 -266t-323.5 -100zM482 156q116 0 178.5 49.5t62.5 144.5t-62.5 144.5t-178.5 49.5q-115 0 -177.5 -49.5t-62.5 -144.5t62.5 -144.5t177.5 -49.5z" />
    <glyph glyph-name="P" unicode="P" horiz-adv-x="870" 
d="M80 0v700h515q106 0 170.5 -62t64.5 -152q0 -103 -65 -158t-170 -55h-313v-273h-202zM281 435h289q58 0 58 51q0 52 -58 52h-289v-103z" />
    <glyph glyph-name="Q" unicode="Q" horiz-adv-x="985" 
d="M996 145l-107 -171l-116 86q-115 -76 -291 -76q-203 0 -322.5 100t-119.5 266t119.5 266t322.5 100q204 0 323.5 -100t119.5 -266q0 -82 -31 -152zM482 156q79 0 130 22l-125 92l66 106l163 -85q7 25 7 59q0 95 -62.5 144.5t-178.5 49.5q-115 0 -177.5 -49.5
t-62.5 -144.5t62.5 -144.5t177.5 -49.5z" />
    <glyph glyph-name="R" unicode="R" horiz-adv-x="941" 
d="M80 0v700h565q106 0 165.5 -51t59.5 -134t-61 -129.5t-164 -46.5h-72q64 -4 110.5 -24t87.5 -66t72 -99.5t78 -149.5h-266q-4 7 -11 20q-92 164 -124 204q-42 50 -99 56q-14 2 -30 2h-110l1 -282h-202zM281 435h329q58 0 58 51q0 52 -58 52h-330z" />
    <glyph glyph-name="S" unicode="S" horiz-adv-x="886" 
d="M448 -16q-186 0 -298 67.5t-110 179.5h216q-1 -15 12.5 -30.5t55 -29.5t106.5 -15q213 -4 213 60q0 23 -43.5 33.5t-108.5 12t-141.5 11t-141.5 26.5t-108.5 62.5t-43.5 116.5q0 108 103 173t271 65q173 0 281 -68t109 -179h-216q0 11 -6 22.5t-21.5 23.5t-49 20t-80.5 9
q-88 2 -138 -10.5t-50 -49.5q0 -22 32.5 -34t84 -17t114.5 -9.5t125.5 -15.5t114 -30.5t84 -59t32.5 -96.5q0 -108 -109 -173t-289 -65z" />
    <glyph glyph-name="T" unicode="T" horiz-adv-x="873" 
d="M335 0v528h-310v172h823v-172h-311v-528h-202z" />
    <glyph glyph-name="U" unicode="U" horiz-adv-x="924" 
d="M462 -16q-90 0 -157 18t-119.5 60t-79 117.5t-26.5 184.5v336h202v-366q0 -83 47.5 -126.5t132.5 -43.5t132.5 43.5t47.5 126.5v366h202v-336q0 -109 -26.5 -184.5t-79 -117.5t-119.5 -60t-157 -18z" />
    <glyph glyph-name="V" unicode="V" horiz-adv-x="1080" 
d="M394 0l-369 700h239l276 -554l276 554h239l-369 -700h-292z" />
    <glyph glyph-name="W" unicode="W" horiz-adv-x="1281" 
d="M284 0l-259 700h229l146 -416l126 416h229l127 -416l145 416h229l-259 -700h-242l-114 350l-115 -350h-242z" />
    <glyph glyph-name="X" unicode="X" horiz-adv-x="945" 
d="M25 0l306 354l-301 346h279l166 -191l166 191h279l-306 -352l301 -348h-276l-169 194l-169 -194h-276z" />
    <glyph glyph-name="Y" unicode="Y" horiz-adv-x="1070" 
d="M434 0v226l-409 474h249l261 -311l261 311h249l-409 -473v-227h-202z" />
    <glyph glyph-name="Z" unicode="Z" horiz-adv-x="913" 
d="M35 0v132l485 396h-477v172h825v-130l-483 -398h493v-172h-843z" />
    <glyph glyph-name="bracketleft" unicode="[" horiz-adv-x="513" 
d="M483 558h-251v-606h251v-142h-453v890h453v-142z" />
    <glyph glyph-name="backslash" unicode="\" horiz-adv-x="1063" 
d="M862 0l-832 700h171l832 -700h-171z" />
    <glyph glyph-name="bracketright" unicode="]" horiz-adv-x="513" 
d="M483 700v-890h-453v142h251v606h-251v142h453z" />
    <glyph glyph-name="asciicircum" unicode="^" horiz-adv-x="560" 
d="M30 317v118l250 274l250 -274v-118l-250 242z" />
    <glyph glyph-name="underscore" unicode="_" horiz-adv-x="1060" 
d="M30 0v173h1000v-173h-1000z" />
    <glyph glyph-name="grave" unicode="`" horiz-adv-x="387" 
d="M337 544l-287 164v102l287 -186v-80z" />
    <glyph glyph-name="a" unicode="a" horiz-adv-x="694" 
d="M226 -16q-186 0 -186 132q0 81 97.5 123t304.5 55q0 21 -25.5 34t-66.5 13q-58 0 -127 -14.5t-120 -36.5v172q146 54 287 54q254 0 254 -234v-282h-192l19 179h-12q-23 -107 -72.5 -151t-160.5 -44zM320 120q48 0 85.5 24.5t36.5 71.5q-194 -12 -194 -60
q0 -17 20.5 -26.5t51.5 -9.5z" />
    <glyph glyph-name="b" unicode="b" horiz-adv-x="786" 
d="M495 -16q-96 0 -164.5 49.5t-84.5 129.5h-12l22 -163h-206v700h202v-362h4q16 80 81.5 129t155.5 49q114 0 183.5 -72t69.5 -190q0 -122 -69 -196t-182 -74zM414 146q58 0 99 26.5t41 79.5q0 52 -41 77t-99 25q-59 0 -100.5 -25t-41.5 -77q0 -53 41.5 -79.5t100.5 -26.5z
" />
    <glyph glyph-name="c" unicode="c" horiz-adv-x="609" 
d="M331 -16q-135 0 -213 72.5t-78 193.5q0 123 76 194.5t216 71.5q117 0 237 -54v-170q-104 62 -211 62q-58 0 -92 -28.5t-34 -75.5q0 -46 35 -75t94 -29q109 0 208 61v-169q-66 -29 -117 -41.5t-121 -12.5z" />
    <glyph glyph-name="d" unicode="d" horiz-adv-x="786" 
d="M291 -16q-113 0 -182 74t-69 196q0 118 69.5 190t183.5 72q90 0 155.5 -49t81.5 -129h4v362h202v-700h-206l22 163h-12q-16 -80 -84.5 -129.5t-164.5 -49.5zM372 146q59 0 100.5 26.5t41.5 79.5q0 52 -41.5 77t-100.5 25q-58 0 -99 -25t-41 -77q0 -53 41 -79.5t99 -26.5z
" />
    <glyph glyph-name="e" unicode="e" horiz-adv-x="682" 
d="M341 -16q-136 0 -218.5 73t-82.5 193t82.5 193t218.5 73q134 0 216.5 -62.5t84.5 -164.5v-82h-402q26 -68 151 -68q29 0 56 2.5t44.5 6t39 10.5t31.5 11t30.5 13t27.5 12v-161q-70 -26 -126.5 -37.5t-152.5 -11.5zM235 277l212 5q-4 36 -33 54t-73 18q-40 0 -69 -19.5
t-37 -57.5z" />
    <glyph glyph-name="f" unicode="f" horiz-adv-x="413" 
d="M87 0v352h-57v148h57v20q0 112 28 151t122 39q61 0 151 -17v-123q-13 1 -34 1q-44 0 -54.5 -13t-10.5 -58h99v-138h-99v-362h-202z" />
    <glyph glyph-name="g" unicode="g" horiz-adv-x="804" 
d="M404 -200q-161 0 -280 29v168q28 -14 93 -24.5t140 -10.5q106 0 144 36t45 143v6q-20 -70 -85.5 -106.5t-159.5 -36.5q-115 0 -183 65.5t-68 184.5q0 118 69.5 190t183.5 72q90 0 155.5 -49t81.5 -129h17l-16 162h203v-440q0 -132 -91 -196t-249 -64zM382 146
q59 0 100.5 26.5t41.5 79.5q0 52 -41.5 77t-100.5 25q-58 0 -99 -25t-41 -77q0 -53 41 -79.5t99 -26.5z" />
    <glyph glyph-name="h" unicode="h" horiz-adv-x="748" 
d="M50 0v700h216l-20 -406h10q19 123 75.5 172.5t175.5 49.5q56 -1 91 -12.5t61.5 -44t37.5 -91t11 -151.5v-217h-202v200q0 96 -25.5 130t-89.5 34q-60 0 -99.5 -56t-39.5 -140v-168h-202z" />
    <glyph glyph-name="i" unicode="i" horiz-adv-x="302" 
d="M150 541q-59 0 -88 24t-29 79t29 79t88 24t89 -24t30 -79t-29 -79t-90 -24zM51 0v500h202v-500h-202z" />
    <glyph glyph-name="j" unicode="j" horiz-adv-x="329" 
d="M160 541q-59 0 -88 24t-29 79t29 79t88 24t89 -24t30 -79t-29 -79t-90 -24zM-39 -200v110q48 0 73.5 22.5t25.5 57.5v510h202v-510q0 -90 -78 -140t-223 -50z" />
    <glyph glyph-name="k" unicode="k" horiz-adv-x="722" 
d="M50 0v700h202v-354l156 154h278l-190 -170l206 -330h-251l-110 193l-89 -79v-114h-202z" />
    <glyph glyph-name="l" unicode="l" horiz-adv-x="302" 
d="M50 0v700h202v-700h-202z" />
    <glyph glyph-name="m" unicode="m" horiz-adv-x="1214" 
d="M50 0v500h216l-20 -206h10q19 123 75.5 172.5t175.5 49.5q66 -1 104 -18.5t61.5 -66t29.5 -137.5h10q19 123 75.5 172.5t175.5 49.5q56 -1 91 -12.5t61.5 -44t37.5 -91t11 -151.5v-217h-202v200q0 96 -25.5 130t-89.5 34q-60 0 -99.5 -56t-39.5 -140v-168h-202v200
q0 96 -25.5 130t-89.5 34q-60 0 -99.5 -56t-39.5 -140v-168h-202z" />
    <glyph glyph-name="n" unicode="n" horiz-adv-x="758" 
d="M50 0v500h216l-20 -206h10q19 123 75.5 172.5t175.5 49.5q56 -1 91 -12.5t61.5 -44t37.5 -91t11 -151.5v-217h-202v200q0 96 -25.5 130t-89.5 34q-60 0 -99.5 -56t-39.5 -140v-168h-202z" />
    <glyph glyph-name="o" unicode="o" horiz-adv-x="722" 
d="M361 -16q-145 0 -233 73t-88 193t88 193t233 73t233 -73t88 -193t-88 -193t-233 -73zM361 146q58 0 93.5 28.5t35.5 75.5t-35.5 75.5t-93.5 28.5t-93.5 -28.5t-35.5 -75.5t35.5 -75.5t93.5 -28.5z" />
    <glyph glyph-name="p" unicode="p" horiz-adv-x="786" 
d="M495 516q113 0 182 -74t69 -196q0 -118 -69.5 -190t-183.5 -72q-90 0 -155.5 49t-81.5 129h-4v-362h-202v700h206l-22 -163h12q16 80 84.5 129.5t164.5 49.5zM414 354q-59 0 -100.5 -26.5t-41.5 -79.5q0 -52 41.5 -77t100.5 -25q58 0 99 25t41 77q0 53 -41 79.5t-99 26.5
z" />
    <glyph glyph-name="q" unicode="q" horiz-adv-x="786" 
d="M291 516q96 0 164.5 -49.5t84.5 -129.5h12l-22 163h206v-700h-202v362h-4q-16 -80 -81.5 -129t-155.5 -49q-114 0 -183.5 72t-69.5 190q0 122 69 196t182 74zM372 354q-58 0 -99 -26.5t-41 -79.5q0 -52 41 -77t99 -25q59 0 100.5 25t41.5 77q0 53 -41.5 79.5t-100.5 26.5
z" />
    <glyph glyph-name="r" unicode="r" horiz-adv-x="541" 
d="M50 0v500h216l-20 -206h10q19 121 79.5 171.5t180.5 50.5v-172q-61 0 -97.5 -3t-72 -12.5t-54 -29t-29.5 -51.5t-11 -80v-168h-202z" />
    <glyph glyph-name="s" unicode="s" horiz-adv-x="664" 
d="M330 -16q-133 0 -268 39v169q113 -43 238 -43q132 0 132 24q0 15 -29 21t-72.5 5t-94.5 4.5t-94.5 16t-72.5 42t-29 80.5q0 87 78.5 130.5t215.5 43.5q107 0 250 -28v-169q-123 26 -220 26q-132 0 -132 -21q0 -12 40.5 -14t98 -3.5t115 -10.5t98 -44t40.5 -96
q0 -172 -294 -172z" />
    <glyph glyph-name="t" unicode="t" horiz-adv-x="418" 
d="M237 -10q-94 0 -122 39t-28 151v172h-57v148h77v120l182 20v-140h99v-148h-99v-142q0 -28 1 -39.5t6.5 -24t17.5 -15.5t34 -3q8 0 40 2v-120q-74 -20 -151 -20z" />
    <glyph glyph-name="u" unicode="u" horiz-adv-x="758" 
d="M708 500v-500h-216l20 206h-10q-19 -123 -75.5 -172.5t-175.5 -49.5q-56 1 -91 12.5t-61.5 44t-37.5 91t-11 151.5v217h202v-200q0 -96 25.5 -130t89.5 -34q60 0 99.5 56t39.5 140v168h202z" />
    <glyph glyph-name="v" unicode="v" horiz-adv-x="820" 
d="M289 0l-264 500h219l166 -315l166 315h219l-264 -500h-242z" />
    <glyph glyph-name="w" unicode="w" horiz-adv-x="1121" 
d="M239 0l-214 500h209l114 -270l108 270h199l116 -276l116 276h209l-214 -500h-222l-102 250l-97 -250h-222z" />
    <glyph glyph-name="x" unicode="x" horiz-adv-x="838" 
d="M25 0l257 251l-256 249h254l139 -136l140 136h254l-267 -259l247 -241h-253l-131 128l-131 -128h-253z" />
    <glyph glyph-name="y" unicode="y" horiz-adv-x="806" 
d="M184 -200l111 211l-270 489h232l148 -280l147 280h229l-369 -700h-228z" />
    <glyph glyph-name="z" unicode="z" horiz-adv-x="723" 
d="M30 0v112l315 236h-307v152h655v-110l-313 -238h303v-152h-653z" />
    <glyph glyph-name="braceleft" unicode="{" horiz-adv-x="705" 
d="M675 -80q-147 0 -228 23t-109 65t-28 115q0 192 -280 192v68q133 2 187.5 49t54.5 136q0 76 27 118.5t108 66.5t231 24v-62q-115 0 -161 -31t-46 -116q0 -36 -2.5 -58.5t-14.5 -51.5t-33.5 -47.5t-62.5 -35.5t-100 -25q136 -6 193 -64.5t57 -162.5q0 -81 47.5 -111.5
t159.5 -30.5v-61z" />
    <glyph glyph-name="bar" unicode="|" horiz-adv-x="322" 
d="M60 -170v890h202v-890h-202z" />
    <glyph glyph-name="braceright" unicode="}" horiz-adv-x="705" 
d="M30 -80v61q112 0 159.5 30.5t47.5 111.5q0 104 57 162.5t193 64.5q-59 8 -100 25t-62.5 35.5t-33.5 47.5t-14.5 51.5t-2.5 58.5q0 85 -46 116t-161 31v62q150 0 231 -24t108 -66.5t27 -118.5q0 -89 54.5 -136t187.5 -49v-68q-280 0 -280 -192q0 -73 -28 -115t-109 -65
t-228 -23z" />
    <glyph glyph-name="asciitilde" unicode="~" horiz-adv-x="441" 
d="M288 310q-31 0 -56 18t-44 36t-35 18q-28 0 -44.5 -18t-17.5 -53h-61q1 58 35 94t88 36q34 0 73 -36t62 -36q62 0 63 71h60q-1 -59 -35 -94.5t-88 -35.5z" />
    <glyph glyph-name="exclamdown" unicode="&#xa1;" horiz-adv-x="305" 
d="M152 517q54 0 83.5 -28t29.5 -79t-30.5 -79t-82.5 -28t-82 28t-30 79t30 79t82 28zM72 213h182l10 -406h-202z" />
    <glyph glyph-name="cent" unicode="&#xa2;" horiz-adv-x="589" 
d="M348 444q-58 0 -92 -28.5t-34 -75.5q0 -46 35 -75t94 -29q109 0 208 61v-169q-77 -34 -137 -46v-112h-202v117q-90 24 -140 90.5t-50 162.5q0 98 49 164t141 90v106h202v-103q57 -10 137 -45v-170q-104 62 -211 62z" />
    <glyph glyph-name="sterling" unicode="&#xa3;" horiz-adv-x="902" 
d="M85 0v169q53 29 69 59h-104v103h105l-12 40h-93v103h71q-1 10 -1 32q0 120 89 164.5t286 44.5q93 0 203.5 -10.5t153.5 -24.5v-180q-31 12 -142.5 25.5t-186.5 13.5q-100 0 -147 -14.5t-52 -50.5h446v-103h-446l-4 -40h450v-103h-482q-27 -43 -69 -65h626v-163h-760z" />
    <glyph glyph-name="currency" unicode="&#xa4;" horiz-adv-x="720" 
d="M173 5l-143 143l85 85q-21 43 -21 97q0 59 25 103l-89 89l143 143l120 -120q35 5 66 5q33 0 68 -5l120 120l143 -143l-88 -88q22 -44 22 -104q0 -56 -19 -97l85 -85l-143 -143l-111 111q-34 -6 -77 -6q-42 0 -74 7zM359 251q48 0 73 21t25 58t-25 58t-73 21t-73 -21
t-25 -58t25 -58t73 -21z" />
    <glyph glyph-name="yen" unicode="&#xa5;" horiz-adv-x="1030" 
d="M1045 700l-291 -336h136v-103h-225l-29 -34v-6h254v-103h-254v-118h-202v118h-254v103h254v5l-30 35h-224v103h135l-290 336h249l261 -311l261 311h249z" />
    <glyph glyph-name="brokenbar" unicode="&#xa6;" horiz-adv-x="322" 
d="M60 313v407h202v-407h-202zM60 -170v418h202v-418h-202z" />
    <glyph glyph-name="section" unicode="&#xa7;" horiz-adv-x="644" 
d="M320 0q-133 0 -268 39v169q113 -43 268 -43q92 0 92 19t-39.5 24.5t-95.5 8t-112 11.5t-95.5 44t-39.5 96q0 45 29 72q-29 34 -29 86q0 80 79 122t215 42q107 0 250 -28v-169q-123 26 -250 26q-92 0 -92 -21q0 -12 39.5 -14t95.5 -4.5t112 -13.5t95.5 -50.5t39.5 -105.5
q0 -40 -26 -68q26 -37 26 -90q0 -75 -79 -113.5t-215 -38.5zM350 322q59 0 62 18q1 13 -23 20.5t-69 10.5q-30 2 -37 2q-49 0 -51 -20q-1 -12 21 -19t67 -11q10 -1 30 -1z" />
    <glyph glyph-name="dieresis" unicode="&#xa8;" horiz-adv-x="588" 
d="M149 538q-44 0 -71.5 23.5t-27.5 61.5t27.5 61.5t71.5 23.5q47 0 73 -23t26 -62t-26 -62t-73 -23zM439 538q-44 0 -71.5 23.5t-27.5 61.5t27.5 61.5t71.5 23.5q47 0 73 -23t26 -62t-26 -62t-73 -23z" />
    <glyph glyph-name="copyright" unicode="&#xa9;" horiz-adv-x="965" 
d="M482 -16q-202 0 -317 99.5t-115 266.5q0 166 116 266t316 100q204 0 318.5 -98.5t114.5 -267.5q0 -167 -115 -266.5t-318 -99.5zM482 11q198 0 301.5 93.5t103.5 247.5q0 152 -104.5 244.5t-300.5 92.5q-192 0 -299 -94.5t-107 -246.5q0 -150 108 -243.5t298 -93.5z
M487 85q-136 0 -218.5 73t-82.5 193t82.5 193t218.5 73q135 0 217.5 -65t82.5 -172h-204q-7 32 -33 52t-63 20q-44 0 -71.5 -27.5t-27.5 -73.5t27.5 -73.5t71.5 -27.5q39 0 66 22t32 58h203q0 -110 -82.5 -177.5t-218.5 -67.5z" />
    <glyph glyph-name="guillemotleft" unicode="&#xab;" horiz-adv-x="885" 
d="M476 500l-214 -250l214 -250h-240l-206 250l206 250h240zM855 500l-214 -250l214 -250h-240l-206 250l206 250h240z" />
    <glyph glyph-name="logicalnot" unicode="&#xac;" horiz-adv-x="670" 
d="M467 76v168h-437v173h610v-341h-173z" />
    <glyph glyph-name="registered" unicode="&#xae;" horiz-adv-x="965" 
d="M482 -16q-202 0 -317 99.5t-115 266.5q0 166 116 266t316 100q204 0 318.5 -98.5t114.5 -267.5q0 -167 -115 -266.5t-318 -99.5zM482 11q198 0 301.5 93.5t103.5 247.5q0 152 -104.5 244.5t-300.5 92.5q-192 0 -299 -94.5t-107 -246.5q0 -150 108 -243.5t298 -93.5z
M253 133v435h350q66 0 103 -32t37 -83q0 -52 -38 -81t-102 -29h-44q75 -4 117 -48.5t99 -161.5h-165q-66 118 -91 146.5t-73 28.5h-69l1 -175h-125zM377 403h205q36 0 36 32t-36 32h-205v-64z" />
    <glyph glyph-name="macron" unicode="&#xaf;" horiz-adv-x="632" 
d="M50 646v54h532v-54h-532z" />
    <glyph glyph-name="degree" unicode="&#xb0;" horiz-adv-x="518" 
d="M259 460q-86 0 -147.5 35t-61.5 90t61.5 90t147.5 35q93 0 151 -34.5t58 -90.5t-58 -90.5t-151 -34.5zM259 522q33 0 54 16t21 45q0 32 -20 48.5t-55 16.5q-33 0 -53.5 -16.5t-20.5 -46.5t20.5 -46.5t53.5 -16.5z" />
    <glyph glyph-name="plusminus" unicode="&#xb1;" horiz-adv-x="600" 
d="M225 196v130h-130v130h130v130h130v-130h130v-130h-130v-130h-130zM30 0v133h520v-133h-520z" />
    <glyph glyph-name="acute" unicode="&#xb4;" horiz-adv-x="387" 
d="M50 544v80l287 186v-102z" />
    <glyph glyph-name="paragraph" unicode="&#xb6;" horiz-adv-x="939" 
d="M394 -180v453h-129q-105 0 -170 55t-65 158q0 90 64.5 152t170.5 62h335v-880h-206zM707 -180v880h202v-880h-202z" />
    <glyph glyph-name="periodcentered" unicode="&#xb7;" horiz-adv-x="285" 
d="M142 236q-52 0 -82 28t-30 79t30 79t82 28t82.5 -28t30.5 -79t-29.5 -79t-83.5 -28z" />
    <glyph glyph-name="cedilla" unicode="&#xb8;" horiz-adv-x="526" 
d="M183 -70q138 -10 215.5 -37t77.5 -70q0 -47 -118 -78t-308 -32v55q232 1 232 55t-232 58v53l58 101h129z" />
    <glyph glyph-name="guillemotright" unicode="&#xbb;" horiz-adv-x="885" 
d="M270 500l206 -250l-206 -250h-240l214 250l-214 250h240zM649 500l206 -250l-206 -250h-240l214 250l-214 250h240z" />
    <glyph glyph-name="onequarter" unicode="&#xbc;" horiz-adv-x="1603" 
d="M420 -22l688 744h141l-688 -744h-141zM280 161v368l-240 -149v138l281 121h97v-478h-138zM1330 61v74h-370v92l302 312h206v-286h61v-118h-61v-74h-138zM1115 253h215v240z" />
    <glyph glyph-name="onehalf" unicode="&#xbd;" horiz-adv-x="1734" 
d="M419 -22l688 744h141l-688 -744h-141zM280 161v368l-240 -149v138l281 121h97v-478h-138zM1159 61v95q39 18 105.5 47t110 48.5t89 43t68.5 44t23 39.5q0 29 -32 40t-105 11q-50 0 -126 -9t-98 -17v122q29 10 104.5 17t138.5 7q135 0 196 -30t61 -112q0 -156 -382 -229
h361v-117h-514z" />
    <glyph glyph-name="threequarters" unicode="&#xbe;" horiz-adv-x="1610" 
d="M427 -22l688 744h141l-688 -744h-141zM263 150q-144 2 -223 30v118q70 -30 216 -30q157 0 157 35q0 17 -27.5 27.5t-102.5 19t-217 15.5v69q150 7 225.5 16.5t91.5 17.5t16 22q0 23 -44.5 33t-98.5 10q-55 0 -118.5 -8t-97.5 -22v117q86 31 222 31q61 0 104.5 -4.5
t83.5 -18t60.5 -40.5t20.5 -68q0 -28 -14.5 -49.5t-40.5 -33t-49 -19t-54.5 -10t-42 -3t-25.5 -0.5v-6q1 0 25.5 -0.5t41 -2t44.5 -5t48 -11t40 -19t30.5 -30t10.5 -42.5q0 -42 -20 -70.5t-60 -43t-87.5 -20t-114.5 -5.5zM1337 58v74h-370v92l302 312h206v-286h61v-118h-61
v-74h-138zM1122 250h215v240z" />
    <glyph glyph-name="questiondown" unicode="&#xbf;" horiz-adv-x="742" 
d="M443 517q52 0 82 -28t30 -79t-30 -79t-82 -28t-82.5 28t-30.5 79t29.5 79t83.5 28zM523 275q1 -9 1 -26q0 -53 -20 -87t-49.5 -47t-64 -20.5t-64 -9.5t-49.5 -12t-20 -30q0 -42 47 -58.5t153 -16.5q102 0 245 21v-179q-134 -18 -280 -18q-193 0 -280.5 45t-87.5 164
q0 65 23 108t57 61t74 30t74 17t57 19t23 39h161z" />
    <glyph glyph-name="Agrave" unicode="&#xc0;" horiz-adv-x="1105" 
d="M559 744l-287 164v102l287 -186v-80zM25 0l419 700h217l419 -700h-239l-66 118h-445l-66 -118h-239zM426 290h253l-126 228z" />
    <glyph glyph-name="Aacute" unicode="&#xc1;" horiz-adv-x="1105" 
d="M529 744v80l287 186v-102zM25 0l419 700h217l419 -700h-239l-66 118h-445l-66 -118h-239zM426 290h253l-126 228z" />
    <glyph glyph-name="Acircumflex" unicode="&#xc2;" horiz-adv-x="1105" 
d="M840 755l-287 164l-287 -164v80l287 186l287 -186v-80zM661 700l419 -700h-239l-66 118h-445l-66 -118h-239l419 700h217zM426 290h253l-126 228z" />
    <glyph glyph-name="Atilde" unicode="&#xc3;" horiz-adv-x="1105" 
d="M638 772q-31 0 -56 18t-44 36t-35 18q-28 0 -44.5 -18t-17.5 -53h-61q1 58 35 94t88 36q34 0 73 -36t62 -36q62 0 63 71h60q-1 -59 -35 -94.5t-88 -35.5zM25 0l419 700h217l419 -700h-239l-66 118h-445l-66 -118h-239zM426 290h253l-126 228z" />
    <glyph glyph-name="Adieresis" unicode="&#xc4;" horiz-adv-x="1105" 
d="M412 738q-44 0 -71.5 23.5t-27.5 61.5t27.5 61.5t71.5 23.5q47 0 73 -23t26 -62t-26 -62t-73 -23zM702 738q-44 0 -71.5 23.5t-27.5 61.5t27.5 61.5t71.5 23.5q47 0 73 -23t26 -62t-26 -62t-73 -23zM25 0l419 700h217l419 -700h-239l-66 118h-445l-66 -118h-239zM426 290
h253l-126 228z" />
    <glyph glyph-name="Aring" unicode="&#xc5;" horiz-adv-x="1105" 
d="M553 738q-105 0 -179 29t-74 74t74 74t179 29q113 0 183 -28.5t70 -74.5t-70 -74.5t-183 -28.5zM553 789q40 0 65.5 13.5t25.5 37.5q0 53 -91 53q-40 0 -64.5 -13.5t-24.5 -38.5t24.5 -38.5t64.5 -13.5zM25 0l419 700h217l419 -700h-239l-66 118h-445l-66 -118h-239z
M426 290h253l-126 228z" />
    <glyph glyph-name="AE" unicode="&#xc6;" horiz-adv-x="1455" 
d="M1385 528h-443v-91h434v-163h-434v-102h443v-172h-645v118h-331l-95 -118h-289l609 700h751v-172zM547 290h193v239z" />
    <glyph glyph-name="Ccedilla" unicode="&#xc7;" horiz-adv-x="924" 
d="M884 305q0 -128 -92.5 -213t-249.5 -103l-30 -59q138 -10 215.5 -37t77.5 -70q0 -47 -118 -78t-308 -32v55q232 1 232 55t-232 58v53l30 52q-168 14 -268.5 113t-100.5 251q0 165 116 265.5t306 100.5t306 -88t116 -233h-204q-7 74 -65 111.5t-153 37.5
q-101 0 -160.5 -50t-59.5 -144t59.5 -144t160.5 -50q95 0 153.5 37.5t64.5 111.5h204z" />
    <glyph glyph-name="Egrave" unicode="&#xc8;" horiz-adv-x="855" 
d="M434 744l-287 164v102l287 -186v-80zM80 0v700h705v-172h-503v-91h494v-163h-494v-102h503v-172h-705z" />
    <glyph glyph-name="Eacute" unicode="&#xc9;" horiz-adv-x="855" 
d="M404 744v80l287 186v-102zM80 0v700h705v-172h-503v-91h494v-163h-494v-102h503v-172h-705z" />
    <glyph glyph-name="Ecircumflex" unicode="&#xca;" horiz-adv-x="855" 
d="M715 755l-287 164l-287 -164v80l287 186l287 -186v-80zM785 528h-503v-91h494v-163h-494v-102h503v-172h-705v700h705v-172z" />
    <glyph glyph-name="Edieresis" unicode="&#xcb;" horiz-adv-x="855" 
d="M287 738q-44 0 -71.5 23.5t-27.5 61.5t27.5 61.5t71.5 23.5q47 0 73 -23t26 -62t-26 -62t-73 -23zM577 738q-44 0 -71.5 23.5t-27.5 61.5t27.5 61.5t71.5 23.5q47 0 73 -23t26 -62t-26 -62t-73 -23zM80 0v700h705v-172h-503v-91h494v-163h-494v-102h503v-172h-705z" />
    <glyph glyph-name="Igrave" unicode="&#xcc;" horiz-adv-x="362" 
d="M187 744l-287 164v102l287 -186v-80zM80 0v700h202v-700h-202z" />
    <glyph glyph-name="Iacute" unicode="&#xcd;" horiz-adv-x="362" 
d="M157 744v80l287 186v-102zM80 0v700h202v-700h-202z" />
    <glyph glyph-name="Icircumflex" unicode="&#xce;" horiz-adv-x="362" 
d="M181 1021l287 -186v-80l-287 164l-287 -164v80zM80 0v700h202v-700h-202z" />
    <glyph glyph-name="Idieresis" unicode="&#xcf;" horiz-adv-x="362" 
d="M40 738q-44 0 -71.5 23.5t-27.5 61.5t27.5 61.5t71.5 23.5q47 0 73 -23t26 -62t-26 -62t-73 -23zM330 738q-44 0 -71.5 23.5t-27.5 61.5t27.5 61.5t71.5 23.5q47 0 73 -23t26 -62t-26 -62t-73 -23zM80 0v700h202v-700h-202z" />
    <glyph glyph-name="Eth" unicode="&#xd0;" horiz-adv-x="865" 
d="M417 700q192 0 300 -90t108 -260q0 -171 -108 -260.5t-300 -89.5h-337v264h-60v173h60v263h337zM417 172q105 0 155.5 43.5t50.5 134.5q0 93 -51 135.5t-155 42.5h-135v-91h238v-173h-238v-92h135z" />
    <glyph glyph-name="Ntilde" unicode="&#xd1;" horiz-adv-x="978" 
d="M574 772q-31 0 -56 18t-44 36t-35 18q-28 0 -44.5 -18t-17.5 -53h-61q1 58 35 94t88 36q34 0 73 -36t62 -36q62 0 63 71h60q-1 -59 -35 -94.5t-88 -35.5zM80 0v700h159l457 -386v386h202v-700h-160l-456 386v-386h-202z" />
    <glyph glyph-name="Ograve" unicode="&#xd2;" horiz-adv-x="965" 
d="M489 744l-287 164v102l287 -186v-80zM482 -16q-203 0 -322.5 100t-119.5 266t119.5 266t322.5 100q204 0 323.5 -100t119.5 -266t-119.5 -266t-323.5 -100zM482 156q116 0 178.5 49.5t62.5 144.5t-62.5 144.5t-178.5 49.5q-115 0 -177.5 -49.5t-62.5 -144.5t62.5 -144.5
t177.5 -49.5z" />
    <glyph glyph-name="Oacute" unicode="&#xd3;" horiz-adv-x="965" 
d="M459 744v80l287 186v-102zM482 -16q-203 0 -322.5 100t-119.5 266t119.5 266t322.5 100q204 0 323.5 -100t119.5 -266t-119.5 -266t-323.5 -100zM482 156q116 0 178.5 49.5t62.5 144.5t-62.5 144.5t-178.5 49.5q-115 0 -177.5 -49.5t-62.5 -144.5t62.5 -144.5
t177.5 -49.5z" />
    <glyph glyph-name="Ocircumflex" unicode="&#xd4;" horiz-adv-x="965" 
d="M770 755l-287 164l-287 -164v80l287 186l287 -186v-80zM482 716q204 0 323.5 -100t119.5 -266t-119.5 -266t-323.5 -100q-203 0 -322.5 100t-119.5 266t119.5 266t322.5 100zM482 156q116 0 178.5 49.5t62.5 144.5t-62.5 144.5t-178.5 49.5q-115 0 -177.5 -49.5
t-62.5 -144.5t62.5 -144.5t177.5 -49.5z" />
    <glyph glyph-name="Otilde" unicode="&#xd5;" horiz-adv-x="965" 
d="M568 772q-31 0 -56 18t-44 36t-35 18q-28 0 -44.5 -18t-17.5 -53h-61q1 58 35 94t88 36q34 0 73 -36t62 -36q62 0 63 71h60q-1 -59 -35 -94.5t-88 -35.5zM482 -16q-203 0 -322.5 100t-119.5 266t119.5 266t322.5 100q204 0 323.5 -100t119.5 -266t-119.5 -266
t-323.5 -100zM482 156q116 0 178.5 49.5t62.5 144.5t-62.5 144.5t-178.5 49.5q-115 0 -177.5 -49.5t-62.5 -144.5t62.5 -144.5t177.5 -49.5z" />
    <glyph glyph-name="Odieresis" unicode="&#xd6;" horiz-adv-x="965" 
d="M342 738q-44 0 -71.5 23.5t-27.5 61.5t27.5 61.5t71.5 23.5q47 0 73 -23t26 -62t-26 -62t-73 -23zM632 738q-44 0 -71.5 23.5t-27.5 61.5t27.5 61.5t71.5 23.5q47 0 73 -23t26 -62t-26 -62t-73 -23zM482 -16q-203 0 -322.5 100t-119.5 266t119.5 266t322.5 100
q204 0 323.5 -100t119.5 -266t-119.5 -266t-323.5 -100zM482 156q116 0 178.5 49.5t62.5 144.5t-62.5 144.5t-178.5 49.5q-115 0 -177.5 -49.5t-62.5 -144.5t62.5 -144.5t177.5 -49.5z" />
    <glyph glyph-name="multiply" unicode="&#xd7;" horiz-adv-x="600" 
d="M168 86l-123 122l122 123l-122 122l122 123l123 -123l122 123l123 -122l-123 -123l123 -123l-123 -122l-122 122z" />
    <glyph glyph-name="Oslash" unicode="&#xd8;" horiz-adv-x="965" 
d="M984 700l-142 -119q83 -94 83 -231q0 -166 -119.5 -266t-323.5 -100q-162 0 -272 65l-58 -49h-171l142 119q-83 94 -83 231q0 166 119.5 266t322.5 100q162 0 273 -65l58 49h171zM242 350q0 -62 28 -107l335 282q-50 19 -123 19q-115 0 -177.5 -49.5t-62.5 -144.5z
M723 350q0 62 -28 107l-335 -282q50 -19 122 -19q116 0 178.5 49.5t62.5 144.5z" />
    <glyph glyph-name="Ugrave" unicode="&#xd9;" horiz-adv-x="924" 
d="M468 744l-287 164v102l287 -186v-80zM462 -16q-90 0 -157 18t-119.5 60t-79 117.5t-26.5 184.5v336h202v-366q0 -83 47.5 -126.5t132.5 -43.5t132.5 43.5t47.5 126.5v366h202v-336q0 -109 -26.5 -184.5t-79 -117.5t-119.5 -60t-157 -18z" />
    <glyph glyph-name="Uacute" unicode="&#xda;" horiz-adv-x="924" 
d="M438 744v80l287 186v-102zM462 -16q-90 0 -157 18t-119.5 60t-79 117.5t-26.5 184.5v336h202v-366q0 -83 47.5 -126.5t132.5 -43.5t132.5 43.5t47.5 126.5v366h202v-336q0 -109 -26.5 -184.5t-79 -117.5t-119.5 -60t-157 -18z" />
    <glyph glyph-name="Ucircumflex" unicode="&#xdb;" horiz-adv-x="924" 
d="M749 755l-287 164l-287 -164v80l287 186l287 -186v-80zM642 700h202v-336q0 -109 -26.5 -184.5t-79 -117.5t-119.5 -60t-157 -18t-157 18t-119.5 60t-79 117.5t-26.5 184.5v336h202v-366q0 -83 47.5 -126.5t132.5 -43.5t132.5 43.5t47.5 126.5v366z" />
    <glyph glyph-name="Udieresis" unicode="&#xdc;" horiz-adv-x="924" 
d="M321 738q-44 0 -71.5 23.5t-27.5 61.5t27.5 61.5t71.5 23.5q47 0 73 -23t26 -62t-26 -62t-73 -23zM611 738q-44 0 -71.5 23.5t-27.5 61.5t27.5 61.5t71.5 23.5q47 0 73 -23t26 -62t-26 -62t-73 -23zM462 -16q-90 0 -157 18t-119.5 60t-79 117.5t-26.5 184.5v336h202v-366
q0 -83 47.5 -126.5t132.5 -43.5t132.5 43.5t47.5 126.5v366h202v-336q0 -109 -26.5 -184.5t-79 -117.5t-119.5 -60t-157 -18z" />
    <glyph glyph-name="Yacute" unicode="&#xdd;" horiz-adv-x="1070" 
d="M511 744v80l287 186v-102zM434 0v226l-409 474h249l261 -311l261 311h249l-409 -473v-227h-202z" />
    <glyph glyph-name="Thorn" unicode="&#xde;" horiz-adv-x="830" 
d="M575 500q106 0 170.5 -62t64.5 -152q0 -103 -65 -158t-170 -55h-309v-73h-206v700h205v-200h310zM550 235q58 0 58 51q0 52 -58 52h-284v-103h284z" />
    <glyph glyph-name="germandbls" unicode="&#xdf;" horiz-adv-x="858" 
d="M468 348q183 -6 266.5 -44.5t83.5 -116.5q0 -50 -20 -86.5t-54.5 -59t-88.5 -36t-113 -18t-136 -3.5q-66 2 -101 4v171q48 -3 91 -3q229 0 229 52q0 21 -26 34.5t-96.5 24.5t-197.5 20v123q82 6 138.5 12.5t88 12.5t48.5 14.5t21 15.5t4 17q0 63 -210 63h-163v-545h-202
v700h375q55 0 90 -1t80.5 -4.5t74.5 -10.5t60 -19.5t48 -31t28.5 -46t11.5 -62.5q0 -88 -78.5 -128t-251.5 -40v-9z" />
    <glyph glyph-name="agrave" unicode="&#xe0;" horiz-adv-x="694" 
d="M392 544l-287 164v102l287 -186v-80zM226 -16q-186 0 -186 132q0 81 97.5 123t304.5 55q0 21 -25.5 34t-66.5 13q-58 0 -127 -14.5t-120 -36.5v172q146 54 287 54q254 0 254 -234v-282h-192l19 179h-12q-23 -107 -72.5 -151t-160.5 -44zM320 120q48 0 85.5 24.5
t36.5 71.5q-194 -12 -194 -60q0 -17 20.5 -26.5t51.5 -9.5z" />
    <glyph glyph-name="aacute" unicode="&#xe1;" horiz-adv-x="694" 
d="M362 544v80l287 186v-102zM226 -16q-186 0 -186 132q0 81 97.5 123t304.5 55q0 21 -25.5 34t-66.5 13q-58 0 -127 -14.5t-120 -36.5v172q146 54 287 54q254 0 254 -234v-282h-192l19 179h-12q-23 -107 -72.5 -151t-160.5 -44zM320 120q48 0 85.5 24.5t36.5 71.5
q-194 -12 -194 -60q0 -17 20.5 -26.5t51.5 -9.5z" />
    <glyph glyph-name="acircumflex" unicode="&#xe2;" horiz-adv-x="694" 
d="M386 821l287 -186v-80l-287 164l-287 -164v80zM390 516q254 0 254 -234v-282h-192l19 179h-12q-23 -107 -72.5 -151t-160.5 -44q-186 0 -186 132q0 81 97.5 123t304.5 55q0 21 -25.5 34t-66.5 13q-58 0 -127 -14.5t-120 -36.5v172q146 54 287 54zM320 120q48 0 85.5 24.5
t36.5 71.5q-194 -12 -194 -60q0 -17 20.5 -26.5t51.5 -9.5z" />
    <glyph glyph-name="atilde" unicode="&#xe3;" horiz-adv-x="694" 
d="M471 572q-31 0 -56 18t-44 36t-35 18q-28 0 -44.5 -18t-17.5 -53h-61q1 58 35 94t88 36q34 0 73 -36t62 -36q62 0 63 71h60q-1 -59 -35 -94.5t-88 -35.5zM226 -16q-186 0 -186 132q0 81 97.5 123t304.5 55q0 21 -25.5 34t-66.5 13q-58 0 -127 -14.5t-120 -36.5v172
q146 54 287 54q254 0 254 -234v-282h-192l19 179h-12q-23 -107 -72.5 -151t-160.5 -44zM320 120q48 0 85.5 24.5t36.5 71.5q-194 -12 -194 -60q0 -17 20.5 -26.5t51.5 -9.5z" />
    <glyph glyph-name="adieresis" unicode="&#xe4;" horiz-adv-x="694" 
d="M245 538q-44 0 -71.5 23.5t-27.5 61.5t27.5 61.5t71.5 23.5q47 0 73 -23t26 -62t-26 -62t-73 -23zM535 538q-44 0 -71.5 23.5t-27.5 61.5t27.5 61.5t71.5 23.5q47 0 73 -23t26 -62t-26 -62t-73 -23zM226 -16q-186 0 -186 132q0 81 97.5 123t304.5 55q0 21 -25.5 34
t-66.5 13q-58 0 -127 -14.5t-120 -36.5v172q146 54 287 54q254 0 254 -234v-282h-192l19 179h-12q-23 -107 -72.5 -151t-160.5 -44zM320 120q48 0 85.5 24.5t36.5 71.5q-194 -12 -194 -60q0 -17 20.5 -26.5t51.5 -9.5z" />
    <glyph glyph-name="aring" unicode="&#xe5;" horiz-adv-x="694" 
d="M386 538q-105 0 -179 29t-74 74t74 74t179 29q113 0 183 -28.5t70 -74.5t-70 -74.5t-183 -28.5zM386 589q40 0 65.5 13.5t25.5 37.5q0 53 -91 53q-40 0 -64.5 -13.5t-24.5 -38.5t24.5 -38.5t64.5 -13.5zM226 -16q-186 0 -186 132q0 81 97.5 123t304.5 55q0 21 -25.5 34
t-66.5 13q-58 0 -127 -14.5t-120 -36.5v172q146 54 287 54q254 0 254 -234v-282h-192l19 179h-12q-23 -107 -72.5 -151t-160.5 -44zM320 120q48 0 85.5 24.5t36.5 71.5q-194 -12 -194 -60q0 -17 20.5 -26.5t51.5 -9.5z" />
    <glyph glyph-name="ae" unicode="&#xe6;" horiz-adv-x="1091" 
d="M226 -16q-186 0 -186 132q0 44 32.5 76t77.5 48t107 25t105.5 11t87.5 1q0 39 -25.5 51.5t-74.5 12.5q-58 0 -127 -14.5t-120 -36.5v172q146 54 287 54q116 0 172 -50q78 50 188 50q134 0 216.5 -62.5t84.5 -164.5v-82h-402q26 -68 151 -68q29 0 56 2.5t44.5 6t39 10.5
t31.5 11t30.5 13t27.5 12v-161q-70 -26 -126.5 -37.5t-152.5 -11.5q-107 0 -182 46.5t-104 127.5q-12 -84 -73.5 -129t-164.5 -45zM644 277l212 5q-4 36 -33 54t-73 18q-40 0 -69 -19.5t-37 -57.5zM322 119q45 1 81.5 24t38.5 65q-194 0 -194 -52q0 -17 21.5 -27t52.5 -10z
" />
    <glyph glyph-name="ccedilla" unicode="&#xe7;" horiz-adv-x="609" 
d="M379 -70q138 -10 215.5 -37t77.5 -70q0 -47 -118 -78t-308 -32v55q232 1 232 55t-232 58v53l31 53q-111 15 -174 85t-63 178q0 123 76 194.5t216 71.5q117 0 237 -54v-170q-104 62 -211 62q-58 0 -92 -28.5t-34 -75.5q0 -46 35 -75t94 -29q109 0 208 61v-169
q-93 -41 -160 -49z" />
    <glyph glyph-name="egrave" unicode="&#xe8;" horiz-adv-x="682" 
d="M361 544l-287 164v102l287 -186v-80zM341 -16q-136 0 -218.5 73t-82.5 193t82.5 193t218.5 73q134 0 216.5 -62.5t84.5 -164.5v-82h-402q26 -68 151 -68q29 0 56 2.5t44.5 6t39 10.5t31.5 11t30.5 13t27.5 12v-161q-70 -26 -126.5 -37.5t-152.5 -11.5zM235 277l212 5
q-4 36 -33 54t-73 18q-40 0 -69 -19.5t-37 -57.5z" />
    <glyph glyph-name="eacute" unicode="&#xe9;" horiz-adv-x="682" 
d="M317 544v80l287 186v-102zM341 -16q-136 0 -218.5 73t-82.5 193t82.5 193t218.5 73q134 0 216.5 -62.5t84.5 -164.5v-82h-402q26 -68 151 -68q29 0 56 2.5t44.5 6t39 10.5t31.5 11t30.5 13t27.5 12v-161q-70 -26 -126.5 -37.5t-152.5 -11.5zM235 277l212 5q-4 36 -33 54
t-73 18q-40 0 -69 -19.5t-37 -57.5z" />
    <glyph glyph-name="ecircumflex" unicode="&#xea;" horiz-adv-x="682" 
d="M628 555l-287 164l-287 -164v80l287 186l287 -186v-80zM642 289v-82h-402q26 -68 151 -68q29 0 56 2.5t44.5 6t39 10.5t31.5 11t30.5 13t27.5 12v-161q-70 -26 -126.5 -37.5t-152.5 -11.5q-136 0 -218.5 73t-82.5 193t82.5 193t218.5 73q134 0 216.5 -62.5t84.5 -164.5z
M235 277l212 5q-4 36 -33 54t-73 18q-40 0 -69 -19.5t-37 -57.5z" />
    <glyph glyph-name="edieresis" unicode="&#xeb;" horiz-adv-x="682" 
d="M200 538q-44 0 -71.5 23.5t-27.5 61.5t27.5 61.5t71.5 23.5q47 0 73 -23t26 -62t-26 -62t-73 -23zM490 538q-44 0 -71.5 23.5t-27.5 61.5t27.5 61.5t71.5 23.5q47 0 73 -23t26 -62t-26 -62t-73 -23zM341 -16q-136 0 -218.5 73t-82.5 193t82.5 193t218.5 73
q134 0 216.5 -62.5t84.5 -164.5v-82h-402q26 -68 151 -68q29 0 56 2.5t44.5 6t39 10.5t31.5 11t30.5 13t27.5 12v-161q-70 -26 -126.5 -37.5t-152.5 -11.5zM235 277l212 5q-4 36 -33 54t-73 18q-40 0 -69 -19.5t-37 -57.5z" />
    <glyph glyph-name="igrave" unicode="&#xec;" horiz-adv-x="228" 
d="M121 542l-287 164v102l287 -186v-80zM13 0v500h202v-500h-202z" />
    <glyph glyph-name="iacute" unicode="&#xed;" horiz-adv-x="228" 
d="M91 542v80l287 186v-102zM13 0v500h202v-500h-202z" />
    <glyph glyph-name="icircumflex" unicode="&#xee;" horiz-adv-x="228" 
d="M115 819l287 -186v-80l-287 164l-287 -164v80zM13 0v500h202v-500h-202z" />
    <glyph glyph-name="idieresis" unicode="&#xef;" horiz-adv-x="228" 
d="M-26 536q-44 0 -71.5 23.5t-27.5 61.5t27.5 61.5t71.5 23.5q47 0 73 -23t26 -62t-26 -62t-73 -23zM264 536q-44 0 -71.5 23.5t-27.5 61.5t27.5 61.5t71.5 23.5q47 0 73 -23t26 -62t-26 -62t-73 -23zM13 0v500h202v-500h-202z" />
    <glyph glyph-name="eth" unicode="&#xf0;" horiz-adv-x="837" 
d="M807 616l-82 -24q81 -100 81 -230q0 -186 -110 -280t-300 -94q-173 0 -269.5 63.5t-96.5 170.5q0 108 80 173t239 65q160 0 254 -117q1 6 1 19q0 84 -61 177l-176 -51l-28 99l127 37q-62 47 -127 47l4 84q167 0 292 -82l143 41zM405 160q68 0 114 30t67 80
q-101 45 -212 45q-68 0 -104.5 -20.5t-36.5 -57.5q0 -38 48 -57.5t124 -19.5z" />
    <glyph glyph-name="ntilde" unicode="&#xf1;" horiz-adv-x="758" 
d="M476 572q-31 0 -56 18t-44 36t-35 18q-28 0 -44.5 -18t-17.5 -53h-61q1 58 35 94t88 36q34 0 73 -36t62 -36q62 0 63 71h60q-1 -59 -35 -94.5t-88 -35.5zM50 0v500h216l-20 -206h10q19 123 75.5 172.5t175.5 49.5q56 -1 91 -12.5t61.5 -44t37.5 -91t11 -151.5v-217h-202
v200q0 96 -25.5 130t-89.5 34q-60 0 -99.5 -56t-39.5 -140v-168h-202z" />
    <glyph glyph-name="ograve" unicode="&#xf2;" horiz-adv-x="722" 
d="M368 544l-287 164v102l287 -186v-80zM361 -16q-145 0 -233 73t-88 193t88 193t233 73t233 -73t88 -193t-88 -193t-233 -73zM361 146q58 0 93.5 28.5t35.5 75.5t-35.5 75.5t-93.5 28.5t-93.5 -28.5t-35.5 -75.5t35.5 -75.5t93.5 -28.5z" />
    <glyph glyph-name="oacute" unicode="&#xf3;" horiz-adv-x="722" 
d="M338 544v80l287 186v-102zM361 -16q-145 0 -233 73t-88 193t88 193t233 73t233 -73t88 -193t-88 -193t-233 -73zM361 146q58 0 93.5 28.5t35.5 75.5t-35.5 75.5t-93.5 28.5t-93.5 -28.5t-35.5 -75.5t35.5 -75.5t93.5 -28.5z" />
    <glyph glyph-name="ocircumflex" unicode="&#xf4;" horiz-adv-x="722" 
d="M649 555l-287 164l-287 -164v80l287 186l287 -186v-80zM361 516q145 0 233 -73t88 -193t-88 -193t-233 -73t-233 73t-88 193t88 193t233 73zM361 146q58 0 93.5 28.5t35.5 75.5t-35.5 75.5t-93.5 28.5t-93.5 -28.5t-35.5 -75.5t35.5 -75.5t93.5 -28.5z" />
    <glyph glyph-name="otilde" unicode="&#xf5;" horiz-adv-x="722" 
d="M447 572q-31 0 -56 18t-44 36t-35 18q-28 0 -44.5 -18t-17.5 -53h-61q1 58 35 94t88 36q34 0 73 -36t62 -36q62 0 63 71h60q-1 -59 -35 -94.5t-88 -35.5zM361 -16q-145 0 -233 73t-88 193t88 193t233 73t233 -73t88 -193t-88 -193t-233 -73zM361 146q58 0 93.5 28.5
t35.5 75.5t-35.5 75.5t-93.5 28.5t-93.5 -28.5t-35.5 -75.5t35.5 -75.5t93.5 -28.5z" />
    <glyph glyph-name="odieresis" unicode="&#xf6;" horiz-adv-x="722" 
d="M221 538q-44 0 -71.5 23.5t-27.5 61.5t27.5 61.5t71.5 23.5q47 0 73 -23t26 -62t-26 -62t-73 -23zM511 538q-44 0 -71.5 23.5t-27.5 61.5t27.5 61.5t71.5 23.5q47 0 73 -23t26 -62t-26 -62t-73 -23zM361 -16q-145 0 -233 73t-88 193t88 193t233 73t233 -73t88 -193
t-88 -193t-233 -73zM361 146q58 0 93.5 28.5t35.5 75.5t-35.5 75.5t-93.5 28.5t-93.5 -28.5t-35.5 -75.5t35.5 -75.5t93.5 -28.5z" />
    <glyph glyph-name="divide" unicode="&#xf7;" horiz-adv-x="600" 
d="M292 449q-52 0 -82 28t-30 79t30 79t82 28t82.5 -28t30.5 -79t-29.5 -79t-83.5 -28zM30 244v173h520v-173h-520zM292 -10q-52 0 -82 28t-30 79t30 79t82 28t82.5 -28t30.5 -79t-29.5 -79t-83.5 -28z" />
    <glyph glyph-name="oslash" unicode="&#xf8;" horiz-adv-x="722" 
d="M744 500l-113 -95q51 -65 51 -155q0 -120 -88 -193t-233 -73q-105 0 -183 40l-28 -24h-171l112 95q-51 65 -51 155q0 120 88 193t233 73q106 0 183 -40l29 24h171zM232 250q0 -16 5 -33l159 134q-16 3 -35 3q-58 0 -93.5 -28.5t-35.5 -75.5zM490 250q0 15 -5 32
l-158 -133q16 -3 34 -3q58 0 93.5 28.5t35.5 75.5z" />
    <glyph glyph-name="ugrave" unicode="&#xf9;" horiz-adv-x="758" 
d="M369 544l-287 164v102l287 -186v-80zM708 500v-500h-216l20 206h-10q-19 -123 -75.5 -172.5t-175.5 -49.5q-56 1 -91 12.5t-61.5 44t-37.5 91t-11 151.5v217h202v-200q0 -96 25.5 -130t89.5 -34q60 0 99.5 56t39.5 140v168h202z" />
    <glyph glyph-name="uacute" unicode="&#xfa;" horiz-adv-x="758" 
d="M339 544v80l287 186v-102zM708 500v-500h-216l20 206h-10q-19 -123 -75.5 -172.5t-175.5 -49.5q-56 1 -91 12.5t-61.5 44t-37.5 91t-11 151.5v217h202v-200q0 -96 25.5 -130t89.5 -34q60 0 99.5 56t39.5 140v168h202z" />
    <glyph glyph-name="ucircumflex" unicode="&#xfb;" horiz-adv-x="758" 
d="M650 555l-287 164l-287 -164v80l287 186l287 -186v-80zM506 500h202v-500h-216l20 206h-10q-19 -123 -75.5 -172.5t-175.5 -49.5q-56 1 -91 12.5t-61.5 44t-37.5 91t-11 151.5v217h202v-200q0 -96 25.5 -130t89.5 -34q60 0 99.5 56t39.5 140v168z" />
    <glyph glyph-name="udieresis" unicode="&#xfc;" horiz-adv-x="758" 
d="M222 538q-44 0 -71.5 23.5t-27.5 61.5t27.5 61.5t71.5 23.5q47 0 73 -23t26 -62t-26 -62t-73 -23zM512 538q-44 0 -71.5 23.5t-27.5 61.5t27.5 61.5t71.5 23.5q47 0 73 -23t26 -62t-26 -62t-73 -23zM708 500v-500h-216l20 206h-10q-19 -123 -75.5 -172.5t-175.5 -49.5
q-56 1 -91 12.5t-61.5 44t-37.5 91t-11 151.5v217h202v-200q0 -96 25.5 -130t89.5 -34q60 0 99.5 56t39.5 140v168h202z" />
    <glyph glyph-name="yacute" unicode="&#xfd;" horiz-adv-x="806" 
d="M389 544v80l287 186v-102zM184 -200l111 211l-270 489h232l148 -280l147 280h229l-369 -700h-228z" />
    <glyph glyph-name="thorn" unicode="&#xfe;" horiz-adv-x="716" 
d="M465 516q105 0 163 -71.5t58 -198.5q0 -126 -58.5 -194t-164.5 -68q-83 0 -146 45.5t-81 132.5h-4v-362h-202v900h206l-22 -363h12q18 88 85.5 133.5t153.5 45.5zM359 155q125 0 125 93q0 97 -125 97q-127 0 -127 -97q0 -93 127 -93z" />
    <glyph glyph-name="ydieresis" unicode="&#xff;" horiz-adv-x="806" 
d="M272 538q-44 0 -71.5 23.5t-27.5 61.5t27.5 61.5t71.5 23.5q47 0 73 -23t26 -62t-26 -62t-73 -23zM562 538q-44 0 -71.5 23.5t-27.5 61.5t27.5 61.5t71.5 23.5q47 0 73 -23t26 -62t-26 -62t-73 -23zM184 -200l111 211l-270 489h232l148 -280l147 280h229l-369 -700h-228z
" />
    <glyph glyph-name="Amacron" unicode="&#x100;" horiz-adv-x="1105" 
d="M287 846v54h532v-54h-532zM25 0l419 700h217l419 -700h-239l-66 118h-445l-66 -118h-239zM426 290h253l-126 228z" />
    <glyph glyph-name="amacron" unicode="&#x101;" horiz-adv-x="694" 
d="M120 646v54h532v-54h-532zM226 -16q-186 0 -186 132q0 81 97.5 123t304.5 55q0 21 -25.5 34t-66.5 13q-58 0 -127 -14.5t-120 -36.5v172q146 54 287 54q254 0 254 -234v-282h-192l19 179h-12q-23 -107 -72.5 -151t-160.5 -44zM320 120q48 0 85.5 24.5t36.5 71.5
q-194 -12 -194 -60q0 -17 20.5 -26.5t51.5 -9.5z" />
    <glyph glyph-name="Abreve" unicode="&#x102;" horiz-adv-x="1105" 
d="M553 751q-93 0 -152.5 41t-60.5 108h105q1 -40 30.5 -60.5t77.5 -20.5q104 0 110 81h103q-1 -69 -56.5 -109t-156.5 -40zM25 0l419 700h217l419 -700h-239l-66 118h-445l-66 -118h-239zM426 290h253l-126 228z" />
    <glyph glyph-name="abreve" unicode="&#x103;" horiz-adv-x="694" 
d="M386 551q-93 0 -152.5 41t-60.5 108h105q1 -40 30.5 -60.5t77.5 -20.5q104 0 110 81h103q-1 -69 -56.5 -109t-156.5 -40zM226 -16q-186 0 -186 132q0 81 97.5 123t304.5 55q0 21 -25.5 34t-66.5 13q-58 0 -127 -14.5t-120 -36.5v172q146 54 287 54q254 0 254 -234v-282
h-192l19 179h-12q-23 -107 -72.5 -151t-160.5 -44zM320 120q48 0 85.5 24.5t36.5 71.5q-194 -12 -194 -60q0 -17 20.5 -26.5t51.5 -9.5z" />
    <glyph glyph-name="Aogonek" unicode="&#x104;" horiz-adv-x="1105" 
d="M1019 -107q43 0 84 9l-3 -116q-52 -16 -112 -16q-94 0 -162 39t-68 101q0 57 64 121l1 1l-48 86h-445l-66 -118h-239l419 700h217l419 -700h-162q-27 -28 -27 -50q0 -28 36.5 -42.5t91.5 -14.5zM426 290h253l-126 228z" />
    <glyph glyph-name="aogonek" unicode="&#x105;" horiz-adv-x="694" 
d="M661 -107q43 0 84 9l-3 -116q-52 -16 -112 -16q-94 0 -162 39t-68 101q0 53 54 111l17 158h-12q-23 -107 -72.5 -151t-160.5 -44q-186 0 -186 132q0 81 97.5 123t304.5 55q0 21 -25.5 34t-66.5 13q-58 0 -127 -14.5t-120 -36.5v172q146 54 287 54q254 0 254 -234v-282
h-84q-27 -28 -27 -50q0 -28 36.5 -42.5t91.5 -14.5zM320 120q48 0 85.5 24.5t36.5 71.5q-194 -12 -194 -60q0 -17 20.5 -26.5t51.5 -9.5z" />
    <glyph glyph-name="Cacute" unicode="&#x106;" horiz-adv-x="924" 
d="M438 744v80l287 186v-102zM462 -16q-190 0 -306 100.5t-116 265.5t116 265.5t306 100.5t306 -88t116 -233h-204q-7 74 -65 111.5t-153 37.5q-101 0 -160.5 -50t-59.5 -144t59.5 -144t160.5 -50q95 0 153.5 37.5t64.5 111.5h204q0 -145 -116 -233t-306 -88z" />
    <glyph glyph-name="cacute" unicode="&#x107;" horiz-adv-x="609" 
d="M308 544v80l287 186v-102zM331 -16q-135 0 -213 72.5t-78 193.5q0 123 76 194.5t216 71.5q117 0 237 -54v-170q-104 62 -211 62q-58 0 -92 -28.5t-34 -75.5q0 -46 35 -75t94 -29q109 0 208 61v-169q-66 -29 -117 -41.5t-121 -12.5z" />
    <glyph glyph-name="Cdotaccent" unicode="&#x10a;" horiz-adv-x="924" 
d="M471 738q-44 0 -71.5 23.5t-27.5 61.5t27.5 61.5t71.5 23.5q47 0 73 -23t26 -62t-26 -62t-73 -23zM462 -16q-190 0 -306 100.5t-116 265.5t116 265.5t306 100.5t306 -88t116 -233h-204q-7 74 -65 111.5t-153 37.5q-101 0 -160.5 -50t-59.5 -144t59.5 -144t160.5 -50
q95 0 153.5 37.5t64.5 111.5h204q0 -145 -116 -233t-306 -88z" />
    <glyph glyph-name="cdotaccent" unicode="&#x10b;" horiz-adv-x="609" 
d="M332 538q-44 0 -71.5 23.5t-27.5 61.5t27.5 61.5t71.5 23.5q47 0 73 -23t26 -62t-26 -62t-73 -23zM331 -16q-135 0 -213 72.5t-78 193.5q0 123 76 194.5t216 71.5q117 0 237 -54v-170q-104 62 -211 62q-58 0 -92 -28.5t-34 -75.5q0 -46 35 -75t94 -29q109 0 208 61v-169
q-66 -29 -117 -41.5t-121 -12.5z" />
    <glyph glyph-name="Ccaron" unicode="&#x10c;" horiz-adv-x="924" 
d="M749 941l-287 -186l-287 186v80l287 -164l287 164v-80zM462 156q95 0 153.5 37.5t64.5 111.5h204q0 -145 -116 -233t-306 -88t-306 100.5t-116 265.5t116 265.5t306 100.5t306 -88t116 -233h-204q-7 74 -65 111.5t-153 37.5q-101 0 -160.5 -50t-59.5 -144t59.5 -144
t160.5 -50z" />
    <glyph glyph-name="ccaron" unicode="&#x10d;" horiz-adv-x="609" 
d="M332 657l287 164v-80l-287 -186l-287 186v80zM40 250q0 123 76 194.5t216 71.5q117 0 237 -54v-170q-104 62 -211 62q-58 0 -92 -28.5t-34 -75.5q0 -46 35 -75t94 -29q109 0 208 61v-169q-66 -29 -117 -41.5t-121 -12.5q-135 0 -213 72.5t-78 193.5z" />
    <glyph glyph-name="Dcaron" unicode="&#x10e;" horiz-adv-x="865" 
d="M735 941l-287 -186l-287 186v80l287 -164l287 164v-80zM417 700q192 0 300 -90t108 -260q0 -171 -108 -260.5t-300 -89.5h-337v700h337zM417 172q105 0 155.5 43.5t50.5 134.5q0 93 -51 135.5t-155 42.5h-135v-356h135z" />
    <glyph glyph-name="dcaron" unicode="&#x10f;" horiz-adv-x="1040" 
d="M291 -16q-113 0 -182 74t-69 196q0 118 69.5 190t183.5 72q90 0 155.5 -49t81.5 -129h4v362h202v-700h-206l22 163h-12q-16 -80 -84.5 -129.5t-164.5 -49.5zM777 429l63 270h170l-113 -270h-120zM372 146q59 0 100.5 26.5t41.5 79.5q0 52 -41.5 77t-100.5 25
q-58 0 -99 -25t-41 -77q0 -53 41 -79.5t99 -26.5z" />
    <glyph glyph-name="Dcroat" unicode="&#x110;" horiz-adv-x="865" 
d="M417 700q192 0 300 -90t108 -260q0 -171 -108 -260.5t-300 -89.5h-337v264h-60v173h60v263h337zM417 172q105 0 155.5 43.5t50.5 134.5q0 93 -51 135.5t-155 42.5h-135v-91h238v-173h-238v-92h135z" />
    <glyph glyph-name="dcroat" unicode="&#x111;" horiz-adv-x="796" 
d="M796 639v-103h-60v-536h-206l22 163h-12q-16 -80 -84.5 -129.5t-164.5 -49.5q-113 0 -182 74t-69 196q0 118 69.5 190t183.5 72q90 0 155.5 -49t81.5 -129h4v198h-196v103h196v61h202v-61h60zM372 146q59 0 100.5 26.5t41.5 79.5q0 52 -41.5 77t-100.5 25q-58 0 -99 -25
t-41 -77q0 -53 41 -79.5t99 -26.5z" />
    <glyph glyph-name="Emacron" unicode="&#x112;" horiz-adv-x="855" 
d="M162 846v54h532v-54h-532zM80 0v700h705v-172h-503v-91h494v-163h-494v-102h503v-172h-705z" />
    <glyph glyph-name="emacron" unicode="&#x113;" horiz-adv-x="682" 
d="M75 646v54h532v-54h-532zM341 -16q-136 0 -218.5 73t-82.5 193t82.5 193t218.5 73q134 0 216.5 -62.5t84.5 -164.5v-82h-402q26 -68 151 -68q29 0 56 2.5t44.5 6t39 10.5t31.5 11t30.5 13t27.5 12v-161q-70 -26 -126.5 -37.5t-152.5 -11.5zM235 277l212 5q-4 36 -33 54
t-73 18q-40 0 -69 -19.5t-37 -57.5z" />
    <glyph glyph-name="Edotaccent" unicode="&#x116;" horiz-adv-x="855" 
d="M428 738q-44 0 -71.5 23.5t-27.5 61.5t27.5 61.5t71.5 23.5q47 0 73 -23t26 -62t-26 -62t-73 -23zM80 0v700h705v-172h-503v-91h494v-163h-494v-102h503v-172h-705z" />
    <glyph glyph-name="edotaccent" unicode="&#x117;" horiz-adv-x="682" 
d="M341 538q-44 0 -71.5 23.5t-27.5 61.5t27.5 61.5t71.5 23.5q47 0 73 -23t26 -62t-26 -62t-73 -23zM341 -16q-136 0 -218.5 73t-82.5 193t82.5 193t218.5 73q134 0 216.5 -62.5t84.5 -164.5v-82h-402q26 -68 151 -68q29 0 56 2.5t44.5 6t39 10.5t31.5 11t30.5 13t27.5 12
v-161q-70 -26 -126.5 -37.5t-152.5 -11.5zM235 277l212 5q-4 36 -33 54t-73 18q-40 0 -69 -19.5t-37 -57.5z" />
    <glyph glyph-name="Eogonek" unicode="&#x118;" horiz-adv-x="855" 
d="M785 528h-503v-91h494v-163h-494v-102h503v-172h-302q-27 -28 -27 -50q0 -28 36.5 -42.5t91.5 -14.5q44 0 84 9l-3 -116q-52 -16 -112 -16q-94 0 -162 39t-68 101q0 43 37 90h-280v700h705v-172z" />
    <glyph glyph-name="eogonek" unicode="&#x119;" horiz-adv-x="682" 
d="M642 289v-82h-402q26 -68 151 -68q29 0 56 2.5t44.5 6t39 10.5t31.5 11t30.5 13t27.5 12v-161q-62 -23 -109.5 -34t-120.5 -14q-14 -18 -14 -35q0 -28 36.5 -42.5t91.5 -14.5q44 0 84 9l-3 -116q-52 -16 -112 -16q-94 0 -162 39t-68 101q0 38 29 80q-107 17 -169.5 86.5
t-62.5 173.5q0 120 82.5 193t218.5 73q134 0 216.5 -62.5t84.5 -164.5zM235 277l212 5q-4 36 -33 54t-73 18q-40 0 -69 -19.5t-37 -57.5z" />
    <glyph glyph-name="Ecaron" unicode="&#x11a;" horiz-adv-x="855" 
d="M715 941l-287 -186l-287 186v80l287 -164l287 164v-80zM785 528h-503v-91h494v-163h-494v-102h503v-172h-705v700h705v-172z" />
    <glyph glyph-name="ecaron" unicode="&#x11b;" horiz-adv-x="682" 
d="M628 741l-287 -186l-287 186v80l287 -164l287 164v-80zM642 289v-82h-402q26 -68 151 -68q29 0 56 2.5t44.5 6t39 10.5t31.5 11t30.5 13t27.5 12v-161q-70 -26 -126.5 -37.5t-152.5 -11.5q-136 0 -218.5 73t-82.5 193t82.5 193t218.5 73q134 0 216.5 -62.5t84.5 -164.5z
M235 277l212 5q-4 36 -33 54t-73 18q-40 0 -69 -19.5t-37 -57.5z" />
    <glyph glyph-name="Gbreve" unicode="&#x11e;" horiz-adv-x="954" 
d="M472 751q-93 0 -152.5 41t-60.5 108h105q1 -40 30.5 -60.5t77.5 -20.5q104 0 110 81h103q-1 -69 -56.5 -109t-156.5 -40zM472 -16q-190 0 -306 100.5t-116 265.5t116 265.5t306 100.5q182 0 301.5 -75.5t119.5 -196.5h-211q0 100 -210 100q-101 0 -160.5 -50t-59.5 -144
t59.5 -144t160.5 -50q175 0 212 97h-317v140h537v-393h-116l-15 149q-37 -83 -115.5 -124t-185.5 -41z" />
    <glyph glyph-name="gbreve" unicode="&#x11f;" horiz-adv-x="804" 
d="M444 551q-93 0 -152.5 41t-60.5 108h105q1 -40 30.5 -60.5t77.5 -20.5q104 0 110 81h103q-1 -69 -56.5 -109t-156.5 -40zM404 -200q-161 0 -280 29v168q28 -14 93 -24.5t140 -10.5q106 0 144 36t45 143v6q-20 -70 -85.5 -106.5t-159.5 -36.5q-115 0 -183 65.5t-68 184.5
q0 118 69.5 190t183.5 72q90 0 155.5 -49t81.5 -129h17l-16 162h203v-440q0 -132 -91 -196t-249 -64zM382 146q59 0 100.5 26.5t41.5 79.5q0 52 -41.5 77t-100.5 25q-58 0 -99 -25t-41 -77q0 -53 41 -79.5t99 -26.5z" />
    <glyph glyph-name="Gdotaccent" unicode="&#x120;" horiz-adv-x="954" 
d="M472 738q-44 0 -71.5 23.5t-27.5 61.5t27.5 61.5t71.5 23.5q47 0 73 -23t26 -62t-26 -62t-73 -23zM472 -16q-190 0 -306 100.5t-116 265.5t116 265.5t306 100.5q182 0 301.5 -75.5t119.5 -196.5h-211q0 100 -210 100q-101 0 -160.5 -50t-59.5 -144t59.5 -144t160.5 -50
q175 0 212 97h-317v140h537v-393h-116l-15 149q-37 -83 -115.5 -124t-185.5 -41z" />
    <glyph glyph-name="gdotaccent" unicode="&#x121;" horiz-adv-x="804" 
d="M444 538q-44 0 -71.5 23.5t-27.5 61.5t27.5 61.5t71.5 23.5q47 0 73 -23t26 -62t-26 -62t-73 -23zM404 -200q-161 0 -280 29v168q28 -14 93 -24.5t140 -10.5q106 0 144 36t45 143v6q-20 -70 -85.5 -106.5t-159.5 -36.5q-115 0 -183 65.5t-68 184.5q0 118 69.5 190
t183.5 72q90 0 155.5 -49t81.5 -129h17l-16 162h203v-440q0 -132 -91 -196t-249 -64zM382 146q59 0 100.5 26.5t41.5 79.5q0 52 -41.5 77t-100.5 25q-58 0 -99 -25t-41 -77q0 -53 41 -79.5t99 -26.5z" />
    <glyph glyph-name="Gcommaaccent" unicode="&#x122;" horiz-adv-x="954" 
d="M472 -16q-190 0 -306 100.5t-116 265.5t116 265.5t306 100.5q182 0 301.5 -75.5t119.5 -196.5h-211q0 100 -210 100q-101 0 -160.5 -50t-59.5 -144t59.5 -144t160.5 -50q175 0 212 97h-317v140h537v-393h-116l-15 149q-37 -83 -115.5 -124t-185.5 -41zM338 -350l63 270
h170l-113 -270h-120z" />
    <glyph glyph-name="gcommaaccent" unicode="&#x123;" horiz-adv-x="804" 
d="M404 -200q-161 0 -280 29v168q28 -14 93 -24.5t140 -10.5q106 0 144 36t45 143v6q-20 -70 -85.5 -106.5t-159.5 -36.5q-115 0 -183 65.5t-68 184.5q0 118 69.5 190t183.5 72q90 0 155.5 -49t81.5 -129h17l-16 162h203v-440q0 -132 -91 -196t-249 -64zM382 146
q59 0 100.5 26.5t41.5 79.5q0 52 -41.5 77t-100.5 25q-58 0 -99 -25t-41 -77q0 -53 41 -79.5t99 -26.5zM238 -532l63 270h170l-113 -270h-120z" />
    <glyph glyph-name="Hbar" unicode="&#x126;" horiz-adv-x="975" 
d="M954 642v-133h-59v-509h-202v279h-411v-279h-202v509h-59v133h59v58h202v-58h411v58h202v-58h59zM693 452v57h-411v-57h411z" />
    <glyph glyph-name="hbar" unicode="&#x127;" horiz-adv-x="748" 
d="M507 516q56 -1 91 -12.5t61.5 -44t37.5 -91t11 -151.5v-217h-202v200q0 96 -25.5 130t-89.5 34q-60 0 -99.5 -56t-39.5 -140v-168h-202v536h-35v103h35v61h216l-3 -61h210v-103h-215l-12 -242h10q19 123 75.5 172.5t175.5 49.5z" />
    <glyph glyph-name="Imacron" unicode="&#x12a;" horiz-adv-x="362" 
d="M-85 846v54h532v-54h-532zM80 0v700h202v-700h-202z" />
    <glyph glyph-name="imacron" unicode="&#x12b;" horiz-adv-x="228" 
d="M-151 644v54h532v-54h-532zM13 0v500h202v-500h-202z" />
    <glyph glyph-name="Iogonek" unicode="&#x12e;" horiz-adv-x="362" 
d="M289 -107q43 0 84 9l-3 -116q-52 -16 -112 -16q-94 0 -162 39t-68 101q0 50 52 108v682h202v-700h-94q-27 -28 -27 -50q0 -28 36.5 -42.5t91.5 -14.5z" />
    <glyph glyph-name="iogonek" unicode="&#x12f;" horiz-adv-x="302" 
d="M150 541q-59 0 -88 24t-29 79t29 79t88 24t89 -24t30 -79t-29 -79t-90 -24zM264 -107q44 0 84 9l-3 -116q-52 -16 -112 -16q-94 0 -162 39t-68 101q0 50 48 104v486h202v-500h-90q-27 -28 -27 -50q0 -28 36.5 -42.5t91.5 -14.5z" />
    <glyph glyph-name="Idotaccent" unicode="&#x130;" horiz-adv-x="362" 
d="M184 738q-44 0 -71.5 23.5t-27.5 61.5t27.5 61.5t71.5 23.5q47 0 73 -23t26 -62t-26 -62t-73 -23zM80 0v700h202v-700h-202z" />
    <glyph glyph-name="dotlessi" unicode="&#x131;" horiz-adv-x="228" 
d="M13 0v500h202v-500h-202z" />
    <glyph glyph-name="Kcommaaccent" unicode="&#x136;" horiz-adv-x="972" 
d="M80 0v700h202v-316l328 316h300l-278 -246l310 -454h-281l-195 307l-184 -162v-145h-202zM318 -350l63 270h170l-113 -270h-120z" />
    <glyph glyph-name="kcommaaccent" unicode="&#x137;" horiz-adv-x="722" 
d="M50 0v700h202v-354l156 154h278l-190 -170l206 -330h-251l-110 193l-89 -79v-114h-202zM204 -350l63 270h170l-113 -270h-120z" />
    <glyph glyph-name="Lacute" unicode="&#x139;" horiz-adv-x="755" 
d="M80 744v80l287 186v-102zM80 0v700h202v-528h443v-172h-645z" />
    <glyph glyph-name="lacute" unicode="&#x13a;" horiz-adv-x="302" 
d="M128 744v80l287 186v-102zM50 0v700h202v-700h-202z" />
    <glyph glyph-name="Lcommaaccent" unicode="&#x13b;" horiz-adv-x="755" 
d="M80 0v700h202v-528h443v-172h-645zM256 -350l63 270h170l-113 -270h-120z" />
    <glyph glyph-name="lcommaaccent" unicode="&#x13c;" horiz-adv-x="302" 
d="M50 0v700h202v-700h-202zM3 -350l63 270h170l-113 -270h-120z" />
    <glyph glyph-name="Lcaron" unicode="&#x13d;" horiz-adv-x="755" 
d="M80 0v700h202v-528h443v-172h-645zM338 429l63 270h170l-113 -270h-120z" />
    <glyph glyph-name="lcaron" unicode="&#x13e;" horiz-adv-x="512" 
d="M50 0v700h202v-700h-202zM269 429l63 270h170l-113 -270h-120z" />
    <glyph glyph-name="Lslash" unicode="&#x141;" horiz-adv-x="755" 
d="M282 172h443v-172h-645v244l-10 -6l-65 114l75 43v305h202v-189l188 108l66 -113l-254 -146v-188z" />
    <glyph glyph-name="lslash" unicode="&#x142;" horiz-adv-x="591" 
d="M561 506l-140 -81v-425h-202v309l-124 -71l-65 114l189 109v239h202v-123l74 42z" />
    <glyph glyph-name="Nacute" unicode="&#x143;" horiz-adv-x="978" 
d="M465 744v80l287 186v-102zM80 0v700h159l457 -386v386h202v-700h-160l-456 386v-386h-202z" />
    <glyph glyph-name="nacute" unicode="&#x144;" horiz-adv-x="758" 
d="M367 544v80l287 186v-102zM50 0v500h216l-20 -206h10q19 123 75.5 172.5t175.5 49.5q56 -1 91 -12.5t61.5 -44t37.5 -91t11 -151.5v-217h-202v200q0 96 -25.5 130t-89.5 34q-60 0 -99.5 -56t-39.5 -140v-168h-202z" />
    <glyph glyph-name="Ncommaaccent" unicode="&#x145;" horiz-adv-x="978" 
d="M80 0v700h159l457 -386v386h202v-700h-160l-456 386v-386h-202zM345 -350l63 270h170l-113 -270h-120z" />
    <glyph glyph-name="ncommaaccent" unicode="&#x146;" horiz-adv-x="758" 
d="M50 0v500h216l-20 -206h10q19 123 75.5 172.5t175.5 49.5q56 -1 91 -12.5t61.5 -44t37.5 -91t11 -151.5v-217h-202v200q0 96 -25.5 130t-89.5 34q-60 0 -99.5 -56t-39.5 -140v-168h-202zM228 -350l63 270h170l-113 -270h-120z" />
    <glyph glyph-name="Ncaron" unicode="&#x147;" horiz-adv-x="978" 
d="M776 941l-287 -186l-287 186v80l287 -164l287 164v-80zM696 700h202v-700h-160l-456 386v-386h-202v700h159l457 -386v386z" />
    <glyph glyph-name="ncaron" unicode="&#x148;" horiz-adv-x="758" 
d="M678 741l-287 -186l-287 186v80l287 -164l287 164v-80zM507 516q56 -1 91 -12.5t61.5 -44t37.5 -91t11 -151.5v-217h-202v200q0 96 -25.5 130t-89.5 34q-60 0 -99.5 -56t-39.5 -140v-168h-202v500h216l-20 -206h10q19 123 75.5 172.5t175.5 49.5z" />
    <glyph glyph-name="Eng" unicode="&#x14a;" horiz-adv-x="978" 
d="M696 700h202v-700q0 -82 -37 -124t-126 -59t-265 -17v89q290 0 290 70q0 19 -22 41l-456 386v-386h-202v700h159l457 -386v386z" />
    <glyph glyph-name="eng" unicode="&#x14b;" horiz-adv-x="758" 
d="M507 516q56 -1 91 -12.5t61.5 -44t37.5 -91t11 -151.5v-217q0 -46 -5 -74.5t-23.5 -53t-46.5 -37t-83 -21.5t-124 -11.5t-177 -2.5v89q148 0 202.5 14t54.5 65v32v200q0 96 -25.5 130t-89.5 34q-60 0 -99.5 -56t-39.5 -140v-168h-202v500h216l-20 -206h10
q19 123 75.5 172.5t175.5 49.5z" />
    <glyph glyph-name="Omacron" unicode="&#x14c;" horiz-adv-x="965" 
d="M217 846v54h532v-54h-532zM482 -16q-203 0 -322.5 100t-119.5 266t119.5 266t322.5 100q204 0 323.5 -100t119.5 -266t-119.5 -266t-323.5 -100zM482 156q116 0 178.5 49.5t62.5 144.5t-62.5 144.5t-178.5 49.5q-115 0 -177.5 -49.5t-62.5 -144.5t62.5 -144.5
t177.5 -49.5z" />
    <glyph glyph-name="omacron" unicode="&#x14d;" horiz-adv-x="722" 
d="M105 646v54h532v-54h-532zM361 -16q-145 0 -233 73t-88 193t88 193t233 73t233 -73t88 -193t-88 -193t-233 -73zM361 146q58 0 93.5 28.5t35.5 75.5t-35.5 75.5t-93.5 28.5t-93.5 -28.5t-35.5 -75.5t35.5 -75.5t93.5 -28.5z" />
    <glyph glyph-name="Ohungarumlaut" unicode="&#x150;" horiz-adv-x="965" 
d="M347 744v80l287 186v-102zM597 744v80l287 186v-102zM482 -16q-203 0 -322.5 100t-119.5 266t119.5 266t322.5 100q204 0 323.5 -100t119.5 -266t-119.5 -266t-323.5 -100zM482 156q116 0 178.5 49.5t62.5 144.5t-62.5 144.5t-178.5 49.5q-115 0 -177.5 -49.5
t-62.5 -144.5t62.5 -144.5t177.5 -49.5z" />
    <glyph glyph-name="ohungarumlaut" unicode="&#x151;" horiz-adv-x="722" 
d="M226 544v80l287 186v-102zM476 544v80l287 186v-102zM361 -16q-145 0 -233 73t-88 193t88 193t233 73t233 -73t88 -193t-88 -193t-233 -73zM361 146q58 0 93.5 28.5t35.5 75.5t-35.5 75.5t-93.5 28.5t-93.5 -28.5t-35.5 -75.5t35.5 -75.5t93.5 -28.5z" />
    <glyph glyph-name="OE" unicode="&#x152;" horiz-adv-x="1515" 
d="M1445 528h-503v-91h494v-163h-494v-102h503v-172h-705v40q-107 -56 -258 -56q-203 0 -322.5 100t-119.5 266t119.5 266t322.5 100q151 0 258 -56v40h705v-172zM482 156q116 0 178.5 49.5t62.5 144.5t-62.5 144.5t-178.5 49.5q-115 0 -177.5 -49.5t-62.5 -144.5
t62.5 -144.5t177.5 -49.5z" />
    <glyph glyph-name="oe" unicode="&#x153;" horiz-adv-x="1134" 
d="M1094 289v-82h-402q26 -68 151 -68q29 0 56 2.5t44.5 6t39 10.5t31.5 11t30.5 13t27.5 12v-161q-70 -26 -126.5 -37.5t-152.5 -11.5q-127 0 -209 65q-89 -65 -223 -65q-145 0 -233 73t-88 193t88 193t233 73q134 0 223 -65q82 65 209 65q134 0 216.5 -62.5t84.5 -164.5z
M361 146q58 0 93.5 28.5t35.5 75.5t-35.5 75.5t-93.5 28.5t-93.5 -28.5t-35.5 -75.5t35.5 -75.5t93.5 -28.5zM687 277l212 5q-4 36 -33 54t-73 18q-40 0 -69 -19.5t-37 -57.5z" />
    <glyph glyph-name="Racute" unicode="&#x154;" horiz-adv-x="941" 
d="M428 744v80l287 186v-102zM80 0v700h565q106 0 165.5 -51t59.5 -134t-61 -129.5t-164 -46.5h-72q64 -4 110.5 -24t87.5 -66t72 -99.5t78 -149.5h-266q-4 7 -11 20q-92 164 -124 204q-42 50 -99 56q-14 2 -30 2h-110l1 -282h-202zM281 435h329q58 0 58 51q0 52 -58 52
h-330z" />
    <glyph glyph-name="racute" unicode="&#x155;" horiz-adv-x="541" 
d="M267 544v80l287 186v-102zM50 0v500h216l-20 -206h10q19 121 79.5 171.5t180.5 50.5v-172q-61 0 -97.5 -3t-72 -12.5t-54 -29t-29.5 -51.5t-11 -80v-168h-202z" />
    <glyph glyph-name="Rcommaaccent" unicode="&#x156;" horiz-adv-x="941" 
d="M80 0v700h565q106 0 165.5 -51t59.5 -134t-61 -129.5t-164 -46.5h-72q64 -4 110.5 -24t87.5 -66t72 -99.5t78 -149.5h-266q-4 7 -11 20q-92 164 -124 204q-42 50 -99 56q-14 2 -30 2h-110l1 -282h-202zM281 435h329q58 0 58 51q0 52 -58 52h-330zM310 -350l63 270h170
l-113 -270h-120z" />
    <glyph glyph-name="rcommaaccent" unicode="&#x157;" horiz-adv-x="541" 
d="M50 0v500h216l-20 -206h10q19 121 79.5 171.5t180.5 50.5v-172q-61 0 -97.5 -3t-72 -12.5t-54 -29t-29.5 -51.5t-11 -80v-168h-202zM0 -350l63 270h170l-113 -270h-120z" />
    <glyph glyph-name="Rcaron" unicode="&#x158;" horiz-adv-x="941" 
d="M739 941l-287 -186l-287 186v80l287 -164l287 164v-80zM573 339q64 -4 110.5 -24t87.5 -66t72 -99.5t78 -149.5h-266q-4 7 -11 20q-92 164 -124 204q-42 50 -99 56q-14 2 -30 2h-110l1 -282h-202v700h565q106 0 165.5 -51t59.5 -134t-61 -129.5t-164 -46.5h-72zM281 435
h329q58 0 58 51q0 52 -58 52h-330z" />
    <glyph glyph-name="rcaron" unicode="&#x159;" horiz-adv-x="541" 
d="M291 657l287 164v-80l-287 -186l-287 186v80zM256 294q19 121 79.5 171.5t180.5 50.5v-172q-61 0 -97.5 -3t-72 -12.5t-54 -29t-29.5 -51.5t-11 -80v-168h-202v500h216l-20 -206h10z" />
    <glyph glyph-name="Sacute" unicode="&#x15a;" horiz-adv-x="886" 
d="M414 744v80l287 186v-102zM448 -16q-186 0 -298 67.5t-110 179.5h216q-1 -15 12.5 -30.5t55 -29.5t106.5 -15q213 -4 213 60q0 23 -43.5 33.5t-108.5 12t-141.5 11t-141.5 26.5t-108.5 62.5t-43.5 116.5q0 108 103 173t271 65q173 0 281 -68t109 -179h-216q0 11 -6 22.5
t-21.5 23.5t-49 20t-80.5 9q-88 2 -138 -10.5t-50 -49.5q0 -22 32.5 -34t84 -17t114.5 -9.5t125.5 -15.5t114 -30.5t84 -59t32.5 -96.5q0 -108 -109 -173t-289 -65z" />
    <glyph glyph-name="sacute" unicode="&#x15b;" horiz-adv-x="664" 
d="M308 544v80l287 186v-102zM330 -16q-133 0 -268 39v169q113 -43 238 -43q132 0 132 24q0 15 -29 21t-72.5 5t-94.5 4.5t-94.5 16t-72.5 42t-29 80.5q0 87 78.5 130.5t215.5 43.5q107 0 250 -28v-169q-123 26 -220 26q-132 0 -132 -21q0 -12 40.5 -14t98 -3.5t115 -10.5
t98 -44t40.5 -96q0 -172 -294 -172z" />
    <glyph glyph-name="Scedilla" unicode="&#x15e;" horiz-adv-x="886" 
d="M846 222q0 -99 -92 -162t-247 -74l-29 -56q138 -10 215.5 -37t77.5 -70q0 -47 -118 -78t-308 -32v55q232 1 232 55t-232 58v53l30 53q-155 13 -246 78.5t-89 165.5h216q-1 -15 12.5 -30.5t55 -29.5t106.5 -15q213 -4 213 60q0 23 -43.5 33.5t-108.5 12t-141.5 11
t-141.5 26.5t-108.5 62.5t-43.5 116.5q0 108 103 173t271 65q173 0 281 -68t109 -179h-216q0 11 -6 22.5t-21.5 23.5t-49 20t-80.5 9q-88 2 -138 -10.5t-50 -49.5q0 -22 32.5 -34t84 -17t114.5 -9.5t125.5 -15.5t114 -30.5t84 -59t32.5 -96.5z" />
    <glyph glyph-name="scedilla" unicode="&#x15f;" horiz-adv-x="664" 
d="M362 -70q138 -10 215.5 -37t77.5 -70q0 -47 -118 -78t-308 -32v55q232 1 232 55t-232 58v53l31 53q-105 10 -198 36v169q113 -43 238 -43q132 0 132 24q0 15 -29 21t-72.5 5t-94.5 4.5t-94.5 16t-72.5 42t-29 80.5q0 87 78.5 130.5t215.5 43.5q107 0 250 -28v-169
q-123 26 -220 26q-132 0 -132 -21q0 -12 40.5 -14t98 -3.5t115 -10.5t98 -44t40.5 -96q0 -152 -233 -170z" />
    <glyph glyph-name="Scaron" unicode="&#x160;" horiz-adv-x="886" 
d="M725 941l-287 -186l-287 186v80l287 -164l287 164v-80zM259 484q0 -22 32.5 -34t84 -17t114.5 -9.5t125.5 -15.5t114 -30.5t84 -59t32.5 -96.5q0 -108 -109 -173t-289 -65q-186 0 -298 67.5t-110 179.5h216q-1 -15 12.5 -30.5t55 -29.5t106.5 -15q213 -4 213 60
q0 23 -43.5 33.5t-108.5 12t-141.5 11t-141.5 26.5t-108.5 62.5t-43.5 116.5q0 108 103 173t271 65q173 0 281 -68t109 -179h-216q0 11 -6 22.5t-21.5 23.5t-49 20t-80.5 9q-88 2 -138 -10.5t-50 -49.5z" />
    <glyph glyph-name="scaron" unicode="&#x161;" horiz-adv-x="664" 
d="M619 741l-287 -186l-287 186v80l287 -164l287 164v-80zM232 324q0 -12 40.5 -14t98 -3.5t115 -10.5t98 -44t40.5 -96q0 -172 -294 -172q-133 0 -268 39v169q113 -43 238 -43q132 0 132 24q0 15 -29 21t-72.5 5t-94.5 4.5t-94.5 16t-72.5 42t-29 80.5q0 87 78.5 130.5
t215.5 43.5q107 0 250 -28v-169q-123 26 -220 26q-132 0 -132 -21z" />
    <glyph glyph-name="uni0162" unicode="&#x162;" horiz-adv-x="873" 
d="M537 0h-73l-36 -70q138 -10 215.5 -37t77.5 -70q0 -47 -118 -78t-308 -32v55q232 1 232 55t-232 58v53l40 70v524h-310v172h823v-172h-311v-528z" />
    <glyph glyph-name="uni0163" unicode="&#x163;" horiz-adv-x="418" 
d="M236 -70q138 -10 215.5 -37t77.5 -70q0 -47 -118 -78t-308 -32v55q232 1 232 55t-232 58v53l41 72q-34 16 -45.5 55.5t-11.5 118.5v172h-57v148h77v120l182 20v-140h99v-148h-99v-142q0 -28 1 -39.5t6.5 -24t17.5 -15.5t34 -3q8 0 40 2v-120q-62 -16 -121 -19z" />
    <glyph glyph-name="Tcaron" unicode="&#x164;" horiz-adv-x="873" 
d="M724 941l-287 -186l-287 186v80l287 -164l287 164v-80zM25 700h823v-172h-311v-528h-202v528h-310v172z" />
    <glyph glyph-name="tcaron" unicode="&#x165;" horiz-adv-x="659" 
d="M396 429l63 270h170l-113 -270h-120zM237 -10q-94 0 -122 39t-28 151v172h-57v148h77v120l182 20v-140h99v-148h-99v-142q0 -28 1 -39.5t6.5 -24t17.5 -15.5t34 -3q8 0 40 2v-120q-74 -20 -151 -20z" />
    <glyph glyph-name="Tbar" unicode="&#x166;" horiz-adv-x="873" 
d="M848 528h-311v-111h150v-173h-150v-244h-202v244h-148v173h148v111h-310v172h823v-172z" />
    <glyph glyph-name="tbar" unicode="&#x167;" horiz-adv-x="418" 
d="M389 317v-143h-99q2 -26 13.5 -36t44.5 -10q8 0 40 2v-120q-74 -20 -151 -20q-93 0 -121 38t-29 146h-57v143h57v35h-57v148h77v120l182 20v-140h99v-148h-99v-35h100z" />
    <glyph glyph-name="Umacron" unicode="&#x16a;" horiz-adv-x="924" 
d="M196 846v54h532v-54h-532zM462 -16q-90 0 -157 18t-119.5 60t-79 117.5t-26.5 184.5v336h202v-366q0 -83 47.5 -126.5t132.5 -43.5t132.5 43.5t47.5 126.5v366h202v-336q0 -109 -26.5 -184.5t-79 -117.5t-119.5 -60t-157 -18z" />
    <glyph glyph-name="umacron" unicode="&#x16b;" horiz-adv-x="758" 
d="M114 646v54h532v-54h-532zM708 500v-500h-216l20 206h-10q-19 -123 -75.5 -172.5t-175.5 -49.5q-56 1 -91 12.5t-61.5 44t-37.5 91t-11 151.5v217h202v-200q0 -96 25.5 -130t89.5 -34q60 0 99.5 56t39.5 140v168h202z" />
    <glyph glyph-name="Uring" unicode="&#x16e;" horiz-adv-x="924" 
d="M462 738q-105 0 -179 29t-74 74t74 74t179 29q113 0 183 -28.5t70 -74.5t-70 -74.5t-183 -28.5zM462 789q40 0 65.5 13.5t25.5 37.5q0 53 -91 53q-40 0 -64.5 -13.5t-24.5 -38.5t24.5 -38.5t64.5 -13.5zM462 -16q-90 0 -157 18t-119.5 60t-79 117.5t-26.5 184.5v336h202
v-366q0 -83 47.5 -126.5t132.5 -43.5t132.5 43.5t47.5 126.5v366h202v-336q0 -109 -26.5 -184.5t-79 -117.5t-119.5 -60t-157 -18z" />
    <glyph glyph-name="uring" unicode="&#x16f;" horiz-adv-x="758" 
d="M363 538q-105 0 -179 29t-74 74t74 74t179 29q113 0 183 -28.5t70 -74.5t-70 -74.5t-183 -28.5zM363 589q40 0 65.5 13.5t25.5 37.5q0 53 -91 53q-40 0 -64.5 -13.5t-24.5 -38.5t24.5 -38.5t64.5 -13.5zM708 500v-500h-216l20 206h-10q-19 -123 -75.5 -172.5
t-175.5 -49.5q-56 1 -91 12.5t-61.5 44t-37.5 91t-11 151.5v217h202v-200q0 -96 25.5 -130t89.5 -34q60 0 99.5 56t39.5 140v168h202z" />
    <glyph glyph-name="Uhungarumlaut" unicode="&#x170;" horiz-adv-x="924" 
d="M326 744v80l287 186v-102zM576 744v80l287 186v-102zM462 -16q-90 0 -157 18t-119.5 60t-79 117.5t-26.5 184.5v336h202v-366q0 -83 47.5 -126.5t132.5 -43.5t132.5 43.5t47.5 126.5v366h202v-336q0 -109 -26.5 -184.5t-79 -117.5t-119.5 -60t-157 -18z" />
    <glyph glyph-name="uhungarumlaut" unicode="&#x171;" horiz-adv-x="758" 
d="M227 544v80l287 186v-102zM477 544v80l287 186v-102zM708 500v-500h-216l20 206h-10q-19 -123 -75.5 -172.5t-175.5 -49.5q-56 1 -91 12.5t-61.5 44t-37.5 91t-11 151.5v217h202v-200q0 -96 25.5 -130t89.5 -34q60 0 99.5 56t39.5 140v168h202z" />
    <glyph glyph-name="Uogonek" unicode="&#x172;" horiz-adv-x="924" 
d="M642 700h202v-336q0 -129 -39.5 -211.5t-106 -119.5t-165.5 -46q-16 -20 -16 -37q0 -28 36.5 -42.5t91.5 -14.5q43 0 84 9l-3 -116q-52 -16 -112 -16q-94 0 -162 39t-68 101q0 36 26 76q-78 5 -136.5 26t-103 64t-67.5 115t-23 173v336h202v-366q0 -83 47.5 -126.5
t132.5 -43.5t132.5 43.5t47.5 126.5v366z" />
    <glyph glyph-name="uogonek" unicode="&#x173;" horiz-adv-x="758" 
d="M701 -107q43 0 84 9l-3 -116q-52 -16 -112 -16q-94 0 -162 39t-68 101q0 53 54 111l18 185h-10q-19 -123 -75.5 -172.5t-175.5 -49.5q-56 1 -91 12.5t-61.5 44t-37.5 91t-11 151.5v217h202v-200q0 -96 25.5 -130t89.5 -34q60 0 99.5 56t39.5 140v168h202v-500h-108
q-27 -28 -27 -50q0 -28 36.5 -42.5t91.5 -14.5z" />
    <glyph glyph-name="Wcircumflex" unicode="&#x174;" horiz-adv-x="1281" 
d="M928 755l-287 164l-287 -164v80l287 186l287 -186v-80zM1027 700h229l-259 -700h-242l-114 350l-115 -350h-242l-259 700h229l146 -416l126 416h229l127 -416z" />
    <glyph glyph-name="wcircumflex" unicode="&#x175;" horiz-adv-x="1121" 
d="M842 555l-287 164l-287 -164v80l287 186l287 -186v-80zM887 500h209l-214 -500h-222l-102 250l-97 -250h-222l-214 500h209l114 -270l108 270h199l116 -276z" />
    <glyph glyph-name="Ycircumflex" unicode="&#x176;" horiz-adv-x="1070" 
d="M822 755l-287 164l-287 -164v80l287 186l287 -186v-80zM796 700h249l-409 -473v-227h-202v226l-409 474h249l261 -311z" />
    <glyph glyph-name="ycircumflex" unicode="&#x177;" horiz-adv-x="806" 
d="M700 555l-287 164l-287 -164v80l287 186l287 -186v-80zM552 500h229l-369 -700h-228l111 211l-270 489h232l148 -280z" />
    <glyph glyph-name="Ydieresis" unicode="&#x178;" horiz-adv-x="1070" 
d="M394 738q-44 0 -71.5 23.5t-27.5 61.5t27.5 61.5t71.5 23.5q47 0 73 -23t26 -62t-26 -62t-73 -23zM684 738q-44 0 -71.5 23.5t-27.5 61.5t27.5 61.5t71.5 23.5q47 0 73 -23t26 -62t-26 -62t-73 -23zM434 0v226l-409 474h249l261 -311l261 311h249l-409 -473v-227h-202z
" />
    <glyph glyph-name="Zacute" unicode="&#x179;" horiz-adv-x="913" 
d="M418 744v80l287 186v-102zM35 0v132l485 396h-477v172h825v-130l-483 -398h493v-172h-843z" />
    <glyph glyph-name="zacute" unicode="&#x17a;" horiz-adv-x="723" 
d="M349 544v80l287 186v-102zM30 0v112l315 236h-307v152h655v-110l-313 -238h303v-152h-653z" />
    <glyph glyph-name="Zdotaccent" unicode="&#x17b;" horiz-adv-x="913" 
d="M442 738q-44 0 -71.5 23.5t-27.5 61.5t27.5 61.5t71.5 23.5q47 0 73 -23t26 -62t-26 -62t-73 -23zM35 0v132l485 396h-477v172h825v-130l-483 -398h493v-172h-843z" />
    <glyph glyph-name="zdotaccent" unicode="&#x17c;" horiz-adv-x="723" 
d="M373 538q-44 0 -71.5 23.5t-27.5 61.5t27.5 61.5t71.5 23.5q47 0 73 -23t26 -62t-26 -62t-73 -23zM30 0v112l315 236h-307v152h655v-110l-313 -238h303v-152h-653z" />
    <glyph glyph-name="Zcaron" unicode="&#x17d;" horiz-adv-x="913" 
d="M729 941l-287 -186l-287 186v80l287 -164l287 164v-80zM385 172h493v-172h-843v132l485 396h-477v172h825v-130z" />
    <glyph glyph-name="zcaron" unicode="&#x17e;" horiz-adv-x="723" 
d="M660 741l-287 -186l-287 186v80l287 -164l287 164v-80zM693 500v-110l-313 -238h303v-152h-653v112l315 236h-307v152h655z" />
    <glyph glyph-name="Scommaaccent" unicode="&#x218;" horiz-adv-x="886" 
d="M448 -16q-186 0 -298 67.5t-110 179.5h216q-1 -15 12.5 -30.5t55 -29.5t106.5 -15q213 -4 213 60q0 23 -43.5 33.5t-108.5 12t-141.5 11t-141.5 26.5t-108.5 62.5t-43.5 116.5q0 108 103 173t271 65q173 0 281 -68t109 -179h-216q0 11 -6 22.5t-21.5 23.5t-49 20t-80.5 9
q-88 2 -138 -10.5t-50 -49.5q0 -22 32.5 -34t84 -17t114.5 -9.5t125.5 -15.5t114 -30.5t84 -59t32.5 -96.5q0 -108 -109 -173t-289 -65zM319 -350l63 270h170l-113 -270h-120z" />
    <glyph glyph-name="scommaaccent" unicode="&#x219;" horiz-adv-x="664" 
d="M330 -16q-133 0 -268 39v169q113 -43 238 -43q132 0 132 24q0 15 -29 21t-72.5 5t-94.5 4.5t-94.5 16t-72.5 42t-29 80.5q0 87 78.5 130.5t215.5 43.5q107 0 250 -28v-169q-123 26 -220 26q-132 0 -132 -21q0 -12 40.5 -14t98 -3.5t115 -10.5t98 -44t40.5 -96
q0 -172 -294 -172zM207 -341l63 270h170l-113 -270h-120z" />
    <glyph glyph-name="uni021A" unicode="&#x21a;" horiz-adv-x="873" 
d="M335 0v528h-310v172h823v-172h-311v-528h-202zM284 -350l63 270h170l-113 -270h-120z" />
    <glyph glyph-name="uni021B" unicode="&#x21b;" horiz-adv-x="418" 
d="M237 -10q-94 0 -122 39t-28 151v172h-57v148h77v120l182 20v-140h99v-148h-99v-142q0 -28 1 -39.5t6.5 -24t17.5 -15.5t34 -3q8 0 40 2v-120q-74 -20 -151 -20zM88 -341l63 270h170l-113 -270h-120z" />
    <glyph glyph-name="circumflex" unicode="&#x2c6;" horiz-adv-x="674" 
d="M337 821l287 -186v-80l-287 164l-287 -164v80z" />
    <glyph glyph-name="caron" unicode="&#x2c7;" horiz-adv-x="674" 
d="M337 657l287 164v-80l-287 -186l-287 186v80z" />
    <glyph glyph-name="breve" unicode="&#x2d8;" horiz-adv-x="526" 
d="M263 551q-93 0 -152.5 41t-60.5 108h105q1 -40 30.5 -60.5t77.5 -20.5q104 0 110 81h103q-1 -69 -56.5 -109t-156.5 -40z" />
    <glyph glyph-name="dotaccent" unicode="&#x2d9;" horiz-adv-x="298" 
d="M149 538q-44 0 -71.5 23.5t-27.5 61.5t27.5 61.5t71.5 23.5q47 0 73 -23t26 -62t-26 -62t-73 -23z" />
    <glyph glyph-name="ring" unicode="&#x2da;" horiz-adv-x="606" 
d="M303 538q-105 0 -179 29t-74 74t74 74t179 29q113 0 183 -28.5t70 -74.5t-70 -74.5t-183 -28.5zM303 589q40 0 65.5 13.5t25.5 37.5q0 53 -91 53q-40 0 -64.5 -13.5t-24.5 -38.5t24.5 -38.5t64.5 -13.5z" />
    <glyph glyph-name="ogonek" unicode="&#x2db;" horiz-adv-x="445" 
d="M280 -230q-94 0 -162 39t-68 101q0 57 64 121q30 30 62 30q21 0 36 -12t15 -26q0 -6 -5 -11q-39 -36 -39 -62q0 -28 36.5 -42.5t91.5 -14.5q43 0 84 9l-3 -116q-52 -16 -112 -16z" />
    <glyph glyph-name="tilde" unicode="&#x2dc;" horiz-adv-x="481" 
d="M308 572q-31 0 -56 18t-44 36t-35 18q-28 0 -44.5 -18t-17.5 -53h-61q1 58 35 94t88 36q34 0 73 -36t62 -36q62 0 63 71h60q-1 -59 -35 -94.5t-88 -35.5z" />
    <glyph glyph-name="hungarumlaut" unicode="&#x2dd;" horiz-adv-x="637" 
d="M50 544v80l287 186v-102zM300 544v80l287 186v-102z" />
    <glyph glyph-name="gravecomb" unicode="&#x300;" 
d="M-50 544l-287 164v102l287 -186v-80z" />
    <glyph glyph-name="acutecomb" unicode="&#x301;" 
d="M-337 544v80l287 186v-102z" />
    <glyph glyph-name="uni0302" unicode="&#x302;" 
d="M-337 821l287 -186v-80l-287 164l-287 -164v80z" />
    <glyph glyph-name="tildecomb" unicode="&#x303;" 
d="M-173 572q-31 0 -56 18t-44 36t-35 18q-28 0 -44.5 -18t-17.5 -53h-61q1 58 35 94t88 36q34 0 73 -36t62 -36q62 0 63 71h60q-1 -59 -35 -94.5t-88 -35.5z" />
    <glyph glyph-name="uni0304" unicode="&#x304;" 
d="M-582 646v54h532v-54h-532z" />
    <glyph glyph-name="uni0306" unicode="&#x306;" 
d="M-263 551q-93 0 -152.5 41t-60.5 108h105q1 -40 30.5 -60.5t77.5 -20.5q104 0 110 81h103q-1 -69 -56.5 -109t-156.5 -40z" />
    <glyph glyph-name="uni0307" unicode="&#x307;" 
d="M-149 538q-44 0 -71.5 23.5t-27.5 61.5t27.5 61.5t71.5 23.5q47 0 73 -23t26 -62t-26 -62t-73 -23z" />
    <glyph glyph-name="uni0308" unicode="&#x308;" 
d="M-439 538q-44 0 -71.5 23.5t-27.5 61.5t27.5 61.5t71.5 23.5q47 0 73 -23t26 -62t-26 -62t-73 -23zM-149 538q-44 0 -71.5 23.5t-27.5 61.5t27.5 61.5t71.5 23.5q47 0 73 -23t26 -62t-26 -62t-73 -23z" />
    <glyph glyph-name="uni030A" unicode="&#x30a;" 
d="M-303 538q-105 0 -179 29t-74 74t74 74t179 29q113 0 183 -28.5t70 -74.5t-70 -74.5t-183 -28.5zM-303 589q40 0 65.5 13.5t25.5 37.5q0 53 -91 53q-40 0 -64.5 -13.5t-24.5 -38.5t24.5 -38.5t64.5 -13.5z" />
    <glyph glyph-name="uni030B" unicode="&#x30b;" 
d="M-587 544v80l287 186v-102zM-337 544v80l287 186v-102z" />
    <glyph glyph-name="uni030C" unicode="&#x30c;" 
d="M-337 657l287 164v-80l-287 -186l-287 186v80z" />
    <glyph glyph-name="uni0312" unicode="&#x312;" 
d="M-50 798l-63 -270h-170l113 270h120z" />
    <glyph glyph-name="uni0326" unicode="&#x326;" 
d="M-283 -341l63 270h170l-113 -270h-120z" />
    <glyph glyph-name="uni0327" unicode="&#x327;" 
d="M-343 -70q138 -10 215.5 -37t77.5 -70q0 -47 -118 -78t-308 -32v55q232 1 232 55t-232 58v53l58 101h129z" />
    <glyph glyph-name="uni0328" unicode="&#x328;" 
d="M-165 -230q-94 0 -162 39t-68 101q0 57 64 121q30 30 62 30q21 0 36 -12t15 -26q0 -6 -5 -11q-39 -36 -39 -62q0 -28 36.5 -42.5t91.5 -14.5q44 0 84 9l-3 -116q-52 -16 -112 -16z" />
    <glyph glyph-name="uni0335" unicode="&#x335;" 
d="M-550 244v173h500v-173h-500z" />
    <glyph glyph-name="uni0336" unicode="&#x336;" 
d="M-1050 244v173h1000v-173h-1000z" />
    <glyph glyph-name="uni0337" unicode="&#x337;" 
d="M-815 0l594 500h171l-594 -500h-171z" />
    <glyph glyph-name="uni0338" unicode="&#x338;" 
d="M-1053 0l832 700h171l-832 -700h-171z" />
    <glyph glyph-name="uni0401" unicode="&#x401;" horiz-adv-x="855" 
d="M287 738q-44 0 -71.5 23.5t-27.5 61.5t27.5 61.5t71.5 23.5q47 0 73 -23t26 -62t-26 -62t-73 -23zM577 738q-44 0 -71.5 23.5t-27.5 61.5t27.5 61.5t71.5 23.5q47 0 73 -23t26 -62t-26 -62t-73 -23zM80 0v700h705v-172h-503v-91h494v-163h-494v-102h503v-172h-705z" />
    <glyph glyph-name="uni0410" unicode="&#x410;" horiz-adv-x="1105" 
d="M25 0l419 700h217l419 -700h-239l-66 118h-445l-66 -118h-239zM426 290h253l-126 228z" />
    <glyph glyph-name="uni0411" unicode="&#x411;" horiz-adv-x="870" 
d="M595 427q105 0 170 -55t65 -158q0 -90 -64.5 -152t-170.5 -62h-515v700h653v-172h-451v-101h313zM570 162q58 0 58 52q0 51 -58 51h-289v-103h289z" />
    <glyph glyph-name="uni0412" unicode="&#x412;" horiz-adv-x="926" 
d="M80 0v700h535q106 0 165.5 -51t59.5 -134q0 -147 -194 -159q101 -2 159 -46t58 -124q0 -84 -62 -135t-164 -51h-557zM283 435h297q58 0 58 46q0 47 -58 47h-298zM284 173h318q58 0 58 49q0 27 -16 40.5t-42 13.5h-319z" />
    <glyph glyph-name="uni0413" unicode="&#x413;" horiz-adv-x="733" 
d="M80 0v700h643v-172h-441v-528h-202z" />
    <glyph glyph-name="uni0414" unicode="&#x414;" horiz-adv-x="927" 
d="M12 -103v205q105 0 111 81l47 517h635v-598h102v-205h-202v103h-491v-103h-202zM324 172h279v356h-245l-31 -336z" />
    <glyph glyph-name="uni0415" unicode="&#x415;" horiz-adv-x="855" 
d="M80 0v700h705v-172h-503v-91h494v-163h-494v-102h503v-172h-705z" />
    <glyph glyph-name="uni0416" unicode="&#x416;" horiz-adv-x="1508" 
d="M10 0l434 354l-424 346h284l349 -305v305h202v-305l349 305h284l-424 -346l434 -354h-294l-349 305v-305h-202v305l-349 -305h-294z" />
    <glyph glyph-name="uni0417" unicode="&#x417;" horiz-adv-x="798" 
d="M356 -16q-211 2 -326 44v172q48 -20 140.5 -32t175.5 -12q229 0 229 52q0 25 -40 40.5t-149.5 27.5t-317.5 22v101q134 6 226.5 13.5t143.5 14.5t77.5 17t33 18t6.5 20q0 33 -65.5 48t-144.5 15t-172.5 -12.5t-142.5 -32.5v172q59 22 152 33.5t173 11.5q71 0 123.5 -3.5
t106 -15.5t87.5 -32.5t55 -56t21 -84.5q0 -31 -12.5 -56.5t-35.5 -42.5t-47.5 -30t-58.5 -20t-57 -11.5t-55 -5.5t-40.5 -1.5t-23.5 -0.5v-9q2 0 31.5 -0.5t48.5 -1.5t56 -5t62 -10t56 -18t50 -28.5t32.5 -41.5t13.5 -56q0 -50 -20 -86.5t-54.5 -59t-88.5 -36t-113 -18
t-136 -3.5z" />
    <glyph glyph-name="uni0418" unicode="&#x418;" horiz-adv-x="978" 
d="M898 0h-202v386l-456 -386h-160v700h202v-386l457 386h159v-700z" />
    <glyph glyph-name="uni0419" unicode="&#x419;" horiz-adv-x="978" 
d="M489 751q-93 0 -152.5 41t-60.5 108h105q1 -40 30.5 -60.5t77.5 -20.5q104 0 110 81h103q-1 -69 -56.5 -109t-156.5 -40zM898 0h-202v386l-456 -386h-160v700h202v-386l457 386h159v-700z" />
    <glyph glyph-name="uni041A" unicode="&#x41a;" horiz-adv-x="935" 
d="M80 0v700h202v-305l349 305h284l-424 -346l434 -354h-294l-349 305v-305h-202z" />
    <glyph glyph-name="uni041B" unicode="&#x41b;" horiz-adv-x="895" 
d="M53 -16q-28 0 -43 1l7 80q3 0 8 -0.5t7 -0.5q41 0 64.5 22t26.5 60l47 554h635v-700h-202v528h-245l-31 -373q-8 -83 -78.5 -127t-195.5 -44z" />
    <glyph glyph-name="uni041C" unicode="&#x41c;" horiz-adv-x="1042" 
d="M80 0v700h161l280 -417l280 417h161v-700h-202v334l-218 -334h-42l-218 334v-334h-202z" />
    <glyph glyph-name="uni041D" unicode="&#x41d;" horiz-adv-x="975" 
d="M80 0v700h202v-248h411v248h202v-700h-202v279h-411v-279h-202z" />
    <glyph glyph-name="uni041E" unicode="&#x41e;" horiz-adv-x="965" 
d="M482 -16q-203 0 -322.5 100t-119.5 266t119.5 266t322.5 100q204 0 323.5 -100t119.5 -266t-119.5 -266t-323.5 -100zM482 156q116 0 178.5 49.5t62.5 144.5t-62.5 144.5t-178.5 49.5q-115 0 -177.5 -49.5t-62.5 -144.5t62.5 -144.5t177.5 -49.5z" />
    <glyph glyph-name="uni041F" unicode="&#x41f;" horiz-adv-x="825" 
d="M80 0v700h665v-700h-202v528h-261v-528h-202z" />
    <glyph glyph-name="uni0420" unicode="&#x420;" horiz-adv-x="870" 
d="M80 0v700h515q106 0 170.5 -62t64.5 -152q0 -103 -65 -158t-170 -55h-313v-273h-202zM281 435h289q58 0 58 51q0 52 -58 52h-289v-103z" />
    <glyph glyph-name="uni0421" unicode="&#x421;" horiz-adv-x="924" 
d="M462 -16q-190 0 -306 100.5t-116 265.5t116 265.5t306 100.5t306 -88t116 -233h-204q-7 74 -65 111.5t-153 37.5q-101 0 -160.5 -50t-59.5 -144t59.5 -144t160.5 -50q95 0 153.5 37.5t64.5 111.5h204q0 -145 -116 -233t-306 -88z" />
    <glyph glyph-name="uni0422" unicode="&#x422;" horiz-adv-x="873" 
d="M335 0v528h-310v172h823v-172h-311v-528h-202z" />
    <glyph glyph-name="uni0423" unicode="&#x423;" horiz-adv-x="806" 
d="M184 -1l111 211l-270 489h232l148 -280l147 280h229l-369 -700h-228z" />
    <glyph glyph-name="uni0424" unicode="&#x424;" horiz-adv-x="722" 
d="M682 355q0 -106 -70 -176.5t-190 -85.5v-93h-122v93q-120 15 -190 85.5t-70 176.5t70 176.5t190 85.5v83h122v-83q120 -15 190 -85.5t70 -176.5zM232 355q0 -66 68 -94v188q-68 -28 -68 -94zM422 261q68 28 68 94t-68 94v-188z" />
    <glyph glyph-name="uni0425" unicode="&#x425;" horiz-adv-x="945" 
d="M25 0l306 354l-301 346h279l166 -191l166 191h279l-306 -352l301 -348h-276l-169 194l-169 -194h-276z" />
    <glyph glyph-name="uni0426" unicode="&#x426;" horiz-adv-x="827" 
d="M605 -103v103h-515v700h202v-528h191v528h202v-528h122v-275h-202z" />
    <glyph glyph-name="uni0427" unicode="&#x427;" horiz-adv-x="748" 
d="M698 700v-700h-216l20 406h-10q-19 -123 -75.5 -172.5t-175.5 -49.5q-56 1 -91 12.5t-61.5 44t-37.5 91t-11 151.5v217h202v-200q0 -96 25.5 -130t89.5 -34q60 0 99.5 56t39.5 140v168h202z" />
    <glyph glyph-name="uni0428" unicode="&#x428;" horiz-adv-x="1168" 
d="M90 0v700h202v-528h191v528h202v-528h191v528h202v-700h-988z" />
    <glyph glyph-name="uni0429" unicode="&#x429;" horiz-adv-x="1220" 
d="M998 -103v103h-908v700h202v-528h191v528h202v-528h191v528h202v-528h122v-275h-202z" />
    <glyph glyph-name="uni042A" unicode="&#x42a;" horiz-adv-x="870" 
d="M595 427q105 0 170 -55t65 -158q0 -90 -64.5 -152t-170.5 -62h-515v598h-110v102h312v-273h313zM570 162q58 0 58 52q0 51 -58 51h-289v-103h289z" />
    <glyph glyph-name="uni042B" unicode="&#x42b;" horiz-adv-x="1255" 
d="M80 700h202v-273h313q105 0 170 -55t65 -158q0 -90 -64.5 -152t-170.5 -62h-515v700zM963 0v700h202v-700h-202zM281 265v-103h289q58 0 58 52q0 51 -58 51h-289z" />
    <glyph glyph-name="uni042C" unicode="&#x42c;" horiz-adv-x="870" 
d="M80 700h202v-273h313q105 0 170 -55t65 -158q0 -90 -64.5 -152t-170.5 -62h-515v700zM281 265v-103h289q58 0 58 52q0 51 -58 51h-289z" />
    <glyph glyph-name="uni042D" unicode="&#x42d;" horiz-adv-x="924" 
d="M462 716q190 0 306 -100.5t116 -265.5t-116 -265.5t-306 -100.5t-306 88t-116 233h204q6 -74 64.5 -111.5t153.5 -37.5q155 0 203 107h-284v172h285q-47 109 -204 109q-95 0 -153 -37.5t-65 -111.5h-204q0 145 116 233t306 88z" />
    <glyph glyph-name="uni042E" unicode="&#x42e;" horiz-adv-x="1345" 
d="M862 716q204 0 323.5 -100t119.5 -266t-119.5 -266t-323.5 -100q-175 0 -288.5 74.5t-143.5 204.5h-138v-263h-202v700h202v-265h137q30 130 144 205.5t289 75.5zM862 156q116 0 178.5 49.5t62.5 144.5t-62.5 144.5t-178.5 49.5q-115 0 -177.5 -49.5t-62.5 -144.5
t62.5 -144.5t177.5 -49.5z" />
    <glyph glyph-name="uni042F" unicode="&#x42f;" horiz-adv-x="941" 
d="M861 0h-202l1 282h-110q-76 0 -116.5 -44.5t-136.5 -217.5q-7 -13 -11 -20h-266q47 96 78 149.5t72 99.5t87.5 66t110.5 24h-72q-103 0 -164 46.5t-61 129.5t59.5 134t165.5 51h565v-700zM660 435l1 103h-330q-58 0 -58 -52q0 -51 58 -51h329z" />
    <glyph glyph-name="uni0430" unicode="&#x430;" horiz-adv-x="694" 
d="M226 -16q-186 0 -186 132q0 81 97.5 123t304.5 55q0 21 -25.5 34t-66.5 13q-58 0 -127 -14.5t-120 -36.5v172q146 54 287 54q254 0 254 -234v-282h-192l19 179h-12q-23 -107 -72.5 -151t-160.5 -44zM320 120q48 0 85.5 24.5t36.5 71.5q-194 -12 -194 -60
q0 -17 20.5 -26.5t51.5 -9.5z" />
    <glyph glyph-name="uni0431" unicode="&#x431;" horiz-adv-x="856" 
d="M450 -12q-190 0 -300 94t-110 280q0 170 119.5 261.5t319.5 91.5q215 0 283 12v-185q-29 -7 -71.5 -7t-105.5 3.5t-102 3.5q-117 0 -179 -47t-62 -138q105 103 255 103q159 0 239 -65t80 -173q0 -107 -96.5 -170.5t-269.5 -63.5zM441 160q76 0 124 19.5t48 57.5
q0 37 -36.5 57.5t-104.5 20.5q-111 0 -212 -45q21 -50 67 -80t114 -30z" />
    <glyph glyph-name="uni0432" unicode="&#x432;" horiz-adv-x="793" 
d="M90 0v500h425q119 0 172 -32t53 -103q0 -53 -44 -79t-140 -30q108 -2 157.5 -30.5t49.5 -89.5q0 -71 -54 -103.5t-172 -32.5h-447zM292 295h108q138 0 138 49q0 28 -32.5 41t-105.5 13h-109zM293 103h129q73 0 105.5 14t32.5 45q0 54 -138 54h-130z" />
    <glyph glyph-name="uni0433" unicode="&#x433;" horiz-adv-x="600" 
d="M90 0v500h473v-172h-271v-328h-202z" />
    <glyph glyph-name="uni0434" unicode="&#x434;" horiz-adv-x="897" 
d="M12 -103v205q104 0 111 81l28 317h624v-398h102v-205h-202v103h-461v-103h-202zM324 172h249v156h-234l-12 -136z" />
    <glyph glyph-name="uni0435" unicode="&#x435;" horiz-adv-x="682" 
d="M341 -16q-136 0 -218.5 73t-82.5 193t82.5 193t218.5 73q134 0 216.5 -62.5t84.5 -164.5v-82h-402q26 -68 151 -68q29 0 56 2.5t44.5 6t39 10.5t31.5 11t30.5 13t27.5 12v-161q-70 -26 -126.5 -37.5t-152.5 -11.5zM235 277l212 5q-4 36 -33 54t-73 18q-40 0 -69 -19.5
t-37 -57.5z" />
    <glyph glyph-name="uni0436" unicode="&#x436;" horiz-adv-x="1268" 
d="M10 0l397 251l-387 249h264l249 -168v168h202v-168l249 168h264l-387 -249l397 -251h-274l-249 168v-168h-202v168l-249 -168h-274z" />
    <glyph glyph-name="uni0437" unicode="&#x437;" horiz-adv-x="818" 
d="M385 -15q-227 0 -345 44v172q48 -20 140.5 -32t175.5 -12q199 0 199 32q0 14 -95.5 23t-381.5 22v35q277 11 367 19.5t90 24.5q0 30 -180 30q-79 0 -172.5 -12.5t-142.5 -32.5v172q59 22 152 33.5t173 11.5q86 0 152 -5.5t123 -19.5t87.5 -40t30.5 -64q0 -31 -21 -55
t-59.5 -37t-71.5 -21.5t-80 -11t-61.5 -3t-36.5 -0.5v-9h37t59 -1.5t65.5 -5t70 -12t58.5 -21t44.5 -33.5t15.5 -48q0 -143 -393 -143z" />
    <glyph glyph-name="uni0438" unicode="&#x438;" horiz-adv-x="928" 
d="M90 0v500h202v-273l387 273h159v-500h-202v276l-386 -276h-160z" />
    <glyph glyph-name="uni0439" unicode="&#x439;" horiz-adv-x="928" 
d="M469 551q-93 0 -152.5 41t-60.5 108h105q1 -40 30.5 -60.5t77.5 -20.5q104 0 110 81h103q-1 -69 -56.5 -109t-156.5 -40zM90 0v500h202v-273l387 273h159v-500h-202v276l-386 -276h-160z" />
    <glyph glyph-name="uni043A" unicode="&#x43a;" horiz-adv-x="795" 
d="M80 0v500h202v-168l249 168h264l-387 -249l397 -251h-274l-249 168v-168h-202z" />
    <glyph glyph-name="uni043B" unicode="&#x43b;" horiz-adv-x="782" 
d="M59 -13q-27 0 -42 1l-3 80q100 0 106 81l30 351h542v-500h-202v328h-152l-14 -170q-16 -171 -265 -171z" />
    <glyph glyph-name="uni043C" unicode="&#x43c;" horiz-adv-x="1042" 
d="M90 0v500h181l250 -277l250 277h181v-500h-202v233l-218 -233h-22l-218 229v-229h-202z" />
    <glyph glyph-name="uni043D" unicode="&#x43d;" horiz-adv-x="855" 
d="M90 0v500h202v-153h271v153h202v-500h-202v175h-271v-175h-202z" />
    <glyph glyph-name="uni043E" unicode="&#x43e;" horiz-adv-x="722" 
d="M361 -16q-145 0 -233 73t-88 193t88 193t233 73t233 -73t88 -193t-88 -193t-233 -73zM361 146q58 0 93.5 28.5t35.5 75.5t-35.5 75.5t-93.5 28.5t-93.5 -28.5t-35.5 -75.5t35.5 -75.5t93.5 -28.5z" />
    <glyph glyph-name="uni043F" unicode="&#x43f;" horiz-adv-x="775" 
d="M80 0v500h615v-500h-202v318h-211v-318h-202z" />
    <glyph glyph-name="uni0440" unicode="&#x440;" horiz-adv-x="786" 
d="M495 516q113 0 182 -74t69 -196q0 -118 -69.5 -190t-183.5 -72q-90 0 -155.5 49t-81.5 129h-4v-362h-202v700h206l-22 -163h12q16 80 84.5 129.5t164.5 49.5zM414 354q-59 0 -100.5 -26.5t-41.5 -79.5q0 -52 41.5 -77t100.5 -25q58 0 99 25t41 77q0 53 -41 79.5t-99 26.5
z" />
    <glyph glyph-name="uni0441" unicode="&#x441;" horiz-adv-x="609" 
d="M331 -16q-135 0 -213 72.5t-78 193.5q0 123 76 194.5t216 71.5q117 0 237 -54v-170q-104 62 -211 62q-58 0 -92 -28.5t-34 -75.5q0 -46 35 -75t94 -29q109 0 208 61v-169q-66 -29 -117 -41.5t-121 -12.5z" />
    <glyph glyph-name="uni0442" unicode="&#x442;" horiz-adv-x="713" 
d="M256 0v328h-231v172h663v-172h-230v-328h-202z" />
    <glyph glyph-name="uni0443" unicode="&#x443;" horiz-adv-x="806" 
d="M184 -200l111 211l-270 489h232l148 -280l147 280h229l-369 -700h-228z" />
    <glyph glyph-name="uni0444" unicode="&#x444;" horiz-adv-x="722" 
d="M682 250q0 -106 -70 -176.5t-190 -85.5v-84h-122v84q-120 15 -190 85.5t-70 176.5t70 176.5t190 85.5v92h122v-92q120 -15 190 -85.5t70 -176.5zM232 250q0 -66 68 -94v188q-68 -28 -68 -94zM422 156q68 28 68 94t-68 94v-188z" />
    <glyph glyph-name="uni0445" unicode="&#x445;" horiz-adv-x="838" 
d="M25 0l257 251l-256 249h254l139 -136l140 136h254l-267 -259l247 -241h-253l-131 128l-131 -128h-253z" />
    <glyph glyph-name="uni0446" unicode="&#x446;" horiz-adv-x="807" 
d="M585 -103v103h-495v500h202v-328h171v328h202v-328h122v-275h-202z" />
    <glyph glyph-name="uni0447" unicode="&#x447;" horiz-adv-x="748" 
d="M482 0l17 336h-7q-19 -123 -75.5 -172.5t-175.5 -49.5q-56 1 -91 12.5t-61.5 44t-37.5 91t-11 151.5v87h202v-70q0 -96 25.5 -130t89.5 -34q60 0 99.5 56t39.5 140v38h202v-500h-216z" />
    <glyph glyph-name="uni0448" unicode="&#x448;" horiz-adv-x="1128" 
d="M90 0v500h202v-328h171v328h202v-328h171v328h202v-500h-948z" />
    <glyph glyph-name="uni0449" unicode="&#x449;" horiz-adv-x="1180" 
d="M958 -103v103h-868v500h202v-328h171v328h202v-328h171v328h202v-328h122v-275h-202z" />
    <glyph glyph-name="uni044A" unicode="&#x44a;" horiz-adv-x="840" 
d="M80 0v528h-110v172h312v-273h273q105 0 170 -55t65 -158q0 -90 -64.5 -152t-170.5 -62h-475zM282 162h248q58 0 58 52q0 51 -58 51h-248v-103z" />
    <glyph glyph-name="uni044B" unicode="&#x44b;" horiz-adv-x="1225" 
d="M90 0v700h202v-273h273q105 0 170 -55t65 -158q0 -90 -64.5 -152t-170.5 -62h-475zM933 0v700h202v-700h-202zM292 162h248q58 0 58 52q0 51 -58 51h-248v-103z" />
    <glyph glyph-name="uni044C" unicode="&#x44c;" horiz-adv-x="840" 
d="M80 0v700h202v-273h273q105 0 170 -55t65 -158q0 -90 -64.5 -152t-170.5 -62h-475zM282 162h248q58 0 58 52q0 51 -58 51h-248v-103z" />
    <glyph glyph-name="uni044D" unicode="&#x44d;" horiz-adv-x="609" 
d="M277 516q140 0 216 -71.5t76 -194.5q0 -121 -78 -193.5t-213 -72.5q-70 0 -121 12.5t-117 41.5v169q99 -61 208 -61q83 0 115 53h-191v102h192q-31 53 -113 53q-107 0 -211 -62v170q120 54 237 54z" />
    <glyph glyph-name="uni044E" unicode="&#x44e;" horiz-adv-x="982" 
d="M621 516q145 0 233 -73t88 -193t-88 -193t-233 -73q-116 0 -197 48t-110 132h-62v-164h-202v500h202v-164h62q29 84 110 132t197 48zM621 146q58 0 93.5 28.5t35.5 75.5t-35.5 75.5t-93.5 28.5t-93.5 -28.5t-35.5 -75.5t35.5 -75.5t93.5 -28.5z" />
    <glyph glyph-name="uni044F" unicode="&#x44f;" horiz-adv-x="811" 
d="M30 0q90 113 156.5 153.5t176.5 45.5h-57q-119 0 -172 36t-53 120q0 78 53 111.5t172 33.5h415v-500h-202l1 162h-38q-43 0 -83.5 -28t-130.5 -134h-238zM421 285h99l1 93h-100h-6q-43 0 -61 -0.5t-38.5 -4.5t-26.5 -12.5t-6 -24.5q0 -35 28 -43t110 -8z" />
    <glyph glyph-name="uni0451" unicode="&#x451;" horiz-adv-x="682" 
d="M200 538q-44 0 -71.5 23.5t-27.5 61.5t27.5 61.5t71.5 23.5q47 0 73 -23t26 -62t-26 -62t-73 -23zM490 538q-44 0 -71.5 23.5t-27.5 61.5t27.5 61.5t71.5 23.5q47 0 73 -23t26 -62t-26 -62t-73 -23zM341 -16q-136 0 -218.5 73t-82.5 193t82.5 193t218.5 73
q134 0 216.5 -62.5t84.5 -164.5v-82h-402q26 -68 151 -68q29 0 56 2.5t44.5 6t39 10.5t31.5 11t30.5 13t27.5 12v-161q-70 -26 -126.5 -37.5t-152.5 -11.5zM235 277l212 5q-4 36 -33 54t-73 18q-40 0 -69 -19.5t-37 -57.5z" />
    <glyph glyph-name="Wgrave" unicode="&#x1e80;" horiz-adv-x="1281" 
d="M647 744l-287 164v102l287 -186v-80zM284 0l-259 700h229l146 -416l126 416h229l127 -416l145 416h229l-259 -700h-242l-114 350l-115 -350h-242z" />
    <glyph glyph-name="wgrave" unicode="&#x1e81;" horiz-adv-x="1121" 
d="M561 544l-287 164v102l287 -186v-80zM239 0l-214 500h209l114 -270l108 270h199l116 -276l116 276h209l-214 -500h-222l-102 250l-97 -250h-222z" />
    <glyph glyph-name="Wacute" unicode="&#x1e82;" horiz-adv-x="1281" 
d="M617 744v80l287 186v-102zM284 0l-259 700h229l146 -416l126 416h229l127 -416l145 416h229l-259 -700h-242l-114 350l-115 -350h-242z" />
    <glyph glyph-name="wacute" unicode="&#x1e83;" horiz-adv-x="1121" 
d="M531 544v80l287 186v-102zM239 0l-214 500h209l114 -270l108 270h199l116 -276l116 276h209l-214 -500h-222l-102 250l-97 -250h-222z" />
    <glyph glyph-name="Wdieresis" unicode="&#x1e84;" horiz-adv-x="1281" 
d="M500 738q-44 0 -71.5 23.5t-27.5 61.5t27.5 61.5t71.5 23.5q47 0 73 -23t26 -62t-26 -62t-73 -23zM790 738q-44 0 -71.5 23.5t-27.5 61.5t27.5 61.5t71.5 23.5q47 0 73 -23t26 -62t-26 -62t-73 -23zM284 0l-259 700h229l146 -416l126 416h229l127 -416l145 416h229
l-259 -700h-242l-114 350l-115 -350h-242z" />
    <glyph glyph-name="wdieresis" unicode="&#x1e85;" horiz-adv-x="1121" 
d="M408 538q-44 0 -71.5 23.5t-27.5 61.5t27.5 61.5t71.5 23.5q47 0 73 -23t26 -62t-26 -62t-73 -23zM698 538q-44 0 -71.5 23.5t-27.5 61.5t27.5 61.5t71.5 23.5q47 0 73 -23t26 -62t-26 -62t-73 -23zM239 0l-214 500h209l114 -270l108 270h199l116 -276l116 276h209
l-214 -500h-222l-102 250l-97 -250h-222z" />
    <glyph glyph-name="Ygrave" unicode="&#x1ef2;" horiz-adv-x="1070" 
d="M541 744l-287 164v102l287 -186v-80zM434 0v226l-409 474h249l261 -311l261 311h249l-409 -473v-227h-202z" />
    <glyph glyph-name="ygrave" unicode="&#x1ef3;" horiz-adv-x="806" 
d="M419 544l-287 164v102l287 -186v-80zM184 -200l111 211l-270 489h232l148 -280l147 280h229l-369 -700h-228z" />
    <glyph glyph-name="endash" unicode="&#x2013;" horiz-adv-x="560" 
d="M30 244v173h500v-173h-500z" />
    <glyph glyph-name="emdash" unicode="&#x2014;" horiz-adv-x="1060" 
d="M30 244v173h1000v-173h-1000z" />
    <glyph glyph-name="quoteleft" unicode="&#x2018;" horiz-adv-x="293" 
d="M263 700l-63 -270h-170l113 270h120z" />
    <glyph glyph-name="quoteright" unicode="&#x2019;" horiz-adv-x="293" 
d="M30 430l63 270h170l-113 -270h-120z" />
    <glyph glyph-name="quotesinglbase" unicode="&#x201a;" horiz-adv-x="293" 
d="M30 -169l63 270h170l-113 -270h-120z" />
    <glyph glyph-name="quotedblleft" unicode="&#x201c;" horiz-adv-x="515" 
d="M263 700l-63 -270h-170l113 270h120zM485 700l-63 -270h-170l113 270h120z" />
    <glyph glyph-name="quotedblright" unicode="&#x201d;" horiz-adv-x="515" 
d="M30 430l63 270h170l-113 -270h-120zM252 430l63 270h170l-113 -270h-120z" />
    <glyph glyph-name="quotedblbase" unicode="&#x201e;" horiz-adv-x="293" 
d="M93 101h170l-113 -270h-120z" />
    <glyph glyph-name="dagger" unicode="&#x2020;" horiz-adv-x="580" 
d="M189 -170v496h-159v173h159v221h202v-221h159v-173h-159v-496h-202z" />
    <glyph glyph-name="daggerdbl" unicode="&#x2021;" horiz-adv-x="600" 
d="M189 -170v170h-159v173h159v153h-159v173h159v221h202v-221h159v-173h-159v-153h159v-173h-159v-170h-202z" />
    <glyph glyph-name="bullet" unicode="&#x2022;" horiz-adv-x="647" 
d="M322 75q-136 0 -214.5 73.5t-78.5 205.5t78.5 206t214.5 74t215.5 -74t79.5 -206q0 -133 -77 -206t-218 -73z" />
    <glyph glyph-name="ellipsis" unicode="&#x2026;" horiz-adv-x="905" 
d="M142 -10q-52 0 -82 28t-30 79t30 79t82 28t82.5 -28t30.5 -79t-29.5 -79t-83.5 -28zM442 -10q-52 0 -82 28t-30 79t30 79t82 28t82.5 -28t30.5 -79t-29.5 -79t-83.5 -28zM742 -10q-52 0 -82 28t-30 79t30 79t82 28t82.5 -28t30.5 -79t-29.5 -79t-83.5 -28z" />
    <glyph glyph-name="perthousand" unicode="&#x2030;" horiz-adv-x="1519" 
d="M259 460q-86 0 -147.5 35t-61.5 90t61.5 90t147.5 35q93 0 151 -34.5t58 -90.5t-58 -90.5t-151 -34.5zM110 0l688 700h141l-688 -700h-141zM259 522q33 0 54 16t21 45q0 32 -20 48.5t-55 16.5q-33 0 -53.5 -16.5t-20.5 -46.5t20.5 -46.5t53.5 -16.5zM780 -10
q-86 0 -147.5 35t-61.5 90t61.5 90t147.5 35q93 0 151 -34.5t58 -90.5t-58 -90.5t-151 -34.5zM1260 -10q-86 0 -147.5 35t-61.5 90t61.5 90t147.5 35q93 0 151 -34.5t58 -90.5t-58 -90.5t-151 -34.5zM780 52q33 0 54 16t21 45q0 32 -20 48.5t-55 16.5q-33 0 -53.5 -16.5
t-20.5 -46.5t20.5 -46.5t53.5 -16.5zM1260 52q33 0 54 16t21 45q0 32 -20 48.5t-55 16.5q-33 0 -53.5 -16.5t-20.5 -46.5t20.5 -46.5t53.5 -16.5z" />
    <glyph glyph-name="guilsinglleft" unicode="&#x2039;" horiz-adv-x="506" 
d="M476 500l-214 -250l214 -250h-240l-206 250l206 250h240z" />
    <glyph glyph-name="guilsinglright" unicode="&#x203a;" horiz-adv-x="506" 
d="M270 500l206 -250l-206 -250h-240l214 250l-214 250h240z" />
    <glyph glyph-name="fraction" unicode="&#x2044;" horiz-adv-x="1083" 
d="M40 -100l832 900h171l-832 -900h-171z" />
    <glyph glyph-name="Euro" unicode="&#x20ac;" horiz-adv-x="1017" 
d="M562 156q95 0 153.5 37.5t64.5 111.5h204q0 -145 -116 -233t-306 -88q-151 0 -257.5 65t-145.5 179h-129v103h110v19q0 14 1 21h-111v103h130q39 113 145.5 177.5t256.5 64.5q190 0 306 -88t116 -233h-204q-7 74 -65 111.5t-153 37.5q-122 0 -180 -70h278v-103h-317
q-1 -7 -1 -21q0 -13 1 -19h317v-103h-280q57 -72 182 -72z" />
    <glyph glyph-name="trademark" unicode="&#x2122;" horiz-adv-x="1308" 
d="M276 222v361h-212v117h562v-117h-212v-361h-138zM670 222v478h110l191 -285l191 285h110v-478h-138v228l-149 -228h-28l-149 228v-228h-138z" />
    <glyph glyph-name="oneeighth" unicode="&#x215b;" horiz-adv-x="1704" 
d="M420 -22l688 744h141l-688 -744h-141zM280 161v368l-240 -149v138l281 121h97v-478h-138zM1389 47q-127 -2 -201.5 35.5t-74.5 103.5q0 93 163 110q-60 10 -104.5 38.5t-44.5 82.5q0 63 70.5 97t191.5 34q113 0 187 -33.5t74 -97.5q0 -54 -44.5 -82.5t-104.5 -38.5
q163 -17 163 -110q0 -65 -77 -103t-198 -36zM1389 353q55 0 84 8t34 15.5t5 19.5q0 41 -123 41t-123 -41q0 -8 0.5 -11.5t6.5 -11t18 -11t37 -6.5t61 -3zM1388 158q137 0 137 40q0 14 -7 21.5t-38.5 13.5t-90.5 6q-60 0 -91 -5.5t-38.5 -13.5t-7.5 -22q0 -40 136 -40z" />
    <glyph glyph-name="threeeighths" unicode="&#x215c;" horiz-adv-x="1711" 
d="M416 -22l688 744h141l-688 -744h-141zM263 150q-144 2 -223 30v118q70 -30 216 -30q157 0 157 35q0 17 -27.5 27.5t-102.5 19t-217 15.5v69q150 7 225.5 16.5t91.5 17.5t16 22q0 23 -44.5 33t-98.5 10q-55 0 -118.5 -8t-97.5 -22v117q86 31 222 31q61 0 104.5 -4.5
t83.5 -18t60.5 -40.5t20.5 -68q0 -28 -14.5 -49.5t-40.5 -33t-49 -19t-54.5 -10t-42 -3t-25.5 -0.5v-6q1 0 25.5 -0.5t41 -2t44.5 -5t48 -11t40 -19t30.5 -30t10.5 -42.5q0 -42 -20 -70.5t-60 -43t-87.5 -20t-114.5 -5.5zM1396 44q-127 -2 -201.5 35.5t-74.5 103.5
q0 93 163 110q-60 10 -104.5 38.5t-44.5 82.5q0 63 70.5 97t191.5 34q113 0 187 -33.5t74 -97.5q0 -54 -44.5 -82.5t-104.5 -38.5q163 -17 163 -110q0 -65 -77 -103t-198 -36zM1396 350q55 0 84 8t34 15.5t5 19.5q0 41 -123 41t-123 -41q0 -8 0.5 -11.5t6.5 -11t18 -11
t37 -6.5t61 -3zM1395 155q137 0 137 40q0 14 -7 21.5t-38.5 13.5t-90.5 6q-60 0 -91 -5.5t-38.5 -13.5t-7.5 -22q0 -40 136 -40z" />
    <glyph glyph-name="fiveeighths" unicode="&#x215d;" horiz-adv-x="1751" 
d="M460 -22l688 744h141l-688 -744h-141zM257 147q-52 0 -119 8t-98 20v125q27 -13 96 -23.5t119 -10.5q147 0 147 46q0 30 -29 43.5t-98 13.5q-35 0 -73 -4t-81 -10.5t-54 -7.5v289h447v-117h-341v-75q68 24 152 24q215 0 215 -156q0 -78 -77 -121.5t-206 -43.5zM1436 44
q-127 -2 -201.5 35.5t-74.5 103.5q0 93 163 110q-60 10 -104.5 38.5t-44.5 82.5q0 63 70.5 97t191.5 34q113 0 187 -33.5t74 -97.5q0 -54 -44.5 -82.5t-104.5 -38.5q163 -17 163 -110q0 -65 -77 -103t-198 -36zM1436 350q55 0 84 8t34 15.5t5 19.5q0 41 -123 41t-123 -41
q0 -8 0.5 -11.5t6.5 -11t18 -11t37 -6.5t61 -3zM1435 155q137 0 137 40q0 14 -7 21.5t-38.5 13.5t-90.5 6q-60 0 -91 -5.5t-38.5 -13.5t-7.5 -22q0 -40 136 -40z" />
    <glyph glyph-name="seveneighths" unicode="&#x215e;" horiz-adv-x="1618" 
d="M314 -22l688 744h141l-688 -744h-141zM62 158l302 361h-337v117h553v-61l-326 -417h-192zM1303 44q-127 -2 -201.5 35.5t-74.5 103.5q0 93 163 110q-60 10 -104.5 38.5t-44.5 82.5q0 63 70.5 97t191.5 34q113 0 187 -33.5t74 -97.5q0 -54 -44.5 -82.5t-104.5 -38.5
q163 -17 163 -110q0 -65 -77 -103t-198 -36zM1303 350q55 0 84 8t34 15.5t5 19.5q0 41 -123 41t-123 -41q0 -8 0.5 -11.5t6.5 -11t18 -11t37 -6.5t61 -3zM1302 155q137 0 137 40q0 14 -7 21.5t-38.5 13.5t-90.5 6q-60 0 -91 -5.5t-38.5 -13.5t-7.5 -22q0 -40 136 -40z" />
    <glyph glyph-name="arrowleft" unicode="&#x2190;" horiz-adv-x="830" 
d="M800 243h-504l140 -164l-200 1l-206 250l206 250h200l-140 -164h504v-173z" />
    <glyph glyph-name="arrowup" unicode="&#x2191;" horiz-adv-x="561" 
d="M194 -58v504l-164 -140l1 200l250 206l250 -206v-200l-164 140v-504h-173z" />
    <glyph glyph-name="arrowright" unicode="&#x2192;" horiz-adv-x="830" 
d="M30 417h504l-140 164l200 -1l206 -250l-206 -250h-200l140 164h-504v173z" />
    <glyph glyph-name="arrowdown" unicode="&#x2193;" horiz-adv-x="561" 
d="M367 699v-504l164 140l-1 -200l-250 -206l-250 206v200l164 -140v504h173z" />
    <glyph glyph-name="partialdiff" unicode="&#x2202;" horiz-adv-x="836" 
d="M396 -12q-173 0 -269.5 63.5t-96.5 170.5q0 108 80 173t239 65q160 0 254 -117q1 113 -75.5 189t-184.5 76v147q197 0 330 -110.5t133 -282.5q0 -186 -110 -280t-300 -94zM405 160q68 0 114 30t67 80q-101 45 -212 45q-68 0 -104.5 -20.5t-36.5 -57.5q0 -38 48 -57.5
t124 -19.5z" />
    <glyph glyph-name="emptyset" unicode="&#x2205;" horiz-adv-x="702" 
d="M739 500l-110 -93q53 -65 53 -157q0 -120 -88 -193t-233 -73q-107 0 -186 42l-125 -106l-76 80l115 97q-49 66 -49 153q0 120 88 193t233 73q102 0 180 -39l117 99zM232 250q0 -17 4 -29l156 131q-20 2 -31 2q-58 0 -93.5 -28.5t-35.5 -75.5zM490 250q0 18 -6 35
l-161 -135q16 -4 38 -4q58 0 93.5 28.5t35.5 75.5z" />
    <glyph glyph-name="product" unicode="&#x220f;" horiz-adv-x="790" 
d="M109 -170v697h-79v173h730v-173h-79v-697h-202v697h-168v-697h-202z" />
    <glyph glyph-name="summation" unicode="&#x2211;" horiz-adv-x="790" 
d="M30 0v173l299 167l-299 187v173h730v-173h-458l299 -187l-299 -167h458v-173h-730z" />
    <glyph glyph-name="minus" unicode="&#x2212;" horiz-adv-x="580" 
d="M30 244v173h520v-173h-520z" />
    <glyph glyph-name="radical" unicode="&#x221a;" horiz-adv-x="1109" 
d="M269 0l-264 501h219l166 -316l271 515h418v-173h-290l-278 -527h-242z" />
    <glyph glyph-name="infinity" unicode="&#x221e;" horiz-adv-x="988" 
d="M278 77q-109 0 -178.5 68t-69.5 160q0 94 71.5 165t178.5 71q95 0 150 -44.5t64 -122.5q9 79 65 123t149 44q107 0 178.5 -71t71.5 -165q0 -92 -69.5 -160t-178.5 -68q-97 0 -152 41t-64 116q-9 -75 -64 -116t-152 -41zM288 222q40 4 61 26.5t21 56.5q0 36 -24 58.5
t-66 22.5q-38 0 -62.5 -23.5t-24.5 -57.5q0 -37 27 -61.5t68 -21.5zM700 222q41 -3 68 21.5t27 61.5q0 34 -24.5 57.5t-62.5 23.5q-42 0 -66 -22.5t-24 -58.5q0 -34 21 -56.5t61 -26.5z" />
    <glyph glyph-name="integral" unicode="&#x222b;" horiz-adv-x="712" 
d="M10 -140l13 58q46 0 85 25t47 59l138 587q34 142 409 142l-13 -58q-46 0 -85 -24.5t-47 -59.5l-138 -587q-35 -142 -409 -142z" />
    <glyph glyph-name="approxequal" unicode="&#x2248;" horiz-adv-x="441" 
d="M288 310q-31 0 -56 18t-44 36t-35 18q-28 0 -44.5 -18t-17.5 -53h-61q1 58 35 94t88 36q34 0 73 -36t62 -36q62 0 63 71h60q-1 -59 -35 -94.5t-88 -35.5zM288 140q-31 0 -56 18t-44 36t-35 18q-28 0 -44.5 -18t-17.5 -53h-61q1 58 35 94t88 36q34 0 73 -36t62 -36
q62 0 63 71h60q-1 -59 -35 -94.5t-88 -35.5z" />
    <glyph glyph-name="notequal" unicode="&#x2260;" horiz-adv-x="580" 
d="M34 20l52 94h-56v173h153l44 80h-197v173h293l45 80h171l-45 -80h56v-173h-152l-44 -80h196v-173h-293l-52 -94h-171z" />
    <glyph glyph-name="lessequal" unicode="&#x2264;" horiz-adv-x="600" 
d="M279 204l-249 141l249 141h291l-259 -141l259 -141h-291zM53 0v133h520v-133h-520z" />
    <glyph glyph-name="greaterequal" unicode="&#x2265;" horiz-adv-x="600" 
d="M33 204l259 141l-259 141h291l249 -141l-249 -141h-291zM30 0v133h520v-133h-520z" />
    <glyph glyph-name="lozenge" unicode="&#x25ca;" horiz-adv-x="726" 
d="M236 0l-206 250l206 250h254l206 -250l-206 -250h-254zM363 132l101 118l-101 118l-101 -118z" />
    <glyph glyph-name="A.001" horiz-adv-x="1105" 
d="M25 0l379 700h297l379 -700h-229l-59 118h-479l-59 -118h-229zM398 290h309l-155 310z" />
    <glyph glyph-name="B.001" horiz-adv-x="926" 
d="M80 0v700h535q106 0 165.5 -51t59.5 -134q0 -150 -225 -150h-41v-20h63q106 0 166 -39t60 -120q0 -84 -62 -135t-164 -51h-557zM283 435h297q58 0 58 46q0 47 -58 47h-298zM284 173h318q58 0 58 49q0 27 -16 40.5t-42 13.5h-319z" />
    <glyph glyph-name="C.001" horiz-adv-x="847" 
d="M512 -16q-224 0 -348 99t-124 267t124 267t348 99q174 -1 295 -54v-182q-126 64 -295 64q-270 0 -270 -194t270 -194q169 0 295 64v-182q-121 -53 -295 -54z" />
    <glyph glyph-name="G.001" horiz-adv-x="927" 
d="M522 -16q-224 0 -348 99t-124 267t124 267t348 99q215 -2 335 -54v-182q-56 28 -151.5 46t-183.5 18q-270 0 -270 -194t270 -194q79 0 185 16v92h-328v163h498v-369q-105 -74 -355 -74z" />
    <glyph glyph-name="J.001" horiz-adv-x="722" 
d="M300 -16q-174 1 -295 54v192q148 -74 295 -74q67 0 103.5 42.5t36.5 140.5v361h202v-361q0 -355 -342 -355z" />
    <glyph glyph-name="K.001" horiz-adv-x="972" 
d="M80 0v700h202v-331l308 331h300l-262 -239l314 -461h-281l-198 312q-44 -37 -98 -73t-83 -49v-190h-202z" />
    <glyph glyph-name="R.001" horiz-adv-x="931" 
d="M80 0v700h565q106 0 165.5 -51t59.5 -134t-61 -129.5t-164 -46.5h-105v-21q75 0 125.5 -14.5t95 -55t78.5 -95.5t82 -153h-266q-4 7 -11 20q-92 164 -124 204q-42 50 -99 56q-14 2 -30 2h-110l1 -282h-202zM281 435h329q58 0 58 51q0 52 -58 52h-330z" />
    <glyph glyph-name="S.001" horiz-adv-x="879" 
d="M433 -15q-108 0 -209 24t-158 50v185q57 -30 162 -58.5t189 -28.5q220 0 220 77q0 25 -33 36t-85.5 12t-116.5 1t-127.5 8t-116 27t-85.5 63.5t-33 112.5q0 58 32 102t87.5 69t123 37.5t145.5 12.5q229 0 351 -54v-182q-56 28 -156 46t-180 18q-99 0 -150 -19t-51 -49
q0 -21 33 -30.5t85.5 -11t116 -2t127.5 -10t116.5 -29t85.5 -64.5t33 -112q0 -65 -36 -112.5t-98 -72t-129 -35.5t-143 -11z" />
    <glyph glyph-name="i.loclTRK" horiz-adv-x="228" 
d="M115 536q-44 0 -71.5 23.5t-27.5 61.5t27.5 61.5t71.5 23.5q47 0 73 -23t26 -62t-26 -62t-73 -23zM13 0v500h202v-500h-202z" />
    <glyph glyph-name="c.001" horiz-adv-x="682" 
d="M341 -16q-136 0 -218.5 73t-82.5 193t82.5 193t218.5 73q135 0 217.5 -65t82.5 -172h-204q-7 32 -33 52t-63 20q-44 0 -71.5 -27.5t-27.5 -73.5t27.5 -73.5t71.5 -27.5q39 0 66 22t32 58h203q0 -110 -82.5 -177.5t-218.5 -67.5z" />
    <glyph glyph-name="e.001" horiz-adv-x="685" 
d="M437 175h208q0 -93 -83.5 -142t-220.5 -49q-136 0 -218.5 73t-82.5 193t82.5 193t218.5 73q134 0 216.5 -62.5t84.5 -164.5v-82h-394q20 -68 103 -68q86 0 86 36zM341 361q-39 0 -64.5 -22t-32.5 -62l193 4q-2 38 -28 59t-68 21z" />
    <glyph glyph-name="g.001" horiz-adv-x="803" 
d="M402 -200q-155 0 -242.5 51.5t-87.5 138.5h202q0 -23 32.5 -36.5t85.5 -13.5q92 0 121 39.5t29 154.5q-23 -64 -87.5 -97t-153.5 -33q-115 0 -183 65.5t-68 184.5q0 118 69.5 190t183.5 72q90 0 155.5 -49t81.5 -129h13l-15 162h203l2 -440q0 -124 -85.5 -192t-255.5 -68
zM382 146q59 0 100.5 26.5t41.5 79.5q0 52 -41.5 77t-100.5 25q-58 0 -99 -25t-41 -77q0 -53 41 -79.5t99 -26.5z" />
    <glyph glyph-name="zero.tf" horiz-adv-x="945" 
d="M472 -16q-202 0 -317 99.5t-115 266.5q0 166 116 266t316 100q204 0 318.5 -98.5t114.5 -267.5q0 -167 -115 -266.5t-318 -99.5zM473 11q198 0 301.5 93.5t103.5 247.5q0 152 -104.5 244.5t-300.5 92.5q-192 0 -299 -94.5t-107 -246.5q0 -150 108 -243.5t298 -93.5z
M472 123q-126 0 -200 62t-74 165t74 165.5t200 62.5q127 0 201 -62.5t74 -165.5t-74 -165t-201 -62zM472 230q72 0 111 30.5t39 89.5t-39 90t-111 31q-71 0 -110 -31t-39 -90t39 -89.5t110 -30.5z" />
    <glyph glyph-name="one.tf" horiz-adv-x="945" 
d="M472 -16q-202 0 -317 99.5t-115 266.5q0 166 116 266t316 100q204 0 318.5 -98.5t114.5 -267.5q0 -167 -115 -266.5t-318 -99.5zM472 11q198 0 301.5 93.5t103.5 247.5q0 152 -104.5 244.5t-300.5 92.5q-192 0 -299 -94.5t-107 -246.5q0 -150 108 -243.5t298 -93.5z
M449 133v335l-218 -136v125l255 111h89v-435h-126z" />
    <glyph glyph-name="two.tf" horiz-adv-x="945" 
d="M472 -16q-202 0 -317 99.5t-115 266.5q0 165 116.5 265.5t315.5 100.5q204 0 318.5 -98.5t114.5 -267.5q0 -167 -115 -266.5t-318 -99.5zM472 11q198 0 301.5 93.5t103.5 247.5q0 152 -104.5 244.5t-300.5 92.5q-192 0 -299 -94.5t-107 -246.5q0 -150 108 -243.5
t298 -93.5zM245 136v86q36 17 95.5 43t99.5 44t81 39t62 40t21 36q0 26 -29 36.5t-95 10.5q-46 0 -115.5 -8.5t-88.5 -16.5v112q26 9 94.5 15.5t126.5 6.5q122 0 177.5 -27.5t55.5 -102.5q0 -141 -347 -207h329v-107h-467z" />
    <glyph glyph-name="three.tf" horiz-adv-x="945" 
d="M472 -16q-202 0 -317 99.5t-115 266.5q0 165 116.5 265.5t315.5 100.5q204 0 318.5 -98.5t114.5 -267.5q0 -167 -115 -266.5t-318 -99.5zM472 11q198 0 301.5 93.5t103.5 247.5q0 152 -104.5 244.5t-300.5 92.5q-192 0 -299 -94.5t-107 -246.5q0 -150 108 -243.5
t298 -93.5zM477 123q-130 2 -202 27v107q63 -27 196 -27q142 0 142 32q0 16 -24.5 25.5t-93 17t-197.5 13.5v63q83 4 140.5 8.5t89 9t48.5 10.5t21 11t4 12q0 21 -40.5 30t-90.5 9t-107.5 -7.5t-87.5 -20.5v107q77 28 201 28q56 0 95 -4t75.5 -16t55 -36.5t18.5 -62.5
q0 -25 -13 -44.5t-36.5 -30t-44.5 -17.5t-49.5 -9t-38 -2.5t-22.5 -0.5v-6h17t25.5 -0.5t29.5 -2t33.5 -4.5t32.5 -7.5t31 -12t24.5 -17.5t17.5 -24.5t6 -31.5q0 -73 -65.5 -100t-190.5 -26z" />
    <glyph glyph-name="four.tf" horiz-adv-x="945" 
d="M472 -16q-202 0 -317 99.5t-115 266.5q0 165 116.5 265.5t315.5 100.5q204 0 318.5 -98.5t114.5 -267.5q0 -167 -115 -266.5t-318 -99.5zM472 11q198 0 301.5 93.5t103.5 247.5q0 152 -104.5 244.5t-300.5 92.5q-192 0 -299 -94.5t-107 -246.5q0 -150 108 -243.5
t298 -93.5zM529 133v68h-337v83l275 284h187v-261h55v-106h-55v-68h-125zM333 307h196v219z" />
    <glyph glyph-name="five.tf" horiz-adv-x="945" 
d="M472 -16q-202 0 -317 99.5t-115 266.5q0 165 116.5 265.5t315.5 100.5q204 0 318.5 -98.5t114.5 -267.5q0 -167 -115 -266.5t-318 -99.5zM472 11q198 0 301.5 93.5t103.5 247.5q0 152 -104.5 244.5t-300.5 92.5q-192 0 -299 -94.5t-107 -246.5q0 -150 108 -243.5
t298 -93.5zM453 119q-47 0 -107.5 7t-88.5 19v113q25 -11 87.5 -21t107.5 -10q134 0 134 42q0 27 -27 39.5t-89 12.5q-54 0 -189 -21v264h407v-107h-311v-68q65 22 139 22q195 0 195 -142q0 -71 -70.5 -110.5t-187.5 -39.5z" />
    <glyph glyph-name="six.tf" horiz-adv-x="945" 
d="M472 -16q-202 0 -317 99.5t-115 266.5q0 165 116.5 265.5t315.5 100.5q204 0 318.5 -98.5t114.5 -267.5q0 -167 -115 -266.5t-318 -99.5zM472 11q198 0 301.5 93.5t103.5 247.5q0 152 -104.5 244.5t-300.5 92.5q-192 0 -299 -94.5t-107 -246.5q0 -150 108 -243.5
t298 -93.5zM483 126q-118 0 -186 58t-68 174q0 105 74 162t198 57q104 0 176 -36v-115q-78 44 -173 44q-71 0 -110.5 -29t-39.5 -83v-3q66 64 159 64q98 0 148 -40.5t50 -107.5t-60 -106t-168 -39zM478 232q47 0 77 12t30 36q0 49 -88 49q-67 0 -132 -28q29 -69 113 -69z
" />
    <glyph glyph-name="seven.tf" horiz-adv-x="945" 
d="M472 -16q-202 0 -317 99.5t-115 266.5q0 165 116.5 265.5t315.5 100.5q204 0 318.5 -98.5t114.5 -267.5q0 -167 -115 -266.5t-318 -99.5zM472 11q198 0 301.5 93.5t103.5 247.5q0 152 -104.5 244.5t-300.5 92.5q-192 0 -299 -94.5t-107 -246.5q0 -150 108 -243.5
t298 -93.5zM284 133l274 328h-306v107h503v-56l-296 -379h-175z" />
    <glyph glyph-name="eight.tf" horiz-adv-x="945" 
d="M472 -16q-202 0 -317 99.5t-115 266.5q0 165 116.5 265.5t315.5 100.5q204 0 318.5 -98.5t114.5 -267.5q0 -167 -115 -266.5t-318 -99.5zM473 11q198 0 301.5 93.5t103.5 247.5q0 152 -104.5 244.5t-300.5 92.5q-192 0 -299 -94.5t-107 -246.5q0 -150 108 -243.5
t298 -93.5zM473 120q-116 -2 -183 31.5t-67 94.5q0 83 147 100q-54 9 -94.5 34.5t-40.5 74.5q0 58 64 89t174 31q102 0 170 -31t68 -89q0 -49 -41 -74.5t-95 -34.5q148 -17 148 -100q0 -60 -70 -94t-180 -32zM473 398q31 0 53.5 2.5t33.5 6.5t17 10t7 10t1 10q0 37 -112 37
t-112 -37q0 -7 0.5 -10.5t6 -10t16.5 -9.5t33.5 -6t55.5 -3zM472 220q125 0 125 36q0 13 -7 20t-35 12.5t-82 5.5t-82.5 -5.5t-35 -12.5t-6.5 -20q0 -36 123 -36z" />
    <glyph glyph-name="nine.tf" horiz-adv-x="945" 
d="M472 -16q-202 0 -317 99.5t-115 266.5q0 165 116.5 265.5t315.5 100.5q204 0 318.5 -98.5t114.5 -267.5q0 -167 -115 -266.5t-318 -99.5zM473 11q198 0 301.5 93.5t103.5 247.5q0 152 -104.5 244.5t-300.5 92.5q-192 0 -299 -94.5t-107 -246.5q0 -150 108 -243.5
t298 -93.5zM484 576q118 0 186.5 -58.5t68.5 -173.5q0 -106 -74 -162.5t-199 -56.5q-102 0 -176 36v115q78 -44 174 -44q70 0 109.5 29t39.5 83v3q-66 -64 -158 -64q-98 0 -148 40.5t-50 107.5t60 106t167 39zM490 470q-48 0 -77.5 -12t-29.5 -36q0 -49 87 -49q67 0 132 28
q-29 69 -112 69z" />
    <glyph glyph-name="dollar.001" horiz-adv-x="863" 
d="M310 -110v102q-146 18 -254 67v185q57 -30 162 -58.5t189 -28.5q220 0 220 77q0 25 -33 36t-85.5 12t-116 1t-127.5 8t-116.5 27t-85.5 63.5t-33 112.5q0 93 77 146.5t203 68.5v126h202v-123q163 -9 257 -51v-182q-56 28 -156 46t-180 18q-99 0 -150 -19t-51 -49
q0 -21 33 -30.5t85.5 -11t116 -2t127.5 -10t116.5 -29t85.5 -64.5t33 -112q0 -55 -26 -98t-72.5 -68.5t-100.5 -40t-118 -20.5v-99h-202z" />
    <glyph glyph-name="Euro.001" horiz-adv-x="927" 
d="M602 -16q-179 0 -295 64.5t-157 179.5h-120v103h100v19q0 14 1 21h-101v103h121q41 114 157 178t294 64q174 -1 295 -54v-182q-126 64 -295 64q-162 0 -227 -70h365v-103h-407l-1 -21q0 -13 1 -19h407v-103h-367q64 -72 229 -72q169 0 295 64v-182q-121 -53 -295 -54z
" />
    <glyph glyph-name="brevecombcy" 
d="M-237 551q-93 0 -152.5 41t-60.5 108h105q1 -40 30.5 -60.5t77.5 -20.5q104 0 110 81h103q-1 -69 -56.5 -109t-156.5 -40z" />
    </font>
</defs>
</svg>
