<?xml version="1.0" standalone="no"?>
<!DOCTYPE svg PUBLIC "-//W3C//DTD SVG 1.1//EN" "http://www.w3.org/Graphics/SVG/1.1/DTD/svg11.dtd" >
<svg xmlns="http://www.w3.org/2000/svg" xmlns:xlink="http://www.w3.org/1999/xlink" version="1.1">
<metadata>
Created by FontForge 20190801 at Tue Sep 12 15:50:05 2017
 By www-data
Copyright (c) 2017 by Good Type Foundry Kenneth Knutsen. All rights reserved.
</metadata>
<defs>
<font id="GoodTypeFoundryAdieuBlackBackslant" horiz-adv-x="0" >
  <font-face 
    font-family="GoodTypeFoundryAdieuBlackBackslant"
    font-weight="900"
    font-stretch="normal"
    units-per-em="1000"
    panose-1="0 0 10 0 0 0 0 0 0 0"
    ascent="800"
    descent="-200"
    x-height="500"
    cap-height="700"
    bbox="-1082 -532 1732.48 1021"
    underline-thickness="50"
    underline-position="-100"
    unicode-range="U+0020-25CA"
  />
<missing-glyph horiz-adv-x="843" 
d="M422 -11q-151 0 -256.5 107t-105.5 255q0 147 106.5 254t255.5 107q147 0 254 -106t107 -255q0 -150 -107 -256t-254 -106zM422 63q119 0 203 84t84 204t-84 203.5t-203 83.5q-120 0 -204 -83.5t-84 -203.5t84 -204t204 -84zM329 394q-28 0 -47 18.5t-19 45.5
q0 26 19 44.5t47 18.5q26 0 45 -18.5t19 -44.5q0 -27 -19 -45.5t-45 -18.5zM521 394q-27 0 -45 18.5t-18 45.5q0 26 18 44.5t45 18.5t46 -18.5t19 -44.5q0 -27 -19 -45.5t-46 -18.5zM422 151q-94 0 -156 51.5t-62 136.5l64 9q4 -46 40 -80t114 -34q77 0 114.5 34.5
t39.5 79.5l63 -9q0 -85 -63 -136.5t-154 -51.5z" />
    <glyph glyph-name=".notdef" horiz-adv-x="843" 
d="M422 -11q-151 0 -256.5 107t-105.5 255q0 147 106.5 254t255.5 107q147 0 254 -106t107 -255q0 -150 -107 -256t-254 -106zM422 63q119 0 203 84t84 204t-84 203.5t-203 83.5q-120 0 -204 -83.5t-84 -203.5t84 -204t204 -84zM329 394q-28 0 -47 18.5t-19 45.5
q0 26 19 44.5t47 18.5q26 0 45 -18.5t19 -44.5q0 -27 -19 -45.5t-45 -18.5zM521 394q-27 0 -45 18.5t-18 45.5q0 26 18 44.5t45 18.5t46 -18.5t19 -44.5q0 -27 -19 -45.5t-46 -18.5zM422 151q-94 0 -156 51.5t-62 136.5l64 9q4 -46 40 -80t114 -34q77 0 114.5 34.5
t39.5 79.5l63 -9q0 -85 -63 -136.5t-154 -51.5z" />
    <glyph glyph-name=".null" 
 />
    <glyph glyph-name="nonmarkingreturn" horiz-adv-x="333" 
 />
    <glyph glyph-name="space" unicode=" " horiz-adv-x="300" 
 />
    <glyph glyph-name="exclam" unicode="!" horiz-adv-x="325" 
d="M88 294l-82 406h202l62 -406h-182zM231 -10q-52 0 -87 28t-44 79t16 79t77 28t87.5 -28t44.5 -79t-15.5 -79t-78.5 -28z" />
    <glyph glyph-name="quotedbl" unicode="&#x22;" horiz-adv-x="425" 
d="M71 430l-65 270h170l15 -270h-120zM266 430l-65 270h170l15 -270h-120z" />
    <glyph glyph-name="numbersign" unicode="#" horiz-adv-x="1009" 
d="M156 0l39 183h-165l20 127h173l13 63h-176l20 127h184l43 200h171l-43 -200h227l43 200h171l-43 -200h146l-20 -127h-154l-13 -63h157l-20 -127h-165l-39 -183h-171l39 183h-227l-39 -183h-171zM394 310h227l13 63h-227z" />
    <glyph glyph-name="dollar" unicode="$" horiz-adv-x="863" 
d="M869 219q15 -94 -61 -156t-220 -76l18 -97h-202l-19 103q-136 21 -223.5 84t-100.5 154h216q2 -15 17.5 -30.5t60 -29.5t109.5 -15q45 -1 79.5 1t65.5 8t46 19t11 32q-3 20 -37.5 30t-87 13.5t-116 7t-128.5 14.5t-120 31.5t-94.5 63.5t-49.5 105q-14 88 46.5 148
t179.5 79l-23 127h202l23 -125q138 -17 229 -81.5t109 -159.5h-216q-2 16 -15 31t-53 29t-102 15q-42 1 -72 -1t-57 -8t-39.5 -19t-8.5 -32q5 -29 68 -41t150.5 -18.5t176.5 -20.5t157 -60t81 -125z" />
    <glyph glyph-name="percent" unicode="%" horiz-adv-x="1039" 
d="M239 460q-86 0 -153.5 35t-77.5 90q-9 55 46 90t141 35q93 0 157.5 -34.5t73.5 -90.5q10 -56 -42 -90.5t-145 -34.5zM171 0l566 700h141l-566 -700h-141zM228 522q34 0 52.5 16.5t11.5 46.5q-12 63 -85 63q-33 0 -51 -16.5t-13 -46.5q6 -30 29 -46.5t56 -16.5zM844 -10
q-87 0 -154.5 35t-76.5 90q-10 55 45 90t142 35q93 0 157 -34.5t74 -90.5q9 -56 -42.5 -90.5t-144.5 -34.5zM832 52q33 0 51.5 16.5t13.5 46.5q-13 63 -86 63q-33 0 -51 -16.5t-12 -46.5q5 -30 28 -46.5t56 -16.5z" />
    <glyph glyph-name="ampersand" unicode="&#x26;" horiz-adv-x="971" 
d="M419 -12q-52 0 -103.5 8t-108.5 28t-97.5 61.5t-50.5 100.5q-16 89 39.5 147.5t148.5 60.5l-190 156l-26 150h625l35 -200h-276l225 -185q55 63 84 127l168 -150q-24 -68 -70 -125l204 -167h-298l-57 47q-117 -59 -252 -59zM392 180q47 0 93 19l-184 151
q-56 -1 -86.5 -22t-25.5 -51q8 -49 62 -73t141 -24z" />
    <glyph glyph-name="quotesingle" unicode="'" horiz-adv-x="230" 
d="M71 430l-65 270h170l15 -270h-120z" />
    <glyph glyph-name="parenleft" unicode="(" horiz-adv-x="470" 
d="M506 -137q-174 1 -295 133t-161 354q-39 221 36 353.5t248 133.5l31 -176q-98 -1 -143 -86.5t-20 -224.5q25 -140 99.5 -225t173.5 -86z" />
    <glyph glyph-name="parenright" unicode=")" horiz-adv-x="470" 
d="M136 -137l-31 176q109 1 150.5 74.5t12.5 236.5t-95.5 236.5t-177.5 74.5l-31 176q174 -1 295 -133t161 -354q39 -221 -36 -353.5t-248 -133.5z" />
    <glyph glyph-name="asterisk" unicode="*" horiz-adv-x="615" 
d="M292 194l-1 195l-100 -158l-96 75l153 117l-209 -30l-18 108l219 -30l-195 117l69 76l157 -159l-67 195h118l2 -195l99 159l97 -76l-154 -117l210 30l18 -108l-220 30l196 -117l-70 -75l-156 158l66 -195h-118z" />
    <glyph glyph-name="plus" unicode="+" horiz-adv-x="580" 
d="M250 71l-31 173h-173l-31 173h173l-31 174h173l31 -174h174l31 -173h-174l31 -173h-173z" />
    <glyph glyph-name="comma" unicode="," horiz-adv-x="293" 
d="M54 -169l15 270h170l-65 -270h-120z" />
    <glyph glyph-name="hyphen" unicode="-" horiz-adv-x="460" 
d="M46 244l-32 173h400l32 -173h-400z" />
    <glyph glyph-name="period" unicode="." horiz-adv-x="285" 
d="M161 -10q-52 0 -87 28t-44 79t16 79t77 28t87.5 -28t44.5 -79t-15.5 -79t-78.5 -28z" />
    <glyph glyph-name="slash" unicode="/" horiz-adv-x="1063" 
d="M91 0l710 700h171l-710 -700h-171z" />
    <glyph glyph-name="zero" unicode="0" horiz-adv-x="965" 
d="M546 -16q-203 0 -340 100t-166 266t72.5 266t305.5 100t341 -100t166 -266t-73 -266t-306 -100zM516 156q116 0 169.5 49.5t37.5 144.5t-87.5 144.5t-187.5 49.5q-115 0 -168.5 -49.5t-37.5 -144.5t87.5 -144.5t186.5 -49.5z" />
    <glyph glyph-name="one" unicode="1" horiz-adv-x="643" 
d="M422 0l-95 539l-312 -218l-36 201l381 178h142l122 -700h-202z" />
    <glyph glyph-name="two" unicode="2" horiz-adv-x="842" 
d="M93 0l-25 139q53 27 142.5 69t148.5 70.5t119 63t88.5 65t23.5 57.5q-7 42 -57 58.5t-156 16.5q-75 0 -184 -13.5t-138 -25.5l-32 180q39 13 140.5 23.5t192.5 11.5q81 1 141.5 -4.5t112.5 -19t86.5 -37.5t57.5 -60.5t32 -87.5q8 -48 -9.5 -91t-58 -75.5t-89 -59.5
t-112 -47.5t-117.5 -34.5t-114 -26h528l31 -172h-752z" />
    <glyph glyph-name="three" unicode="3" horiz-adv-x="798" 
d="M420 -16q-211 2 -333 44l-31 172q51 -20 146.5 -32t178.5 -12q229 0 219 52q-5 25 -47.5 40.5t-154 27.5t-320.5 22l-18 101q133 6 224 13.5t140.5 14.5t74.5 17t30 18t3 20q-6 33 -74.5 48t-147.5 15t-170 -12.5t-137 -32.5l-29 172q54 22 145.5 33.5t171.5 11.5
q71 0 124 -3.5t108.5 -15.5t92.5 -32.5t64.5 -56t36.5 -84.5q5 -31 -2.5 -56.5t-28 -42.5t-42.5 -30t-55 -20t-55 -11.5t-53.5 -5.5t-40 -1.5t-23.5 -0.5l2 -9q2 0 31.5 -0.5t49 -1.5t56.5 -5t63.5 -10t59.5 -18t55 -28.5t40 -41.5t23 -56q9 -50 -5 -86.5t-44.5 -59t-82 -36
t-109.5 -18t-136 -3.5z" />
    <glyph glyph-name="four" unicode="4" horiz-adv-x="858" 
d="M613 0l-19 109h-541l-24 134l362 457h302l73 -419h89l31 -172h-90l19 -109h-202zM249 281h315l-62 351z" />
    <glyph glyph-name="five" unicode="5" horiz-adv-x="802" 
d="M410 -16q-75 0 -175 11.5t-149 29.5l-33 183q44 -18 147.5 -34t176.5 -16q105 0 157.5 15t46.5 53q-8 43 -54.5 63t-147.5 20q-52 0 -102.5 -5t-123 -16.5t-73.5 -11.5l-74 424h655l30 -172h-500l19 -110q96 36 218 36q315 0 355 -228q20 -114 -82.5 -178t-290.5 -64z
" />
    <glyph glyph-name="six" unicode="6" horiz-adv-x="856" 
d="M514 -12q-190 0 -316.5 94t-159.5 280q-30 170 73.5 261.5t303.5 91.5q164 0 293 -58l33 -185q-140 70 -291 70q-113 0 -169 -46.5t-41 -133.5l1 -5q87 103 237 103q162 0 254 -68t108 -180q15 -103 -71 -163.5t-255 -60.5zM475 160q76 0 120 19.5t38 57.5
q-7 37 -46.5 57.5t-107.5 20.5q-111 0 -205 -45q67 -110 201 -110z" />
    <glyph glyph-name="seven" unicode="7" horiz-adv-x="830" 
d="M122 0l350 528h-494l-29 172h810l15 -89l-370 -611h-282z" />
    <glyph glyph-name="eight" unicode="8" horiz-adv-x="866" 
d="M497 -20q-185 -2 -303 51.5t-135 151.5q-7 42 9.5 73t52 48.5t71 26.5t77.5 13q-40 6 -76 17.5t-74.5 31.5t-65.5 53t-34 75q-16 92 78.5 142t271.5 50q165 0 282.5 -49.5t133.5 -142.5q7 -42 -7.5 -75t-46 -53t-63.5 -31.5t-70 -17.5q243 -24 267 -161
q16 -96 -87 -150.5t-281 -52.5zM418 428q50 0 85 4t51.5 10.5t25.5 15t8 17t-1 16.5q-10 60 -190 60q-48 0 -84.5 -4.5t-63 -18.5t-22.5 -37q2 -12 3.5 -17t12.5 -16t29 -16t55.5 -9.5t90.5 -4.5zM468 142q102 0 149 14.5t42 43.5q-4 21 -17 32.5t-60 20t-134 8.5
q-53 0 -90.5 -3t-57 -8.5t-30.5 -13t-11.5 -16.5t0.5 -20q9 -58 209 -58z" />
    <glyph glyph-name="nine" unicode="9" horiz-adv-x="856" 
d="M352 714q190 0 316.5 -94t159.5 -280q30 -170 -73.5 -261.5t-303.5 -91.5q-164 0 -293 58l-33 185q140 -70 291 -70q113 0 169 46.5t41 133.5l-1 5q-87 -103 -237 -103q-162 0 -254 68t-108 180q-15 103 71 163.5t255 60.5zM391 542q-76 0 -120 -19.5t-38 -57.5
q7 -37 46.5 -57.5t107.5 -20.5q111 0 205 45q-67 110 -201 110z" />
    <glyph glyph-name="colon" unicode=":" horiz-adv-x="305" 
d="M134 296q-52 0 -87 28t-44 79t16 79t77 28t87.5 -28t44.5 -79t-15.5 -79t-78.5 -28zM188 -10q-52 0 -87 28t-44 79t16 79t77 28t87.5 -28t44.5 -79t-15.5 -79t-78.5 -28z" />
    <glyph glyph-name="semicolon" unicode=";" horiz-adv-x="293" 
d="M183 296q-52 0 -87 28t-44 79t16 79t77 28t87.5 -28t44.5 -79t-15.5 -79t-78.5 -28zM30 -169l63 270h170l-113 -270h-120z" />
    <glyph glyph-name="less" unicode="&#x3c;" horiz-adv-x="506" 
d="M280 0l-250 250l162 250h240l-170 -250l258 -250h-240z" />
    <glyph glyph-name="equal" unicode="=" horiz-adv-x="580" 
d="M23 367l-30 173h520l30 -173h-520zM67 114l-30 173h520l30 -173h-520z" />
    <glyph glyph-name="greater" unicode="&#x3e;" horiz-adv-x="506" 
d="M74 0l170 250l-258 250h240l250 -250l-162 -250h-240z" />
    <glyph glyph-name="question" unicode="?" horiz-adv-x="728" 
d="M211 232q-17 63 -6 101t37.5 54.5t61.5 24t66 10t50.5 12t15.5 30.5q-7 42 -57.5 58.5t-156.5 16.5q-102 0 -241 -21l-31 179q116 16 251 18q206 2 307 -42t123 -167q9 -51 1 -88.5t-28 -56.5t-47 -32.5t-56 -16.5t-56 -9.5t-46.5 -11t-27 -20.5t2.5 -39h-163zM333 -10
q-52 0 -87 28t-44 79t16 79t77 28t87.5 -28t44.5 -79t-15.5 -79t-78.5 -28z" />
    <glyph glyph-name="at" unicode="@" horiz-adv-x="1073" 
d="M536 725q220 0 353.5 -107.5t133.5 -265.5q0 -77 -40.5 -138t-123.5 -92h-190l-11 147h-10q-3 -87 -37 -123.5t-125 -36.5q-154 0 -173 108q-12 67 62.5 101.5t242.5 45.5q-2 17 -25 28t-57 11q-103 0 -196 -42l-26 141q113 45 229 45q207 0 244 -193l31 -181
q39 35 55 77t16 102q0 115 -94 184.5t-259 69.5q-169 0 -260.5 -72.5t-91.5 -211.5t91.5 -211.5t260.5 -72.5q99 0 171 25v-124q-80 -20 -171 -20q-224 0 -355 110t-131 293t131 293t355 110zM543 221q40 0 67.5 20t19.5 59q-37 -2 -64 -5.5t-48.5 -9.5t-31.5 -14.5
t-8 -20.5q5 -29 65 -29z" />
    <glyph glyph-name="A" unicode="A" horiz-adv-x="1105" 
d="M86 0l297 700h217l541 -700h-239l-86 118h-445l-46 -118h-239zM436 290h254l-167 228z" />
    <glyph glyph-name="B" unicode="B" horiz-adv-x="926" 
d="M141 0l-122 700h535q106 0 174 -51t83 -134q13 -75 -31.5 -114.5t-134.5 -44.5q101 -2 167 -46t80 -124q14 -84 -39 -135t-155 -51h-557zM268 435h297q28 0 41.5 10t8.5 36q-8 47 -67 47h-297zM314 173h319q58 0 49 49q-9 54 -67 54h-319z" />
    <glyph glyph-name="C" unicode="C" horiz-adv-x="924" 
d="M526 -16q-190 0 -323.5 100.5t-162.5 265.5t69.5 265.5t288.5 100.5t321.5 -88t156.5 -233h-204q-19 74 -84 111.5t-160 37.5q-101 0 -151.5 -50t-34.5 -144t84 -144t170 -50q95 0 147 37.5t45 111.5h204q25 -145 -75.5 -233t-290.5 -88z" />
    <glyph glyph-name="D" unicode="D" horiz-adv-x="865" 
d="M141 0l-122 700h337q192 0 315.5 -90t153.5 -260q30 -171 -62 -260.5t-285 -89.5h-337zM314 172h135q105 0 147.5 43.5t26.5 134.5q-16 92 -75 135t-163 43h-135z" />
    <glyph glyph-name="E" unicode="E" horiz-adv-x="855" 
d="M141 0l-122 700h705l29 -172h-503l16 -91h494l30 -163h-494l18 -102h503l29 -172h-705z" />
    <glyph glyph-name="F" unicode="F" horiz-adv-x="765" 
d="M141 0l-122 700h645l29 -172h-443l16 -91h434l30 -163h-435l48 -274h-202z" />
    <glyph glyph-name="G" unicode="G" horiz-adv-x="954" 
d="M536 -16q-190 0 -323.5 100.5t-162.5 265.5t69.5 265.5t288.5 100.5q182 0 314.5 -75.5t154.5 -196.5h-211q-19 100 -228 100q-101 0 -151.5 -50t-34.5 -144t84 -144t170 -50q175 0 194 97h-316l-24 140h537l68 -393h-116l-40 149q-23 -83 -95 -124t-178 -41z" />
    <glyph glyph-name="H" unicode="H" horiz-adv-x="975" 
d="M141 0l-122 700h202l43 -248h411l-43 248h202l122 -700h-202l-49 279h-411l49 -279h-202z" />
    <glyph glyph-name="I" unicode="I" horiz-adv-x="362" 
d="M141 0l-122 700h202l122 -700h-202z" />
    <glyph glyph-name="J" unicode="J" horiz-adv-x="815" 
d="M456 -16q-342 0 -406 355h203q18 -98 62 -140.5t111 -42.5t96 42.5t11 140.5l-33 189h-390l-30 172h592l63 -361q64 -355 -279 -355z" />
    <glyph glyph-name="K" unicode="K" horiz-adv-x="972" 
d="M141 0l-122 700h202l55 -316l273 316h300l-235 -246l389 -454h-281l-249 307l-155 -162l25 -145h-202z" />
    <glyph glyph-name="L" unicode="L" horiz-adv-x="715" 
d="M141 0l-122 700h202l93 -528h443l29 -172h-645z" />
    <glyph glyph-name="M" unicode="M" horiz-adv-x="1042" 
d="M141 0l-122 700h161l353 -417l207 417h161l122 -700h-202l-58 333l-160 -333h-42l-276 334l58 -334h-202z" />
    <glyph glyph-name="N" unicode="N" horiz-adv-x="978" 
d="M141 0l-122 700h159l525 -387l-68 387h202l122 -700h-160l-524 386l68 -386h-202z" />
    <glyph glyph-name="O" unicode="O" horiz-adv-x="965" 
d="M546 -16q-203 0 -340 100t-166 266t72.5 266t305.5 100t341 -100t166 -266t-73 -266t-306 -100zM516 156q116 0 169.5 49.5t37.5 144.5t-87.5 144.5t-187.5 49.5q-115 0 -168.5 -49.5t-37.5 -144.5t87.5 -144.5t186.5 -49.5z" />
    <glyph glyph-name="P" unicode="P" horiz-adv-x="870" 
d="M141 0l-122 700h515q106 0 181.5 -62t90.5 -152q18 -103 -37.5 -158t-160.5 -55h-313l48 -273h-202zM266 435h289q57 0 49 51q-8 52 -67 52h-288z" />
    <glyph glyph-name="Q" unicode="Q" horiz-adv-x="985" 
d="M990 145l-137 -171l-70 60q-97 -50 -236 -50q-203 0 -340 100t-166 266t72.5 266t305.5 100t341 -100t166 -266q16 -91 -8 -163zM517 156q60 0 105 14l-118 100l85 106l138 -80q1 26 -3 54q-16 95 -87.5 144.5t-187.5 49.5q-115 0 -168.5 -49.5t-37.5 -144.5t87.5 -144.5
t186.5 -49.5z" />
    <glyph glyph-name="R" unicode="R" horiz-adv-x="941" 
d="M141 0l-122 700h565q106 0 174 -51t83 -134q14 -83 -38.5 -129.5t-155.5 -46.5h-72q65 -4 114.5 -24t98.5 -66t89.5 -99.5t104.5 -149.5h-266q-129 175 -165 214q-54 57 -110 65q-17 3 -38 3h-110l50 -282h-202zM266 435h329q29 0 41 12t8 39q-8 52 -67 52h-329z" />
    <glyph glyph-name="S" unicode="S" horiz-adv-x="886" 
d="M497 -16q-180 3 -300 70.5t-136 176.5h216q2 -15 17.5 -30.5t60 -29.5t109.5 -15q45 -1 79.5 1t65.5 8t46 19t11 32q-3 20 -37.5 30t-87 13.5t-116 7t-128.5 14.5t-120 31.5t-94.5 63.5t-49.5 105q-17 109 78.5 173.5t268.5 61.5q168 -3 283.5 -70.5t135.5 -176.5h-216
q-2 16 -15 31t-53 29t-102 15q-42 1 -72 -1t-57 -8t-39.5 -19t-8.5 -32q5 -29 68 -41t150.5 -18.5t176.5 -20.5t157 -60t81 -125q17 -109 -85 -173.5t-287 -61.5z" />
    <glyph glyph-name="T" unicode="T" horiz-adv-x="873" 
d="M396 0l-92 528h-311l-29 172h823l29 -172h-310l92 -528h-202z" />
    <glyph glyph-name="U" unicode="U" horiz-adv-x="924" 
d="M525 -16q-90 0 -160 18t-130 60t-100 117.5t-59 184.5l-59 336h202l65 -366q14 -83 69.5 -126.5t140.5 -43.5t124.5 43.5t25.5 126.5l-65 366h202l59 -336q11 -74 10.5 -131.5t-18.5 -99.5t-44 -70.5t-68 -46t-89 -25t-106 -7.5z" />
    <glyph glyph-name="V" unicode="V" horiz-adv-x="1080" 
d="M455 0l-491 700h239l373 -554l179 554h239l-247 -700h-292z" />
    <glyph glyph-name="W" unicode="W" horiz-adv-x="1281" 
d="M345 0l-381 700h229l218 -416l54 416h229l200 -416l72 416h229l-137 -700h-242l-175 350l-54 -350h-242z" />
    <glyph glyph-name="X" unicode="X" horiz-adv-x="945" 
d="M86 0l245 354l-362 346h279l199 -191l133 191h279l-245 -352l362 -348h-276l-203 194l-135 -194h-276z" />
    <glyph glyph-name="Y" unicode="Y" horiz-adv-x="1070" 
d="M495 0l-39 226l-492 474h249l315 -311l207 311h249l-326 -472l39 -228h-202z" />
    <glyph glyph-name="Z" unicode="Z" horiz-adv-x="913" 
d="M96 0l-22 132l414 396h-477l-29 172h825l22 -130l-412 -398h493l29 -172h-843z" />
    <glyph glyph-name="bracketleft" unicode="[" horiz-adv-x="513" 
d="M109 -190l-158 890h453l25 -142h-251l108 -606h251l25 -142h-453z" />
    <glyph glyph-name="backslash" unicode="\" horiz-adv-x="1063" 
d="M923 0l-954 700h171l954 -700h-171z" />
    <glyph glyph-name="bracketright" unicode="]" horiz-adv-x="513" 
d="M109 -190l-25 142h251l-108 606h-251l-25 142h453l158 -890h-453z" />
    <glyph glyph-name="asciicircum" unicode="^" horiz-adv-x="560" 
d="M64 317l-20 118l202 274l298 -274l20 -118l-292 242z" />
    <glyph glyph-name="underscore" unicode="_" horiz-adv-x="1060" 
d="M46 0l-32 173h1000l32 -173h-1000z" />
    <glyph glyph-name="grave" unicode="`" horiz-adv-x="387" 
d="M361 544l-317 164l-18 102l321 -186z" />
    <glyph glyph-name="a" unicode="a" horiz-adv-x="694" 
d="M273 -16q-186 0 -210 132q-14 81 76 123t295 55q-3 21 -31 34t-69 13q-58 0 -124.5 -14.5t-113.5 -36.5l-31 172q138 54 278 54q253 0 296 -234l49 -282h-192l-13 179h-12q-5 -107 -46 -151t-152 -44zM343 120q48 0 81.5 24.5t23.5 71.5q-45 -3 -78 -7t-58.5 -11
t-37.5 -17.5t-10 -24.5q3 -17 25.5 -26.5t53.5 -9.5z" />
    <glyph glyph-name="b" unicode="b" horiz-adv-x="786" 
d="M558 -16q-96 0 -173 49.5t-108 129.5h-11l51 -163h-206l-124 700h202l63 -361v-1h4q3 80 60 129t147 49q114 0 196 -72t102 -190q22 -122 -34 -196t-169 -74zM448 146q58 0 95 26.5t27 79.5q-10 52 -55 77t-103 25q-59 0 -96.5 -25t-27.5 -77q10 -53 56 -79.5t104 -26.5z
" />
    <glyph glyph-name="c" unicode="c" horiz-adv-x="609" 
d="M378 -16q-135 0 -226 72.5t-112 193.5q-22 123 41.5 194.5t203.5 71.5q119 0 246 -54l30 -170q-115 62 -222 62q-58 0 -86.5 -28.5t-20.5 -75.5q8 -46 48.5 -75t99.5 -29q108 0 196 61l31 -169q-62 -29 -110.5 -41.5t-118.5 -12.5z" />
    <glyph glyph-name="d" unicode="d" horiz-adv-x="786" 
d="M354 -16q-113 0 -195 74t-104 196q-21 118 35.5 190t170.5 72q90 0 164.5 -49t105.5 -129h4l-1 1l-64 361h202l123 -700h-206l-6 163h-11q-3 -81 -62.5 -130t-155.5 -49zM407 146q58 0 94.5 26.5t27.5 79.5q-8 52 -54 77t-106 25q-58 0 -94 -25t-28 -77q9 -53 55.5 -79.5
t104.5 -26.5z" />
    <glyph glyph-name="e" unicode="e" horiz-adv-x="682" 
d="M388 -16q-136 0 -231.5 73t-116.5 193t48.5 193t205.5 73q134 0 227.5 -62.5t113.5 -164.5l14 -82h-402q40 -68 163 -68q35 0 63 2.5t54 10.5t36 11.5t37.5 16.5t29.5 14l29 -161q-65 -26 -120 -37.5t-151 -11.5zM229 277l212 5q-9 36 -42 54t-77 18q-40 0 -65.5 -19.5
t-27.5 -57.5z" />
    <glyph glyph-name="f" unicode="f" horiz-adv-x="413" 
d="M149 0l-62 352h-57l-25 148h56l-3 20q-20 112 1.5 151t115.5 39q61 0 154 -17l21 -123q-37 2 -55 0.5t-28 -9t-8 -22.5t5 -39h99l24 -138h-99l63 -362h-202z" />
    <glyph glyph-name="g" unicode="g" horiz-adv-x="734" 
d="M398 -200q-161 0 -286 29l-29 168q30 -14 96.5 -24.5t141.5 -10.5q107 0 139 36t19 143v5q-9 -69 -68 -105.5t-152 -36.5q-115 0 -195 65.5t-101 184.5q-20 118 36.5 190t170.5 72q90 0 164 -49t105 -129h17l-45 162h203l78 -440q23 -132 -56.5 -196t-237.5 -64zM315 146
q59 0 95.5 26.5t27.5 79.5q-9 52 -55 77t-105 25q-58 0 -94.5 -25t-27.5 -77q9 -53 55 -79.5t104 -26.5z" />
    <glyph glyph-name="h" unicode="h" horiz-adv-x="748" 
d="M111 0l-122 700h216l51 -406h10q-2 123 45 172.5t166 49.5q75 -1 120 -23.5t79 -87.5t56 -188l37 -217h-202l-34 200q-17 95 -49 129.5t-96 34.5q-60 0 -89.5 -56t-14.5 -140v1l29 -169h-202z" />
    <glyph glyph-name="i" unicode="i" horiz-adv-x="302" 
d="M121 541q-119 0 -135 103q-10 55 14.5 79t83.5 24q119 0 138 -103q9 -55 -15.5 -79t-85.5 -24zM117 0l-89 500h202l89 -500h-202z" />
    <glyph glyph-name="j" unicode="j" horiz-adv-x="329" 
d="M113 541q-59 0 -92.5 24t-43.5 79q-9 55 15.5 79t83.5 24q121 0 137 -103q10 -55 -14.5 -79t-85.5 -24zM45 -200l-20 110q47 0 69 22.5t16 57.5l-90 510h202l90 -510q16 -90 -53.5 -140t-213.5 -50z" />
    <glyph glyph-name="k" unicode="k" horiz-adv-x="722" 
d="M111 0l-122 700h202l61 -354l129 154h278l-160 -169l264 -331h-251l-144 193l-75 -79l20 -114h-202z" />
    <glyph glyph-name="l" unicode="l" horiz-adv-x="302" 
d="M111 0l-122 700h202l122 -700h-202z" />
    <glyph glyph-name="m" unicode="m" horiz-adv-x="1214" 
d="M96 0l-88 500h216l15 -206h10q-2 123 45.5 172.5t166.5 49.5q50 -1 83.5 -10t63 -33.5t50 -67.5t37.5 -111h10q-2 123 45.5 172.5t166.5 49.5q56 -1 93.5 -12.5t69.5 -44t53.5 -91t37.5 -151.5l39 -217h-202l-36 200q-17 96 -48.5 130t-94.5 34q-60 0 -89.5 -56
t-15.5 -140l30 -168h-202l-36 200q-17 96 -48.5 130t-94.5 34q-60 0 -89.5 -56t-15.5 -140l30 -168h-202z" />
    <glyph glyph-name="n" unicode="n" horiz-adv-x="758" 
d="M96 0l-88 500h216l15 -206h10q-2 123 45.5 172.5t166.5 49.5q56 -1 93.5 -12.5t69.5 -44t53.5 -91t37.5 -151.5l39 -217h-202l-36 200q-17 96 -48.5 130t-94.5 34q-59 0 -89 -53.5t-18 -134.5l32 -176h-202z" />
    <glyph glyph-name="o" unicode="o" horiz-adv-x="722" 
d="M408 -16q-145 0 -246 73t-122 193t54 193t220 73t246 -73t122 -193t-54 -193t-220 -73zM380 146q58 0 88 28.5t22 75.5q-8 46 -49 75t-99 29t-88 -28.5t-22 -75.5q8 -46 49 -75t99 -29z" />
    <glyph glyph-name="p" unicode="p" horiz-adv-x="786" 
d="M114 -200l-123 700h206l6 -163h11q3 81 62.5 130t155.5 49q113 0 195 -74t104 -196q21 -118 -35.5 -190t-170.5 -72q-90 0 -164.5 49t-105.5 129h-4l1 -1l64 -361h-202zM417 146q58 0 94 25t28 77q-9 53 -55.5 79.5t-104.5 26.5t-94.5 -26.5t-27.5 -79.5q8 -52 54 -77
t106 -25z" />
    <glyph glyph-name="q" unicode="q" horiz-adv-x="786" 
d="M228 516q96 0 173 -49.5t108 -129.5h11l-51 163h206l124 -700h-202l-63 361v1h-4q-3 -80 -60 -129t-147 -49q-114 0 -196 72t-102 190q-22 122 34 196t169 74zM338 354q-58 0 -95 -26.5t-27 -79.5q10 -52 55 -77t103 -25q59 0 96.5 25t27.5 77q-10 53 -56 79.5t-104 26.5
z" />
    <glyph glyph-name="r" unicode="r" horiz-adv-x="541" 
d="M96 0l-88 500h216l15 -206h10q-2 121 49.5 171.5t171.5 50.5l31 -172q-32 0 -55.5 -0.5t-48 -2.5t-41.5 -6t-33.5 -10t-26.5 -15t-18.5 -21.5t-11.5 -28.5t-3 -37t4 -46l31 -177h-202z" />
    <glyph glyph-name="s" unicode="s" horiz-adv-x="664" 
d="M377 -16q-132 0 -275 39l-30 169q121 -43 246 -43q35 0 59 1t40 4t23 7.5t5 11.5q-2 15 -32.5 21t-73.5 5t-95 4.5t-97.5 16t-80 42t-42.5 80.5q-16 87 55 130.5t208 43.5q107 0 255 -28l30 -169q-128 26 -225 26q-35 0 -59 -1t-40 -3.5t-23 -6.5t-6 -10q2 -12 42.5 -14
t98.5 -3.5t117 -10.5t105.5 -44t57.5 -96q17 -89 -53.5 -130.5t-209.5 -41.5z" />
    <glyph glyph-name="t" unicode="t" horiz-adv-x="418" 
d="M295 -10q-49 0 -80 9t-51.5 33t-31.5 57.5t-21 90.5l-31 172h-56l-26 148h76l-21 120l178 20l25 -140h100l26 -148h-100l25 -142q10 -59 26.5 -72.5t86.5 -7.5l22 -120q-71 -20 -147 -20z" />
    <glyph glyph-name="u" unicode="u" horiz-adv-x="758" 
d="M662 500l88 -500h-216l-15 206h-10q2 -123 -45.5 -172.5t-166.5 -49.5q-56 1 -93.5 12.5t-69.5 44t-53.5 91t-37.5 151.5l-39 217h202l36 -200q17 -96 48.5 -130t94.5 -34q59 0 89 53.5t18 134.5l-32 176h202z" />
    <glyph glyph-name="v" unicode="v" horiz-adv-x="820" 
d="M333 0l-352 500h219l222 -315l110 315h219l-176 -500h-242z" />
    <glyph glyph-name="w" unicode="w" horiz-adv-x="1121" 
d="M283 0l-302 500h209l161 -270l61 270h199l165 -276l67 276h209l-126 -500h-222l-146 250l-53 -250h-222z" />
    <glyph glyph-name="x" unicode="x" horiz-adv-x="838" 
d="M69 0l213 251l-300 249h254l164 -136l115 136h254l-222 -259l290 -241h-253l-154 128l-108 -128h-253z" />
    <glyph glyph-name="y" unicode="y" horiz-adv-x="806" 
d="M245 -200l75 211l-356 489h232l196 -280l99 280h229l-247 -700h-228z" />
    <glyph glyph-name="z" unicode="z" horiz-adv-x="723" 
d="M74 0l-19 112l272 236h-307l-26 152h655l20 -110l-271 -238h303l26 -152h-653z" />
    <glyph glyph-name="braceleft" unicode="{" horiz-adv-x="705" 
d="M750 -80q-147 0 -232 23t-120 65t-48 115q-33 192 -314 192l-12 68q133 2 179 49t31 136q-10 53 -2 92.5t42.5 65.5t105 38.5t183.5 12.5l11 -62q-72 2 -110 -3t-58.5 -21.5t-19.5 -46t7 -76.5q6 -36 7.5 -59t-5.5 -51.5t-26 -47t-57 -35.5t-95 -25q138 -6 205 -64.5
t86 -162.5q11 -65 29.5 -93t63 -39.5t138.5 -8.5z" />
    <glyph glyph-name="bar" unicode="|" horiz-adv-x="322" 
d="M139 -170l-158 890h202l158 -890h-202z" />
    <glyph glyph-name="braceright" unicode="}" horiz-adv-x="705" 
d="M105 -80l-11 62q46 1 79.5 0t55 7t34 16t17 26.5t3.5 38.5t-7 53q-19 104 28 162.5t183 64.5q-60 8 -104.5 25t-69.5 35.5t-42 47.5t-23.5 51.5t-13.5 58.5q-9 51 -19.5 77t-36.5 44.5t-66 23t-111 2.5l-11 62q150 0 235 -24t120 -66.5t48 -118.5q16 -89 78.5 -136
t196.5 -49l12 -68q-139 0 -201 -48.5t-45 -143.5q13 -73 -8 -115t-97.5 -65t-223.5 -23z" />
    <glyph glyph-name="asciitilde" unicode="~" horiz-adv-x="441" 
d="M299 310q-31 0 -59 18t-50 36t-38 18q-28 0 -41.5 -18t-7.5 -53h-61q-10 58 18 94t82 36q34 0 79 -36t68 -36q29 0 43 18t7 53h60q10 -59 -18 -94.5t-82 -35.5z" />
    <glyph glyph-name="exclamdown" unicode="&#xa1;" horiz-adv-x="305" 
d="M105 517q54 0 88.5 -28t43.5 -79t-16.5 -79t-77.5 -28t-87 28t-44 79t16 79t77 28zM70 213h182l81 -406h-202z" />
    <glyph glyph-name="cent" unicode="&#xa2;" horiz-adv-x="589" 
d="M597 128q-75 -35 -131 -46l21 -112h-202l-22 117q-94 25 -155.5 91.5t-77.5 161.5q-17 98 20 164t125 90l-20 106h202l19 -103q66 -11 145 -45l30 -170q-115 62 -222 62q-58 0 -86.5 -28.5t-20.5 -75.5q8 -46 48.5 -75t99.5 -29q108 0 196 61z" />
    <glyph glyph-name="sterling" unicode="&#xa3;" horiz-adv-x="902" 
d="M148 0l-30 169q47 28 59 59h-104l-19 103h106l-20 40h-93l-17 103h71q-3 10 -7 32q-9 51 0.5 87.5t35.5 60.5t73.5 37.5t106 19t140.5 4.5q92 -1 196.5 -11.5t148.5 -23.5l32 -180q-34 12 -147.5 25.5t-188.5 13.5q-100 0 -144.5 -14.5t-43.5 -50.5h447l17 -103h-446
q4 -26 4 -40h449l19 -103h-482q-18 -43 -57 -65h626l28 -163h-760z" />
    <glyph glyph-name="currency" unicode="&#xa4;" horiz-adv-x="720" 
d="M231 5l-168 143l70 85q-29 45 -38 97q-11 59 6 104l-104 88l118 143l141 -120q33 5 65 5q34 0 69 -5l99 120l168 -143l-73 -88q30 -43 41 -104q9 -57 -2 -97l100 -85l-118 -143l-130 111q-35 -6 -77 -6q-41 0 -75 7zM374 251q48 0 69 20.5t15 58.5q-15 79 -112 79
q-48 0 -69.5 -21t-14.5 -58q6 -37 35 -58t77 -21z" />
    <glyph glyph-name="yen" unicode="&#xa5;" horiz-adv-x="1030" 
d="M894 221l18 -103h-235l20 -118h-202l-20 118h-273l-18 103h273l-1 5l-36 35h-242l-18 103h153l-349 336h249l315 -311l207 311h249l-232 -336h118l18 -103h-207l-23 -33l1 -7h235z" />
    <glyph glyph-name="brokenbar" unicode="&#xa6;" horiz-adv-x="322" 
d="M54 313l-73 407h202l73 -407h-202zM139 -170l-74 418h202l74 -418h-202z" />
    <glyph glyph-name="section" unicode="&#xa7;" horiz-adv-x="644" 
d="M381 0q-134 0 -275 39l-30 169q121 -43 275 -43q93 0 90 19q-3 16 -32.5 23t-72 7t-93.5 6t-95.5 18t-78.5 45t-43 85q-7 46 16 72q-34 34 -44 86q-15 80 57 122t208 42q107 0 255 -28l30 -169q-127 26 -254 26q-94 0 -89 -21q2 -12 42 -14t96.5 -4.5t114.5 -13.5
t104 -50.5t58 -105.5q7 -41 -14 -68q32 -37 42 -90q13 -75 -59 -113.5t-208 -38.5zM324 323q40 -2 65 1.5t24 15.5q-4 24 -97 31q-38 4 -57 1t-24 -7t-5 -12q4 -22 94 -30z" />
    <glyph glyph-name="dieresis" unicode="&#xa8;" horiz-adv-x="588" 
d="M164 538q-44 0 -75.5 23.5t-38.5 61.5t16.5 61.5t67.5 23.5q47 0 77 -23t37 -62t-15 -62t-69 -23zM454 538q-44 0 -75.5 23.5t-38.5 61.5t16.5 61.5t67.5 23.5q47 0 77 -23t37 -62t-15 -62t-69 -23z" />
    <glyph glyph-name="copyright" unicode="&#xa9;" horiz-adv-x="965" 
d="M546 -16q-202 0 -334 99.5t-162 266.5q-29 166 69.5 266t298.5 100q203 0 335 -98.5t162 -267.5q30 -167 -68 -266.5t-301 -99.5zM542 11q197 0 284 92.5t61 246.5q-26 153 -147 246t-318 93q-190 0 -280.5 -93.5t-65.5 -245.5q25 -151 150 -245t316 -94zM533 85
q-136 0 -231 73t-116 193q-22 120 48 193t206 73q135 0 228.5 -65t112.5 -172h-204q-12 32 -41.5 52t-66.5 20q-44 0 -66.5 -27.5t-14.5 -73.5q7 -46 39.5 -73.5t76.5 -27.5q39 0 62 22t22 58h203q20 -110 -51 -177.5t-207 -67.5z" />
    <glyph glyph-name="guillemotleft" unicode="&#xab;" horiz-adv-x="885" 
d="M280 0l-250 250l162 250h240l-170 -250l258 -250h-240zM659 0l-250 250l162 250h240l-170 -250l258 -250h-240z" />
    <glyph glyph-name="logicalnot" unicode="&#xac;" horiz-adv-x="670" 
d="M497 76l-30 168h-436l-31 173h610l30 -173l30 -168h-173z" />
    <glyph glyph-name="registered" unicode="&#xae;" horiz-adv-x="965" 
d="M546 -16q-202 0 -334 99.5t-162 266.5q-29 166 69.5 266t298.5 100q203 0 335 -98.5t162 -267.5q30 -167 -68 -266.5t-301 -99.5zM542 11q197 0 284 92.5t61 246.5q-26 153 -147 246t-318 93q-190 0 -280.5 -93.5t-65.5 -245.5q25 -151 150 -245t316 -94zM291 133
l-76 435h351q66 0 108 -32t51 -83q9 -52 -23.5 -81t-96.5 -29h-45q76 -4 126 -48.5t127 -161.5h-165q-88 119 -117 147t-78 28h-68l31 -175h-125zM368 403h204q37 0 31 32t-42 32h-204z" />
    <glyph glyph-name="macron" unicode="&#xaf;" horiz-adv-x="632" 
d="M55 646l-10 54h532l10 -54h-532z" />
    <glyph glyph-name="degree" unicode="&#xb0;" horiz-adv-x="518" 
d="M281 460q-86 0 -153.5 35t-77.5 90t45.5 90t141.5 35q93 0 157 -34.5t74 -90.5t-42 -90.5t-145 -34.5zM270 522q33 0 51.5 16.5t12.5 46.5q-13 63 -86 63q-33 0 -51 -16.5t-12 -46.5t29 -46.5t56 -16.5z" />
    <glyph glyph-name="plusminus" unicode="&#xb1;" horiz-adv-x="600" 
d="M242 196l-23 130h-130l-22 130h130l-23 130h130l23 -130h130l22 -130h-130l23 -130h-130zM81 0l-23 133h520l23 -133h-520z" />
    <glyph glyph-name="acute" unicode="&#xb4;" horiz-adv-x="387" 
d="M74 544l-14 80l253 186l18 -102z" />
    <glyph glyph-name="paragraph" unicode="&#xb6;" horiz-adv-x="939" 
d="M471 -180l-80 453h-129q-105 0 -179.5 55t-92.5 158q-16 90 38 152t160 62h335l154 -880h-206zM784 -180l-154 880h202l154 -880h-202z" />
    <glyph glyph-name="periodcentered" unicode="&#xb7;" horiz-adv-x="285" 
d="M161 236q-52 0 -87 28t-44 79t16 79t77 28t87.5 -28t44.5 -79t-15.5 -79t-78.5 -28z" />
    <glyph glyph-name="cedilla" unicode="&#xb8;" horiz-adv-x="526" 
d="M79 -287l-11 55q231 1 223 55q-9 54 -242 58l-9 53l39 101h129l-35 -105q139 -9 222 -36.5t90 -70.5q8 -47 -104.5 -78t-301.5 -32z" />
    <glyph glyph-name="guillemotright" unicode="&#xbb;" horiz-adv-x="885" 
d="M74 0l170 250l-258 250h240l250 -250l-162 -250h-240zM453 0l170 250l-258 250h240l250 -250l-162 -250h-240z" />
    <glyph glyph-name="onequarter" unicode="&#xbc;" horiz-adv-x="1603" 
d="M420 -22l688 744h141l-688 -744h-141zM321 161l-65 368l-213 -149l-24 138l260 121h97l83 -478h-138zM1372 61l-13 74h-370l-16 92l247 312h206l50 -286h61l21 -118h-61l13 -74h-138zM1123 253h215l-42 240z" />
    <glyph glyph-name="onehalf" unicode="&#xbd;" horiz-adv-x="1734" 
d="M419 -22l688 744h141l-688 -744h-141zM321 161l-65 368l-213 -149l-24 138l260 121h97l83 -478h-138zM1203 61l-18 95q36 19 97.5 47.5t101.5 48t81.5 43t60.5 44t16 39.5q-5 29 -39 40t-107 11q-49 0 -124 -9t-95 -17l-22 122q27 10 96 17t131 7q140 2 209.5 -28.5
t84.5 -113.5q8 -48 -21.5 -88.5t-87.5 -67.5t-113 -43.5t-120 -29.5h361l21 -117h-513z" />
    <glyph glyph-name="threequarters" unicode="&#xbe;" horiz-adv-x="1610" 
d="M427 -22l688 744h141l-688 -744h-141zM307 150q-143 2 -228 30l-21 118q75 -30 222 -30q157 0 150 35q-5 26 -76.5 39t-280.5 23l-12 69q148 7 221.5 16.5t88 17.5t12.5 22q-4 23 -50.5 33t-100.5 10q-55 0 -117 -8t-93 -22l-20 117q80 31 217 31q61 0 105 -4.5t86 -18
t67 -40.5t33 -68q5 -28 -6 -49.5t-34.5 -33t-45.5 -19t-53 -10t-41.5 -3t-24.5 -0.5l1 -6q1 0 25 -0.5t41 -2t45.5 -5t49.5 -11t43 -19t36 -30t18 -42.5q8 -42 -7 -70.5t-52 -43t-84 -20t-114 -5.5zM1379 58l-13 74h-370l-16 92l247 312h206l50 -286h61l21 -118h-61l13 -74
h-138zM1130 250h215l-42 240z" />
    <glyph glyph-name="questiondown" unicode="&#xbf;" horiz-adv-x="742" 
d="M379 517q52 0 87 -28t44 -79t-16 -79t-77 -28t-87.5 28t-44.5 79t15.5 79t78.5 28zM501 275q17 -63 6 -101t-37.5 -54.5t-61.5 -24t-66 -10t-50.5 -12t-15.5 -30.5q7 -42 57.5 -58.5t156.5 -16.5q102 0 241 21l31 -179q-116 -16 -251 -18q-206 -2 -307 42t-123 167
q-9 51 -1 88.5t28 56.5t47 32.5t56 16.5t56 9.5t46.5 11t27 20.5t-2.5 39h163z" />
    <glyph glyph-name="Agrave" unicode="&#xc0;" horiz-adv-x="1105" 
d="M491 744l-317 164l-18 102l321 -186zM86 0l297 700h217l541 -700h-239l-86 118h-445l-46 -118h-239zM436 290h254l-167 228z" />
    <glyph glyph-name="Aacute" unicode="&#xc1;" horiz-adv-x="1105" 
d="M461 744l-14 80l253 186l18 -102zM86 0l297 700h217l541 -700h-239l-86 118h-445l-46 -118h-239zM436 290h254l-167 228z" />
    <glyph glyph-name="Acircumflex" unicode="&#xc2;" horiz-adv-x="1105" 
d="M196 755l-14 80l253 186l321 -186l14 -80l-317 164zM86 0l297 700h217l541 -700h-239l-86 118h-445l-46 -118h-239zM436 290h254l-167 228z" />
    <glyph glyph-name="Atilde" unicode="&#xc3;" horiz-adv-x="1105" 
d="M564 772q-31 0 -59 18t-50 36t-38 18q-28 0 -41.5 -18t-7.5 -53h-61q-10 58 18 94t82 36q34 0 79 -36t68 -36q29 0 43 18t7 53h60q10 -59 -18 -94.5t-82 -35.5zM86 0l297 700h217l541 -700h-239l-86 118h-445l-46 -118h-239zM436 290h254l-167 228z" />
    <glyph glyph-name="Adieresis" unicode="&#xc4;" horiz-adv-x="1105" 
d="M344 738q-44 0 -75.5 23.5t-38.5 61.5t16.5 61.5t67.5 23.5q47 0 77 -23t37 -62t-15 -62t-69 -23zM634 738q-44 0 -75.5 23.5t-38.5 61.5t16.5 61.5t67.5 23.5q47 0 77 -23t37 -62t-15 -62t-69 -23zM86 0l297 700h217l541 -700h-239l-86 118h-445l-46 -118h-239zM436 290
h254l-167 228z" />
    <glyph glyph-name="Aring" unicode="&#xc5;" horiz-adv-x="1105" 
d="M485 738q-105 0 -184 29t-87 74t61 74t174 29q113 0 188 -28.5t83 -74.5t-57 -74.5t-178 -28.5zM476 789q41 0 64 13.5t18 38.5q-10 52 -100 52q-40 0 -62 -13.5t-18 -38.5t31 -38.5t67 -13.5zM86 0l297 700h217l541 -700h-239l-86 118h-445l-46 -118h-239zM436 290h254
l-167 228z" />
    <glyph glyph-name="AE" unicode="&#xc6;" horiz-adv-x="1455" 
d="M86 0l487 700h751l29 -172h-443l16 -91h434l30 -163h-434l18 -102h443l29 -172h-645l-20 118h-331l-75 -118h-289zM558 290h193l-43 240z" />
    <glyph glyph-name="Ccedilla" unicode="&#xc7;" horiz-adv-x="924" 
d="M580 -70q139 -9 222 -36.5t90 -70.5q8 -47 -104.5 -78t-301.5 -32l-11 55q231 1 223 55q-9 54 -242 58l-9 53l20 53q-168 15 -284 113t-143 250q-29 165 69.5 265.5t288.5 100.5t321.5 -88t156.5 -233h-204q-19 74 -84 111.5t-160 37.5q-101 0 -151.5 -50t-34.5 -144
t84 -144t170 -50q95 0 147 37.5t45 111.5h204q23 -130 -56.5 -215t-236.5 -102z" />
    <glyph glyph-name="Egrave" unicode="&#xc8;" horiz-adv-x="855" 
d="M366 744l-317 164l-18 102l321 -186zM141 0l-122 700h705l29 -172h-503l16 -91h494l30 -163h-494l18 -102h503l29 -172h-705z" />
    <glyph glyph-name="Eacute" unicode="&#xc9;" horiz-adv-x="855" 
d="M336 744l-14 80l253 186l18 -102zM141 0l-122 700h705l29 -172h-503l16 -91h494l30 -163h-494l18 -102h503l29 -172h-705z" />
    <glyph glyph-name="Ecircumflex" unicode="&#xca;" horiz-adv-x="855" 
d="M71 755l-14 80l253 186l321 -186l14 -80l-317 164zM141 0l-122 700h705l29 -172h-503l16 -91h494l30 -163h-494l18 -102h503l29 -172h-705z" />
    <glyph glyph-name="Edieresis" unicode="&#xcb;" horiz-adv-x="855" 
d="M219 738q-44 0 -75.5 23.5t-38.5 61.5t16.5 61.5t67.5 23.5q47 0 77 -23t37 -62t-15 -62t-69 -23zM509 738q-44 0 -75.5 23.5t-38.5 61.5t16.5 61.5t67.5 23.5q47 0 77 -23t37 -62t-15 -62t-69 -23zM141 0l-122 700h705l29 -172h-503l16 -91h494l30 -163h-494l18 -102
h503l29 -172h-705z" />
    <glyph glyph-name="Igrave" unicode="&#xcc;" horiz-adv-x="362" 
d="M119 744l-317 164l-18 102l321 -186zM141 0l-122 700h202l122 -700h-202z" />
    <glyph glyph-name="Iacute" unicode="&#xcd;" horiz-adv-x="362" 
d="M89 744l-14 80l253 186l18 -102zM141 0l-122 700h202l122 -700h-202z" />
    <glyph glyph-name="Icircumflex" unicode="&#xce;" horiz-adv-x="362" 
d="M-176 755l-14 80l253 186l321 -186l14 -80l-317 164zM141 0l-122 700h202l122 -700h-202z" />
    <glyph glyph-name="Idieresis" unicode="&#xcf;" horiz-adv-x="362" 
d="M-28 738q-44 0 -75.5 23.5t-38.5 61.5t16.5 61.5t67.5 23.5q47 0 77 -23t37 -62t-15 -62t-69 -23zM262 738q-44 0 -75.5 23.5t-38.5 61.5t16.5 61.5t67.5 23.5q47 0 77 -23t37 -62t-15 -62t-69 -23zM141 0l-122 700h202l122 -700h-202z" />
    <glyph glyph-name="Eth" unicode="&#xd0;" horiz-adv-x="865" 
d="M825 350q30 -171 -62 -260.5t-285 -89.5h-337l-46 264h-59l-32 173h61l-46 263h337q192 0 315.5 -90t153.5 -260zM449 172q105 0 147.5 43.5t26.5 134.5q-16 92 -75 135t-163 43h-135l16 -91h238l32 -173h-239l17 -92h135z" />
    <glyph glyph-name="Ntilde" unicode="&#xd1;" horiz-adv-x="978" 
d="M500 772q-31 0 -59 18t-50 36t-38 18q-28 0 -41.5 -18t-7.5 -53h-61q-10 58 18 94t82 36q34 0 79 -36t68 -36q29 0 43 18t7 53h60q10 -59 -18 -94.5t-82 -35.5zM141 0l-122 700h159l525 -387l-68 387h202l122 -700h-160l-524 386l68 -386h-202z" />
    <glyph glyph-name="Ograve" unicode="&#xd2;" horiz-adv-x="965" 
d="M421 744l-317 164l-18 102l321 -186zM546 -16q-203 0 -340 100t-166 266t72.5 266t305.5 100t341 -100t166 -266t-73 -266t-306 -100zM516 156q116 0 169.5 49.5t37.5 144.5t-87.5 144.5t-187.5 49.5q-115 0 -168.5 -49.5t-37.5 -144.5t87.5 -144.5t186.5 -49.5z" />
    <glyph glyph-name="Oacute" unicode="&#xd3;" horiz-adv-x="965" 
d="M391 744l-14 80l253 186l18 -102zM546 -16q-203 0 -340 100t-166 266t72.5 266t305.5 100t341 -100t166 -266t-73 -266t-306 -100zM516 156q116 0 169.5 49.5t37.5 144.5t-87.5 144.5t-187.5 49.5q-115 0 -168.5 -49.5t-37.5 -144.5t87.5 -144.5t186.5 -49.5z" />
    <glyph glyph-name="Ocircumflex" unicode="&#xd4;" horiz-adv-x="965" 
d="M126 755l-14 80l253 186l321 -186l14 -80l-317 164zM546 -16q-203 0 -340 100t-166 266t72.5 266t305.5 100t341 -100t166 -266t-73 -266t-306 -100zM516 156q116 0 169.5 49.5t37.5 144.5t-87.5 144.5t-187.5 49.5q-115 0 -168.5 -49.5t-37.5 -144.5t87.5 -144.5
t186.5 -49.5z" />
    <glyph glyph-name="Otilde" unicode="&#xd5;" horiz-adv-x="965" 
d="M494 772q-31 0 -59 18t-50 36t-38 18q-28 0 -41.5 -18t-7.5 -53h-61q-10 58 18 94t82 36q34 0 79 -36t68 -36q29 0 43 18t7 53h60q10 -59 -18 -94.5t-82 -35.5zM546 -16q-203 0 -340 100t-166 266t72.5 266t305.5 100t341 -100t166 -266t-73 -266t-306 -100zM516 156
q116 0 169.5 49.5t37.5 144.5t-87.5 144.5t-187.5 49.5q-115 0 -168.5 -49.5t-37.5 -144.5t87.5 -144.5t186.5 -49.5z" />
    <glyph glyph-name="Odieresis" unicode="&#xd6;" horiz-adv-x="965" 
d="M274 738q-44 0 -75.5 23.5t-38.5 61.5t16.5 61.5t67.5 23.5q47 0 77 -23t37 -62t-15 -62t-69 -23zM564 738q-44 0 -75.5 23.5t-38.5 61.5t16.5 61.5t67.5 23.5q47 0 77 -23t37 -62t-15 -62t-69 -23zM546 -16q-203 0 -340 100t-166 266t72.5 266t305.5 100t341 -100
t166 -266t-73 -266t-306 -100zM516 156q116 0 169.5 49.5t37.5 144.5t-87.5 144.5t-187.5 49.5q-115 0 -168.5 -49.5t-37.5 -144.5t87.5 -144.5t186.5 -49.5z" />
    <glyph glyph-name="multiply" unicode="&#xd7;" horiz-adv-x="600" 
d="M211 86l-145 122l101 123l-143 122l100 123l144 -123l101 123l145 -122l-102 -123l144 -123l-101 -122l-143 122z" />
    <glyph glyph-name="Oslash" unicode="&#xd8;" horiz-adv-x="965" 
d="M925 350q29 -166 -73 -266t-306 -100q-162 0 -284 65l-49 -49h-171l121 119q-99 94 -123 231q-29 166 72.5 266t305.5 100q162 0 284 -65l50 49h171l-121 -120q99 -93 123 -230zM242 350q10 -63 47 -107l286 282q-54 19 -127 19q-115 0 -168.5 -49.5t-37.5 -144.5z
M516 156q116 0 169.5 49.5t37.5 144.5q-10 63 -47 107l-286 -282q54 -19 126 -19z" />
    <glyph glyph-name="Ugrave" unicode="&#xd9;" horiz-adv-x="924" 
d="M398 744l-317 164l-18 102l321 -186zM525 -16q-90 0 -160 18t-130 60t-100 117.5t-59 184.5l-59 336h202l65 -366q14 -83 69.5 -126.5t140.5 -43.5t124.5 43.5t25.5 126.5l-65 366h202l59 -336q11 -74 10.5 -131.5t-18.5 -99.5t-44 -70.5t-68 -46t-89 -25t-106 -7.5z" />
    <glyph glyph-name="Uacute" unicode="&#xda;" horiz-adv-x="924" 
d="M368 744l-14 80l253 186l18 -102zM525 -16q-90 0 -160 18t-130 60t-100 117.5t-59 184.5l-59 336h202l65 -366q14 -83 69.5 -126.5t140.5 -43.5t124.5 43.5t25.5 126.5l-65 366h202l59 -336q11 -74 10.5 -131.5t-18.5 -99.5t-44 -70.5t-68 -46t-89 -25t-106 -7.5z" />
    <glyph glyph-name="Ucircumflex" unicode="&#xdb;" horiz-adv-x="924" 
d="M103 755l-14 80l253 186l321 -186l14 -80l-317 164zM525 -16q-90 0 -160 18t-130 60t-100 117.5t-59 184.5l-59 336h202l65 -366q14 -83 69.5 -126.5t140.5 -43.5t124.5 43.5t25.5 126.5l-65 366h202l59 -336q11 -74 10.5 -131.5t-18.5 -99.5t-44 -70.5t-68 -46t-89 -25
t-106 -7.5z" />
    <glyph glyph-name="Udieresis" unicode="&#xdc;" horiz-adv-x="924" 
d="M251 738q-44 0 -75.5 23.5t-38.5 61.5t16.5 61.5t67.5 23.5q47 0 77 -23t37 -62t-15 -62t-69 -23zM541 738q-44 0 -75.5 23.5t-38.5 61.5t16.5 61.5t67.5 23.5q47 0 77 -23t37 -62t-15 -62t-69 -23zM525 -16q-90 0 -160 18t-130 60t-100 117.5t-59 184.5l-59 336h202
l65 -366q14 -83 69.5 -126.5t140.5 -43.5t124.5 43.5t25.5 126.5l-65 366h202l59 -336q11 -74 10.5 -131.5t-18.5 -99.5t-44 -70.5t-68 -46t-89 -25t-106 -7.5z" />
    <glyph glyph-name="Yacute" unicode="&#xdd;" horiz-adv-x="1070" 
d="M443 744l-14 80l253 186l18 -102zM495 0l-39 226l-492 474h249l315 -311l207 311h249l-326 -472l39 -228h-202z" />
    <glyph glyph-name="Thorn" unicode="&#xde;" horiz-adv-x="830" 
d="M121 0l-122 700h205l35 -200h309q106 0 181.5 -61.5t92.5 -152.5q18 -103 -37.5 -158t-160.5 -55h-309l12 -73h-206zM286 235h285q57 0 49 51q-10 52 -68 52h-284z" />
    <glyph glyph-name="germandbls" unicode="&#xdf;" horiz-adv-x="858" 
d="M469 -16q-66 2 -101 4l-30 171q47 -3 91 -3q230 0 219 52q-6 31 -75.5 48.5t-258.5 30.5l-21 123q132 10 198 21.5t79 22t11 28.5q-13 63 -222 63h-163l97 -545h-202l-124 700h375q64 0 104.5 -1.5t92.5 -6.5t84.5 -16.5t65 -30.5t51 -49t25.5 -71q16 -88 -55 -128
t-244 -40l1 -9q185 -6 275 -44.5t104 -116.5q9 -50 -5 -86.5t-44.5 -59t-82 -36t-109.5 -18t-136 -3.5z" />
    <glyph glyph-name="agrave" unicode="&#xe0;" horiz-adv-x="694" 
d="M341 544l-317 164l-18 102l321 -186zM273 -16q-186 0 -210 132q-14 81 76 123t295 55q-3 21 -31 34t-69 13q-58 0 -124.5 -14.5t-113.5 -36.5l-31 172q138 54 278 54q253 0 296 -234l49 -282h-192l-13 179h-12q-5 -107 -46 -151t-152 -44zM343 120q48 0 81.5 24.5
t23.5 71.5q-45 -3 -78 -7t-58.5 -11t-37.5 -17.5t-10 -24.5q3 -17 25.5 -26.5t53.5 -9.5z" />
    <glyph glyph-name="aacute" unicode="&#xe1;" horiz-adv-x="694" 
d="M311 544l-14 80l253 186l18 -102zM273 -16q-186 0 -210 132q-14 81 76 123t295 55q-3 21 -31 34t-69 13q-58 0 -124.5 -14.5t-113.5 -36.5l-31 172q138 54 278 54q253 0 296 -234l49 -282h-192l-13 179h-12q-5 -107 -46 -151t-152 -44zM343 120q48 0 81.5 24.5t23.5 71.5
q-45 -3 -78 -7t-58.5 -11t-37.5 -17.5t-10 -24.5q3 -17 25.5 -26.5t53.5 -9.5z" />
    <glyph glyph-name="acircumflex" unicode="&#xe2;" horiz-adv-x="694" 
d="M46 555l-14 80l253 186l321 -186l14 -80l-317 164zM273 -16q-186 0 -210 132q-14 81 76 123t295 55q-3 21 -31 34t-69 13q-58 0 -124.5 -14.5t-113.5 -36.5l-31 172q138 54 278 54q253 0 296 -234l49 -282h-192l-13 179h-12q-5 -107 -46 -151t-152 -44zM343 120
q48 0 81.5 24.5t23.5 71.5q-45 -3 -78 -7t-58.5 -11t-37.5 -17.5t-10 -24.5q3 -17 25.5 -26.5t53.5 -9.5z" />
    <glyph glyph-name="atilde" unicode="&#xe3;" horiz-adv-x="694" 
d="M414 572q-31 0 -59 18t-50 36t-38 18q-28 0 -41.5 -18t-7.5 -53h-61q-10 58 18 94t82 36q34 0 79 -36t68 -36q29 0 43 18t7 53h60q10 -59 -18 -94.5t-82 -35.5zM273 -16q-186 0 -210 132q-14 81 76 123t295 55q-3 21 -31 34t-69 13q-58 0 -124.5 -14.5t-113.5 -36.5
l-31 172q138 54 278 54q253 0 296 -234l49 -282h-192l-13 179h-12q-5 -107 -46 -151t-152 -44zM343 120q48 0 81.5 24.5t23.5 71.5q-45 -3 -78 -7t-58.5 -11t-37.5 -17.5t-10 -24.5q3 -17 25.5 -26.5t53.5 -9.5z" />
    <glyph glyph-name="adieresis" unicode="&#xe4;" horiz-adv-x="694" 
d="M194 538q-44 0 -75.5 23.5t-38.5 61.5t16.5 61.5t67.5 23.5q47 0 77 -23t37 -62t-15 -62t-69 -23zM484 538q-44 0 -75.5 23.5t-38.5 61.5t16.5 61.5t67.5 23.5q47 0 77 -23t37 -62t-15 -62t-69 -23zM273 -16q-186 0 -210 132q-14 81 76 123t295 55q-3 21 -31 34t-69 13
q-58 0 -124.5 -14.5t-113.5 -36.5l-31 172q138 54 278 54q253 0 296 -234l49 -282h-192l-13 179h-12q-5 -107 -46 -151t-152 -44zM343 120q48 0 81.5 24.5t23.5 71.5q-45 -3 -78 -7t-58.5 -11t-37.5 -17.5t-10 -24.5q3 -17 25.5 -26.5t53.5 -9.5z" />
    <glyph glyph-name="aring" unicode="&#xe5;" horiz-adv-x="694" 
d="M335 538q-105 0 -184 29t-87 74t61 74t174 29q113 0 188 -28.5t83 -74.5t-57 -74.5t-178 -28.5zM326 589q41 0 64 13.5t18 38.5q-10 52 -100 52q-40 0 -62 -13.5t-18 -38.5t31 -38.5t67 -13.5zM273 -16q-186 0 -210 132q-14 81 76 123t295 55q-3 21 -31 34t-69 13
q-58 0 -124.5 -14.5t-113.5 -36.5l-31 172q138 54 278 54q253 0 296 -234l49 -282h-192l-13 179h-12q-5 -107 -46 -151t-152 -44zM343 120q48 0 81.5 24.5t23.5 71.5q-45 -3 -78 -7t-58.5 -11t-37.5 -17.5t-10 -24.5q3 -17 25.5 -26.5t53.5 -9.5z" />
    <glyph glyph-name="ae" unicode="&#xe6;" horiz-adv-x="1091" 
d="M273 -16q-186 0 -210 132q-6 37 10.5 65.5t52 45.5t75 28t89 15.5t84.5 6t71 0.5q-7 39 -34.5 51.5t-76.5 12.5q-58 0 -124.5 -14.5t-113.5 -36.5l-31 172q138 54 278 54q117 0 181 -50q70 50 179 50q134 0 227.5 -62.5t113.5 -164.5l14 -82h-402q40 -68 163 -68
q35 0 63 2.5t54 10.5t36 11.5t37.5 16.5t29.5 14l29 -161q-65 -26 -120 -37.5t-151 -11.5q-106 0 -189.5 46t-127.5 128q3 -84 -50.5 -129t-156.5 -45zM639 277l212 5q-11 36 -43.5 54t-76.5 18q-40 0 -65.5 -19.5t-26.5 -57.5zM345 119q45 1 77.5 24t27.5 65
q-38 0 -65 -1.5t-59.5 -6t-48.5 -16t-13 -28.5q4 -17 27 -27t54 -10z" />
    <glyph glyph-name="ccedilla" unicode="&#xe7;" horiz-adv-x="609" 
d="M743 -177q8 -47 -104.5 -78t-301.5 -32l-11 55q231 1 223 55q-9 54 -242 58l-9 53l21 54q-112 16 -186 85.5t-93 176.5q-22 123 41.5 194.5t203.5 71.5q119 0 246 -54l30 -170q-115 62 -222 62q-58 0 -86.5 -28.5t-20.5 -75.5q8 -46 48.5 -75t99.5 -29q108 0 196 61
l31 -169q-88 -42 -157 -50l-19 -58q139 -9 222 -36.5t90 -70.5z" />
    <glyph glyph-name="egrave" unicode="&#xe8;" horiz-adv-x="682" 
d="M285 544l-317 164l-18 102l321 -186zM388 -16q-136 0 -231.5 73t-116.5 193t48.5 193t205.5 73q134 0 227.5 -62.5t113.5 -164.5l14 -82h-402q40 -68 163 -68q35 0 63 2.5t54 10.5t36 11.5t37.5 16.5t29.5 14l29 -161q-65 -26 -120 -37.5t-151 -11.5zM229 277l212 5
q-9 36 -42 54t-77 18q-40 0 -65.5 -19.5t-27.5 -57.5z" />
    <glyph glyph-name="eacute" unicode="&#xe9;" horiz-adv-x="682" 
d="M266 544l-14 80l253 186l18 -102zM388 -16q-136 0 -231.5 73t-116.5 193t48.5 193t205.5 73q134 0 227.5 -62.5t113.5 -164.5l14 -82h-402q40 -68 163 -68q35 0 63 2.5t54 10.5t36 11.5t37.5 16.5t29.5 14l29 -161q-65 -26 -120 -37.5t-151 -11.5zM229 277l212 5
q-9 36 -42 54t-77 18q-40 0 -65.5 -19.5t-27.5 -57.5z" />
    <glyph glyph-name="ecircumflex" unicode="&#xea;" horiz-adv-x="682" 
d="M1 555l-14 80l253 186l321 -186l14 -80l-317 164zM388 -16q-136 0 -231.5 73t-116.5 193t48.5 193t205.5 73q134 0 227.5 -62.5t113.5 -164.5l14 -82h-402q40 -68 163 -68q35 0 63 2.5t54 10.5t36 11.5t37.5 16.5t29.5 14l29 -161q-65 -26 -120 -37.5t-151 -11.5z
M229 277l212 5q-9 36 -42 54t-77 18q-40 0 -65.5 -19.5t-27.5 -57.5z" />
    <glyph glyph-name="edieresis" unicode="&#xeb;" horiz-adv-x="682" 
d="M149 538q-44 0 -75.5 23.5t-38.5 61.5t16.5 61.5t67.5 23.5q47 0 77 -23t37 -62t-15 -62t-69 -23zM439 538q-44 0 -75.5 23.5t-38.5 61.5t16.5 61.5t67.5 23.5q47 0 77 -23t37 -62t-15 -62t-69 -23zM388 -16q-136 0 -231.5 73t-116.5 193t48.5 193t205.5 73
q134 0 227.5 -62.5t113.5 -164.5l14 -82h-402q40 -68 163 -68q35 0 63 2.5t54 10.5t36 11.5t37.5 16.5t29.5 14l29 -161q-65 -26 -120 -37.5t-151 -11.5zM229 277l212 5q-9 36 -42 54t-77 18q-40 0 -65.5 -19.5t-27.5 -57.5z" />
    <glyph glyph-name="igrave" unicode="&#xec;" horiz-adv-x="228" 
d="M50 542l-346 164l-36 102l354 -186zM57 0l-88 500h202l88 -500h-202z" />
    <glyph glyph-name="iacute" unicode="&#xed;" horiz-adv-x="228" 
d="M28 542l-14 80l253 186l18 -102zM57 0l-88 500h202l88 -500h-202z" />
    <glyph glyph-name="icircumflex" unicode="&#xee;" horiz-adv-x="228" 
d="M-247 553l-28 80l220 186l354 -186l28 -80l-346 164zM57 0l-88 500h202l88 -500h-202z" />
    <glyph glyph-name="idieresis" unicode="&#xef;" horiz-adv-x="228" 
d="M-96 536q-44 0 -80 23.5t-49 61.5t6 61.5t63 23.5q47 0 81 -23t48 -62t-4 -62t-65 -23zM194 536q-44 0 -80 23.5t-49 61.5t6 61.5t63 23.5q47 0 81 -23t48 -62t-4 -62t-65 -23zM57 0l-88 500h202l88 -500h-202z" />
    <glyph glyph-name="eth" unicode="&#xf0;" horiz-adv-x="837" 
d="M463 -12q-169 0 -276 60.5t-129 163.5q-23 112 45.5 180t230.5 68q161 0 274 -117q-15 101 -95 196l-166 -51l-46 99l120 37q-68 47 -135 47l-10 84q167 0 306 -82l135 41l47 -98l-78 -24q99 -101 121 -230q33 -186 -60.5 -280t-283.5 -94zM443 160q133 0 161 110
q-108 45 -220 45q-68 0 -101 -20.5t-27 -57.5q7 -38 59 -57.5t128 -19.5z" />
    <glyph glyph-name="ntilde" unicode="&#xf1;" horiz-adv-x="758" 
d="M421 572q-31 0 -59 18t-50 36t-38 18q-28 0 -41.5 -18t-7.5 -53h-61q-10 58 18 94t82 36q34 0 79 -36t68 -36q29 0 43 18t7 53h60q10 -59 -18 -94.5t-82 -35.5zM96 0l-88 500h216l15 -206h10q-2 123 45.5 172.5t166.5 49.5q56 -1 93.5 -12.5t69.5 -44t53.5 -91
t37.5 -151.5l39 -217h-202l-36 200q-17 96 -48.5 130t-94.5 34q-59 0 -89 -53.5t-18 -134.5l32 -176h-202z" />
    <glyph glyph-name="ograve" unicode="&#xf2;" horiz-adv-x="722" 
d="M317 544l-317 164l-18 102l321 -186zM408 -16q-145 0 -246 73t-122 193t54 193t220 73t246 -73t122 -193t-54 -193t-220 -73zM380 146q58 0 88 28.5t22 75.5q-8 46 -49 75t-99 29t-88 -28.5t-22 -75.5q8 -46 49 -75t99 -29z" />
    <glyph glyph-name="oacute" unicode="&#xf3;" horiz-adv-x="722" 
d="M287 544l-14 80l253 186l18 -102zM408 -16q-145 0 -246 73t-122 193t54 193t220 73t246 -73t122 -193t-54 -193t-220 -73zM380 146q58 0 88 28.5t22 75.5q-8 46 -49 75t-99 29t-88 -28.5t-22 -75.5q8 -46 49 -75t99 -29z" />
    <glyph glyph-name="ocircumflex" unicode="&#xf4;" horiz-adv-x="722" 
d="M22 555l-14 80l253 186l321 -186l14 -80l-317 164zM408 -16q-145 0 -246 73t-122 193t54 193t220 73t246 -73t122 -193t-54 -193t-220 -73zM380 146q58 0 88 28.5t22 75.5q-8 46 -49 75t-99 29t-88 -28.5t-22 -75.5q8 -46 49 -75t99 -29z" />
    <glyph glyph-name="otilde" unicode="&#xf5;" horiz-adv-x="722" 
d="M390 572q-31 0 -59 18t-50 36t-38 18q-28 0 -41.5 -18t-7.5 -53h-61q-10 58 18 94t82 36q34 0 79 -36t68 -36q29 0 43 18t7 53h60q10 -59 -18 -94.5t-82 -35.5zM408 -16q-145 0 -246 73t-122 193t54 193t220 73t246 -73t122 -193t-54 -193t-220 -73zM380 146
q58 0 88 28.5t22 75.5q-8 46 -49 75t-99 29t-88 -28.5t-22 -75.5q8 -46 49 -75t99 -29z" />
    <glyph glyph-name="odieresis" unicode="&#xf6;" horiz-adv-x="722" 
d="M149 538q-44 0 -75.5 23.5t-38.5 61.5t16.5 61.5t67.5 23.5q47 0 77 -23t37 -62t-15 -62t-69 -23zM439 538q-44 0 -75.5 23.5t-38.5 61.5t16.5 61.5t67.5 23.5q47 0 77 -23t37 -62t-15 -62t-69 -23zM408 -16q-145 0 -246 73t-122 193t54 193t220 73t246 -73t122 -193
t-54 -193t-220 -73zM380 146q58 0 88 28.5t22 75.5q-8 46 -49 75t-99 29t-88 -28.5t-22 -75.5q8 -46 49 -75t99 -29z" />
    <glyph glyph-name="divide" unicode="&#xf7;" horiz-adv-x="600" 
d="M269 449q-52 0 -87 28t-44 79t16 79t77 28t87.5 -28t44.5 -79t-15.5 -79t-78.5 -28zM45 244l-30 173h520l30 -173h-520zM350 -10q-52 0 -87 28t-44 79t16 79t77 28t87.5 -28t44.5 -79t-15.5 -79t-78.5 -28z" />
    <glyph glyph-name="oslash" unicode="&#xf8;" horiz-adv-x="722" 
d="M604 405q61 -64 78 -155q21 -120 -54 -193t-220 -73q-105 0 -190 40l-24 -24h-171l96 95q-62 64 -79 155q-21 120 54 193t220 73q107 0 190 -40l25 24h171zM232 250q2 -14 11 -33l135 134q-16 3 -36 3q-58 0 -88 -28.5t-22 -75.5zM380 146q58 0 88 28.5t22 75.5
q-3 16 -11 32l-134 -133q16 -3 35 -3z" />
    <glyph glyph-name="ugrave" unicode="&#xf9;" horiz-adv-x="758" 
d="M334 544l-317 164l-18 102l321 -186zM662 500l88 -500h-216l-15 206h-10q2 -123 -45.5 -172.5t-166.5 -49.5q-56 1 -93.5 12.5t-69.5 44t-53.5 91t-37.5 151.5l-39 217h202l36 -200q17 -96 48.5 -130t94.5 -34q59 0 89 53.5t18 134.5l-32 176h202z" />
    <glyph glyph-name="uacute" unicode="&#xfa;" horiz-adv-x="758" 
d="M304 544l-14 80l253 186l18 -102zM662 500l88 -500h-216l-15 206h-10q2 -123 -45.5 -172.5t-166.5 -49.5q-56 1 -93.5 12.5t-69.5 44t-53.5 91t-37.5 151.5l-39 217h202l36 -200q17 -96 48.5 -130t94.5 -34q59 0 89 53.5t18 134.5l-32 176h202z" />
    <glyph glyph-name="ucircumflex" unicode="&#xfb;" horiz-adv-x="758" 
d="M39 555l-14 80l253 186l321 -186l14 -80l-317 164zM662 500l88 -500h-216l-15 206h-10q2 -123 -45.5 -172.5t-166.5 -49.5q-56 1 -93.5 12.5t-69.5 44t-53.5 91t-37.5 151.5l-39 217h202l36 -200q17 -96 48.5 -130t94.5 -34q59 0 89 53.5t18 134.5l-32 176h202z" />
    <glyph glyph-name="udieresis" unicode="&#xfc;" horiz-adv-x="758" 
d="M187 538q-44 0 -75.5 23.5t-38.5 61.5t16.5 61.5t67.5 23.5q47 0 77 -23t37 -62t-15 -62t-69 -23zM477 538q-44 0 -75.5 23.5t-38.5 61.5t16.5 61.5t67.5 23.5q47 0 77 -23t37 -62t-15 -62t-69 -23zM662 500l88 -500h-216l-15 206h-10q2 -123 -45.5 -172.5t-166.5 -49.5
q-56 1 -93.5 12.5t-69.5 44t-53.5 91t-37.5 151.5l-39 217h202l36 -200q17 -96 48.5 -130t94.5 -34q59 0 89 53.5t18 134.5l-32 176h202z" />
    <glyph glyph-name="yacute" unicode="&#xfd;" horiz-adv-x="806" 
d="M321 544l-14 80l253 186l18 -102zM245 -200l75 211l-356 489h232l196 -280l99 280h229l-247 -700h-228z" />
    <glyph glyph-name="thorn" unicode="&#xfe;" horiz-adv-x="716" 
d="M110 -200l-160 900h206l43 -363h11q2 88 62 133.5t146 45.5q105 0 175.5 -71.5t92.5 -198.5q22 -126 -24 -194t-152 -68q-83 0 -154 45.5t-105 132.5h-4v-1l65 -361h-202zM376 155q58 0 87.5 20.5t21.5 72.5q-18 97 -143 97q-59 0 -89 -22t-20 -75q15 -93 143 -93z" />
    <glyph glyph-name="ydieresis" unicode="&#xff;" horiz-adv-x="806" 
d="M204 538q-44 0 -75.5 23.5t-38.5 61.5t16.5 61.5t67.5 23.5q47 0 77 -23t37 -62t-15 -62t-69 -23zM494 538q-44 0 -75.5 23.5t-38.5 61.5t16.5 61.5t67.5 23.5q47 0 77 -23t37 -62t-15 -62t-69 -23zM245 -200l75 211l-356 489h232l196 -280l99 280h229l-247 -700h-228z
" />
    <glyph glyph-name="Amacron" unicode="&#x100;" horiz-adv-x="1105" 
d="M200 846l-10 54h532l10 -54h-532zM86 0l297 700h217l541 -700h-239l-86 118h-445l-46 -118h-239zM436 290h254l-167 228z" />
    <glyph glyph-name="amacron" unicode="&#x101;" horiz-adv-x="694" 
d="M50 646l-10 54h532l10 -54h-532zM273 -16q-186 0 -210 132q-14 81 76 123t295 55q-3 21 -31 34t-69 13q-58 0 -124.5 -14.5t-113.5 -36.5l-31 172q138 54 278 54q253 0 296 -234l49 -282h-192l-13 179h-12q-5 -107 -46 -151t-152 -44zM343 120q48 0 81.5 24.5t23.5 71.5
q-45 -3 -78 -7t-58.5 -11t-37.5 -17.5t-10 -24.5q3 -17 25.5 -26.5t53.5 -9.5z" />
    <glyph glyph-name="Abreve" unicode="&#x102;" horiz-adv-x="1105" 
d="M483 751q-93 0 -160 41t-79 108h105q8 -40 41 -60.5t81 -20.5q49 0 74.5 20.5t21.5 60.5h103q11 -69 -38 -109t-149 -40zM86 0l297 700h217l541 -700h-239l-86 118h-445l-46 -118h-239zM436 290h254l-167 228z" />
    <glyph glyph-name="abreve" unicode="&#x103;" horiz-adv-x="694" 
d="M333 551q-93 0 -160 41t-79 108h105q8 -40 41 -60.5t81 -20.5q49 0 74.5 20.5t21.5 60.5h103q11 -69 -38 -109t-149 -40zM273 -16q-186 0 -210 132q-14 81 76 123t295 55q-3 21 -31 34t-69 13q-58 0 -124.5 -14.5t-113.5 -36.5l-31 172q138 54 278 54q253 0 296 -234
l49 -282h-192l-13 179h-12q-5 -107 -46 -151t-152 -44zM343 120q48 0 81.5 24.5t23.5 71.5q-45 -3 -78 -7t-58.5 -11t-37.5 -17.5t-10 -24.5q3 -17 25.5 -26.5t53.5 -9.5z" />
    <glyph glyph-name="Aogonek" unicode="&#x104;" horiz-adv-x="1105" 
d="M1216 -98l17 -116q-54 -18 -117 -16.5t-115 19.5t-90 49.5t-43 75t27 96.5l-79 108h-445l-46 -118h-239l297 700h217l541 -700h-128q-46 -60 21 -90q62 -28 156 -13q14 2 26 5zM436 290h254l-167 228z" />
    <glyph glyph-name="aogonek" unicode="&#x105;" horiz-adv-x="694" 
d="M819 -98l17 -116q-54 -17 -116.5 -16t-114 18.5t-90 48.5t-44 74t24.5 95l-13 173h-12q-5 -107 -46 -151t-152 -44q-186 0 -210 132q-14 81 76 123t295 55q-3 21 -31 34t-69 13q-58 0 -124.5 -14.5t-113.5 -36.5l-31 172q138 54 278 54q253 0 296 -234l49 -282h-72
q-46 -60 21 -90q62 -28 156 -13q14 2 26 5zM343 120q48 0 81.5 24.5t23.5 71.5q-45 -3 -78 -7t-58.5 -11t-37.5 -17.5t-10 -24.5q3 -17 25.5 -26.5t53.5 -9.5z" />
    <glyph glyph-name="Cacute" unicode="&#x106;" horiz-adv-x="924" 
d="M362 744l-28 80l220 186l36 -102zM526 -16q-190 0 -323.5 100.5t-162.5 265.5t69.5 265.5t288.5 100.5t321.5 -88t156.5 -233h-204q-19 74 -84 111.5t-160 37.5q-101 0 -151.5 -50t-34.5 -144t84 -144t170 -50q95 0 147 37.5t45 111.5h204q25 -145 -75.5 -233t-290.5 -88
z" />
    <glyph glyph-name="cacute" unicode="&#x107;" horiz-adv-x="609" 
d="M249 544l-28 80l220 186l36 -102zM378 -16q-135 0 -226 72.5t-112 193.5q-22 123 41.5 194.5t203.5 71.5q119 0 246 -54l30 -170q-115 62 -222 62q-58 0 -86.5 -28.5t-20.5 -75.5q8 -46 48.5 -75t99.5 -29q108 0 196 61l31 -169q-62 -29 -110.5 -41.5t-118.5 -12.5z" />
    <glyph glyph-name="Cdotaccent" unicode="&#x10a;" horiz-adv-x="924" 
d="M360 738q-44 0 -80 23.5t-49 61.5t6 61.5t63 23.5q47 0 81 -23t48 -62t-4 -62t-65 -23zM526 -16q-190 0 -323.5 100.5t-162.5 265.5t69.5 265.5t288.5 100.5t321.5 -88t156.5 -233h-204q-19 74 -84 111.5t-160 37.5q-101 0 -151.5 -50t-34.5 -144t84 -144t170 -50
q95 0 147 37.5t45 111.5h204q25 -145 -75.5 -233t-290.5 -88z" />
    <glyph glyph-name="cdotaccent" unicode="&#x10b;" horiz-adv-x="609" 
d="M274 538q-44 0 -80 23.5t-49 61.5t6 61.5t63 23.5q47 0 81 -23t48 -62t-4 -62t-65 -23zM378 -16q-135 0 -226 72.5t-112 193.5q-22 123 41.5 194.5t203.5 71.5q119 0 246 -54l30 -170q-115 62 -222 62q-58 0 -86.5 -28.5t-20.5 -75.5q8 -46 48.5 -75t99.5 -29
q108 0 196 61l31 -169q-62 -29 -110.5 -41.5t-118.5 -12.5z" />
    <glyph glyph-name="Ccaron" unicode="&#x10c;" horiz-adv-x="924" 
d="M392 755l-321 186l-14 80l317 -164l257 164l14 -80zM526 -16q-190 0 -323.5 100.5t-162.5 265.5t69.5 265.5t288.5 100.5t321.5 -88t156.5 -233h-204q-19 74 -84 111.5t-160 37.5q-101 0 -151.5 -50t-34.5 -144t84 -144t170 -50q95 0 147 37.5t45 111.5h204
q25 -145 -75.5 -233t-290.5 -88z" />
    <glyph glyph-name="ccaron" unicode="&#x10d;" horiz-adv-x="609" 
d="M279 555l-321 186l-14 80l317 -164l257 164l14 -80zM378 -16q-135 0 -226 72.5t-112 193.5q-22 123 41.5 194.5t203.5 71.5q119 0 246 -54l30 -170q-115 62 -222 62q-58 0 -86.5 -28.5t-20.5 -75.5q8 -46 48.5 -75t99.5 -29q108 0 196 61l31 -169q-62 -29 -110.5 -41.5
t-118.5 -12.5z" />
    <glyph glyph-name="Dcaron" unicode="&#x10e;" horiz-adv-x="865" 
d="M378 755l-321 186l-14 80l317 -164l257 164l14 -80zM141 0l-122 700h337q192 0 315.5 -90t153.5 -260q30 -171 -62 -260.5t-285 -89.5h-337zM314 172h135q105 0 147.5 43.5t26.5 134.5q-16 92 -75 135t-163 43h-135z" />
    <glyph glyph-name="dcaron" unicode="&#x10f;" horiz-adv-x="1040" 
d="M354 -16q-113 0 -195 74t-104 196q-21 118 35.5 190t170.5 72q90 0 164.5 -49t105.5 -129h4l-1 1l-64 361h202l123 -700h-206l-6 163h-11q-3 -81 -62.5 -130t-155.5 -49zM855 429l15 270h170l-65 -270h-120zM407 146q58 0 94.5 26.5t27.5 79.5q-8 52 -54 77t-106 25
q-58 0 -94 -25t-28 -77q9 -53 55.5 -79.5t104.5 -26.5z" />
    <glyph glyph-name="Dcroat" unicode="&#x110;" horiz-adv-x="865" 
d="M825 350q30 -171 -62 -260.5t-285 -89.5h-337l-46 264h-59l-32 173h61l-46 263h337q192 0 315.5 -90t153.5 -260zM449 172q105 0 147.5 43.5t26.5 134.5q-16 92 -75 135t-163 43h-135l16 -91h238l32 -173h-239l17 -92h135z" />
    <glyph glyph-name="dcroat" unicode="&#x111;" horiz-adv-x="796" 
d="M701 536l94 -536h-206l-6 163h-11q-3 -81 -62.5 -130t-155.5 -49q-113 0 -195 74t-104 196q-21 118 35.5 190t170.5 72q90 0 164.5 -49t105.5 -129h4l-1 1l-35 197h-170l-22 103h174l-11 61h202l11 -61h82l22 -103h-86zM407 146q58 0 94.5 26.5t27.5 79.5q-8 52 -54 77
t-106 25q-58 0 -94 -25t-28 -77q9 -53 55.5 -79.5t104.5 -26.5z" />
    <glyph glyph-name="Emacron" unicode="&#x112;" horiz-adv-x="855" 
d="M75 846l-10 54h532l10 -54h-532zM141 0l-122 700h705l29 -172h-503l16 -91h494l30 -163h-494l18 -102h503l29 -172h-705z" />
    <glyph glyph-name="emacron" unicode="&#x113;" horiz-adv-x="682" 
d="M5 646l-10 54h532l10 -54h-532zM388 -16q-136 0 -231.5 73t-116.5 193t48.5 193t205.5 73q134 0 227.5 -62.5t113.5 -164.5l14 -82h-402q40 -68 163 -68q35 0 63 2.5t54 10.5t36 11.5t37.5 16.5t29.5 14l29 -161q-65 -26 -120 -37.5t-151 -11.5zM229 277l212 5
q-9 36 -42 54t-77 18q-40 0 -65.5 -19.5t-27.5 -57.5z" />
    <glyph glyph-name="Edotaccent" unicode="&#x116;" horiz-adv-x="855" 
d="M353 738q-44 0 -80 23.5t-49 61.5t6 61.5t63 23.5q47 0 81 -23t48 -62t-4 -62t-65 -23zM141 0l-122 700h705l29 -172h-503l16 -91h494l30 -163h-494l18 -102h503l29 -172h-705z" />
    <glyph glyph-name="edotaccent" unicode="&#x117;" horiz-adv-x="682" 
d="M283 538q-44 0 -80 23.5t-49 61.5t6 61.5t63 23.5q47 0 81 -23t48 -62t-4 -62t-65 -23zM388 -16q-136 0 -231.5 73t-116.5 193t48.5 193t205.5 73q134 0 227.5 -62.5t113.5 -164.5l14 -82h-402q40 -68 163 -68q35 0 63 2.5t54 10.5t36 11.5t37.5 16.5t29.5 14l29 -161
q-65 -26 -120 -37.5t-151 -11.5zM229 277l212 5q-9 36 -42 54t-77 18q-40 0 -65.5 -19.5t-27.5 -57.5z" />
    <glyph glyph-name="Eogonek" unicode="&#x118;" horiz-adv-x="855" 
d="M530 0q-46 -60 21 -90q62 -28 156 -13q14 2 26 5l17 -116q-53 -17 -115 -16.5t-113.5 17.5t-90 47.5t-45.5 72.5t20 93h-265l-122 700h705l29 -172h-503l16 -91h494l30 -163h-494l18 -102h503l29 -172h-316z" />
    <glyph glyph-name="eogonek" unicode="&#x119;" horiz-adv-x="682" 
d="M662 -98l17 -116q-52 -17 -112 -16.5t-111 16.5t-90.5 44.5t-49.5 68.5t12 89q-114 16 -191.5 86t-96.5 176q-21 120 48.5 193t205.5 73q134 0 227.5 -62.5t113.5 -164.5l14 -82h-402q40 -68 163 -68q35 0 63 2.5t54 10.5t36 11.5t37.5 16.5t29.5 14l29 -161
q-106 -42 -210 -48q-30 -54 41 -79q70 -25 162 -6zM322 354q-40 0 -65.5 -19.5t-27.5 -57.5l212 5q-9 36 -42 54t-77 18z" />
    <glyph glyph-name="Ecaron" unicode="&#x11a;" horiz-adv-x="855" 
d="M358 755l-321 186l-14 80l317 -164l257 164l14 -80zM141 0l-122 700h705l29 -172h-503l16 -91h494l30 -163h-494l18 -102h503l29 -172h-705z" />
    <glyph glyph-name="ecaron" unicode="&#x11b;" horiz-adv-x="682" 
d="M288 555l-321 186l-14 80l317 -164l257 164l14 -80zM388 -16q-136 0 -231.5 73t-116.5 193t48.5 193t205.5 73q134 0 227.5 -62.5t113.5 -164.5l14 -82h-402q40 -68 163 -68q35 0 63 2.5t54 10.5t36 11.5t37.5 16.5t29.5 14l29 -161q-65 -26 -120 -37.5t-151 -11.5z
M229 277l212 5q-9 36 -42 54t-77 18q-40 0 -65.5 -19.5t-27.5 -57.5z" />
    <glyph glyph-name="Gbreve" unicode="&#x11e;" horiz-adv-x="954" 
d="M393 751q-93 0 -167.5 41t-97.5 108h105q14 -40 51 -60.5t85 -20.5q49 0 70.5 20.5t11.5 60.5h103q22 -69 -19.5 -109t-141.5 -40zM536 -16q-190 0 -323.5 100.5t-162.5 265.5t69.5 265.5t288.5 100.5q182 0 314.5 -75.5t154.5 -196.5h-211q-19 100 -228 100
q-101 0 -151.5 -50t-34.5 -144t84 -144t170 -50q175 0 194 97h-316l-24 140h537l68 -393h-116l-40 149q-23 -83 -95 -124t-178 -41z" />
    <glyph glyph-name="gbreve" unicode="&#x11f;" horiz-adv-x="734" 
d="M296 551q-93 0 -167.5 41t-97.5 108h105q14 -40 51 -60.5t85 -20.5q49 0 70.5 20.5t11.5 60.5h103q22 -69 -19.5 -109t-141.5 -40zM398 -200q-161 0 -286 29l-29 168q30 -14 96.5 -24.5t141.5 -10.5q107 0 139 36t19 143v5q-9 -69 -68 -105.5t-152 -36.5
q-115 0 -195 65.5t-101 184.5q-20 118 36.5 190t170.5 72q90 0 164 -49t105 -129h17l-45 162h203l78 -440q23 -132 -56.5 -196t-237.5 -64zM315 146q59 0 95.5 26.5t27.5 79.5q-9 52 -55 77t-105 25q-58 0 -94.5 -25t-27.5 -77q9 -53 55 -79.5t104 -26.5z" />
    <glyph glyph-name="Gdotaccent" unicode="&#x120;" horiz-adv-x="954" 
d="M397 738q-44 0 -80 23.5t-49 61.5t6 61.5t63 23.5q47 0 81 -23t48 -62t-4 -62t-65 -23zM536 -16q-190 0 -323.5 100.5t-162.5 265.5t69.5 265.5t288.5 100.5q182 0 314.5 -75.5t154.5 -196.5h-211q-19 100 -228 100q-101 0 -151.5 -50t-34.5 -144t84 -144t170 -50
q175 0 194 97h-316l-24 140h537l68 -393h-116l-40 149q-23 -83 -95 -124t-178 -41z" />
    <glyph glyph-name="gdotaccent" unicode="&#x121;" horiz-adv-x="734" 
d="M300 538q-44 0 -80 23.5t-49 61.5t6 61.5t63 23.5q47 0 81 -23t48 -62t-4 -62t-65 -23zM398 -200q-161 0 -286 29l-29 168q30 -14 96.5 -24.5t141.5 -10.5q107 0 139 36t19 143v5q-9 -69 -68 -105.5t-152 -36.5q-115 0 -195 65.5t-101 184.5q-20 118 36.5 190t170.5 72
q90 0 164 -49t105 -129h17l-45 162h203l78 -440q23 -132 -56.5 -196t-237.5 -64zM315 146q59 0 95.5 26.5t27.5 79.5q-9 52 -55 77t-105 25q-58 0 -94.5 -25t-27.5 -77q9 -53 55 -79.5t104 -26.5z" />
    <glyph glyph-name="Gcommaaccent" unicode="&#x122;" horiz-adv-x="954" 
d="M536 -16q-190 0 -323.5 100.5t-162.5 265.5t69.5 265.5t288.5 100.5q182 0 314.5 -75.5t154.5 -196.5h-211q-19 100 -228 100q-101 0 -151.5 -50t-34.5 -144t84 -144t170 -50q175 0 194 97h-316l-24 140h537l68 -393h-116l-40 149q-23 -83 -95 -124t-178 -41zM495 -350
l15 270h170l-65 -270h-120z" />
    <glyph glyph-name="gcommaaccent" unicode="&#x123;" horiz-adv-x="734" 
d="M398 -200q-161 0 -286 29l-29 168q30 -14 96.5 -24.5t141.5 -10.5q107 0 139 36t19 143v5q-9 -69 -68 -105.5t-152 -36.5q-115 0 -195 65.5t-101 184.5q-20 118 36.5 190t170.5 72q90 0 164 -49t105 -129h17l-45 162h203l78 -440q23 -132 -56.5 -196t-237.5 -64zM315 146
q59 0 95.5 26.5t27.5 79.5q-9 52 -55 77t-105 25q-58 0 -94.5 -25t-27.5 -77q9 -53 55 -79.5t104 -26.5zM337 -532l15 270h170l-65 -270h-120z" />
    <glyph glyph-name="Hbar" unicode="&#x126;" horiz-adv-x="975" 
d="M867 509l89 -509h-202l-49 279h-411l49 -279h-202l-89 509h-51l-28 133h56l-10 58h202l10 -58h411l-10 58h202l10 -58h62l28 -133h-67zM264 452h411l-10 57h-411z" />
    <glyph glyph-name="hbar" unicode="&#x127;" horiz-adv-x="748" 
d="M732 217l37 -217h-202l-34 200q-17 95 -49 129.5t-96 34.5q-60 0 -89.5 -56t-14.5 -140v1l29 -169h-202l-93 536h-52l-22 103h56l-11 61h216l8 -61h189l22 -103h-198l30 -242h10q-2 123 45 172.5t166 49.5q75 -1 120 -23.5t79 -87.5t56 -188z" />
    <glyph glyph-name="Imacron" unicode="&#x12a;" horiz-adv-x="362" 
d="M-172 846l-10 54h532l10 -54h-532zM141 0l-122 700h202l122 -700h-202z" />
    <glyph glyph-name="imacron" unicode="&#x12b;" horiz-adv-x="228" 
d="M-259 644l-19 54h532l19 -54h-532zM57 0l-88 500h202l88 -500h-202z" />
    <glyph glyph-name="Iogonek" unicode="&#x12e;" horiz-adv-x="362" 
d="M465 -98l17 -116q-45 -14 -96.5 -16t-97 8.5t-85.5 30.5t-62 49.5t-25 66t24 79.5l-121 696h202l122 -700h-81q-46 -60 21 -90q62 -28 156 -13q14 2 26 5z" />
    <glyph glyph-name="iogonek" unicode="&#x12f;" horiz-adv-x="302" 
d="M222 644q9 -55 -15.5 -79t-85.5 -24q-119 0 -135 103q-10 55 14.5 79t83.5 24q119 0 138 -103zM456 -98l38 -116q-51 -17 -113.5 -16t-117.5 18.5t-99 49t-57 74.5t9 95l-88 493h202l89 -500h-83q-36 -60 37 -91q67 -27 159 -12q13 2 24 5z" />
    <glyph glyph-name="Idotaccent" unicode="&#x130;" horiz-adv-x="362" 
d="M118 738q-44 0 -84 23.5t-60 61.5t-5 61.5t59 23.5q47 0 85 -23t59 -62q21 -38 7 -61.5t-61 -23.5zM141 0l-122 700h202l122 -700h-202z" />
    <glyph glyph-name="dotlessi" unicode="&#x131;" horiz-adv-x="228" 
d="M57 0l-88 500h202l88 -500h-202z" />
    <glyph glyph-name="Kcommaaccent" unicode="&#x136;" horiz-adv-x="972" 
d="M141 0l-122 700h202l55 -316l273 316h300l-235 -246l389 -454h-281l-249 307l-155 -162l25 -145h-202zM399 -350l15 270h170l-65 -270h-120z" />
    <glyph glyph-name="kcommaaccent" unicode="&#x137;" horiz-adv-x="722" 
d="M111 0l-122 700h202l61 -354l129 154h278l-160 -169l264 -331h-251l-144 193l-75 -79l20 -114h-202zM315 -350l15 270h170l-65 -270h-120z" />
    <glyph glyph-name="Lacute" unicode="&#x139;" horiz-adv-x="755" 
d="M120 744l-28 80l220 186l36 -102zM141 0l-122 700h202l93 -528h443l29 -172h-645z" />
    <glyph glyph-name="lacute" unicode="&#x13a;" horiz-adv-x="302" 
d="M60 744l-14 80l253 186l18 -102zM111 0l-122 700h202l122 -700h-202z" />
    <glyph glyph-name="Lcommaaccent" unicode="&#x13b;" horiz-adv-x="755" 
d="M141 0l-122 700h202l93 -528h443l29 -172h-645zM341 -350l15 270h170l-65 -270h-120z" />
    <glyph glyph-name="lcommaaccent" unicode="&#x13c;" horiz-adv-x="302" 
d="M111 0l-122 700h202l122 -700h-202zM113 -350l15 270h170l-65 -270h-120z" />
    <glyph glyph-name="Lcaron" unicode="&#x13d;" horiz-adv-x="755" 
d="M141 0l-122 700h202l93 -528h443l29 -172h-645zM423 429l15 270h170l-65 -270h-120z" />
    <glyph glyph-name="lcaron" unicode="&#x13e;" horiz-adv-x="512" 
d="M111 0l-122 700h202l122 -700h-202zM352 429l15 270h170l-65 -270h-120z" />
    <glyph glyph-name="Lslash" unicode="&#x141;" horiz-adv-x="755" 
d="M786 0h-645l-51 290l-90 -52l-65 114l131 76l-47 272h202l29 -167l150 86l66 -113l-191 -110l39 -224h443z" />
    <glyph glyph-name="lslash" unicode="&#x142;" horiz-adv-x="591" 
d="M601 506l-188 -108l69 -398h-202l-51 292l-94 -54l-65 114l135 78l-47 270h202l29 -165l146 84z" />
    <glyph glyph-name="Nacute" unicode="&#x143;" horiz-adv-x="978" 
d="M389 744l-28 80l220 186l36 -102zM141 0l-122 700h159l525 -387l-68 387h202l122 -700h-160l-524 386l68 -386h-202z" />
    <glyph glyph-name="nacute" unicode="&#x144;" horiz-adv-x="758" 
d="M310 544l-28 80l220 186l36 -102zM96 0l-88 500h216l15 -206h10q-2 123 45.5 172.5t166.5 49.5q56 -1 93.5 -12.5t69.5 -44t53.5 -91t37.5 -151.5l39 -217h-202l-36 200q-17 96 -48.5 130t-94.5 34q-59 0 -89 -53.5t-18 -134.5l32 -176h-202z" />
    <glyph glyph-name="Ncommaaccent" unicode="&#x145;" horiz-adv-x="978" 
d="M141 0l-122 700h159l525 -387l-68 387h202l122 -700h-160l-524 386l68 -386h-202zM413 -350l15 270h170l-65 -270h-120z" />
    <glyph glyph-name="ncommaaccent" unicode="&#x146;" horiz-adv-x="758" 
d="M96 0l-88 500h216l15 -206h10q-2 123 45.5 172.5t166.5 49.5q56 -1 93.5 -12.5t69.5 -44t53.5 -91t37.5 -151.5l39 -217h-202l-36 200q-17 96 -48.5 130t-94.5 34q-59 0 -89 -53.5t-18 -134.5l32 -176h-202zM314 -350l15 270h170l-65 -270h-120z" />
    <glyph glyph-name="Ncaron" unicode="&#x147;" horiz-adv-x="978" 
d="M419 755l-321 186l-14 80l317 -164l257 164l14 -80zM141 0l-122 700h159l525 -387l-68 387h202l122 -700h-160l-524 386l68 -386h-202z" />
    <glyph glyph-name="ncaron" unicode="&#x148;" horiz-adv-x="758" 
d="M340 555l-321 186l-14 80l317 -164l257 164l14 -80zM96 0l-88 500h216l15 -206h10q-2 123 45.5 172.5t166.5 49.5q56 -1 93.5 -12.5t69.5 -44t53.5 -91t37.5 -151.5l39 -217h-202l-36 200q-17 96 -48.5 130t-94.5 34q-59 0 -89 -53.5t-18 -134.5l32 -176h-202z" />
    <glyph glyph-name="Eng" unicode="&#x14a;" horiz-adv-x="978" 
d="M959 0q10 -34 7.5 -61.5t-9 -48t-28 -36t-49.5 -26t-74 -17t-101.5 -9t-130.5 -2.5l-19 89q278 0 275 65q0 21 -31 46l-524 386l68 -386h-202l-122 700h159l525 -387l-68 387h202z" />
    <glyph glyph-name="eng" unicode="&#x14b;" horiz-adv-x="758" 
d="M754 1q10 -47 11 -75t-12 -53t-38.5 -37.5t-78 -21.5t-121.5 -11.5t-177 -2.5l-20 89q148 0 199 14t41 65l-7 37l-35 195q-17 96 -48.5 130t-94.5 34q-59 0 -89 -53.5t-18 -134.5l32 -176h-202l-88 500h216l15 -206h10q-2 123 45.5 172.5t166.5 49.5q56 -1 93.5 -12.5
t69.5 -44t53.5 -91t37.5 -151.5z" />
    <glyph glyph-name="Omacron" unicode="&#x14c;" horiz-adv-x="965" 
d="M130 846l-10 54h532l10 -54h-532zM546 -16q-203 0 -340 100t-166 266t72.5 266t305.5 100t341 -100t166 -266t-73 -266t-306 -100zM516 156q116 0 169.5 49.5t37.5 144.5t-87.5 144.5t-187.5 49.5q-115 0 -168.5 -49.5t-37.5 -144.5t87.5 -144.5t186.5 -49.5z" />
    <glyph glyph-name="omacron" unicode="&#x14d;" horiz-adv-x="722" 
d="M11 646l-10 54h532l10 -54h-532zM408 -16q-145 0 -246 73t-122 193t54 193t220 73t246 -73t122 -193t-54 -193t-220 -73zM380 146q58 0 88 28.5t22 75.5q-8 46 -49 75t-99 29t-88 -28.5t-22 -75.5q8 -46 49 -75t99 -29z" />
    <glyph glyph-name="Ohungarumlaut" unicode="&#x150;" horiz-adv-x="965" 
d="M279 744l-14 80l253 186l18 -102zM529 744l-14 80l253 186l18 -102zM546 -16q-203 0 -340 100t-166 266t72.5 266t305.5 100t341 -100t166 -266t-73 -266t-306 -100zM516 156q116 0 169.5 49.5t37.5 144.5t-87.5 144.5t-187.5 49.5q-115 0 -168.5 -49.5t-37.5 -144.5
t87.5 -144.5t186.5 -49.5z" />
    <glyph glyph-name="ohungarumlaut" unicode="&#x151;" horiz-adv-x="722" 
d="M175 544l-14 80l253 186l18 -102zM425 544l-14 80l253 186l18 -102zM408 -16q-145 0 -246 73t-122 193t54 193t220 73t246 -73t122 -193t-54 -193t-220 -73zM380 146q58 0 88 28.5t22 75.5q-8 46 -49 75t-99 29t-88 -28.5t-22 -75.5q8 -46 49 -75t99 -29z" />
    <glyph glyph-name="OE" unicode="&#x152;" horiz-adv-x="1515" 
d="M1506 0h-705l-7 40q-98 -56 -248 -56q-203 0 -340 100t-166 266t72.5 266t305.5 100q151 0 268 -57l-7 41h705l29 -172h-503l16 -91h494l30 -163h-494l18 -102h503zM516 156q116 0 169.5 49.5t37.5 144.5t-87.5 144.5t-187.5 49.5q-115 0 -168.5 -49.5t-37.5 -144.5
t87.5 -144.5t186.5 -49.5z" />
    <glyph glyph-name="oe" unicode="&#x153;" horiz-adv-x="1134" 
d="M1111 33q-65 -26 -120 -37.5t-151 -11.5q-126 0 -221 65q-76 -65 -211 -65q-145 0 -246 73t-122 193t54 193t220 73q135 0 235 -65q70 65 197 65q134 0 227.5 -62.5t113.5 -164.5l14 -82h-402q40 -68 163 -68q35 0 63 2.5t54 10.5t36 11.5t37.5 16.5t29.5 14zM380 146
q58 0 88 28.5t22 75.5q-8 46 -49 75t-99 29t-88 -28.5t-22 -75.5q8 -46 49 -75t99 -29zM774 354q-40 0 -65.5 -19.5t-27.5 -57.5l212 5q-9 36 -42 54t-77 18z" />
    <glyph glyph-name="Racute" unicode="&#x154;" horiz-adv-x="941" 
d="M352 744l-28 80l220 186l36 -102zM141 0l-122 700h565q106 0 174 -51t83 -134q14 -83 -38.5 -129.5t-155.5 -46.5h-72q65 -4 114.5 -24t98.5 -66t89.5 -99.5t104.5 -149.5h-266q-129 175 -165 214q-54 57 -110 65q-17 3 -38 3h-110l50 -282h-202zM266 435h329q29 0 41 12
t8 39q-8 52 -67 52h-329z" />
    <glyph glyph-name="racute" unicode="&#x155;" horiz-adv-x="541" 
d="M295 544l-28 80l220 186l36 -102zM96 0l-88 500h216l15 -206h10q-2 121 49.5 171.5t171.5 50.5l31 -172q-32 0 -55.5 -0.5t-48 -2.5t-41.5 -6t-33.5 -10t-26.5 -15t-18.5 -21.5t-11.5 -28.5t-3 -37t4 -46l31 -177h-202z" />
    <glyph glyph-name="Rcommaaccent" unicode="&#x156;" horiz-adv-x="941" 
d="M141 0l-122 700h565q106 0 174 -51t83 -134q14 -83 -38.5 -129.5t-155.5 -46.5h-72q65 -4 114.5 -24t98.5 -66t89.5 -99.5t104.5 -149.5h-266q-129 175 -165 214q-54 57 -110 65q-17 3 -38 3h-110l50 -282h-202zM266 435h329q29 0 41 12t8 39q-8 52 -67 52h-329z
M404 -350l15 270h170l-65 -270h-120z" />
    <glyph glyph-name="rcommaaccent" unicode="&#x157;" horiz-adv-x="541" 
d="M96 0l-88 500h216l15 -206h10q-2 121 49.5 171.5t171.5 50.5l31 -172q-32 0 -55.5 -0.5t-48 -2.5t-41.5 -6t-33.5 -10t-26.5 -15t-18.5 -21.5t-11.5 -28.5t-3 -37t4 -46l31 -177h-202zM111 -350l15 270h170l-65 -270h-120z" />
    <glyph glyph-name="Rcaron" unicode="&#x158;" horiz-adv-x="941" 
d="M382 755l-321 186l-14 80l317 -164l257 164l14 -80zM141 0l-122 700h565q106 0 174 -51t83 -134q14 -83 -38.5 -129.5t-155.5 -46.5h-72q65 -4 114.5 -24t98.5 -66t89.5 -99.5t104.5 -149.5h-266q-129 175 -165 214q-54 57 -110 65q-17 3 -38 3h-110l50 -282h-202z
M266 435h329q29 0 41 12t8 39q-8 52 -67 52h-329z" />
    <glyph glyph-name="rcaron" unicode="&#x159;" horiz-adv-x="541" 
d="M325 555l-321 186l-14 80l317 -164l257 164l14 -80zM96 0l-88 500h216l15 -206h10q-2 121 49.5 171.5t171.5 50.5l31 -172q-32 0 -55.5 -0.5t-48 -2.5t-41.5 -6t-33.5 -10t-26.5 -15t-18.5 -21.5t-11.5 -28.5t-3 -37t4 -46l31 -177h-202z" />
    <glyph glyph-name="Sacute" unicode="&#x15a;" horiz-adv-x="886" 
d="M338 744l-28 80l220 186l36 -102zM497 -16q-180 3 -300 70.5t-136 176.5h216q2 -15 17.5 -30.5t60 -29.5t109.5 -15q45 -1 79.5 1t65.5 8t46 19t11 32q-3 20 -37.5 30t-87 13.5t-116 7t-128.5 14.5t-120 31.5t-94.5 63.5t-49.5 105q-17 109 78.5 173.5t268.5 61.5
q168 -3 283.5 -70.5t135.5 -176.5h-216q-2 16 -15 31t-53 29t-102 15q-42 1 -72 -1t-57 -8t-39.5 -19t-8.5 -32q5 -29 68 -41t150.5 -18.5t176.5 -20.5t157 -60t81 -125q17 -109 -85 -173.5t-287 -61.5z" />
    <glyph glyph-name="sacute" unicode="&#x15b;" horiz-adv-x="664" 
d="M249 544l-28 80l220 186l36 -102zM377 -16q-132 0 -275 39l-30 169q121 -43 246 -43q35 0 59 1t40 4t23 7.5t5 11.5q-2 15 -32.5 21t-73.5 5t-95 4.5t-97.5 16t-80 42t-42.5 80.5q-16 87 55 130.5t208 43.5q107 0 255 -28l30 -169q-128 26 -225 26q-35 0 -59 -1t-40 -3.5
t-23 -6.5t-6 -10q2 -12 42.5 -14t98.5 -3.5t117 -10.5t105.5 -44t57.5 -96q17 -89 -53.5 -130.5t-209.5 -41.5z" />
    <glyph glyph-name="Scedilla" unicode="&#x15e;" horiz-adv-x="886" 
d="M535 -70q141 -9 228.5 -36.5t102.5 -70.5q11 -31 -33 -56t-136 -39.5t-217 -14.5l-21 55q78 0 128.5 7.5t70.5 19.5t14 28q-19 54 -252 58l-18 53l12 55q-148 17 -243.5 82t-109.5 160h216q2 -15 17.5 -30.5t60 -29.5t109.5 -15q45 -1 79.5 1t65.5 8t46 19t11 32
q-3 20 -37.5 30t-87 13.5t-116 7t-128.5 14.5t-120 31.5t-94.5 63.5t-49.5 105q-17 109 78.5 173.5t268.5 61.5q168 -3 283.5 -70.5t135.5 -176.5h-216q-2 16 -15 31t-53 29t-102 15q-42 1 -72 -1t-57 -8t-39.5 -19t-8.5 -32q5 -29 68 -41t150.5 -18.5t176.5 -20.5t157 -60
t81 -125q16 -102 -72.5 -165.5t-252.5 -69.5z" />
    <glyph glyph-name="scedilla" unicode="&#x15f;" horiz-adv-x="664" 
d="M738 -177q11 -31 -33 -56t-136 -39.5t-217 -14.5l-21 55q78 0 128.5 7.5t70.5 19.5t14 28q-19 54 -252 58l-18 53l12 55q-106 12 -184 34l-30 169q121 -43 246 -43q35 0 59 1t40 4t23 7.5t5 11.5q-2 15 -32.5 21t-73.5 5t-95 4.5t-97.5 16t-80 42t-42.5 80.5
q-16 87 55 130.5t208 43.5q107 0 255 -28l30 -169q-128 26 -225 26q-35 0 -59 -1t-40 -3.5t-23 -6.5t-6 -10q2 -12 42.5 -14t98.5 -3.5t117 -10.5t105.5 -44t57.5 -96q15 -82 -44.5 -123.5t-179.5 -47.5l-9 -55q141 -9 228.5 -36.5t102.5 -70.5z" />
    <glyph glyph-name="Scaron" unicode="&#x160;" horiz-adv-x="886" 
d="M368 755l-321 186l-14 80l317 -164l257 164l14 -80zM497 -16q-180 3 -300 70.5t-136 176.5h216q2 -15 17.5 -30.5t60 -29.5t109.5 -15q45 -1 79.5 1t65.5 8t46 19t11 32q-3 20 -37.5 30t-87 13.5t-116 7t-128.5 14.5t-120 31.5t-94.5 63.5t-49.5 105q-17 109 78.5 173.5
t268.5 61.5q168 -3 283.5 -70.5t135.5 -176.5h-216q-2 16 -15 31t-53 29t-102 15q-42 1 -72 -1t-57 -8t-39.5 -19t-8.5 -32q5 -29 68 -41t150.5 -18.5t176.5 -20.5t157 -60t81 -125q17 -109 -85 -173.5t-287 -61.5z" />
    <glyph glyph-name="scaron" unicode="&#x161;" horiz-adv-x="664" 
d="M279 555l-321 186l-14 80l317 -164l257 164l14 -80zM377 -16q-132 0 -275 39l-30 169q121 -43 246 -43q35 0 59 1t40 4t23 7.5t5 11.5q-2 15 -32.5 21t-73.5 5t-95 4.5t-97.5 16t-80 42t-42.5 80.5q-16 87 55 130.5t208 43.5q107 0 255 -28l30 -169q-128 26 -225 26
q-35 0 -59 -1t-40 -3.5t-23 -6.5t-6 -10q2 -12 42.5 -14t98.5 -3.5t117 -10.5t105.5 -44t57.5 -96q17 -89 -53.5 -130.5t-209.5 -41.5z" />
    <glyph glyph-name="uni0162" unicode="&#x162;" horiz-adv-x="873" 
d="M845 -177q11 -31 -33 -56t-136 -39.5t-217 -14.5l-21 55q78 0 128.5 7.5t70.5 19.5t14 28q-19 54 -252 58l-18 53l14 69l-91 525h-311l-29 172h823l29 -172h-310l92 -528h-73l-11 -70q141 -9 228.5 -36.5t102.5 -70.5z" />
    <glyph glyph-name="uni0163" unicode="&#x163;" horiz-adv-x="418" 
d="M649 -177q11 -31 -33 -56t-136 -39.5t-217 -14.5l-21 55q78 0 128.5 7.5t70.5 19.5t14 28q-19 54 -252 58l-18 53l15 71q-38 17 -56.5 56.5t-32.5 118.5l-31 172h-56l-26 148h76l-21 120l178 20l25 -140h100l26 -148h-100l25 -142q10 -59 26.5 -72.5t86.5 -7.5l22 -120
q-57 -16 -114 -19l-10 -61q141 -9 228.5 -36.5t102.5 -70.5z" />
    <glyph glyph-name="Tcaron" unicode="&#x164;" horiz-adv-x="873" 
d="M387 755l-321 186l-14 80l317 -164l257 164l14 -80zM396 0l-92 528h-311l-29 172h823l29 -172h-310l92 -528h-202z" />
    <glyph glyph-name="tcaron" unicode="&#x165;" horiz-adv-x="659" 
d="M480 429l15 270h170l-65 -270h-120zM295 -10q-49 0 -80 9t-51.5 33t-31.5 57.5t-21 90.5l-31 172h-56l-26 148h76l-21 120l178 20l25 -140h100l26 -148h-100l25 -142q10 -59 26.5 -72.5t86.5 -7.5l22 -120q-71 -20 -147 -20z" />
    <glyph glyph-name="Tbar" unicode="&#x166;" horiz-adv-x="873" 
d="M674 417l26 -173h-145l43 -244h-202l-43 244h-153l-26 173h149l-19 111h-311l-29 172h823l29 -172h-310l19 -111h149z" />
    <glyph glyph-name="tbar" unicode="&#x167;" horiz-adv-x="418" 
d="M420 130l22 -120q-71 -20 -147 -20q-93 0 -128 38t-55 146h-67l-30 143h71l-6 35h-56l-26 148h76l-21 120l178 20l25 -140h100l26 -148h-100l6 -35h86l30 -143h-90q8 -32 27.5 -40t78.5 -4z" />
    <glyph glyph-name="Umacron" unicode="&#x16a;" horiz-adv-x="924" 
d="M107 846l-10 54h532l10 -54h-532zM525 -16q-90 0 -160 18t-130 60t-100 117.5t-59 184.5l-59 336h202l65 -366q14 -83 69.5 -126.5t140.5 -43.5t124.5 43.5t25.5 126.5l-65 366h202l59 -336q11 -74 10.5 -131.5t-18.5 -99.5t-44 -70.5t-68 -46t-89 -25t-106 -7.5z" />
    <glyph glyph-name="umacron" unicode="&#x16b;" horiz-adv-x="758" 
d="M31 646l-10 54h532l10 -54h-532zM662 500l88 -500h-216l-15 206h-10q2 -123 -45.5 -172.5t-166.5 -49.5q-56 1 -93.5 12.5t-69.5 44t-53.5 91t-37.5 151.5l-39 217h202l36 -200q17 -96 48.5 -130t94.5 -34q59 0 89 53.5t18 134.5l-32 176h202z" />
    <glyph glyph-name="Uring" unicode="&#x16e;" horiz-adv-x="924" 
d="M385 738q-105 0 -189 29t-100 74t48 74t169 29q113 0 193 -28.5t96 -74.5t-44 -74.5t-173 -28.5zM367 789q41 0 61.5 13.5t11.5 38.5q-19 52 -109 52q-40 0 -60 -13.5t-11 -38.5q18 -52 107 -52zM525 -16q-90 0 -160 18t-130 60t-100 117.5t-59 184.5l-59 336h202
l65 -366q14 -83 69.5 -126.5t140.5 -43.5t124.5 43.5t25.5 126.5l-65 366h202l59 -336q11 -74 10.5 -131.5t-18.5 -99.5t-44 -70.5t-68 -46t-89 -25t-106 -7.5z" />
    <glyph glyph-name="uring" unicode="&#x16f;" horiz-adv-x="758" 
d="M321 538q-105 0 -189 29t-100 74t48 74t169 29q113 0 193 -28.5t96 -74.5t-44 -74.5t-173 -28.5zM303 589q41 0 61.5 13.5t11.5 38.5q-19 52 -109 52q-40 0 -60 -13.5t-11 -38.5q18 -52 107 -52zM662 500l88 -500h-216l-15 206h-10q2 -123 -45.5 -172.5t-166.5 -49.5
q-56 1 -93.5 12.5t-69.5 44t-53.5 91t-37.5 151.5l-39 217h202l36 -200q17 -96 48.5 -130t94.5 -34q59 0 89 53.5t18 134.5l-32 176h202z" />
    <glyph glyph-name="Uhungarumlaut" unicode="&#x170;" horiz-adv-x="924" 
d="M256 744l-14 80l253 186l18 -102zM506 744l-14 80l253 186l18 -102zM525 -16q-90 0 -160 18t-130 60t-100 117.5t-59 184.5l-59 336h202l65 -366q14 -83 69.5 -126.5t140.5 -43.5t124.5 43.5t25.5 126.5l-65 366h202l59 -336q11 -74 10.5 -131.5t-18.5 -99.5t-44 -70.5
t-68 -46t-89 -25t-106 -7.5z" />
    <glyph glyph-name="uhungarumlaut" unicode="&#x171;" horiz-adv-x="758" 
d="M192 544l-14 80l253 186l18 -102zM442 544l-14 80l253 186l18 -102zM662 500l88 -500h-216l-15 206h-10q2 -123 -45.5 -172.5t-166.5 -49.5q-56 1 -93.5 12.5t-69.5 44t-53.5 91t-37.5 151.5l-39 217h202l36 -200q17 -96 48.5 -130t94.5 -34q59 0 89 53.5t18 134.5
l-32 176h202z" />
    <glyph glyph-name="Uogonek" unicode="&#x172;" horiz-adv-x="924" 
d="M581 -14q-30 -55 40 -80q68 -25 160 -7q7 1 13 3l17 -116q-52 -17 -112 -16.5t-110.5 16.5t-89.5 44.5t-49.5 68t10.5 87.5q-157 13 -253.5 99.5t-130.5 278.5l-59 336h202l65 -366q14 -83 69.5 -126.5t140.5 -43.5t124.5 43.5t25.5 126.5l-65 366h202l59 -336
q34 -195 -34 -281.5t-225 -96.5z" />
    <glyph glyph-name="uogonek" unicode="&#x173;" horiz-adv-x="758" 
d="M862 -98l17 -116q-53 -17 -115 -16.5t-113.5 17.5t-90 47.5t-45.5 72.5t20 93h-1l-15 206h-10q2 -123 -45.5 -172.5t-166.5 -49.5q-56 1 -93.5 12.5t-69.5 44t-53.5 91t-37.5 151.5l-39 217h202l36 -200q17 -96 48.5 -130t94.5 -34q59 0 89 53.5t18 134.5l-32 176h202
l88 -500h-91q-46 -60 21 -90q62 -28 156 -13q14 2 26 5z" />
    <glyph glyph-name="Wcircumflex" unicode="&#x174;" horiz-adv-x="1281" 
d="M284 755l-14 80l253 186l321 -186l14 -80l-317 164zM345 0l-381 700h229l218 -416l54 416h229l200 -416l72 416h229l-137 -700h-242l-175 350l-54 -350h-242z" />
    <glyph glyph-name="wcircumflex" unicode="&#x175;" horiz-adv-x="1121" 
d="M215 555l-14 80l253 186l321 -186l14 -80l-317 164zM283 0l-302 500h209l161 -270l61 270h199l165 -276l67 276h209l-126 -500h-222l-146 250l-53 -250h-222z" />
    <glyph glyph-name="Ycircumflex" unicode="&#x176;" horiz-adv-x="1070" 
d="M178 755l-14 80l253 186l321 -186l14 -80l-317 164zM495 0l-39 226l-492 474h249l315 -311l207 311h249l-326 -472l39 -228h-202z" />
    <glyph glyph-name="ycircumflex" unicode="&#x177;" horiz-adv-x="806" 
d="M56 555l-14 80l253 186l321 -186l14 -80l-317 164zM245 -200l75 211l-356 489h232l196 -280l99 280h229l-247 -700h-228z" />
    <glyph glyph-name="Ydieresis" unicode="&#x178;" horiz-adv-x="1070" 
d="M326 738q-44 0 -75.5 23.5t-38.5 61.5t16.5 61.5t67.5 23.5q47 0 77 -23t37 -62t-15 -62t-69 -23zM616 738q-44 0 -75.5 23.5t-38.5 61.5t16.5 61.5t67.5 23.5q47 0 77 -23t37 -62t-15 -62t-69 -23zM495 0l-39 226l-492 474h249l315 -311l207 311h249l-326 -472l39 -228
h-202z" />
    <glyph glyph-name="Zacute" unicode="&#x179;" horiz-adv-x="913" 
d="M342 744l-28 80l220 186l36 -102zM96 0l-22 132l414 396h-477l-29 172h825l22 -130l-412 -398h493l29 -172h-843z" />
    <glyph glyph-name="zacute" unicode="&#x17a;" horiz-adv-x="723" 
d="M290 544l-28 80l220 186l36 -102zM74 0l-19 112l272 236h-307l-26 152h655l20 -110l-271 -238h303l26 -152h-653z" />
    <glyph glyph-name="Zdotaccent" unicode="&#x17b;" horiz-adv-x="913" 
d="M367 738q-44 0 -80 23.5t-49 61.5t6 61.5t63 23.5q47 0 81 -23t48 -62t-4 -62t-65 -23zM96 0l-22 132l414 396h-477l-29 172h825l22 -130l-412 -398h493l29 -172h-843z" />
    <glyph glyph-name="zdotaccent" unicode="&#x17c;" horiz-adv-x="723" 
d="M315 538q-44 0 -80 23.5t-49 61.5t6 61.5t63 23.5q47 0 81 -23t48 -62t-4 -62t-65 -23zM74 0l-19 112l272 236h-307l-26 152h655l20 -110l-271 -238h303l26 -152h-653z" />
    <glyph glyph-name="Zcaron" unicode="&#x17d;" horiz-adv-x="913" 
d="M372 755l-321 186l-14 80l317 -164l257 164l14 -80zM96 0l-22 132l414 396h-477l-29 172h825l22 -130l-412 -398h493l29 -172h-843z" />
    <glyph glyph-name="zcaron" unicode="&#x17e;" horiz-adv-x="723" 
d="M320 555l-321 186l-14 80l317 -164l257 164l14 -80zM74 0l-19 112l272 236h-307l-26 152h655l20 -110l-271 -238h303l26 -152h-653z" />
    <glyph glyph-name="Scommaaccent" unicode="&#x218;" horiz-adv-x="886" 
d="M497 -16q-180 3 -300 70.5t-136 176.5h216q2 -15 17.5 -30.5t60 -29.5t109.5 -15q45 -1 79.5 1t65.5 8t46 19t11 32q-3 20 -37.5 30t-87 13.5t-116 7t-128.5 14.5t-120 31.5t-94.5 63.5t-49.5 105q-17 109 78.5 173.5t268.5 61.5q168 -3 283.5 -70.5t135.5 -176.5h-216
q-2 16 -15 31t-53 29t-102 15q-42 1 -72 -1t-57 -8t-39.5 -19t-8.5 -32q5 -29 68 -41t150.5 -18.5t176.5 -20.5t157 -60t81 -125q17 -109 -85 -173.5t-287 -61.5zM388 -350l15 270h170l-65 -270h-120z" />
    <glyph glyph-name="scommaaccent" unicode="&#x219;" horiz-adv-x="664" 
d="M377 -16q-132 0 -275 39l-30 169q121 -43 246 -43q35 0 59 1t40 4t23 7.5t5 11.5q-2 15 -32.5 21t-73.5 5t-95 4.5t-97.5 16t-80 42t-42.5 80.5q-16 87 55 130.5t208 43.5q107 0 255 -28l30 -169q-128 26 -225 26q-35 0 -59 -1t-40 -3.5t-23 -6.5t-6 -10q2 -12 42.5 -14
t98.5 -3.5t117 -10.5t105.5 -44t57.5 -96q17 -89 -53.5 -130.5t-209.5 -41.5zM315 -341l-33 270h170l-17 -270h-120z" />
    <glyph glyph-name="uni021A" unicode="&#x21a;" horiz-adv-x="873" 
d="M396 0l-92 528h-311l-29 172h823l29 -172h-310l92 -528h-202zM396 -350l15 270h170l-65 -270h-120z" />
    <glyph glyph-name="uni021B" unicode="&#x21b;" horiz-adv-x="418" 
d="M295 -10q-49 0 -80 9t-51.5 33t-31.5 57.5t-21 90.5l-31 172h-56l-26 148h76l-21 120l178 20l25 -140h100l26 -148h-100l25 -142q10 -59 26.5 -72.5t86.5 -7.5l22 -120q-71 -20 -147 -20zM225 -341l-33 270h170l-17 -270h-120z" />
    <glyph glyph-name="circumflex" unicode="&#x2c6;" horiz-adv-x="674" 
d="M74 555l-14 80l253 186l321 -186l14 -80l-317 164z" />
    <glyph glyph-name="caron" unicode="&#x2c7;" horiz-adv-x="674" 
d="M361 555l-321 186l-14 80l317 -164l257 164l14 -80z" />
    <glyph glyph-name="breve" unicode="&#x2d8;" horiz-adv-x="526" 
d="M276 551q-93 0 -160 41t-79 108h105q8 -40 41 -60.5t81 -20.5q49 0 74.5 20.5t21.5 60.5h103q11 -69 -38 -109t-149 -40z" />
    <glyph glyph-name="dotaccent" unicode="&#x2d9;" horiz-adv-x="298" 
d="M164 538q-44 0 -75.5 23.5t-38.5 61.5t16.5 61.5t67.5 23.5q47 0 77 -23t37 -62t-15 -62t-69 -23z" />
    <glyph glyph-name="ring" unicode="&#x2da;" horiz-adv-x="606" 
d="M321 538q-105 0 -184 29t-87 74t61 74t174 29q113 0 188 -28.5t83 -74.5t-57 -74.5t-178 -28.5zM312 589q41 0 64 13.5t18 38.5q-10 52 -100 52q-40 0 -62 -13.5t-18 -38.5t31 -38.5t67 -13.5z" />
    <glyph glyph-name="ogonek" unicode="&#x2db;" horiz-adv-x="445" 
d="M415 -214q-96 -31 -203 -5.5t-147 90t28 160.5q38 46 85 24q27 -13 30 -33q0 -6 -3 -10q-60 -65 4 -99q56 -29 152 -18q19 3 37 7z" />
    <glyph glyph-name="tilde" unicode="&#x2dc;" horiz-adv-x="481" 
d="M319 572q-31 0 -59 18t-50 36t-38 18q-28 0 -41.5 -18t-7.5 -53h-61q-10 58 18 94t82 36q34 0 79 -36t68 -36q29 0 43 18t7 53h60q10 -59 -18 -94.5t-82 -35.5z" />
    <glyph glyph-name="hungarumlaut" unicode="&#x2dd;" horiz-adv-x="637" 
d="M74 544l-14 80l253 186l18 -102zM324 544l-14 80l253 186l18 -102z" />
    <glyph glyph-name="gravecomb" unicode="&#x300;" 
d="M-3 544l-346 164l-36 102l354 -186z" />
    <glyph glyph-name="acutecomb" unicode="&#x301;" 
d="M-290 544l-28 80l220 186l36 -102z" />
    <glyph glyph-name="uni0302" unicode="&#x302;" 
d="M-577 555l-28 80l220 186l354 -186l28 -80l-346 164z" />
    <glyph glyph-name="tildecomb" unicode="&#x303;" 
d="M-151 572q-40 0 -91.5 36t-68.5 36q-28 0 -37.5 -17.5t1.5 -53.5h-61q-21 58 1 94t76 36q34 0 85.5 -36t74.5 -36q29 0 39 17t-2 54h60q20 -59 -1.5 -94.5t-75.5 -35.5z" />
    <glyph glyph-name="uni0304" unicode="&#x304;" 
d="M-572 646l-19 54h532l19 -54h-532z" />
    <glyph glyph-name="uni0306" unicode="&#x306;" 
d="M-237 551q-93 0 -167.5 41t-97.5 108h105q14 -40 51 -60.5t85 -20.5q49 0 70.5 20.5t11.5 60.5h103q22 -69 -19.5 -109t-141.5 -40z" />
    <glyph glyph-name="uni0307" unicode="&#x307;" 
d="M-119 538q-44 0 -80 23.5t-49 61.5t6 61.5t63 23.5q47 0 81 -23t48 -62t-4 -62t-65 -23z" />
    <glyph glyph-name="uni0308" unicode="&#x308;" 
d="M-409 538q-44 0 -80 23.5t-49 61.5t6 61.5t63 23.5q47 0 81 -23t48 -62t-4 -62t-65 -23zM-119 538q-44 0 -80 23.5t-49 61.5t6 61.5t63 23.5q47 0 81 -23t48 -62t-4 -62t-65 -23z" />
    <glyph glyph-name="uni030A" unicode="&#x30a;" 
d="M-267 538q-105 0 -189 29t-100 74t48 74t169 29q113 0 193 -28.5t96 -74.5t-44 -74.5t-173 -28.5zM-285 589q41 0 61.5 13.5t11.5 38.5q-19 52 -109 52q-40 0 -60 -13.5t-11 -38.5q18 -52 107 -52z" />
    <glyph glyph-name="uni030B" unicode="&#x30b;" 
d="M-540 544l-28 80l220 186l36 -102zM-290 544l-28 80l220 186l36 -102z" />
    <glyph glyph-name="uni030C" unicode="&#x30c;" 
d="M-290 555l-354 186l-28 80l346 -164l228 164l28 -80z" />
    <glyph glyph-name="uni0312" unicode="&#x312;" 
d="M-98 798l33 -270h-170l17 270h120z" />
    <glyph glyph-name="uni0326" unicode="&#x326;" 
d="M-235 -341l-33 270h170l-17 -270h-120z" />
    <glyph glyph-name="uni0327" unicode="&#x327;" 
d="M-418 -287l-21 55q78 0 128.5 7.5t70.5 19.5t14 28q-19 54 -252 58l-18 53l21 101h129l-17 -105q141 -9 228.5 -36.5t102.5 -70.5q11 -31 -33 -56t-136 -39.5t-217 -14.5z" />
    <glyph glyph-name="uni0328" unicode="&#x328;" 
d="M-7 -214q-53 -18 -119 -16t-122.5 22t-99.5 54.5t-50 81.5t26 103q30 46 80 24q30 -13 36 -33q2 -6 -1 -10q-49 -65 22 -99q62 -30 156 -17q18 2 34 6z" />
    <glyph glyph-name="uni0335" unicode="&#x335;" 
d="M-519 244l-63 173h500l63 -173h-500z" />
    <glyph glyph-name="uni0336" unicode="&#x336;" 
d="M-1019 244l-63 173h1000l63 -173h-1000z" />
    <glyph glyph-name="uni0337" unicode="&#x337;" 
d="M-771 0l506 500h171l-506 -500h-171z" />
    <glyph glyph-name="uni0338" unicode="&#x338;" 
d="M-992 0l710 700h171l-710 -700h-171z" />
    <glyph glyph-name="uni0401" unicode="&#x401;" horiz-adv-x="855" 
d="M212 738q-44 0 -80 23.5t-49 61.5t6 61.5t63 23.5q47 0 81 -23t48 -62t-4 -62t-65 -23zM502 738q-44 0 -80 23.5t-49 61.5t6 61.5t63 23.5q47 0 81 -23t48 -62t-4 -62t-65 -23zM141 0l-122 700h705l29 -172h-503l16 -91h494l30 -163h-494l18 -102h503l29 -172h-705z" />
    <glyph glyph-name="uni0410" unicode="&#x410;" horiz-adv-x="1105" 
d="M86 0l297 700h217l541 -700h-239l-86 118h-445l-46 -118h-239zM436 290h254l-167 228z" />
    <glyph glyph-name="uni0411" unicode="&#x411;" horiz-adv-x="870" 
d="M853 214q17 -90 -36.5 -152t-159.5 -62h-515l-125 700h654l31 -172h-453l18 -101h313q105 0 180 -55t93 -158zM603 162q58 0 48 52q-10 51 -67 51h-289l20 -103h288z" />
    <glyph glyph-name="uni0412" unicode="&#x412;" horiz-adv-x="926" 
d="M141 0l-122 700h535q106 0 174 -51t83 -134q13 -75 -31.5 -114.5t-134.5 -44.5q101 -2 167 -46t80 -124q14 -84 -39 -135t-155 -51h-557zM268 435h297q28 0 41.5 10t8.5 36q-8 47 -67 47h-297zM314 173h319q58 0 49 49q-9 54 -67 54h-319z" />
    <glyph glyph-name="uni0413" unicode="&#x413;" horiz-adv-x="733" 
d="M141 0l-122 700h643l29 -172h-440l92 -528h-202z" />
    <glyph glyph-name="uni0414" unicode="&#x414;" horiz-adv-x="927" 
d="M83 -103l-37 205q53 0 77.5 20t20.5 61l-45 517h635l105 -598h102l37 -205h-202l-19 103h-491l19 -103h-202zM346 172h279l-62 356h-245l28 -336v-20z" />
    <glyph glyph-name="uni0415" unicode="&#x415;" horiz-adv-x="855" 
d="M141 0l-122 700h705l29 -172h-503l16 -91h494l30 -163h-494l18 -102h503l29 -172h-705z" />
    <glyph glyph-name="uni0416" unicode="&#x416;" horiz-adv-x="1508" 
d="M71 0l372 354l-484 346h284l402 -305l-53 305h202l53 -305l296 305h284l-364 -346l496 -354h-294l-402 305l53 -305h-202l-53 305l-296 -305h-294z" />
    <glyph glyph-name="uni0417" unicode="&#x417;" horiz-adv-x="798" 
d="M420 -16q-211 2 -333 44l-31 172q51 -20 146.5 -32t178.5 -12q229 0 219 52q-5 25 -47.5 40.5t-154 27.5t-320.5 22l-18 101q133 6 224 13.5t140.5 14.5t74.5 17t30 18t3 20q-6 33 -74.5 48t-147.5 15t-170 -12.5t-137 -32.5l-29 172q54 22 145.5 33.5t171.5 11.5
q71 0 124 -3.5t108.5 -15.5t92.5 -32.5t64.5 -56t36.5 -84.5q5 -31 -2.5 -56.5t-28 -42.5t-42.5 -30t-55 -20t-55 -11.5t-53.5 -5.5t-40 -1.5t-23.5 -0.5l2 -9q2 0 31.5 -0.5t49 -1.5t56.5 -5t63.5 -10t59.5 -18t55 -28.5t40 -41.5t23 -56q9 -50 -5 -86.5t-44.5 -59t-82 -36
t-109.5 -18t-136 -3.5z" />
    <glyph glyph-name="uni0418" unicode="&#x418;" horiz-adv-x="978" 
d="M961 0h-202l-68 386l-388 -386h-160l-125 700h202l69 -387l388 387h159z" />
    <glyph glyph-name="uni0419" unicode="&#x419;" horiz-adv-x="979" 
d="M423 751q-93 0 -160 41t-79 108h105q8 -40 41 -60.5t81 -20.5q49 0 74.5 20.5t21.5 60.5h103q11 -69 -38 -109t-149 -40zM961 0h-202l-68 386l-388 -386h-160l-125 700h202l69 -387l388 387h159z" />
    <glyph glyph-name="uni041A" unicode="&#x41a;" horiz-adv-x="935" 
d="M142 0l-124 700h202l54 -305l295 305h284l-363 -346l497 -354h-294l-403 305l54 -305h-202z" />
    <glyph glyph-name="uni041B" unicode="&#x41b;" horiz-adv-x="895" 
d="M73 -15l-7 80q49 -4 72.5 17.5t18.5 63.5l-50 554h635l124 -700h-202l-94 528h-245l35 -373q8 -90 -66.5 -134t-220.5 -36z" />
    <glyph glyph-name="uni041C" unicode="&#x41c;" horiz-adv-x="1042" 
d="M141 0l-122 700h161l353 -417l207 417h161l122 -700h-202l-58 333l-160 -333h-42l-276 334l58 -334h-202z" />
    <glyph glyph-name="uni041D" unicode="&#x41d;" horiz-adv-x="975" 
d="M141 0l-122 700h202l43 -248h411l-43 248h202l122 -700h-202l-49 279h-411l49 -279h-202z" />
    <glyph glyph-name="uni041E" unicode="&#x41e;" horiz-adv-x="965" 
d="M546 -16q-203 0 -340 100t-166 266t72.5 266t305.5 100t341 -100t166 -266t-73 -266t-306 -100zM516 156q116 0 169.5 49.5t37.5 144.5t-87.5 144.5t-187.5 49.5q-115 0 -168.5 -49.5t-37.5 -144.5t87.5 -144.5t186.5 -49.5z" />
    <glyph glyph-name="uni041F" unicode="&#x41f;" horiz-adv-x="825" 
d="M141 0l-122 700h665l122 -700h-202l-92 528h-261l92 -528h-202z" />
    <glyph glyph-name="uni0420" unicode="&#x420;" horiz-adv-x="870" 
d="M141 0l-122 700h515q106 0 181.5 -62t90.5 -152q18 -103 -37.5 -158t-160.5 -55h-313l48 -273h-202zM266 435h289q57 0 49 51q-8 52 -67 52h-288z" />
    <glyph glyph-name="uni0421" unicode="&#x421;" horiz-adv-x="924" 
d="M526 -16q-190 0 -323.5 100.5t-162.5 265.5t69.5 265.5t288.5 100.5t321.5 -88t156.5 -233h-204q-19 74 -84 111.5t-160 37.5q-101 0 -151.5 -50t-34.5 -144t84 -144t170 -50q95 0 147 37.5t45 111.5h204q25 -145 -75.5 -233t-290.5 -88z" />
    <glyph glyph-name="uni0422" unicode="&#x422;" horiz-adv-x="873" 
d="M396 0l-92 528h-311l-29 172h823l29 -172h-310l92 -528h-202z" />
    <glyph glyph-name="uni0423" unicode="&#x423;" horiz-adv-x="806" 
d="M245 -1l75 211l-356 489h232l196 -280l99 280h229l-247 -700h-228z" />
    <glyph glyph-name="uni0424" unicode="&#x424;" horiz-adv-x="722" 
d="M682 355q19 -107 -39.5 -177.5t-175.5 -84.5l16 -93h-122l-16 93q-122 15 -204 85.5t-101 176.5t39 176.5t174 85.5l-14 83h122l14 -83q123 -15 205.5 -85t101.5 -177zM438 261q64 26 52 94t-85 94zM232 355q13 -67 83 -93l-32 187q-63 -28 -51 -94z" />
    <glyph glyph-name="uni0425" unicode="&#x425;" horiz-adv-x="945" 
d="M86 0l245 354l-362 346h279l199 -191l133 191h279l-245 -352l362 -348h-276l-203 194l-135 -194h-276z" />
    <glyph glyph-name="uni0426" unicode="&#x426;" horiz-adv-x="827" 
d="M676 -103l-18 103h-516l-123 700h202l93 -528h191l-93 528h202l93 -528h123l48 -275h-202z" />
    <glyph glyph-name="uni0427" unicode="&#x427;" horiz-adv-x="748" 
d="M637 700l122 -700h-216l-51 406h-10q2 -123 -45 -172.5t-166 -49.5q-75 1 -120 23.5t-79 87.5t-56 188l-37 217h202l34 -200q17 -95 49 -129.5t96 -34.5q60 0 89.5 56t14.5 140v-1l-29 169h202z" />
    <glyph glyph-name="uni0428" unicode="&#x428;" horiz-adv-x="1168" 
d="M151 0l-122 700h202l92 -528h191l-92 528h202l92 -528h191l-92 528h202l122 -700h-988z" />
    <glyph glyph-name="uni0429" unicode="&#x429;" horiz-adv-x="1220" 
d="M1069 -103l-18 103h-909l-123 700h202l93 -528h191l-93 528h202l93 -528h191l-93 528h202l93 -528h123l48 -275h-202z" />
    <glyph glyph-name="uni042A" unicode="&#x42a;" horiz-adv-x="870" 
d="M853 214q17 -90 -36.5 -152t-159.5 -62h-515l-107 598h-56l-18 102h258l48 -273h313q105 0 180 -55t93 -158zM603 162q58 0 48 52q-10 51 -67 51h-289l20 -103h288z" />
    <glyph glyph-name="uni042B" unicode="&#x42b;" horiz-adv-x="1255" 
d="M17 700h202l48 -273h313q105 0 180 -55t93 -158q17 -90 -36.5 -152t-159.5 -62h-515zM1024 0l-122 700h202l122 -700h-202zM295 265l20 -103h288q58 0 48 52q-10 51 -67 51h-289z" />
    <glyph glyph-name="uni042C" unicode="&#x42c;" horiz-adv-x="870" 
d="M17 700h202l48 -273h313q105 0 180 -55t93 -158q17 -90 -36.5 -152t-159.5 -62h-515zM295 265l20 -103h288q58 0 48 52q-10 51 -67 51h-289z" />
    <glyph glyph-name="uni042D" unicode="&#x42d;" horiz-adv-x="924" 
d="M885 350q29 -165 -69 -265.5t-288 -100.5t-322 88t-158 233h204q20 -74 85 -111.5t160 -37.5q155 0 185 107h-287l-29 172h285q-67 109 -223 109q-95 0 -146.5 -37.5t-44.5 -111.5h-204q-25 145 75 233t290 88t324 -100.5t163 -265.5z" />
    <glyph glyph-name="uni042E" unicode="&#x42e;" horiz-adv-x="1345" 
d="M1305 350q29 -166 -73 -266t-306 -100q-175 0 -302 74.5t-179 204.5h-138l46 -263h-202l-122 700h202l46 -265h137q6 130 107.5 205.5t276.5 75.5q204 0 341 -100t166 -266zM896 156q116 0 169.5 49.5t37.5 144.5t-87.5 144.5t-187.5 49.5q-115 0 -168.5 -49.5
t-37.5 -144.5t87.5 -144.5t186.5 -49.5z" />
    <glyph glyph-name="uni042F" unicode="&#x42f;" horiz-adv-x="941" 
d="M924 0h-202l-49 282h-110q-76 0 -108.5 -44.5t-97.5 -215.5q-1 -5 -2 -7.5t-3 -6.5t-3 -8h-266q24 77 41 123t41 90.5t51 68t65 39t89 18.5h-72q-103 0 -171.5 46.5t-84.5 129.5q-14 83 36 134t156 51h565zM646 435l-19 103h-329q-58 0 -48 -52q10 -51 67 -51h329z" />
    <glyph glyph-name="uni0430" unicode="&#x430;" horiz-adv-x="694" 
d="M273 -16q-186 0 -210 132q-14 81 76 123t295 55q-3 21 -31 34t-69 13q-58 0 -124.5 -14.5t-113.5 -36.5l-31 172q138 54 278 54q253 0 296 -234l49 -282h-192l-13 179h-12q-5 -107 -46 -151t-152 -44zM343 120q48 0 81.5 24.5t23.5 71.5q-45 -3 -78 -7t-58.5 -11
t-37.5 -17.5t-10 -24.5q3 -17 25.5 -26.5t53.5 -9.5z" />
    <glyph glyph-name="uni0431" unicode="&#x431;" horiz-adv-x="856" 
d="M515 -12q-190 0 -316.5 94t-159.5 280q-29 170 74 261.5t303 91.5q214 0 281 12l33 -185q-27 -7 -65.5 -7t-102.5 3.5t-111 3.5q-117 0 -171 -47.5t-38 -137.5q86 103 237 103q163 0 255 -68.5t107 -179.5q15 -103 -71 -163.5t-255 -60.5zM476 160q76 0 120 19.5t38 57.5
q-7 37 -46.5 57.5t-107.5 20.5q-111 0 -205 -45q67 -110 201 -110z" />
    <glyph glyph-name="uni0432" unicode="&#x432;" horiz-adv-x="793" 
d="M134 0l-88 500h425q119 0 177.5 -32t70.5 -103q10 -53 -29 -79t-135 -30q109 -2 163.5 -30.5t64.5 -89.5q13 -71 -35 -103.5t-167 -32.5h-447zM284 295h108q73 0 104 11.5t26 37.5q-6 29 -40.5 41.5t-107.5 12.5h-109zM319 103h129q72 0 102 14t25 45q-8 54 -147 54h-130
z" />
    <glyph glyph-name="uni0433" unicode="&#x433;" horiz-adv-x="600" 
d="M134 0l-88 500h473l30 -172h-271l58 -328h-202z" />
    <glyph glyph-name="uni0434" unicode="&#x434;" horiz-adv-x="817" 
d="M68 -103l-36 205q53 0 77 20t20 61l-32 352h522l76 -433h121l36 -205h-202l-18 103h-380l18 -103h-202zM306 172h166l-33 191h-126l9 -101q4 -51 -16 -90z" />
    <glyph glyph-name="uni0435" unicode="&#x435;" horiz-adv-x="682" 
d="M388 -16q-136 0 -231.5 73t-116.5 193t48.5 193t205.5 73q134 0 227.5 -62.5t113.5 -164.5l14 -82h-402q40 -68 163 -68q35 0 63 2.5t54 10.5t36 11.5t37.5 16.5t29.5 14l29 -161q-65 -26 -120 -37.5t-151 -11.5zM229 277l212 5q-9 36 -42 54t-77 18q-40 0 -65.5 -19.5
t-27.5 -57.5z" />
    <glyph glyph-name="uni0436" unicode="&#x436;" horiz-adv-x="1268" 
d="M54 0l353 251l-431 249h264l278 -168l-29 168h202l30 -168l219 168h264l-343 -249l441 -251h-274l-278 168l29 -168h-202l-30 168l-219 -168h-274z" />
    <glyph glyph-name="uni0437" unicode="&#x437;" horiz-adv-x="818" 
d="M412 -15q-209 2 -333 44l-31 172q51 -20 146.5 -32t178.5 -12q52 0 89 2t60.5 6t34 10t8.5 14q-1 14 -98 23t-386 22l-7 35q95 4 160.5 7t118.5 6t84.5 6t52 7t28 8t6.5 10q-6 30 -186 30q-79 0 -170 -12.5t-137 -32.5l-30 172q54 22 145.5 33.5t172.5 11.5
q86 0 153 -5.5t126.5 -19.5t94 -40t41.5 -64q4 -24 -4.5 -43.5t-30 -32.5t-43.5 -22.5t-56 -15t-55.5 -9t-54.5 -4.5t-40 -1h-24l2 -9h37t59 -1.5t66.5 -5t72.5 -12t62 -21t50 -33.5t24 -48q27 -146 -387 -143z" />
    <glyph glyph-name="uni0438" unicode="&#x438;" horiz-adv-x="928" 
d="M134 0l-88 500h202l48 -273l339 273h159l88 -500h-202l-49 276l-337 -276h-160z" />
    <glyph glyph-name="uni0439" unicode="&#x439;" horiz-adv-x="928" 
d="M411 551q-93 0 -158 41t-73 108h105q6 -40 38 -60.5t80 -20.5q103 0 100 81h103q7 -69 -44 -109t-151 -40zM134 0l-88 500h202l48 -274l339 274h159l88 -500h-202l-48 276l-338 -276h-160z" />
    <glyph glyph-name="uni043A" unicode="&#x43a;" horiz-adv-x="795" 
d="M124 0l-88 500h202l30 -168l219 168h264l-343 -249l441 -251h-274l-278 168l29 -168h-202z" />
    <glyph glyph-name="uni043B" unicode="&#x43b;" horiz-adv-x="782" 
d="M62 -12l-17 80q100 0 91 81l-31 351h542l88 -500h-202l-58 328h-152l16 -170q8 -90 -62 -134t-215 -36z" />
    <glyph glyph-name="uni043C" unicode="&#x43c;" horiz-adv-x="1042" 
d="M134 0l-88 500h181l299 -277l201 277h181l88 -500h-202l-41 233l-177 -233h-22l-258 229l40 -229h-202z" />
    <glyph glyph-name="uni043D" unicode="&#x43d;" horiz-adv-x="855" 
d="M134 0l-88 500h202l27 -153h271l-27 153h202l88 -500h-202l-31 175h-271l31 -175h-202z" />
    <glyph glyph-name="uni043E" unicode="&#x43e;" horiz-adv-x="722" 
d="M408 -16q-145 0 -246 73t-122 193t54 193t220 73t246 -73t122 -193t-54 -193t-220 -73zM380 146q58 0 88 28.5t22 75.5q-8 46 -49 75t-99 29t-88 -28.5t-22 -75.5q8 -46 49 -75t99 -29z" />
    <glyph glyph-name="uni043F" unicode="&#x43f;" horiz-adv-x="775" 
d="M124 0l-88 500h615l88 -500h-202l-56 318h-211l56 -318h-202z" />
    <glyph glyph-name="uni0440" unicode="&#x440;" horiz-adv-x="786" 
d="M114 -200l-123 700h206l6 -163h11q3 81 62.5 130t155.5 49q113 0 195 -74t104 -196q21 -118 -35.5 -190t-170.5 -72q-90 0 -164.5 49t-105.5 129h-4l1 -1l64 -361h-202zM417 146q58 0 94 25t28 77q-9 53 -55.5 79.5t-104.5 26.5t-94.5 -26.5t-27.5 -79.5q8 -52 54 -77
t106 -25z" />
    <glyph glyph-name="uni0441" unicode="&#x441;" horiz-adv-x="609" 
d="M378 -16q-135 0 -226 72.5t-112 193.5q-22 123 41.5 194.5t203.5 71.5q119 0 246 -54l30 -170q-115 62 -222 62q-58 0 -86.5 -28.5t-20.5 -75.5q8 -46 48.5 -75t99.5 -29q108 0 196 61l31 -169q-62 -29 -110.5 -41.5t-118.5 -12.5z" />
    <glyph glyph-name="uni0442" unicode="&#x442;" horiz-adv-x="713" 
d="M300 0l-58 328h-231l-30 172h663l30 -172h-230l58 -328h-202z" />
    <glyph glyph-name="uni0443" unicode="&#x443;" horiz-adv-x="806" 
d="M245 -200l75 211l-356 489h232l196 -280l99 280h229l-247 -700h-228z" />
    <glyph glyph-name="uni0444" unicode="&#x444;" horiz-adv-x="722" 
d="M682 250q19 -106 -39 -176.5t-175 -85.5l15 -84h-122l-15 84q-122 15 -204.5 85.5t-101.5 176.5q-19 107 39.5 177.5t175.5 84.5l-16 92h122l16 -92q121 -15 203.5 -85.5t101.5 -176.5zM232 250q12 -66 85 -94l-33 188q-64 -26 -52 -94zM439 156q63 28 51 94
q-13 68 -84 93z" />
    <glyph glyph-name="uni0445" unicode="&#x445;" horiz-adv-x="838" 
d="M69 0l213 251l-300 249h254l164 -136l115 136h254l-222 -259l290 -241h-253l-154 128l-108 -128h-253z" />
    <glyph glyph-name="uni0446" unicode="&#x446;" horiz-adv-x="807" 
d="M638 -103l-18 103h-495l-88 500h202l58 -328h171l-58 328h202l58 -328h121l49 -275h-202z" />
    <glyph glyph-name="uni0447" unicode="&#x447;" horiz-adv-x="748" 
d="M526 0l-42 336h-7q2 -123 -45.5 -172.5t-166.5 -49.5q-75 1 -120 23.5t-78.5 87.5t-54.5 188l-16 87h202l13 -70q17 -96 48.5 -130t94.5 -34q60 0 89.5 56t14.5 140l1 -2l-7 40h202l88 -500h-216z" />
    <glyph glyph-name="uni0448" unicode="&#x448;" horiz-adv-x="1128" 
d="M134 0l-88 500h202l58 -328h171l-58 328h202l58 -328h171l-58 328h202l88 -500h-948z" />
    <glyph glyph-name="uni0449" unicode="&#x449;" horiz-adv-x="1180" 
d="M1011 -103l-18 103h-868l-88 500h202l58 -328h171l-58 328h202l58 -328h171l-58 328h202l58 -328h121l49 -275h-202z" />
    <glyph glyph-name="uni044A" unicode="&#x44a;" horiz-adv-x="840" 
d="M141 0l-92 528h-111l-29 172h312l47 -273h274q105 0 179.5 -55t92.5 -158q15 -91 -38.5 -152.5t-159.5 -61.5h-475zM315 162h248q57 0 49 52q-8 51 -67 51h-248z" />
    <glyph glyph-name="uni044B" unicode="&#x44b;" horiz-adv-x="1225" 
d="M151 0l-122 700h202l47 -273h274q105 0 179.5 -55t92.5 -158q15 -91 -38.5 -152.5t-159.5 -61.5h-475zM994 0l-122 700h202l122 -700h-202zM325 162h248q57 0 49 52q-8 51 -67 51h-248z" />
    <glyph glyph-name="uni044C" unicode="&#x44c;" horiz-adv-x="840" 
d="M141 0l-122 700h202l47 -273h274q105 0 179.5 -55t92.5 -158q15 -91 -38.5 -152.5t-159.5 -61.5h-475zM315 162h248q57 0 49 52q-8 51 -67 51h-248z" />
    <glyph glyph-name="uni044D" unicode="&#x44d;" horiz-adv-x="609" 
d="M569 250q21 -121 -44 -193.5t-200 -72.5q-70 0 -123.5 12.5t-124.5 41.5l-29 169q109 -61 218 -61q82 0 106 53h-191l-18 102h192q-40 53 -122 53q-107 0 -200 -62l-30 170q108 54 227 54q140 0 229 -71.5t110 -194.5z" />
    <glyph glyph-name="uni044E" unicode="&#x44e;" horiz-adv-x="982" 
d="M942 250q21 -120 -54 -193t-220 -73q-116 0 -206 48t-133 132h-62l29 -164h-202l-88 500h202l29 -164h62q14 84 86.5 132t188.5 48q145 0 246 -73t122 -193zM640 146q58 0 88 28.5t22 75.5q-8 46 -49 75t-99 29t-88 -28.5t-22 -75.5q8 -46 49 -75t99 -29z" />
    <glyph glyph-name="uni044F" unicode="&#x44f;" horiz-adv-x="811" 
d="M74 0q70 113 129 153.5t169 45.5h-57q-119 0 -178.5 36.5t-73.5 119.5q-14 78 32.5 111.5t166.5 33.5h415l88 -500h-202l-28 162h-38q-43 0 -78.5 -28t-106.5 -134h-238zM415 285h99l-16 93h-99h-6q-43 0 -61 -0.5t-37.5 -4.5t-24.5 -12.5t-2 -24.5q6 -35 35.5 -43
t111.5 -8z" />
    <glyph glyph-name="uni0451" unicode="&#x451;" horiz-adv-x="682" 
d="M142 538q-44 0 -80 23.5t-49 61.5t6 61.5t63 23.5q47 0 81 -23t48 -62t-4 -62t-65 -23zM432 538q-44 0 -80 23.5t-49 61.5t6 61.5t63 23.5q47 0 81 -23t48 -62t-4 -62t-65 -23zM388 -16q-136 0 -231.5 73t-116.5 193t48.5 193t205.5 73q134 0 227.5 -62.5t113.5 -164.5
l14 -82h-402q40 -68 163 -68q35 0 63 2.5t54 10.5t36 11.5t37.5 16.5t29.5 14l29 -161q-65 -26 -120 -37.5t-151 -11.5zM229 277l212 5q-9 36 -42 54t-77 18q-40 0 -65.5 -19.5t-27.5 -57.5z" />
    <glyph glyph-name="Wgrave" unicode="&#x1e80;" horiz-adv-x="1281" 
d="M579 744l-317 164l-18 102l321 -186zM345 0l-381 700h229l218 -416l54 416h229l200 -416l72 416h229l-137 -700h-242l-175 350l-54 -350h-242z" />
    <glyph glyph-name="wgrave" unicode="&#x1e81;" horiz-adv-x="1121" 
d="M510 544l-317 164l-18 102l321 -186zM283 0l-302 500h209l161 -270l61 270h199l165 -276l67 276h209l-126 -500h-222l-146 250l-53 -250h-222z" />
    <glyph glyph-name="Wacute" unicode="&#x1e82;" horiz-adv-x="1281" 
d="M549 744l-14 80l253 186l18 -102zM345 0l-381 700h229l218 -416l54 416h229l200 -416l72 416h229l-137 -700h-242l-175 350l-54 -350h-242z" />
    <glyph glyph-name="wacute" unicode="&#x1e83;" horiz-adv-x="1121" 
d="M480 544l-14 80l253 186l18 -102zM283 0l-302 500h209l161 -270l61 270h199l165 -276l67 276h209l-126 -500h-222l-146 250l-53 -250h-222z" />
    <glyph glyph-name="Wdieresis" unicode="&#x1e84;" horiz-adv-x="1281" 
d="M432 738q-44 0 -75.5 23.5t-38.5 61.5t16.5 61.5t67.5 23.5q47 0 77 -23t37 -62t-15 -62t-69 -23zM722 738q-44 0 -75.5 23.5t-38.5 61.5t16.5 61.5t67.5 23.5q47 0 77 -23t37 -62t-15 -62t-69 -23zM345 0l-381 700h229l218 -416l54 416h229l200 -416l72 416h229
l-137 -700h-242l-175 350l-54 -350h-242z" />
    <glyph glyph-name="wdieresis" unicode="&#x1e85;" horiz-adv-x="1121" 
d="M357 538q-44 0 -75.5 23.5t-38.5 61.5t16.5 61.5t67.5 23.5q47 0 77 -23t37 -62t-15 -62t-69 -23zM647 538q-44 0 -75.5 23.5t-38.5 61.5t16.5 61.5t67.5 23.5q47 0 77 -23t37 -62t-15 -62t-69 -23zM283 0l-302 500h209l161 -270l61 270h199l165 -276l67 276h209
l-126 -500h-222l-146 250l-53 -250h-222z" />
    <glyph glyph-name="Ygrave" unicode="&#x1ef2;" horiz-adv-x="1070" 
d="M473 744l-317 164l-18 102l321 -186zM495 0l-39 226l-492 474h249l315 -311l207 311h249l-326 -472l39 -228h-202z" />
    <glyph glyph-name="ygrave" unicode="&#x1ef3;" horiz-adv-x="806" 
d="M351 544l-317 164l-18 102l321 -186zM245 -200l75 211l-356 489h232l196 -280l99 280h229l-247 -700h-228z" />
    <glyph glyph-name="endash" unicode="&#x2013;" horiz-adv-x="560" 
d="M46 244l-32 173h500l32 -173h-500z" />
    <glyph glyph-name="emdash" unicode="&#x2014;" horiz-adv-x="1060" 
d="M46 244l-32 173h1000l32 -173h-1000z" />
    <glyph glyph-name="quoteleft" unicode="&#x2018;" horiz-adv-x="293" 
d="M239 700l-15 -270h-170l65 270h120z" />
    <glyph glyph-name="quoteright" unicode="&#x2019;" horiz-adv-x="293" 
d="M54 430l15 270h170l-65 -270h-120z" />
    <glyph glyph-name="quotesinglbase" unicode="&#x201a;" horiz-adv-x="293" 
d="M54 -169l15 270h170l-65 -270h-120z" />
    <glyph glyph-name="quotedblleft" unicode="&#x201c;" horiz-adv-x="515" 
d="M239 700l-15 -270h-170l65 270h120zM461 700l-15 -270h-170l65 270h120z" />
    <glyph glyph-name="quotedblright" unicode="&#x201d;" horiz-adv-x="515" 
d="M54 430l15 270h170l-65 -270h-120zM276 430l15 270h170l-65 -270h-120z" />
    <glyph glyph-name="quotedblbase" unicode="&#x201e;" horiz-adv-x="293" 
d="M69 101h170l-65 -270h-120z" />
    <glyph glyph-name="dagger" unicode="&#x2020;" horiz-adv-x="580" 
d="M268 -170l-88 496h-159l-31 173h159l-39 221h202l39 -221h159l31 -173h-159l88 -496h-202z" />
    <glyph glyph-name="daggerdbl" unicode="&#x2021;" horiz-adv-x="600" 
d="M268 -170l-30 170h-159l-31 173h159l-27 153h-159l-31 173h159l-39 221h202l39 -221h159l31 -173h-159l27 -153h159l31 -173h-159l30 -170h-202z" />
    <glyph glyph-name="bullet" unicode="&#x2022;" horiz-adv-x="647" 
d="M371 75q-136 0 -227 73.5t-115 205.5q-23 133 42 206.5t201 73.5q137 0 229.5 -74t115.5 -206q23 -133 -41 -206t-205 -73z" />
    <glyph glyph-name="ellipsis" unicode="&#x2026;" horiz-adv-x="905" 
d="M161 -10q-52 0 -87 28t-44 79t16 79t77 28t87.5 -28t44.5 -79t-15.5 -79t-78.5 -28zM461 -10q-52 0 -87 28t-44 79t16 79t77 28t87.5 -28t44.5 -79t-15.5 -79t-78.5 -28zM761 -10q-52 0 -87 28t-44 79t16 79t77 28t87.5 -28t44.5 -79t-15.5 -79t-78.5 -28z" />
    <glyph glyph-name="perthousand" unicode="&#x2030;" horiz-adv-x="1519" 
d="M239 460q-86 0 -153.5 35t-77.5 90q-9 55 46 90t141 35q93 0 157.5 -34.5t73.5 -90.5q10 -56 -42 -90.5t-145 -34.5zM171 0l566 700h141l-566 -700h-141zM228 522q34 0 52.5 16.5t11.5 46.5q-12 63 -85 63q-33 0 -51 -16.5t-13 -46.5q6 -30 29 -46.5t56 -16.5zM844 -10
q-87 0 -154.5 35t-76.5 90q-10 55 45 90t142 35q93 0 157 -34.5t74 -90.5q9 -56 -42.5 -90.5t-144.5 -34.5zM1324 -10q-87 0 -154.5 35t-76.5 90q-10 55 45 90t142 35q93 0 157 -34.5t74 -90.5q9 -56 -42.5 -90.5t-144.5 -34.5zM832 52q33 0 51.5 16.5t13.5 46.5
q-13 63 -86 63q-33 0 -51 -16.5t-12 -46.5q5 -30 28 -46.5t56 -16.5zM1312 52q33 0 51.5 16.5t13.5 46.5q-13 63 -86 63q-33 0 -51 -16.5t-12 -46.5q5 -30 28 -46.5t56 -16.5z" />
    <glyph glyph-name="guilsinglleft" unicode="&#x2039;" horiz-adv-x="506" 
d="M280 0l-250 250l162 250h240l-170 -250l258 -250h-240z" />
    <glyph glyph-name="guilsinglright" unicode="&#x203a;" horiz-adv-x="506" 
d="M74 0l170 250l-258 250h240l250 -250l-162 -250h-240z" />
    <glyph glyph-name="fraction" unicode="&#x2044;" horiz-adv-x="1083" 
d="M40 -100l832 900h171l-832 -900h-171z" />
    <glyph glyph-name="Euro" unicode="&#x20ac;" horiz-adv-x="1017" 
d="M992 305q25 -145 -75.5 -233t-290.5 -88q-151 0 -268.5 65t-176.5 179h-130l-18 103h111q-2 5 -4 19l-3 21h-110l-18 103h129q20 113 115 177.5t245 64.5q190 0 321.5 -88t156.5 -233h-204q-19 74 -84 111.5t-160 37.5q-122 0 -168 -70h279l18 -103h-318l3 -21
q2 -14 4 -19h317l18 -103h-280q71 -72 195 -72q95 0 147 37.5t45 111.5h204z" />
    <glyph glyph-name="trademark" unicode="&#x2122;" horiz-adv-x="1308" 
d="M317 222l-62 361h-213l-20 117h563l19 -117h-211l62 -361h-138zM711 222l-83 478h110l241 -285l141 285h110l84 -478h-138l-40 227l-109 -227h-29l-188 228l39 -228h-138z" />
    <glyph glyph-name="oneeighth" unicode="&#x215b;" horiz-adv-x="1704" 
d="M420 -22l688 744h141l-688 -744h-141zM321 161l-65 368l-213 -149l-24 138l260 121h97l83 -478h-138zM1432 47q-126 -2 -206.5 35.5t-92.5 103.5q-16 93 144 110q-38 6 -70.5 17.5t-63.5 38.5t-37 65q-11 63 53.5 97t185.5 34q113 0 193 -33.5t91 -97.5q9 -54 -30 -82.5
t-98 -38.5q166 -17 183 -110q11 -66 -59.5 -103.5t-192.5 -35.5zM1378 353q34 0 58.5 3t35.5 7.5t17.5 10t5.5 11.5t-1 11q-7 41 -130 41q-122 0 -116 -41q2 -13 6.5 -19.5t35 -15t88.5 -8.5zM1413 158q70 0 101.5 10t28.5 30q-4 21 -31 31t-113 10q-60 0 -90 -5.5
t-36 -13.5t-3 -22q6 -40 143 -40z" />
    <glyph glyph-name="threeeighths" unicode="&#x215c;" horiz-adv-x="1711" 
d="M416 -22l688 744h141l-688 -744h-141zM307 150q-143 2 -228 30l-21 118q75 -30 222 -30q157 0 150 35q-5 26 -76.5 39t-280.5 23l-12 69q148 7 221.5 16.5t88 17.5t12.5 22q-4 23 -50.5 33t-100.5 10q-55 0 -117 -8t-93 -22l-20 117q80 31 217 31q61 0 105 -4.5t86 -18
t67 -40.5t33 -68q5 -28 -6 -49.5t-34.5 -33t-45.5 -19t-53 -10t-41.5 -3t-24.5 -0.5l1 -6q1 0 25 -0.5t41 -2t45.5 -5t49.5 -11t43 -19t36 -30t18 -42.5q8 -42 -7 -70.5t-52 -43t-84 -20t-114 -5.5zM1439 44q-126 -2 -206.5 35.5t-92.5 103.5q-16 93 144 110
q-38 6 -70.5 17.5t-63.5 38.5t-37 65q-11 63 53.5 97t185.5 34q113 0 193 -33.5t91 -97.5q9 -54 -30 -82.5t-98 -38.5q166 -17 183 -110q11 -66 -59.5 -103.5t-192.5 -35.5zM1385 350q34 0 58.5 3t35.5 7.5t17.5 10t5.5 11.5t-1 11q-7 41 -130 41q-122 0 -116 -41
q2 -13 6.5 -19.5t35 -15t88.5 -8.5zM1420 155q70 0 101.5 10t28.5 30q-4 21 -31 31t-113 10q-60 0 -90 -5.5t-36 -13.5t-3 -22q6 -40 143 -40z" />
    <glyph glyph-name="fiveeighths" unicode="&#x215d;" horiz-adv-x="1751" 
d="M460 -22l688 744h141l-688 -744h-141zM300 147q-52 0 -120 7.5t-101 20.5l-23 125q29 -12 100.5 -23t120.5 -11q73 0 108.5 10t31.5 36q-6 30 -37.5 43.5t-100.5 13.5q-35 0 -72.5 -4t-79.5 -10.5t-52 -7.5l-51 289h447l21 -117h-342l13 -76q64 25 149 25q216 0 243 -156
q13 -78 -56.5 -121.5t-198.5 -43.5zM1479 44q-126 -2 -206.5 35.5t-92.5 103.5q-16 93 144 110q-38 6 -70.5 17.5t-63.5 38.5t-37 65q-11 63 53.5 97t185.5 34q113 0 193 -33.5t91 -97.5q9 -54 -30 -82.5t-98 -38.5q166 -17 183 -110q11 -66 -59.5 -103.5t-192.5 -35.5z
M1425 350q34 0 58.5 3t35.5 7.5t17.5 10t5.5 11.5t-1 11q-7 41 -130 41q-122 0 -116 -41q2 -13 6.5 -19.5t35 -15t88.5 -8.5zM1460 155q70 0 101.5 10t28.5 30q-4 21 -31 31t-113 10q-60 0 -90 -5.5t-36 -13.5t-3 -22q6 -40 143 -40z" />
    <glyph glyph-name="seveneighths" unicode="&#x215e;" horiz-adv-x="1618" 
d="M314 -22l688 744h141l-688 -744h-141zM103 158l239 361h-337l-20 117h553l11 -61l-253 -417h-193zM1346 44q-126 -2 -206.5 35.5t-92.5 103.5q-16 93 144 110q-38 6 -70.5 17.5t-63.5 38.5t-37 65q-11 63 53.5 97t185.5 34q113 0 193 -33.5t91 -97.5q9 -54 -30 -82.5
t-98 -38.5q166 -17 183 -110q11 -66 -59.5 -103.5t-192.5 -35.5zM1292 350q34 0 58.5 3t35.5 7.5t17.5 10t5.5 11.5t-1 11q-7 41 -130 41q-122 0 -116 -41q2 -13 6.5 -19.5t35 -15t88.5 -8.5zM1327 155q70 0 101.5 10t28.5 30q-4 21 -31 31t-113 10q-60 0 -90 -5.5
t-36 -13.5t-3 -22q6 -40 143 -40z" />
    <glyph glyph-name="arrowleft" unicode="&#x2190;" horiz-adv-x="830" 
d="M800 243h-504l140 -164l-200 1l-206 250l206 250h200l-140 -164h504v-173z" />
    <glyph glyph-name="arrowup" unicode="&#x2191;" horiz-adv-x="561" 
d="M194 -58v504l-164 -140l1 200l250 206l250 -206v-200l-164 140v-504h-173z" />
    <glyph glyph-name="arrowright" unicode="&#x2192;" horiz-adv-x="830" 
d="M30 417h504l-140 164l200 -1l206 -250l-206 -250h-200l140 164h-504v173z" />
    <glyph glyph-name="arrowdown" unicode="&#x2193;" horiz-adv-x="561" 
d="M367 699v-504l164 140l-1 -200l-250 -206l-250 206v200l164 -140v504h173z" />
    <glyph glyph-name="partialdiff" unicode="&#x2202;" horiz-adv-x="836" 
d="M463 -12q-169 0 -276 60.5t-129 163.5q-23 112 45.5 180t230.5 68q161 0 274 -117q-19 113 -109 189t-197 76l-26 147q197 0 349 -110.5t182 -282.5q33 -186 -60.5 -280t-283.5 -94zM443 160q133 0 161 110q-108 45 -220 45q-68 0 -101 -20.5t-27 -57.5q7 -38 59 -57.5
t128 -19.5z" />
    <glyph glyph-name="emptyset" unicode="&#x2205;" horiz-adv-x="702" 
d="M601 407q64 -64 81 -157q21 -120 -54 -193t-220 -73q-107 0 -193 42l-107 -106l-90 80l98 97q-61 66 -76 153q-21 120 54 193t220 73q100 0 186 -38l100 98l95 -76zM232 250q3 -16 9 -29l132 131q-20 2 -31 2q-58 0 -88 -28.5t-22 -75.5zM380 146q58 0 88 28.5t22 75.5
q-3 18 -12 35l-137 -135q16 -4 39 -4z" />
    <glyph glyph-name="product" unicode="&#x220f;" horiz-adv-x="790" 
d="M185 -170l-122 697h-79l-30 173h730l30 -173h-79l122 -697h-202l-122 697h-168l122 -697h-202z" />
    <glyph glyph-name="summation" unicode="&#x2211;" horiz-adv-x="790" 
d="M91 0l-30 173l270 167l-332 187l-30 173h730l30 -173h-458l332 -187l-270 -167h458l30 -173h-730z" />
    <glyph glyph-name="minus" unicode="&#x2212;" horiz-adv-x="580" 
d="M46 244l-32 173h520l32 -173h-520z" />
    <glyph glyph-name="radical" unicode="&#x221a;" horiz-adv-x="1109" 
d="M330 0l-351 501h219l222 -316l180 515h418l30 -173h-290l-186 -527h-242z" />
    <glyph glyph-name="infinity" unicode="&#x221e;" horiz-adv-x="988" 
d="M319 77q-109 0 -191 68t-98 160q-16 95 43 165.5t166 70.5q95 0 157.5 -44.5t85.5 -122.5q-5 79 43.5 123t141.5 44q107 0 191 -71t100 -165q16 -92 -41 -160t-166 -68q-97 0 -159.5 41t-84.5 116q4 -75 -43.5 -116t-144.5 -41zM304 222q39 4 56 26.5t10 56.5
q-5 36 -32.5 58.5t-70.5 22.5q-38 0 -58.5 -23.5t-15.5 -57.5q7 -37 38.5 -61.5t72.5 -21.5zM716 222q41 -3 63.5 21.5t15.5 61.5q-5 34 -33.5 57.5t-66.5 23.5q-42 0 -62 -22.5t-15 -58.5q7 -34 32.5 -56.5t65.5 -26.5z" />
    <glyph glyph-name="integral" unicode="&#x222b;" horiz-adv-x="712" 
d="M87 -140l2 58q46 0 81 25t37 59l34 587q11 142 384 142l-2 -58q-46 0 -81 -24.5t-37 -59.5l-34 -587q-11 -142 -384 -142z" />
    <glyph glyph-name="approxequal" unicode="&#x2248;" horiz-adv-x="441" 
d="M284 310q-31 0 -59 18t-50 36t-38 18q-28 0 -41.5 -18t-7.5 -53h-61q-10 58 18 94t82 36q34 0 79 -36t68 -36q29 0 43 18t7 53h60q10 -59 -18 -94.5t-82 -35.5zM314 140q-31 0 -59 18t-50 36t-38 18q-28 0 -41.5 -18t-7.5 -53h-61q-10 58 18 94t82 36q34 0 79 -36t68 -36
q29 0 43 18t7 53h60q10 -59 -18 -94.5t-82 -35.5z" />
    <glyph glyph-name="notequal" unicode="&#x2260;" horiz-adv-x="580" 
d="M87 20l36 94h-56l-31 173h152l31 80h-198l-30 173h294l30 80h171l-30 -80h55l30 -173h-151l-31 -80h197l31 -173h-293l-36 -94h-171z" />
    <glyph glyph-name="lessequal" unicode="&#x2264;" horiz-adv-x="600" 
d="M286 204l-274 141l224 141h291l-234 -141l284 -141h-291zM96 0l-23 133h520l23 -133h-520z" />
    <glyph glyph-name="greaterequal" unicode="&#x2265;" horiz-adv-x="600" 
d="M40 204l234 141l-284 141h291l274 -141l-224 -141h-291zM73 0l-23 133h520l23 -133h-520z" />
    <glyph glyph-name="lozenge" unicode="&#x25ca;" horiz-adv-x="726" 
d="M280 0l-250 250l162 250h254l250 -250l-162 -250h-254zM384 132l80 118l-122 118l-80 -118z" />
    <glyph glyph-name="A.001" horiz-adv-x="1105" 
d="M86 0l257 700h297l501 -700h-229l-79 118h-479l-39 -118h-229zM408 290h309l-209 310z" />
    <glyph glyph-name="B.001" horiz-adv-x="926" 
d="M141 0l-122 700h535q106 0 174 -51t83 -134q14 -80 -38 -115t-160 -35h-42l4 -20h63q106 0 173 -39t81 -120q14 -84 -39 -135t-155 -51h-557zM268 435h297q28 0 41.5 10t8.5 36q-8 47 -67 47h-297zM315 173h318q58 0 49 49q-9 54 -67 54h-319z" />
    <glyph glyph-name="C.001" horiz-adv-x="847" 
d="M576 -16q-224 0 -365 99t-171 267t77 267t331 99q174 -1 304 -54l32 -182q-137 64 -306 64q-136 0 -194.5 -48.5t-41.5 -145.5q33 -194 304 -194q168 0 284 64l32 -182q-112 -53 -286 -54z" />
    <glyph glyph-name="G.001" horiz-adv-x="927" 
d="M586 -16q-224 0 -365 99t-171 267t77 267t331 99q215 -2 344 -54l32 -182q-61 28 -159.5 46t-186.5 18q-136 0 -194.5 -48.5t-41.5 -145.5q33 -194 304 -194q79 0 183 16l-17 92h-328l-28 163h498l65 -369q-94 -74 -343 -74z" />
    <glyph glyph-name="J.001" horiz-adv-x="722" 
d="M363 -16q-175 1 -305 54l-34 192q162 -74 309 -74q67 0 96 42.5t11 140.5l-63 361h202l63 -361q64 -355 -279 -355z" />
    <glyph glyph-name="K.001" horiz-adv-x="972" 
d="M141 0l-122 700h202l57 -331l251 331h300l-221 -239l395 -461h-281l-253 312q-37 -37 -84.5 -73t-74.5 -49l33 -190h-202z" />
    <glyph glyph-name="R.001" horiz-adv-x="931" 
d="M141 0l-122 700h565q106 0 174 -51t83 -134q14 -83 -38.5 -129.5t-155.5 -46.5h-105l3 -21q99 0 168 -31t126 -94t143 -193h-266q-129 175 -165 214q-54 57 -110 65q-17 3 -38 3h-110l50 -282h-202zM266 435h329q29 0 41 12t8 39q-8 52 -67 52h-330z" />
    <glyph glyph-name="S.001" horiz-adv-x="879" 
d="M492 -15q-107 1 -211 24.5t-163 49.5l-34 185q63 -30 173 -58.5t194 -28.5q116 0 164.5 19.5t42.5 57.5q-5 25 -40 36t-87.5 12t-116.5 1t-129 8t-121 27t-97 63.5t-53 112.5q-10 59 15 103t77 69t117.5 37t144.5 12q227 -2 356 -54l33 -182q-61 28 -164.5 46t-183.5 18
q-99 0 -146.5 -19t-42.5 -49q4 -21 38.5 -30.5t87 -11t116.5 -2t129 -10t121.5 -29t97 -64.5t52.5 -112q12 -66 -16.5 -113.5t-87 -72t-124.5 -35t-142 -10.5z" />
    <glyph glyph-name="i.loclTRK" horiz-adv-x="228" 
d="M45 536q-44 0 -80 23.5t-49 61.5t6 61.5t63 23.5q47 0 81 -23t48 -62t-4 -62t-65 -23zM57 0l-88 500h202l88 -500h-202z" />
    <glyph glyph-name="c.001" horiz-adv-x="682" 
d="M388 -16q-136 0 -231.5 73t-116.5 193t48.5 193t205.5 73q135 0 229 -65t113 -172h-204q-12 32 -42 52t-67 20q-44 0 -66.5 -27.5t-14.5 -73.5t40.5 -73.5t76.5 -27.5q39 0 62 22t21 58h203q20 -110 -50.5 -177.5t-206.5 -67.5z" />
    <glyph glyph-name="e.001" horiz-adv-x="685" 
d="M388 -16q-136 0 -231.5 73t-116.5 193t48.5 193t205.5 73q134 0 227.5 -62.5t113.5 -164.5l14 -82h-394q32 -68 115 -68q42 0 62.5 10t17.5 26h208q17 -93 -58 -142t-212 -49zM240 277l191 4q-9 38 -38 59t-71 21q-39 0 -61 -22t-21 -62z" />
    <glyph glyph-name="g.001" horiz-adv-x="803" 
d="M465 -200q-155 0 -252 51.5t-112 138.5h202q5 -23 40 -36.5t88 -13.5q92 0 113.5 39.5t1.5 154.5q-12 -64 -70.5 -97t-147.5 -33q-115 0 -194.5 65.5t-100.5 184.5q-20 118 36.5 190t170.5 72q90 0 164 -49t105 -129h13l-45 162h203l81 -440q21 -124 -52.5 -192
t-243.5 -68zM384 146q59 0 96 26.5t28 79.5q-10 52 -55.5 77t-104.5 25t-95.5 -25t-26.5 -77q9 -53 54.5 -79.5t103.5 -26.5z" />
    <glyph glyph-name="zero.tf" horiz-adv-x="945" 
d="M536 -16q-202 0 -334 99.5t-162 266.5q-29 166 69.5 266t298.5 100q203 0 335 -98.5t162 -267.5q30 -167 -68 -266.5t-301 -99.5zM533 11q197 0 284 92.5t61 246.5q-26 153 -147 246t-318 93q-190 0 -280.5 -93.5t-65.5 -245.5q25 -151 150 -245t316 -94zM512 123
q-126 0 -211 62t-103 165t45 165.5t190 62.5t211.5 -62t102.5 -166q19 -103 -44.5 -165t-190.5 -62zM493 230q72 0 105.5 30.5t23.5 89.5t-54.5 90t-116.5 31q-71 0 -104.5 -31t-23.5 -90t54.5 -89.5t115.5 -30.5z" />
    <glyph glyph-name="one.tf" horiz-adv-x="945" 
d="M536 -16q-202 0 -334 99.5t-162 266.5q-29 166 69.5 266t298.5 100q203 0 335 -98.5t162 -267.5q30 -167 -68 -266.5t-301 -99.5zM532 11q197 0 284 92.5t61 246.5q-26 153 -147 246t-318 93q-190 0 -280.5 -93.5t-65.5 -245.5q25 -151 150 -245t316 -94zM487 133
l-59 335l-194 -136l-22 125l237 111h88l75 -435h-125z" />
    <glyph glyph-name="two.tf" horiz-adv-x="945" 
d="M536 -16q-202 0 -334 99.5t-162 266.5q-30 165 69.5 265.5t298.5 100.5q203 0 335 -98.5t162 -267.5q30 -167 -68 -266.5t-301 -99.5zM532 11q197 0 284 92.5t61 246.5q-26 153 -147 246t-318 93q-190 0 -280.5 -93.5t-65.5 -245.5q25 -151 150 -245t316 -94zM284 136
l-16 86q33 17 88.5 43t92 44t74 39t55 40t14.5 36q-4 26 -35 36.5t-97 10.5q-46 0 -114 -8.5t-86 -16.5l-20 112q60 20 207 22q128 1 190.5 -26.5t76.5 -103.5q6 -36 -12 -67t-49 -52t-77 -39.5t-86 -29t-86 -19.5h327l20 -107h-467z" />
    <glyph glyph-name="three.tf" horiz-adv-x="945" 
d="M536 -16q-202 0 -334 99.5t-162 266.5q-30 165 69.5 265.5t298.5 100.5q203 0 335 -98.5t162 -267.5q30 -167 -68 -266.5t-301 -99.5zM532 11q197 0 284 92.5t61 246.5q-26 153 -147 246t-318 93q-190 0 -280.5 -93.5t-65.5 -245.5q25 -151 150 -245t316 -94zM517 123
q-131 2 -207 27l-19 107q67 -27 202 -27q142 0 136 32q-5 23 -70 35t-255 21l-11 63q82 4 139 8.5t87.5 9t46 10.5t18.5 11t2 12q-3 21 -45.5 30t-92.5 9q-128 0 -190 -28l-18 107q71 28 197 28q56 0 95.5 -4t78 -16t61.5 -36.5t29 -62.5q4 -25 -5.5 -44.5t-31 -30
t-41.5 -17.5t-48 -9t-37.5 -2.5t-22.5 -0.5l1 -6h17t25.5 -0.5t30 -2t34.5 -4.5t34 -7.5t33 -12t27.5 -17.5t22 -24.5t11.5 -31.5q13 -73 -47.5 -100t-186.5 -26z" />
    <glyph glyph-name="four.tf" horiz-adv-x="945" 
d="M536 -16q-202 0 -334 99.5t-162 266.5q-30 165 69.5 265.5t298.5 100.5q203 0 335 -98.5t162 -267.5q30 -167 -68 -266.5t-301 -99.5zM532 11q197 0 284 92.5t61 246.5q-26 153 -147 246t-318 93q-190 0 -280.5 -93.5t-65.5 -245.5q25 -151 150 -245t316 -94zM567 133
l-12 68h-336l-15 83l225 284h187l46 -261h55l19 -106h-56l12 -68h-125zM341 307h195l-38 218z" />
    <glyph glyph-name="five.tf" horiz-adv-x="945" 
d="M536 -16q-202 0 -334 99.5t-162 266.5q-30 165 69.5 265.5t298.5 100.5q203 0 335 -98.5t162 -267.5q30 -167 -68 -266.5t-301 -99.5zM532 11q197 0 284 92.5t61 246.5q-26 153 -147 246t-318 93q-190 0 -280.5 -93.5t-65.5 -245.5q25 -151 150 -245t316 -94zM493 119
q-48 0 -110 7t-92 19l-20 113q28 -11 92.5 -21t108.5 -10q65 0 98 9.5t29 32.5q-10 52 -126 52q-53 0 -185 -21l-46 264h406l19 -107h-310l11 -68q62 22 136 22q195 0 220 -142q13 -71 -51 -110.5t-180 -39.5z" />
    <glyph glyph-name="six.tf" horiz-adv-x="945" 
d="M536 -16q-202 0 -334 99.5t-162 266.5q-30 165 69.5 265.5t298.5 100.5q203 0 335 -98.5t162 -267.5q30 -167 -68 -266.5t-301 -99.5zM532 11q197 0 284 92.5t61 246.5q-26 153 -147 246t-318 93q-190 0 -280.5 -93.5t-65.5 -245.5q25 -151 150 -245t316 -94zM523 126
q-118 0 -196.5 58t-98.5 174q-19 105 45 162t189 57q102 0 182 -36l20 -115q-86 44 -181 44q-70 0 -104.5 -29t-25.5 -83l1 -3q54 64 147 64q100 0 157.5 -42.5t67.5 -111.5q9 -64 -44.5 -101.5t-158.5 -37.5zM499 232q48 0 75 12t23 36q-9 49 -96 49q-67 0 -127 -28
q41 -69 125 -69z" />
    <glyph glyph-name="seven.tf" horiz-adv-x="945" 
d="M536 -16q-202 0 -334 99.5t-162 266.5q-30 165 69.5 265.5t298.5 100.5q203 0 335 -98.5t162 -267.5q30 -167 -68 -266.5t-301 -99.5zM532 11q197 0 284 92.5t61 246.5q-26 153 -147 246t-318 93q-190 0 -280.5 -93.5t-65.5 -245.5q25 -151 150 -245t316 -94zM322 133
l217 328h-307l-18 107h503l10 -56l-230 -379h-175z" />
    <glyph glyph-name="eight.tf" horiz-adv-x="945" 
d="M537 -16q-202 0 -334 99.5t-162 266.5q-30 165 69.5 265.5t298.5 100.5q203 0 335 -98.5t162 -267.5q30 -167 -68 -266.5t-301 -99.5zM534 11q197 0 284 92.5t61 246.5q-26 153 -147 246t-318 93q-190 0 -280.5 -93.5t-65.5 -245.5q25 -151 150 -245t316 -94zM513 120
q-116 -2 -189 31.5t-83 94.5q-5 26 5.5 45t32.5 30t43.5 16.5t48.5 8.5q-56 9 -101 34.5t-54 74.5q-10 58 48.5 89t168.5 31q103 0 176 -31t82 -89q9 -49 -27 -74.5t-89 -34.5q151 -17 166 -100q10 -60 -54 -94t-174 -32zM464 398q31 0 52.5 2.5t31.5 6.5t16 9.5t5 10.5
t-1 10q-5 37 -118 37q-111 0 -105 -37q1 -7 2 -10.5t8 -10t18.5 -9.5t34.5 -6t56 -3zM495 220q63 0 92 9t26 27q-2 13 -10 20t-37.5 12.5t-83.5 5.5t-81.5 -5.5t-33 -12.5t-2.5 -20q6 -36 130 -36z" />
    <glyph glyph-name="nine.tf" horiz-adv-x="945" 
d="M536 -16q-202 0 -334 99.5t-162 266.5q-30 165 69.5 265.5t298.5 100.5q203 0 335 -98.5t162 -267.5q30 -167 -68 -266.5t-301 -99.5zM533 11q197 0 284 92.5t61 246.5q-26 153 -147 246t-318 93q-190 0 -280.5 -93.5t-65.5 -245.5q25 -151 150 -245t316 -94zM451 576
q118 0 196.5 -58.5t98.5 -173.5q19 -105 -45.5 -162t-188.5 -57q-102 0 -182 36l-20 115q86 -44 180 -44q71 0 105.5 29t25.5 83l-1 3q-54 -64 -147 -64q-100 0 -157.5 42.5t-67.5 111.5q-9 64 44.5 101.5t158.5 37.5zM475 470q-48 0 -75 -12t-23 -36q8 -49 95 -49
q66 0 128 28q-43 69 -125 69z" />
    <glyph glyph-name="dollar.001" horiz-adv-x="863" 
d="M394 -110l-19 102q-156 19 -266 67l-32 185q62 -30 172 -58.5t194 -28.5q116 0 165 19.5t41 57.5q-4 25 -39 36t-87.5 12t-116.5 1t-129 8t-121 27t-96.5 63.5t-52.5 112.5q-16 93 51.5 146.5t190.5 68.5l-23 126h202l23 -123q165 -11 266 -51l32 -182q-62 28 -165 46
t-183 18q-99 0 -146.5 -19t-42.5 -49q4 -25 50 -34.5t112 -7.5t145 -5t148 -22.5t121.5 -64t66.5 -125.5q10 -55 -9 -98t-61 -68.5t-93 -40t-114 -20.5l18 -99h-202z" />
    <glyph glyph-name="Euro.001" horiz-adv-x="927" 
d="M666 -16q-179 0 -307 64.5t-188 179.5h-120l-17 103h100l-4 19l-3 21h-100l-19 103h121q21 114 126 178t283 64q174 -1 304 -54l32 -182q-137 64 -306 64q-162 0 -215 -70h365l19 -103h-408l3 -21q2 -14 4 -19h408l17 -103h-366q77 -72 241 -72q168 0 284 64l32 -182
q-112 -53 -286 -54z" />
    <glyph glyph-name="brevecombcy" 
d="M-198 551q-93 0 -174.5 41t-117.5 108h105q46 -81 151 -81q49 0 67 20.5t0 60.5h103q36 -68 1 -108.5t-135 -40.5z" />
    </font>
</defs>
</svg>
