<?xml version="1.0" standalone="no"?>
<!DOCTYPE svg PUBLIC "-//W3C//DTD SVG 1.1//EN" "http://www.w3.org/Graphics/SVG/1.1/DTD/svg11.dtd" >
<svg xmlns="http://www.w3.org/2000/svg" xmlns:xlink="http://www.w3.org/1999/xlink" version="1.1">
<metadata>
Created by FontForge 20190801 at Tue Sep 12 15:50:22 2017
 By www-data
Copyright (c) 2017 by Good Type Foundry Kenneth Knutsen. All rights reserved.
</metadata>
<defs>
<font id="GoodTypeFoundryAdieuLightSlanted" horiz-adv-x="0" >
  <font-face 
    font-family="GoodTypeFoundryAdieuLightSlanted"
    font-weight="300"
    font-style="oblique"
    font-stretch="normal"
    units-per-em="1000"
    panose-1="0 0 4 0 0 0 0 0 0 0"
    ascent="800"
    descent="-200"
    x-height="500"
    cap-height="700"
    bbox="-1070 -532 1715.72 1021"
    underline-thickness="50"
    underline-position="-100"
    unicode-range="U+0020-25CA"
  />
<missing-glyph horiz-adv-x="843" 
d="M422 -11q-151 0 -256.5 107t-105.5 255q0 147 106.5 254t255.5 107q147 0 254 -106t107 -255q0 -150 -107 -256t-254 -106zM422 63q119 0 203 84t84 204t-84 203.5t-203 83.5q-120 0 -204 -83.5t-84 -203.5t84 -204t204 -84zM329 394q-28 0 -47 18.5t-19 45.5
q0 26 19 44.5t47 18.5q26 0 45 -18.5t19 -44.5q0 -27 -19 -45.5t-45 -18.5zM521 394q-27 0 -45 18.5t-18 45.5q0 26 18 44.5t45 18.5t46 -18.5t19 -44.5q0 -27 -19 -45.5t-46 -18.5zM422 151q-94 0 -156 51.5t-62 136.5l64 9q4 -46 40 -80t114 -34q77 0 114.5 34.5
t39.5 79.5l63 -9q0 -85 -63 -136.5t-154 -51.5z" />
    <glyph glyph-name=".notdef" horiz-adv-x="843" 
d="M422 -11q-151 0 -256.5 107t-105.5 255q0 147 106.5 254t255.5 107q147 0 254 -106t107 -255q0 -150 -107 -256t-254 -106zM422 63q119 0 203 84t84 204t-84 203.5t-203 83.5q-120 0 -204 -83.5t-84 -203.5t84 -204t204 -84zM329 394q-28 0 -47 18.5t-19 45.5
q0 26 19 44.5t47 18.5q26 0 45 -18.5t19 -44.5q0 -27 -19 -45.5t-45 -18.5zM521 394q-27 0 -45 18.5t-18 45.5q0 26 18 44.5t45 18.5t46 -18.5t19 -44.5q0 -27 -19 -45.5t-46 -18.5zM422 151q-94 0 -156 51.5t-62 136.5l64 9q4 -46 40 -80t114 -34q77 0 114.5 34.5
t39.5 79.5l63 -9q0 -85 -63 -136.5t-154 -51.5z" />
    <glyph glyph-name=".null" 
 />
    <glyph glyph-name="nonmarkingreturn" horiz-adv-x="333" 
 />
    <glyph glyph-name="space" unicode=" " horiz-adv-x="300" 
 />
    <glyph glyph-name="exclam" unicode="!" horiz-adv-x="258" 
d="M64 294l61 406h135l-81 -406h-115zM66 -18q-26 0 -43 19t-12 44q4 26 28 44.5t50 18.5q27 0 44 -18.5t13 -44.5q-5 -26 -28.5 -44.5t-51.5 -18.5z" />
    <glyph glyph-name="quotedbl" unicode="&#x22;" horiz-adv-x="358" 
d="M23 430l31 270h114l-81 -270h-64zM207 430l31 270h114l-81 -270h-64z" />
    <glyph glyph-name="numbersign" unicode="#" horiz-adv-x="1009" 
d="M94 0l72 183h-165l27 82h170l60 153h-179l27 82h184l79 200h126l-79 -200h317l79 200h126l-79 -200h146l-27 -82h-151l-60 -153h160l-27 -82h-165l-72 -183h-126l72 183h-317l-72 -183h-126zM324 265h317l60 153h-317z" />
    <glyph glyph-name="dollar" unicode="$" horiz-adv-x="863" 
d="M824 479h-115q13 64 -49 103t-170 41q-266 3 -287 -107q-7 -37 24.5 -57.5t87.5 -28.5t124.5 -12.5t135.5 -15t120.5 -30t80.5 -64t14 -111.5q-18 -91 -110 -144.5t-236 -65.5l-17 -97h-157l17 98q-140 13 -211 76t-54 157h115q-12 -65 51.5 -104t174.5 -40
q290 -2 315 115q9 43 -21.5 68t-86 34t-124.5 14t-137 13t-122.5 25t-83 56.5t-16.5 101.5q17 91 104.5 144.5t223.5 64.5l21 122h157l-21 -124q131 -15 199 -77t53 -155z" />
    <glyph glyph-name="percent" unicode="%" horiz-adv-x="1039" 
d="M278 460q-86 0 -141 35t-45 90t77.5 90t153.5 35q93 0 145 -34.5t42 -90.5t-74.5 -90.5t-157.5 -34.5zM48 0l835 700h118l-834 -700h-119zM286 500q55 0 92 23.5t43 61.5q5 38 -24 62t-82 24t-90 -24t-43 -62q-7 -38 21.5 -61.5t82.5 -23.5zM717 -11q-86 0 -141.5 35
t-45.5 90t78 90t154 35q93 0 144.5 -34.5t41.5 -90.5t-74 -90.5t-157 -34.5zM725 28q55 0 92 24t42 62q6 38 -22.5 61.5t-81.5 23.5q-54 0 -91 -23.5t-44 -61.5q-6 -38 23 -62t82 -24z" />
    <glyph glyph-name="ampersand" unicode="&#x26;" horiz-adv-x="866" 
d="M290 -12q-41 0 -79 4.5t-82 19t-73.5 37.5t-45 64.5t-6.5 95.5q15 86 108 146t197 51l-170 212l15 82h625l-16 -90h-497l348 -422q106 79 177 191l48 -76q-74 -102 -173 -179l102 -124h-131l-55 68q-148 -80 -292 -80zM313 79q110 0 217 55l-170 209q-81 20 -155 -12.5
t-85 -98.5q-14 -80 35 -116.5t158 -36.5z" />
    <glyph glyph-name="quotesingle" unicode="'" horiz-adv-x="174" 
d="M23 430l31 270h114l-81 -270h-64z" />
    <glyph glyph-name="parenleft" unicode="(" horiz-adv-x="470" 
d="M334 -137q-173 1 -248 133.5t-36 353.5t161 353.5t295 133.5l-15 -86q-124 -1 -219 -111t-126 -290t24.5 -290t178.5 -111z" />
    <glyph glyph-name="parenright" unicode=")" horiz-adv-x="470" 
d="M-36 -137l15 86q123 1 218.5 112.5t126.5 288.5q32 177 -24.5 288.5t-178.5 112.5l15 86q173 -1 248 -133.5t36 -353.5t-161 -353.5t-295 -133.5z" />
    <glyph glyph-name="asterisk" unicode="*" horiz-adv-x="615" 
d="M203 194l68 195l-156 -158l-70 75l195 117l-220 -30l20 108l208 -30l-153 117l96 76l100 -159l2 195h118l-67 -195l156 159l70 -76l-196 -117l221 30l-20 -108l-209 30l154 -117l-96 -75l-100 158l-3 -195h-118z" />
    <glyph glyph-name="plus" unicode="+" horiz-adv-x="580" 
d="M203 71l38 218h-218l14 83h219l38 219h83l-38 -219h218l-14 -83h-219l-38 -218h-83z" />
    <glyph glyph-name="comma" unicode="," horiz-adv-x="226" 
d="M6 -169l111 270h103l-161 -270h-53z" />
    <glyph glyph-name="hyphen" unicode="-" horiz-adv-x="460" 
d="M23 289l14 83h400l-14 -83h-400z" />
    <glyph glyph-name="period" unicode="." horiz-adv-x="240" 
d="M108 -18q-26 0 -43 19t-12 44q4 26 28 44.5t50 18.5q27 0 44 -18.5t13 -44.5q-5 -26 -28.5 -44.5t-51.5 -18.5z" />
    <glyph glyph-name="slash" unicode="/" horiz-adv-x="1018" 
d="M-32 0l956 700h126l-956 -700h-126z" />
    <glyph glyph-name="zero" unicode="0" horiz-adv-x="976" 
d="M423 -16q-203 0 -304.5 100t-72.5 266t166.5 266t340.5 100q204 0 305.5 -100t72.5 -266t-166.5 -266t-341.5 -100zM439 77q150 0 254 74t126 199q22 126 -55.5 199.5t-227.5 73.5q-149 0 -252.5 -73.5t-125.5 -199.5q-22 -125 55 -199t226 -74z" />
    <glyph glyph-name="one" unicode="1" horiz-adv-x="587" 
d="M322 0l102 582l-366 -216l19 111l429 223h52l-124 -700h-112z" />
    <glyph glyph-name="two" unicode="2" horiz-adv-x="853" 
d="M-8 0l10 60q37 17 124 57.5t138 65t129 63.5t126 68t98 63t76 64t31 57q11 67 -47 95.5t-210 28.5q-75 0 -188.5 -13.5t-147.5 -25.5l17 97q44 13 148.5 23.5t196.5 11.5q198 2 282.5 -40.5t64.5 -157.5q-10 -58 -72 -121.5t-155 -119.5t-189 -101.5t-194 -81.5h506
l-17 -93h-727z" />
    <glyph glyph-name="three" unicode="3" horiz-adv-x="821" 
d="M302 -16q-210 2 -318 44l17 93q44 -20 135 -32t173 -12q319 0 337 97q6 36 -15.5 58t-89 39t-176 26.5t-292.5 17.5l13 72q334 12 461.5 41t137.5 88q10 55 -55 81.5t-225 26.5q-79 0 -174.5 -12.5t-148.5 -32.5l16 93q62 22 157.5 33.5t175.5 11.5q71 0 123 -3.5
t103 -15.5t81 -32.5t45 -56t7 -84.5q-6 -35 -28.5 -63.5t-50 -45.5t-67.5 -29.5t-68.5 -18t-67 -8.5t-50 -3h-28.5l-1 -9h31q31 -1 49 -2t54.5 -5t60 -11t52.5 -20t45 -30t24.5 -44t2.5 -60q-10 -58 -46 -97t-97.5 -59.5t-133.5 -28.5t-169 -7z" />
    <glyph glyph-name="four" unicode="4" horiz-adv-x="881" 
d="M569 0l23 132h-609l11 66l621 502h190l-84 -475h111l-16 -93h-112l-23 -132h-112zM143 225h465l78 440z" />
    <glyph glyph-name="five" unicode="5" horiz-adv-x="825" 
d="M295 -16q-75 0 -171.5 11.5t-138.5 29.5l19 102q36 -18 134 -34t171 -16q162 0 240.5 38t92.5 122q12 66 -40.5 93t-169.5 27q-176 0 -363 -78l74 421h655l-16 -93h-568l-34 -198q141 45 298 45q50 0 90.5 -5t81 -20t65.5 -39.5t36.5 -66t1.5 -97.5q-21 -114 -145.5 -178
t-312.5 -64z" />
    <glyph glyph-name="six" unicode="6" horiz-adv-x="867" 
d="M392 -12q-190 0 -283.5 94t-60.5 280q30 170 165.5 261.5t335.5 91.5q165 0 273 -58l-19 -106q-115 71 -289 71q-134 0 -234.5 -72.5t-119.5 -187.5l-5 -28q70 51 167.5 88.5t199.5 37.5q163 0 231 -68.5t44 -179.5q-21 -103 -128.5 -163.5t-276.5 -60.5zM399 81
q135 0 204 33.5t83 111.5q13 72 -38 108.5t-167 36.5q-84 0 -181.5 -36.5t-147.5 -94.5q8 -85 68 -122t179 -37z" />
    <glyph glyph-name="seven" unicode="7" horiz-adv-x="813" 
d="M117 0l582 607h-638l17 93h776l-8 -44l-593 -656h-136z" />
    <glyph glyph-name="eight" unicode="8" horiz-adv-x="844" 
d="M357 -20q-113 0 -192 19.5t-122 66t-31 117.5q24 137 249 161q-34 6 -63.5 17.5t-58 31.5t-41.5 53t-6 75q16 93 121 142.5t274 49.5q158 0 250.5 -49.5t75.5 -142.5q-7 -42 -32 -75t-60 -53t-69 -31.5t-71 -17.5q31 -3 57.5 -9t55 -18t47.5 -29t28.5 -44t3.5 -61
q-17 -97 -131.5 -151t-284.5 -52zM430 392q128 0 192 25.5t75 84.5q9 52 -52.5 84.5t-174.5 32.5q-112 0 -185.5 -32.5t-82.5 -84.5q-11 -59 45 -84.5t183 -25.5zM375 75q120 0 198 30t88 84q10 55 -50.5 82t-196.5 27q-267 0 -288 -109q-10 -54 58.5 -84t190.5 -30z" />
    <glyph glyph-name="nine" unicode="9" horiz-adv-x="867" 
d="M474 714q190 0 283.5 -94t60.5 -280q-30 -170 -165.5 -261.5t-335.5 -91.5q-165 0 -273 58l19 106q115 -71 289 -71q134 0 234.5 72.5t119.5 187.5l5 28q-70 -51 -167.5 -88.5t-199.5 -37.5q-163 0 -231 68.5t-44 179.5q21 103 128.5 163.5t276.5 60.5zM467 621
q-135 0 -204 -33.5t-83 -111.5q-13 -72 38 -108.5t167 -36.5q84 0 181.5 36.5t147.5 94.5q-8 85 -68 122t-179 37z" />
    <glyph glyph-name="colon" unicode=":" horiz-adv-x="305" 
d="M135 288q-26 0 -43 19t-12 44q4 26 28 44.5t50 18.5q27 0 44 -18.5t13 -44.5q-5 -26 -28.5 -44.5t-51.5 -18.5zM81 -18q-26 0 -43 19t-12 44q4 26 28 44.5t50 18.5q27 0 44 -18.5t13 -44.5q-5 -26 -28.5 -44.5t-51.5 -18.5z" />
    <glyph glyph-name="semicolon" unicode=";" horiz-adv-x="293" 
d="M170 288q-26 0 -43 19t-12 44q4 26 28 44.5t50 18.5q27 0 44 -18.5t13 -44.5q-5 -26 -28.5 -44.5t-51.5 -18.5zM-22 -169l111 270h103l-161 -270h-53z" />
    <glyph glyph-name="less" unicode="&#x3c;" horiz-adv-x="461" 
d="M192 0l-162 250l250 250h150l-258 -250l170 -250h-150z" />
    <glyph glyph-name="equal" unicode="=" horiz-adv-x="580" 
d="M45 412l15 83h520l-15 -83h-520zM0 159l15 83h520l-15 -83h-520z" />
    <glyph glyph-name="greater" unicode="&#x3e;" horiz-adv-x="416" 
d="M-14 0l258 250l-170 250h150l162 -250l-250 -250h-150z" />
    <glyph glyph-name="question" unicode="?" horiz-adv-x="728" 
d="M213 232q4 56 40.5 93t86.5 54.5t100 31.5t88 37.5t45 60.5q1 18 3 32.5t-4.5 25.5t-13.5 19.5t-24.5 15t-36.5 10.5t-49.5 6t-64 3t-79.5 1q-102 0 -249 -21l16 96q124 16 259 18q206 2 292 -42t64 -167q-11 -61 -53 -99t-96.5 -54t-108 -28.5t-94 -34t-48.5 -58.5h-73z
M204 -18q-26 0 -43 19t-12 44q4 26 28 44.5t50 18.5q27 0 44 -18.5t13 -44.5q-5 -26 -28.5 -44.5t-51.5 -18.5z" />
    <glyph glyph-name="at" unicode="@" horiz-adv-x="1073" 
d="M607 725q220 0 334.5 -107.5t86.5 -265.5q-14 -77 -65 -138t-139 -92h-176l50 147h-6q-32 -81 -106 -120.5t-173 -39.5q-27 0 -49.5 4t-45.5 14t-34 33t-5 57q6 33 34 58.5t62.5 39.5t86 24.5t87 14t83.5 7.5t59 5q11 64 -16 88.5t-104 24.5q-86 0 -202 -47l12 70
q128 45 235 45q200 0 166 -193l-38 -216q86 42 123 90t50 124q22 124 -68 200.5t-258 76.5q-167 0 -286.5 -85.5t-142.5 -221.5q-24 -136 64.5 -221t255.5 -85q100 0 176 25l-19 -102q-83 -20 -174 -20q-224 0 -335.5 110t-79.5 293t183 293t374 110zM504 180
q67 11 115 42.5t60 86.5q-14 -1 -46 -3t-54.5 -4t-54 -5.5t-53.5 -9t-44 -13t-34 -19.5t-15 -27q-5 -31 29.5 -44.5t96.5 -3.5z" />
    <glyph glyph-name="A" unicode="A" horiz-adv-x="1083" 
d="M-26 0l555 700h149l306 -700h-126l-68 163h-553l-125 -163h-138zM308 256h443l-154 377z" />
    <glyph glyph-name="B" unicode="B" horiz-adv-x="926" 
d="M29 0l124 700h513q106 0 156.5 -51t35.5 -134q-26 -147 -222 -159q101 -2 151.5 -46t35.5 -124q-15 -84 -86 -135t-173 -51h-535zM210 390h366q147 0 166 106q10 56 -22.5 83.5t-105.5 27.5h-366zM159 94h386q148 0 170 117q9 56 -23.5 83t-105.5 27h-388z" />
    <glyph glyph-name="C" unicode="C" horiz-adv-x="935" 
d="M403 -16q-190 0 -288 100.5t-69 265.5t163 265.5t324 100.5t290 -88t75 -233h-114q14 106 -59 167t-209 61q-141 0 -238.5 -73.5t-119.5 -199.5q-22 -125 49.5 -199t211.5 -74q136 0 231.5 61.5t117.5 166.5h114q-25 -145 -157 -233t-322 -88z" />
    <glyph glyph-name="D" unicode="D" horiz-adv-x="871" 
d="M29 0l124 700h326q192 0 284 -90t62 -260q-30 -171 -154 -260.5t-316 -89.5h-326zM158 93h213q139 0 236 69.5t117 187.5q21 118 -51 187.5t-210 69.5h-214z" />
    <glyph glyph-name="E" unicode="E" horiz-adv-x="810" 
d="M29 0l124 700h638l-17 -93h-525l-37 -209h516l-14 -85h-517l-39 -220h525l-16 -93h-638z" />
    <glyph glyph-name="F" unicode="F" horiz-adv-x="776" 
d="M29 0l124 700h634l-16 -93h-522l-37 -209h512l-14 -85h-513l-56 -313h-112z" />
    <glyph glyph-name="G" unicode="G" horiz-adv-x="971" 
d="M413 -16q-190 0 -288 100.5t-69 265.5t163 265.5t324 100.5q179 0 276.5 -74.5t84.5 -197.5h-109q6 85 -64 132t-205 47q-141 0 -238.5 -73.5t-119.5 -199.5q-22 -125 49.5 -199t211.5 -74q133 0 226 54t119 147h-414l15 87h526l-65 -365h-104l29 123
q-63 -69 -155.5 -104t-192.5 -35z" />
    <glyph glyph-name="H" unicode="H" horiz-adv-x="908" 
d="M29 0l124 700h112l-52 -293h501l52 293h112l-124 -700h-112l56 314h-501l-56 -314h-112z" />
    <glyph glyph-name="I" unicode="I" horiz-adv-x="295" 
d="M29 0l124 700h112l-124 -700h-112z" />
    <glyph glyph-name="J" unicode="J" horiz-adv-x="838" 
d="M341 -16q-342 0 -281 355h113q-25 -142 18.5 -202t166.5 -60t186.5 60t88.5 202l48 268h-480l16 93h592l-64 -361q-61 -355 -404 -355z" />
    <glyph glyph-name="K" unicode="K" horiz-adv-x="950" 
d="M29 0l124 700h112l-76 -433l584 433h154l-334 -243l231 -457h-135l-192 389l-330 -239l-26 -150h-112z" />
    <glyph glyph-name="L" unicode="L" horiz-adv-x="688" 
d="M29 0l124 700h112l-107 -607h510l-16 -93h-623z" />
    <glyph glyph-name="M" unicode="M" horiz-adv-x="1065" 
d="M29 0l124 700h139l209 -529l396 529h138l-124 -700h-112l96 545l-415 -545h-19l-225 541l-95 -541h-112z" />
    <glyph glyph-name="N" unicode="N" horiz-adv-x="967" 
d="M29 0l124 700h114l459 -564l100 564h112l-124 -700h-115l-458 562l-100 -562h-112z" />
    <glyph glyph-name="O" unicode="O" horiz-adv-x="976" 
d="M423 -16q-203 0 -304.5 100t-72.5 266t166.5 266t340.5 100q204 0 305.5 -100t72.5 -266t-166.5 -266t-341.5 -100zM439 77q150 0 254 74t126 199q22 126 -55.5 199.5t-227.5 73.5q-149 0 -252.5 -73.5t-125.5 -199.5q-22 -125 55 -199t226 -74z" />
    <glyph glyph-name="P" unicode="P" horiz-adv-x="881" 
d="M29 0l124 700h493q106 0 159.5 -62t37.5 -152q-18 -103 -93 -158t-180 -55h-381l-48 -273h-112zM206 368h355q79 0 119 28t51 90q11 63 -19 91.5t-108 28.5h-356z" />
    <glyph glyph-name="Q" unicode="Q" horiz-adv-x="996" 
d="M931 350q-24 -133 -118 -225l73 -53l-69 -69l-84 60q-130 -79 -310 -79q-203 0 -304.5 100t-72.5 266t166.5 266t340.5 100q204 0 305.5 -100t72.5 -266zM647 123l-171 122l69 76l187 -137q69 68 87 166q22 126 -55.5 199.5t-227.5 73.5q-149 0 -252.5 -73.5
t-125.5 -199.5q-22 -125 55 -199t226 -74q118 0 208 46z" />
    <glyph glyph-name="R" unicode="R" horiz-adv-x="941" 
d="M29 0l124 700h543q106 0 156.5 -51t35.5 -134t-84 -129.5t-172 -46.5h-74q47 -3 83.5 -18.5t63 -39t52 -68t44.5 -90.5t47 -123h-122q-67 175 -91 217q-38 67 -95 82q-24 6 -57 6h-288l-54 -305h-112zM212 401h396q148 0 165 96q10 57 -20.5 83t-108.5 26h-397z" />
    <glyph glyph-name="S" unicode="S" horiz-adv-x="864" 
d="M351 -16q-170 2 -259.5 67t-69.5 170h115q-12 -65 51.5 -104t174.5 -40q290 -2 315 115q9 43 -21.5 68t-86 34t-124.5 14t-137 13t-122.5 25t-83 56.5t-16.5 101.5q20 105 132.5 160t282.5 52q164 -3 251 -67t71 -170h-115q13 64 -49 103t-170 41q-266 3 -287 -107
q-7 -37 24.5 -57.5t87.5 -28.5t124.5 -12.5t135.5 -15t120.5 -30t80.5 -64t14 -111.5q-20 -105 -139 -160t-300 -53z" />
    <glyph glyph-name="T" unicode="T" horiz-adv-x="896" 
d="M329 0l108 607h-355l16 93h823l-16 -93h-356l-108 -607h-112z" />
    <glyph glyph-name="U" unicode="U" horiz-adv-x="902" 
d="M388 -16q-181 0 -254.5 88t-35.5 303l56 325h112l-63 -355q-24 -139 23.5 -204t177.5 -65t200 65t94 204l63 355h112l-56 -325q-38 -215 -143 -303t-286 -88z" />
    <glyph glyph-name="V" unicode="V" horiz-adv-x="1035" 
d="M343 0l-245 700h138l225 -668l462 668h138l-493 -700h-225z" />
    <glyph glyph-name="W" unicode="W" horiz-adv-x="1259" 
d="M256 0l-135 700h116l108 -567l299 567h94l100 -567l307 567h117l-383 -700h-118l-94 564l-293 -564h-118z" />
    <glyph glyph-name="X" unicode="X" horiz-adv-x="928" 
d="M-3 0l394 351l-271 349h139l217 -283l317 283h138l-400 -355l266 -345h-136l-214 280l-315 -280h-135z" />
    <glyph glyph-name="Y" unicode="Y" horiz-adv-x="868" 
d="M316 0l40 226l-269 474h137l207 -368l337 368h137l-436 -472l-41 -228h-112z" />
    <glyph glyph-name="Z" unicode="Z" horiz-adv-x="879" 
d="M-16 0l12 65l711 542h-607l16 93h769l-12 -62l-706 -545h620l-16 -93h-787z" />
    <glyph glyph-name="bracketleft" unicode="[" horiz-adv-x="513" 
d="M-48 -190l156 890h453l-8 -52h-342l-138 -786h340l-8 -52h-453z" />
    <glyph glyph-name="backslash" unicode="\" horiz-adv-x="1018" 
d="M800 0l-708 700h126l708 -700h-126z" />
    <glyph glyph-name="bracketright" unicode="]" horiz-adv-x="513" 
d="M-48 -190l8 52h342l138 786h-340l8 52h453l-156 -890h-453z" />
    <glyph glyph-name="asciicircum" unicode="^" horiz-adv-x="560" 
d="M-5 317l21 118l299 274l201 -274l-21 -118l-207 242z" />
    <glyph glyph-name="underscore" unicode="_" horiz-adv-x="1060" 
d="M23 0l14 83h1000l-14 -83h-1000z" />
    <glyph glyph-name="grave" unicode="`" horiz-adv-x="387" 
d="M314 544l-259 164l18 102l255 -186z" />
    <glyph glyph-name="a" unicode="a" horiz-adv-x="672" 
d="M185 -16q-33 0 -60.5 4.5t-55.5 17.5t-41 41t-6 69q6 34 30.5 61.5t64 45.5t80 30.5t93.5 20t89.5 11t83.5 7t60 4.5q13 78 -20 108t-126 30q-104 0 -246 -57l15 85q157 54 285 54q242 0 202 -234l-50 -282h-113l61 179h-7q-39 -99 -128.5 -147t-210.5 -48zM295 71
q81 13 140 51t73 105q-18 -1 -56 -3.5t-66 -5t-66 -6.5t-65 -10.5t-53 -16t-41.5 -24t-18.5 -32.5q-6 -38 36 -54t117 -4z" />
    <glyph glyph-name="b" unicode="b" horiz-adv-x="769" 
d="M398 -16q-103 0 -176 45t-75 134h-11l-7 -163h-116l123 700h112l-64 -361v-1h4q33 88 117 133t185 45q108 0 173 -74t45 -188q-20 -118 -111.5 -194t-198.5 -76zM366 67q89 0 151.5 51t76.5 134q14 81 -30.5 131t-133.5 50q-83 0 -150 -51t-80 -130q-15 -81 34 -133
t132 -52z" />
    <glyph glyph-name="c" unicode="c" horiz-adv-x="632" 
d="M312 -16q-137 0 -212 73.5t-54 192.5q21 121 120 193.5t241 72.5q64 0 110.5 -12.5t105.5 -41.5l-15 -91q-101 62 -189 62q-118 0 -180.5 -41.5t-79.5 -141.5q-18 -100 30 -141.5t168 -41.5q105 0 207 58l-15 -87q-75 -31 -121.5 -42.5t-115.5 -11.5z" />
    <glyph glyph-name="d" unicode="d" horiz-adv-x="769" 
d="M245 -16q-107 0 -171.5 76t-42.5 194q20 114 111 188t199 74q101 0 169 -45t70 -133h4l1 1l63 361h112l-124 -700h-116l50 163h-11q-33 -89 -121.5 -134t-192.5 -45zM307 67q83 0 150 52t81 133q15 79 -34 130t-132 51q-89 0 -151.5 -50t-76.5 -131q-15 -83 29.5 -134
t133.5 -51z" />
    <glyph glyph-name="e" unicode="e" horiz-adv-x="693" 
d="M300 -16q-136 0 -205.5 73t-48.5 193t116.5 193t231.5 73q134 0 206 -62.5t55 -164.5l-15 -82h-497q-1 -75 51.5 -107t169.5 -32q29 0 56.5 2.5t45.5 6t41 10.5t33.5 11t33 13t29.5 12l-15 -90q-85 -30 -142 -39.5t-146 -9.5zM154 276l395 8q12 82 -27.5 115.5
t-142.5 33.5q-100 0 -152.5 -35.5t-72.5 -121.5z" />
    <glyph glyph-name="f" unicode="f" horiz-adv-x="458" 
d="M59 0l73 420h-68l15 80h68l3 20q28 161 157 184q56 9 141 -11l-10 -55q-55 2 -84.5 -1.5t-49.5 -20.5t-28 -41.5t-17 -74.5h155l-13 -70h-155l-75 -430h-112z" />
    <glyph glyph-name="g" unicode="g" horiz-adv-x="775" 
d="M322 -200q-78 0 -121 10.5t-101 34.5q-9 4 -14 6l18 101q36 -31 101.5 -50t137.5 -19q106 0 166 46t74 123l22 96q-37 -82 -124 -124.5t-186 -42.5q-106 0 -170.5 77.5t-43.5 195.5q20 114 111.5 188t199.5 74q100 0 168 -45t71 -133h13l18 162h101l-77 -440
q-23 -130 -120 -195t-244 -65zM358 67q82 0 149.5 52t81.5 133q14 79 -35 130t-132 51q-89 0 -151 -50t-76 -131q-15 -83 29.5 -134t133.5 -51z" />
    <glyph glyph-name="h" unicode="h" horiz-adv-x="686" 
d="M11 0l124 700h126l-92 -406h6q34 96 106.5 159t175.5 63q108 -2 147.5 -75t13.5 -224l-39 -217h-112l36 200q20 121 -5.5 176.5t-103.5 55.5q-91 0 -157.5 -83t-91.5 -226v2l-22 -125h-112z" />
    <glyph glyph-name="i" unicode="i" horiz-adv-x="284" 
d="M182 609q-32 0 -48.5 18t-10.5 51q5 32 28.5 50.5t55.5 18.5q33 0 50 -18.5t12 -50.5q-6 -33 -30 -51t-57 -18zM21 0l88 500h112l-88 -500h-112z" />
    <glyph glyph-name="j" unicode="j" horiz-adv-x="278" 
d="M197 609q-32 0 -49 18t-11 51t28.5 51t55.5 18t50.5 -18.5t11.5 -50.5q-6 -33 -29.5 -51t-56.5 -18zM-100 -200l14 76q48 0 77.5 24.5t36.5 66.5l95 533h112l-90 -510q-15 -85 -88 -137.5t-157 -52.5z" />
    <glyph glyph-name="k" unicode="k" horiz-adv-x="733" 
d="M11 0l124 700h112l-85 -473l373 273h166l-236 -161l153 -339h-137l-109 275l-228 -156l-21 -119h-112z" />
    <glyph glyph-name="l" unicode="l" horiz-adv-x="257" 
d="M11 0l124 700h112l-124 -700h-112z" />
    <glyph glyph-name="m" unicode="m" horiz-adv-x="1141" 
d="M28 0l88 500h126l-57 -206h6q34 96 106.5 159t175.5 63q185 -3 170 -222h4q34 96 106.5 159t175.5 63q108 -2 147.5 -75t13.5 -224l-38 -217h-112l35 200q21 123 -4.5 178t-104.5 54q-91 0 -157.5 -83t-91.5 -226l-21 -123h-112l35 200q21 123 -4.5 178t-104.5 54
q-91 0 -157.5 -83t-91.5 -226l-21 -123h-112z" />
    <glyph glyph-name="n" unicode="n" horiz-adv-x="685" 
d="M28 0l88 500h126l-57 -206h6q34 96 106.5 159t175.5 63q108 -2 147.5 -75t13.5 -224l-38 -217h-112l35 200q20 121 -5.5 176.5t-103.5 55.5q-88 0 -154 -78.5t-92 -214.5l-24 -139h-112z" />
    <glyph glyph-name="o" unicode="o" horiz-adv-x="711" 
d="M308 -16q-139 0 -211 73t-51 193t118.5 193t237.5 73t212 -73t51 -193t-119 -193t-238 -73zM323 67q93 0 159.5 50.5t80.5 132.5t-34 132.5t-141 50.5t-159.5 -50.5t-80.5 -132.5t34 -132.5t141 -50.5z" />
    <glyph glyph-name="p" unicode="p" horiz-adv-x="769" 
d="M10 -200l124 700h116l-51 -163h11q33 89 121.5 134t192.5 45q107 0 171 -76t44 -194q-20 -114 -111 -188t-199 -74q-101 0 -169 45t-71 133h-4v-1l-63 -361h-112zM397 67q89 0 152 50.5t77 130.5q15 83 -29.5 134t-133.5 51q-82 0 -149 -52t-82 -133q-15 -78 34 -129.5
t131 -51.5z" />
    <glyph glyph-name="q" unicode="q" horiz-adv-x="769" 
d="M371 516q103 0 176 -45t75 -134h11l7 163h116l-123 -700h-112l64 361v1h-4q-33 -88 -117 -133t-185 -45q-108 0 -173 74t-45 188q20 118 111.5 194t198.5 76zM403 433q-89 0 -151.5 -51t-76.5 -134q-14 -81 30.5 -131t133.5 -50q83 0 150 51t80 130q15 81 -34 133
t-132 52z" />
    <glyph glyph-name="r" unicode="r" horiz-adv-x="530" 
d="M28 0l88 500h126l-57 -206h10q41 123 117 172.5t227 49.5l-16 -93q-160 0 -244 -62.5t-108 -183.5l-31 -177h-112z" />
    <glyph glyph-name="s" unicode="s" horiz-adv-x="675" 
d="M289 -16q-133 0 -261 39l15 87q105 -43 241 -43q108 0 157 15t56 55q5 30 -27 45.5t-84 18.5t-112 9.5t-110.5 17t-79.5 42t-20 83.5q14 80 100.5 121.5t222.5 41.5q107 0 245 -28l-15 -80q-118 26 -237 26q-189 0 -200 -68q-5 -28 26.5 -44t83.5 -19.5t111.5 -11.5
t110 -19t80 -43.5t20.5 -83.5q-14 -81 -100 -121t-223 -40z" />
    <glyph glyph-name="t" unicode="t" horiz-adv-x="441" 
d="M214 -10q-94 0 -115.5 39t-1.5 151l42 240h-79l14 80h100l22 120l94 20l-25 -140h167l-14 -80h-167l-37 -210q-6 -35 -8 -48t-3.5 -35t0.5 -28t9 -17.5t17.5 -13t29.5 -5t40.5 -3t55.5 2.5l-10 -53q-54 -20 -131 -20z" />
    <glyph glyph-name="u" unicode="u" horiz-adv-x="685" 
d="M657 500l-88 -500h-126l57 206h-6q-34 -96 -106.5 -159t-175.5 -63q-108 2 -147.5 75t-13.5 224l38 217h112l-35 -200q-20 -121 5.5 -176.5t103.5 -55.5q88 0 154 78.5t92 214.5l24 139h112z" />
    <glyph glyph-name="v" unicode="v" horiz-adv-x="775" 
d="M256 0l-176 500h118l156 -443l311 443h118l-352 -500h-175z" />
    <glyph glyph-name="w" unicode="w" horiz-adv-x="1054" 
d="M195 0l-126 500h108l107 -432l250 432h64l107 -433l260 433h108l-302 -500h-166l-72 306l-172 -306h-166z" />
    <glyph glyph-name="x" unicode="x" horiz-adv-x="767" 
d="M-18 0l323 251l-235 249h148l176 -188l243 188h148l-328 -253l231 -247h-147l-173 184l-239 -184h-147z" />
    <glyph glyph-name="y" unicode="y" horiz-adv-x="755" 
d="M167 -200l148 195l-228 505h120l166 -412l309 412h110l-515 -700h-110z" />
    <glyph glyph-name="z" unicode="z" horiz-adv-x="712" 
d="M-14 0l5 33l520 383h-444l15 84h644l-6 -31l-517 -384h439l-14 -85h-642z" />
    <glyph glyph-name="braceleft" unicode="{" horiz-adv-x="683" 
d="M577 -80q-111 0 -178 12.5t-97 37.5t-36 63t4 90q17 95 -45 143.5t-201 48.5l12 68q134 2 196.5 49t78.5 136q8 47 20 77t37 57.5t65.5 42.5t104 23.5t154.5 8.5l-11 -62q-149 4 -205.5 -25.5t-72.5 -121.5q-16 -88 -28 -114q-34 -78 -143 -101q-7 -2 -14 -3
q70 -4 107 -34t41.5 -79t-5.5 -114q-15 -86 35.5 -115.5t191.5 -26.5z" />
    <glyph glyph-name="bar" unicode="|" horiz-adv-x="232" 
d="M-18 -170l156 890h112l-156 -890h-112z" />
    <glyph glyph-name="braceright" unicode="}" horiz-adv-x="705" 
d="M63 -80l-2 61q140 -3 195 26.5t54 115.5q-2 105 36.5 163t141.5 64q-43 8 -72.5 23t-44.5 32t-22.5 43t-9.5 48t-2 54v18q-2 92 -54 121.5t-202 25.5l-1 62q91 0 153 -8.5t100.5 -23.5t59.5 -42.5t28 -57.5t8 -77q2 -89 57.5 -136t188.5 -49l2 -68q-139 0 -208.5 -48.5
t-67.5 -143.5q1 -57 -9.5 -91t-45.5 -61.5t-103.5 -39t-179.5 -11.5z" />
    <glyph glyph-name="asciitilde" unicode="~" horiz-adv-x="441" 
d="M276 310q-31 0 -52.5 18t-37.5 36t-32 18q-28 0 -47.5 -18t-26.5 -53h-61q10 58 51 94t95 36q21 0 39 -11.5t28 -24.5t24.5 -24.5t30.5 -11.5q62 0 75 71h60q-11 -59 -51.5 -94.5t-94.5 -35.5z" />
    <glyph glyph-name="exclamdown" unicode="&#xa1;" horiz-adv-x="260" 
d="M192 525q28 0 45 -18.5t13 -44.5t-28 -44.5t-51 -18.5q-26 0 -43 18.5t-13 44.5q4 25 27.5 44t49.5 19zM80 213h115l-62 -406h-135z" />
    <glyph glyph-name="cent" unicode="&#xa2;" horiz-adv-x="589" 
d="M409 523q-118 0 -180.5 -41.5t-79.5 -141.5q-18 -100 30 -141.5t168 -41.5q105 0 207 58l-15 -87q-111 -46 -185 -52l-18 -106h-157l20 117q-91 25 -135 92t-28 161q16 96 83.5 162.5t169.5 91.5l18 106h157l-16 -96q76 -7 165 -52l-15 -91q-101 62 -189 62z" />
    <glyph glyph-name="sterling" unicode="&#xa3;" horiz-adv-x="902" 
d="M22 0l17 94q65 26 96.5 59t39.5 76h-148l18 102h127l-4 41h-115l18 102h93q1 9 5 32q19 110 116 160t291 49q91 -1 192.5 -11.5t140.5 -23.5l-17 -97q-29 12 -138 25.5t-184 13.5q-148 0 -210.5 -31t-82.5 -117h514l-18 -102h-498l3 -41h487l-18 -102h-473
q-19 -87 -97 -135h622l-17 -94h-760z" />
    <glyph glyph-name="currency" unicode="&#xa4;" horiz-adv-x="720" 
d="M88 37l-65 78l92 79q-36 55 -22 136q13 83 76 141l-69 84l93 79l83 -101q57 17 121 17q70 0 118 -16l117 100l65 -79l-96 -82q38 -54 22 -143q-14 -85 -66 -137l63 -78l-93 -78l-76 91q-61 -18 -132 -18q-69 0 -121 19zM329 169q84 0 143 44.5t72 116.5t-30.5 116.5
t-126.5 44.5t-142.5 -44.5t-72.5 -116.5t30.5 -116.5t126.5 -44.5z" />
    <glyph glyph-name="yen" unicode="&#xa5;" horiz-adv-x="828" 
d="M905 700l-310 -336h207l-18 -102h-284l-31 -34l-1 -7h308l-18 -102h-309l-21 -119h-112l21 119h-289l18 102h289l1 5l-20 36h-262l18 102h186l-191 336h137l189 -336h47l308 336h137z" />
    <glyph glyph-name="brokenbar" unicode="&#xa6;" horiz-adv-x="232" 
d="M67 313l71 407h112l-71 -407h-112zM-18 -170l73 418h112l-73 -418h-112z" />
    <glyph glyph-name="section" unicode="&#xa7;" horiz-adv-x="644" 
d="M259 0q-133 0 -261 39l14 79q61 -25 112.5 -34t147.5 -9q109 0 147.5 8.5t42.5 33.5q5 27 -27.5 43.5t-83.5 23t-110.5 17t-109.5 24t-79 44.5t-21 77q10 61 79 84q-58 42 -48 96q14 80 100.5 122t222.5 42q107 0 245 -28l-14 -79q-118 26 -245 26q-111 0 -148.5 -10
t-43.5 -45q-3 -16 21 -26t65 -15.5t90 -11t97.5 -16.5t87 -28t59 -48.5t12.5 -75.5q-9 -55 -71 -91q48 -45 40 -90q-13 -75 -99 -113.5t-222 -38.5zM299 259q92 -7 137.5 10t57.5 64q13 46 -23 70t-130 33q-87 7 -132.5 -11t-59.5 -65q-11 -45 24 -69t126 -32z" />
    <glyph glyph-name="dieresis" unicode="&#xa8;" horiz-adv-x="588" 
d="M134 538q-44 0 -67.5 23.5t-16.5 61.5t38.5 61.5t75.5 23.5q47 0 69 -23t15 -62t-37 -62t-77 -23zM424 538q-44 0 -67.5 23.5t-16.5 61.5t38.5 61.5t75.5 23.5q47 0 69 -23t15 -62t-37 -62t-77 -23z" />
    <glyph glyph-name="copyright" unicode="&#xa9;" horiz-adv-x="965" 
d="M417 -16q-202 0 -299.5 99.5t-67.5 266.5q29 166 163 266t334 100q204 0 301 -98.5t67 -267.5q-30 -167 -162.5 -266.5t-335.5 -99.5zM422 11q197 0 317 92.5t148 246.5q28 153 -60 246t-285 93q-191 0 -314.5 -93.5t-151.5 -245.5q-28 -151 63.5 -245t282.5 -94zM440 85
q-136 0 -205.5 73t-48.5 193t116.5 193t231.5 73q135 0 206 -65t52 -172h-114q8 73 -35 117.5t-122 44.5q-85 0 -146.5 -52.5t-76.5 -138.5t27.5 -138.5t127.5 -52.5q82 0 141.5 46.5t76.5 123.5h113q-19 -110 -113.5 -177.5t-230.5 -67.5z" />
    <glyph glyph-name="guillemotleft" unicode="&#xab;" horiz-adv-x="840" 
d="M215 0l-162 250l250 250h150l-258 -250l170 -250h-150zM594 0l-162 250l250 250h150l-258 -250l170 -250h-150z" />
    <glyph glyph-name="logicalnot" unicode="&#xac;" horiz-adv-x="670" 
d="M527 76l45 258h-526l14 83h610l-15 -83l-45 -258h-83z" />
    <glyph glyph-name="registered" unicode="&#xae;" horiz-adv-x="965" 
d="M417 -16q-202 0 -299.5 99.5t-67.5 266.5q29 166 163 266t334 100q203 0 300.5 -99t67.5 -267q-30 -167 -162.5 -266.5t-335.5 -99.5zM422 11q197 0 317 92.5t148 246.5q28 153 -60 246t-285 93q-191 0 -314.5 -93.5t-151.5 -245.5q-28 -151 63.5 -245t282.5 -94z
M221 133l77 435h337q66 0 97 -32t22 -83q-9 -52 -52 -81t-107 -29h-46q70 -4 104.5 -48.5t76.5 -161.5h-76q-46 120 -64 147q-35 40 -87 42h-179l-33 -189h-70zM335 382h246q92 0 102 60q6 35 -12.5 51t-67.5 16h-247z" />
    <glyph glyph-name="macron" unicode="&#xaf;" horiz-adv-x="632" 
d="M45 646l10 54h532l-10 -54h-532z" />
    <glyph glyph-name="degree" unicode="&#xb0;" horiz-adv-x="518" 
d="M237 460q-86 0 -141.5 35t-45.5 90t77.5 90t153.5 35q93 0 145 -34.5t42 -90.5t-74 -90.5t-157 -34.5zM244 500q55 0 92 23.5t43 61.5t-22.5 62t-81.5 24q-54 0 -91 -24t-44 -62t21.5 -61.5t82.5 -23.5z" />
    <glyph glyph-name="plusminus" unicode="&#xb1;" horiz-adv-x="600" 
d="M231 196l26 153h-153l16 85h153l27 152h85l-27 -152h152l-16 -85h-152l-26 -153h-85zM-22 0l8 43h520l-8 -43h-520z" />
    <glyph glyph-name="acute" unicode="&#xb4;" horiz-adv-x="387" 
d="M27 544l14 80l319 186l-18 -102z" />
    <glyph glyph-name="paragraph" unicode="&#xb6;" horiz-adv-x="939" 
d="M316 -180l80 453h-129q-105 0 -160 55t-37 158q15 90 91 152t182 62h245l-156 -880h-116zM719 -180l156 880h112l-156 -880h-112z" />
    <glyph glyph-name="periodcentered" unicode="&#xb7;" horiz-adv-x="240" 
d="M108 228q-26 0 -43 19t-12 44q4 26 28 44.5t50 18.5q27 0 44 -18.5t13 -44.5q-5 -26 -28.5 -44.5t-51.5 -18.5z" />
    <glyph glyph-name="cedilla" unicode="&#xb8;" horiz-adv-x="526" 
d="M22 -287l9 55q300 1 310 55q3 18 -21.5 30t-91 19.5t-177.5 8.5l10 53l75 101h95l-71 -103q151 -8 233 -36t74 -73q-8 -47 -131.5 -78t-313.5 -32z" />
    <glyph glyph-name="guillemotright" unicode="&#xbb;" horiz-adv-x="885" 
d="M9 0l258 250l-170 250h150l162 -250l-250 -250h-150zM388 0l258 250l-170 250h150l162 -250l-250 -250h-150z" />
    <glyph glyph-name="onequarter" unicode="&#xbc;" horiz-adv-x="1603" 
d="M355 -22l818 744h104l-818 -744h-104zM253 161l70 398l-250 -148l13 76l293 152h35l-85 -478h-76zM1342 61l15 90h-416l8 45l424 343h130l-58 -324h76l-11 -64h-76l-16 -90h-76zM1051 215h317l54 300z" />
    <glyph glyph-name="onehalf" unicode="&#xbd;" horiz-adv-x="1734" 
d="M354 -22l818 744h104l-818 -744h-104zM253 161l70 398l-250 -148l13 76l293 152h35l-85 -478h-76zM1134 61l6 41q22 11 84 39.5t95 44t88 43t86.5 47t66.5 43t52.5 44t20.5 38.5q8 45 -31.5 65t-143.5 20q-51 0 -128.5 -9.5t-101.5 -17.5l12 66q30 10 101.5 17t134.5 7
q135 2 193 -27.5t44 -107.5q-9 -52 -81.5 -111t-157.5 -101.5t-178 -76.5h346l-12 -64h-496z" />
    <glyph glyph-name="threequarters" unicode="&#xbe;" horiz-adv-x="1610" 
d="M362 -22l818 744h104l-818 -744h-104zM226 150q-142 2 -217 30l12 64q30 -14 92 -22t118 -8q218 0 230 66q4 24 -10.5 39.5t-60.5 27t-120.5 18t-199.5 11.5l9 49q228 8 315 28t94 60q7 38 -37.5 56t-153.5 18q-55 0 -120 -8.5t-101 -22.5l11 64q90 31 227 31
q61 0 103.5 -4.5t80 -18t53.5 -40.5t9 -68q-6 -33 -33 -57t-55.5 -34.5t-69.5 -16.5t-55.5 -6.5t-32.5 -0.5l-1 -6l25 -1q25 0 40.5 -1.5t43.5 -5.5t45.5 -12t36 -20t25.5 -32t2 -46q-7 -39 -31.5 -66t-66.5 -41t-91 -19t-116 -5zM1349 58l15 90h-416l8 45l424 343h130
l-58 -324h76l-11 -64h-76l-16 -90h-76zM1058 212h317l54 300z" />
    <glyph glyph-name="questiondown" unicode="&#xbf;" horiz-adv-x="742" 
d="M508 525q26 0 43 -19t12 -44q-4 -26 -28 -44.5t-50 -18.5q-27 0 -44 18.5t-13 44.5q5 26 28.5 44.5t51.5 18.5zM499 275q-4 -56 -40.5 -93t-86.5 -54.5t-100 -31.5t-88 -37.5t-45 -60.5q-1 -18 -3 -32.5t4.5 -25.5t13.5 -19.5t24.5 -15t36.5 -10.5t49.5 -6t64 -3t79.5 -1
q102 0 249 21l-16 -96q-124 -16 -259 -18q-206 -2 -292 42t-64 167q11 61 53 99t96.5 54t108 28.5t94 34t48.5 58.5h73z" />
    <glyph glyph-name="Agrave" unicode="&#xc0;" horiz-adv-x="1083" 
d="M612 744l-259 164l18 102l255 -186zM-26 0l555 700h149l306 -700h-126l-68 163h-553l-125 -163h-138zM308 256h443l-154 377z" />
    <glyph glyph-name="Aacute" unicode="&#xc1;" horiz-adv-x="1083" 
d="M582 744l14 80l319 186l-18 -102zM-26 0l555 700h149l306 -700h-126l-68 163h-553l-125 -163h-138zM308 256h443l-154 377z" />
    <glyph glyph-name="Acircumflex" unicode="&#xc2;" horiz-adv-x="1083" 
d="M321 755l14 80l319 186l255 -186l-14 -80l-259 164zM-26 0l555 700h149l306 -700h-126l-68 163h-553l-125 -163h-138zM308 256h443l-154 377z" />
    <glyph glyph-name="Atilde" unicode="&#xc3;" horiz-adv-x="1083" 
d="M695 772q-31 0 -52.5 18t-37.5 36t-32 18q-28 0 -47.5 -18t-26.5 -53h-61q10 58 51 94t95 36q21 0 39 -11.5t28 -24.5t24.5 -24.5t30.5 -11.5q62 0 75 71h60q-11 -59 -51.5 -94.5t-94.5 -35.5zM-26 0l555 700h149l306 -700h-126l-68 163h-553l-125 -163h-138zM308 256
h443l-154 377z" />
    <glyph glyph-name="Adieresis" unicode="&#xc4;" horiz-adv-x="1083" 
d="M464 738q-44 0 -67.5 23.5t-16.5 61.5t38.5 61.5t75.5 23.5q47 0 69 -23t15 -62t-37 -62t-77 -23zM754 738q-44 0 -67.5 23.5t-16.5 61.5t38.5 61.5t75.5 23.5q47 0 69 -23t15 -62t-37 -62t-77 -23zM-26 0l555 700h149l306 -700h-126l-68 163h-553l-125 -163h-138z
M308 256h443l-154 377z" />
    <glyph glyph-name="Aring" unicode="&#xc5;" horiz-adv-x="1083" 
d="M605 738q-105 0 -174 29t-61 74t87 74t184 29q113 0 178 -28.5t57 -74.5t-83 -74.5t-188 -28.5zM614 789q41 0 68.5 13.5t31.5 38.5q4 26 -18.5 39t-63.5 13q-40 0 -67 -13.5t-31 -38.5t18 -38.5t62 -13.5zM-26 0l555 700h149l306 -700h-126l-68 163h-553l-125 -163h-138
zM308 256h443l-154 377z" />
    <glyph glyph-name="AE" unicode="&#xc6;" horiz-adv-x="1421" 
d="M-26 0l711 700h717l-15 -82h-533l-40 -226h524l-12 -73h-524l-42 -237h533l-15 -82h-645l29 163h-396l-160 -163h-132zM346 245h330l73 410z" />
    <glyph glyph-name="Ccedilla" unicode="&#xc7;" horiz-adv-x="935" 
d="M898 395h-114q14 106 -59 167t-209 61q-141 0 -238.5 -73.5t-119.5 -199.5q-22 -125 49.5 -199t211.5 -74q136 0 231.5 61.5t117.5 166.5h114q-22 -123 -122 -206.5t-250 -106.5l-41 -60q151 -8 233 -36t74 -73q-8 -47 -131.5 -78t-313.5 -32l9 55q300 1 310 55
q3 18 -21.5 30t-91 19.5t-177.5 8.5l10 53l37 50h-4q-190 0 -288 100.5t-69 265.5t163 265.5t324 100.5t290 -88t75 -233z" />
    <glyph glyph-name="Egrave" unicode="&#xc8;" horiz-adv-x="810" 
d="M493 744l-259 164l18 102l255 -186zM29 0l124 700h638l-17 -93h-525l-37 -209h516l-14 -85h-517l-39 -220h525l-16 -93h-638z" />
    <glyph glyph-name="Eacute" unicode="&#xc9;" horiz-adv-x="810" 
d="M463 744l14 80l319 186l-18 -102zM29 0l124 700h638l-17 -93h-525l-37 -209h516l-14 -85h-517l-39 -220h525l-16 -93h-638z" />
    <glyph glyph-name="Ecircumflex" unicode="&#xca;" horiz-adv-x="810" 
d="M202 755l14 80l319 186l255 -186l-14 -80l-259 164zM29 0l124 700h638l-17 -93h-525l-37 -209h516l-14 -85h-517l-39 -220h525l-16 -93h-638z" />
    <glyph glyph-name="Edieresis" unicode="&#xcb;" horiz-adv-x="810" 
d="M345 738q-44 0 -67.5 23.5t-16.5 61.5t38.5 61.5t75.5 23.5q47 0 69 -23t15 -62t-37 -62t-77 -23zM635 738q-44 0 -67.5 23.5t-16.5 61.5t38.5 61.5t75.5 23.5q47 0 69 -23t15 -62t-37 -62t-77 -23zM29 0l124 700h638l-17 -93h-525l-37 -209h516l-14 -85h-517l-39 -220
h525l-16 -93h-638z" />
    <glyph glyph-name="Igrave" unicode="&#xcc;" horiz-adv-x="295" 
d="M223 744l-259 164l18 102l255 -186zM29 0l124 700h112l-124 -700h-112z" />
    <glyph glyph-name="Iacute" unicode="&#xcd;" horiz-adv-x="295" 
d="M193 744l14 80l319 186l-18 -102zM29 0l124 700h112l-124 -700h-112z" />
    <glyph glyph-name="Icircumflex" unicode="&#xce;" horiz-adv-x="295" 
d="M-68 755l14 80l319 186l255 -186l-14 -80l-259 164zM29 0l124 700h112l-124 -700h-112z" />
    <glyph glyph-name="Idieresis" unicode="&#xcf;" horiz-adv-x="295" 
d="M75 738q-44 0 -67.5 23.5t-16.5 61.5t38.5 61.5t75.5 23.5q47 0 69 -23t15 -62t-37 -62t-77 -23zM365 738q-44 0 -67.5 23.5t-16.5 61.5t38.5 61.5t75.5 23.5q47 0 69 -23t15 -62t-37 -62t-77 -23zM29 0l124 700h112l-124 -700h-112z" />
    <glyph glyph-name="Eth" unicode="&#xd0;" horiz-adv-x="871" 
d="M479 700q192 0 284 -90t62 -260q-30 -171 -154 -260.5t-316 -89.5h-326l55 309h-78l29 83h63l55 308h326zM724 350q21 118 -51 187.5t-210 69.5h-214l-38 -215h324l-29 -83h-310l-38 -216h213q139 0 236 69.5t117 187.5z" />
    <glyph glyph-name="Ntilde" unicode="&#xd1;" horiz-adv-x="967" 
d="M648 772q-31 0 -52.5 18t-37.5 36t-32 18q-28 0 -47.5 -18t-26.5 -53h-61q10 58 51 94t95 36q21 0 39 -11.5t28 -24.5t24.5 -24.5t30.5 -11.5q62 0 75 71h60q-11 -59 -51.5 -94.5t-94.5 -35.5zM29 0l124 700h114l459 -564l100 564h112l-124 -700h-115l-458 562l-100 -562
h-112z" />
    <glyph glyph-name="Ograve" unicode="&#xd2;" horiz-adv-x="976" 
d="M565 744l-259 164l18 102l255 -186zM423 -16q-203 0 -304.5 100t-72.5 266t166.5 266t340.5 100q204 0 305.5 -100t72.5 -266t-166.5 -266t-341.5 -100zM439 77q150 0 254 74t126 199q22 126 -55.5 199.5t-227.5 73.5q-149 0 -252.5 -73.5t-125.5 -199.5
q-22 -125 55 -199t226 -74z" />
    <glyph glyph-name="Oacute" unicode="&#xd3;" horiz-adv-x="976" 
d="M535 744l14 80l319 186l-18 -102zM423 -16q-203 0 -304.5 100t-72.5 266t166.5 266t340.5 100q204 0 305.5 -100t72.5 -266t-166.5 -266t-341.5 -100zM439 77q150 0 254 74t126 199q22 126 -55.5 199.5t-227.5 73.5q-149 0 -252.5 -73.5t-125.5 -199.5q-22 -125 55 -199
t226 -74z" />
    <glyph glyph-name="Ocircumflex" unicode="&#xd4;" horiz-adv-x="976" 
d="M274 755l14 80l319 186l255 -186l-14 -80l-259 164zM423 -16q-203 0 -304.5 100t-72.5 266t166.5 266t340.5 100q204 0 305.5 -100t72.5 -266t-166.5 -266t-341.5 -100zM439 77q150 0 254 74t126 199q22 126 -55.5 199.5t-227.5 73.5q-149 0 -252.5 -73.5t-125.5 -199.5
q-22 -125 55 -199t226 -74z" />
    <glyph glyph-name="Otilde" unicode="&#xd5;" horiz-adv-x="976" 
d="M648 772q-31 0 -52.5 18t-37.5 36t-32 18q-28 0 -47.5 -18t-26.5 -53h-61q10 58 51 94t95 36q21 0 39 -11.5t28 -24.5t24.5 -24.5t30.5 -11.5q62 0 75 71h60q-11 -59 -51.5 -94.5t-94.5 -35.5zM423 -16q-203 0 -304.5 100t-72.5 266t166.5 266t340.5 100
q204 0 305.5 -100t72.5 -266t-166.5 -266t-341.5 -100zM439 77q150 0 254 74t126 199q22 126 -55.5 199.5t-227.5 73.5q-149 0 -252.5 -73.5t-125.5 -199.5q-22 -125 55 -199t226 -74z" />
    <glyph glyph-name="Odieresis" unicode="&#xd6;" horiz-adv-x="976" 
d="M417 738q-44 0 -67.5 23.5t-16.5 61.5t38.5 61.5t75.5 23.5q47 0 69 -23t15 -62t-37 -62t-77 -23zM707 738q-44 0 -67.5 23.5t-16.5 61.5t38.5 61.5t75.5 23.5q47 0 69 -23t15 -62t-37 -62t-77 -23zM423 -16q-203 0 -304.5 100t-72.5 266t166.5 266t340.5 100
q204 0 305.5 -100t72.5 -266t-166.5 -266t-341.5 -100zM439 77q150 0 254 74t126 199q22 126 -55.5 199.5t-227.5 73.5q-149 0 -252.5 -73.5t-125.5 -199.5q-22 -125 55 -199t226 -74z" />
    <glyph glyph-name="multiply" unicode="&#xd7;" horiz-adv-x="600" 
d="M98 118l-48 59l181 154l-127 155l69 57l127 -154l182 156l48 -59l-182 -156l127 -153l-68 -59l-127 154z" />
    <glyph glyph-name="Oslash" unicode="&#xd8;" horiz-adv-x="976" 
d="M963 700l-101 -87q98 -99 69 -263q-29 -166 -166.5 -266t-341.5 -100q-141 0 -237 51l-40 -35h-126l98 84q-102 101 -72 266q29 166 166.5 266t340.5 100q144 0 241 -53l43 37h126zM158 350q-21 -117 47 -191l502 429q-70 35 -171 35q-149 0 -252.5 -73.5t-125.5 -199.5z
M819 350q19 116 -45 188l-500 -428q66 -33 165 -33q150 0 254 74t126 199z" />
    <glyph glyph-name="Ugrave" unicode="&#xd9;" horiz-adv-x="902" 
d="M528 744l-259 164l18 102l255 -186zM388 -16q-181 0 -254.5 88t-35.5 303l56 325h112l-63 -355q-24 -139 23.5 -204t177.5 -65t200 65t94 204l63 355h112l-56 -325q-38 -215 -143 -303t-286 -88z" />
    <glyph glyph-name="Uacute" unicode="&#xda;" horiz-adv-x="902" 
d="M498 744l14 80l319 186l-18 -102zM388 -16q-181 0 -254.5 88t-35.5 303l56 325h112l-63 -355q-24 -139 23.5 -204t177.5 -65t200 65t94 204l63 355h112l-56 -325q-38 -215 -143 -303t-286 -88z" />
    <glyph glyph-name="Ucircumflex" unicode="&#xdb;" horiz-adv-x="902" 
d="M237 755l14 80l319 186l255 -186l-14 -80l-259 164zM388 -16q-181 0 -254.5 88t-35.5 303l56 325h112l-63 -355q-24 -139 23.5 -204t177.5 -65t200 65t94 204l63 355h112l-56 -325q-38 -215 -143 -303t-286 -88z" />
    <glyph glyph-name="Udieresis" unicode="&#xdc;" horiz-adv-x="902" 
d="M380 738q-44 0 -67.5 23.5t-16.5 61.5t38.5 61.5t75.5 23.5q47 0 69 -23t15 -62t-37 -62t-77 -23zM670 738q-44 0 -67.5 23.5t-16.5 61.5t38.5 61.5t75.5 23.5q47 0 69 -23t15 -62t-37 -62t-77 -23zM388 -16q-181 0 -254.5 88t-35.5 303l56 325h112l-63 -355
q-24 -139 23.5 -204t177.5 -65t200 65t94 204l63 355h112l-56 -325q-38 -215 -143 -303t-286 -88z" />
    <glyph glyph-name="Yacute" unicode="&#xdd;" horiz-adv-x="868" 
d="M480 744l14 80l319 186l-18 -102zM316 0l40 226l-269 474h137l207 -368l337 368h137l-436 -472l-41 -228h-112z" />
    <glyph glyph-name="Thorn" unicode="&#xde;" horiz-adv-x="808" 
d="M21 0l124 700h115l-36 -200h355q106 0 159.5 -61.5t38.5 -152.5q-18 -103 -93 -158t-180 -55h-355l-12 -73h-116zM164 156h329q66 0 114 37t58 93q9 56 -25.5 93.5t-100.5 37.5h-329z" />
    <glyph glyph-name="germandbls" unicode="&#xdf;" horiz-adv-x="841" 
d="M321 -16q-66 2 -100 4l15 92q48 -3 91 -3q182 0 254 21.5t85 92.5q5 15 2.5 27.5t-5 23t-14 19t-25 15.5t-37.5 13t-51.5 10.5t-67.5 8.5t-85 7t-104 6l11 67q162 8 244 20.5t121 35.5t47 66q7 39 -13 58t-81.5 28t-188.5 9h-208l-106 -605h-113l124 700h330
q64 0 104 -1.5t90.5 -6.5t79 -16.5t54.5 -30.5t33.5 -49t0.5 -71q-16 -88 -101 -128t-258 -40l-2 -9q183 -6 259.5 -44.5t62.5 -116.5q-11 -62 -47.5 -103.5t-98.5 -63t-133 -29.5t-169 -7z" />
    <glyph glyph-name="agrave" unicode="&#xe0;" horiz-adv-x="672" 
d="M416 544l-259 164l18 102l255 -186zM185 -16q-33 0 -60.5 4.5t-55.5 17.5t-41 41t-6 69q6 34 30.5 61.5t64 45.5t80 30.5t93.5 20t89.5 11t83.5 7t60 4.5q13 78 -20 108t-126 30q-104 0 -246 -57l15 85q157 54 285 54q242 0 202 -234l-50 -282h-113l61 179h-7
q-39 -99 -128.5 -147t-210.5 -48zM295 71q81 13 140 51t73 105q-18 -1 -56 -3.5t-66 -5t-66 -6.5t-65 -10.5t-53 -16t-41.5 -24t-18.5 -32.5q-6 -38 36 -54t117 -4z" />
    <glyph glyph-name="aacute" unicode="&#xe1;" horiz-adv-x="672" 
d="M386 544l14 80l319 186l-18 -102zM185 -16q-33 0 -60.5 4.5t-55.5 17.5t-41 41t-6 69q6 34 30.5 61.5t64 45.5t80 30.5t93.5 20t89.5 11t83.5 7t60 4.5q13 78 -20 108t-126 30q-104 0 -246 -57l15 85q157 54 285 54q242 0 202 -234l-50 -282h-113l61 179h-7
q-39 -99 -128.5 -147t-210.5 -48zM295 71q81 13 140 51t73 105q-18 -1 -56 -3.5t-66 -5t-66 -6.5t-65 -10.5t-53 -16t-41.5 -24t-18.5 -32.5q-6 -38 36 -54t117 -4z" />
    <glyph glyph-name="acircumflex" unicode="&#xe2;" horiz-adv-x="672" 
d="M125 555l14 80l319 186l255 -186l-14 -80l-259 164zM185 -16q-33 0 -60.5 4.5t-55.5 17.5t-41 41t-6 69q6 34 30.5 61.5t64 45.5t80 30.5t93.5 20t89.5 11t83.5 7t60 4.5q13 78 -20 108t-126 30q-104 0 -246 -57l15 85q157 54 285 54q242 0 202 -234l-50 -282h-113
l61 179h-7q-39 -99 -128.5 -147t-210.5 -48zM295 71q81 13 140 51t73 105q-18 -1 -56 -3.5t-66 -5t-66 -6.5t-65 -10.5t-53 -16t-41.5 -24t-18.5 -32.5q-6 -38 36 -54t117 -4z" />
    <glyph glyph-name="atilde" unicode="&#xe3;" horiz-adv-x="672" 
d="M499 572q-31 0 -52.5 18t-37.5 36t-32 18q-28 0 -47.5 -18t-26.5 -53h-61q10 58 51 94t95 36q21 0 39 -11.5t28 -24.5t24.5 -24.5t30.5 -11.5q62 0 75 71h60q-11 -59 -51.5 -94.5t-94.5 -35.5zM185 -16q-33 0 -60.5 4.5t-55.5 17.5t-41 41t-6 69q6 34 30.5 61.5t64 45.5
t80 30.5t93.5 20t89.5 11t83.5 7t60 4.5q13 78 -20 108t-126 30q-104 0 -246 -57l15 85q157 54 285 54q242 0 202 -234l-50 -282h-113l61 179h-7q-39 -99 -128.5 -147t-210.5 -48zM295 71q81 13 140 51t73 105q-18 -1 -56 -3.5t-66 -5t-66 -6.5t-65 -10.5t-53 -16t-41.5 -24
t-18.5 -32.5q-6 -38 36 -54t117 -4z" />
    <glyph glyph-name="adieresis" unicode="&#xe4;" horiz-adv-x="672" 
d="M268 538q-44 0 -67.5 23.5t-16.5 61.5t38.5 61.5t75.5 23.5q47 0 69 -23t15 -62t-37 -62t-77 -23zM558 538q-44 0 -67.5 23.5t-16.5 61.5t38.5 61.5t75.5 23.5q47 0 69 -23t15 -62t-37 -62t-77 -23zM185 -16q-33 0 -60.5 4.5t-55.5 17.5t-41 41t-6 69q6 34 30.5 61.5
t64 45.5t80 30.5t93.5 20t89.5 11t83.5 7t60 4.5q13 78 -20 108t-126 30q-104 0 -246 -57l15 85q157 54 285 54q242 0 202 -234l-50 -282h-113l61 179h-7q-39 -99 -128.5 -147t-210.5 -48zM295 71q81 13 140 51t73 105q-18 -1 -56 -3.5t-66 -5t-66 -6.5t-65 -10.5t-53 -16
t-41.5 -24t-18.5 -32.5q-6 -38 36 -54t117 -4z" />
    <glyph glyph-name="aring" unicode="&#xe5;" horiz-adv-x="672" 
d="M409 538q-105 0 -174 29t-61 74t87 74t184 29q113 0 178 -28.5t57 -74.5t-83 -74.5t-188 -28.5zM418 589q41 0 68.5 13.5t31.5 38.5q4 26 -18.5 39t-63.5 13q-40 0 -67 -13.5t-31 -38.5t18 -38.5t62 -13.5zM185 -16q-33 0 -60.5 4.5t-55.5 17.5t-41 41t-6 69
q6 34 30.5 61.5t64 45.5t80 30.5t93.5 20t89.5 11t83.5 7t60 4.5q13 78 -20 108t-126 30q-104 0 -246 -57l15 85q157 54 285 54q242 0 202 -234l-50 -282h-113l61 179h-7q-39 -99 -128.5 -147t-210.5 -48zM295 71q81 13 140 51t73 105q-18 -1 -56 -3.5t-66 -5t-66 -6.5
t-65 -10.5t-53 -16t-41.5 -24t-18.5 -32.5q-6 -38 36 -54t117 -4z" />
    <glyph glyph-name="ae" unicode="&#xe6;" horiz-adv-x="1160" 
d="M185 -16q-33 0 -60.5 4.5t-55.5 17.5t-41 41t-6 69q6 33 28 60t60.5 45t74 30.5t90.5 20.5t86.5 12t85 8.5t64.5 5.5q14 83 -13.5 109.5t-120.5 26.5q-112 0 -246 -54l15 82q157 54 285 54q141 0 180 -86q100 86 249 86q134 0 205.5 -62.5t55.5 -164.5l-15 -82h-498
q-1 -75 52 -107t171 -32q29 0 56.5 2.5t45.5 6t41 10.5t33.5 11t33 13t29.5 12l-16 -90q-84 -30 -141 -39.5t-147 -9.5q-112 0 -180 50.5t-77 137.5q-82 -188 -324 -188zM620 276l395 8q13 83 -26.5 116t-142.5 33q-101 0 -153.5 -35t-72.5 -122zM295 71q80 12 136 50.5
t69 106.5q-18 -2 -57 -4.5t-65.5 -5t-64 -6.5t-63 -11t-51 -16.5t-40 -23.5t-17.5 -32q-6 -38 35.5 -54t117.5 -4z" />
    <glyph glyph-name="ccedilla" unicode="&#xe7;" horiz-adv-x="632" 
d="M337 -68q151 -8 233 -36t74 -73q-8 -47 -131.5 -78t-313.5 -32l9 55q300 1 310 55q3 18 -21.5 30t-91 19.5t-177.5 8.5l10 53l38 51q-121 11 -185 83t-45 182q21 121 120 193.5t241 72.5q64 0 110.5 -12.5t105.5 -41.5l-15 -91q-101 62 -189 62q-118 0 -180.5 -41.5
t-79.5 -141.5q-18 -100 30 -141.5t168 -41.5q105 0 207 58l-15 -87q-106 -44 -174 -51z" />
    <glyph glyph-name="egrave" unicode="&#xe8;" horiz-adv-x="693" 
d="M417 544l-259 164l18 102l255 -186zM300 -16q-136 0 -205.5 73t-48.5 193t116.5 193t231.5 73q134 0 206 -62.5t55 -164.5l-15 -82h-497q-1 -75 51.5 -107t169.5 -32q29 0 56.5 2.5t45.5 6t41 10.5t33.5 11t33 13t29.5 12l-15 -90q-85 -30 -142 -39.5t-146 -9.5zM154 276
l395 8q12 82 -27.5 115.5t-142.5 33.5q-100 0 -152.5 -35.5t-72.5 -121.5z" />
    <glyph glyph-name="eacute" unicode="&#xe9;" horiz-adv-x="693" 
d="M375 544l14 80l319 186l-18 -102zM300 -16q-136 0 -205.5 73t-48.5 193t116.5 193t231.5 73q134 0 206 -62.5t55 -164.5l-15 -82h-497q-1 -75 51.5 -107t169.5 -32q29 0 56.5 2.5t45.5 6t41 10.5t33.5 11t33 13t29.5 12l-15 -90q-85 -30 -142 -39.5t-146 -9.5zM154 276
l395 8q12 82 -27.5 115.5t-142.5 33.5q-100 0 -152.5 -35.5t-72.5 -121.5z" />
    <glyph glyph-name="ecircumflex" unicode="&#xea;" horiz-adv-x="693" 
d="M114 555l14 80l319 186l255 -186l-14 -80l-259 164zM300 -16q-136 0 -205.5 73t-48.5 193t116.5 193t231.5 73q134 0 206 -62.5t55 -164.5l-15 -82h-497q-1 -75 51.5 -107t169.5 -32q29 0 56.5 2.5t45.5 6t41 10.5t33.5 11t33 13t29.5 12l-15 -90q-85 -30 -142 -39.5
t-146 -9.5zM154 276l395 8q12 82 -27.5 115.5t-142.5 33.5q-100 0 -152.5 -35.5t-72.5 -121.5z" />
    <glyph glyph-name="edieresis" unicode="&#xeb;" horiz-adv-x="693" 
d="M257 538q-44 0 -67.5 23.5t-16.5 61.5t38.5 61.5t75.5 23.5q47 0 69 -23t15 -62t-37 -62t-77 -23zM547 538q-44 0 -67.5 23.5t-16.5 61.5t38.5 61.5t75.5 23.5q47 0 69 -23t15 -62t-37 -62t-77 -23zM300 -16q-136 0 -205.5 73t-48.5 193t116.5 193t231.5 73
q134 0 206 -62.5t55 -164.5l-15 -82h-497q-1 -75 51.5 -107t169.5 -32q29 0 56.5 2.5t45.5 6t41 10.5t33.5 11t33 13t29.5 12l-15 -90q-85 -30 -142 -39.5t-146 -9.5zM154 276l395 8q12 82 -27.5 115.5t-142.5 33.5q-100 0 -152.5 -35.5t-72.5 -121.5z" />
    <glyph glyph-name="igrave" unicode="&#xec;" horiz-adv-x="176" 
d="M154 541l-230 164l36 102l222 -186zM-12 0l88 500h112l-88 -500h-112z" />
    <glyph glyph-name="iacute" unicode="&#xed;" horiz-adv-x="176" 
d="M116 541l14 80l319 186l-18 -102zM-12 0l88 500h112l-88 -500h-112z" />
    <glyph glyph-name="icircumflex" unicode="&#xee;" horiz-adv-x="176" 
d="M-135 552l28 80l352 186l222 -186l-28 -80l-230 164zM-12 0l88 500h112l-88 -500h-112z" />
    <glyph glyph-name="idieresis" unicode="&#xef;" horiz-adv-x="176" 
d="M5 535q-44 0 -63 23.5t-6 61.5t49 61.5t80 23.5q47 0 65 -23t4 -62t-48 -62t-81 -23zM295 535q-44 0 -63 23.5t-6 61.5t49 61.5t80 23.5q47 0 65 -23t4 -62t-48 -62t-81 -23zM-12 0l88 500h112l-88 -500h-112z" />
    <glyph glyph-name="eth" unicode="&#xf0;" horiz-adv-x="815" 
d="M328 -12q-169 0 -254.5 60.5t-71.5 163.5q16 111 108 179.5t255 68.5q103 0 177.5 -43.5t116.5 -103.5q42 169 -23 265l-245 -67l-14 76l195 54q-70 43 -177 53l16 61q170 0 271 -84l156 43l17 -75l-115 -32q66 -103 42 -245q-33 -188 -150 -281t-304 -93zM352 70
q110 0 177 38t104 122q-22 73 -94 124t-159 51q-104 0 -176 -46t-85 -122q-13 -75 51 -121t182 -46z" />
    <glyph glyph-name="ntilde" unicode="&#xf1;" horiz-adv-x="685" 
d="M483 572q-31 0 -52.5 18t-37.5 36t-32 18q-28 0 -47.5 -18t-26.5 -53h-61q10 58 51 94t95 36q21 0 39 -11.5t28 -24.5t24.5 -24.5t30.5 -11.5q62 0 75 71h60q-11 -59 -51.5 -94.5t-94.5 -35.5zM28 0l88 500h126l-57 -206h6q34 96 106.5 159t175.5 63q108 -2 147.5 -75
t13.5 -224l-38 -217h-112l35 200q20 121 -5.5 176.5t-103.5 55.5q-88 0 -154 -78.5t-92 -214.5l-24 -139h-112z" />
    <glyph glyph-name="ograve" unicode="&#xf2;" horiz-adv-x="711" 
d="M414 544l-259 164l18 102l255 -186zM308 -16q-139 0 -211 73t-51 193t118.5 193t237.5 73t212 -73t51 -193t-119 -193t-238 -73zM323 67q93 0 159.5 50.5t80.5 132.5t-34 132.5t-141 50.5t-159.5 -50.5t-80.5 -132.5t34 -132.5t141 -50.5z" />
    <glyph glyph-name="oacute" unicode="&#xf3;" horiz-adv-x="711" 
d="M384 544l14 80l319 186l-18 -102zM308 -16q-139 0 -211 73t-51 193t118.5 193t237.5 73t212 -73t51 -193t-119 -193t-238 -73zM323 67q93 0 159.5 50.5t80.5 132.5t-34 132.5t-141 50.5t-159.5 -50.5t-80.5 -132.5t34 -132.5t141 -50.5z" />
    <glyph glyph-name="ocircumflex" unicode="&#xf4;" horiz-adv-x="711" 
d="M123 555l14 80l319 186l255 -186l-14 -80l-259 164zM308 -16q-139 0 -211 73t-51 193t118.5 193t237.5 73t212 -73t51 -193t-119 -193t-238 -73zM323 67q93 0 159.5 50.5t80.5 132.5t-34 132.5t-141 50.5t-159.5 -50.5t-80.5 -132.5t34 -132.5t141 -50.5z" />
    <glyph glyph-name="otilde" unicode="&#xf5;" horiz-adv-x="711" 
d="M497 572q-31 0 -52.5 18t-37.5 36t-32 18q-28 0 -47.5 -18t-26.5 -53h-61q10 58 51 94t95 36q21 0 39 -11.5t28 -24.5t24.5 -24.5t30.5 -11.5q62 0 75 71h60q-11 -59 -51.5 -94.5t-94.5 -35.5zM308 -16q-139 0 -211 73t-51 193t118.5 193t237.5 73t212 -73t51 -193
t-119 -193t-238 -73zM323 67q93 0 159.5 50.5t80.5 132.5t-34 132.5t-141 50.5t-159.5 -50.5t-80.5 -132.5t34 -132.5t141 -50.5z" />
    <glyph glyph-name="odieresis" unicode="&#xf6;" horiz-adv-x="711" 
d="M280 538q-44 0 -67.5 23.5t-16.5 61.5t38.5 61.5t75.5 23.5q47 0 69 -23t15 -62t-37 -62t-77 -23zM570 538q-44 0 -67.5 23.5t-16.5 61.5t38.5 61.5t75.5 23.5q47 0 69 -23t15 -62t-37 -62t-77 -23zM308 -16q-139 0 -211 73t-51 193t118.5 193t237.5 73t212 -73t51 -193
t-119 -193t-238 -73zM323 67q93 0 159.5 50.5t80.5 132.5t-34 132.5t-141 50.5t-159.5 -50.5t-80.5 -132.5t34 -132.5t141 -50.5z" />
    <glyph glyph-name="divide" unicode="&#xf7;" horiz-adv-x="600" 
d="M330 441q-26 0 -43 19t-12 44q4 26 28 44.5t50 18.5q27 0 44 -18.5t13 -44.5q-5 -26 -28.5 -44.5t-51.5 -18.5zM34 242l14 83h520l-14 -83h-520zM250 -18q-26 0 -43 19t-12 44q4 26 28 44.5t50 18.5q27 0 44 -18.5t13 -44.5q-5 -26 -28.5 -44.5t-51.5 -18.5z" />
    <glyph glyph-name="oslash" unicode="&#xf8;" horiz-adv-x="711" 
d="M765 500l-124 -91q40 -67 24 -159q-21 -120 -119 -193t-238 -73q-111 0 -181 48l-44 -32h-126l117 86q-45 66 -28 164q21 120 118.5 193t237.5 73q116 0 188 -52l49 36h126zM148 250q-10 -57 12 -101l346 253q-47 31 -118 31q-93 0 -159.5 -50.5t-80.5 -132.5zM563 250
q9 54 -9 95l-343 -251q46 -27 112 -27q93 0 159.5 50.5t80.5 132.5z" />
    <glyph glyph-name="ugrave" unicode="&#xf9;" horiz-adv-x="685" 
d="M387 544l-259 164l18 102l255 -186zM657 500l-88 -500h-126l57 206h-6q-34 -96 -106.5 -159t-175.5 -63q-108 2 -147.5 75t-13.5 224l38 217h112l-35 -200q-20 -121 5.5 -176.5t103.5 -55.5q88 0 154 78.5t92 214.5l24 139h112z" />
    <glyph glyph-name="uacute" unicode="&#xfa;" horiz-adv-x="685" 
d="M357 544l14 80l319 186l-18 -102zM657 500l-88 -500h-126l57 206h-6q-34 -96 -106.5 -159t-175.5 -63q-108 2 -147.5 75t-13.5 224l38 217h112l-35 -200q-20 -121 5.5 -176.5t103.5 -55.5q88 0 154 78.5t92 214.5l24 139h112z" />
    <glyph glyph-name="ucircumflex" unicode="&#xfb;" horiz-adv-x="685" 
d="M96 555l14 80l319 186l255 -186l-14 -80l-259 164zM657 500l-88 -500h-126l57 206h-6q-34 -96 -106.5 -159t-175.5 -63q-108 2 -147.5 75t-13.5 224l38 217h112l-35 -200q-20 -121 5.5 -176.5t103.5 -55.5q88 0 154 78.5t92 214.5l24 139h112z" />
    <glyph glyph-name="udieresis" unicode="&#xfc;" horiz-adv-x="685" 
d="M239 538q-44 0 -67.5 23.5t-16.5 61.5t38.5 61.5t75.5 23.5q47 0 69 -23t15 -62t-37 -62t-77 -23zM529 538q-44 0 -67.5 23.5t-16.5 61.5t38.5 61.5t75.5 23.5q47 0 69 -23t15 -62t-37 -62t-77 -23zM657 500l-88 -500h-126l57 206h-6q-34 -96 -106.5 -159t-175.5 -63
q-108 2 -147.5 75t-13.5 224l38 217h112l-35 -200q-20 -121 5.5 -176.5t103.5 -55.5q88 0 154 78.5t92 214.5l24 139h112z" />
    <glyph glyph-name="yacute" unicode="&#xfd;" horiz-adv-x="755" 
d="M437 544l14 80l319 186l-18 -102zM167 -200l148 195l-228 505h120l166 -412l309 412h110l-515 -700h-110z" />
    <glyph glyph-name="thorn" unicode="&#xfe;" horiz-adv-x="671" 
d="M-4 -200l68 900h116l-50 -363h13q25 90 99 134.5t176 44.5q105 0 168.5 -75.5t54.5 -194.5q-9 -115 -84 -188.5t-181 -73.5q-99 0 -162 44.5t-75 133.5h-4v-1l-27 -361h-112zM338 55q174 0 191 193q8 96 -33 146.5t-127 50.5q-76 0 -130.5 -49.5t-62.5 -147.5
q-8 -97 38.5 -145t123.5 -48z" />
    <glyph glyph-name="ydieresis" unicode="&#xff;" horiz-adv-x="755" 
d="M319 538q-44 0 -67.5 23.5t-16.5 61.5t38.5 61.5t75.5 23.5q47 0 69 -23t15 -62t-37 -62t-77 -23zM609 538q-44 0 -67.5 23.5t-16.5 61.5t38.5 61.5t75.5 23.5q47 0 69 -23t15 -62t-37 -62t-77 -23zM167 -200l148 195l-228 505h120l166 -412l309 412h110l-515 -700h-110z
" />
    <glyph glyph-name="Amacron" unicode="&#x100;" horiz-adv-x="1083" 
d="M358 846l10 54h532l-10 -54h-532zM-26 0l555 700h149l306 -700h-126l-68 163h-553l-125 -163h-138zM308 256h443l-154 377z" />
    <glyph glyph-name="amacron" unicode="&#x101;" horiz-adv-x="672" 
d="M162 646l10 54h532l-10 -54h-532zM185 -16q-33 0 -60.5 4.5t-55.5 17.5t-41 41t-6 69q6 34 30.5 61.5t64 45.5t80 30.5t93.5 20t89.5 11t83.5 7t60 4.5q13 78 -20 108t-126 30q-104 0 -246 -57l15 85q157 54 285 54q242 0 202 -234l-50 -282h-113l61 179h-7
q-39 -99 -128.5 -147t-210.5 -48zM295 71q81 13 140 51t73 105q-18 -1 -56 -3.5t-66 -5t-66 -6.5t-65 -10.5t-53 -16t-41.5 -24t-18.5 -32.5q-6 -38 36 -54t117 -4z" />
    <glyph glyph-name="Abreve" unicode="&#x102;" horiz-adv-x="1083" 
d="M607 751q-93 0 -145.5 41t-41.5 108h105q-6 -40 20 -60.5t74 -20.5q103 0 124 81h103q-13 -69 -76 -109t-163 -40zM-26 0l555 700h149l306 -700h-126l-68 163h-553l-125 -163h-138zM308 256h443l-154 377z" />
    <glyph glyph-name="abreve" unicode="&#x103;" horiz-adv-x="672" 
d="M411 551q-93 0 -145.5 41t-41.5 108h105q-6 -40 20 -60.5t74 -20.5q103 0 124 81h103q-13 -69 -76 -109t-163 -40zM185 -16q-33 0 -60.5 4.5t-55.5 17.5t-41 41t-6 69q6 34 30.5 61.5t64 45.5t80 30.5t93.5 20t89.5 11t83.5 7t60 4.5q13 78 -20 108t-126 30
q-104 0 -246 -57l15 85q157 54 285 54q242 0 202 -234l-50 -282h-113l61 179h-7q-39 -99 -128.5 -147t-210.5 -48zM295 71q81 13 140 51t73 105q-18 -1 -56 -3.5t-66 -5t-66 -6.5t-65 -10.5t-53 -16t-41.5 -24t-18.5 -32.5q-6 -38 36 -54t117 -4z" />
    <glyph glyph-name="Aogonek" unicode="&#x104;" horiz-adv-x="1083" 
d="M933 0q-66 -59 -40 -110q25 -48 115 -54q48 -2 105 10l-13 -60q-161 -47 -254 21.5t19 192.5h-7l-68 163h-553l-125 -163h-138l555 700h149l280 -640q6 -4 6 -14l20 -46h-51zM308 256h443l-154 377z" />
    <glyph glyph-name="aogonek" unicode="&#x105;" horiz-adv-x="672" 
d="M514 0q-66 -59 -40 -110q25 -48 115 -54q48 -2 105 10l-13 -60q-52 -15 -104 -16t-92.5 10.5t-66.5 35t-32 55t17 73.5t76 87l2 2l50 146h-7q-39 -99 -128.5 -147t-210.5 -48q-33 0 -60.5 4.5t-55.5 17.5t-41 41t-6 69q6 34 30.5 61.5t64 45.5t80 30.5t93.5 20t89.5 11
t83.5 7t60 4.5q13 78 -20 108t-126 30q-104 0 -246 -57l15 85q157 54 285 54q242 0 202 -234l-50 -282h-69zM295 71q81 13 140 51t73 105q-18 -1 -56 -3.5t-66 -5t-66 -6.5t-65 -10.5t-53 -16t-41.5 -24t-18.5 -32.5q-6 -38 36 -54t117 -4z" />
    <glyph glyph-name="Cacute" unicode="&#x106;" horiz-adv-x="935" 
d="M522 744l28 80l352 186l-36 -102zM403 -16q-190 0 -288 100.5t-69 265.5t163 265.5t324 100.5t290 -88t75 -233h-114q14 106 -59 167t-209 61q-141 0 -238.5 -73.5t-119.5 -199.5q-22 -125 49.5 -199t211.5 -74q136 0 231.5 61.5t117.5 166.5h114q-25 -145 -157 -233
t-322 -88z" />
    <glyph glyph-name="cacute" unicode="&#x107;" horiz-adv-x="632" 
d="M396 544l28 80l352 186l-36 -102zM312 -16q-137 0 -212 73.5t-54 192.5q21 121 120 193.5t241 72.5q64 0 110.5 -12.5t105.5 -41.5l-15 -91q-101 62 -189 62q-118 0 -180.5 -41.5t-79.5 -141.5q-18 -100 30 -141.5t168 -41.5q105 0 207 58l-15 -87q-75 -31 -121.5 -42.5
t-115.5 -11.5z" />
    <glyph glyph-name="Cdotaccent" unicode="&#x10a;" horiz-adv-x="935" 
d="M555 738q-44 0 -63 23.5t-6 61.5t49 61.5t80 23.5q47 0 65 -23t4 -62t-48 -62t-81 -23zM403 -16q-190 0 -288 100.5t-69 265.5t163 265.5t324 100.5t290 -88t75 -233h-114q14 106 -59 167t-209 61q-141 0 -238.5 -73.5t-119.5 -199.5q-22 -125 49.5 -199t211.5 -74
q136 0 231.5 61.5t117.5 166.5h114q-25 -145 -157 -233t-322 -88z" />
    <glyph glyph-name="cdotaccent" unicode="&#x10b;" horiz-adv-x="632" 
d="M418 538q-44 0 -63 23.5t-6 61.5t49 61.5t80 23.5q47 0 65 -23t4 -62t-48 -62t-81 -23zM312 -16q-137 0 -212 73.5t-54 192.5q21 121 120 193.5t241 72.5q64 0 110.5 -12.5t105.5 -41.5l-15 -91q-101 62 -189 62q-118 0 -180.5 -41.5t-79.5 -141.5q-18 -100 30 -141.5
t168 -41.5q105 0 207 58l-15 -87q-75 -31 -121.5 -42.5t-115.5 -11.5z" />
    <glyph glyph-name="Ccaron" unicode="&#x10c;" horiz-adv-x="935" 
d="M540 755l-255 186l14 80l259 -164l315 164l-14 -80zM403 -16q-190 0 -288 100.5t-69 265.5t163 265.5t324 100.5t290 -88t75 -233h-114q14 106 -59 167t-209 61q-141 0 -238.5 -73.5t-119.5 -199.5q-22 -125 49.5 -199t211.5 -74q136 0 231.5 61.5t117.5 166.5h114
q-25 -145 -157 -233t-322 -88z" />
    <glyph glyph-name="ccaron" unicode="&#x10d;" horiz-adv-x="632" 
d="M414 555l-255 186l14 80l259 -164l315 164l-14 -80zM312 -16q-137 0 -212 73.5t-54 192.5q21 121 120 193.5t241 72.5q64 0 110.5 -12.5t105.5 -41.5l-15 -91q-101 62 -189 62q-118 0 -180.5 -41.5t-79.5 -141.5q-18 -100 30 -141.5t168 -41.5q105 0 207 58l-15 -87
q-75 -31 -121.5 -42.5t-115.5 -11.5z" />
    <glyph glyph-name="Dcaron" unicode="&#x10e;" horiz-adv-x="871" 
d="M496 755l-255 186l14 80l259 -164l315 164l-14 -80zM29 0l124 700h326q192 0 284 -90t62 -260q-30 -171 -154 -260.5t-316 -89.5h-326zM158 93h213q139 0 236 69.5t117 187.5q21 118 -51 187.5t-210 69.5h-214z" />
    <glyph glyph-name="dcaron" unicode="&#x10f;" horiz-adv-x="916" 
d="M245 -16q-107 0 -171.5 76t-42.5 194q20 114 111 188t199 74q101 0 169 -45t70 -133h4l1 1l63 361h112l-124 -700h-116l50 163h-11q-33 -89 -121.5 -134t-192.5 -45zM747 429l111 270h103l-161 -270h-53zM307 67q83 0 150 52t81 133q15 79 -34 130t-132 51
q-89 0 -151.5 -50t-76.5 -131q-15 -83 29.5 -134t133.5 -51z" />
    <glyph glyph-name="Dcroat" unicode="&#x110;" horiz-adv-x="871" 
d="M479 700q192 0 284 -90t62 -260q-30 -171 -154 -260.5t-316 -89.5h-326l55 309h-78l29 83h63l55 308h326zM724 350q21 118 -51 187.5t-210 69.5h-214l-38 -215h324l-29 -83h-310l-38 -216h213q139 0 236 69.5t117 187.5z" />
    <glyph glyph-name="dcroat" unicode="&#x111;" horiz-adv-x="779" 
d="M766 639l-18 -103h-17l-95 -536h-116l50 163h-11q-33 -89 -121.5 -134t-192.5 -45q-107 0 -171.5 76t-42.5 194q20 114 111 188t199 74q101 0 169 -45t70 -133h4l1 1l34 197h-329l18 103h329l11 61h112l-11 -61h17zM538 252q15 79 -34 130t-132 51q-89 0 -151.5 -50
t-76.5 -131q-15 -83 29.5 -134t133.5 -51q83 0 150 52t81 133z" />
    <glyph glyph-name="Emacron" unicode="&#x112;" horiz-adv-x="810" 
d="M239 846l10 54h532l-10 -54h-532zM29 0l124 700h638l-17 -93h-525l-37 -209h516l-14 -85h-517l-39 -220h525l-16 -93h-638z" />
    <glyph glyph-name="emacron" unicode="&#x113;" horiz-adv-x="693" 
d="M151 646l10 54h532l-10 -54h-532zM300 -16q-136 0 -205.5 73t-48.5 193t116.5 193t231.5 73q134 0 206 -62.5t55 -164.5l-15 -82h-497q-1 -75 51.5 -107t169.5 -32q29 0 56.5 2.5t45.5 6t41 10.5t33.5 11t33 13t29.5 12l-15 -90q-85 -30 -142 -39.5t-146 -9.5zM154 276
l395 8q12 82 -27.5 115.5t-142.5 33.5q-100 0 -152.5 -35.5t-72.5 -121.5z" />
    <glyph glyph-name="Edotaccent" unicode="&#x116;" horiz-adv-x="810" 
d="M493 738q-44 0 -63 23.5t-6 61.5t49 61.5t80 23.5q47 0 65 -23t4 -62t-48 -62t-81 -23zM29 0l124 700h638l-17 -93h-525l-37 -209h516l-14 -85h-517l-39 -220h525l-16 -93h-638z" />
    <glyph glyph-name="edotaccent" unicode="&#x117;" horiz-adv-x="693" 
d="M405 538q-44 0 -63 23.5t-6 61.5t49 61.5t80 23.5q47 0 65 -23t4 -62t-48 -62t-81 -23zM300 -16q-136 0 -205.5 73t-48.5 193t116.5 193t231.5 73q134 0 206 -62.5t55 -164.5l-15 -82h-497q-1 -75 51.5 -107t169.5 -32q29 0 56.5 2.5t45.5 6t41 10.5t33.5 11t33 13
t29.5 12l-15 -90q-85 -30 -142 -39.5t-146 -9.5zM154 276l395 8q12 82 -27.5 115.5t-142.5 33.5q-100 0 -152.5 -35.5t-72.5 -121.5z" />
    <glyph glyph-name="Eogonek" unicode="&#x118;" horiz-adv-x="810" 
d="M774 607h-525l-37 -209h516l-14 -85h-517l-39 -220h525l-16 -93h-276q-66 -59 -40 -110q25 -48 115 -54q48 -2 105 10l-13 -60q-161 -47 -254 21.5t19 192.5h-294l124 700h638z" />
    <glyph glyph-name="eogonek" unicode="&#x119;" horiz-adv-x="693" 
d="M394 516q134 0 206 -62.5t55 -164.5l-15 -82h-497q-1 -75 51.5 -107t169.5 -32q29 0 56.5 2.5t45.5 6t41 10.5t33.5 11t33 13t29.5 12l-15 -90q-108 -37 -183 -45q-55 -58 -23 -105q33 -48 131 -47q40 0 85 10l-13 -60q-97 -28 -181.5 -9t-107 72.5t39.5 134.5h-36
q-136 0 -205.5 73t-48.5 193t116.5 193t231.5 73zM549 284q12 82 -27.5 115.5t-142.5 33.5q-100 0 -152.5 -35.5t-72.5 -121.5z" />
    <glyph glyph-name="Ecaron" unicode="&#x11a;" horiz-adv-x="810" 
d="M489 755l-255 186l14 80l259 -164l315 164l-14 -80zM29 0l124 700h638l-17 -93h-525l-37 -209h516l-14 -85h-517l-39 -220h525l-16 -93h-638z" />
    <glyph glyph-name="ecaron" unicode="&#x11b;" horiz-adv-x="693" 
d="M401 555l-255 186l14 80l259 -164l315 164l-14 -80zM300 -16q-136 0 -205.5 73t-48.5 193t116.5 193t231.5 73q134 0 206 -62.5t55 -164.5l-15 -82h-497q-1 -75 51.5 -107t169.5 -32q29 0 56.5 2.5t45.5 6t41 10.5t33.5 11t33 13t29.5 12l-15 -90q-85 -30 -142 -39.5
t-146 -9.5zM154 276l395 8q12 82 -27.5 115.5t-142.5 33.5q-100 0 -152.5 -35.5t-72.5 -121.5z" />
    <glyph glyph-name="Gbreve" unicode="&#x11e;" horiz-adv-x="971" 
d="M558 751q-92 0 -137.5 41t-23.5 108h105q-12 -40 10 -60.5t70 -20.5q104 0 138 81h103q-24 -69 -94 -109t-171 -40zM413 -16q-190 0 -288 100.5t-69 265.5t163 265.5t324 100.5q179 0 276.5 -74.5t84.5 -197.5h-109q6 85 -64 132t-205 47q-141 0 -238.5 -73.5
t-119.5 -199.5q-22 -125 49.5 -199t211.5 -74q133 0 226 54t119 147h-414l15 87h526l-65 -365h-104l29 123q-63 -69 -155.5 -104t-192.5 -35z" />
    <glyph glyph-name="gbreve" unicode="&#x11f;" horiz-adv-x="775" 
d="M515 551q-92 0 -137.5 41t-23.5 108h105q-12 -40 10 -60.5t70 -20.5q104 0 138 81h103q-24 -69 -94 -109t-171 -40zM322 -200q-78 0 -121 10.5t-101 34.5q-9 4 -14 6l18 101q36 -31 101.5 -50t137.5 -19q106 0 166 46t74 123l22 96q-37 -82 -124 -124.5t-186 -42.5
q-106 0 -170.5 77.5t-43.5 195.5q20 114 111.5 188t199.5 74q100 0 168 -45t71 -133h13l18 162h101l-77 -440q-23 -130 -120 -195t-244 -65zM358 67q82 0 149.5 52t81.5 133q14 79 -35 130t-132 51q-89 0 -151 -50t-76 -131q-15 -83 29.5 -134t133.5 -51z" />
    <glyph glyph-name="Gdotaccent" unicode="&#x120;" horiz-adv-x="971" 
d="M554 738q-44 0 -63 23.5t-6 61.5t49 61.5t80 23.5q47 0 65 -23t4 -62t-48 -62t-81 -23zM413 -16q-190 0 -288 100.5t-69 265.5t163 265.5t324 100.5q179 0 276.5 -74.5t84.5 -197.5h-109q6 85 -64 132t-205 47q-141 0 -238.5 -73.5t-119.5 -199.5q-22 -125 49.5 -199
t211.5 -74q133 0 226 54t119 147h-414l15 87h526l-65 -365h-104l29 123q-63 -69 -155.5 -104t-192.5 -35z" />
    <glyph glyph-name="gdotaccent" unicode="&#x121;" horiz-adv-x="775" 
d="M511 538q-44 0 -63 23.5t-6 61.5t49 61.5t80 23.5q47 0 65 -23t4 -62t-48 -62t-81 -23zM322 -200q-78 0 -121 10.5t-101 34.5q-9 4 -14 6l18 101q36 -31 101.5 -50t137.5 -19q106 0 166 46t74 123l22 96q-37 -82 -124 -124.5t-186 -42.5q-106 0 -170.5 77.5t-43.5 195.5
q20 114 111.5 188t199.5 74q100 0 168 -45t71 -133h13l18 162h101l-77 -440q-23 -130 -120 -195t-244 -65zM358 67q82 0 149.5 52t81.5 133q14 79 -35 130t-132 51q-89 0 -151 -50t-76 -131q-15 -83 29.5 -134t133.5 -51z" />
    <glyph glyph-name="Gcommaaccent" unicode="&#x122;" horiz-adv-x="971" 
d="M413 -16q-190 0 -288 100.5t-69 265.5t163 265.5t324 100.5q179 0 276.5 -74.5t84.5 -197.5h-109q6 85 -64 132t-205 47q-141 0 -238.5 -73.5t-119.5 -199.5q-22 -125 49.5 -199t211.5 -74q133 0 226 54t119 147h-414l15 87h526l-65 -365h-104l29 123
q-63 -69 -155.5 -104t-192.5 -35zM302 -350l111 270h103l-161 -270h-53z" />
    <glyph glyph-name="gcommaaccent" unicode="&#x123;" horiz-adv-x="766" 
d="M322 -200q-78 0 -121 10.5t-101 34.5q-9 4 -14 6l18 101q36 -31 101.5 -50t137.5 -19q106 0 166 46t74 123l22 96q-37 -82 -124 -124.5t-186 -42.5q-106 0 -170.5 77.5t-43.5 195.5q20 114 111.5 188t199.5 74q100 0 168 -45t71 -133h13l18 162h101l-77 -440
q-23 -130 -120 -195t-244 -65zM358 67q82 0 149.5 52t81.5 133q14 79 -35 130t-132 51q-89 0 -151 -50t-76 -131q-15 -83 29.5 -134t133.5 -51zM237 -532l111 270h103l-161 -270h-53z" />
    <glyph glyph-name="Hbar" unicode="&#x126;" horiz-adv-x="908" 
d="M914 642l-15 -88h-47l-98 -554h-112l56 314h-501l-56 -314h-112l98 554h-51l15 88h52l10 58h112l-10 -58h501l10 58h112l-10 -58h46zM714 407l26 147h-501l-26 -147h501z" />
    <glyph glyph-name="hbar" unicode="&#x127;" horiz-adv-x="686" 
d="M457 516q108 -2 147.5 -75t13.5 -224l-39 -217h-112l36 200q20 121 -5.5 176.5t-103.5 55.5q-91 0 -157.5 -83t-91.5 -226v2l-22 -125h-112l95 536h-100l18 103h100l11 61h126l-14 -61h235l-18 -103h-240l-55 -242h6q34 96 106.5 159t175.5 63z" />
    <glyph glyph-name="Imacron" unicode="&#x12a;" horiz-adv-x="295" 
d="M-31 846l10 54h532l-10 -54h-532zM29 0l124 700h112l-124 -700h-112z" />
    <glyph glyph-name="imacron" unicode="&#x12b;" horiz-adv-x="176" 
d="M-82 643l19 54h532l-19 -54h-532zM-12 0l88 500h112l-88 -500h-112z" />
    <glyph glyph-name="Iogonek" unicode="&#x12e;" horiz-adv-x="295" 
d="M88 0q-66 -59 -40 -110q25 -48 115 -54q48 -2 105 10l-13 -60q-102 -30 -189.5 -7.5t-103 83t68.5 149.5l122 689h112l-124 -700h-53z" />
    <glyph glyph-name="iogonek" unicode="&#x12f;" horiz-adv-x="284" 
d="M207 747q33 0 50 -18.5t12 -50.5q-6 -33 -30 -51t-57 -18q-32 0 -48.5 18t-10.5 51q5 32 28.5 50.5t55.5 18.5zM71 0q-77 -59 -59 -110q17 -47 103 -53q49 -4 110 9l-24 -60q-53 -15 -104 -16t-89.5 9.5t-61.5 32.5t-25.5 52t23.5 70t80 83l85 483h112l-88 -500h-62z" />
    <glyph glyph-name="Idotaccent" unicode="&#x130;" horiz-adv-x="295" 
d="M216 738q-44 0 -67.5 23.5t-16.5 61.5t38.5 61.5t75.5 23.5q47 0 69 -23t15 -62t-37 -62t-77 -23zM29 0l124 700h112l-124 -700h-112z" />
    <glyph glyph-name="dotlessi" unicode="&#x131;" horiz-adv-x="176" 
d="M-12 0l88 500h112l-88 -500h-112z" />
    <glyph glyph-name="Kcommaaccent" unicode="&#x136;" horiz-adv-x="950" 
d="M29 0l124 700h112l-76 -433l584 433h154l-334 -243l231 -457h-135l-192 389l-330 -239l-26 -150h-112zM246 -350l111 270h103l-161 -270h-53z" />
    <glyph glyph-name="kcommaaccent" unicode="&#x137;" horiz-adv-x="733" 
d="M11 0l124 700h112l-85 -473l373 273h166l-236 -161l153 -339h-137l-109 275l-228 -156l-21 -119h-112zM124 -350l111 270h103l-161 -270h-53z" />
    <glyph glyph-name="Lacute" unicode="&#x139;" horiz-adv-x="755" 
d="M206 744l28 80l352 186l-36 -102zM29 0l124 700h112l-107 -607h510l-16 -93h-623z" />
    <glyph glyph-name="lacute" unicode="&#x13a;" horiz-adv-x="257" 
d="M176 744l14 80l319 186l-18 -102zM11 0l124 700h112l-124 -700h-112z" />
    <glyph glyph-name="Lcommaaccent" unicode="&#x13b;" horiz-adv-x="755" 
d="M29 0l124 700h112l-107 -607h510l-16 -93h-623zM173 -350l111 270h103l-161 -270h-53z" />
    <glyph glyph-name="lcommaaccent" unicode="&#x13c;" horiz-adv-x="257" 
d="M11 0l124 700h112l-124 -700h-112zM-104 -350l111 270h103l-161 -270h-53z" />
    <glyph glyph-name="Lcaron" unicode="&#x13d;" horiz-adv-x="755" 
d="M29 0l124 700h112l-107 -607h510l-16 -93h-623zM306 429l111 270h103l-161 -270h-53z" />
    <glyph glyph-name="lcaron" unicode="&#x13e;" horiz-adv-x="433" 
d="M11 0l124 700h112l-124 -700h-112zM273 429l111 270h103l-161 -270h-53z" />
    <glyph glyph-name="Lslash" unicode="&#x141;" horiz-adv-x="755" 
d="M158 93h510l-16 -93h-623l55 309l-68 -39l-47 82l136 78l48 270h112l-35 -198l204 117l48 -81l-273 -157z" />
    <glyph glyph-name="lslash" unicode="&#x142;" horiz-adv-x="540" 
d="M539 552l-191 -110l-78 -442h-112l66 371l-151 -87l-37 68l205 118l41 230h112l-28 -159l135 78z" />
    <glyph glyph-name="Nacute" unicode="&#x143;" horiz-adv-x="967" 
d="M543 744l28 80l352 186l-36 -102zM29 0l124 700h114l459 -564l100 564h112l-124 -700h-115l-458 562l-100 -562h-112z" />
    <glyph glyph-name="nacute" unicode="&#x144;" horiz-adv-x="685" 
d="M378 544l28 80l352 186l-36 -102zM28 0l88 500h126l-57 -206h6q34 96 106.5 159t175.5 63q108 -2 147.5 -75t13.5 -224l-38 -217h-112l35 200q20 121 -5.5 176.5t-103.5 55.5q-88 0 -154 -78.5t-92 -214.5l-24 -139h-112z" />
    <glyph glyph-name="Ncommaaccent" unicode="&#x145;" horiz-adv-x="967" 
d="M29 0l124 700h114l459 -564l100 564h112l-124 -700h-115l-458 562l-100 -562h-112zM224 -350l111 270h103l-161 -270h-53z" />
    <glyph glyph-name="ncommaaccent" unicode="&#x146;" horiz-adv-x="685" 
d="M28 0l88 500h126l-57 -206h6q34 96 106.5 159t175.5 63q108 -2 147.5 -75t13.5 -224l-38 -217h-112l35 200q20 121 -5.5 176.5t-103.5 55.5q-88 0 -154 -78.5t-92 -214.5l-24 -139h-112zM137 -350l111 270h103l-161 -270h-53z" />
    <glyph glyph-name="Ncaron" unicode="&#x147;" horiz-adv-x="967" 
d="M561 755l-255 186l14 80l259 -164l315 164l-14 -80zM29 0l124 700h114l459 -564l100 564h112l-124 -700h-115l-458 562l-100 -562h-112z" />
    <glyph glyph-name="ncaron" unicode="&#x148;" horiz-adv-x="685" 
d="M396 555l-255 186l14 80l259 -164l315 164l-14 -80zM28 0l88 500h126l-57 -206h6q34 96 106.5 159t175.5 63q108 -2 147.5 -75t13.5 -224l-38 -217h-112l35 200q20 121 -5.5 176.5t-103.5 55.5q-88 0 -154 -78.5t-92 -214.5l-24 -139h-112z" />
    <glyph glyph-name="Eng" unicode="&#x14a;" horiz-adv-x="967" 
d="M826 700h112l-124 -700q-14 -83 -58.5 -124.5t-136.5 -59t-268 -16.5l16 89q262 0 328 54q31 25 4 57l-458 562l-100 -562h-112l124 700h114l459 -564z" />
    <glyph glyph-name="eng" unicode="&#x14b;" horiz-adv-x="685" 
d="M473 516q108 -2 147.5 -75t13.5 -224l-37 -212q-8 -47 -17.5 -76t-30 -54.5t-47 -38t-75 -22t-107.5 -12t-151 -2.5l15 89q164 0 224.5 14t69.5 65l6 32l35 200q20 121 -5.5 176.5t-103.5 55.5q-88 0 -154 -78.5t-92 -214.5l-24 -139h-112l88 500h126l-57 -206h6
q34 96 106.5 159t175.5 63z" />
    <glyph glyph-name="Omacron" unicode="&#x14c;" horiz-adv-x="976" 
d="M311 846l10 54h532l-10 -54h-532zM423 -16q-203 0 -304.5 100t-72.5 266t166.5 266t340.5 100q204 0 305.5 -100t72.5 -266t-166.5 -266t-341.5 -100zM439 77q150 0 254 74t126 199q22 126 -55.5 199.5t-227.5 73.5q-149 0 -252.5 -73.5t-125.5 -199.5q-22 -125 55 -199
t226 -74z" />
    <glyph glyph-name="omacron" unicode="&#x14d;" horiz-adv-x="711" 
d="M174 646l10 54h532l-10 -54h-532zM308 -16q-139 0 -211 73t-51 193t118.5 193t237.5 73t212 -73t51 -193t-119 -193t-238 -73zM323 67q93 0 159.5 50.5t80.5 132.5t-34 132.5t-141 50.5t-159.5 -50.5t-80.5 -132.5t34 -132.5t141 -50.5z" />
    <glyph glyph-name="Ohungarumlaut" unicode="&#x150;" horiz-adv-x="976" 
d="M423 744l14 80l319 186l-18 -102zM673 744l14 80l319 186l-18 -102zM423 -16q-203 0 -304.5 100t-72.5 266t166.5 266t340.5 100q204 0 305.5 -100t72.5 -266t-166.5 -266t-341.5 -100zM439 77q150 0 254 74t126 199q22 126 -55.5 199.5t-227.5 73.5q-149 0 -252.5 -73.5
t-125.5 -199.5q-22 -125 55 -199t226 -74z" />
    <glyph glyph-name="ohungarumlaut" unicode="&#x151;" horiz-adv-x="711" 
d="M272 544l14 80l319 186l-18 -102zM522 544l14 80l319 186l-18 -102zM308 -16q-139 0 -211 73t-51 193t118.5 193t237.5 73t212 -73t51 -193t-119 -193t-238 -73zM323 67q93 0 159.5 50.5t80.5 132.5t-34 132.5t-141 50.5t-159.5 -50.5t-80.5 -132.5t34 -132.5t141 -50.5z
" />
    <glyph glyph-name="OE" unicode="&#x152;" horiz-adv-x="1553" 
d="M1517 607h-525l-37 -209h516l-14 -85h-517l-39 -220h525l-16 -93h-638l18 104q-142 -120 -367 -120q-203 0 -304.5 100t-72.5 266t166.5 266t340.5 100q226 0 325 -120l18 104h638zM439 77q150 0 254 74t126 199q22 126 -55.5 199.5t-227.5 73.5q-149 0 -252.5 -73.5
t-125.5 -199.5q-22 -125 55 -199t226 -74z" />
    <glyph glyph-name="oe" unicode="&#x153;" horiz-adv-x="1216" 
d="M917 516q134 0 206 -62.5t55 -164.5l-15 -82h-497q-1 -75 51.5 -107t169.5 -32q29 0 56.5 2.5t45.5 6t41 10.5t33.5 11t33 13t29.5 12l-15 -90q-85 -30 -142 -39.5t-146 -9.5q-172 0 -234 112q-103 -112 -281 -112q-139 0 -211 73t-51 193t118.5 193t237.5 73
q177 0 242 -112q99 112 273 112zM323 67q93 0 159.5 50.5t80.5 132.5t-34 132.5t-141 50.5t-159.5 -50.5t-80.5 -132.5t34 -132.5t141 -50.5zM1072 284q12 82 -27.5 115.5t-142.5 33.5q-100 0 -152.5 -35.5t-72.5 -121.5z" />
    <glyph glyph-name="Racute" unicode="&#x154;" horiz-adv-x="941" 
d="M436 744l28 80l352 186l-36 -102zM29 0l124 700h543q106 0 156.5 -51t35.5 -134t-84 -129.5t-172 -46.5h-74q47 -3 83.5 -18.5t63 -39t52 -68t44.5 -90.5t47 -123h-122q-67 175 -91 217q-38 67 -95 82q-24 6 -57 6h-288l-54 -305h-112zM212 401h396q148 0 165 96
q10 57 -20.5 83t-108.5 26h-397z" />
    <glyph glyph-name="racute" unicode="&#x155;" horiz-adv-x="530" 
d="M326 544l28 80l352 186l-36 -102zM28 0l88 500h126l-57 -206h10q41 123 117 172.5t227 49.5l-16 -93q-160 0 -244 -62.5t-108 -183.5l-31 -177h-112z" />
    <glyph glyph-name="Rcommaaccent" unicode="&#x156;" horiz-adv-x="941" 
d="M29 0l124 700h543q106 0 156.5 -51t35.5 -134t-84 -129.5t-172 -46.5h-74q47 -3 83.5 -18.5t63 -39t52 -68t44.5 -90.5t47 -123h-122q-67 175 -91 217q-38 67 -95 82q-24 6 -57 6h-288l-54 -305h-112zM212 401h396q148 0 165 96q10 57 -20.5 83t-108.5 26h-397zM262 -350
l111 270h103l-161 -270h-53z" />
    <glyph glyph-name="rcommaaccent" unicode="&#x157;" horiz-adv-x="530" 
d="M28 0l88 500h126l-57 -206h10q41 123 117 172.5t227 49.5l-16 -93q-160 0 -244 -62.5t-108 -183.5l-31 -177h-112zM-94 -350l111 270h103l-161 -270h-53z" />
    <glyph glyph-name="Rcaron" unicode="&#x158;" horiz-adv-x="941" 
d="M454 755l-255 186l14 80l259 -164l315 164l-14 -80zM29 0l124 700h543q106 0 156.5 -51t35.5 -134t-84 -129.5t-172 -46.5h-74q47 -3 83.5 -18.5t63 -39t52 -68t44.5 -90.5t47 -123h-122q-67 175 -91 217q-38 67 -95 82q-24 6 -57 6h-288l-54 -305h-112zM212 401h396
q148 0 165 96q10 57 -20.5 83t-108.5 26h-397z" />
    <glyph glyph-name="rcaron" unicode="&#x159;" horiz-adv-x="530" 
d="M344 555l-255 186l14 80l259 -164l315 164l-14 -80zM28 0l88 500h126l-57 -206h10q41 123 117 172.5t227 49.5l-16 -93q-160 0 -244 -62.5t-108 -183.5l-31 -177h-112z" />
    <glyph glyph-name="Sacute" unicode="&#x15a;" horiz-adv-x="864" 
d="M492 744l28 80l352 186l-36 -102zM351 -16q-170 2 -259.5 67t-69.5 170h115q-12 -65 51.5 -104t174.5 -40q290 -2 315 115q9 43 -21.5 68t-86 34t-124.5 14t-137 13t-122.5 25t-83 56.5t-16.5 101.5q20 105 132.5 160t282.5 52q164 -3 251 -67t71 -170h-115
q13 64 -49 103t-170 41q-266 3 -287 -107q-7 -37 24.5 -57.5t87.5 -28.5t124.5 -12.5t135.5 -15t120.5 -30t80.5 -64t14 -111.5q-20 -105 -139 -160t-300 -53z" />
    <glyph glyph-name="sacute" unicode="&#x15b;" horiz-adv-x="675" 
d="M374 544l28 80l352 186l-36 -102zM289 -16q-133 0 -261 39l15 87q105 -43 241 -43q108 0 157 15t56 55q5 30 -27 45.5t-84 18.5t-112 9.5t-110.5 17t-79.5 42t-20 83.5q14 80 100.5 121.5t222.5 41.5q107 0 245 -28l-15 -80q-118 26 -237 26q-189 0 -200 -68
q-5 -28 26.5 -44t83.5 -19.5t111.5 -11.5t110 -19t80 -43.5t20.5 -83.5q-14 -81 -100 -121t-223 -40z" />
    <glyph glyph-name="Scedilla" unicode="&#x15e;" horiz-adv-x="864" 
d="M824 479h-115q13 64 -49 103t-170 41q-266 3 -287 -107q-7 -37 24.5 -57.5t87.5 -28.5t124.5 -12.5t135.5 -15t120.5 -30t80.5 -64t14 -111.5q-18 -92 -113 -146t-242 -65l-47 -54q149 -8 226.5 -36t61.5 -73q-17 -47 -146 -78t-319 -32l19 55q300 1 320 55q8 24 -37 37
q-64 19 -243 21l19 53l46 50q-162 5 -247 70t-66 167h115q-12 -65 51.5 -104t174.5 -40q290 -2 315 115q9 43 -21.5 68t-86 34t-124.5 14t-137 13t-122.5 25t-83 56.5t-16.5 101.5q20 105 132.5 160t282.5 52q164 -3 251 -67t71 -170z" />
    <glyph glyph-name="scedilla" unicode="&#x15f;" horiz-adv-x="675" 
d="M380 434q-189 0 -200 -68q-5 -28 26.5 -44t83.5 -19.5t111.5 -11.5t110 -19t80 -43.5t20.5 -83.5q-25 -140 -255 -158l-47 -55q149 -8 226.5 -36t61.5 -73q-17 -47 -146 -78t-319 -32l19 55q300 1 320 55q8 24 -37 37q-64 19 -243 21l19 53l47 51q-122 5 -230 38l15 87
q105 -43 241 -43q108 0 157 15t56 55q5 30 -27 45.5t-84 18.5t-112 9.5t-110.5 17t-79.5 42t-20 83.5q14 80 100.5 121.5t222.5 41.5q107 0 245 -28l-15 -80q-118 26 -237 26z" />
    <glyph glyph-name="Scaron" unicode="&#x160;" horiz-adv-x="864" 
d="M510 755l-255 186l14 80l259 -164l315 164l-14 -80zM351 -16q-170 2 -259.5 67t-69.5 170h115q-12 -65 51.5 -104t174.5 -40q290 -2 315 115q9 43 -21.5 68t-86 34t-124.5 14t-137 13t-122.5 25t-83 56.5t-16.5 101.5q20 105 132.5 160t282.5 52q164 -3 251 -67t71 -170
h-115q13 64 -49 103t-170 41q-266 3 -287 -107q-7 -37 24.5 -57.5t87.5 -28.5t124.5 -12.5t135.5 -15t120.5 -30t80.5 -64t14 -111.5q-20 -105 -139 -160t-300 -53z" />
    <glyph glyph-name="scaron" unicode="&#x161;" horiz-adv-x="675" 
d="M392 555l-255 186l14 80l259 -164l315 164l-14 -80zM289 -16q-133 0 -261 39l15 87q105 -43 241 -43q108 0 157 15t56 55q5 30 -27 45.5t-84 18.5t-112 9.5t-110.5 17t-79.5 42t-20 83.5q14 80 100.5 121.5t222.5 41.5q107 0 245 -28l-15 -80q-118 26 -237 26
q-189 0 -200 -68q-5 -28 26.5 -44t83.5 -19.5t111.5 -11.5t110 -19t80 -43.5t20.5 -83.5q-14 -81 -100 -121t-223 -40z" />
    <glyph glyph-name="uni0162" unicode="&#x162;" horiz-adv-x="896" 
d="M441 0h-31l-59 -68q149 -8 226.5 -36t61.5 -73q-17 -47 -146 -78t-319 -32l19 55q300 1 320 55q8 24 -37 37q-64 19 -243 21l19 53l81 88l104 585h-355l16 93h823l-16 -93h-356z" />
    <glyph glyph-name="uni0163" unicode="&#x163;" horiz-adv-x="441" 
d="M188 -68q149 -8 226.5 -36t61.5 -73q-17 -47 -146 -78t-319 -32l19 55q300 1 320 55q8 24 -37 37q-64 19 -243 21l19 53l58 63q-47 12 -57 55.5t7 127.5l42 240h-79l14 80h100l22 120l94 20l-25 -140h167l-14 -80h-167l-37 -210q-6 -35 -8 -48t-3.5 -35t0.5 -28t9 -17.5
t17.5 -13t29.5 -5t40.5 -3t55.5 2.5l-10 -53q-45 -17 -106 -20z" />
    <glyph glyph-name="Tcaron" unicode="&#x164;" horiz-adv-x="896" 
d="M520 755l-255 186l14 80l259 -164l315 164l-14 -80zM329 0l108 607h-355l16 93h823l-16 -93h-356l-108 -607h-112z" />
    <glyph glyph-name="tcaron" unicode="&#x165;" horiz-adv-x="580" 
d="M443 429l111 270h103l-161 -270h-53zM214 -10q-94 0 -115.5 39t-1.5 151l42 240h-79l14 80h100l22 120l94 20l-25 -140h167l-14 -80h-167l-37 -210q-6 -35 -8 -48t-3.5 -35t0.5 -28t9 -17.5t17.5 -13t29.5 -5t40.5 -3t55.5 2.5l-10 -53q-54 -20 -131 -20z" />
    <glyph glyph-name="Tbar" unicode="&#x166;" horiz-adv-x="896" 
d="M905 607h-356l-42 -235h198l-14 -83h-199l-51 -289h-112l51 289h-189l14 83h190l42 235h-355l16 93h823z" />
    <glyph glyph-name="tbar" unicode="&#x167;" horiz-adv-x="441" 
d="M418 420h-167l-18 -103h176l-15 -87h-176l-4 -20q-6 -35 -8 -48t-3.5 -35t0.5 -28t9 -17.5t17.5 -13t29.5 -5t40.5 -3t55.5 2.5l-10 -53q-54 -20 -131 -20q-94 0 -115.5 39t-1.5 151l9 50h-71l15 87h71l18 103h-79l14 80h100l22 120l94 20l-25 -140h167z" />
    <glyph glyph-name="Umacron" unicode="&#x16a;" horiz-adv-x="902" 
d="M274 846l10 54h532l-10 -54h-532zM388 -16q-181 0 -254.5 88t-35.5 303l56 325h112l-63 -355q-24 -139 23.5 -204t177.5 -65t200 65t94 204l63 355h112l-56 -325q-38 -215 -143 -303t-286 -88z" />
    <glyph glyph-name="umacron" unicode="&#x16b;" horiz-adv-x="685" 
d="M129 646l10 54h532l-10 -54h-532zM657 500l-88 -500h-126l57 206h-6q-34 -96 -106.5 -159t-175.5 -63q-108 2 -147.5 75t-13.5 224l38 217h112l-35 -200q-20 -121 5.5 -176.5t103.5 -55.5q88 0 154 78.5t92 214.5l24 139h112z" />
    <glyph glyph-name="Uring" unicode="&#x16e;" horiz-adv-x="902" 
d="M528 738q-105 0 -169 29t-48 74t100 74t189 29q113 0 173 -28.5t44 -74.5t-96 -74.5t-193 -28.5zM546 789q41 0 71 13.5t38 38.5q8 26 -12 39t-61 13q-89 0 -107 -52q-9 -25 11 -38.5t60 -13.5zM388 -16q-181 0 -254.5 88t-35.5 303l56 325h112l-63 -355
q-24 -139 23.5 -204t177.5 -65t200 65t94 204l63 355h112l-56 -325q-38 -215 -143 -303t-286 -88z" />
    <glyph glyph-name="uring" unicode="&#x16f;" horiz-adv-x="685" 
d="M387 538q-105 0 -169 29t-48 74t100 74t189 29q113 0 173 -28.5t44 -74.5t-96 -74.5t-193 -28.5zM405 589q41 0 71 13.5t38 38.5q8 26 -12 39t-61 13q-89 0 -107 -52q-9 -25 11 -38.5t60 -13.5zM657 500l-88 -500h-126l57 206h-6q-34 -96 -106.5 -159t-175.5 -63
q-108 2 -147.5 75t-13.5 224l38 217h112l-35 -200q-20 -121 5.5 -176.5t103.5 -55.5q88 0 154 78.5t92 214.5l24 139h112z" />
    <glyph glyph-name="Uhungarumlaut" unicode="&#x170;" horiz-adv-x="902" 
d="M386 744l14 80l319 186l-18 -102zM636 744l14 80l319 186l-18 -102zM388 -16q-181 0 -254.5 88t-35.5 303l56 325h112l-63 -355q-24 -139 23.5 -204t177.5 -65t200 65t94 204l63 355h112l-56 -325q-38 -215 -143 -303t-286 -88z" />
    <glyph glyph-name="uhungarumlaut" unicode="&#x171;" horiz-adv-x="685" 
d="M245 544l14 80l319 186l-18 -102zM495 544l14 80l319 186l-18 -102zM657 500l-88 -500h-126l57 206h-6q-34 -96 -106.5 -159t-175.5 -63q-108 2 -147.5 75t-13.5 224l38 217h112l-35 -200q-20 -121 5.5 -176.5t103.5 -55.5q88 0 154 78.5t92 214.5l24 139h112z" />
    <glyph glyph-name="Uogonek" unicode="&#x172;" horiz-adv-x="902" 
d="M761 700h112l-56 -325q-19 -109 -55.5 -185t-91 -120.5t-121.5 -64.5t-154 -21q-52 -58 -17 -104q38 -48 141 -44q35 2 73 10l-13 -60q-97 -28 -182 -9t-107 73t41 136q-74 6 -124 29t-82.5 69.5t-37.5 117.5t11 173l56 325h112l-63 -355q-24 -139 23.5 -204t177.5 -65
t200 65t94 204z" />
    <glyph glyph-name="uogonek" unicode="&#x173;" horiz-adv-x="685" 
d="M499 0q-66 -59 -40 -110q25 -48 115 -54q48 -2 105 10l-13 -60q-43 -13 -87 -16t-80.5 4t-66 21t-45 37t-17 50t18 62t59.5 72l52 190h-6q-34 -96 -106.5 -159t-175.5 -63q-108 2 -147.5 75t-13.5 224l38 217h112l-35 -200q-20 -121 5.5 -176.5t103.5 -55.5
q88 0 154 78.5t92 214.5l24 139h112l-88 -500h-70z" />
    <glyph glyph-name="Wcircumflex" unicode="&#x174;" horiz-adv-x="1259" 
d="M415 755l14 80l319 186l255 -186l-14 -80l-259 164zM256 0l-135 700h116l108 -567l299 567h94l100 -567l307 567h117l-383 -700h-118l-94 564l-293 -564h-118z" />
    <glyph glyph-name="wcircumflex" unicode="&#x175;" horiz-adv-x="1054" 
d="M288 555l14 80l319 186l255 -186l-14 -80l-259 164zM195 0l-126 500h108l107 -432l250 432h64l107 -433l260 433h108l-302 -500h-166l-72 306l-172 -306h-166z" />
    <glyph glyph-name="Ycircumflex" unicode="&#x176;" horiz-adv-x="868" 
d="M219 755l14 80l319 186l255 -186l-14 -80l-259 164zM316 0l40 226l-269 474h137l207 -368l337 368h137l-436 -472l-41 -228h-112z" />
    <glyph glyph-name="ycircumflex" unicode="&#x177;" horiz-adv-x="755" 
d="M176 555l14 80l319 186l255 -186l-14 -80l-259 164zM167 -200l148 195l-228 505h120l166 -412l309 412h110l-515 -700h-110z" />
    <glyph glyph-name="Ydieresis" unicode="&#x178;" horiz-adv-x="868" 
d="M362 738q-44 0 -67.5 23.5t-16.5 61.5t38.5 61.5t75.5 23.5q47 0 69 -23t15 -62t-37 -62t-77 -23zM652 738q-44 0 -67.5 23.5t-16.5 61.5t38.5 61.5t75.5 23.5q47 0 69 -23t15 -62t-37 -62t-77 -23zM316 0l40 226l-269 474h137l207 -368l337 368h137l-436 -472l-41 -228
h-112z" />
    <glyph glyph-name="Zacute" unicode="&#x179;" horiz-adv-x="879" 
d="M474 744l28 80l352 186l-36 -102zM-16 0l12 65l711 542h-607l16 93h769l-12 -62l-706 -545h620l-16 -93h-787z" />
    <glyph glyph-name="zacute" unicode="&#x17a;" horiz-adv-x="712" 
d="M409 544l28 80l352 186l-36 -102zM-14 0l5 33l520 383h-444l15 84h644l-6 -31l-517 -384h439l-14 -85h-642z" />
    <glyph glyph-name="Zdotaccent" unicode="&#x17b;" horiz-adv-x="879" 
d="M496 738q-44 0 -63 23.5t-6 61.5t49 61.5t80 23.5q47 0 65 -23t4 -62t-48 -62t-81 -23zM-16 0l12 65l711 542h-607l16 93h769l-12 -62l-706 -545h620l-16 -93h-787z" />
    <glyph glyph-name="zdotaccent" unicode="&#x17c;" horiz-adv-x="712" 
d="M431 538q-44 0 -63 23.5t-6 61.5t49 61.5t80 23.5q47 0 65 -23t4 -62t-48 -62t-81 -23zM-14 0l5 33l520 383h-444l15 84h644l-6 -31l-517 -384h439l-14 -85h-642z" />
    <glyph glyph-name="Zcaron" unicode="&#x17d;" horiz-adv-x="879" 
d="M492 755l-255 186l14 80l259 -164l315 164l-14 -80zM-16 0l12 65l711 542h-607l16 93h769l-12 -62l-706 -545h620l-16 -93h-787z" />
    <glyph glyph-name="zcaron" unicode="&#x17e;" horiz-adv-x="712" 
d="M427 555l-255 186l14 80l259 -164l315 164l-14 -80zM-14 0l5 33l520 383h-444l15 84h644l-6 -31l-517 -384h439l-14 -85h-642z" />
    <glyph glyph-name="Scommaaccent" unicode="&#x218;" horiz-adv-x="864" 
d="M351 -16q-170 2 -259.5 67t-69.5 170h115q-12 -65 51.5 -104t174.5 -40q290 -2 315 115q9 43 -21.5 68t-86 34t-124.5 14t-137 13t-122.5 25t-83 56.5t-16.5 101.5q20 105 132.5 160t282.5 52q164 -3 251 -67t71 -170h-115q13 64 -49 103t-170 41q-266 3 -287 -107
q-7 -37 24.5 -57.5t87.5 -28.5t124.5 -12.5t135.5 -15t120.5 -30t80.5 -64t14 -111.5q-20 -105 -139 -160t-300 -53zM204 -350l111 270h103l-161 -270h-53z" />
    <glyph glyph-name="scommaaccent" unicode="&#x219;" horiz-adv-x="675" 
d="M289 -16q-133 0 -261 39l15 87q105 -43 241 -43q108 0 157 15t56 55q5 30 -27 45.5t-84 18.5t-112 9.5t-110.5 17t-79.5 42t-20 83.5q14 80 100.5 121.5t222.5 41.5q107 0 245 -28l-15 -80q-118 26 -237 26q-189 0 -200 -68q-5 -28 26.5 -44t83.5 -19.5t111.5 -11.5
t110 -19t80 -43.5t20.5 -83.5q-14 -81 -100 -121t-223 -40zM85 -341l159 270h103l-209 -270h-53z" />
    <glyph glyph-name="uni021A" unicode="&#x21a;" horiz-adv-x="896" 
d="M329 0l108 607h-355l16 93h823l-16 -93h-356l-108 -607h-112zM211 -350l111 270h103l-161 -270h-53z" />
    <glyph glyph-name="uni021B" unicode="&#x21b;" horiz-adv-x="441" 
d="M214 -10q-94 0 -115.5 39t-1.5 151l42 240h-79l14 80h100l22 120l94 20l-25 -140h167l-14 -80h-167l-37 -210q-6 -35 -8 -48t-3.5 -35t0.5 -28t9 -17.5t17.5 -13t29.5 -5t40.5 -3t55.5 2.5l-10 -53q-54 -20 -131 -20zM-14 -341l159 270h103l-209 -270h-53z" />
    <glyph glyph-name="circumflex" unicode="&#x2c6;" horiz-adv-x="674" 
d="M27 555l14 80l319 186l255 -186l-14 -80l-259 164z" />
    <glyph glyph-name="caron" unicode="&#x2c7;" horiz-adv-x="674" 
d="M314 555l-255 186l14 80l259 -164l315 164l-14 -80z" />
    <glyph glyph-name="breve" unicode="&#x2d8;" horiz-adv-x="526" 
d="M250 551q-93 0 -145.5 41t-41.5 108h105q-6 -40 20 -60.5t74 -20.5q103 0 124 81h103q-13 -69 -76 -109t-163 -40z" />
    <glyph glyph-name="dotaccent" unicode="&#x2d9;" horiz-adv-x="298" 
d="M134 538q-44 0 -67.5 23.5t-16.5 61.5t38.5 61.5t75.5 23.5q47 0 69 -23t15 -62t-37 -62t-77 -23z" />
    <glyph glyph-name="ring" unicode="&#x2da;" horiz-adv-x="606" 
d="M285 538q-105 0 -174 29t-61 74t87 74t184 29q113 0 178 -28.5t57 -74.5t-83 -74.5t-188 -28.5zM294 589q41 0 68.5 13.5t31.5 38.5q4 26 -18.5 39t-63.5 13q-40 0 -67 -13.5t-31 -38.5t18 -38.5t62 -13.5z" />
    <glyph glyph-name="ogonek" unicode="&#x2db;" horiz-adv-x="445" 
d="M347 -214q-52 -15 -104 -16t-92.5 10.5t-66.5 35t-32 55t17 73.5t76 87q54 46 65 24q7 -16 -10 -37l-6 -6q-77 -60 -58 -114q18 -49 99 -60q56 -7 125 8z" />
    <glyph glyph-name="tilde" unicode="&#x2dc;" horiz-adv-x="481" 
d="M296 572q-31 0 -52.5 18t-37.5 36t-32 18q-28 0 -47.5 -18t-26.5 -53h-61q10 58 51 94t95 36q21 0 39 -11.5t28 -24.5t24.5 -24.5t30.5 -11.5q62 0 75 71h60q-11 -59 -51.5 -94.5t-94.5 -35.5z" />
    <glyph glyph-name="hungarumlaut" unicode="&#x2dd;" horiz-adv-x="637" 
d="M27 544l14 80l319 186l-18 -102zM277 544l14 80l319 186l-18 -102z" />
    <glyph glyph-name="gravecomb" unicode="&#x300;" 
d="M-96 544l-230 164l36 102l222 -186z" />
    <glyph glyph-name="acutecomb" unicode="&#x301;" 
d="M-383 544l28 80l352 186l-36 -102z" />
    <glyph glyph-name="uni0302" unicode="&#x302;" 
d="M-670 555l28 80l352 186l222 -186l-28 -80l-230 164z" />
    <glyph glyph-name="tildecomb" unicode="&#x303;" 
d="M-196 572q-24 0 -41.5 11t-25 25t-18.5 25t-24 11q-62 0 -87 -71h-61q21 58 68 94t101 36q21 0 37 -11.5t23.5 -24.5t20 -24.5t28.5 -11.5q62 0 88 71h60q-22 -59 -68.5 -94.5t-100.5 -35.5z" />
    <glyph glyph-name="uni0304" unicode="&#x304;" 
d="M-592 646l19 54h532l-19 -54h-532z" />
    <glyph glyph-name="uni0306" unicode="&#x306;" 
d="M-289 551q-92 0 -137.5 41t-23.5 108h105q-12 -40 10 -60.5t70 -20.5q104 0 138 81h103q-24 -69 -94 -109t-171 -40z" />
    <glyph glyph-name="uni0307" unicode="&#x307;" 
d="M-92 538q-44 0 -63 23.5t-6 61.5t49 61.5t80 23.5q47 0 65 -23t4 -62t-48 -62t-81 -23z" />
    <glyph glyph-name="uni0308" unicode="&#x308;" 
d="M-469 538q-44 0 -63 23.5t-6 61.5t49 61.5t80 23.5q47 0 65 -23t4 -62t-48 -62t-81 -23zM-179 538q-44 0 -63 23.5t-6 61.5t49 61.5t80 23.5q47 0 65 -23t4 -62t-48 -62t-81 -23z" />
    <glyph glyph-name="uni030A" unicode="&#x30a;" 
d="M-339 538q-105 0 -169 29t-48 74t100 74t189 29q113 0 173 -28.5t44 -74.5t-96 -74.5t-193 -28.5zM-321 589q41 0 71 13.5t38 38.5q8 26 -12 39t-61 13q-89 0 -107 -52q-9 -25 11 -38.5t60 -13.5z" />
    <glyph glyph-name="uni030B" unicode="&#x30b;" 
d="M-633 544l28 80l352 186l-36 -102zM-383 544l28 80l352 186l-36 -102z" />
    <glyph glyph-name="uni030C" unicode="&#x30c;" 
d="M-383 555l-222 186l28 80l230 -164l344 164l-28 -80z" />
    <glyph glyph-name="uni0312" unicode="&#x312;" 
d="M-2 798l-159 -270h-103l209 270h53z" />
    <glyph glyph-name="uni0326" unicode="&#x326;" 
d="M-286 -341l159 270h103l-209 -270h-53z" />
    <glyph glyph-name="uni0327" unicode="&#x327;" 
d="M-533 -287l19 55q300 1 320 55q8 24 -37 37q-64 19 -243 21l19 53l93 101h95l-89 -103q149 -8 226.5 -36t61.5 -73q-17 -47 -146 -78t-319 -32z" />
    <glyph glyph-name="uni0328" unicode="&#x328;" 
d="M-121 -214q-55 -15 -107 -16t-90.5 10.5t-60.5 35t-22.5 55t30 73.5t91.5 87q64 47 69 23q4 -17 -17 -37q-3 -3 -6 -5q-87 -60 -77 -114q8 -46 81 -59q56 -9 133 7z" />
    <glyph glyph-name="uni0335" unicode="&#x335;" 
d="M-564 289l29 83h500l-29 -83h-500z" />
    <glyph glyph-name="uni0336" unicode="&#x336;" 
d="M-1064 289l29 83h1000l-29 -83h-1000z" />
    <glyph glyph-name="uni0337" unicode="&#x337;" 
d="M-814 0l682 500h126l-682 -500h-126z" />
    <glyph glyph-name="uni0338" unicode="&#x338;" 
d="M-1070 0l956 700h126l-956 -700h-126z" />
    <glyph glyph-name="uni0401" unicode="&#x401;" horiz-adv-x="810" 
d="M352 738q-44 0 -63 23.5t-6 61.5t49 61.5t80 23.5q47 0 65 -23t4 -62t-48 -62t-81 -23zM642 738q-44 0 -63 23.5t-6 61.5t49 61.5t80 23.5q47 0 65 -23t4 -62t-48 -62t-81 -23zM29 0l124 700h638l-17 -93h-525l-37 -209h516l-14 -85h-517l-39 -220h525l-16 -93h-638z" />
    <glyph glyph-name="uni0410" unicode="&#x410;" horiz-adv-x="1083" 
d="M-26 0l555 700h149l306 -700h-126l-68 163h-553l-125 -163h-138zM308 256h443l-154 377z" />
    <glyph glyph-name="uni0411" unicode="&#x411;" horiz-adv-x="881" 
d="M831 607h-582l-32 -180h381q105 0 160.5 -55t37.5 -158q-16 -91 -91.5 -152.5t-181.5 -61.5h-493l123 700h695zM555 332h-355l-42 -238h356q78 0 118.5 28.5t51.5 91.5q11 62 -19.5 90t-109.5 28z" />
    <glyph glyph-name="uni0412" unicode="&#x412;" horiz-adv-x="926" 
d="M29 0l124 700h513q106 0 156.5 -51t35.5 -134q-26 -147 -222 -159q101 -2 151.5 -46t35.5 -124q-15 -84 -86 -135t-173 -51h-535zM210 390h366q147 0 166 106q10 56 -22.5 83.5t-105.5 27.5h-366zM159 94h386q148 0 170 117q9 56 -23.5 83t-105.5 27h-388z" />
    <glyph glyph-name="uni0413" unicode="&#x413;" horiz-adv-x="744" 
d="M29 0l124 700h643l-16 -93h-531l-108 -607h-112z" />
    <glyph glyph-name="uni0414" unicode="&#x414;" horiz-adv-x="927" 
d="M-59 -103l36 205q105 0 126 81l135 518l616 -1l-106 -598h124l-36 -205h-112l18 103h-671l-18 -103h-112zM165 93h469l91 514h-400l-107 -415q-14 -55 -53 -99z" />
    <glyph glyph-name="uni0415" unicode="&#x415;" horiz-adv-x="810" 
d="M29 0l124 700h638l-17 -93h-525l-37 -209h516l-14 -85h-517l-39 -220h525l-16 -93h-638z" />
    <glyph glyph-name="uni0416" unicode="&#x416;" horiz-adv-x="1216" 
d="M-52 0l490 349l-367 351h160l324 -334l59 334h112l-59 -334l442 334h160l-492 -350l367 -350h-159l-324 334l-59 -334h-112l59 334l-442 -334h-159z" />
    <glyph glyph-name="uni0417" unicode="&#x417;" horiz-adv-x="821" 
d="M302 -16q-210 2 -318 44l17 93q44 -20 135 -32t173 -12q319 0 337 97q6 36 -15.5 58t-89 39t-176 26.5t-292.5 17.5l13 72q334 12 461.5 41t137.5 88q10 55 -55 81.5t-225 26.5q-79 0 -174.5 -12.5t-148.5 -32.5l16 93q62 22 157.5 33.5t175.5 11.5q71 0 123 -3.5
t103 -15.5t81 -32.5t45 -56t7 -84.5q-6 -35 -28.5 -63.5t-50 -45.5t-67.5 -29.5t-68.5 -18t-67 -8.5t-50 -3h-28.5l-1 -9h31q31 -1 49 -2t54.5 -5t60 -11t52.5 -20t45 -30t24.5 -44t2.5 -60q-10 -58 -46 -97t-97.5 -59.5t-133.5 -28.5t-169 -7z" />
    <glyph glyph-name="uni0418" unicode="&#x418;" horiz-adv-x="967" 
d="M814 0h-112l98 562l-656 -562h-115l123 700h112l-99 -564l658 564h114z" />
    <glyph glyph-name="uni0419" unicode="&#x419;" horiz-adv-x="967" 
d="M568 751q-93 0 -141.5 41t-29.5 108h105q-10 -40 13.5 -60.5t71.5 -20.5q104 0 133 81h103q-21 -69 -88 -109t-167 -40zM780 0h-112l98 562l-656 -562h-115l123 700h112l-99 -564l658 564h114z" />
    <glyph glyph-name="uni041A" unicode="&#x41a;" horiz-adv-x="766" 
d="M29 0l124 700h112l-59 -334l442 334h160l-491 -350l366 -350h-159l-324 334l-59 -334h-112z" />
    <glyph glyph-name="uni041B" unicode="&#x41b;" horiz-adv-x="873" 
d="M-53 -15l21 80q48 -4 79 17.5t41 63.5l145 554h613l-123 -700h-112l106 607h-396l-117 -452q-23 -85 -100 -132t-157 -38z" />
    <glyph glyph-name="uni041C" unicode="&#x41c;" horiz-adv-x="1065" 
d="M29 0l124 700h139l209 -529l396 529h138l-124 -700h-112l96 545l-415 -545h-19l-225 541l-95 -541h-112z" />
    <glyph glyph-name="uni041D" unicode="&#x41d;" horiz-adv-x="908" 
d="M29 0l124 700h112l-52 -293h501l52 293h112l-124 -700h-112l56 314h-501l-56 -314h-112z" />
    <glyph glyph-name="uni041E" unicode="&#x41e;" horiz-adv-x="976" 
d="M423 -16q-203 0 -304.5 100t-72.5 266t166.5 266t340.5 100q204 0 305.5 -100t72.5 -266t-166.5 -266t-341.5 -100zM439 77q150 0 254 74t126 199q22 126 -55.5 199.5t-227.5 73.5q-149 0 -252.5 -73.5t-125.5 -199.5q-22 -125 55 -199t226 -74z" />
    <glyph glyph-name="uni041F" unicode="&#x41f;" horiz-adv-x="825" 
d="M29 0l124 700h643l-124 -700h-112l107 607h-418l-108 -607h-112z" />
    <glyph glyph-name="uni0420" unicode="&#x420;" horiz-adv-x="881" 
d="M29 0l124 700h493q106 0 159.5 -62t37.5 -152q-18 -103 -93 -158t-180 -55h-381l-48 -273h-112zM206 368h355q79 0 119 28t51 90q11 63 -19 91.5t-108 28.5h-356z" />
    <glyph glyph-name="uni0421" unicode="&#x421;" horiz-adv-x="935" 
d="M403 -16q-190 0 -288 100.5t-69 265.5t163 265.5t324 100.5t290 -88t75 -233h-114q14 106 -59 167t-209 61q-141 0 -238.5 -73.5t-119.5 -199.5q-22 -125 49.5 -199t211.5 -74q136 0 231.5 61.5t117.5 166.5h114q-25 -145 -157 -233t-322 -88z" />
    <glyph glyph-name="uni0422" unicode="&#x422;" horiz-adv-x="896" 
d="M329 0l108 607h-355l16 93h823l-16 -93h-356l-108 -607h-112z" />
    <glyph glyph-name="uni0423" unicode="&#x423;" horiz-adv-x="755" 
d="M167 -1l148 195l-228 505h120l166 -412l309 412h110l-515 -700h-110z" />
    <glyph glyph-name="uni0424" unicode="&#x424;" horiz-adv-x="711" 
d="M463 617q112 -16 166.5 -86t35.5 -176t-98 -176t-197 -86l-16 -93h-122l16 93q-112 16 -166.5 86t-35.5 176t98.5 176.5t196.5 85.5l15 83h122zM148 355q-12 -67 19 -114t97 -63l62 354q-70 -16 -118 -63t-60 -114zM563 355q12 67 -19 114t-96 62l-62 -352
q70 15 117.5 62t59.5 114z" />
    <glyph glyph-name="uni0425" unicode="&#x425;" horiz-adv-x="928" 
d="M-3 0l394 351l-271 349h139l217 -283l317 283h138l-400 -355l266 -345h-136l-214 280l-315 -280h-135z" />
    <glyph glyph-name="uni0426" unicode="&#x426;" horiz-adv-x="816" 
d="M624 -103l18 103h-605l124 700h112l-107 -607h371l107 607h112l-107 -607h121l-34 -196h-112z" />
    <glyph glyph-name="uni0427" unicode="&#x427;" horiz-adv-x="686" 
d="M675 700l-124 -700h-126l92 406h-6q-34 -96 -106.5 -159t-175.5 -63q-108 2 -147.5 75t-13.5 224l39 217h112l-36 -200q-20 -121 5.5 -176.5t103.5 -55.5q91 0 157.5 83t91.5 226v-2l22 125h112z" />
    <glyph glyph-name="uni0428" unicode="&#x428;" horiz-adv-x="1123" 
d="M28 0l124 700h112l-107 -607h303l108 607h112l-108 -607h304l107 607h112l-124 -700h-943z" />
    <glyph glyph-name="uni0429" unicode="&#x429;" horiz-adv-x="1164" 
d="M972 -103l18 103h-953l124 700h112l-107 -607h303l108 607h112l-108 -607h304l107 607h112l-107 -607h121l-34 -196h-112z" />
    <glyph glyph-name="uni042A" unicode="&#x42a;" horiz-adv-x="881" 
d="M598 427q105 0 160.5 -55t37.5 -158q-16 -91 -91.5 -152.5t-181.5 -61.5h-493l105 598h-69l18 102h181l-48 -273h381zM684 214q11 62 -19.5 90t-109.5 28h-355l-42 -238h356q78 0 118.5 28.5t51.5 91.5z" />
    <glyph glyph-name="uni042B" unicode="&#x42b;" horiz-adv-x="1165" 
d="M153 700h112l-48 -273h381q105 0 160.5 -55t37.5 -158q-16 -91 -91.5 -152.5t-181.5 -61.5h-493zM901 0l124 700h112l-124 -700h-112zM200 332l-42 -238h356q78 0 118.5 28.5t51.5 91.5q11 62 -19.5 90t-109.5 28h-355z" />
    <glyph glyph-name="uni042C" unicode="&#x42c;" horiz-adv-x="881" 
d="M153 700h112l-48 -273h381q105 0 160.5 -55t37.5 -158q-16 -91 -91.5 -152.5t-181.5 -61.5h-493zM200 332l-42 -238h356q78 0 118.5 28.5t51.5 91.5q11 62 -19.5 90t-109.5 28h-355z" />
    <glyph glyph-name="uni042D" unicode="&#x42d;" horiz-adv-x="935" 
d="M531 716q190 0 288 -100.5t69 -265.5q-28 -165 -162 -265.5t-324 -100.5t-290 88t-75 233h114q-15 -105 58.5 -166.5t209.5 -61.5q126 0 218.5 60t126.5 165h-391l16 94h392q4 106 -67.5 166.5t-198.5 60.5q-136 0 -231 -61t-118 -167h-114q25 145 157 233t322 88z" />
    <glyph glyph-name="uni042E" unicode="&#x42e;" horiz-adv-x="1342" 
d="M918 716q204 0 305.5 -100t72.5 -266t-166.5 -266t-341.5 -100q-188 0 -289.5 86t-93.5 232h-211l-54 -302h-112l124 700h112l-54 -304h212q42 147 175 233.5t321 86.5zM1184 350q22 126 -55.5 199.5t-227.5 73.5q-149 0 -252.5 -73.5t-125.5 -199.5q-22 -125 55 -199
t226 -74q150 0 254 74t126 199z" />
    <glyph glyph-name="uni042F" unicode="&#x42f;" horiz-adv-x="941" 
d="M788 0h-112l54 305h-288q-89 0 -145.5 -51.5t-187.5 -229.5l-18 -24h-122q55 77 90 123t76.5 90.5t76.5 68t76.5 39t90.5 18.5h-74q-103 0 -156 46.5t-38 129.5q14 82 82.5 133.5t174.5 51.5h543zM746 401l38 205h-397q-78 0 -117.5 -26t-50.5 -83q-8 -45 23 -70.5
t108 -25.5h396z" />
    <glyph glyph-name="uni0430" unicode="&#x430;" horiz-adv-x="672" 
d="M185 -16q-33 0 -60.5 4.5t-55.5 17.5t-41 41t-6 69q6 34 30.5 61.5t64 45.5t80 30.5t93.5 20t89.5 11t83.5 7t60 4.5q13 78 -20 108t-126 30q-104 0 -246 -57l15 85q157 54 285 54q242 0 202 -234l-50 -282h-113l61 179h-7q-39 -99 -128.5 -147t-210.5 -48zM295 71
q81 13 140 51t73 105q-18 -1 -56 -3.5t-66 -5t-66 -6.5t-65 -10.5t-53 -16t-41.5 -24t-18.5 -32.5q-6 -38 36 -54t117 -4z" />
    <glyph glyph-name="uni0431" unicode="&#x431;" horiz-adv-x="867" 
d="M390 -12q-190 0 -283.5 94t-60.5 280q30 170 165.5 261.5t335.5 91.5q33 0 83 -2.5t77 -3t62 6t65 22.5l-19 -106q-44 -14 -89 -16.5t-112 2t-102 4.5q-139 0 -241 -78t-118 -210q70 51 167.5 88.5t199.5 37.5q163 0 231 -68.5t44 -179.5q-21 -103 -128.5 -163.5
t-276.5 -60.5zM397 81q135 0 204 33.5t83 111.5q13 72 -38 108.5t-167 36.5q-84 0 -181.5 -36t-148.5 -94q9 -85 69 -122.5t179 -37.5z" />
    <glyph glyph-name="uni0432" unicode="&#x432;" horiz-adv-x="804" 
d="M46 0l88 500h425q119 0 166.5 -32t34.5 -103q-9 -53 -57.5 -79t-145.5 -30q108 -2 152 -30.5t34 -89.5q-13 -71 -72.5 -103.5t-177.5 -32.5h-447zM210 295h288q138 0 147 49q5 29 -25.5 41.5t-103.5 12.5h-289zM177 103h309q138 0 148 59q5 27 -26 40.5t-102 13.5h-310z
" />
    <glyph glyph-name="uni0433" unicode="&#x433;" horiz-adv-x="570" 
d="M46 0l88 500h473l-16 -93h-361l-72 -407h-112z" />
    <glyph glyph-name="uni0434" unicode="&#x434;" horiz-adv-x="817" 
d="M-44 -103l36 205q106 0 125 81l92 352h522l-76 -433h121l-36 -205h-112l18 103h-560l-18 -103h-112zM183 93h360l61 349h-306l-67 -259q-13 -50 -48 -90z" />
    <glyph glyph-name="uni0435" unicode="&#x435;" horiz-adv-x="693" 
d="M300 -16q-136 0 -205.5 73t-48.5 193t116.5 193t231.5 73q134 0 206 -62.5t55 -164.5l-15 -82h-497q-1 -75 51.5 -107t169.5 -32q29 0 56.5 2.5t45.5 6t41 10.5t33.5 11t33 13t29.5 12l-15 -90q-85 -30 -142 -39.5t-146 -9.5zM154 276l395 8q12 82 -27.5 115.5
t-142.5 33.5q-100 0 -152.5 -35.5t-72.5 -121.5z" />
    <glyph glyph-name="uni0436" unicode="&#x436;" horiz-adv-x="1156" 
d="M-34 0l441 251l-343 249h174l289 -221l39 221h112l-39 -221l367 221h174l-431 -249l353 -251h-184l-289 221l-39 -221h-112l39 221l-367 -221h-184z" />
    <glyph glyph-name="uni0437" unicode="&#x437;" horiz-adv-x="818" 
d="M319 -15q-210 2 -318 44l17 93q44 -20 134.5 -32t172.5 -12q189 0 258 10t74 34q2 14 -6.5 24t-36 18.5t-66.5 14.5t-111 12t-154.5 10.5t-210.5 10.5l14 80q361 13 474 27t120 50q2 15 -9 24.5t-44 16t-91 9.5t-150 3q-79 0 -174.5 -12.5t-148.5 -32.5l16 93
q62 22 157.5 33.5t175.5 11.5q86 0 151 -5.5t120 -19.5t80.5 -40t18.5 -64q-5 -31 -30.5 -55t-66 -37t-75.5 -21.5t-82.5 -11t-62 -3t-36.5 -0.5l-1 -9h27t40.5 -0.5t48.5 -2t53 -5t51 -9t47 -15t36 -21.5t22.5 -29.5t2.5 -38.5q-25 -146 -437 -143z" />
    <glyph glyph-name="uni0438" unicode="&#x438;" horiz-adv-x="838" 
d="M46 0l88 500h112l-68 -384l500 384h114l-88 -500h-112l67 383l-498 -383h-115z" />
    <glyph glyph-name="uni0439" unicode="&#x439;" horiz-adv-x="838" 
d="M420 551q-92 0 -123 40.5t15 108.5h105q-26 -41 -11.5 -61t62.5 -20q104 0 167 81h103q-49 -69 -133 -109t-185 -40zM28 0l88 500h112l-68 -385l500 385h114l-88 -500h-112l68 384l-499 -384h-115z" />
    <glyph glyph-name="uni043A" unicode="&#x43a;" horiz-adv-x="728" 
d="M47 0l88 500h112l-39 -221l367 221h174l-431 -249l353 -251h-184l-289 221l-39 -221h-112z" />
    <glyph glyph-name="uni043B" unicode="&#x43b;" horiz-adv-x="681" 
d="M-28 -12l11 80q101 0 120 81l92 351h520l-88 -500h-112l71 407h-303l-64 -249q-23 -86 -95.5 -132.5t-151.5 -37.5z" />
    <glyph glyph-name="uni043C" unicode="&#x43c;" horiz-adv-x="952" 
d="M46 0l88 500h136l190 -344l310 344h136l-88 -500h-112l61 344l-324 -344h-22l-201 350l-62 -350h-112z" />
    <glyph glyph-name="uni043D" unicode="&#x43d;" horiz-adv-x="855" 
d="M46 0l88 500h112l-34 -192h451l34 192h112l-88 -500h-112l38 214h-451l-38 -214h-112z" />
    <glyph glyph-name="uni043E" unicode="&#x43e;" horiz-adv-x="711" 
d="M308 -16q-139 0 -211 73t-51 193t118.5 193t237.5 73t212 -73t51 -193t-119 -193t-238 -73zM323 67q93 0 159.5 50.5t80.5 132.5t-34 132.5t-141 50.5t-159.5 -50.5t-80.5 -132.5t34 -132.5t141 -50.5z" />
    <glyph glyph-name="uni043F" unicode="&#x43f;" horiz-adv-x="798" 
d="M47 0l88 500h615l-88 -500h-112l72 408h-391l-72 -408h-112z" />
    <glyph glyph-name="uni0440" unicode="&#x440;" horiz-adv-x="769" 
d="M10 -200l124 700h116l-51 -163h11q33 89 121.5 134t192.5 45q107 0 171 -76t44 -194q-20 -114 -111 -188t-199 -74q-101 0 -169 45t-71 133h-4v-1l-63 -361h-112zM397 67q89 0 152 50.5t77 130.5q15 83 -29.5 134t-133.5 51q-82 0 -149 -52t-82 -133q-15 -78 34 -129.5
t131 -51.5z" />
    <glyph glyph-name="uni0441" unicode="&#x441;" horiz-adv-x="632" 
d="M312 -16q-137 0 -212 73.5t-54 192.5q21 121 120 193.5t241 72.5q64 0 110.5 -12.5t105.5 -41.5l-15 -91q-101 62 -189 62q-118 0 -180.5 -41.5t-79.5 -141.5q-18 -100 30 -141.5t168 -41.5q105 0 207 58l-15 -87q-75 -31 -121.5 -42.5t-115.5 -11.5z" />
    <glyph glyph-name="uni0442" unicode="&#x442;" horiz-adv-x="736" 
d="M268 0l72 407h-276l16 93h663l-16 -93h-275l-72 -407h-112z" />
    <glyph glyph-name="uni0443" unicode="&#x443;" horiz-adv-x="755" 
d="M167 -200l148 195l-228 505h120l166 -412l309 412h110l-515 -700h-110z" />
    <glyph glyph-name="uni0444" unicode="&#x444;" horiz-adv-x="711" 
d="M462 512q112 -15 167 -85.5t36 -176.5t-99 -176.5t-197 -85.5l-15 -84h-122l15 84q-111 16 -165.5 86t-35.5 176t98 176t196 86l16 92h122zM563 250q12 67 -19.5 114.5t-96.5 62.5l-63 -354q71 15 119 62.5t60 114.5zM148 250q-12 -67 19 -114t95 -62l62 352
q-70 -16 -117 -62.5t-59 -113.5z" />
    <glyph glyph-name="uni0445" unicode="&#x445;" horiz-adv-x="767" 
d="M-18 0l323 251l-235 249h148l176 -188l243 188h148l-328 -253l231 -247h-147l-173 184l-239 -184h-147z" />
    <glyph glyph-name="uni0446" unicode="&#x446;" horiz-adv-x="773" 
d="M598 -103l18 103h-561l88 500h112l-72 -407h329l72 407h112l-72 -407h121l-35 -196h-112z" />
    <glyph glyph-name="uni0447" unicode="&#x447;" horiz-adv-x="686" 
d="M444 0l68 302h-2q-33 -95 -105.5 -158.5t-176.5 -63.5q-212 3 -160 299l22 121h112l-19 -104q-21 -120 4.5 -175.5t103.5 -55.5q91 0 157.5 82t92.5 226v-1l5 28h112l-88 -500h-126z" />
    <glyph glyph-name="uni0448" unicode="&#x448;" horiz-adv-x="1106" 
d="M46 0l88 500h112l-72 -407h295l72 407h112l-72 -407h295l72 407h112l-88 -500h-926z" />
    <glyph glyph-name="uni0449" unicode="&#x449;" horiz-adv-x="1146" 
d="M971 -103l18 103h-934l88 500h112l-72 -407h295l72 407h112l-72 -407h295l72 407h112l-72 -407h121l-35 -196h-112z" />
    <glyph glyph-name="uni044A" unicode="&#x44a;" horiz-adv-x="840" 
d="M29 0l108 607h-121l16 93h233l-48 -273h341q105 0 160 -55t37 -158q-16 -91 -91.5 -152.5t-181.5 -61.5h-453zM158 95h315q78 0 118.5 28.5t51.5 90.5t-19 90.5t-108 28.5h-316z" />
    <glyph glyph-name="uni044B" unicode="&#x44b;" horiz-adv-x="1124" 
d="M28 0l124 700h112l-48 -273h341q105 0 160 -55t37 -158q-16 -91 -91.5 -152.5t-181.5 -61.5h-453zM860 0l124 700h112l-124 -700h-112zM157 95h315q78 0 118.5 28.5t51.5 90.5t-19 90.5t-108 28.5h-316z" />
    <glyph glyph-name="uni044C" unicode="&#x44c;" horiz-adv-x="840" 
d="M29 0l124 700h112l-48 -273h341q105 0 160 -55t37 -158q-16 -91 -91.5 -152.5t-181.5 -61.5h-453zM158 95h315q78 0 118.5 28.5t51.5 90.5t-19 90.5t-108 28.5h-316z" />
    <glyph glyph-name="uni044D" unicode="&#x44d;" horiz-adv-x="632" 
d="M319 516q142 0 215.5 -72.5t51.5 -193.5q-21 -119 -122 -192.5t-238 -73.5q-69 0 -111 11.5t-107 42.5l16 87q81 -58 187 -58q104 0 164 30.5t85 101.5h-297l18 102h297q0 71 -49 101.5t-151 30.5q-88 0 -211 -62l17 91q70 29 120.5 41.5t114.5 12.5z" />
    <glyph glyph-name="uni044E" unicode="&#x44e;" horiz-adv-x="1021" 
d="M662 516q140 0 212 -73t51 -193t-119 -193t-238 -73q-125 0 -196.5 59.5t-69.5 159.5h-103l-36 -203h-112l88 500h112l-36 -203h103q34 100 126.5 159.5t217.5 59.5zM823 250q14 82 -34 132.5t-141 50.5t-159.5 -50.5t-80.5 -132.5t34 -132.5t141 -50.5t159.5 50.5
t80.5 132.5z" />
    <glyph glyph-name="uni044F" unicode="&#x44f;" horiz-adv-x="811" 
d="M-12 0q110 113 183 153.5t185 45.5h-57q-118 0 -165.5 34.5t-33.5 110.5q12 71 71 102.5t177 31.5h415l-84 -478h-112l29 162h-151q-77 0 -116.5 -9t-87 -42t-127.5 -111h-126zM335 263h279l21 115h-280q-136 0 -147 -53q-5 -32 25 -47t102 -15z" />
    <glyph glyph-name="uni0451" unicode="&#x451;" horiz-adv-x="693" 
d="M264 538q-44 0 -63 23.5t-6 61.5t49 61.5t80 23.5q47 0 65 -23t4 -62t-48 -62t-81 -23zM554 538q-44 0 -63 23.5t-6 61.5t49 61.5t80 23.5q47 0 65 -23t4 -62t-48 -62t-81 -23zM300 -16q-136 0 -205.5 73t-48.5 193t116.5 193t231.5 73q134 0 206 -62.5t55 -164.5
l-15 -82h-497q-1 -75 51.5 -107t169.5 -32q29 0 56.5 2.5t45.5 6t41 10.5t33.5 11t33 13t29.5 12l-15 -90q-85 -30 -142 -39.5t-146 -9.5zM154 276l395 8q12 82 -27.5 115.5t-142.5 33.5q-100 0 -152.5 -35.5t-72.5 -121.5z" />
    <glyph glyph-name="Wgrave" unicode="&#x1e80;" horiz-adv-x="1259" 
d="M706 744l-259 164l18 102l255 -186zM256 0l-135 700h116l108 -567l299 567h94l100 -567l307 567h117l-383 -700h-118l-94 564l-293 -564h-118z" />
    <glyph glyph-name="wgrave" unicode="&#x1e81;" horiz-adv-x="1054" 
d="M579 544l-259 164l18 102l255 -186zM195 0l-126 500h108l107 -432l250 432h64l107 -433l260 433h108l-302 -500h-166l-72 306l-172 -306h-166z" />
    <glyph glyph-name="Wacute" unicode="&#x1e82;" horiz-adv-x="1259" 
d="M676 744l14 80l319 186l-18 -102zM256 0l-135 700h116l108 -567l299 567h94l100 -567l307 567h117l-383 -700h-118l-94 564l-293 -564h-118z" />
    <glyph glyph-name="wacute" unicode="&#x1e83;" horiz-adv-x="1054" 
d="M549 544l14 80l319 186l-18 -102zM195 0l-126 500h108l107 -432l250 432h64l107 -433l260 433h108l-302 -500h-166l-72 306l-172 -306h-166z" />
    <glyph glyph-name="Wdieresis" unicode="&#x1e84;" horiz-adv-x="1259" 
d="M558 738q-44 0 -67.5 23.5t-16.5 61.5t38.5 61.5t75.5 23.5q47 0 69 -23t15 -62t-37 -62t-77 -23zM848 738q-44 0 -67.5 23.5t-16.5 61.5t38.5 61.5t75.5 23.5q47 0 69 -23t15 -62t-37 -62t-77 -23zM256 0l-135 700h116l108 -567l299 567h94l100 -567l307 567h117
l-383 -700h-118l-94 564l-293 -564h-118z" />
    <glyph glyph-name="wdieresis" unicode="&#x1e85;" horiz-adv-x="1054" 
d="M428 538q-44 0 -67.5 23.5t-16.5 61.5t38.5 61.5t75.5 23.5q47 0 69 -23t15 -62t-37 -62t-77 -23zM718 538q-44 0 -67.5 23.5t-16.5 61.5t38.5 61.5t75.5 23.5q47 0 69 -23t15 -62t-37 -62t-77 -23zM195 0l-126 500h108l107 -432l250 432h64l107 -433l260 433h108
l-302 -500h-166l-72 306l-172 -306h-166z" />
    <glyph glyph-name="Ygrave" unicode="&#x1ef2;" horiz-adv-x="868" 
d="M510 744l-259 164l18 102l255 -186zM316 0l40 226l-269 474h137l207 -368l337 368h137l-436 -472l-41 -228h-112z" />
    <glyph glyph-name="ygrave" unicode="&#x1ef3;" horiz-adv-x="755" 
d="M467 544l-259 164l18 102l255 -186zM167 -200l148 195l-228 505h120l166 -412l309 412h110l-515 -700h-110z" />
    <glyph glyph-name="endash" unicode="&#x2013;" horiz-adv-x="560" 
d="M23 289l14 83h500l-14 -83h-500z" />
    <glyph glyph-name="emdash" unicode="&#x2014;" horiz-adv-x="1060" 
d="M23 289l14 83h1000l-14 -83h-1000z" />
    <glyph glyph-name="quoteleft" unicode="&#x2018;" horiz-adv-x="293" 
d="M287 700l-111 -270h-103l161 270h53z" />
    <glyph glyph-name="quoteright" unicode="&#x2019;" horiz-adv-x="293" 
d="M6 430l111 270h103l-161 -270h-53z" />
    <glyph glyph-name="quotesinglbase" unicode="&#x201a;" horiz-adv-x="293" 
d="M6 -169l111 270h103l-161 -270h-53z" />
    <glyph glyph-name="quotedblleft" unicode="&#x201c;" horiz-adv-x="515" 
d="M287 700l-111 -270h-103l161 270h53zM509 700l-111 -270h-103l161 270h53z" />
    <glyph glyph-name="quotedblright" unicode="&#x201d;" horiz-adv-x="515" 
d="M6 430l111 270h103l-161 -270h-53zM228 430l111 270h103l-161 -270h-53z" />
    <glyph glyph-name="quotedblbase" unicode="&#x201e;" horiz-adv-x="293" 
d="M117 101h103l-161 -270h-53z" />
    <glyph glyph-name="dagger" unicode="&#x2020;" horiz-adv-x="580" 
d="M156 -170l103 586h-204l14 83h204l39 221h112l-39 -221h204l-14 -83h-204l-103 -586h-112z" />
    <glyph glyph-name="daggerdbl" unicode="&#x2021;" horiz-adv-x="600" 
d="M156 -170l30 170h-204l14 83h204l59 333h-204l14 83h204l39 221h112l-39 -221h204l-14 -83h-204l-59 -333h204l-14 -83h-204l-30 -170h-112z" />
    <glyph glyph-name="bullet" unicode="&#x2022;" horiz-adv-x="529" 
d="M233 54q-68 0 -112.5 49.5t-31.5 115.5q12 67 74 115.5t130 48.5q70 0 115.5 -48.5t33.5 -115.5q-14 -67 -74.5 -116t-134.5 -49z" />
    <glyph glyph-name="ellipsis" unicode="&#x2026;" horiz-adv-x="905" 
d="M122 -18q-26 0 -47 19t-21 44q-1 26 19.5 44.5t46.5 18.5q27 0 47.5 -18.5t21.5 -44.5q0 -26 -19.5 -44.5t-47.5 -18.5zM422 -18q-26 0 -47 19t-21 44q-1 26 19.5 44.5t46.5 18.5q27 0 47.5 -18.5t21.5 -44.5q0 -26 -19.5 -44.5t-47.5 -18.5zM722 -18q-26 0 -47 19
t-21 44q-1 26 19.5 44.5t46.5 18.5q27 0 47.5 -18.5t21.5 -44.5q0 -26 -19.5 -44.5t-47.5 -18.5z" />
    <glyph glyph-name="perthousand" unicode="&#x2030;" horiz-adv-x="1519" 
d="M278 460q-86 0 -141 35t-45 90t77.5 90t153.5 35q93 0 145 -34.5t42 -90.5t-74.5 -90.5t-157.5 -34.5zM48 0l835 700h118l-834 -700h-119zM286 500q55 0 92 23.5t43 61.5q5 38 -24 62t-82 24t-90 -24t-43 -62q-7 -38 21.5 -61.5t82.5 -23.5zM717 -11q-86 0 -141.5 35
t-45.5 90t78 90t154 35q93 0 144.5 -34.5t41.5 -90.5t-74 -90.5t-157 -34.5zM1196 -11q-86 0 -141.5 35t-45.5 90t78 90t154 35q93 0 144.5 -34.5t41.5 -90.5t-74 -90.5t-157 -34.5zM725 28q55 0 92 24t42 62q6 38 -22.5 61.5t-81.5 23.5q-54 0 -91 -23.5t-44 -61.5
q-6 -38 23 -62t82 -24zM1204 28q55 0 92 24t42 62q6 38 -23 61.5t-82 23.5t-90 -23.5t-44 -61.5q-6 -38 22.5 -62t82.5 -24z" />
    <glyph glyph-name="guilsinglleft" unicode="&#x2039;" horiz-adv-x="416" 
d="M192 0l-162 250l250 250h150l-258 -250l170 -250h-150z" />
    <glyph glyph-name="guilsinglright" unicode="&#x203a;" horiz-adv-x="416" 
d="M-14 0l258 250l-170 250h150l162 -250l-250 -250h-150z" />
    <glyph glyph-name="fraction" unicode="&#x2044;" horiz-adv-x="1038" 
d="M-39 -100l990 900h126l-990 -900h-126z" />
    <glyph glyph-name="Euro" unicode="&#x20ac;" horiz-adv-x="1017" 
d="M976 395h-114q14 106 -59 167t-209 61q-101 0 -182 -39t-128 -110h376l-18 -102h-401q-4 -13 -5 -22l-3 -19h401l-18 -102h-376q21 -72 88 -112t169 -40q136 0 231.5 61.5t117.5 166.5h114q-25 -145 -157 -233t-322 -88q-151 0 -246 65.5t-113 179.5h-137l19 102h117
l3 19q0 3 2 10.5t2 11.5h-116l18 102h136q59 113 177 177.5t268 64.5q190 0 290 -88t75 -233z" />
    <glyph glyph-name="trademark" unicode="&#x2122;" horiz-adv-x="1308" 
d="M272 222l73 415h-242l11 63h562l-11 -63h-243l-74 -415h-76zM635 222l84 478h95l143 -361l271 361h94l-85 -478h-76l65 372l-283 -372h-13l-154 370l-65 -370h-76z" />
    <glyph glyph-name="oneeighth" unicode="&#x215b;" horiz-adv-x="1704" 
d="M355 -22l818 744h104l-818 -744h-104zM253 161l70 398l-250 -148l13 76l293 152h35l-85 -478h-76zM1337 47q-119 0 -183.5 34t-52.5 105q17 93 170 110q-53 10 -89 38.5t-26 82.5q11 64 82.5 97.5t187.5 33.5q108 0 170.5 -33.5t51.5 -97.5q-17 -97 -158 -121
q147 -17 131 -110q-12 -66 -90 -103.5t-194 -35.5zM1387 329q87 0 131 17.5t51 57.5q6 35 -36 57.5t-119 22.5q-76 0 -126.5 -22.5t-56.5 -57.5q-7 -40 30.5 -57.5t125.5 -17.5zM1349 112q82 0 135.5 20.5t59.5 57.5q7 38 -34.5 56.5t-133.5 18.5q-182 0 -197 -75
q-7 -37 40 -57.5t130 -20.5z" />
    <glyph glyph-name="threeeighths" unicode="&#x215c;" horiz-adv-x="1711" 
d="M351 -22l818 744h104l-818 -744h-104zM226 150q-142 2 -217 30l12 64q30 -14 92 -22t118 -8q218 0 230 66q4 24 -10.5 39.5t-60.5 27t-120.5 18t-199.5 11.5l9 49q228 8 315 28t94 60q7 38 -37.5 56t-153.5 18q-55 0 -120 -8.5t-101 -22.5l11 64q90 31 227 31
q61 0 103.5 -4.5t80 -18t53.5 -40.5t9 -68q-6 -33 -33 -57t-55.5 -34.5t-69.5 -16.5t-55.5 -6.5t-32.5 -0.5l-1 -6l25 -1q25 0 40.5 -1.5t43.5 -5.5t45.5 -12t36 -20t25.5 -32t2 -46q-7 -39 -31.5 -66t-66.5 -41t-91 -19t-116 -5zM1344 44q-119 0 -183.5 34t-52.5 105
q17 93 170 110q-53 10 -89 38.5t-26 82.5q11 64 82.5 97.5t187.5 33.5q108 0 170.5 -33.5t51.5 -97.5q-17 -97 -158 -121q147 -17 131 -110q-12 -66 -90 -103.5t-194 -35.5zM1394 326q87 0 131 17.5t51 57.5q6 35 -36 57.5t-119 22.5q-76 0 -126.5 -22.5t-56.5 -57.5
q-7 -40 30.5 -57.5t125.5 -17.5zM1356 109q82 0 135.5 20.5t59.5 57.5q7 38 -34.5 56.5t-133.5 18.5q-182 0 -197 -75q-7 -37 40 -57.5t130 -20.5z" />
    <glyph glyph-name="fiveeighths" unicode="&#x215d;" horiz-adv-x="1751" 
d="M395 -22l818 744h104l-818 -744h-104zM221 147q-51 0 -117 8t-94 20l13 70q24 -13 91 -23.5t117 -10.5q111 0 164.5 25.5t62.5 83.5q9 45 -27 63.5t-116 18.5q-118 0 -248 -53l51 287h447l-11 -63h-388l-23 -136q93 31 203 31q34 0 62 -3.5t55.5 -13.5t45 -27t25 -45.5
t0.5 -66.5q-14 -78 -99 -121.5t-214 -43.5zM1384 44q-119 0 -183.5 34t-52.5 105q17 93 170 110q-53 10 -89 38.5t-26 82.5q11 64 82.5 97.5t187.5 33.5q108 0 170.5 -33.5t51.5 -97.5q-17 -97 -158 -121q147 -17 131 -110q-12 -66 -90 -103.5t-194 -35.5zM1434 326
q87 0 131 17.5t51 57.5q6 35 -36 57.5t-119 22.5q-76 0 -126.5 -22.5t-56.5 -57.5q-7 -40 30.5 -57.5t125.5 -17.5zM1396 109q82 0 135.5 20.5t59.5 57.5q7 38 -34.5 56.5t-133.5 18.5q-182 0 -197 -75q-7 -37 40 -57.5t130 -20.5z" />
    <glyph glyph-name="seveneighths" unicode="&#x215e;" horiz-adv-x="1618" 
d="M249 -22l818 744h104l-818 -744h-104zM100 158l397 415h-435l11 63h530l-5 -30l-405 -448h-93zM1251 44q-119 0 -183.5 34t-52.5 105q17 93 170 110q-53 10 -89 38.5t-26 82.5q11 64 82.5 97.5t187.5 33.5q108 0 170.5 -33.5t51.5 -97.5q-17 -97 -158 -121
q147 -17 131 -110q-12 -66 -90 -103.5t-194 -35.5zM1301 326q87 0 131 17.5t51 57.5q6 35 -36 57.5t-119 22.5q-76 0 -126.5 -22.5t-56.5 -57.5q-7 -40 30.5 -57.5t125.5 -17.5zM1263 109q82 0 135.5 20.5t59.5 57.5q7 38 -34.5 56.5t-133.5 18.5q-182 0 -197 -75
q-7 -37 40 -57.5t130 -20.5z" />
    <glyph glyph-name="arrowleft" unicode="&#x2190;" horiz-adv-x="830" 
d="M796 278h-600l168 -198l-132 1l-206 250l206 250h132l-169 -198h601v-105z" />
    <glyph glyph-name="arrowup" unicode="&#x2191;" horiz-adv-x="561" 
d="M228 -58v600l-198 -168l1 132l250 206l250 -206v-132l-198 169v-601h-105z" />
    <glyph glyph-name="arrowright" unicode="&#x2192;" horiz-adv-x="830" 
d="M35 383h600l-168 198l132 -1l206 -250l-206 -250h-132l169 198h-601v105z" />
    <glyph glyph-name="arrowdown" unicode="&#x2193;" horiz-adv-x="561" 
d="M333 699v-600l198 168l-1 -132l-250 -206l-250 206v132l198 -169v601h105z" />
    <glyph glyph-name="partialdiff" unicode="&#x2202;" horiz-adv-x="836" 
d="M328 -12q-169 0 -254.5 60.5t-71.5 163.5q16 111 108 179.5t255 68.5q103 0 177.5 -43.5t116.5 -103.5q43 174 -25 273.5t-238 114.5l15 54q195 0 298.5 -109.5t72.5 -283.5q-33 -188 -150 -281t-304 -93zM352 70q110 0 177 38t104 122q-22 73 -94 124t-159 51
q-104 0 -176 -46t-85 -122q-13 -75 51 -121t182 -46z" />
    <glyph glyph-name="emptyset" unicode="&#x2205;" horiz-adv-x="702" 
d="M785 493l-113 -81q29 -66 -5 -162q-45 -120 -157.5 -193t-252.5 -73q-83 0 -139 28l-137 -99l-60 80l124 89q-34 68 3 168q44 120 156 193t252 73q90 0 147 -31l117 84zM150 250q-21 -57 -9 -99l369 267q-34 15 -84 15q-93 0 -169.5 -50.5t-106.5 -132.5zM565 250
q19 50 10 92l-364 -263q33 -12 77 -12q93 0 169.5 50.5t107.5 132.5z" />
    <glyph glyph-name="product" unicode="&#x220f;" horiz-adv-x="790" 
d="M32 -170l139 787h-79l15 83h730l-15 -83h-79l-139 -787h-112l139 787h-348l-139 -787h-112z" />
    <glyph glyph-name="summation" unicode="&#x2211;" horiz-adv-x="790" 
d="M-32 0l15 83l344 257l-250 277l15 83h730l-15 -83h-548l250 -277l-344 -257h548l-15 -83h-730z" />
    <glyph glyph-name="minus" unicode="&#x2212;" horiz-adv-x="580" 
d="M23 289l14 83h520l-14 -83h-520z" />
    <glyph glyph-name="radical" unicode="&#x221a;" horiz-adv-x="1109" 
d="M207 0l-175 501h129l171 -486l481 685h328l-15 -83h-242l-435 -617h-242z" />
    <glyph glyph-name="infinity" unicode="&#x221e;" horiz-adv-x="988" 
d="M237 77q-109 0 -166.5 68t-41.5 160q17 95 101 165.5t191 70.5q95 0 142 -44.5t42 -122.5q23 79 87 123t157 44q107 0 166 -71t42 -165q-16 -92 -97.5 -160t-190.5 -68q-97 0 -145 41t-43 116q-23 -75 -85 -116t-159 -41zM269 178q62 7 100.5 42t46.5 86q11 55 -20 89.5
t-96 34.5q-59 0 -102.5 -35.5t-52.5 -88.5q-10 -57 24.5 -94.5t99.5 -33.5zM674 178q62 -4 110 33.5t57 94.5q10 53 -21 88.5t-90 35.5q-66 0 -108 -34t-52 -90q-9 -52 17.5 -86.5t86.5 -41.5z" />
    <glyph glyph-name="integral" unicode="&#x222b;" horiz-adv-x="667" 
d="M-67 -140l23 58q61 0 108 24t62 60l242 587q19 45 50 73t110 48.5t206 20.5l-23 -58q-61 0 -107.5 -24t-61.5 -60l-242 -587q-14 -33 -34.5 -56t-60 -44t-107.5 -31.5t-165 -10.5z" />
    <glyph glyph-name="approxequal" unicode="&#x2248;" horiz-adv-x="441" 
d="M291 310q-31 0 -52.5 18t-37.5 36t-32 18q-28 0 -47.5 -18t-26.5 -53h-61q10 58 51 94t95 36q21 0 39 -11.5t28 -24.5t24.5 -24.5t30.5 -11.5q62 0 75 71h60q-11 -59 -51.5 -94.5t-94.5 -35.5zM261 140q-31 0 -52.5 18t-37.5 36t-32 18q-28 0 -47.5 -18t-26.5 -53h-61
q10 58 51 94t95 36q21 0 39 -11.5t28 -24.5t24.5 -24.5t30.5 -11.5q62 0 75 71h60q-11 -59 -51.5 -94.5t-94.5 -35.5z" />
    <glyph glyph-name="notequal" unicode="&#x2260;" horiz-adv-x="580" 
d="M26 20l102 139h-126l14 83h173l124 170h-267l15 83h313l92 125h81l-92 -125h126l-15 -83h-172l-124 -170h266l-14 -83h-313l-102 -139h-81z" />
    <glyph glyph-name="lessequal" unicode="&#x2264;" horiz-adv-x="600" 
d="M317 204l-224 141l274 141h201l-284 -141l234 -141h-201zM55 0l7 43h475l-7 -43h-475z" />
    <glyph glyph-name="greaterequal" unicode="&#x2265;" horiz-adv-x="600" 
d="M116 204l284 141l-234 141h201l224 -141l-274 -141h-201zM32 0l7 43h475l-7 -43h-475z" />
    <glyph glyph-name="lozenge" unicode="&#x25ca;" horiz-adv-x="726" 
d="M192 0l-162 250l250 250h254l162 -250l-250 -250h-254zM324 27l230 223l-152 223l-230 -223z" />
    <glyph glyph-name="A.001" horiz-adv-x="1083" 
d="M-26 0l526 700h207l277 -700h-139l-58 163h-546l-116 -163h-151zM299 245h458l-153 428z" />
    <glyph glyph-name="B.001" horiz-adv-x="926" 
d="M29 0l124 700h513q105 0 156 -49.5t38 -124.5q-30 -165 -254 -165h-41l-2 -11h63q106 0 158.5 -43t36.5 -132q-14 -77 -85 -126t-172 -49h-535zM211 390h354q83 0 125 23.5t51 73.5q11 62 -21.5 91t-116.5 29h-354zM160 94h374q84 0 127.5 29.5t54.5 92.5
q9 54 -24.5 79.5t-117.5 25.5h-375z" />
    <glyph glyph-name="C.001" horiz-adv-x="858" 
d="M453 -16q-224 0 -330.5 99t-76.5 267t171.5 267t365.5 99q173 -1 285 -54l-19 -103q-116 64 -283 64q-162 0 -274 -74t-134 -199t64 -199t247 -74q170 0 307 64l-18 -103q-130 -53 -305 -54z" />
    <glyph glyph-name="G.001" horiz-adv-x="871" 
d="M451 -16q-224 0 -330.5 99t-76.5 267t171.5 267t365.5 99q168 -1 280 -54l-18 -103q-117 64 -278 64q-162 0 -274.5 -74t-134.5 -199t64 -199t248 -74q105 0 206 29l34 192h-389l16 84h498l-58 -324q-189 -73 -324 -74z" />
    <glyph glyph-name="J.001" horiz-adv-x="688" 
d="M215 -16q-88 1 -144 12.5t-120 41.5l20 113q138 -74 260 -74q111 0 169.5 60t83.5 202l64 361h112l-64 -361q-32 -187 -121.5 -271t-259.5 -84z" />
    <glyph glyph-name="K.001" horiz-adv-x="938" 
d="M29 0l124 700h112l-82 -464l514 464h188l-305 -239l233 -461h-146l-179 389q-224 -175 -318 -229l-29 -160h-112z" />
    <glyph glyph-name="R.001" horiz-adv-x="909" 
d="M29 0l124 700h509q106 0 156.5 -51t35.5 -134q-27 -151 -251 -151h-72l-1 -11q96 0 167.5 -85.5t127.5 -267.5h-131q-67 176 -129 250t-144 74h-223l-57 -324h-112zM215 424h352q87 0 126.5 20t48.5 67q9 53 -22.5 74t-120.5 21h-352z" />
    <glyph glyph-name="S.001" horiz-adv-x="890" 
d="M369 -15q-107 1 -202.5 24.5t-145.5 49.5l18 106q52 -30 152 -58.5t184 -28.5q163 0 240.5 23.5t87.5 76.5q7 41 -26.5 68t-91.5 40t-130 22.5t-143 21t-128.5 30t-89 55t-21.5 90.5q10 55 50 96.5t100.5 66t131 36t148.5 11.5q226 -2 337 -54l-19 -103q-51 28 -148 46
t-177 18q-154 0 -226.5 -24t-81.5 -78q-6 -35 27.5 -58.5t92 -35.5t130 -21t142.5 -22t128.5 -32t89 -56t22.5 -90q-11 -62 -56.5 -107.5t-112 -69t-136.5 -33.5t-146 -10z" />
    <glyph glyph-name="i.loclTRK" horiz-adv-x="176" 
d="M136 535q-44 0 -63 23.5t-6 61.5t49 61.5t80 23.5q47 0 65 -23t4 -62t-48 -62t-81 -23zM-12 0l88 500h112l-88 -500h-112z" />
    <glyph glyph-name="c.001" horiz-adv-x="693" 
d="M300 -16q-136 0 -205.5 73t-48.5 193t116.5 193t231.5 73q135 0 206 -65t52 -172h-114q8 72 -35 113t-124 41q-86 0 -146 -49t-75 -134t27.5 -134t128.5 -49q82 0 141 43t76 119h113q-20 -110 -114 -177.5t-230 -67.5z" />
    <glyph glyph-name="e.001" horiz-adv-x="696" 
d="M300 -16q-136 0 -205.5 73t-48.5 193t116.5 193t231.5 73q135 0 205.5 -64t52.5 -174l-12 -71h-485q3 -64 48 -101.5t121 -37.5q67 0 120.5 29.5t75.5 77.5h118q-34 -88 -120 -139.5t-218 -51.5zM161 265l375 8q9 72 -33.5 115.5t-123.5 43.5q-80 0 -140 -46t-78 -121z
" />
    <glyph glyph-name="g.001" horiz-adv-x="761" 
d="M304 -200q-156 -2 -226.5 49t-54.5 141h112q-9 -52 31.5 -78t147.5 -26q138 0 193.5 49t80.5 196q-36 -68 -108.5 -109t-158.5 -41q-129 0 -199 76t-48 197q20 114 111.5 188t198.5 74q101 0 169 -45t71 -133h12l13 162h101l-69 -395q-28 -160 -117 -231.5t-260 -73.5z
M351 67q82 0 149 52t82 133q13 79 -36 130t-131 51q-89 0 -151.5 -50t-76.5 -131q-15 -83 29.5 -134t134.5 -51z" />
    <glyph glyph-name="zero.tf" horiz-adv-x="956" 
d="M413 -16q-202 0 -299.5 99.5t-67.5 266.5q29 166 163 266t334 100q204 0 301 -98.5t67 -267.5q-30 -167 -162.5 -266.5t-335.5 -99.5zM419 11q197 0 317 92.5t148 246.5q28 153 -60 246t-285 93q-191 0 -314.5 -93.5t-151.5 -245.5q-28 -151 63.5 -245t282.5 -94z
M438 123q-127 0 -190 62t-44 165q18 103 103 165.5t211 62.5q127 0 190 -62.5t45 -165.5t-103 -165t-212 -62zM448 181q93 0 157.5 45.5t78.5 123.5q13 78 -35 124t-141 46t-157.5 -46t-77.5 -124q-14 -77 34 -123t141 -46z" />
    <glyph glyph-name="one.tf" horiz-adv-x="956" 
d="M413 -16q-202 0 -299.5 99.5t-67.5 266.5q29 166 163 266t334 100q204 0 301 -98.5t67 -267.5q-30 -167 -162.5 -266.5t-335.5 -99.5zM418 11q197 0 317 92.5t148 246.5q28 153 -60 246t-285 93q-191 0 -314.5 -93.5t-151.5 -245.5q-28 -151 63.5 -245t282.5 -94z
M431 133l63 361l-227 -134l12 69l266 139h32l-77 -435h-69z" />
    <glyph glyph-name="two.tf" horiz-adv-x="956" 
d="M413 -16q-202 0 -299.5 99.5t-67.5 266.5q29 165 163.5 265.5t333.5 100.5q204 0 301 -98.5t67 -267.5q-30 -167 -162.5 -266.5t-335.5 -99.5zM419 11q197 0 317 92.5t148 246.5q28 153 -60 246t-285 93q-191 0 -314.5 -93.5t-151.5 -245.5q-28 -151 63.5 -245t282.5 -94
zM213 136l6 37q24 12 77 36.5t85.5 40t80.5 39.5t78.5 42t61 39t47 39.5t19.5 35.5q7 42 -29 59.5t-131 17.5q-47 0 -117.5 -8t-91.5 -16l11 60q67 20 214 22q123 1 175.5 -25.5t40.5 -97.5q-8 -48 -74 -101.5t-143.5 -92t-161.5 -69.5h314l-11 -58h-451z" />
    <glyph glyph-name="three.tf" horiz-adv-x="956" 
d="M413 -16q-202 0 -299.5 99.5t-67.5 266.5q29 165 163.5 265.5t333.5 100.5q204 0 301 -98.5t67 -267.5q-30 -167 -162.5 -266.5t-335.5 -99.5zM418 11q197 0 317 92.5t148 246.5q28 153 -60 246t-285 93q-191 0 -314.5 -93.5t-151.5 -245.5q-28 -151 63.5 -245t282.5 -94
zM438 123q-131 2 -198 27l11 58q59 -27 191 -27q198 0 209 60q4 22 -9.5 36t-55 24.5t-109.5 16.5t-182 11l8 44q207 7 286.5 25.5t85.5 54.5q6 34 -34.5 50.5t-139.5 16.5q-127 0 -200 -27l10 57q81 28 207 28q56 0 94 -4t72.5 -16t48.5 -36.5t8 -62.5q-5 -25 -21.5 -44.5
t-42 -30t-48 -17.5t-51.5 -9t-38.5 -2.5t-22.5 -0.5l-1 -6h16.5t25.5 -0.5t29.5 -2t33 -5t31 -8.5t28.5 -13t21 -18.5t13 -26t0 -33.5q-8 -47 -47 -74.5t-93.5 -36.5t-135.5 -8z" />
    <glyph glyph-name="four.tf" horiz-adv-x="956" 
d="M413 -16q-202 0 -299.5 99.5t-67.5 266.5q29 165 163.5 265.5t333.5 100.5q204 0 301 -98.5t67 -267.5q-30 -167 -162.5 -266.5t-335.5 -99.5zM418 11q197 0 317 92.5t148 246.5q28 153 -60 246t-285 93q-191 0 -314.5 -93.5t-151.5 -245.5q-28 -151 63.5 -245t282.5 -94
zM533 133l15 82h-379l7 41l386 312h118l-52 -295h69l-10 -58h-70l-14 -82h-70zM269 273h289l48 273z" />
    <glyph glyph-name="five.tf" horiz-adv-x="956" 
d="M413 -16q-202 0 -299.5 99.5t-67.5 266.5q29 165 163.5 265.5t333.5 100.5q204 0 301 -98.5t67 -267.5q-30 -167 -162.5 -266.5t-335.5 -99.5zM419 11q197 0 317 92.5t148 246.5q28 153 -60 246t-285 93q-191 0 -314.5 -93.5t-151.5 -245.5q-28 -151 63.5 -245t282.5 -94
zM429 119q-47 0 -106.5 7t-85.5 19l11 63q23 -12 83.5 -21.5t106.5 -9.5q100 0 149 23.5t58 75.5q7 41 -25.5 58t-105.5 17q-111 0 -225 -49l46 262h406l-9 -58h-353l-21 -123q88 28 185 28q31 0 56 -3t50.5 -12.5t41 -24.5t22.5 -41t1 -61q-13 -71 -90.5 -110.5
t-194.5 -39.5z" />
    <glyph glyph-name="six.tf" horiz-adv-x="956" 
d="M413 -16q-202 0 -299.5 99.5t-67.5 266.5q29 165 163.5 265.5t333.5 100.5q204 0 301 -98.5t67 -267.5q-30 -167 -162.5 -266.5t-335.5 -99.5zM419 11q197 0 317 92.5t148 246.5q28 153 -60 246t-285 93q-191 0 -314.5 -93.5t-151.5 -245.5q-28 -151 63.5 -245t282.5 -94
zM441 126q-118 0 -175.5 58t-37.5 174q18 106 102 162.5t209 56.5q103 0 169 -36l-11 -66q-73 44 -180 44q-83 0 -145.5 -45t-74.5 -116l-3 -18q108 79 228 79q101 0 143 -42.5t28 -111.5q-14 -64 -80.5 -101.5t-171.5 -37.5zM446 183q83 0 126 21t52 69q8 45 -23.5 67.5
t-103.5 22.5q-52 0 -113 -22.5t-92 -58.5q5 -52 42.5 -75.5t111.5 -23.5z" />
    <glyph glyph-name="seven.tf" horiz-adv-x="956" 
d="M413 -16q-202 0 -299.5 99.5t-67.5 266.5q29 165 163.5 265.5t333.5 100.5q204 0 301 -98.5t67 -267.5q-30 -167 -162.5 -266.5t-335.5 -99.5zM418 11q197 0 317 92.5t148 246.5q28 153 -60 246t-285 93q-191 0 -314.5 -93.5t-151.5 -245.5q-28 -151 63.5 -245t282.5 -94
zM325 133l361 377h-396l10 58h482l-5 -28l-368 -407h-84z" />
    <glyph glyph-name="eight.tf" horiz-adv-x="956" 
d="M413 -16q-202 0 -299.5 99.5t-67.5 266.5q29 165 163.5 265.5t333.5 100.5q204 0 301 -98.5t67 -267.5q-30 -167 -162.5 -266.5t-335.5 -99.5zM419 11q197 0 317 92.5t148 246.5q28 153 -60 246t-285 93q-191 0 -314.5 -93.5t-151.5 -245.5q-28 -151 63.5 -245t282.5 -94
zM424 120q-108 0 -167 30.5t-48 95.5q15 83 155 100q-48 9 -81 34.5t-24 74.5q10 58 75 89t170 31q99 0 156 -31t47 -89q-16 -88 -144 -109q25 -3 45 -8.5t40 -16.5t29.5 -30t4.5 -45q-10 -60 -81 -94t-177 -32zM469 375q79 0 119 16t47 53q5 32 -33 52t-108 20t-115.5 -20
t-51.5 -52q-7 -37 28 -53t114 -16zM435 179q74 0 122.5 18.5t54.5 51.5q7 34 -31 51t-122 17q-166 0 -179 -68q-6 -33 36.5 -51.5t118.5 -18.5z" />
    <glyph glyph-name="nine.tf" horiz-adv-x="956" 
d="M413 -16q-202 0 -299.5 99.5t-67.5 266.5q29 165 163.5 265.5t333.5 100.5q204 0 301 -98.5t67 -267.5q-30 -167 -162.5 -266.5t-335.5 -99.5zM419 11q197 0 317 92.5t148 246.5q28 153 -60 246t-285 93q-191 0 -314.5 -93.5t-151.5 -245.5q-28 -151 63.5 -245t282.5 -94
zM523 576q118 0 176 -58.5t38 -173.5q-19 -105 -103 -162t-208 -57q-103 0 -170 36l12 66q69 -44 180 -44q83 0 145 45t74 116l3 17q-106 -78 -227 -78q-101 0 -143.5 42.5t-27.5 111.5q13 64 79.5 101.5t171.5 37.5zM519 519q-83 0 -126 -21t-52 -69q-8 -45 23.5 -67.5
t103.5 -22.5q52 0 112.5 22.5t91.5 58.5q-5 53 -42 76t-111 23z" />
    <glyph glyph-name="dollar.001" horiz-adv-x="863" 
d="M250 -110l17 100q-161 18 -259 69l19 106q52 -30 151.5 -58.5t183.5 -28.5q163 0 241 23.5t88 76.5q7 41 -26.5 68t-91.5 40t-130 22.5t-143 21t-128.5 30t-89 55t-21.5 90.5q16 90 107 141t226 65l22 124h157l-21 -122q179 -7 276 -52l-19 -103q-51 28 -148 46t-177 18
q-154 0 -226.5 -24t-81.5 -78q-6 -35 27.5 -58.5t92 -35.5t130 -21t142.5 -22t128 -32t88.5 -56t21.5 -90q-9 -55 -45.5 -97t-92 -66.5t-116 -37.5t-129.5 -17l-16 -97h-157z" />
    <glyph glyph-name="Euro.001" horiz-adv-x="927" 
d="M537 -16q-179 0 -284 64.5t-125 179.5h-120l19 103h100l3 19q1 4 2.5 11t1.5 10h-100l18 103h121q60 114 188 178t306 64q173 -1 285 -54l-18 -103q-125 64 -283 64q-117 0 -210 -39t-146 -110h467l-18 -103h-498l-4 -21l-3 -19h498l-19 -103h-467q27 -72 106 -111.5
t196 -39.5q171 0 308 64l-19 -103q-130 -53 -305 -54z" />
    <glyph glyph-name="brevecombcy" 
d="M-305 551q-93 0 -131 41t-3 108h105q-19 -41 -1 -61t66 -20q103 0 153 81h103q-37 -69 -114.5 -109t-177.5 -40z" />
    </font>
</defs>
</svg>
