<?xml version="1.0" standalone="no"?>
<!DOCTYPE svg PUBLIC "-//W3C//DTD SVG 1.1//EN" "http://www.w3.org/Graphics/SVG/1.1/DTD/svg11.dtd" >
<svg xmlns="http://www.w3.org/2000/svg" xmlns:xlink="http://www.w3.org/1999/xlink" version="1.1">
<metadata>
Created by FontForge 20190801 at Tue Sep 12 15:50:05 2017
 By www-data
Copyright (c) 2017 by Good Type Foundry Kenneth Knutsen. All rights reserved.
</metadata>
<defs>
<font id="GoodTypeFoundryAdieuLightBackslant" horiz-adv-x="0" >
  <font-face 
    font-family="GoodTypeFoundryAdieuLightBackslant"
    font-weight="300"
    font-stretch="normal"
    units-per-em="1000"
    panose-1="0 0 4 0 0 0 0 0 0 0"
    ascent="800"
    descent="-200"
    x-height="500"
    cap-height="700"
    bbox="-1065 -532 1716 1021"
    underline-thickness="50"
    underline-position="-100"
    unicode-range="U+0020-25CA"
  />
<missing-glyph horiz-adv-x="843" 
d="M422 -11q-151 0 -256.5 107t-105.5 255q0 147 106.5 254t255.5 107q147 0 254 -106t107 -255q0 -150 -107 -256t-254 -106zM422 63q119 0 203 84t84 204t-84 203.5t-203 83.5q-120 0 -204 -83.5t-84 -203.5t84 -204t204 -84zM329 394q-28 0 -47 18.5t-19 45.5
q0 26 19 44.5t47 18.5q26 0 45 -18.5t19 -44.5q0 -27 -19 -45.5t-45 -18.5zM521 394q-27 0 -45 18.5t-18 45.5q0 26 18 44.5t45 18.5t46 -18.5t19 -44.5q0 -27 -19 -45.5t-46 -18.5zM422 151q-94 0 -156 51.5t-62 136.5l64 9q4 -46 40 -80t114 -34q77 0 114.5 34.5
t39.5 79.5l63 -9q0 -85 -63 -136.5t-154 -51.5z" />
    <glyph glyph-name=".notdef" horiz-adv-x="843" 
d="M422 -11q-151 0 -256.5 107t-105.5 255q0 147 106.5 254t255.5 107q147 0 254 -106t107 -255q0 -150 -107 -256t-254 -106zM422 63q119 0 203 84t84 204t-84 203.5t-203 83.5q-120 0 -204 -83.5t-84 -203.5t84 -204t204 -84zM329 394q-28 0 -47 18.5t-19 45.5
q0 26 19 44.5t47 18.5q26 0 45 -18.5t19 -44.5q0 -27 -19 -45.5t-45 -18.5zM521 394q-27 0 -45 18.5t-18 45.5q0 26 18 44.5t45 18.5t46 -18.5t19 -44.5q0 -27 -19 -45.5t-46 -18.5zM422 151q-94 0 -156 51.5t-62 136.5l64 9q4 -46 40 -80t114 -34q77 0 114.5 34.5
t39.5 79.5l63 -9q0 -85 -63 -136.5t-154 -51.5z" />
    <glyph glyph-name=".null" 
 />
    <glyph glyph-name="nonmarkingreturn" horiz-adv-x="333" 
 />
    <glyph glyph-name="space" unicode=" " horiz-adv-x="300" 
 />
    <glyph glyph-name="exclam" unicode="!" horiz-adv-x="258" 
d="M90 294l-82 406h135l62 -406h-115zM201 -18q-26 0 -50 19t-28 44q-4 26 12.5 44.5t42.5 18.5q27 0 51.5 -18.5t28.5 -44.5t-12.5 -44.5t-44.5 -18.5z" />
    <glyph glyph-name="quotedbl" unicode="&#x22;" horiz-adv-x="358" 
d="M17 430l43 270h114l-93 -270h-64zM201 430l43 270h114l-93 -270h-64z" />
    <glyph glyph-name="numbersign" unicode="#" horiz-adv-x="1009" 
d="M225 0l4 183h-165l-5 82h170l5 153h-180l-4 82h185l3 200h126l-3 -200h317l3 200h126l-3 -200h145l4 -82h-150l-5 -153h160l5 -82h-165l-4 -183h-126l4 183h-317l-4 -183h-126zM355 265h317l5 153h-317z" />
    <glyph glyph-name="dollar" unicode="$" horiz-adv-x="863" 
d="M844 197q15 -90 -57.5 -144t-210.5 -66l18 -97h-157l-18 97q-146 13 -240.5 76.5t-110.5 157.5h115q11 -65 88 -104t189 -40q141 -1 211 28t63 87q-6 43 -45.5 68t-98.5 34t-129.5 14t-141 13t-131 25t-103 56.5t-52.5 101.5q-15 91 54.5 145t203.5 65l-22 121h157
l23 -124q135 -17 223 -78.5t107 -153.5h-115q-10 64 -85.5 103t-184.5 41q-131 2 -194.5 -25.5t-54.5 -81.5q6 -37 45 -57.5t97.5 -28.5t128.5 -12.5t140.5 -15t131 -30t103.5 -64t53 -111.5z" />
    <glyph glyph-name="percent" unicode="%" horiz-adv-x="1039" 
d="M239 460q-87 0 -154 35t-76 90q-10 55 45.5 90t141.5 35q93 0 157 -34.5t74 -90.5q9 -56 -43 -90.5t-145 -34.5zM171 0l587 700h119l-587 -700h-119zM233 500q55 0 84 23.5t21 61.5q-8 39 -45 62.5t-90 23.5q-54 0 -83 -24t-21 -62q7 -38 43.5 -61.5t90.5 -23.5zM844 -11
q-86 0 -153.5 35t-77.5 90q-9 55 46.5 90t141.5 35q93 0 157 -34.5t73 -90.5q10 -56 -42 -90.5t-145 -34.5zM838 28q55 0 84 24t20 62q-8 38 -44.5 61.5t-89.5 23.5q-54 0 -83 -23.5t-22 -61.5q8 -39 44.5 -62.5t90.5 -23.5z" />
    <glyph glyph-name="ampersand" unicode="&#x26;" horiz-adv-x="866" 
d="M416 -12q-41 0 -81 4.5t-88.5 19t-86.5 37.5t-68.5 64.5t-39.5 95.5q-16 86 56 146t178 51l-244 212l-14 82h625l16 -90h-497l497 -422q79 79 109 191l76 -76q-39 -104 -111 -179l146 -124h-131l-79 68q-119 -80 -263 -80zM407 79q109 0 197 55l-243 209
q-88 20 -150.5 -12.5t-50.5 -98.5q27 -153 247 -153z" />
    <glyph glyph-name="quotesingle" unicode="'" horiz-adv-x="174" 
d="M17 430l43 270h114l-93 -270h-64z" />
    <glyph glyph-name="parenleft" unicode="(" horiz-adv-x="470" 
d="M506 -137q-174 1 -295 133t-161 354q-39 221 36 353.5t248 133.5l15 -86q-124 -1 -179.5 -111t-23.5 -290t126.5 -290t218.5 -111z" />
    <glyph glyph-name="parenright" unicode=")" horiz-adv-x="470" 
d="M136 -137l-15 86q122 1 178.5 113t24.5 288q-32 177 -127.5 288.5t-217.5 112.5l-15 86q174 -1 295 -133t161 -354q39 -221 -36 -353.5t-248 -133.5z" />
    <glyph glyph-name="asterisk" unicode="*" horiz-adv-x="615" 
d="M292 194l-1 195l-100 -158l-96 75l153 117l-209 -30l-18 108l219 -30l-195 117l69 76l157 -159l-67 195h118l2 -195l99 159l97 -76l-154 -117l210 30l18 -108l-220 30l196 -117l-70 -75l-156 158l66 -195h-118z" />
    <glyph glyph-name="plus" unicode="+" horiz-adv-x="580" 
d="M295 71l-39 218h-218l-15 83h218l-39 219h83l39 -219h219l15 -83h-219l39 -218h-83z" />
    <glyph glyph-name="comma" unicode="," horiz-adv-x="226" 
d="M54 -169l15 270h103l-65 -270h-53z" />
    <glyph glyph-name="hyphen" unicode="-" horiz-adv-x="460" 
d="M37 289l-14 83h400l14 -83h-400z" />
    <glyph glyph-name="period" unicode="." horiz-adv-x="240" 
d="M131 -18q-26 0 -50 19t-28 44q-4 26 12.5 44.5t42.5 18.5q27 0 51.5 -18.5t28.5 -44.5t-12.5 -44.5t-44.5 -18.5z" />
    <glyph glyph-name="slash" unicode="/" horiz-adv-x="1018" 
d="M91 0l710 700h126l-710 -700h-126z" />
    <glyph glyph-name="zero" unicode="0" horiz-adv-x="976" 
d="M552 -16q-203 0 -340 100t-166 266t72.5 266t305.5 100t341 -100t166 -266t-73 -266t-306 -100zM535 77q150 0 228 74t56 199q-22 126 -125.5 199.5t-253.5 73.5q-149 0 -226.5 -73.5t-55.5 -199.5q22 -125 125 -199t252 -74z" />
    <glyph glyph-name="one" unicode="1" horiz-adv-x="587" 
d="M445 0l-102 582l-291 -216l-20 111l351 223h52l122 -700h-112z" />
    <glyph glyph-name="two" unicode="2" horiz-adv-x="853" 
d="M118 0l-11 60q30 17 80 45t87 48.5t86.5 49t85.5 52t76 50.5t66.5 51.5t49 49t31.5 48t5 44.5q-11 67 -79.5 95.5t-220.5 28.5q-75 0 -184 -13.5t-138 -25.5l-18 97q39 13 140.5 23.5t192.5 11.5q197 2 296.5 -40.5t120.5 -157.5q10 -58 -29.5 -122t-112.5 -119.5
t-153.5 -101t-165.5 -81.5h506l16 -93h-727z" />
    <glyph glyph-name="three" unicode="3" horiz-adv-x="821" 
d="M431 -16q-211 2 -333 44l-16 93q51 -20 146 -32t177 -12q166 0 238.5 24t64.5 73q-7 36 -36 58t-102 39t-185.5 26.5t-299.5 17.5l-11 72q224 8 348 24.5t168 41t37 63.5q-9 55 -83.5 81.5t-234.5 26.5q-79 0 -170 -12.5t-137 -32.5l-17 93q54 22 145.5 33.5t171.5 11.5
q71 0 124 -3.5t108.5 -15.5t92.5 -32.5t64.5 -56t36.5 -84.5q5 -31 -2.5 -56.5t-28 -42.5t-42.5 -30t-55 -20t-55 -11.5t-53.5 -5.5t-40 -1.5t-23.5 -0.5l2 -9h31q31 -1 49.5 -2t56.5 -5t64 -11t59.5 -20t55.5 -30t39.5 -44t23.5 -60q9 -47 -5 -81.5t-45 -55.5t-82 -34
t-110 -17.5t-136 -3.5z" />
    <glyph glyph-name="four" unicode="4" horiz-adv-x="881" 
d="M692 0l-23 132h-609l-12 66l444 502h190l83 -475h111l17 -93h-112l23 -132h-112zM187 225h466l-78 440z" />
    <glyph glyph-name="five" unicode="5" horiz-adv-x="825" 
d="M421 -16q-75 0 -175 11.5t-149 29.5l-17 102q42 -18 145.5 -34t176.5 -16q162 0 227.5 38t49.5 122q-10 66 -72.5 93t-180.5 27q-174 0 -335 -78l-74 421h655l17 -93h-568l35 -198q125 45 283 45q315 0 355 -228q20 -114 -82.5 -178t-290.5 -64z" />
    <glyph glyph-name="six" unicode="6" horiz-adv-x="867" 
d="M520 -12q-190 0 -316.5 94t-159.5 280q-30 170 73.5 261.5t303.5 91.5q164 0 293 -58l19 -106q-139 71 -314 71q-134 0 -209 -72.5t-54 -187.5l5 -27q53 51 136.5 88t186.5 37q162 0 254 -68t108 -180q15 -103 -71 -163.5t-255 -60.5zM494 81q135 0 192.5 33.5
t44.5 111.5q-26 145 -258 145q-83 0 -167.5 -36t-114.5 -94q38 -85 111 -122.5t192 -37.5z" />
    <glyph glyph-name="seven" unicode="7" horiz-adv-x="813" 
d="M240 0l369 607h-638l-16 93h776l7 -44l-362 -656h-136z" />
    <glyph glyph-name="eight" unicode="8" horiz-adv-x="844" 
d="M486 -20q-113 0 -198.5 19.5t-145 66t-72.5 117.5q-7 42 8 73t47.5 48.5t65 26.5t71.5 13q-36 6 -69.5 17.5t-69.5 31.5t-61 53t-32 75q-16 93 71.5 142.5t256.5 49.5q158 0 267.5 -49.5t125.5 -142.5q7 -42 -5.5 -75t-41 -53t-58 -31.5t-64.5 -17.5q225 -24 249 -161
q17 -97 -78.5 -151t-266.5 -52zM415 392q128 0 182.5 25.5t43.5 84.5q-8 52 -81 84.5t-185 32.5q-113 0 -175 -32.5t-54 -84.5q11 -59 76.5 -84.5t192.5 -25.5zM470 75q121 0 188.5 30t57.5 84q-18 109 -286 109q-136 0 -197 -26.5t-52 -82.5q10 -54 89 -84t200 -30z" />
    <glyph glyph-name="nine" unicode="9" horiz-adv-x="867" 
d="M346 714q190 0 316.5 -94t159.5 -280q30 -170 -73.5 -261.5t-303.5 -91.5q-164 0 -293 58l-19 106q139 -71 314 -71q134 0 209 72.5t54 187.5l-5 27q-53 -51 -136.5 -88t-186.5 -37q-162 0 -254 68t-108 180q-15 103 71 163.5t255 60.5zM372 621q-135 0 -192.5 -33.5
t-44.5 -111.5q26 -145 258 -145q83 0 167.5 36t114.5 94q-38 85 -111 122.5t-192 37.5z" />
    <glyph glyph-name="colon" unicode=":" horiz-adv-x="305" 
d="M118 288q-26 0 -54 19t-37 44q-10 26 3.5 44.5t39.5 18.5q27 0 54.5 -18.5t37.5 -44.5q9 -26 -3.5 -44.5t-40.5 -18.5zM172 -18q-26 0 -54 19t-37 44q-10 26 3.5 44.5t39.5 18.5q27 0 54.5 -18.5t37.5 -44.5q9 -26 -3.5 -44.5t-40.5 -18.5z" />
    <glyph glyph-name="semicolon" unicode=";" horiz-adv-x="293" 
d="M153 288q-26 0 -50 19t-28 44q-4 26 12.5 44.5t42.5 18.5q27 0 51.5 -18.5t28.5 -44.5t-12.5 -44.5t-44.5 -18.5zM102 -169l9 270h103l-59 -270h-53z" />
    <glyph glyph-name="less" unicode="&#x3c;" horiz-adv-x="461" 
d="M280 0l-250 250l162 250h150l-170 -250l258 -250h-150z" />
    <glyph glyph-name="equal" unicode="=" horiz-adv-x="580" 
d="M15 412l-14 83h520l14 -83h-520zM59 159l-14 83h520l14 -83h-520z" />
    <glyph glyph-name="greater" unicode="&#x3e;" horiz-adv-x="416" 
d="M74 0l170 250l-258 250h150l250 -250l-162 -250h-150z" />
    <glyph glyph-name="question" unicode="?" horiz-adv-x="728" 
d="M291 232q-11 45 -2 72.5t33.5 47.5t56 31.5t64 23.5t59.5 23.5t41.5 31.5t9.5 47q-13 71 -72.5 92t-238.5 21q-102 0 -241 -21l-16 96q118 16 251 18q206 2 307 -42t123 -167q9 -51 -10.5 -86.5t-55 -52t-78.5 -30t-80 -23t-60 -30.5t-18 -52h-73zM365 -18q-26 0 -50 19
t-28 44q-4 26 12.5 44.5t42.5 18.5q27 0 51.5 -18.5t28.5 -44.5t-12.5 -44.5t-44.5 -18.5z" />
    <glyph glyph-name="at" unicode="@" horiz-adv-x="1073" 
d="M1016 352q17 -76 -11.5 -137.5t-104.5 -92.5h-180l-2 147h-5q-4 -81 -63.5 -120.5t-158.5 -39.5q-154 0 -173 108q-5 28 7 51t39 37.5t57.5 25t71.5 16.5t71 9t66 6l48 4q-12 64 -47.5 88.5t-111.5 24.5q-86 0 -186 -47l-14 70q113 45 219 45q198 0 235 -193l38 -218
q71 42 90 90.5t4 125.5q-24 124 -142.5 200.5t-286.5 76.5q-167 0 -254 -85.5t-60 -221.5t147 -221t287 -85q100 0 166 25l20 -102q-74 -20 -166 -20q-224 0 -377.5 110t-188.5 293q-36 183 73.5 293t332.5 110q220 0 374.5 -107.5t185.5 -265.5zM556 180q63 11 100.5 42.5
t29.5 86.5q-13 -1 -44.5 -3t-53.5 -4t-52.5 -5.5t-51 -9t-39 -13t-27 -19.5t-5.5 -27q6 -31 45 -44.5t98 -3.5z" />
    <glyph glyph-name="A" unicode="A" horiz-adv-x="1083" 
d="M97 0l309 700h149l552 -700h-131l-124 163h-548l-69 -163h-138zM342 256h438l-287 377z" />
    <glyph glyph-name="B" unicode="B" horiz-adv-x="926" 
d="M152 0l-122 700h513q106 0 174 -51t83 -134q13 -75 -31.5 -114.5t-134.5 -44.5q101 -2 167 -46t80 -124q14 -84 -39 -135t-155 -51h-535zM196 390h366q73 0 105.5 26t22.5 80q-18 111 -166 111h-366zM249 94h386q148 0 129 117q-22 110 -168 110h-388z" />
    <glyph glyph-name="C" unicode="C" horiz-adv-x="935" 
d="M532 -16q-190 0 -323.5 100.5t-162.5 265.5t69.5 265.5t288.5 100.5t321.5 -88t156.5 -233h-114q-23 106 -117.5 167t-230.5 61q-141 0 -212.5 -73.5t-49.5 -199.5q22 -125 119.5 -199t237.5 -74q137 0 210.5 61.5t58.5 166.5h114q25 -145 -75.5 -233t-290.5 -88z" />
    <glyph glyph-name="D" unicode="D" horiz-adv-x="871" 
d="M152 0l-122 700h326q192 0 315.5 -90t153.5 -260q30 -171 -62 -260.5t-285 -89.5h-326zM248 93h213q139 0 212 69.5t51 187.5q-21 118 -117 187.5t-234 69.5h-214z" />
    <glyph glyph-name="E" unicode="E" horiz-adv-x="810" 
d="M152 0l-122 700h638l16 -93h-525l36 -209h517l14 -85h-517l39 -220h525l17 -93h-638z" />
    <glyph glyph-name="F" unicode="F" horiz-adv-x="776" 
d="M152 0l-122 700h634l17 -93h-522l36 -209h513l14 -85h-512l54 -313h-112z" />
    <glyph glyph-name="G" unicode="G" horiz-adv-x="971" 
d="M542 -16q-190 0 -323.5 100.5t-162.5 265.5t69.5 265.5t288.5 100.5q179 0 302.5 -74.5t154.5 -197.5h-109q-23 85 -110 132t-222 47q-141 0 -212.5 -73.5t-49.5 -199.5q22 -125 119.5 -199t237.5 -74q133 0 207 54t67 147h-414l-15 87h526l63 -365h-104l-14 123
q-38 -69 -118.5 -104t-180.5 -35z" />
    <glyph glyph-name="H" unicode="H" horiz-adv-x="908" 
d="M152 0l-122 700h112l51 -293h501l-51 293h112l122 -700h-112l-54 314h-501l54 -314h-112z" />
    <glyph glyph-name="I" unicode="I" horiz-adv-x="295" 
d="M152 0l-122 700h112l122 -700h-112z" />
    <glyph glyph-name="J" unicode="J" horiz-adv-x="838" 
d="M467 -16q-342 0 -406 355h113q25 -142 89.5 -202t187.5 -60t165.5 60t17.5 202l-46 268h-480l-17 93h592l63 -361q64 -355 -279 -355z" />
    <glyph glyph-name="K" unicode="K" horiz-adv-x="950" 
d="M152 0l-122 700h112l77 -433l431 433h154l-250 -243l393 -457h-135l-329 389l-245 -239l26 -150h-112z" />
    <glyph glyph-name="L" unicode="L" horiz-adv-x="688" 
d="M152 0l-122 700h112l106 -607h510l17 -93h-623z" />
    <glyph glyph-name="M" unicode="M" horiz-adv-x="1065" 
d="M152 0l-122 700h139l396 -529l209 529h138l122 -700h-112l-95 545l-224 -545h-19l-415 541l95 -541h-112z" />
    <glyph glyph-name="N" unicode="N" horiz-adv-x="967" 
d="M152 0l-122 700h114l657 -564l-98 564h112l122 -700h-115l-656 562l98 -562h-112z" />
    <glyph glyph-name="O" unicode="O" horiz-adv-x="976" 
d="M552 -16q-203 0 -340 100t-166 266t72.5 266t305.5 100t341 -100t166 -266t-73 -266t-306 -100zM535 77q150 0 228 74t56 199q-22 126 -125.5 199.5t-253.5 73.5q-149 0 -226.5 -73.5t-55.5 -199.5q22 -125 125 -199t252 -74z" />
    <glyph glyph-name="P" unicode="P" horiz-adv-x="881" 
d="M152 0l-122 700h493q106 0 181.5 -62t90.5 -152q18 -103 -37.5 -158t-160.5 -55h-381l48 -273h-112zM200 368h355q79 0 109 28t19 90q-11 63 -50.5 91.5t-117.5 28.5h-357z" />
    <glyph glyph-name="Q" unicode="Q" horiz-adv-x="996" 
d="M972 49l-73 -68l-90 65q-99 -62 -257 -62q-203 0 -340 100t-166 266t72.5 266t305.5 100t341 -100t166 -266q26 -141 -46 -236zM535 77q107 0 178 39l-148 107l70 75l155 -115q47 69 29 167q-22 126 -125.5 199.5t-253.5 73.5q-149 0 -226.5 -73.5t-55.5 -199.5
q22 -125 125 -199t252 -74z" />
    <glyph glyph-name="R" unicode="R" horiz-adv-x="941" 
d="M152 0l-122 700h543q106 0 174 -51t83 -134q14 -83 -38.5 -129.5t-155.5 -46.5h-74q49 -3 90.5 -18.5t76.5 -38.5t76 -68t76 -91t90 -123h-122q-128 175 -167 217q-66 71 -134 84q-22 4 -49 4h-288l53 -305h-112zM194 401h397q146 0 131 96q-11 57 -50 83t-117 26h-398z
" />
    <glyph glyph-name="S" unicode="S" horiz-adv-x="864" 
d="M480 -16q-170 2 -282.5 67t-129.5 170h115q11 -65 88 -104t189 -40q141 -1 211 28t63 87q-6 43 -45.5 68t-98.5 34t-129.5 14t-141 13t-131 25t-103 56.5t-52.5 101.5q-18 105 76 160t264 52q165 -3 275 -67t131 -170h-115q-10 64 -85.5 103t-184.5 41
q-131 2 -194.5 -25.5t-54.5 -81.5q6 -37 45 -57.5t97.5 -28.5t128.5 -12.5t140.5 -15t131 -30t103.5 -64t53 -111.5q17 -105 -82.5 -160t-281.5 -53z" />
    <glyph glyph-name="T" unicode="T" horiz-adv-x="896" 
d="M452 0l-105 607h-355l-17 93h823l17 -93h-356l105 -607h-112z" />
    <glyph glyph-name="U" unicode="U" horiz-adv-x="902" 
d="M514 -16q-181 0 -286 88.5t-142 302.5l-58 325h112l62 -355q24 -139 94.5 -204t200.5 -65t177 65t23 204l-62 355h112l58 -325q37 -215 -36.5 -303t-254.5 -88z" />
    <glyph glyph-name="V" unicode="V" horiz-adv-x="1035" 
d="M466 0l-491 700h138l461 -668l226 668h138l-247 -700h-225z" />
    <glyph glyph-name="W" unicode="W" horiz-adv-x="1259" 
d="M379 0l-381 700h116l308 -567l99 567h94l300 -567l107 567h117l-137 -700h-118l-292 564l-95 -564h-118z" />
    <glyph glyph-name="X" unicode="X" horiz-adv-x="928" 
d="M120 0l271 351l-394 349h139l317 -283l217 283h138l-275 -355l387 -345h-136l-313 280l-216 -280h-135z" />
    <glyph glyph-name="Y" unicode="Y" horiz-adv-x="868" 
d="M439 0l-39 226l-436 474h137l336 -368l208 368h137l-270 -472l39 -228h-112z" />
    <glyph glyph-name="Z" unicode="Z" horiz-adv-x="879" 
d="M107 0l-10 65l520 542h-607l-17 93h769l10 -62l-515 -545h620l17 -93h-787z" />
    <glyph glyph-name="bracketleft" unicode="[" horiz-adv-x="513" 
d="M109 -190l-158 890h453l10 -52h-342l140 -786h340l10 -52h-453z" />
    <glyph glyph-name="backslash" unicode="\" horiz-adv-x="1018" 
d="M923 0l-954 700h126l954 -700h-126z" />
    <glyph glyph-name="bracketright" unicode="]" horiz-adv-x="513" 
d="M109 -190l-10 52h342l-140 786h-340l-10 52h453l158 -890h-453z" />
    <glyph glyph-name="asciicircum" unicode="^" horiz-adv-x="560" 
d="M64 317l-20 118l202 274l298 -274l20 -118l-292 242z" />
    <glyph glyph-name="underscore" unicode="_" horiz-adv-x="1060" 
d="M37 0l-14 83h1000l14 -83h-1000z" />
    <glyph glyph-name="grave" unicode="`" horiz-adv-x="387" 
d="M361 544l-317 164l-18 102l321 -186z" />
    <glyph glyph-name="a" unicode="a" horiz-adv-x="672" 
d="M279 -16q-186 0 -210 132q-5 30 7 55t34 42t57.5 30.5t69.5 21t77.5 13.5t74.5 8.5t68 5.5t50 4q-15 78 -58.5 108t-135.5 30q-104 0 -226 -57l-16 85q138 54 266 54q242 0 285 -234l49 -282h-113l-2 179h-7q-4 -99 -76.5 -147t-193.5 -48zM358 71q77 13 122.5 51
t35.5 105q-17 -1 -54.5 -3.5t-64.5 -5t-63.5 -6.5t-61.5 -10.5t-47.5 -16t-32.5 -24t-7 -32.5q7 -38 54 -54t119 -4z" />
    <glyph glyph-name="b" unicode="b" horiz-adv-x="769" 
d="M524 -16q-104 0 -192.5 45t-121.5 134h-11l51 -163h-116l-124 700h112l63 -361v-1h4q3 88 71 133t169 45q108 0 199 -74t111 -188q21 -118 -43.5 -194t-171.5 -76zM463 67q89 0 133 51t30 134q-14 81 -77 131t-152 50q-82 0 -131 -51t-34 -130q13 -81 81 -133t150 -52z
" />
    <glyph glyph-name="c" unicode="c" horiz-adv-x="632" 
d="M406 -16q-137 0 -238 73.5t-122 192.5q-22 121 51.5 193.5t215.5 72.5q64 0 115.5 -12.5t119.5 -41.5l18 -91q-124 62 -211 62q-118 0 -165.5 -41t-30.5 -142q17 -100 79.5 -141.5t182.5 -41.5q104 0 188 58l15 -87q-65 -31 -107 -42.5t-111 -11.5z" />
    <glyph glyph-name="d" unicode="d" horiz-adv-x="769" 
d="M371 -16q-107 0 -198.5 76t-112.5 194q-20 114 45 188t173 74q100 0 184.5 -45t118.5 -133h4l-1 1l-64 361h112l123 -700h-116l-6 163h-11q-2 -89 -75 -134t-176 -45zM402 67q83 0 132 52t34 133q-13 79 -80 130t-149 51q-89 0 -134 -50t-31 -131q15 -83 77 -134t151 -51
z" />
    <glyph glyph-name="e" unicode="e" horiz-adv-x="693" 
d="M394 -16q-136 0 -231.5 73t-116.5 193t48.5 193t205.5 73q134 0 227.5 -62.5t113.5 -164.5l14 -82h-497q25 -75 88.5 -107t181.5 -32q35 0 63 2.5t54 10.5t36 11.5t37.5 16.5t29.5 14l17 -90q-74 -30 -128 -39.5t-143 -9.5zM145 276l392 8q-17 82 -68 115.5t-154 33.5
q-101 0 -140.5 -35.5t-29.5 -121.5z" />
    <glyph glyph-name="f" unicode="f" horiz-adv-x="458" 
d="M184 0l-74 420h-69l-13 80h68l-5 20q-29 161 92 184q53 9 145 -11l11 -55q-38 1 -61.5 0t-41 -7t-25 -14t-10.5 -26t-1 -37.5t8 -53.5h155l12 -70h-156l77 -430h-112z" />
    <glyph glyph-name="g" unicode="g" horiz-adv-x="775" 
d="M448 -200q-58 0 -106 8t-69 15t-79 28l-18 101q47 -31 119.5 -50t144.5 -19q106 0 150 46t31 123l-13 96q-6 -55 -44 -94t-91 -56t-116 -17q-107 0 -198.5 77.5t-111.5 195.5q-20 115 45.5 188.5t173.5 73.5q100 0 184 -45t118 -133h13l-41 162h102l79 -440
q22 -130 -52 -195t-221 -65zM390 67q82 0 131 52t35 133q-13 78 -81 129.5t-150 51.5q-89 0 -133 -50t-30 -131q14 -83 76.5 -134t151.5 -51z" />
    <glyph glyph-name="h" unicode="h" horiz-adv-x="686" 
d="M134 0l-122 700h126l51 -406h6q-1 96 49.5 159t153.5 63q108 -2 174 -75t93 -224l37 -217h-112l-34 200q-22 121 -67 176.5t-123 55.5q-91 0 -129 -82.5t-13 -226.5v2l22 -125h-112z" />
    <glyph glyph-name="i" unicode="i" horiz-adv-x="284" 
d="M100 609q-33 0 -55.5 18t-29.5 51q-6 32 11 50.5t49 18.5q33 0 56.5 -18.5t29.5 -50.5q7 -33 -10.5 -51t-50.5 -18zM153 0l-89 500h112l89 -500h-112z" />
    <glyph glyph-name="j" unicode="j" horiz-adv-x="278" 
d="M79 609q-33 0 -56 18t-28 51q-7 32 9.5 50.5t49.5 18.5t56.5 -18.5t30.5 -50.5q5 -33 -12 -51t-50 -18zM68 -200l-14 76q48 0 69 24.5t13 66.5l-93 533h112l90 -510q15 -85 -39.5 -137.5t-137.5 -52.5z" />
    <glyph glyph-name="k" unicode="k" horiz-adv-x="733" 
d="M134 0l-122 700h112l82 -473l276 273h166l-179 -161l272 -339h-137l-206 275l-172 -156l20 -119h-112z" />
    <glyph glyph-name="l" unicode="l" horiz-adv-x="257" 
d="M134 0l-122 700h112l122 -700h-112z" />
    <glyph glyph-name="m" unicode="m" horiz-adv-x="1141" 
d="M119 0l-88 500h126l15 -206h6q-1 96 50 159t154 63q185 -3 248 -222h4q-1 96 50 159t154 63q108 -2 173 -75t93 -224l39 -217h-112l-36 200q-22 123 -67 178t-124 54q-90 0 -127.5 -82.5t-12.5 -226.5l23 -123h-112l-36 200q-22 123 -67 178t-124 54q-90 0 -127.5 -82.5
t-12.5 -226.5l23 -123h-112z" />
    <glyph glyph-name="n" unicode="n" horiz-adv-x="685" 
d="M119 0l-88 500h126l15 -206h6q-1 96 50 159t154 63q108 -2 173 -75t93 -224l39 -217h-112l-36 200q-22 121 -67.5 176.5t-123.5 55.5q-88 0 -125.5 -78.5t-16.5 -214.5l25 -139h-112z" />
    <glyph glyph-name="o" unicode="o" horiz-adv-x="711" 
d="M402 -16q-140 0 -237.5 73t-118.5 193t51 193t211 73q140 0 238 -73t119 -193t-51 -193t-212 -73zM387 67q93 0 142 50.5t34 132.5t-80.5 132.5t-158.5 50.5t-142 -50.5t-34 -132.5t80.5 -132.5t158.5 -50.5z" />
    <glyph glyph-name="p" unicode="p" horiz-adv-x="769" 
d="M135 -200l-123 700h116l7 -163h11q2 89 75 134t177 45q107 0 197.5 -76t111.5 -194q20 -115 -44.5 -188.5t-172.5 -73.5q-100 0 -184.5 45t-118.5 133h-4v-1l64 -361h-112zM429 67q89 0 134 50.5t31 130.5q-15 83 -77.5 134t-151.5 51q-82 0 -130.5 -52t-34.5 -133
q12 -78 79.5 -129.5t149.5 -51.5z" />
    <glyph glyph-name="q" unicode="q" horiz-adv-x="769" 
d="M245 516q104 0 192.5 -45t121.5 -134h11l-51 163h116l124 -700h-112l-63 361v1h-4q-3 -88 -71 -133t-169 -45q-108 0 -199 74t-111 188q-21 118 43.5 194t171.5 76zM306 433q-89 0 -133 -51t-30 -134q14 -81 77 -131t152 -50q82 0 131 51t34 130q-13 81 -81 133t-150 52z
" />
    <glyph glyph-name="r" unicode="r" horiz-adv-x="530" 
d="M119 0l-88 500h126l15 -206h10q-2 123 56.5 172.5t209.5 49.5l17 -93q-160 0 -222 -62.5t-43 -183.5l31 -177h-112z" />
    <glyph glyph-name="s" unicode="s" horiz-adv-x="675" 
d="M383 -16q-132 0 -275 39l-16 87q120 -43 256 -43q108 0 151.5 15.5t36.5 54.5q-6 35 -57 50t-121 19t-140.5 12t-125 41t-65.5 94q-14 80 58 121.5t208 41.5q107 0 255 -28l14 -80q-127 26 -246 26q-98 0 -141 -17t-36 -51q6 -33 57 -48.5t121 -20.5t141 -14.5
t125.5 -43.5t65.5 -94q14 -81 -57 -121t-209 -40z" />
    <glyph glyph-name="t" unicode="t" horiz-adv-x="441" 
d="M329 -10q-49 0 -80 9t-51.5 33t-31.5 57.5t-21 90.5l-42 240h-80l-14 80h100l-21 120l87 20l25 -140h167l14 -80h-166l36 -210q6 -34 8.5 -48t9 -35t11 -28t15.5 -18t21.5 -12.5t31 -5t41.5 -3t55 2.5l9 -53q-49 -20 -124 -20z" />
    <glyph glyph-name="u" unicode="u" horiz-adv-x="685" 
d="M566 500l88 -500h-126l-15 206h-6q1 -96 -50 -159t-154 -63q-108 2 -173 75t-93 224l-39 217h112l36 -200q22 -121 67.5 -176.5t123.5 -55.5q88 0 125.5 78.5t16.5 214.5l-25 139h112z" />
    <glyph glyph-name="v" unicode="v" horiz-adv-x="775" 
d="M344 0l-352 500h118l312 -443l155 443h118l-176 -500h-175z" />
    <glyph glyph-name="w" unicode="w" horiz-adv-x="1054" 
d="M283 0l-302 500h108l260 -432l97 432h64l260 -433l107 433h108l-126 -500h-166l-180 306l-64 -306h-166z" />
    <glyph glyph-name="x" unicode="x" horiz-adv-x="767" 
d="M70 0l235 251l-323 249h148l242 -188l177 188h148l-239 -253l318 -247h-147l-238 184l-174 -184h-147z" />
    <glyph glyph-name="y" unicode="y" horiz-adv-x="755" 
d="M290 -200l80 195l-406 505h120l311 -412l164 412h110l-269 -700h-110z" />
    <glyph glyph-name="z" unicode="z" horiz-adv-x="712" 
d="M74 0l-7 33l385 383h-443l-15 84h644l5 -31l-381 -384h439l15 -85h-642z" />
    <glyph glyph-name="braceleft" unicode="{" horiz-adv-x="683" 
d="M728 -80q-111 0 -182 11.5t-111 39t-57.5 61.5t-27.5 91q-33 192 -314 192l-12 68q133 2 179 49t31 136q-11 53 -5.5 92.5t35.5 65.5t97 38.5t180 12.5l11 -62q-150 4 -196 -25.5t-30 -121.5q15 -88 12 -115q-7 -72 -95 -97q-12 -3 -26 -6q105 -6 155 -63.5t69 -163.5
q15 -86 76 -115.5t201 -26.5z" />
    <glyph glyph-name="bar" unicode="|" horiz-adv-x="232" 
d="M139 -170l-158 890h112l158 -890h-112z" />
    <glyph glyph-name="braceright" unicode="}" horiz-adv-x="705" 
d="M127 -80l-11 61q141 -3 191.5 26.5t35.5 115.5q-19 106 11 163.5t133 63.5q-44 8 -76 23t-50 32.5t-29.5 42.5t-17 47.5t-10.5 53.5q-2 13 -3 19q-16 92 -72.5 121.5t-205.5 25.5l-11 62q91 0 154.5 -8.5t104 -23.5t65.5 -42.5t37 -57.5t20 -77q16 -89 78.5 -136
t196.5 -49l12 -68q-139 0 -201 -48.5t-45 -143.5q10 -52 4 -90t-36 -63t-97 -37.5t-178 -12.5z" />
    <glyph glyph-name="asciitilde" unicode="~" horiz-adv-x="441" 
d="M299 310q-31 0 -59 18t-50 36t-38 18q-28 0 -41.5 -18t-7.5 -53h-61q-10 58 18 94t82 36q34 0 79 -36t68 -36q29 0 43 18t7 53h60q10 -59 -18 -94.5t-82 -35.5z" />
    <glyph glyph-name="exclamdown" unicode="&#xa1;" horiz-adv-x="260" 
d="M75 525q28 0 51 -18.5t28 -44.5q4 -26 -13.5 -44.5t-44.5 -18.5q-26 0 -49.5 18.5t-27.5 44.5q-5 25 12.5 44t43.5 19zM74 213h115l81 -406h-135z" />
    <glyph glyph-name="cent" unicode="&#xa2;" horiz-adv-x="589" 
d="M614 128q-55 -26 -89 -37.5t-80 -14.5l20 -106h-157l-22 118q-98 25 -166 92t-84 160q-17 95 26.5 162t135.5 91l-20 107h157l18 -96q81 -8 185 -52l18 -91q-124 62 -211 62q-118 0 -165.5 -41t-30.5 -142q17 -100 79.5 -141.5t182.5 -41.5q104 0 188 58z" />
    <glyph glyph-name="sterling" unicode="&#xa3;" horiz-adv-x="902" 
d="M148 0l-16 94q57 26 76.5 59t11.5 76h-148l-18 102h127l-18 41h-115l-18 102h94q-4 13 -7 32q-20 110 59 160t274 49q92 -1 196.5 -11.5t148.5 -23.5l17 -97q-34 12 -147.5 25.5t-188.5 13.5q-148 0 -199 -31t-41 -117h514l18 -102h-499q4 -7 10 -21t9 -20h486l18 -102
h-472q10 -87 -50 -135h621l17 -94h-760z" />
    <glyph glyph-name="currency" unicode="&#xa4;" horiz-adv-x="720" 
d="M194 37l-94 78l65 79q-57 58 -70 136q-15 86 25 141l-97 84l64 79l120 -101q49 17 114 17q71 0 123 -16l82 100l94 -79l-67 -82q56 -53 72 -143q14 -86 -18 -137l90 -78l-64 -78l-110 91q-54 -18 -125 -18q-68 0 -128 19zM388 169q83 0 127 44.5t31 116.5t-72 116.5
t-143 44.5q-83 0 -126.5 -44.5t-30.5 -116.5t71.5 -116.5t142.5 -44.5z" />
    <glyph glyph-name="yen" unicode="&#xa5;" horiz-adv-x="828" 
d="M821 119h-290l20 -119h-112l-21 119h-307l-18 102h308l-1 5l-33 36h-280l-18 102h204l-309 336h137l307 -336h47l190 336h137l-192 -336h189l18 -102h-266l-19 -34l1 -7h290z" />
    <glyph glyph-name="brokenbar" unicode="&#xa6;" horiz-adv-x="232" 
d="M54 313l-73 407h112l73 -407h-112zM139 -170l-74 418h112l74 -418h-112z" />
    <glyph glyph-name="section" unicode="&#xa7;" horiz-adv-x="644" 
d="M381 0q-134 0 -275 39l-13 79q70 -25 124.5 -34t150.5 -9q109 0 144 8.5t30 33.5q-6 31 -57.5 48t-122.5 26t-142.5 21.5t-125.5 45.5t-63 88q-13 61 49 84q-73 42 -82 96q-15 80 57 122t208 42q107 0 255 -28l14 -79q-128 26 -255 26q-111 0 -145 -10t-27 -45
q3 -18 40 -29t90.5 -15.5t116.5 -15.5t118 -26t96 -49.5t50 -85.5q10 -55 -39 -91q62 -44 71 -90q13 -75 -59 -113.5t-208 -38.5zM330 259q94 -7 133.5 10t35.5 64q-5 46 -49.5 70t-141.5 33q-89 8 -128 -10.5t-37 -65.5q5 -45 49 -69t138 -32z" />
    <glyph glyph-name="dieresis" unicode="&#xa8;" horiz-adv-x="588" 
d="M164 538q-44 0 -75.5 23.5t-38.5 61.5t16.5 61.5t67.5 23.5q47 0 77 -23t37 -62t-15 -62t-69 -23zM454 538q-44 0 -75.5 23.5t-38.5 61.5t16.5 61.5t67.5 23.5q47 0 77 -23t37 -62t-15 -62t-69 -23z" />
    <glyph glyph-name="copyright" unicode="&#xa9;" horiz-adv-x="965" 
d="M546 -16q-202 0 -334 99.5t-162 266.5q-29 166 69.5 266t298.5 100q203 0 335 -98.5t162 -267.5q30 -167 -68 -266.5t-301 -99.5zM542 11q197 0 284 92.5t61 246.5q-26 153 -147 246t-318 93q-190 0 -280.5 -93.5t-65.5 -245.5q25 -151 150 -245t316 -94zM533 85
q-136 0 -231 73t-116 193q-22 120 48 193t206 73q135 0 228.5 -65t112.5 -172h-114q-18 73 -76.5 117.5t-137.5 44.5q-85 0 -128 -52.5t-27 -138.5q15 -86 76 -138.5t146 -52.5q81 0 124.5 47t33.5 123h113q20 -110 -51 -177.5t-207 -67.5z" />
    <glyph glyph-name="guillemotleft" unicode="&#xab;" horiz-adv-x="840" 
d="M303 0l-250 250l162 250h150l-170 -250l258 -250h-150zM682 0l-250 250l162 250h150l-170 -250l258 -250h-150z" />
    <glyph glyph-name="logicalnot" unicode="&#xac;" horiz-adv-x="670" 
d="M587 76l-46 258h-526l-15 83h610l14 -83l46 -258h-83z" />
    <glyph glyph-name="registered" unicode="&#xae;" horiz-adv-x="965" 
d="M546 -16q-202 0 -334 99.5t-162 266.5q-29 166 69.5 266t298.5 100q203 0 335 -99t162 -267q30 -167 -68 -266.5t-301 -99.5zM542 11q197 0 284 92.5t61 246.5q-26 153 -147 246t-318 93q-190 0 -280.5 -93.5t-65.5 -245.5q25 -151 150 -245t316 -94zM297 133l-75 435
h337q66 0 108.5 -32t50.5 -83q9 -52 -23.5 -81t-96.5 -29h-46q71 -4 121 -48.5t133 -161.5h-76q-88 121 -116 148q-44 41 -101 41h-179l33 -189h-70zM323 382h247q91 0 81 60q-7 35 -31 51t-72 16h-248z" />
    <glyph glyph-name="macron" unicode="&#xaf;" horiz-adv-x="632" 
d="M55 646l-10 54h532l10 -54h-532z" />
    <glyph glyph-name="degree" unicode="&#xb0;" horiz-adv-x="518" 
d="M281 460q-86 0 -153.5 35t-77.5 90t45.5 90t141.5 35q93 0 157 -34.5t74 -90.5t-42 -90.5t-145 -34.5zM273 500q55 0 84.5 23.5t21.5 61.5t-44.5 62t-89.5 24q-54 0 -83 -24t-22 -62t43.5 -61.5t89.5 -23.5z" />
    <glyph glyph-name="plusminus" unicode="&#xb1;" horiz-adv-x="600" 
d="M265 196l-27 153h-153l-15 85h153l-26 152h85l26 -152h152l15 -85h-152l27 -153h-85zM81 0l-6 43h520l6 -43h-520z" />
    <glyph glyph-name="acute" unicode="&#xb4;" horiz-adv-x="387" 
d="M74 544l-14 80l253 186l18 -102z" />
    <glyph glyph-name="paragraph" unicode="&#xb6;" horiz-adv-x="939" 
d="M471 -180l-80 453h-129q-105 0 -179.5 55t-92.5 158q-16 90 38 152t160 62h245l154 -880h-116zM874 -180l-154 880h112l154 -880h-112z" />
    <glyph glyph-name="periodcentered" unicode="&#xb7;" horiz-adv-x="240" 
d="M131 228q-26 0 -50 19t-28 44q-4 26 12.5 44.5t42.5 18.5q27 0 51.5 -18.5t28.5 -44.5t-12.5 -44.5t-44.5 -18.5z" />
    <glyph glyph-name="cedilla" unicode="&#xb8;" horiz-adv-x="526" 
d="M79 -287l-11 55q110 0 177 7.5t92 19t22 28.5q-5 27 -75.5 41.5t-234.5 16.5l-9 53l39 101h95l-35 -104q154 -8 246.5 -35.5t99.5 -72.5q8 -47 -104.5 -78t-301.5 -32z" />
    <glyph glyph-name="guillemotright" unicode="&#xbb;" horiz-adv-x="885" 
d="M97 0l170 250l-258 250h150l250 -250l-162 -250h-150zM476 0l170 250l-258 250h150l250 -250l-162 -250h-150z" />
    <glyph glyph-name="onequarter" unicode="&#xbc;" horiz-adv-x="1603" 
d="M420 -22l688 744h104l-688 -744h-104zM337 161l-70 398l-198 -148l-14 76l240 152h35l83 -478h-76zM1426 61l-16 90h-416l-8 45l303 343h130l56 -324h76l12 -64h-77l16 -90h-76zM1081 215h318l-53 300z" />
    <glyph glyph-name="onehalf" unicode="&#xbd;" horiz-adv-x="1734" 
d="M419 -22l688 744h104l-688 -744h-104zM337 161l-70 398l-198 -148l-14 76l240 152h35l83 -478h-76zM1220 61l-8 41q21 12 70.5 39.5t78.5 44t73 43t70 46.5t51.5 43t36 44t7.5 39q-8 45 -54.5 65t-150.5 20q-51 0 -125.5 -9.5t-93.5 -17.5l-13 66q27 10 96.5 17t131.5 7
q134 2 202 -27.5t82 -107.5q7 -40 -20 -83.5t-76.5 -81.5t-104.5 -69t-113 -55h345l11 -64h-496z" />
    <glyph glyph-name="threequarters" unicode="&#xbe;" horiz-adv-x="1610" 
d="M427 -22l688 744h104l-688 -744h-104zM314 150q-144 2 -227 30l-11 64q75 -30 221 -30q113 0 162.5 16t44.5 50q-6 32 -44.5 50t-125.5 28.5t-256 17.5l-7 49q153 5 237.5 16.5t114.5 28t25 43.5q-6 38 -57 56t-160 18q-55 0 -117 -8.5t-93 -22.5l-11 64q78 31 216 31
q61 0 105 -4.5t86.5 -18t67.5 -40.5t32 -68q4 -24 -4.5 -43.5t-23 -31t-38.5 -20t-42 -12.5t-44 -6t-33.5 -2h-19.5l2 -6l25 -1q25 0 41 -1.5t45 -5.5t50 -12t43.5 -20t36 -32t18.5 -46q7 -39 -8.5 -66t-52.5 -41t-84 -19t-114 -5zM1433 58l-16 90h-416l-8 45l303 343h130
l56 -324h76l12 -64h-77l16 -90h-76zM1088 212h318l-53 300z" />
    <glyph glyph-name="questiondown" unicode="&#xbf;" horiz-adv-x="742" 
d="M347 525q26 0 50 -19t28 -44q4 -26 -12.5 -44.5t-42.5 -18.5q-27 0 -51.5 18.5t-28.5 44.5t12.5 44.5t44.5 18.5zM421 275q11 -45 2 -72.5t-33.5 -47.5t-56 -31.5t-64 -23.5t-59.5 -23.5t-41.5 -31.5t-9.5 -47q13 -71 72.5 -92t238.5 -21q102 0 241 21l16 -96
q-118 -16 -251 -18q-206 -2 -307 42t-123 167q-9 51 10.5 86.5t55 52t78.5 30t80 23t60 30.5t18 52h73z" />
    <glyph glyph-name="Agrave" unicode="&#xc0;" horiz-adv-x="1083" 
d="M474 744l-317 164l-18 102l321 -186zM97 0l309 700h149l552 -700h-131l-124 163h-548l-69 -163h-138zM342 256h438l-287 377z" />
    <glyph glyph-name="Aacute" unicode="&#xc1;" horiz-adv-x="1083" 
d="M444 744l-14 80l253 186l18 -102zM97 0l309 700h149l552 -700h-131l-124 163h-548l-69 -163h-138zM342 256h438l-287 377z" />
    <glyph glyph-name="Acircumflex" unicode="&#xc2;" horiz-adv-x="1083" 
d="M179 755l-14 80l253 186l321 -186l14 -80l-317 164zM97 0l309 700h149l552 -700h-131l-124 163h-548l-69 -163h-138zM342 256h438l-287 377z" />
    <glyph glyph-name="Atilde" unicode="&#xc3;" horiz-adv-x="1083" 
d="M547 772q-31 0 -59 18t-50 36t-38 18q-28 0 -41.5 -18t-7.5 -53h-61q-10 58 18 94t82 36q34 0 79 -36t68 -36q29 0 43 18t7 53h60q10 -59 -18 -94.5t-82 -35.5zM97 0l309 700h149l552 -700h-131l-124 163h-548l-69 -163h-138zM342 256h438l-287 377z" />
    <glyph glyph-name="Adieresis" unicode="&#xc4;" horiz-adv-x="1083" 
d="M328 738q-44 0 -75.5 23.5t-38.5 61.5t16.5 61.5t67.5 23.5q47 0 77 -23t37 -62t-15 -62t-69 -23zM618 738q-44 0 -75.5 23.5t-38.5 61.5t16.5 61.5t67.5 23.5q47 0 77 -23t37 -62t-15 -62t-69 -23zM97 0l309 700h149l552 -700h-131l-124 163h-548l-69 -163h-138z
M342 256h438l-287 377z" />
    <glyph glyph-name="Aring" unicode="&#xc5;" horiz-adv-x="1083" 
d="M468 738q-105 0 -184 29t-87 74t61 74t174 29q113 0 188 -28.5t83 -74.5t-57 -74.5t-178 -28.5zM459 789q41 0 64 13.5t18 38.5q-10 52 -100 52q-40 0 -62 -13.5t-18 -38.5t31 -38.5t67 -13.5zM97 0l309 700h149l552 -700h-131l-124 163h-548l-69 -163h-138zM342 256h438
l-287 377z" />
    <glyph glyph-name="AE" unicode="&#xc6;" horiz-adv-x="1421" 
d="M97 0l465 700h717l13 -82h-533l41 -226h523l14 -73h-525l43 -237h533l13 -82h-645l-28 163h-396l-103 -163h-132zM384 245h330l-72 410z" />
    <glyph glyph-name="Ccedilla" unicode="&#xc7;" horiz-adv-x="935" 
d="M919 -177q8 -47 -104.5 -78t-301.5 -32l-11 55q110 0 177 7.5t92 19t22 28.5q-5 27 -75.5 41.5t-234.5 16.5l-9 53l20 51q-176 11 -298 110t-150 255q-29 165 69.5 265.5t288.5 100.5t321.5 -88t156.5 -233h-114q-23 106 -117.5 167t-230.5 61q-141 0 -212.5 -73.5
t-49.5 -199.5q22 -125 119.5 -199t237.5 -74q137 0 210.5 61.5t58.5 166.5h114q23 -132 -60 -218t-246 -100l-19 -56q154 -8 246.5 -35.5t99.5 -72.5z" />
    <glyph glyph-name="Egrave" unicode="&#xc8;" horiz-adv-x="810" 
d="M355 744l-317 164l-18 102l321 -186zM152 0l-122 700h638l16 -93h-525l36 -209h517l14 -85h-517l39 -220h525l17 -93h-638z" />
    <glyph glyph-name="Eacute" unicode="&#xc9;" horiz-adv-x="810" 
d="M325 744l-14 80l253 186l18 -102zM152 0l-122 700h638l16 -93h-525l36 -209h517l14 -85h-517l39 -220h525l17 -93h-638z" />
    <glyph glyph-name="Ecircumflex" unicode="&#xca;" horiz-adv-x="810" 
d="M60 755l-14 80l253 186l321 -186l14 -80l-317 164zM152 0l-122 700h638l16 -93h-525l36 -209h517l14 -85h-517l39 -220h525l17 -93h-638z" />
    <glyph glyph-name="Edieresis" unicode="&#xcb;" horiz-adv-x="810" 
d="M209 738q-44 0 -75.5 23.5t-38.5 61.5t16.5 61.5t67.5 23.5q47 0 77 -23t37 -62t-15 -62t-69 -23zM499 738q-44 0 -75.5 23.5t-38.5 61.5t16.5 61.5t67.5 23.5q47 0 77 -23t37 -62t-15 -62t-69 -23zM152 0l-122 700h638l16 -93h-525l36 -209h517l14 -85h-517l39 -220h525
l17 -93h-638z" />
    <glyph glyph-name="Igrave" unicode="&#xcc;" horiz-adv-x="295" 
d="M85 744l-317 164l-18 102l321 -186zM152 0l-122 700h112l122 -700h-112z" />
    <glyph glyph-name="Iacute" unicode="&#xcd;" horiz-adv-x="295" 
d="M55 744l-14 80l253 186l18 -102zM152 0l-122 700h112l122 -700h-112z" />
    <glyph glyph-name="Icircumflex" unicode="&#xce;" horiz-adv-x="295" 
d="M-210 755l-14 80l253 186l321 -186l14 -80l-317 164zM152 0l-122 700h112l122 -700h-112z" />
    <glyph glyph-name="Idieresis" unicode="&#xcf;" horiz-adv-x="295" 
d="M-61 738q-44 0 -75.5 23.5t-38.5 61.5t16.5 61.5t67.5 23.5q47 0 77 -23t37 -62t-15 -62t-69 -23zM229 738q-44 0 -75.5 23.5t-38.5 61.5t16.5 61.5t67.5 23.5q47 0 77 -23t37 -62t-15 -62t-69 -23zM152 0l-122 700h112l122 -700h-112z" />
    <glyph glyph-name="Eth" unicode="&#xd0;" horiz-adv-x="871" 
d="M825 350q30 -171 -62 -260.5t-285 -89.5h-326l-54 309h-71l-14 83h71l-54 308h326q192 0 315.5 -90t153.5 -260zM461 93q139 0 212 69.5t51 187.5q-21 118 -117 187.5t-234 69.5h-214l37 -215h317l14 -83h-316l37 -216h213z" />
    <glyph glyph-name="Ntilde" unicode="&#xd1;" horiz-adv-x="967" 
d="M500 772q-31 0 -59 18t-50 36t-38 18q-28 0 -41.5 -18t-7.5 -53h-61q-10 58 18 94t82 36q34 0 79 -36t68 -36q29 0 43 18t7 53h60q10 -59 -18 -94.5t-82 -35.5zM152 0l-122 700h114l657 -564l-98 564h112l122 -700h-115l-656 562l98 -562h-112z" />
    <glyph glyph-name="Ograve" unicode="&#xd2;" horiz-adv-x="976" 
d="M427 744l-317 164l-18 102l321 -186zM552 -16q-203 0 -340 100t-166 266t72.5 266t305.5 100t341 -100t166 -266t-73 -266t-306 -100zM535 77q150 0 228 74t56 199q-22 126 -125.5 199.5t-253.5 73.5q-149 0 -226.5 -73.5t-55.5 -199.5q22 -125 125 -199t252 -74z" />
    <glyph glyph-name="Oacute" unicode="&#xd3;" horiz-adv-x="976" 
d="M397 744l-14 80l253 186l18 -102zM552 -16q-203 0 -340 100t-166 266t72.5 266t305.5 100t341 -100t166 -266t-73 -266t-306 -100zM535 77q150 0 228 74t56 199q-22 126 -125.5 199.5t-253.5 73.5q-149 0 -226.5 -73.5t-55.5 -199.5q22 -125 125 -199t252 -74z" />
    <glyph glyph-name="Ocircumflex" unicode="&#xd4;" horiz-adv-x="976" 
d="M132 755l-14 80l253 186l321 -186l14 -80l-317 164zM552 -16q-203 0 -340 100t-166 266t72.5 266t305.5 100t341 -100t166 -266t-73 -266t-306 -100zM535 77q150 0 228 74t56 199q-22 126 -125.5 199.5t-253.5 73.5q-149 0 -226.5 -73.5t-55.5 -199.5q22 -125 125 -199
t252 -74z" />
    <glyph glyph-name="Otilde" unicode="&#xd5;" horiz-adv-x="976" 
d="M500 772q-31 0 -59 18t-50 36t-38 18q-28 0 -41.5 -18t-7.5 -53h-61q-10 58 18 94t82 36q34 0 79 -36t68 -36q29 0 43 18t7 53h60q10 -59 -18 -94.5t-82 -35.5zM552 -16q-203 0 -340 100t-166 266t72.5 266t305.5 100t341 -100t166 -266t-73 -266t-306 -100zM535 77
q150 0 228 74t56 199q-22 126 -125.5 199.5t-253.5 73.5q-149 0 -226.5 -73.5t-55.5 -199.5q22 -125 125 -199t252 -74z" />
    <glyph glyph-name="Odieresis" unicode="&#xd6;" horiz-adv-x="976" 
d="M281 738q-44 0 -75.5 23.5t-38.5 61.5t16.5 61.5t67.5 23.5q47 0 77 -23t37 -62t-15 -62t-69 -23zM571 738q-44 0 -75.5 23.5t-38.5 61.5t16.5 61.5t67.5 23.5q47 0 77 -23t37 -62t-15 -62t-69 -23zM552 -16q-203 0 -340 100t-166 266t72.5 266t305.5 100t341 -100
t166 -266t-73 -266t-306 -100zM535 77q150 0 228 74t56 199q-22 126 -125.5 199.5t-253.5 73.5q-149 0 -226.5 -73.5t-55.5 -199.5q22 -125 125 -199t252 -74z" />
    <glyph glyph-name="multiply" unicode="&#xd7;" horiz-adv-x="600" 
d="M174 118l-70 59l127 154l-181 155l48 57l181 -154l127 156l70 -59l-128 -155l181 -154l-46 -59l-182 154z" />
    <glyph glyph-name="Oslash" unicode="&#xd8;" horiz-adv-x="976" 
d="M931 350q29 -166 -73 -266t-306 -100q-142 0 -255 51l-28 -35h-126l69 84q-136 99 -166 266q-29 166 72.5 266t305.5 100q145 0 260 -53l30 37h126l-71 -87q133 -99 162 -263zM158 350q21 -117 115 -191l350 429q-82 35 -183 35q-149 0 -226.5 -73.5t-55.5 -199.5z
M535 77q150 0 228 74t56 199q-21 117 -111 188l-350 -428q78 -33 177 -33z" />
    <glyph glyph-name="Ugrave" unicode="&#xd9;" horiz-adv-x="902" 
d="M387 744l-317 164l-18 102l321 -186zM514 -16q-181 0 -286 88.5t-142 302.5l-58 325h112l62 -355q24 -139 94.5 -204t200.5 -65t177 65t23 204l-62 355h112l58 -325q37 -215 -36.5 -303t-254.5 -88z" />
    <glyph glyph-name="Uacute" unicode="&#xda;" horiz-adv-x="902" 
d="M357 744l-14 80l253 186l18 -102zM514 -16q-181 0 -286 88.5t-142 302.5l-58 325h112l62 -355q24 -139 94.5 -204t200.5 -65t177 65t23 204l-62 355h112l58 -325q37 -215 -36.5 -303t-254.5 -88z" />
    <glyph glyph-name="Ucircumflex" unicode="&#xdb;" horiz-adv-x="902" 
d="M92 755l-14 80l253 186l321 -186l14 -80l-317 164zM514 -16q-181 0 -286 88.5t-142 302.5l-58 325h112l62 -355q24 -139 94.5 -204t200.5 -65t177 65t23 204l-62 355h112l58 -325q37 -215 -36.5 -303t-254.5 -88z" />
    <glyph glyph-name="Udieresis" unicode="&#xdc;" horiz-adv-x="902" 
d="M241 738q-44 0 -75.5 23.5t-38.5 61.5t16.5 61.5t67.5 23.5q47 0 77 -23t37 -62t-15 -62t-69 -23zM531 738q-44 0 -75.5 23.5t-38.5 61.5t16.5 61.5t67.5 23.5q47 0 77 -23t37 -62t-15 -62t-69 -23zM514 -16q-181 0 -286 88.5t-142 302.5l-58 325h112l62 -355
q24 -139 94.5 -204t200.5 -65t177 65t23 204l-62 355h112l58 -325q37 -215 -36.5 -303t-254.5 -88z" />
    <glyph glyph-name="Yacute" unicode="&#xdd;" horiz-adv-x="868" 
d="M342 744l-14 80l253 186l18 -102zM439 0l-39 226l-436 474h137l336 -368l208 368h137l-270 -472l39 -228h-112z" />
    <glyph glyph-name="Thorn" unicode="&#xde;" horiz-adv-x="808" 
d="M144 0l-122 700h115l35 -200h354q106 0 181.5 -61.5t92.5 -152.5q18 -103 -37.5 -158t-160.5 -55h-354l12 -73h-116zM232 156h329q66 0 101 37t26 93q-11 56 -58.5 93.5t-113.5 37.5h-330z" />
    <glyph glyph-name="germandbls" unicode="&#xdf;" horiz-adv-x="841" 
d="M447 -16q-66 2 -101 4l-18 92q49 -3 92 -3q74 0 121 2.5t87 9t59.5 19t28.5 33t4 50.5q-8 47 -44 70.5t-122 37t-267 22.5l-13 67q119 6 188.5 14t114 22t58 34t8.5 52q-7 39 -33.5 58t-91.5 28t-192 9h-208l108 -605h-112l-125 700h331q64 0 104.5 -1.5t92.5 -6.5
t84.5 -16.5t65 -30.5t51 -49t25.5 -71q16 -88 -55 -128t-244 -40l1 -9q185 -6 275 -44.5t104 -116.5q9 -50 -5 -86.5t-44.5 -59t-82 -36t-109.5 -18t-136 -3.5z" />
    <glyph glyph-name="agrave" unicode="&#xe0;" horiz-adv-x="672" 
d="M313 544l-317 164l-18 102l321 -186zM279 -16q-186 0 -210 132q-5 30 7 55t34 42t57.5 30.5t69.5 21t77.5 13.5t74.5 8.5t68 5.5t50 4q-15 78 -58.5 108t-135.5 30q-104 0 -226 -57l-16 85q138 54 266 54q242 0 285 -234l49 -282h-113l-2 179h-7q-4 -99 -76.5 -147
t-193.5 -48zM358 71q77 13 122.5 51t35.5 105q-17 -1 -54.5 -3.5t-64.5 -5t-63.5 -6.5t-61.5 -10.5t-47.5 -16t-32.5 -24t-7 -32.5q7 -38 54 -54t119 -4z" />
    <glyph glyph-name="aacute" unicode="&#xe1;" horiz-adv-x="672" 
d="M283 544l-14 80l253 186l18 -102zM279 -16q-186 0 -210 132q-5 30 7 55t34 42t57.5 30.5t69.5 21t77.5 13.5t74.5 8.5t68 5.5t50 4q-15 78 -58.5 108t-135.5 30q-104 0 -226 -57l-16 85q138 54 266 54q242 0 285 -234l49 -282h-113l-2 179h-7q-4 -99 -76.5 -147
t-193.5 -48zM358 71q77 13 122.5 51t35.5 105q-17 -1 -54.5 -3.5t-64.5 -5t-63.5 -6.5t-61.5 -10.5t-47.5 -16t-32.5 -24t-7 -32.5q7 -38 54 -54t119 -4z" />
    <glyph glyph-name="acircumflex" unicode="&#xe2;" horiz-adv-x="672" 
d="M18 555l-14 80l253 186l321 -186l14 -80l-317 164zM279 -16q-186 0 -210 132q-5 30 7 55t34 42t57.5 30.5t69.5 21t77.5 13.5t74.5 8.5t68 5.5t50 4q-15 78 -58.5 108t-135.5 30q-104 0 -226 -57l-16 85q138 54 266 54q242 0 285 -234l49 -282h-113l-2 179h-7
q-4 -99 -76.5 -147t-193.5 -48zM358 71q77 13 122.5 51t35.5 105q-17 -1 -54.5 -3.5t-64.5 -5t-63.5 -6.5t-61.5 -10.5t-47.5 -16t-32.5 -24t-7 -32.5q7 -38 54 -54t119 -4z" />
    <glyph glyph-name="atilde" unicode="&#xe3;" horiz-adv-x="672" 
d="M386 572q-31 0 -59 18t-50 36t-38 18q-28 0 -41.5 -18t-7.5 -53h-61q-10 58 18 94t82 36q34 0 79 -36t68 -36q29 0 43 18t7 53h60q10 -59 -18 -94.5t-82 -35.5zM279 -16q-186 0 -210 132q-5 30 7 55t34 42t57.5 30.5t69.5 21t77.5 13.5t74.5 8.5t68 5.5t50 4
q-15 78 -58.5 108t-135.5 30q-104 0 -226 -57l-16 85q138 54 266 54q242 0 285 -234l49 -282h-113l-2 179h-7q-4 -99 -76.5 -147t-193.5 -48zM358 71q77 13 122.5 51t35.5 105q-17 -1 -54.5 -3.5t-64.5 -5t-63.5 -6.5t-61.5 -10.5t-47.5 -16t-32.5 -24t-7 -32.5
q7 -38 54 -54t119 -4z" />
    <glyph glyph-name="adieresis" unicode="&#xe4;" horiz-adv-x="672" 
d="M167 538q-44 0 -75.5 23.5t-38.5 61.5t16.5 61.5t67.5 23.5q47 0 77 -23t37 -62t-15 -62t-69 -23zM457 538q-44 0 -75.5 23.5t-38.5 61.5t16.5 61.5t67.5 23.5q47 0 77 -23t37 -62t-15 -62t-69 -23zM279 -16q-186 0 -210 132q-5 30 7 55t34 42t57.5 30.5t69.5 21
t77.5 13.5t74.5 8.5t68 5.5t50 4q-15 78 -58.5 108t-135.5 30q-104 0 -226 -57l-16 85q138 54 266 54q242 0 285 -234l49 -282h-113l-2 179h-7q-4 -99 -76.5 -147t-193.5 -48zM358 71q77 13 122.5 51t35.5 105q-17 -1 -54.5 -3.5t-64.5 -5t-63.5 -6.5t-61.5 -10.5t-47.5 -16
t-32.5 -24t-7 -32.5q7 -38 54 -54t119 -4z" />
    <glyph glyph-name="aring" unicode="&#xe5;" horiz-adv-x="672" 
d="M307 538q-105 0 -184 29t-87 74t61 74t174 29q113 0 188 -28.5t83 -74.5t-57 -74.5t-178 -28.5zM298 589q41 0 64 13.5t18 38.5q-10 52 -100 52q-40 0 -62 -13.5t-18 -38.5t31 -38.5t67 -13.5zM279 -16q-186 0 -210 132q-5 30 7 55t34 42t57.5 30.5t69.5 21t77.5 13.5
t74.5 8.5t68 5.5t50 4q-15 78 -58.5 108t-135.5 30q-104 0 -226 -57l-16 85q138 54 266 54q242 0 285 -234l49 -282h-113l-2 179h-7q-4 -99 -76.5 -147t-193.5 -48zM358 71q77 13 122.5 51t35.5 105q-17 -1 -54.5 -3.5t-64.5 -5t-63.5 -6.5t-61.5 -10.5t-47.5 -16t-32.5 -24
t-7 -32.5q7 -38 54 -54t119 -4z" />
    <glyph glyph-name="ae" unicode="&#xe6;" horiz-adv-x="1160" 
d="M279 -16q-186 0 -210 132q-5 26 2 48.5t26 38.5t41.5 29t55.5 22.5t61.5 15.5t67 11t64 7.5t60 5.5t48.5 4q-16 83 -52.5 109.5t-129.5 26.5q-113 0 -227 -54l-15 82q138 54 266 54q141 0 211 -86q70 86 218 86q134 0 227.5 -62.5t113.5 -164.5l14 -82h-498
q25 -75 89 -107t182 -32q35 0 63 2.5t54 10.5t36 11.5t37.5 16.5t29.5 14l17 -90q-75 -30 -128 -39.5t-143 -9.5q-112 0 -198 50.5t-126 137.5q-14 -188 -257 -188zM611 276l392 8q-16 83 -67 116t-154 33q-101 0 -141.5 -35t-29.5 -122zM357 71q76 12 118.5 50.5
t31.5 106.5q-17 -2 -55 -4.5t-64 -5t-61.5 -6.5t-59 -11t-45.5 -16.5t-31 -23.5t-6 -32q8 -38 54.5 -54t117.5 -4z" />
    <glyph glyph-name="ccedilla" unicode="&#xe7;" horiz-adv-x="632" 
d="M771 -177q8 -47 -104.5 -78t-301.5 -32l-11 55q110 0 177 7.5t92 19t22 28.5q-5 27 -75.5 41.5t-234.5 16.5l-9 53l21 54q-117 15 -199.5 86t-101.5 176q-22 121 51.5 193.5t215.5 72.5q64 0 115.5 -12.5t119.5 -41.5l18 -91q-124 62 -211 62q-118 0 -165.5 -41
t-30.5 -142q17 -100 79.5 -141.5t182.5 -41.5q104 0 188 58l15 -87q-58 -27 -94 -38.5t-87 -14.5l-18 -54q154 -8 246.5 -35.5t99.5 -72.5z" />
    <glyph glyph-name="egrave" unicode="&#xe8;" horiz-adv-x="693" 
d="M287 544l-317 164l-18 102l321 -186zM394 -16q-136 0 -231.5 73t-116.5 193t48.5 193t205.5 73q134 0 227.5 -62.5t113.5 -164.5l14 -82h-497q25 -75 88.5 -107t181.5 -32q35 0 63 2.5t54 10.5t36 11.5t37.5 16.5t29.5 14l17 -90q-74 -30 -128 -39.5t-143 -9.5zM145 276
l392 8q-17 82 -68 115.5t-154 33.5q-101 0 -140.5 -35.5t-29.5 -121.5z" />
    <glyph glyph-name="eacute" unicode="&#xe9;" horiz-adv-x="693" 
d="M272 544l-14 80l253 186l18 -102zM394 -16q-136 0 -231.5 73t-116.5 193t48.5 193t205.5 73q134 0 227.5 -62.5t113.5 -164.5l14 -82h-497q25 -75 88.5 -107t181.5 -32q35 0 63 2.5t54 10.5t36 11.5t37.5 16.5t29.5 14l17 -90q-74 -30 -128 -39.5t-143 -9.5zM145 276
l392 8q-17 82 -68 115.5t-154 33.5q-101 0 -140.5 -35.5t-29.5 -121.5z" />
    <glyph glyph-name="ecircumflex" unicode="&#xea;" horiz-adv-x="693" 
d="M7 555l-14 80l253 186l321 -186l14 -80l-317 164zM394 -16q-136 0 -231.5 73t-116.5 193t48.5 193t205.5 73q134 0 227.5 -62.5t113.5 -164.5l14 -82h-497q25 -75 88.5 -107t181.5 -32q35 0 63 2.5t54 10.5t36 11.5t37.5 16.5t29.5 14l17 -90q-74 -30 -128 -39.5
t-143 -9.5zM145 276l392 8q-17 82 -68 115.5t-154 33.5q-101 0 -140.5 -35.5t-29.5 -121.5z" />
    <glyph glyph-name="edieresis" unicode="&#xeb;" horiz-adv-x="693" 
d="M156 538q-44 0 -75.5 23.5t-38.5 61.5t16.5 61.5t67.5 23.5q47 0 77 -23t37 -62t-15 -62t-69 -23zM446 538q-44 0 -75.5 23.5t-38.5 61.5t16.5 61.5t67.5 23.5q47 0 77 -23t37 -62t-15 -62t-69 -23zM394 -16q-136 0 -231.5 73t-116.5 193t48.5 193t205.5 73
q134 0 227.5 -62.5t113.5 -164.5l14 -82h-497q25 -75 88.5 -107t181.5 -32q35 0 63 2.5t54 10.5t36 11.5t37.5 16.5t29.5 14l17 -90q-74 -30 -128 -39.5t-143 -9.5zM145 276l392 8q-17 82 -68 115.5t-154 33.5q-101 0 -140.5 -35.5t-29.5 -121.5z" />
    <glyph glyph-name="igrave" unicode="&#xec;" horiz-adv-x="176" 
d="M31 541l-346 164l-36 102l354 -186zM76 0l-88 500h112l88 -500h-112z" />
    <glyph glyph-name="iacute" unicode="&#xed;" horiz-adv-x="176" 
d="M9 541l-14 80l253 186l18 -102zM76 0l-88 500h112l88 -500h-112z" />
    <glyph glyph-name="icircumflex" unicode="&#xee;" horiz-adv-x="176" 
d="M-266 552l-28 80l220 186l354 -186l28 -80l-346 164zM76 0l-88 500h112l88 -500h-112z" />
    <glyph glyph-name="idieresis" unicode="&#xef;" horiz-adv-x="176" 
d="M-114 535q-44 0 -80 23.5t-49 61.5t6 61.5t63 23.5q47 0 81 -23t48 -62t-4 -62t-65 -23zM176 535q-44 0 -80 23.5t-49 61.5t6 61.5t63 23.5q47 0 81 -23t48 -62t-4 -62t-65 -23zM76 0l-88 500h112l88 -500h-112z" />
    <glyph glyph-name="eth" unicode="&#xf0;" horiz-adv-x="815" 
d="M463 -12q-169 0 -276 60.5t-129 163.5q-23 112 45.5 180t230.5 68q103 0 193 -44t153 -103q-18 167 -116 265l-221 -67l-42 76l176 54q-81 43 -195 53l-6 61q169 0 300 -84l141 43l44 -75l-104 -32q103 -105 128 -245q33 -188 -51 -281t-271 -93zM459 70q110 0 163.5 38
t60.5 122q-49 73 -138.5 124t-176.5 51q-104 0 -159.5 -46t-42.5 -122q14 -75 94.5 -121t198.5 -46z" />
    <glyph glyph-name="ntilde" unicode="&#xf1;" horiz-adv-x="685" 
d="M373 572q-31 0 -59 18t-50 36t-38 18q-28 0 -41.5 -18t-7.5 -53h-61q-10 58 18 94t82 36q34 0 79 -36t68 -36q29 0 43 18t7 53h60q10 -59 -18 -94.5t-82 -35.5zM119 0l-88 500h126l15 -206h6q-1 96 50 159t154 63q108 -2 173 -75t93 -224l39 -217h-112l-36 200
q-22 121 -67.5 176.5t-123.5 55.5q-88 0 -125.5 -78.5t-16.5 -214.5l25 -139h-112z" />
    <glyph glyph-name="ograve" unicode="&#xf2;" horiz-adv-x="711" 
d="M311 544l-317 164l-18 102l321 -186zM402 -16q-140 0 -237.5 73t-118.5 193t51 193t211 73q140 0 238 -73t119 -193t-51 -193t-212 -73zM387 67q93 0 142 50.5t34 132.5t-80.5 132.5t-158.5 50.5t-142 -50.5t-34 -132.5t80.5 -132.5t158.5 -50.5z" />
    <glyph glyph-name="oacute" unicode="&#xf3;" horiz-adv-x="711" 
d="M281 544l-14 80l253 186l18 -102zM402 -16q-140 0 -237.5 73t-118.5 193t51 193t211 73q140 0 238 -73t119 -193t-51 -193t-212 -73zM387 67q93 0 142 50.5t34 132.5t-80.5 132.5t-158.5 50.5t-142 -50.5t-34 -132.5t80.5 -132.5t158.5 -50.5z" />
    <glyph glyph-name="ocircumflex" unicode="&#xf4;" horiz-adv-x="711" 
d="M16 555l-14 80l253 186l321 -186l14 -80l-317 164zM402 -16q-140 0 -237.5 73t-118.5 193t51 193t211 73q140 0 238 -73t119 -193t-51 -193t-212 -73zM387 67q93 0 142 50.5t34 132.5t-80.5 132.5t-158.5 50.5t-142 -50.5t-34 -132.5t80.5 -132.5t158.5 -50.5z" />
    <glyph glyph-name="otilde" unicode="&#xf5;" horiz-adv-x="711" 
d="M384 572q-31 0 -59 18t-50 36t-38 18q-28 0 -41.5 -18t-7.5 -53h-61q-10 58 18 94t82 36q34 0 79 -36t68 -36q29 0 43 18t7 53h60q10 -59 -18 -94.5t-82 -35.5zM402 -16q-140 0 -237.5 73t-118.5 193t51 193t211 73q140 0 238 -73t119 -193t-51 -193t-212 -73zM387 67
q93 0 142 50.5t34 132.5t-80.5 132.5t-158.5 50.5t-142 -50.5t-34 -132.5t80.5 -132.5t158.5 -50.5z" />
    <glyph glyph-name="odieresis" unicode="&#xf6;" horiz-adv-x="711" 
d="M124 538q-44 0 -75.5 23.5t-38.5 61.5t16.5 61.5t67.5 23.5q47 0 77 -23t37 -62t-15 -62t-69 -23zM414 538q-44 0 -75.5 23.5t-38.5 61.5t16.5 61.5t67.5 23.5q47 0 77 -23t37 -62t-15 -62t-69 -23zM402 -16q-140 0 -237.5 73t-118.5 193t51 193t211 73q140 0 238 -73
t119 -193t-51 -193t-212 -73zM387 67q93 0 142 50.5t34 132.5t-80.5 132.5t-158.5 50.5t-142 -50.5t-34 -132.5t80.5 -132.5t158.5 -50.5z" />
    <glyph glyph-name="divide" unicode="&#xf7;" horiz-adv-x="600" 
d="M287 441q-26 0 -54 19t-37 44q-10 26 3.5 44.5t39.5 18.5q27 0 54.5 -18.5t37.5 -44.5q9 -26 -3.5 -44.5t-40.5 -18.5zM46 242l-15 83h520l15 -83h-520zM367 -18q-26 0 -54 19t-37 44q-10 26 3.5 44.5t39.5 18.5q27 0 54.5 -18.5t37.5 -44.5q9 -26 -3.5 -44.5
t-40.5 -18.5z" />
    <glyph glyph-name="oslash" unicode="&#xf8;" horiz-adv-x="711" 
d="M585 409q64 -67 80 -159q21 -120 -51 -193t-212 -73q-112 0 -199 48l-32 -32h-126l87 86q-69 66 -86 164q-21 120 51 193t211 73q116 0 206 -52l37 36h126zM148 250q10 -57 48 -101l256 253q-57 31 -128 31q-93 0 -142 -50.5t-34 -132.5zM387 67q93 0 142 50.5t34 132.5
q-11 55 -43 95l-254 -251q56 -27 121 -27z" />
    <glyph glyph-name="ugrave" unicode="&#xf9;" horiz-adv-x="685" 
d="M278 544l-317 164l-18 102l321 -186zM566 500l88 -500h-126l-15 206h-6q1 -96 -50 -159t-154 -63q-108 2 -173 75t-93 224l-39 217h112l36 -200q22 -121 67.5 -176.5t123.5 -55.5q88 0 125.5 78.5t16.5 214.5l-25 139h112z" />
    <glyph glyph-name="uacute" unicode="&#xfa;" horiz-adv-x="685" 
d="M248 544l-14 80l253 186l18 -102zM566 500l88 -500h-126l-15 206h-6q1 -96 -50 -159t-154 -63q-108 2 -173 75t-93 224l-39 217h112l36 -200q22 -121 67.5 -176.5t123.5 -55.5q88 0 125.5 78.5t16.5 214.5l-25 139h112z" />
    <glyph glyph-name="ucircumflex" unicode="&#xfb;" horiz-adv-x="685" 
d="M-17 555l-14 80l253 186l321 -186l14 -80l-317 164zM566 500l88 -500h-126l-15 206h-6q1 -96 -50 -159t-154 -63q-108 2 -173 75t-93 224l-39 217h112l36 -200q22 -121 67.5 -176.5t123.5 -55.5q88 0 125.5 78.5t16.5 214.5l-25 139h112z" />
    <glyph glyph-name="udieresis" unicode="&#xfc;" horiz-adv-x="685" 
d="M132 538q-44 0 -75.5 23.5t-38.5 61.5t16.5 61.5t67.5 23.5q47 0 77 -23t37 -62t-15 -62t-69 -23zM422 538q-44 0 -75.5 23.5t-38.5 61.5t16.5 61.5t67.5 23.5q47 0 77 -23t37 -62t-15 -62t-69 -23zM566 500l88 -500h-126l-15 206h-6q1 -96 -50 -159t-154 -63
q-108 2 -173 75t-93 224l-39 217h112l36 -200q22 -121 67.5 -176.5t123.5 -55.5q88 0 125.5 78.5t16.5 214.5l-25 139h112z" />
    <glyph glyph-name="yacute" unicode="&#xfd;" horiz-adv-x="755" 
d="M299 544l-14 80l253 186l18 -102zM290 -200l80 195l-406 505h120l311 -412l164 412h110l-269 -700h-110z" />
    <glyph glyph-name="thorn" unicode="&#xfe;" horiz-adv-x="671" 
d="M109 -200l-158 900h116l42 -363h12q2 90 65 134.5t165 44.5q105 0 187 -75.5t104 -194.5q20 -115 -36.5 -188.5t-162.5 -73.5q-99 0 -173.5 44.5t-107.5 133.5h-4v-1l63 -361h-112zM387 55q86 0 122.5 49.5t19.5 143.5q-17 96 -70 146.5t-139 50.5q-77 0 -119 -49.5
t-25 -147.5q17 -97 76 -145t135 -48z" />
    <glyph glyph-name="ydieresis" unicode="&#xff;" horiz-adv-x="755" 
d="M183 538q-44 0 -75.5 23.5t-38.5 61.5t16.5 61.5t67.5 23.5q47 0 77 -23t37 -62t-15 -62t-69 -23zM473 538q-44 0 -75.5 23.5t-38.5 61.5t16.5 61.5t67.5 23.5q47 0 77 -23t37 -62t-15 -62t-69 -23zM290 -200l80 195l-406 505h120l311 -412l164 412h110l-269 -700h-110z
" />
    <glyph glyph-name="Amacron" unicode="&#x100;" horiz-adv-x="1083" 
d="M184 846l-10 54h532l10 -54h-532zM97 0l309 700h149l552 -700h-131l-124 163h-548l-69 -163h-138zM342 256h438l-287 377z" />
    <glyph glyph-name="amacron" unicode="&#x101;" horiz-adv-x="672" 
d="M23 646l-10 54h532l10 -54h-532zM279 -16q-186 0 -210 132q-5 30 7 55t34 42t57.5 30.5t69.5 21t77.5 13.5t74.5 8.5t68 5.5t50 4q-15 78 -58.5 108t-135.5 30q-104 0 -226 -57l-16 85q138 54 266 54q242 0 285 -234l49 -282h-113l-2 179h-7q-4 -99 -76.5 -147
t-193.5 -48zM358 71q77 13 122.5 51t35.5 105q-17 -1 -54.5 -3.5t-64.5 -5t-63.5 -6.5t-61.5 -10.5t-47.5 -16t-32.5 -24t-7 -32.5q7 -38 54 -54t119 -4z" />
    <glyph glyph-name="Abreve" unicode="&#x102;" horiz-adv-x="1083" 
d="M466 751q-93 0 -160 41t-79 108h105q8 -40 41 -60.5t81 -20.5q49 0 74.5 20.5t21.5 60.5h103q11 -69 -38 -109t-149 -40zM97 0l309 700h149l552 -700h-131l-124 163h-548l-69 -163h-138zM342 256h438l-287 377z" />
    <glyph glyph-name="abreve" unicode="&#x103;" horiz-adv-x="672" 
d="M305 551q-93 0 -160 41t-79 108h105q8 -40 41 -60.5t81 -20.5q49 0 74.5 20.5t21.5 60.5h103q11 -69 -38 -109t-149 -40zM279 -16q-186 0 -210 132q-5 30 7 55t34 42t57.5 30.5t69.5 21t77.5 13.5t74.5 8.5t68 5.5t50 4q-15 78 -58.5 108t-135.5 30q-104 0 -226 -57
l-16 85q138 54 266 54q242 0 285 -234l49 -282h-113l-2 179h-7q-4 -99 -76.5 -147t-193.5 -48zM358 71q77 13 122.5 51t35.5 105q-17 -1 -54.5 -3.5t-64.5 -5t-63.5 -6.5t-61.5 -10.5t-47.5 -16t-32.5 -24t-7 -32.5q7 -38 54 -54t119 -4z" />
    <glyph glyph-name="Aogonek" unicode="&#x104;" horiz-adv-x="1083" 
d="M1250 -154l8 -60q-46 -15 -96.5 -16t-94.5 9.5t-78.5 33t-52.5 52.5t-13 70.5t38 84.5l-109 143h-548l-69 -163h-138l309 700h149l552 -700h-92q-37 -49 -12 -94t90.5 -61t156.5 1zM342 256h438l-287 377z" />
    <glyph glyph-name="aogonek" unicode="&#x105;" horiz-adv-x="672" 
d="M849 -154l8 -60q-55 -18 -115.5 -16.5t-108.5 20t-80.5 51.5t-32 78t37.5 99l-2 161h-7q-4 -99 -76.5 -147t-193.5 -48q-186 0 -210 132q-5 30 7 55t34 42t57.5 30.5t69.5 21t77.5 13.5t74.5 8.5t68 5.5t50 4q-15 78 -58.5 108t-135.5 30q-104 0 -226 -57l-16 85
q138 54 266 54q242 0 285 -234l49 -282h-57q-37 -49 -12 -94t90.5 -61t156.5 1zM358 71q77 13 122.5 51t35.5 105q-17 -1 -54.5 -3.5t-64.5 -5t-63.5 -6.5t-61.5 -10.5t-47.5 -16t-32.5 -24t-7 -32.5q7 -38 54 -54t119 -4z" />
    <glyph glyph-name="Cacute" unicode="&#x106;" horiz-adv-x="935" 
d="M368 744l-28 80l220 186l36 -102zM532 -16q-190 0 -323.5 100.5t-162.5 265.5t69.5 265.5t288.5 100.5t321.5 -88t156.5 -233h-114q-23 106 -117.5 167t-230.5 61q-141 0 -212.5 -73.5t-49.5 -199.5q22 -125 119.5 -199t237.5 -74q137 0 210.5 61.5t58.5 166.5h114
q25 -145 -75.5 -233t-290.5 -88z" />
    <glyph glyph-name="cacute" unicode="&#x107;" horiz-adv-x="632" 
d="M277 544l-28 80l220 186l36 -102zM406 -16q-137 0 -238 73.5t-122 192.5q-22 121 51.5 193.5t215.5 72.5q64 0 115.5 -12.5t119.5 -41.5l18 -91q-124 62 -211 62q-118 0 -165.5 -41t-30.5 -142q17 -100 79.5 -141.5t182.5 -41.5q104 0 188 58l15 -87q-65 -31 -107 -42.5
t-111 -11.5z" />
    <glyph glyph-name="Cdotaccent" unicode="&#x10a;" horiz-adv-x="935" 
d="M394 738q-44 0 -80 23.5t-49 61.5t6 61.5t63 23.5q47 0 81 -23t48 -62t-4 -62t-65 -23zM532 -16q-190 0 -323.5 100.5t-162.5 265.5t69.5 265.5t288.5 100.5t321.5 -88t156.5 -233h-114q-23 106 -117.5 167t-230.5 61q-141 0 -212.5 -73.5t-49.5 -199.5
q22 -125 119.5 -199t237.5 -74q137 0 210.5 61.5t58.5 166.5h114q25 -145 -75.5 -233t-290.5 -88z" />
    <glyph glyph-name="cdotaccent" unicode="&#x10b;" horiz-adv-x="632" 
d="M303 538q-44 0 -80 23.5t-49 61.5t6 61.5t63 23.5q47 0 81 -23t48 -62t-4 -62t-65 -23zM406 -16q-137 0 -238 73.5t-122 192.5q-22 121 51.5 193.5t215.5 72.5q64 0 115.5 -12.5t119.5 -41.5l18 -91q-124 62 -211 62q-118 0 -165.5 -41t-30.5 -142q17 -100 79.5 -141.5
t182.5 -41.5q104 0 188 58l15 -87q-65 -31 -107 -42.5t-111 -11.5z" />
    <glyph glyph-name="Ccaron" unicode="&#x10c;" horiz-adv-x="935" 
d="M398 755l-321 186l-14 80l317 -164l257 164l14 -80zM532 -16q-190 0 -323.5 100.5t-162.5 265.5t69.5 265.5t288.5 100.5t321.5 -88t156.5 -233h-114q-23 106 -117.5 167t-230.5 61q-141 0 -212.5 -73.5t-49.5 -199.5q22 -125 119.5 -199t237.5 -74q137 0 210.5 61.5
t58.5 166.5h114q25 -145 -75.5 -233t-290.5 -88z" />
    <glyph glyph-name="ccaron" unicode="&#x10d;" horiz-adv-x="632" 
d="M307 555l-321 186l-14 80l317 -164l257 164l14 -80zM406 -16q-137 0 -238 73.5t-122 192.5q-22 121 51.5 193.5t215.5 72.5q64 0 115.5 -12.5t119.5 -41.5l18 -91q-124 62 -211 62q-118 0 -165.5 -41t-30.5 -142q17 -100 79.5 -141.5t182.5 -41.5q104 0 188 58l15 -87
q-65 -31 -107 -42.5t-111 -11.5z" />
    <glyph glyph-name="Dcaron" unicode="&#x10e;" horiz-adv-x="871" 
d="M354 755l-321 186l-14 80l317 -164l257 164l14 -80zM152 0l-122 700h326q192 0 315.5 -90t153.5 -260q30 -171 -62 -260.5t-285 -89.5h-326zM248 93h213q139 0 212 69.5t51 187.5q-21 118 -117 187.5t-234 69.5h-214z" />
    <glyph glyph-name="dcaron" unicode="&#x10f;" horiz-adv-x="916" 
d="M371 -16q-107 0 -198.5 76t-112.5 194q-20 114 45 188t173 74q100 0 184.5 -45t118.5 -133h4l-1 1l-64 361h112l123 -700h-116l-6 163h-11q-2 -89 -75 -134t-176 -45zM795 429l15 270h103l-65 -270h-53zM402 67q83 0 132 52t34 133q-13 79 -80 130t-149 51
q-89 0 -134 -50t-31 -131q15 -83 77 -134t151 -51z" />
    <glyph glyph-name="Dcroat" unicode="&#x110;" horiz-adv-x="871" 
d="M825 350q30 -171 -62 -260.5t-285 -89.5h-326l-54 309h-71l-14 83h71l-54 308h326q192 0 315.5 -90t153.5 -260zM461 93q139 0 212 69.5t51 187.5q-21 118 -117 187.5t-234 69.5h-214l37 -215h317l14 -83h-316l37 -216h213z" />
    <glyph glyph-name="dcroat" unicode="&#x111;" horiz-adv-x="779" 
d="M774 536h-113l94 -536h-116l-6 163h-11q-2 -89 -75 -134t-176 -45q-107 0 -198.5 76t-112.5 194q-20 114 45 188t173 74q100 0 184.5 -45t118.5 -133h4l-1 1l-35 197h-233l-18 103h233l-11 61h112l11 -61h113zM402 67q83 0 132 52t34 133q-13 79 -80 130t-149 51
q-89 0 -134 -50t-31 -131q15 -83 77 -134t151 -51z" />
    <glyph glyph-name="Emacron" unicode="&#x112;" horiz-adv-x="810" 
d="M65 846l-10 54h532l10 -54h-532zM152 0l-122 700h638l16 -93h-525l36 -209h517l14 -85h-517l39 -220h525l17 -93h-638z" />
    <glyph glyph-name="emacron" unicode="&#x113;" horiz-adv-x="693" 
d="M12 646l-10 54h532l10 -54h-532zM394 -16q-136 0 -231.5 73t-116.5 193t48.5 193t205.5 73q134 0 227.5 -62.5t113.5 -164.5l14 -82h-497q25 -75 88.5 -107t181.5 -32q35 0 63 2.5t54 10.5t36 11.5t37.5 16.5t29.5 14l17 -90q-74 -30 -128 -39.5t-143 -9.5zM145 276
l392 8q-17 82 -68 115.5t-154 33.5q-101 0 -140.5 -35.5t-29.5 -121.5z" />
    <glyph glyph-name="Edotaccent" unicode="&#x116;" horiz-adv-x="810" 
d="M343 738q-44 0 -80 23.5t-49 61.5t6 61.5t63 23.5q47 0 81 -23t48 -62t-4 -62t-65 -23zM152 0l-122 700h638l16 -93h-525l36 -209h517l14 -85h-517l39 -220h525l17 -93h-638z" />
    <glyph glyph-name="edotaccent" unicode="&#x117;" horiz-adv-x="693" 
d="M290 538q-44 0 -80 23.5t-49 61.5t6 61.5t63 23.5q47 0 81 -23t48 -62t-4 -62t-65 -23zM394 -16q-136 0 -231.5 73t-116.5 193t48.5 193t205.5 73q134 0 227.5 -62.5t113.5 -164.5l14 -82h-497q25 -75 88.5 -107t181.5 -32q35 0 63 2.5t54 10.5t36 11.5t37.5 16.5
t29.5 14l17 -90q-74 -30 -128 -39.5t-143 -9.5zM145 276l392 8q-17 82 -68 115.5t-154 33.5q-101 0 -140.5 -35.5t-29.5 -121.5z" />
    <glyph glyph-name="Eogonek" unicode="&#x118;" horiz-adv-x="810" 
d="M504 0q-37 -49 -12 -94t90.5 -61t156.5 1l8 -60q-53 -17 -111.5 -16.5t-106 17.5t-81 47.5t-37.5 72.5t25 93h-284l-122 700h638l16 -93h-525l36 -209h517l14 -85h-517l39 -220h525l17 -93h-286z" />
    <glyph glyph-name="eogonek" unicode="&#x119;" horiz-adv-x="693" 
d="M663 -154l8 -60q-65 -21 -136 -15.5t-121 33.5t-72 74.5t10 107.5q-120 11 -203.5 82.5t-102.5 181.5q-21 120 48.5 193t205.5 73q134 0 227.5 -62.5t113.5 -164.5l14 -82h-497q25 -75 88.5 -107t181.5 -32q35 0 63 2.5t54 10.5t36 11.5t37.5 16.5t29.5 14l17 -90
q-71 -28 -121.5 -38t-126.5 -11q-25 -46 4 -86.5t92.5 -54.5t149.5 3zM315 433q-101 0 -140.5 -35.5t-29.5 -121.5l392 8q-17 82 -68 115.5t-154 33.5z" />
    <glyph glyph-name="Ecaron" unicode="&#x11a;" horiz-adv-x="810" 
d="M347 755l-321 186l-14 80l317 -164l257 164l14 -80zM152 0l-122 700h638l16 -93h-525l36 -209h517l14 -85h-517l39 -220h525l17 -93h-638z" />
    <glyph glyph-name="ecaron" unicode="&#x11b;" horiz-adv-x="693" 
d="M294 555l-321 186l-14 80l317 -164l257 164l14 -80zM394 -16q-136 0 -231.5 73t-116.5 193t48.5 193t205.5 73q134 0 227.5 -62.5t113.5 -164.5l14 -82h-497q25 -75 88.5 -107t181.5 -32q35 0 63 2.5t54 10.5t36 11.5t37.5 16.5t29.5 14l17 -90q-74 -30 -128 -39.5
t-143 -9.5zM145 276l392 8q-17 82 -68 115.5t-154 33.5q-101 0 -140.5 -35.5t-29.5 -121.5z" />
    <glyph glyph-name="Gbreve" unicode="&#x11e;" horiz-adv-x="971" 
d="M399 751q-93 0 -167.5 41t-97.5 108h105q14 -40 51 -60.5t85 -20.5q49 0 70.5 20.5t11.5 60.5h103q22 -69 -19.5 -109t-141.5 -40zM542 -16q-190 0 -323.5 100.5t-162.5 265.5t69.5 265.5t288.5 100.5q179 0 302.5 -74.5t154.5 -197.5h-109q-23 85 -110 132t-222 47
q-141 0 -212.5 -73.5t-49.5 -199.5q22 -125 119.5 -199t237.5 -74q133 0 207 54t67 147h-414l-15 87h526l63 -365h-104l-14 123q-38 -69 -118.5 -104t-180.5 -35z" />
    <glyph glyph-name="gbreve" unicode="&#x11f;" horiz-adv-x="775" 
d="M358 551q-93 0 -167.5 41t-97.5 108h105q14 -40 51 -60.5t85 -20.5q49 0 70.5 20.5t11.5 60.5h103q22 -69 -19.5 -109t-141.5 -40zM448 -200q-58 0 -106 8t-69 15t-79 28l-18 101q47 -31 119.5 -50t144.5 -19q106 0 150 46t31 123l-13 96q-6 -55 -44 -94t-91 -56
t-116 -17q-107 0 -198.5 77.5t-111.5 195.5q-20 115 45.5 188.5t173.5 73.5q100 0 184 -45t118 -133h13l-41 162h102l79 -440q22 -130 -52 -195t-221 -65zM390 67q82 0 131 52t35 133q-13 78 -81 129.5t-150 51.5q-89 0 -133 -50t-30 -131q14 -83 76.5 -134t151.5 -51z" />
    <glyph glyph-name="Gdotaccent" unicode="&#x120;" horiz-adv-x="971" 
d="M404 738q-44 0 -80 23.5t-49 61.5t6 61.5t63 23.5q47 0 81 -23t48 -62t-4 -62t-65 -23zM542 -16q-190 0 -323.5 100.5t-162.5 265.5t69.5 265.5t288.5 100.5q179 0 302.5 -74.5t154.5 -197.5h-109q-23 85 -110 132t-222 47q-141 0 -212.5 -73.5t-49.5 -199.5
q22 -125 119.5 -199t237.5 -74q133 0 207 54t67 147h-414l-15 87h526l63 -365h-104l-14 123q-38 -69 -118.5 -104t-180.5 -35z" />
    <glyph glyph-name="gdotaccent" unicode="&#x121;" horiz-adv-x="775" 
d="M363 538q-44 0 -80 23.5t-49 61.5t6 61.5t63 23.5q47 0 81 -23t48 -62t-4 -62t-65 -23zM448 -200q-58 0 -106 8t-69 15t-79 28l-18 101q47 -31 119.5 -50t144.5 -19q106 0 150 46t31 123l-13 96q-6 -55 -44 -94t-91 -56t-116 -17q-107 0 -198.5 77.5t-111.5 195.5
q-20 115 45.5 188.5t173.5 73.5q100 0 184 -45t118 -133h13l-41 162h102l79 -440q22 -130 -52 -195t-221 -65zM390 67q82 0 131 52t35 133q-13 78 -81 129.5t-150 51.5q-89 0 -133 -50t-30 -131q14 -83 76.5 -134t151.5 -51z" />
    <glyph glyph-name="Gcommaaccent" unicode="&#x122;" horiz-adv-x="971" 
d="M542 -16q-190 0 -323.5 100.5t-162.5 265.5t69.5 265.5t288.5 100.5q179 0 302.5 -74.5t154.5 -197.5h-109q-23 85 -110 132t-222 47q-141 0 -212.5 -73.5t-49.5 -199.5q22 -125 119.5 -199t237.5 -74q133 0 207 54t67 147h-414l-15 87h526l63 -365h-104l-14 123
q-38 -69 -118.5 -104t-180.5 -35zM504 -350l15 270h103l-65 -270h-53z" />
    <glyph glyph-name="gcommaaccent" unicode="&#x123;" horiz-adv-x="775" 
d="M448 -200q-58 0 -106 8t-69 15t-79 28l-18 101q47 -31 119.5 -50t144.5 -19q106 0 150 46t31 123l-13 96q-6 -55 -44 -94t-91 -56t-116 -17q-107 0 -198.5 77.5t-111.5 195.5q-20 115 45.5 188.5t173.5 73.5q100 0 184 -45t118 -133h13l-41 162h102l79 -440
q22 -130 -52 -195t-221 -65zM390 67q82 0 131 52t35 133q-13 78 -81 129.5t-150 51.5q-89 0 -133 -50t-30 -131q14 -83 76.5 -134t151.5 -51zM427 -532l15 270h103l-65 -270h-53z" />
    <glyph glyph-name="Hbar" unicode="&#x126;" horiz-adv-x="908" 
d="M780 554l97 -554h-112l-54 314h-501l54 -314h-112l-97 554h-48l-15 88h48l-10 58h112l10 -58h501l-10 58h112l10 -58h50l14 -88h-49zM193 407h501l-26 147h-501z" />
    <glyph glyph-name="hbar" unicode="&#x127;" horiz-adv-x="686" 
d="M665 217l37 -217h-112l-34 200q-22 121 -67 176.5t-123 55.5q-91 0 -129 -82.5t-13 -226.5v2l22 -125h-112l-93 536h-44l-17 103h43l-11 61h126l8 -61h292l18 -103h-297l30 -242h6q-1 96 49.5 159t153.5 63q108 -2 174 -75t93 -224z" />
    <glyph glyph-name="Imacron" unicode="&#x12a;" horiz-adv-x="295" 
d="M-205 846l-10 54h532l10 -54h-532zM152 0l-122 700h112l122 -700h-112z" />
    <glyph glyph-name="imacron" unicode="&#x12b;" horiz-adv-x="176" 
d="M-277 643l-19 54h532l19 -54h-532zM76 0l-88 500h112l88 -500h-112z" />
    <glyph glyph-name="Iogonek" unicode="&#x12e;" horiz-adv-x="295" 
d="M450 -154l8 -60q-54 -17 -113 -16t-106.5 18.5t-81 49t-35.5 74.5t29 95l-121 693h112l122 -700h-49q-37 -49 -12 -94t90.5 -61t156.5 1z" />
    <glyph glyph-name="iogonek" unicode="&#x12f;" horiz-adv-x="284" 
d="M161 678q7 -33 -10.5 -51t-50.5 -18t-55.5 18t-29.5 51q-6 32 11 50.5t49 18.5q33 0 56.5 -18.5t29.5 -50.5zM470 -154l19 -60q-65 -22 -142 -14.5t-132.5 40.5t-79.5 86t15 121l-86 481h112l89 -500h-57q-29 -49 4 -94t102 -61t156 1z" />
    <glyph glyph-name="Idotaccent" unicode="&#x130;" horiz-adv-x="295" 
d="M89 738q-44 0 -84 23.5t-60 61.5t-5 61.5t59 23.5q47 0 85 -23t59 -62q21 -38 7 -61.5t-61 -23.5zM152 0l-122 700h112l122 -700h-112z" />
    <glyph glyph-name="dotlessi" unicode="&#x131;" horiz-adv-x="176" 
d="M76 0l-88 500h112l88 -500h-112z" />
    <glyph glyph-name="Kcommaaccent" unicode="&#x136;" horiz-adv-x="950" 
d="M152 0l-122 700h112l77 -433l431 433h154l-250 -243l393 -457h-135l-329 389l-245 -239l26 -150h-112zM454 -350l15 270h103l-65 -270h-53z" />
    <glyph glyph-name="kcommaaccent" unicode="&#x137;" horiz-adv-x="733" 
d="M134 0l-122 700h112l82 -473l276 273h166l-179 -161l272 -339h-137l-206 275l-172 -156l20 -119h-112zM350 -350l15 270h103l-65 -270h-53z" />
    <glyph glyph-name="Lacute" unicode="&#x139;" horiz-adv-x="755" 
d="M84 744l-28 80l220 186l36 -102zM152 0l-122 700h112l106 -607h510l17 -93h-623z" />
    <glyph glyph-name="lacute" unicode="&#x13a;" horiz-adv-x="257" 
d="M38 744l-14 80l253 186l18 -102zM134 0l-122 700h112l122 -700h-112z" />
    <glyph glyph-name="Lcommaaccent" unicode="&#x13b;" horiz-adv-x="755" 
d="M152 0l-122 700h112l106 -607h510l17 -93h-623zM383 -350l15 270h103l-65 -270h-53z" />
    <glyph glyph-name="lcommaaccent" unicode="&#x13c;" horiz-adv-x="257" 
d="M134 0l-122 700h112l122 -700h-112zM136 -350l15 270h103l-65 -270h-53z" />
    <glyph glyph-name="Lcaron" unicode="&#x13d;" horiz-adv-x="755" 
d="M152 0l-122 700h112l106 -607h510l17 -93h-623zM354 429l15 270h103l-65 -270h-53z" />
    <glyph glyph-name="lcaron" unicode="&#x13e;" horiz-adv-x="433" 
d="M134 0l-122 700h112l122 -700h-112zM321 429l15 270h103l-65 -270h-53z" />
    <glyph glyph-name="Lslash" unicode="&#x141;" horiz-adv-x="755" 
d="M775 0h-623l-55 316l-81 -46l-47 82l111 63l-50 285h112l39 -226l253 145l48 -81l-283 -163l49 -282h510z" />
    <glyph glyph-name="lslash" unicode="&#x142;" horiz-adv-x="540" 
d="M539 552l-220 -127l74 -425h-112l-64 367l-144 -83l-37 68l167 96l-44 252h112l34 -194l196 113z" />
    <glyph glyph-name="Nacute" unicode="&#x143;" horiz-adv-x="967" 
d="M389 744l-28 80l220 186l36 -102zM152 0l-122 700h114l657 -564l-98 564h112l122 -700h-115l-656 562l98 -562h-112z" />
    <glyph glyph-name="nacute" unicode="&#x144;" horiz-adv-x="685" 
d="M262 544l-28 80l220 186l36 -102zM119 0l-88 500h126l15 -206h6q-1 96 50 159t154 63q108 -2 173 -75t93 -224l39 -217h-112l-36 200q-22 121 -67.5 176.5t-123.5 55.5q-88 0 -125.5 -78.5t-16.5 -214.5l25 -139h-112z" />
    <glyph glyph-name="Ncommaaccent" unicode="&#x145;" horiz-adv-x="967" 
d="M152 0l-122 700h114l657 -564l-98 564h112l122 -700h-115l-656 562l98 -562h-112zM461 -350l15 270h103l-65 -270h-53z" />
    <glyph glyph-name="ncommaaccent" unicode="&#x146;" horiz-adv-x="685" 
d="M119 0l-88 500h126l15 -206h6q-1 96 50 159t154 63q108 -2 173 -75t93 -224l39 -217h-112l-36 200q-22 121 -67.5 176.5t-123.5 55.5q-88 0 -125.5 -78.5t-16.5 -214.5l25 -139h-112zM335 -350l15 270h103l-65 -270h-53z" />
    <glyph glyph-name="Ncaron" unicode="&#x147;" horiz-adv-x="967" 
d="M419 755l-321 186l-14 80l317 -164l257 164l14 -80zM152 0l-122 700h114l657 -564l-98 564h112l122 -700h-115l-656 562l98 -562h-112z" />
    <glyph glyph-name="ncaron" unicode="&#x148;" horiz-adv-x="685" 
d="M292 555l-321 186l-14 80l317 -164l257 164l14 -80zM119 0l-88 500h126l15 -206h6q-1 96 50 159t154 63q108 -2 173 -75t93 -224l39 -217h-112l-36 200q-22 121 -67.5 176.5t-123.5 55.5q-88 0 -125.5 -78.5t-16.5 -214.5l25 -139h-112z" />
    <glyph glyph-name="Eng" unicode="&#x14a;" horiz-adv-x="967" 
d="M937 0q10 -62 -1.5 -99.5t-58 -61t-124 -31.5t-210.5 -8l-15 89q258 0 308 52q24 26 -14 59l-656 562l98 -562h-112l-122 700h114l657 -564l-98 564h112z" />
    <glyph glyph-name="eng" unicode="&#x14b;" horiz-adv-x="685" 
d="M687 0q5 -34 6.5 -57.5t-3 -45.5t-14 -35.5t-29.5 -25.5t-46 -18t-67 -10.5t-89 -6t-116 -1.5l-15 89q163 0 218.5 14t46.5 65l-5 37l-35 195q-22 121 -67.5 176.5t-123.5 55.5q-88 0 -125.5 -78.5t-16.5 -214.5l25 -139h-112l-88 500h126l15 -206h6q-1 96 50 159t154 63
q108 -2 173 -75t93 -224z" />
    <glyph glyph-name="Omacron" unicode="&#x14c;" horiz-adv-x="976" 
d="M137 846l-10 54h532l10 -54h-532zM552 -16q-203 0 -340 100t-166 266t72.5 266t305.5 100t341 -100t166 -266t-73 -266t-306 -100zM535 77q150 0 228 74t56 199q-22 126 -125.5 199.5t-253.5 73.5q-149 0 -226.5 -73.5t-55.5 -199.5q22 -125 125 -199t252 -74z" />
    <glyph glyph-name="omacron" unicode="&#x14d;" horiz-adv-x="711" 
d="M-4 646l-10 54h532l10 -54h-532zM402 -16q-140 0 -237.5 73t-118.5 193t51 193t211 73q140 0 238 -73t119 -193t-51 -193t-212 -73zM387 67q93 0 142 50.5t34 132.5t-80.5 132.5t-158.5 50.5t-142 -50.5t-34 -132.5t80.5 -132.5t158.5 -50.5z" />
    <glyph glyph-name="Ohungarumlaut" unicode="&#x150;" horiz-adv-x="976" 
d="M285 744l-14 80l253 186l18 -102zM535 744l-14 80l253 186l18 -102zM552 -16q-203 0 -340 100t-166 266t72.5 266t305.5 100t341 -100t166 -266t-73 -266t-306 -100zM535 77q150 0 228 74t56 199q-22 126 -125.5 199.5t-253.5 73.5q-149 0 -226.5 -73.5t-55.5 -199.5
q22 -125 125 -199t252 -74z" />
    <glyph glyph-name="ohungarumlaut" unicode="&#x151;" horiz-adv-x="711" 
d="M169 544l-14 80l253 186l18 -102zM419 544l-14 80l253 186l18 -102zM402 -16q-140 0 -237.5 73t-118.5 193t51 193t211 73q140 0 238 -73t119 -193t-51 -193t-212 -73zM387 67q93 0 142 50.5t34 132.5t-80.5 132.5t-158.5 50.5t-142 -50.5t-34 -132.5t80.5 -132.5
t158.5 -50.5z" />
    <glyph glyph-name="OE" unicode="&#x152;" horiz-adv-x="1553" 
d="M1533 0h-638l-18 104q-99 -120 -325 -120q-203 0 -340 100t-166 266t72.5 266t305.5 100q226 0 367 -121l-18 105h638l16 -93h-525l36 -209h517l14 -85h-517l39 -220h525zM535 77q150 0 228 74t56 199q-22 126 -125.5 199.5t-253.5 73.5q-149 0 -226.5 -73.5
t-55.5 -199.5q22 -125 125 -199t252 -74z" />
    <glyph glyph-name="oe" unicode="&#x153;" horiz-adv-x="1216" 
d="M1171 123l17 -90q-74 -30 -128 -39.5t-143 -9.5q-174 0 -273 112q-65 -112 -242 -112q-140 0 -237.5 73t-118.5 193t51 193t211 73q178 0 281 -112q62 112 234 112q134 0 227.5 -62.5t113.5 -164.5l14 -82h-497q25 -75 88.5 -107t181.5 -32q35 0 63 2.5t54 10.5t36 11.5
t37.5 16.5t29.5 14zM387 67q93 0 142 50.5t34 132.5t-80.5 132.5t-158.5 50.5t-142 -50.5t-34 -132.5t80.5 -132.5t158.5 -50.5zM838 433q-101 0 -140.5 -35.5t-29.5 -121.5l392 8q-17 82 -68 115.5t-154 33.5z" />
    <glyph glyph-name="Racute" unicode="&#x154;" horiz-adv-x="941" 
d="M282 744l-28 80l220 186l36 -102zM152 0l-122 700h543q106 0 174 -51t83 -134q14 -83 -38.5 -129.5t-155.5 -46.5h-74q49 -3 90.5 -18.5t76.5 -38.5t76 -68t76 -91t90 -123h-122q-128 175 -167 217q-66 71 -134 84q-22 4 -49 4h-288l53 -305h-112zM194 401h397
q146 0 131 96q-11 57 -50 83t-117 26h-398z" />
    <glyph glyph-name="racute" unicode="&#x155;" horiz-adv-x="530" 
d="M295 544l-28 80l220 186l36 -102zM119 0l-88 500h126l15 -206h10q-2 123 56.5 172.5t209.5 49.5l17 -93q-160 0 -222 -62.5t-43 -183.5l31 -177h-112z" />
    <glyph glyph-name="Rcommaaccent" unicode="&#x156;" horiz-adv-x="941" 
d="M152 0l-122 700h543q106 0 174 -51t83 -134q14 -83 -38.5 -129.5t-155.5 -46.5h-74q49 -3 90.5 -18.5t76.5 -38.5t76 -68t76 -91t90 -123h-122q-128 175 -167 217q-66 71 -134 84q-22 4 -49 4h-288l53 -305h-112zM194 401h397q146 0 131 96q-11 57 -50 83t-117 26h-398z
M474 -350l15 270h103l-65 -270h-53z" />
    <glyph glyph-name="rcommaaccent" unicode="&#x157;" horiz-adv-x="530" 
d="M119 0l-88 500h126l15 -206h10q-2 123 56.5 172.5t209.5 49.5l17 -93q-160 0 -222 -62.5t-43 -183.5l31 -177h-112zM123 -350l15 270h103l-65 -270h-53z" />
    <glyph glyph-name="Rcaron" unicode="&#x158;" horiz-adv-x="941" 
d="M312 755l-321 186l-14 80l317 -164l257 164l14 -80zM152 0l-122 700h543q106 0 174 -51t83 -134q14 -83 -38.5 -129.5t-155.5 -46.5h-74q49 -3 90.5 -18.5t76.5 -38.5t76 -68t76 -91t90 -123h-122q-128 175 -167 217q-66 71 -134 84q-22 4 -49 4h-288l53 -305h-112z
M194 401h397q146 0 131 96q-11 57 -50 83t-117 26h-398z" />
    <glyph glyph-name="rcaron" unicode="&#x159;" horiz-adv-x="530" 
d="M325 555l-321 186l-14 80l317 -164l257 164l14 -80zM119 0l-88 500h126l15 -206h10q-2 123 56.5 172.5t209.5 49.5l17 -93q-160 0 -222 -62.5t-43 -183.5l31 -177h-112z" />
    <glyph glyph-name="Sacute" unicode="&#x15a;" horiz-adv-x="864" 
d="M338 744l-28 80l220 186l36 -102zM480 -16q-170 2 -282.5 67t-129.5 170h115q11 -65 88 -104t189 -40q141 -1 211 28t63 87q-6 43 -45.5 68t-98.5 34t-129.5 14t-141 13t-131 25t-103 56.5t-52.5 101.5q-18 105 76 160t264 52q165 -3 275 -67t131 -170h-115
q-10 64 -85.5 103t-184.5 41q-131 2 -194.5 -25.5t-54.5 -81.5q6 -37 45 -57.5t97.5 -28.5t128.5 -12.5t140.5 -15t131 -30t103.5 -64t53 -111.5q17 -105 -82.5 -160t-281.5 -53z" />
    <glyph glyph-name="sacute" unicode="&#x15b;" horiz-adv-x="675" 
d="M255 544l-28 80l220 186l36 -102zM383 -16q-132 0 -275 39l-16 87q120 -43 256 -43q108 0 151.5 15.5t36.5 54.5q-6 35 -57 50t-121 19t-140.5 12t-125 41t-65.5 94q-14 80 58 121.5t208 41.5q107 0 255 -28l14 -80q-127 26 -246 26q-98 0 -141 -17t-36 -51
q6 -33 57 -48.5t121 -20.5t141 -14.5t125.5 -43.5t65.5 -94q14 -81 -57 -121t-209 -40z" />
    <glyph glyph-name="Scedilla" unicode="&#x15e;" horiz-adv-x="864" 
d="M903 -177q11 -31 -33 -56t-136 -39.5t-217 -14.5l-21 55q283 1 282 49q0 3 -1 6q-19 54 -320 58l-18 53l11 51q-159 8 -262 72t-120 164h115q11 -65 88 -104t189 -40q141 -1 211 28t63 87q-6 43 -45.5 68t-98.5 34t-129.5 14t-141 13t-131 25t-103 56.5t-52.5 101.5
q-18 105 76 160t264 52q165 -3 275 -67t131 -170h-115q-10 64 -85.5 103t-184.5 41q-131 2 -194.5 -25.5t-54.5 -81.5q6 -37 45 -57.5t97.5 -28.5t128.5 -12.5t140.5 -15t131 -30t103.5 -64t53 -111.5q15 -95 -65 -149t-232 -63l-9 -54q156 -8 253 -35.5t112 -72.5z" />
    <glyph glyph-name="scedilla" unicode="&#x15f;" horiz-adv-x="675" 
d="M761 -177q11 -31 -33 -56t-136 -39.5t-217 -14.5l-21 55q283 1 282 49q0 3 -1 6q-19 54 -320 58l-18 53l11 54q-109 10 -200 35l-16 87q120 -43 256 -43q108 0 151.5 15.5t36.5 54.5q-6 35 -57 50t-121 19t-140.5 12t-125 41t-65.5 94q-14 80 58 121.5t208 41.5
q107 0 255 -28l14 -80q-127 26 -246 26q-98 0 -141 -17t-36 -51q6 -33 57 -48.5t121 -20.5t141 -14.5t125.5 -43.5t65.5 -94q14 -78 -51.5 -118t-192.5 -43l-9 -53q156 -8 253 -35.5t112 -72.5z" />
    <glyph glyph-name="Scaron" unicode="&#x160;" horiz-adv-x="864" 
d="M368 755l-321 186l-14 80l317 -164l257 164l14 -80zM480 -16q-170 2 -282.5 67t-129.5 170h115q11 -65 88 -104t189 -40q141 -1 211 28t63 87q-6 43 -45.5 68t-98.5 34t-129.5 14t-141 13t-131 25t-103 56.5t-52.5 101.5q-18 105 76 160t264 52q165 -3 275 -67t131 -170
h-115q-10 64 -85.5 103t-184.5 41q-131 2 -194.5 -25.5t-54.5 -81.5q6 -37 45 -57.5t97.5 -28.5t128.5 -12.5t140.5 -15t131 -30t103.5 -64t53 -111.5q17 -105 -82.5 -160t-281.5 -53z" />
    <glyph glyph-name="scaron" unicode="&#x161;" horiz-adv-x="675" 
d="M285 555l-321 186l-14 80l317 -164l257 164l14 -80zM383 -16q-132 0 -275 39l-16 87q120 -43 256 -43q108 0 151.5 15.5t36.5 54.5q-6 35 -57 50t-121 19t-140.5 12t-125 41t-65.5 94q-14 80 58 121.5t208 41.5q107 0 255 -28l14 -80q-127 26 -246 26q-98 0 -141 -17
t-36 -51q6 -33 57 -48.5t121 -20.5t141 -14.5t125.5 -43.5t65.5 -94q14 -81 -57 -121t-209 -40z" />
    <glyph glyph-name="uni0162" unicode="&#x162;" horiz-adv-x="896" 
d="M895 -177q11 -31 -33 -56t-136 -39.5t-217 -14.5l-21 55q283 1 282 49q0 3 -1 6q-19 54 -320 58l-18 53l18 85l-102 588h-355l-17 93h823l17 -93h-356l105 -607h-23l-11 -69q156 -8 253 -35.5t112 -72.5z" />
    <glyph glyph-name="uni0163" unicode="&#x163;" horiz-adv-x="441" 
d="M688 -177q11 -31 -33 -56t-136 -39.5t-217 -14.5l-21 55q283 1 282 49q0 3 -1 6q-19 54 -320 58l-18 53l14 69q-40 16 -59.5 56t-33.5 121l-42 240h-80l-14 80h100l-21 120l87 20l25 -140h167l14 -80h-166l36 -210q6 -34 8.5 -48t9 -35t11 -28t15.5 -18t21.5 -12.5t31 -5
t41.5 -3t55 2.5l9 -53q-47 -20 -120 -20l-10 -59q156 -8 253 -35.5t112 -72.5z" />
    <glyph glyph-name="Tcaron" unicode="&#x164;" horiz-adv-x="896" 
d="M385 755l-321 186l-14 80l317 -164l257 164l14 -80zM452 0l-105 607h-355l-17 93h823l17 -93h-356l105 -607h-112z" />
    <glyph glyph-name="tcaron" unicode="&#x165;" horiz-adv-x="580" 
d="M491 429l15 270h103l-65 -270h-53zM329 -10q-49 0 -80 9t-51.5 33t-31.5 57.5t-21 90.5l-42 240h-80l-14 80h100l-21 120l87 20l25 -140h167l14 -80h-166l36 -210q6 -34 8.5 -48t9 -35t11 -28t15.5 -18t21.5 -12.5t31 -5t41.5 -3t55 2.5l9 -53q-49 -20 -124 -20z" />
    <glyph glyph-name="Tbar" unicode="&#x166;" horiz-adv-x="896" 
d="M691 372l15 -83h-192l50 -289h-112l-50 289h-196l-15 83h197l-41 235h-355l-17 93h823l17 -93h-356l41 -235h191z" />
    <glyph glyph-name="tbar" unicode="&#x167;" horiz-adv-x="441" 
d="M444 63l9 -53q-49 -20 -124 -20q-49 0 -80 9t-51.5 33t-31.5 57.5t-21 90.5l-9 50h-86l-15 87h86l-18 103h-80l-14 80h100l-21 120l87 20l25 -140h167l14 -80h-166l18 -103h161l15 -87h-161l3 -20q6 -34 8.5 -48t9 -35t11 -28t15.5 -18t21.5 -12.5t31 -5t41.5 -3t55 2.5z
" />
    <glyph glyph-name="Umacron" unicode="&#x16a;" horiz-adv-x="902" 
d="M97 846l-10 54h532l10 -54h-532zM514 -16q-181 0 -286 88.5t-142 302.5l-58 325h112l62 -355q24 -139 94.5 -204t200.5 -65t177 65t23 204l-62 355h112l58 -325q37 -215 -36.5 -303t-254.5 -88z" />
    <glyph glyph-name="umacron" unicode="&#x16b;" horiz-adv-x="685" 
d="M-6 646l-10 54h532l10 -54h-532zM566 500l88 -500h-126l-15 206h-6q1 -96 -50 -159t-154 -63q-108 2 -173 75t-93 224l-39 217h112l36 -200q22 -121 67.5 -176.5t123.5 -55.5q88 0 125.5 78.5t16.5 214.5l-25 139h112z" />
    <glyph glyph-name="Uring" unicode="&#x16e;" horiz-adv-x="902" 
d="M374 738q-105 0 -189 29t-100 74t48 74t169 29q113 0 193 -28.5t96 -74.5t-44 -74.5t-173 -28.5zM356 789q41 0 61.5 13.5t11.5 38.5q-19 52 -109 52q-40 0 -60 -13.5t-11 -38.5q18 -52 107 -52zM514 -16q-181 0 -286 88.5t-142 302.5l-58 325h112l62 -355
q24 -139 94.5 -204t200.5 -65t177 65t23 204l-62 355h112l58 -325q37 -215 -36.5 -303t-254.5 -88z" />
    <glyph glyph-name="uring" unicode="&#x16f;" horiz-adv-x="685" 
d="M265 538q-105 0 -189 29t-100 74t48 74t169 29q113 0 193 -28.5t96 -74.5t-44 -74.5t-173 -28.5zM247 589q41 0 61.5 13.5t11.5 38.5q-19 52 -109 52q-40 0 -60 -13.5t-11 -38.5q18 -52 107 -52zM566 500l88 -500h-126l-15 206h-6q1 -96 -50 -159t-154 -63
q-108 2 -173 75t-93 224l-39 217h112l36 -200q22 -121 67.5 -176.5t123.5 -55.5q88 0 125.5 78.5t16.5 214.5l-25 139h112z" />
    <glyph glyph-name="Uhungarumlaut" unicode="&#x170;" horiz-adv-x="902" 
d="M245 744l-14 80l253 186l18 -102zM495 744l-14 80l253 186l18 -102zM514 -16q-181 0 -286 88.5t-142 302.5l-58 325h112l62 -355q24 -139 94.5 -204t200.5 -65t177 65t23 204l-62 355h112l58 -325q37 -215 -36.5 -303t-254.5 -88z" />
    <glyph glyph-name="uhungarumlaut" unicode="&#x171;" horiz-adv-x="685" 
d="M136 544l-14 80l253 186l18 -102zM386 544l-14 80l253 186l18 -102zM566 500l88 -500h-126l-15 206h-6q1 -96 -50 -159t-154 -63q-108 2 -173 75t-93 224l-39 217h112l36 -200q22 -121 67.5 -176.5t123.5 -55.5q88 0 125.5 78.5t16.5 214.5l-25 139h112z" />
    <glyph glyph-name="Uogonek" unicode="&#x172;" horiz-adv-x="902" 
d="M550 -15q-26 -46 2.5 -86.5t92.5 -55t150 2.5l8 -60q-52 -17 -109 -16.5t-103 16t-81 44t-42 68t15 87.5q-166 6 -263.5 95.5t-133.5 294.5l-58 325h112l62 -355q24 -139 94.5 -204t200.5 -65t177 65t23 204l-62 355h112l58 -325q35 -204 -29.5 -293t-225.5 -97z" />
    <glyph glyph-name="uogonek" unicode="&#x173;" horiz-adv-x="685" 
d="M823 -154l8 -60q-54 -18 -114 -16.5t-107.5 19.5t-81 50t-34.5 75.5t33 96.5l-14 195h-6q1 -96 -50 -159t-154 -63q-108 2 -173 75t-93 224l-39 217h112l36 -200q22 -121 67.5 -176.5t123.5 -55.5q88 0 125.5 78.5t16.5 214.5l-25 139h112l88 -500h-66q-37 -49 -12 -94
t90.5 -61t156.5 1z" />
    <glyph glyph-name="Wcircumflex" unicode="&#x174;" horiz-adv-x="1259" 
d="M275 755l-14 80l253 186l321 -186l14 -80l-317 164zM379 0l-381 700h116l308 -567l99 567h94l300 -567l107 567h117l-137 -700h-118l-292 564l-95 -564h-118z" />
    <glyph glyph-name="wcircumflex" unicode="&#x175;" horiz-adv-x="1054" 
d="M181 555l-14 80l253 186l321 -186l14 -80l-317 164zM283 0l-302 500h108l260 -432l97 432h64l260 -433l107 433h108l-126 -500h-166l-180 306l-64 -306h-166z" />
    <glyph glyph-name="Ycircumflex" unicode="&#x176;" horiz-adv-x="868" 
d="M77 755l-14 80l253 186l321 -186l14 -80l-317 164zM439 0l-39 226l-436 474h137l336 -368l208 368h137l-270 -472l39 -228h-112z" />
    <glyph glyph-name="ycircumflex" unicode="&#x177;" horiz-adv-x="755" 
d="M34 555l-14 80l253 186l321 -186l14 -80l-317 164zM290 -200l80 195l-406 505h120l311 -412l164 412h110l-269 -700h-110z" />
    <glyph glyph-name="Ydieresis" unicode="&#x178;" horiz-adv-x="868" 
d="M226 738q-44 0 -75.5 23.5t-38.5 61.5t16.5 61.5t67.5 23.5q47 0 77 -23t37 -62t-15 -62t-69 -23zM516 738q-44 0 -75.5 23.5t-38.5 61.5t16.5 61.5t67.5 23.5q47 0 77 -23t37 -62t-15 -62t-69 -23zM439 0l-39 226l-436 474h137l336 -368l208 368h137l-270 -472l39 -228
h-112z" />
    <glyph glyph-name="Zacute" unicode="&#x179;" horiz-adv-x="879" 
d="M320 744l-28 80l220 186l36 -102zM107 0l-10 65l520 542h-607l-17 93h769l10 -62l-515 -545h620l17 -93h-787z" />
    <glyph glyph-name="zacute" unicode="&#x17a;" horiz-adv-x="712" 
d="M290 544l-28 80l220 186l36 -102zM74 0l-7 33l385 383h-443l-15 84h644l5 -31l-381 -384h439l15 -85h-642z" />
    <glyph glyph-name="Zdotaccent" unicode="&#x17b;" horiz-adv-x="879" 
d="M346 738q-44 0 -80 23.5t-49 61.5t6 61.5t63 23.5q47 0 81 -23t48 -62t-4 -62t-65 -23zM107 0l-10 65l520 542h-607l-17 93h769l10 -62l-515 -545h620l17 -93h-787z" />
    <glyph glyph-name="zdotaccent" unicode="&#x17c;" horiz-adv-x="712" 
d="M316 538q-44 0 -80 23.5t-49 61.5t6 61.5t63 23.5q47 0 81 -23t48 -62t-4 -62t-65 -23zM74 0l-7 33l385 383h-443l-15 84h644l5 -31l-381 -384h439l15 -85h-642z" />
    <glyph glyph-name="Zcaron" unicode="&#x17d;" horiz-adv-x="879" 
d="M350 755l-321 186l-14 80l317 -164l257 164l14 -80zM107 0l-10 65l520 542h-607l-17 93h769l10 -62l-515 -545h620l17 -93h-787z" />
    <glyph glyph-name="zcaron" unicode="&#x17e;" horiz-adv-x="712" 
d="M320 555l-321 186l-14 80l317 -164l257 164l14 -80zM74 0l-7 33l385 383h-443l-15 84h644l5 -31l-381 -384h439l15 -85h-642z" />
    <glyph glyph-name="Scommaaccent" unicode="&#x218;" horiz-adv-x="864" 
d="M480 -16q-170 2 -282.5 67t-129.5 170h115q11 -65 88 -104t189 -40q141 -1 211 28t63 87q-6 43 -45.5 68t-98.5 34t-129.5 14t-141 13t-131 25t-103 56.5t-52.5 101.5q-18 105 76 160t264 52q165 -3 275 -67t131 -170h-115q-10 64 -85.5 103t-184.5 41
q-131 2 -194.5 -25.5t-54.5 -81.5q6 -37 45 -57.5t97.5 -28.5t128.5 -12.5t140.5 -15t131 -30t103.5 -64t53 -111.5q17 -105 -82.5 -160t-281.5 -53zM444 -350l15 270h103l-65 -270h-53z" />
    <glyph glyph-name="scommaaccent" unicode="&#x219;" horiz-adv-x="675" 
d="M383 -16q-132 0 -275 39l-16 87q120 -43 256 -43q108 0 151.5 15.5t36.5 54.5q-6 35 -57 50t-121 19t-140.5 12t-125 41t-65.5 94q-14 80 58 121.5t208 41.5q107 0 255 -28l14 -80q-127 26 -246 26q-98 0 -141 -17t-36 -51q6 -33 57 -48.5t121 -20.5t141 -14.5
t125.5 -43.5t65.5 -94q14 -81 -57 -121t-209 -40zM357 -341l-33 270h103l-17 -270h-53z" />
    <glyph glyph-name="uni021A" unicode="&#x21a;" horiz-adv-x="896" 
d="M452 0l-105 607h-355l-17 93h823l17 -93h-356l105 -607h-112zM451 -350l15 270h103l-65 -270h-53z" />
    <glyph glyph-name="uni021B" unicode="&#x21b;" horiz-adv-x="441" 
d="M329 -10q-49 0 -80 9t-51.5 33t-31.5 57.5t-21 90.5l-42 240h-80l-14 80h100l-21 120l87 20l25 -140h167l14 -80h-166l36 -210q6 -34 8.5 -48t9 -35t11 -28t15.5 -18t21.5 -12.5t31 -5t41.5 -3t55 2.5l9 -53q-49 -20 -124 -20zM261 -341l-33 270h103l-17 -270h-53z" />
    <glyph glyph-name="circumflex" unicode="&#x2c6;" horiz-adv-x="674" 
d="M74 555l-14 80l253 186l321 -186l14 -80l-317 164z" />
    <glyph glyph-name="caron" unicode="&#x2c7;" horiz-adv-x="674" 
d="M361 555l-321 186l-14 80l317 -164l257 164l14 -80z" />
    <glyph glyph-name="breve" unicode="&#x2d8;" horiz-adv-x="526" 
d="M276 551q-93 0 -160 41t-79 108h105q8 -40 41 -60.5t81 -20.5q49 0 74.5 20.5t21.5 60.5h103q11 -69 -38 -109t-149 -40z" />
    <glyph glyph-name="dotaccent" unicode="&#x2d9;" horiz-adv-x="298" 
d="M164 538q-44 0 -75.5 23.5t-38.5 61.5t16.5 61.5t67.5 23.5q47 0 77 -23t37 -62t-15 -62t-69 -23z" />
    <glyph glyph-name="ring" unicode="&#x2da;" horiz-adv-x="606" 
d="M321 538q-105 0 -184 29t-87 74t61 74t174 29q113 0 188 -28.5t83 -74.5t-57 -74.5t-178 -28.5zM312 589q41 0 64 13.5t18 38.5q-10 52 -100 52q-40 0 -62 -13.5t-18 -38.5t31 -38.5t67 -13.5z" />
    <glyph glyph-name="ogonek" unicode="&#x2db;" horiz-adv-x="445" 
d="M393 -214q-47 -15 -98.5 -16t-96 10.5t-79.5 35t-51.5 55t-8.5 73.5t45 87q39 47 57 23q12 -16 2 -37q-1 -3 -3 -5q-56 -60 -17 -114q37 -52 130 -61q54 -5 112 9z" />
    <glyph glyph-name="tilde" unicode="&#x2dc;" horiz-adv-x="481" 
d="M319 572q-31 0 -59 18t-50 36t-38 18q-28 0 -41.5 -18t-7.5 -53h-61q-10 58 18 94t82 36q34 0 79 -36t68 -36q29 0 43 18t7 53h60q10 -59 -18 -94.5t-82 -35.5z" />
    <glyph glyph-name="hungarumlaut" unicode="&#x2dd;" horiz-adv-x="637" 
d="M74 544l-14 80l253 186l18 -102zM324 544l-14 80l253 186l18 -102z" />
    <glyph glyph-name="gravecomb" unicode="&#x300;" 
d="M-3 544l-346 164l-36 102l354 -186z" />
    <glyph glyph-name="acutecomb" unicode="&#x301;" 
d="M-290 544l-28 80l220 186l36 -102z" />
    <glyph glyph-name="uni0302" unicode="&#x302;" 
d="M-577 555l-28 80l220 186l354 -186l28 -80l-346 164z" />
    <glyph glyph-name="tildecomb" unicode="&#x303;" 
d="M-151 572q-40 0 -91.5 36t-68.5 36q-28 0 -38 -17.5t2 -53.5h-61q-21 58 1 94t76 36q34 0 85.5 -36t74.5 -36q29 0 39 17t-2 54h60q20 -59 -1.5 -94.5t-75.5 -35.5z" />
    <glyph glyph-name="uni0304" unicode="&#x304;" 
d="M-572 646l-19 54h532l19 -54h-532z" />
    <glyph glyph-name="uni0306" unicode="&#x306;" 
d="M-237 551q-93 0 -167.5 41t-97.5 108h105q14 -40 51 -60.5t85 -20.5q49 0 70.5 20.5t11.5 60.5h103q22 -69 -19.5 -109t-141.5 -40z" />
    <glyph glyph-name="uni0307" unicode="&#x307;" 
d="M-32 538q-44 0 -80 23.5t-49 61.5t6 61.5t63 23.5q47 0 81 -23t48 -62t-4 -62t-65 -23z" />
    <glyph glyph-name="uni0308" unicode="&#x308;" 
d="M-409 538q-44 0 -80 23.5t-49 61.5t6 61.5t63 23.5q47 0 81 -23t48 -62t-4 -62t-65 -23zM-119 538q-44 0 -80 23.5t-49 61.5t6 61.5t63 23.5q47 0 81 -23t48 -62t-4 -62t-65 -23z" />
    <glyph glyph-name="uni030A" unicode="&#x30a;" 
d="M-267 538q-105 0 -189 29t-100 74t48 74t169 29q113 0 193 -28.5t96 -74.5t-44 -74.5t-173 -28.5zM-285 589q41 0 61.5 13.5t11.5 38.5q-19 52 -109 52q-40 0 -60 -13.5t-11 -38.5q18 -52 107 -52z" />
    <glyph glyph-name="uni030B" unicode="&#x30b;" 
d="M-540 544l-28 80l220 186l36 -102zM-290 544l-28 80l220 186l36 -102z" />
    <glyph glyph-name="uni030C" unicode="&#x30c;" 
d="M-290 555l-354 186l-28 80l346 -164l228 164l28 -80z" />
    <glyph glyph-name="uni0312" unicode="&#x312;" 
d="M-98 798l33 -270h-103l17 270h53z" />
    <glyph glyph-name="uni0326" unicode="&#x326;" 
d="M-190 -341l-33 270h103l-17 -270h-53z" />
    <glyph glyph-name="uni0327" unicode="&#x327;" 
d="M-418 -287l-21 55q283 1 282 49q0 3 -1 6q-19 54 -320 58l-18 53l21 101h95l-17 -104q156 -8 253 -35.5t112 -72.5q11 -31 -33 -56t-136 -39.5t-217 -14.5z" />
    <glyph glyph-name="uni0328" unicode="&#x328;" 
d="M-29 -214q-53 -18 -115.5 -16t-114.5 22t-89.5 54.5t-41.5 81.5t29 103q30 46 52 24q15 -16 10 -37q-1 -3 -3 -6q-32 -54 -8 -99t100.5 -66.5t161.5 -0.5z" />
    <glyph glyph-name="uni0335" unicode="&#x335;" 
d="M-536 289l-29 83h500l29 -83h-500z" />
    <glyph glyph-name="uni0336" unicode="&#x336;" 
d="M-1036 289l-29 83h1000l29 -83h-1000z" />
    <glyph glyph-name="uni0337" unicode="&#x337;" 
d="M-726 0l506 500h126l-506 -500h-126z" />
    <glyph glyph-name="uni0338" unicode="&#x338;" 
d="M-947 0l710 700h126l-710 -700h-126z" />
    <glyph glyph-name="uni0401" unicode="&#x401;" horiz-adv-x="810" 
d="M202 738q-44 0 -80 23.5t-49 61.5t6 61.5t63 23.5q47 0 81 -23t48 -62t-4 -62t-65 -23zM492 738q-44 0 -80 23.5t-49 61.5t6 61.5t63 23.5q47 0 81 -23t48 -62t-4 -62t-65 -23zM152 0l-122 700h638l16 -93h-525l36 -209h517l14 -85h-517l39 -220h525l17 -93h-638z" />
    <glyph glyph-name="uni0410" unicode="&#x410;" horiz-adv-x="1083" 
d="M97 0l309 700h149l552 -700h-131l-124 163h-548l-69 -163h-138zM342 256h438l-287 377z" />
    <glyph glyph-name="uni0411" unicode="&#x411;" horiz-adv-x="881" 
d="M842 214q17 -90 -36.5 -152t-159.5 -62h-493l-125 700h703l16 -93h-591l32 -180h381q105 0 180 -55t93 -158zM605 94q78 0 107.5 29t17.5 91q-11 62 -50.5 90t-118.5 28h-355l42 -238h357z" />
    <glyph glyph-name="uni0412" unicode="&#x412;" horiz-adv-x="926" 
d="M152 0l-122 700h513q106 0 174 -51t83 -134q13 -75 -31.5 -114.5t-134.5 -44.5q101 -2 167 -46t80 -124q14 -84 -39 -135t-155 -51h-535zM196 390h366q73 0 105.5 26t22.5 80q-18 111 -166 111h-366zM249 94h386q148 0 129 117q-22 110 -168 110h-388z" />
    <glyph glyph-name="uni0413" unicode="&#x413;" horiz-adv-x="744" 
d="M152 0l-122 700h643l17 -93h-532l106 -607h-112z" />
    <glyph glyph-name="uni0414" unicode="&#x414;" horiz-adv-x="927" 
d="M83 -103l-37 205q53 0 77.5 20t20.5 61l-48 518l617 -1l105 -598h123l37 -205h-112l-19 103h-670l18 -103h-112zM238 93h469l-91 514h-399l39 -415q4 -57 -18 -99z" />
    <glyph glyph-name="uni0415" unicode="&#x415;" horiz-adv-x="810" 
d="M152 0l-122 700h638l16 -93h-525l36 -209h517l14 -85h-517l39 -220h525l17 -93h-638z" />
    <glyph glyph-name="uni0416" unicode="&#x416;" horiz-adv-x="1216" 
d="M71 0l368 350l-491 350h160l441 -334l-58 334h112l58 -334l325 334h160l-369 -350l490 -350h-159l-442 334l59 -334h-112l-59 334l-324 -334h-159z" />
    <glyph glyph-name="uni0417" unicode="&#x417;" horiz-adv-x="821" 
d="M431 -16q-211 2 -333 44l-16 93q51 -20 146 -32t177 -12q166 0 238.5 24t64.5 73q-7 36 -36 58t-102 39t-185.5 26.5t-299.5 17.5l-11 72q224 8 348 24.5t168 41t37 63.5q-9 55 -83.5 81.5t-234.5 26.5q-79 0 -170 -12.5t-137 -32.5l-17 93q54 22 145.5 33.5t171.5 11.5
q71 0 124 -3.5t108.5 -15.5t92.5 -32.5t64.5 -56t36.5 -84.5q5 -31 -2.5 -56.5t-28 -42.5t-42.5 -30t-55 -20t-55 -11.5t-53.5 -5.5t-40 -1.5t-23.5 -0.5l2 -9h31q31 -1 49.5 -2t56.5 -5t64 -11t59.5 -20t55.5 -30t39.5 -44t23.5 -60q9 -47 -5 -81.5t-45 -55.5t-82 -34
t-110 -17.5t-136 -3.5z" />
    <glyph glyph-name="uni0418" unicode="&#x418;" horiz-adv-x="967" 
d="M939 0h-112l-100 562l-458 -562h-115l-125 700h112l101 -564l458 564h114z" />
    <glyph glyph-name="uni0419" unicode="&#x419;" horiz-adv-x="967" 
d="M397 751q-93 0 -160 41t-79 108h105q8 -40 41 -60.5t81 -20.5q49 0 74.5 20.5t21.5 60.5h103q11 -69 -38 -109t-149 -40zM939 0h-112l-100 562l-458 -562h-115l-125 700h112l101 -564l458 564h114z" />
    <glyph glyph-name="uni041A" unicode="&#x41a;" horiz-adv-x="766" 
d="M152 0l-122 700h112l59 -334l324 334h160l-368 -350l489 -350h-159l-441 334l58 -334h-112z" />
    <glyph glyph-name="uni041B" unicode="&#x41b;" horiz-adv-x="873" 
d="M73 -15l-7 80q49 -4 72.5 17.5t18.5 63.5l-50 554h613l124 -700h-112l-108 607h-397l43 -452q7 -85 -53 -132t-144 -38z" />
    <glyph glyph-name="uni041C" unicode="&#x41c;" horiz-adv-x="1065" 
d="M152 0l-122 700h139l396 -529l209 529h138l122 -700h-112l-95 545l-224 -545h-19l-415 541l95 -541h-112z" />
    <glyph glyph-name="uni041D" unicode="&#x41d;" horiz-adv-x="908" 
d="M152 0l-122 700h112l51 -293h501l-51 293h112l122 -700h-112l-54 314h-501l54 -314h-112z" />
    <glyph glyph-name="uni041E" unicode="&#x41e;" horiz-adv-x="976" 
d="M552 -16q-203 0 -340 100t-166 266t72.5 266t305.5 100t341 -100t166 -266t-73 -266t-306 -100zM535 77q150 0 228 74t56 199q-22 126 -125.5 199.5t-253.5 73.5q-149 0 -226.5 -73.5t-55.5 -199.5q22 -125 125 -199t252 -74z" />
    <glyph glyph-name="uni041F" unicode="&#x41f;" horiz-adv-x="825" 
d="M152 0l-122 700h643l122 -700h-112l-107 607h-418l106 -607h-112z" />
    <glyph glyph-name="uni0420" unicode="&#x420;" horiz-adv-x="881" 
d="M152 0l-122 700h493q106 0 181.5 -62t90.5 -152q18 -103 -37.5 -158t-160.5 -55h-381l48 -273h-112zM200 368h355q79 0 109 28t19 90q-11 63 -50.5 91.5t-117.5 28.5h-357z" />
    <glyph glyph-name="uni0421" unicode="&#x421;" horiz-adv-x="935" 
d="M532 -16q-190 0 -323.5 100.5t-162.5 265.5t69.5 265.5t288.5 100.5t321.5 -88t156.5 -233h-114q-23 106 -117.5 167t-230.5 61q-141 0 -212.5 -73.5t-49.5 -199.5q22 -125 119.5 -199t237.5 -74q137 0 210.5 61.5t58.5 166.5h114q25 -145 -75.5 -233t-290.5 -88z" />
    <glyph glyph-name="uni0422" unicode="&#x422;" horiz-adv-x="896" 
d="M452 0l-105 607h-355l-17 93h823l17 -93h-356l105 -607h-112z" />
    <glyph glyph-name="uni0423" unicode="&#x423;" horiz-adv-x="755" 
d="M290 -1l80 195l-406 505h120l311 -412l164 412h110l-269 -700h-110z" />
    <glyph glyph-name="uni0424" unicode="&#x424;" horiz-adv-x="711" 
d="M665 355q19 -106 -36.5 -176.5t-167.5 -85.5l16 -93h-122l-16 93q-116 16 -195 86t-98 176t35.5 176t165.5 86l-14 83h122l14 -83q118 -16 197.5 -86t98.5 -176zM446 178q66 15 98 62.5t19 114.5q-13 68 -60.5 115t-118.5 62zM148 355q12 -67 59.5 -114t116.5 -62
l-62 352q-64 -16 -95 -63t-19 -113z" />
    <glyph glyph-name="uni0425" unicode="&#x425;" horiz-adv-x="928" 
d="M120 0l271 351l-394 349h139l317 -283l217 283h138l-275 -355l387 -345h-136l-313 280l-216 -280h-135z" />
    <glyph glyph-name="uni0426" unicode="&#x426;" horiz-adv-x="816" 
d="M766 -103l-19 103h-605l-123 700h112l107 -607h371l-107 607h112l107 -607h121l36 -196h-112z" />
    <glyph glyph-name="uni0427" unicode="&#x427;" horiz-adv-x="686" 
d="M552 700l122 -700h-126l-51 406h-6q1 -96 -49.5 -159t-153.5 -63q-108 2 -174 75t-93 224l-37 217h112l34 -200q22 -121 67 -176.5t123 -55.5q91 0 129 82.5t13 226.5v-2l-22 125h112z" />
    <glyph glyph-name="uni0428" unicode="&#x428;" horiz-adv-x="1123" 
d="M151 0l-122 700h112l107 -607h303l-106 607h112l106 -607h304l-107 607h112l122 -700h-943z" />
    <glyph glyph-name="uni0429" unicode="&#x429;" horiz-adv-x="1164" 
d="M1114 -103l-19 103h-953l-123 700h112l107 -607h303l-106 607h112l106 -607h304l-107 607h112l107 -607h121l36 -196h-112z" />
    <glyph glyph-name="uni042A" unicode="&#x42a;" horiz-adv-x="881" 
d="M842 214q17 -90 -36.5 -152t-159.5 -62h-493l-107 598h-67l-18 102h179l48 -273h381q105 0 180 -55t93 -158zM605 94q78 0 107.5 29t17.5 91q-11 62 -50.5 90t-118.5 28h-355l42 -238h357z" />
    <glyph glyph-name="uni042B" unicode="&#x42b;" horiz-adv-x="1165" 
d="M28 700h112l48 -273h381q105 0 180 -55t93 -158q17 -90 -36.5 -152t-159.5 -62h-493zM1024 0l-122 700h112l122 -700h-112zM206 332l42 -238h357q78 0 107.5 29t17.5 91q-11 62 -50.5 90t-118.5 28h-355z" />
    <glyph glyph-name="uni042C" unicode="&#x42c;" horiz-adv-x="881" 
d="M28 700h112l48 -273h381q105 0 180 -55t93 -158q17 -90 -36.5 -152t-159.5 -62h-493zM206 332l42 -238h357q78 0 107.5 29t17.5 91q-11 62 -50.5 90t-118.5 28h-355z" />
    <glyph glyph-name="uni042D" unicode="&#x42d;" horiz-adv-x="935" 
d="M890 350q29 -165 -69 -265.5t-288 -100.5t-322 88t-158 233h114q22 -105 117.5 -166.5t232.5 -61.5q126 0 197 60t69 165h-394l-16 94h394q-34 106 -127.5 166.5t-220.5 60.5q-136 0 -208.5 -61t-58.5 -167h-114q-25 145 75 233t290 88t324 -100.5t163 -265.5z" />
    <glyph glyph-name="uni042E" unicode="&#x42e;" horiz-adv-x="1342" 
d="M1296 350q29 -166 -73 -266t-306 -100q-188 0 -320 86t-175 232h-212l53 -302h-112l-122 700h112l53 -304h211q-9 147 93.5 233.5t290.5 86.5q204 0 341 -100t166 -266zM900 77q150 0 228 74t56 199q-22 126 -125.5 199.5t-253.5 73.5q-149 0 -226.5 -73.5t-55.5 -199.5
q22 -125 125 -199t252 -74z" />
    <glyph glyph-name="uni042F" unicode="&#x42f;" horiz-adv-x="941" 
d="M913 0h-112l-55 305h-288q-88 0 -126 -50.5t-104 -223.5q-8 -20 -12 -31h-122q23 64 39 104t36.5 82t40 65.5t45.5 44.5t57 30.5t71 12.5h-74q-103 0 -171.5 46.5t-84.5 129.5q-14 83 36 134t156 51h543zM730 401l-36 205h-398q-77 0 -107 -26t-21 -83q19 -96 165 -96
h397z" />
    <glyph glyph-name="uni0430" unicode="&#x430;" horiz-adv-x="672" 
d="M279 -16q-186 0 -210 132q-5 30 7 55t34 42t57.5 30.5t69.5 21t77.5 13.5t74.5 8.5t68 5.5t50 4q-15 78 -58.5 108t-135.5 30q-104 0 -226 -57l-16 85q138 54 266 54q242 0 285 -234l49 -282h-113l-2 179h-7q-4 -99 -76.5 -147t-193.5 -48zM358 71q77 13 122.5 51
t35.5 105q-17 -1 -54.5 -3.5t-64.5 -5t-63.5 -6.5t-61.5 -10.5t-47.5 -16t-32.5 -24t-7 -32.5q7 -38 54 -54t119 -4z" />
    <glyph glyph-name="uni0431" unicode="&#x431;" horiz-adv-x="867" 
d="M522 -12q-190 0 -316.5 94t-159.5 280q-30 170 73.5 261.5t303.5 91.5q33 0 84 -2.5t78 -3t60 6t57 22.5l18 -106q-39 -14 -83 -16.5t-112.5 2t-103.5 4.5q-140 0 -214.5 -77.5t-43.5 -209.5q52 51 136.5 88t186.5 37q162 0 254 -68t108 -180q15 -103 -71 -163.5
t-255 -60.5zM496 81q135 0 192.5 33.5t44.5 111.5q-26 145 -257 145q-84 0 -169 -36t-114 -94q38 -85 111 -122.5t192 -37.5z" />
    <glyph glyph-name="uni0432" unicode="&#x432;" horiz-adv-x="804" 
d="M134 0l-88 500h425q119 0 177.5 -32t70.5 -103q10 -53 -29 -79t-135 -30q109 -2 163.5 -30.5t64.5 -89.5q13 -71 -35 -103.5t-167 -32.5h-447zM194 295h288q73 0 104 11.5t26 37.5q-6 29 -40.5 41.5t-107.5 12.5h-289zM229 103h309q72 0 102 14t25 45q-8 54 -147 54h-310
z" />
    <glyph glyph-name="uni0433" unicode="&#x433;" horiz-adv-x="570" 
d="M134 0l-88 500h473l17 -93h-361l71 -407h-112z" />
    <glyph glyph-name="uni0434" unicode="&#x434;" horiz-adv-x="817" 
d="M68 -103l-36 205q53 0 77 20t20 61l-32 352h522l76 -433h121l36 -205h-112l-18 103h-560l18 -103h-112zM226 93h360l-63 349h-306l25 -259q6 -49 -16 -90z" />
    <glyph glyph-name="uni0435" unicode="&#x435;" horiz-adv-x="693" 
d="M394 -16q-136 0 -231.5 73t-116.5 193t48.5 193t205.5 73q134 0 227.5 -62.5t113.5 -164.5l14 -82h-497q25 -75 88.5 -107t181.5 -32q35 0 63 2.5t54 10.5t36 11.5t37.5 16.5t29.5 14l17 -90q-74 -30 -128 -39.5t-143 -9.5zM145 276l392 8q-17 82 -68 115.5t-154 33.5
q-101 0 -140.5 -35.5t-29.5 -121.5z" />
    <glyph glyph-name="uni0436" unicode="&#x436;" horiz-adv-x="1156" 
d="M54 0l353 251l-431 249h174l367 -221l-39 221h112l39 -221l289 221h174l-343 -249l441 -251h-184l-367 221l39 -221h-112l-39 221l-289 -221h-184z" />
    <glyph glyph-name="uni0437" unicode="&#x437;" horiz-adv-x="818" 
d="M412 -15q-209 2 -333 44l-16 93q51 -20 145.5 -32t176.5 -12q98 0 160.5 2.5t97.5 8t48 13.5t11 20q-7 40 -124.5 56.5t-491.5 33.5l-15 80q124 5 204 8.5t149.5 8t107 10t64.5 13t35.5 16t6.5 21.5q-6 30 -70 41.5t-242 11.5q-79 0 -170.5 -12.5t-137.5 -32.5l-17 93
q54 22 145.5 33.5t172.5 11.5q86 0 153 -5.5t126.5 -19.5t94 -40t41.5 -64q4 -24 -4.5 -43.5t-30 -32.5t-43.5 -22.5t-56 -15t-55.5 -9t-54.5 -4.5t-40 -1h-24l2 -9h37t59 -1.5t66.5 -5t72.5 -12t62 -21t50 -33.5t24 -48q27 -146 -387 -143z" />
    <glyph glyph-name="uni0438" unicode="&#x438;" horiz-adv-x="838" 
d="M134 0l-88 500h112l67 -384l365 384h114l88 -500h-112l-68 383l-363 -383h-115z" />
    <glyph glyph-name="uni0439" unicode="&#x439;" horiz-adv-x="838" 
d="M343 551q-93 0 -158 41t-73 108h105q6 -40 37.5 -60.5t79.5 -20.5q104 0 101 81h103q7 -69 -44 -109t-151 -40zM134 0l-88 500h112l68 -384l364 384h114l88 -500h-112l-67 384l-364 -384h-115z" />
    <glyph glyph-name="uni043A" unicode="&#x43a;" horiz-adv-x="728" 
d="M135 0l-88 500h112l39 -221l289 221h174l-343 -249l441 -251h-184l-367 221l39 -221h-112z" />
    <glyph glyph-name="uni043B" unicode="&#x43b;" horiz-adv-x="681" 
d="M62 -12l-17 80q100 0 91 81l-31 351h520l88 -500h-112l-72 407h-304l24 -249q7 -86 -48.5 -132.5t-138.5 -37.5z" />
    <glyph glyph-name="uni043C" unicode="&#x43c;" horiz-adv-x="952" 
d="M134 0l-88 500h136l311 -344l189 344h136l88 -500h-112l-60 343l-203 -343h-22l-324 351l61 -351h-112z" />
    <glyph glyph-name="uni043D" unicode="&#x43d;" horiz-adv-x="855" 
d="M134 0l-88 500h112l34 -192h451l-34 192h112l88 -500h-112l-38 214h-451l38 -214h-112z" />
    <glyph glyph-name="uni043E" unicode="&#x43e;" horiz-adv-x="711" 
d="M402 -16q-140 0 -237.5 73t-118.5 193t51 193t211 73q140 0 238 -73t119 -193t-51 -193t-212 -73zM387 67q93 0 142 50.5t34 132.5t-80.5 132.5t-158.5 50.5t-142 -50.5t-34 -132.5t80.5 -132.5t158.5 -50.5z" />
    <glyph glyph-name="uni043F" unicode="&#x43f;" horiz-adv-x="798" 
d="M135 0l-88 500h615l88 -500h-112l-71 408h-391l71 -408h-112z" />
    <glyph glyph-name="uni0440" unicode="&#x440;" horiz-adv-x="769" 
d="M135 -200l-123 700h116l7 -163h11q2 89 75 134t177 45q107 0 197.5 -76t111.5 -194q20 -115 -44.5 -188.5t-172.5 -73.5q-100 0 -184.5 45t-118.5 133h-4v-1l64 -361h-112zM429 67q89 0 134 50.5t31 130.5q-15 83 -77.5 134t-151.5 51q-82 0 -130.5 -52t-34.5 -133
q12 -78 79.5 -129.5t149.5 -51.5z" />
    <glyph glyph-name="uni0441" unicode="&#x441;" horiz-adv-x="632" 
d="M406 -16q-137 0 -238 73.5t-122 192.5q-22 121 51.5 193.5t215.5 72.5q64 0 115.5 -12.5t119.5 -41.5l18 -91q-124 62 -211 62q-118 0 -165.5 -41t-30.5 -142q17 -100 79.5 -141.5t182.5 -41.5q104 0 188 58l15 -87q-65 -31 -107 -42.5t-111 -11.5z" />
    <glyph glyph-name="uni0442" unicode="&#x442;" horiz-adv-x="736" 
d="M356 0l-71 407h-276l-17 93h663l17 -93h-275l71 -407h-112z" />
    <glyph glyph-name="uni0443" unicode="&#x443;" horiz-adv-x="755" 
d="M290 -200l80 195l-406 505h120l311 -412l164 412h110l-269 -700h-110z" />
    <glyph glyph-name="uni0444" unicode="&#x444;" horiz-adv-x="711" 
d="M665 250q19 -106 -36 -176t-167 -86l15 -84h-122l-15 84q-117 16 -196 86t-98 176t36 176.5t167 85.5l-16 92h122l16 -92q117 -16 196 -86.5t98 -175.5zM447 74q65 15 96.5 62t19.5 114q-13 67 -60 114t-117 62zM148 250q13 -67 60 -114t117 -63l-61 353q-65 -15 -97 -62
t-19 -114z" />
    <glyph glyph-name="uni0445" unicode="&#x445;" horiz-adv-x="767" 
d="M70 0l235 251l-323 249h148l242 -188l177 188h148l-239 -253l318 -247h-147l-238 184l-174 -184h-147z" />
    <glyph glyph-name="uni0446" unicode="&#x446;" horiz-adv-x="773" 
d="M704 -103l-18 103h-561l-88 500h112l72 -407h328l-71 407h112l71 -407h121l34 -196h-112z" />
    <glyph glyph-name="uni0447" unicode="&#x447;" horiz-adv-x="686" 
d="M532 0l-38 302h-2q0 -96 -50 -159t-153 -63q-108 2 -174 75.5t-93 223.5l-20 121h112l17 -104q22 -120 67 -175.5t123 -55.5q91 0 129 82t13 226l-1 -1l-4 28h112l88 -500h-126z" />
    <glyph glyph-name="uni0448" unicode="&#x448;" horiz-adv-x="1106" 
d="M134 0l-88 500h112l72 -407h294l-71 407h112l71 -407h295l-71 407h112l88 -500h-926z" />
    <glyph glyph-name="uni0449" unicode="&#x449;" horiz-adv-x="1146" 
d="M1077 -103l-18 103h-934l-88 500h112l72 -407h294l-71 407h112l71 -407h295l-71 407h112l71 -407h121l34 -196h-112z" />
    <glyph glyph-name="uni044A" unicode="&#x44a;" horiz-adv-x="840" 
d="M152 0l-106 607h-120l-17 93h233l47 -273h342q105 0 179.5 -55t92.5 -158q15 -91 -38.5 -152.5t-159.5 -61.5h-453zM248 95h315q78 0 108.5 28t19.5 91t-50.5 91t-117.5 28h-317z" />
    <glyph glyph-name="uni044B" unicode="&#x44b;" horiz-adv-x="1124" 
d="M151 0l-122 700h112l47 -273h342q105 0 179.5 -55t92.5 -158q15 -91 -38.5 -152.5t-159.5 -61.5h-453zM983 0l-122 700h112l122 -700h-112zM246 95h316q78 0 108 28t20 91q-11 63 -51 91t-118 28h-316z" />
    <glyph glyph-name="uni044C" unicode="&#x44c;" horiz-adv-x="840" 
d="M152 0l-122 700h112l47 -273h342q105 0 179.5 -55t92.5 -158q15 -91 -38.5 -152.5t-159.5 -61.5h-453zM248 95h315q78 0 108.5 28t19.5 91t-50.5 91t-117.5 28h-317z" />
    <glyph glyph-name="uni044D" unicode="&#x44d;" horiz-adv-x="632" 
d="M586 250q21 -119 -54 -192.5t-212 -73.5q-69 0 -115.5 11.5t-121.5 42.5l-16 87q105 -58 208 -58q104 0 153.5 30.5t49.5 101.5h-297l-18 102h296q-26 71 -85.5 101.5t-161.5 30.5q-86 0 -189 -62l-14 91q58 29 105 41.5t111 12.5q142 0 241 -72.5t120 -193.5z" />
    <glyph glyph-name="uni044E" unicode="&#x44e;" horiz-adv-x="1021" 
d="M925 250q21 -120 -51 -193t-212 -73q-125 0 -217.5 59.5t-126.5 159.5h-103l36 -203h-112l-88 500h112l36 -203h103q-2 100 69.5 159.5t196.5 59.5q140 0 238 -73t119 -193zM647 67q93 0 142 50.5t34 132.5t-80.5 132.5t-158.5 50.5t-142 -50.5t-34 -132.5t80.5 -132.5
t158.5 -50.5z" />
    <glyph glyph-name="uni044F" unicode="&#x44f;" horiz-adv-x="811" 
d="M73 0q69 113 128.5 153.5t169.5 45.5h-58q-118 0 -177 34.5t-73 110.5q-13 70 34 102t166 32h415l86 -478h-112l-28 162h-152q-48 0 -73.5 -2.5t-53 -10t-48.5 -26.5t-44 -47t-55 -76h-125zM326 263h280l-20 115h-280q-72 0 -102.5 -13t-25.5 -40q12 -62 148 -62z" />
    <glyph glyph-name="uni0451" unicode="&#x451;" horiz-adv-x="693" 
d="M149 538q-44 0 -80 23.5t-49 61.5t6 61.5t63 23.5q47 0 81 -23t48 -62t-4 -62t-65 -23zM439 538q-44 0 -80 23.5t-49 61.5t6 61.5t63 23.5q47 0 81 -23t48 -62t-4 -62t-65 -23zM394 -16q-136 0 -231.5 73t-116.5 193t48.5 193t205.5 73q134 0 227.5 -62.5t113.5 -164.5
l14 -82h-497q25 -75 88.5 -107t181.5 -32q35 0 63 2.5t54 10.5t36 11.5t37.5 16.5t29.5 14l17 -90q-74 -30 -128 -39.5t-143 -9.5zM145 276l392 8q-17 82 -68 115.5t-154 33.5q-101 0 -140.5 -35.5t-29.5 -121.5z" />
    <glyph glyph-name="Wgrave" unicode="&#x1e80;" horiz-adv-x="1259" 
d="M570 744l-317 164l-18 102l321 -186zM379 0l-381 700h116l308 -567l99 567h94l300 -567l107 567h117l-137 -700h-118l-292 564l-95 -564h-118z" />
    <glyph glyph-name="wgrave" unicode="&#x1e81;" horiz-adv-x="1054" 
d="M476 544l-317 164l-18 102l321 -186zM283 0l-302 500h108l260 -432l97 432h64l260 -433l107 433h108l-126 -500h-166l-180 306l-64 -306h-166z" />
    <glyph glyph-name="Wacute" unicode="&#x1e82;" horiz-adv-x="1259" 
d="M540 744l-14 80l253 186l18 -102zM379 0l-381 700h116l308 -567l99 567h94l300 -567l107 567h117l-137 -700h-118l-292 564l-95 -564h-118z" />
    <glyph glyph-name="wacute" unicode="&#x1e83;" horiz-adv-x="1054" 
d="M446 544l-14 80l253 186l18 -102zM283 0l-302 500h108l260 -432l97 432h64l260 -433l107 433h108l-126 -500h-166l-180 306l-64 -306h-166z" />
    <glyph glyph-name="Wdieresis" unicode="&#x1e84;" horiz-adv-x="1259" 
d="M424 738q-44 0 -75.5 23.5t-38.5 61.5t16.5 61.5t67.5 23.5q47 0 77 -23t37 -62t-15 -62t-69 -23zM714 738q-44 0 -75.5 23.5t-38.5 61.5t16.5 61.5t67.5 23.5q47 0 77 -23t37 -62t-15 -62t-69 -23zM379 0l-381 700h116l308 -567l99 567h94l300 -567l107 567h117
l-137 -700h-118l-292 564l-95 -564h-118z" />
    <glyph glyph-name="wdieresis" unicode="&#x1e85;" horiz-adv-x="1054" 
d="M329 538q-44 0 -75.5 23.5t-38.5 61.5t16.5 61.5t67.5 23.5q47 0 77 -23t37 -62t-15 -62t-69 -23zM619 538q-44 0 -75.5 23.5t-38.5 61.5t16.5 61.5t67.5 23.5q47 0 77 -23t37 -62t-15 -62t-69 -23zM283 0l-302 500h108l260 -432l97 432h64l260 -433l107 433h108
l-126 -500h-166l-180 306l-64 -306h-166z" />
    <glyph glyph-name="Ygrave" unicode="&#x1ef2;" horiz-adv-x="868" 
d="M372 744l-317 164l-18 102l321 -186zM439 0l-39 226l-436 474h137l336 -368l208 368h137l-270 -472l39 -228h-112z" />
    <glyph glyph-name="ygrave" unicode="&#x1ef3;" horiz-adv-x="755" 
d="M329 544l-317 164l-18 102l321 -186zM290 -200l80 195l-406 505h120l311 -412l164 412h110l-269 -700h-110z" />
    <glyph glyph-name="endash" unicode="&#x2013;" horiz-adv-x="560" 
d="M37 289l-14 83h500l14 -83h-500z" />
    <glyph glyph-name="emdash" unicode="&#x2014;" horiz-adv-x="1060" 
d="M37 289l-14 83h1000l14 -83h-1000z" />
    <glyph glyph-name="quoteleft" unicode="&#x2018;" horiz-adv-x="293" 
d="M239 700l-15 -270h-103l65 270h53z" />
    <glyph glyph-name="quoteright" unicode="&#x2019;" horiz-adv-x="293" 
d="M54 430l15 270h103l-65 -270h-53z" />
    <glyph glyph-name="quotesinglbase" unicode="&#x201a;" horiz-adv-x="293" 
d="M54 -169l15 270h103l-65 -270h-53z" />
    <glyph glyph-name="quotedblleft" unicode="&#x201c;" horiz-adv-x="515" 
d="M239 700l-15 -270h-103l65 270h53zM461 700l-15 -270h-103l65 270h53z" />
    <glyph glyph-name="quotedblright" unicode="&#x201d;" horiz-adv-x="515" 
d="M54 430l15 270h103l-65 -270h-53zM276 430l15 270h103l-65 -270h-53z" />
    <glyph glyph-name="quotedblbase" unicode="&#x201e;" horiz-adv-x="293" 
d="M69 101h103l-65 -270h-53z" />
    <glyph glyph-name="dagger" unicode="&#x2020;" horiz-adv-x="580" 
d="M313 -170l-104 586h-204l-15 83h204l-39 221h112l39 -221h204l15 -83h-204l104 -586h-112z" />
    <glyph glyph-name="daggerdbl" unicode="&#x2021;" horiz-adv-x="600" 
d="M313 -170l-30 170h-204l-15 83h204l-59 333h-204l-15 83h204l-39 221h112l39 -221h204l15 -83h-204l59 -333h204l15 -83h-204l30 -170h-112z" />
    <glyph glyph-name="bullet" unicode="&#x2022;" horiz-adv-x="529" 
d="M293 54q-68 0 -131 49.5t-73 115.5q-11 67 32.5 115.5t111.5 48.5q72 0 134.5 -48.5t74.5 -115.5q10 -67 -33.5 -116t-115.5 -49z" />
    <glyph glyph-name="ellipsis" unicode="&#x2026;" horiz-adv-x="905" 
d="M145 -18q-26 0 -54 19t-37 44q-10 26 3.5 44.5t39.5 18.5q27 0 54.5 -18.5t37.5 -44.5q9 -26 -3.5 -44.5t-40.5 -18.5zM445 -18q-26 0 -54 19t-37 44q-10 26 3.5 44.5t39.5 18.5q27 0 54.5 -18.5t37.5 -44.5q9 -26 -3.5 -44.5t-40.5 -18.5zM745 -18q-26 0 -54 19t-37 44
q-10 26 3.5 44.5t39.5 18.5q27 0 54.5 -18.5t37.5 -44.5q9 -26 -3.5 -44.5t-40.5 -18.5z" />
    <glyph glyph-name="perthousand" unicode="&#x2030;" horiz-adv-x="1519" 
d="M239 460q-87 0 -154 35t-76 90q-10 55 45.5 90t141.5 35q93 0 157 -34.5t74 -90.5q9 -56 -43 -90.5t-145 -34.5zM171 0l587 700h119l-587 -700h-119zM233 500q55 0 84 23.5t21 61.5q-8 39 -45 62.5t-90 23.5q-54 0 -83 -24t-21 -62q7 -38 43.5 -61.5t90.5 -23.5zM844 -11
q-86 0 -153.5 35t-77.5 90q-9 55 46.5 90t141.5 35q93 0 157 -34.5t73 -90.5q10 -56 -42 -90.5t-145 -34.5zM1323 -11q-86 0 -153.5 35t-77.5 90q-9 55 46.5 90t141.5 35q93 0 157 -34.5t73 -90.5q10 -56 -42 -90.5t-145 -34.5zM838 28q55 0 84 24t20 62q-8 38 -44.5 61.5
t-89.5 23.5q-54 0 -83 -23.5t-22 -61.5q8 -39 44.5 -62.5t90.5 -23.5zM1317 28q55 0 83.5 24t20.5 62t-44.5 61.5t-89.5 23.5q-54 0 -83 -23.5t-22 -61.5q8 -39 44.5 -62.5t90.5 -23.5z" />
    <glyph glyph-name="guilsinglleft" unicode="&#x2039;" horiz-adv-x="416" 
d="M280 0l-250 250l162 250h150l-170 -250l258 -250h-150z" />
    <glyph glyph-name="guilsinglright" unicode="&#x203a;" horiz-adv-x="416" 
d="M74 0l170 250l-258 250h150l250 -250l-162 -250h-150z" />
    <glyph glyph-name="fraction" unicode="&#x2044;" horiz-adv-x="1038" 
d="M40 -100l832 900h126l-832 -900h-126z" />
    <glyph glyph-name="Euro" unicode="&#x20ac;" horiz-adv-x="1017" 
d="M976 305q25 -145 -75.5 -233t-290.5 -88q-151 0 -269 65.5t-177 179.5h-135l-18 102h117q-2 5 -4 19l-3 22h-116l-19 102h136q20 113 115 177.5t245 64.5q190 0 321.5 -88t156.5 -233h-114q-23 106 -117.5 167t-230.5 61q-101 0 -168 -39t-89 -110h376l18 -102h-402
l3 -22q2 -14 4 -19h401l18 -102h-376q47 -72 127.5 -112t182.5 -40q137 0 210.5 61.5t58.5 166.5h114z" />
    <glyph glyph-name="trademark" unicode="&#x2122;" horiz-adv-x="1308" 
d="M356 222l-72 415h-242l-12 63h562l12 -63h-244l72 -415h-76zM719 222l-84 478h95l271 -361l143 361h94l83 -478h-76l-65 372l-153 -372h-13l-284 370l65 -370h-76z" />
    <glyph glyph-name="oneeighth" unicode="&#x215b;" horiz-adv-x="1704" 
d="M420 -22l688 744h104l-688 -744h-104zM337 161l-70 398l-198 -148l-14 76l240 152h35l83 -478h-76zM1425 47q-118 0 -194.5 34t-89.5 105q-5 29 5 50t32.5 33t44.5 18t49 9q-56 10 -102.5 38.5t-56.5 82.5q-11 63 49 97t176 34q108 0 182.5 -33.5t85.5 -97.5
q5 -29 -4 -51.5t-28 -36t-39 -21.5t-44 -12q153 -17 170 -110q11 -66 -54.5 -103.5t-181.5 -35.5zM1376 329q88 0 125 17t30 58q-6 35 -56 57.5t-126 22.5q-77 0 -119.5 -22.5t-36.5 -57.5q7 -40 51.5 -57.5t131.5 -17.5zM1414 112q83 0 129 20.5t39 57.5q-12 75 -195 75
q-94 0 -135.5 -18.5t-34.5 -56.5q7 -37 60.5 -57.5t136.5 -20.5z" />
    <glyph glyph-name="threeeighths" unicode="&#x215c;" horiz-adv-x="1711" 
d="M416 -22l688 744h104l-688 -744h-104zM314 150q-144 2 -227 30l-11 64q75 -30 221 -30q113 0 162.5 16t44.5 50q-6 32 -44.5 50t-125.5 28.5t-256 17.5l-7 49q153 5 237.5 16.5t114.5 28t25 43.5q-6 38 -57 56t-160 18q-55 0 -117 -8.5t-93 -22.5l-11 64q78 31 216 31
q61 0 105 -4.5t86.5 -18t67.5 -40.5t32 -68q4 -24 -4.5 -43.5t-23 -31t-38.5 -20t-42 -12.5t-44 -6t-33.5 -2h-19.5l2 -6l25 -1q25 0 41 -1.5t45 -5.5t50 -12t43.5 -20t36 -32t18.5 -46q7 -39 -8.5 -66t-52.5 -41t-84 -19t-114 -5zM1432 44q-118 0 -194.5 34t-89.5 105
q-5 29 5 50t32.5 33t44.5 18t49 9q-56 10 -102.5 38.5t-56.5 82.5q-11 63 49 97t176 34q108 0 182.5 -33.5t85.5 -97.5q5 -29 -4 -51.5t-28 -36t-39 -21.5t-44 -12q153 -17 170 -110q11 -66 -54.5 -103.5t-181.5 -35.5zM1383 326q88 0 125 17t30 58q-6 35 -56 57.5
t-126 22.5q-77 0 -119.5 -22.5t-36.5 -57.5q7 -40 51.5 -57.5t131.5 -17.5zM1421 109q83 0 129 20.5t39 57.5q-12 75 -195 75q-94 0 -135.5 -18.5t-34.5 -56.5q7 -37 60.5 -57.5t136.5 -20.5z" />
    <glyph glyph-name="fiveeighths" unicode="&#x215d;" horiz-adv-x="1751" 
d="M460 -22l688 744h104l-688 -744h-104zM308 147q-52 0 -120.5 8t-101.5 20l-11 70q29 -13 99.5 -23.5t120.5 -10.5q111 0 155.5 25.5t33.5 83.5q-7 45 -50 63.5t-123 18.5q-116 0 -229 -53l-50 287h447l12 -63h-388l24 -136q82 31 193 31q215 0 242 -156
q14 -78 -55.5 -121.5t-198.5 -43.5zM1472 44q-118 0 -194.5 34t-89.5 105q-5 29 5 50t32.5 33t44.5 18t49 9q-56 10 -102.5 38.5t-56.5 82.5q-11 63 49 97t176 34q108 0 182.5 -33.5t85.5 -97.5q5 -29 -4 -51.5t-28 -36t-39 -21.5t-44 -12q153 -17 170 -110
q11 -66 -54.5 -103.5t-181.5 -35.5zM1423 326q88 0 125 17t30 58q-6 35 -56 57.5t-126 22.5q-77 0 -119.5 -22.5t-36.5 -57.5q7 -40 51.5 -57.5t131.5 -17.5zM1461 109q83 0 129 20.5t39 57.5q-12 75 -195 75q-94 0 -135.5 -18.5t-34.5 -56.5q7 -37 60.5 -57.5t136.5 -20.5z
" />
    <glyph glyph-name="seveneighths" unicode="&#x215e;" horiz-adv-x="1618" 
d="M314 -22l688 744h104l-688 -744h-104zM184 158l252 415h-436l-11 63h530l5 -30l-247 -448h-93zM1339 44q-118 0 -194.5 34t-89.5 105q-5 29 5 50t32.5 33t44.5 18t49 9q-56 10 -102.5 38.5t-56.5 82.5q-11 63 49 97t176 34q108 0 182.5 -33.5t85.5 -97.5q5 -29 -4 -51.5
t-28 -36t-39 -21.5t-44 -12q153 -17 170 -110q11 -66 -54.5 -103.5t-181.5 -35.5zM1290 326q88 0 125 17t30 58q-6 35 -56 57.5t-126 22.5q-77 0 -119.5 -22.5t-36.5 -57.5q7 -40 51.5 -57.5t131.5 -17.5zM1328 109q83 0 129 20.5t39 57.5q-12 75 -195 75
q-94 0 -135.5 -18.5t-34.5 -56.5q7 -37 60.5 -57.5t136.5 -20.5z" />
    <glyph glyph-name="arrowleft" unicode="&#x2190;" horiz-adv-x="830" 
d="M796 278h-600l168 -198l-132 1l-206 250l206 250h132l-169 -198h601v-105z" />
    <glyph glyph-name="arrowup" unicode="&#x2191;" horiz-adv-x="561" 
d="M228 -58v600l-198 -168l1 132l250 206l250 -206v-132l-198 169v-601h-105z" />
    <glyph glyph-name="arrowright" unicode="&#x2192;" horiz-adv-x="830" 
d="M35 383h600l-168 198l132 -1l206 -250l-206 -250h-132l169 198h-601v105z" />
    <glyph glyph-name="arrowdown" unicode="&#x2193;" horiz-adv-x="561" 
d="M333 699v-600l198 168l-1 -132l-250 -206l-250 206v132l198 -169v601h105z" />
    <glyph glyph-name="partialdiff" unicode="&#x2202;" horiz-adv-x="836" 
d="M463 -12q-169 0 -276 60.5t-129 163.5q-23 112 45.5 180t230.5 68q103 0 193 -44t153 -103q-19 174 -121.5 273.5t-278.5 114.5l-4 54q195 0 337 -109.5t172 -283.5q33 -188 -51 -281t-271 -93zM459 70q110 0 163.5 38t60.5 122q-49 73 -138.5 124t-176.5 51
q-104 0 -159.5 -46t-42.5 -122q14 -75 94.5 -121t198.5 -46z" />
    <glyph glyph-name="emptyset" unicode="&#x2205;" horiz-adv-x="702" 
d="M608 383q45 -58 58 -133q21 -120 -51 -193t-212 -73q-120 0 -211 55l-153 -126l-74 80l144 119q-49 61 -62 138q-21 120 51 193t211 73q125 0 218 -59l135 112l79 -76zM149 250q7 -43 31 -79l277 229q-58 33 -132 33q-93 0 -142 -50.5t-34 -132.5zM388 67q93 0 142 50.5
t34 132.5q-8 42 -28 74l-274 -227q57 -30 126 -30z" />
    <glyph glyph-name="product" unicode="&#x220f;" horiz-adv-x="790" 
d="M185 -170l-138 787h-80l-13 83h730l13 -83h-78l138 -787h-112l-138 787h-348l138 -787h-112z" />
    <glyph glyph-name="summation" unicode="&#x2211;" horiz-adv-x="790" 
d="M91 0l-13 83l253 257l-349 277l-13 83h730l13 -83h-548l349 -277l-253 -257h548l13 -83h-730z" />
    <glyph glyph-name="minus" unicode="&#x2212;" horiz-adv-x="580" 
d="M37 289l-14 83h520l14 -83h-520z" />
    <glyph glyph-name="radical" unicode="&#x221a;" horiz-adv-x="1109" 
d="M330 0l-351 501h129l342 -486l240 685h328l13 -83h-241l-218 -617h-242z" />
    <glyph glyph-name="infinity" unicode="&#x221e;" horiz-adv-x="988" 
d="M319 77q-109 0 -191 68t-98 160q-16 95 43 165.5t166 70.5q95 0 157.5 -44.5t85.5 -122.5q-5 79 43.5 123t141.5 44q107 0 191 -71t100 -165q16 -92 -41 -160t-166 -68q-97 0 -159.5 41t-84.5 116q4 -75 -43.5 -116t-144.5 -41zM314 178q60 7 86.5 42t16.5 86
q-8 55 -51.5 89.5t-108.5 34.5q-59 0 -89.5 -35.5t-21.5 -88.5q10 -57 58 -94.5t110 -33.5zM719 178q65 -4 99.5 33.5t23.5 94.5q-8 53 -52 88.5t-103 35.5q-65 0 -95 -34t-21 -90q9 -52 47.5 -86.5t100.5 -41.5z" />
    <glyph glyph-name="integral" unicode="&#x222b;" horiz-adv-x="667" 
d="M87 -140l2 58q61 0 100 24t41 60l34 587q3 33 15 56t44 44t96 31.5t161 10.5l-2 -58q-61 0 -99.5 -24t-40.5 -60l-34 -587q-2 -26 -9.5 -45t-28 -38.5t-54 -31.5t-90.5 -19.5t-135 -7.5z" />
    <glyph glyph-name="approxequal" unicode="&#x2248;" horiz-adv-x="441" 
d="M284 310q-31 0 -59 18t-50 36t-38 18q-28 0 -41.5 -18t-7.5 -53h-61q-10 58 18 94t82 36q34 0 79 -36t68 -36q29 0 43 18t7 53h60q10 -59 -18 -94.5t-82 -35.5zM314 140q-31 0 -59 18t-50 36t-38 18q-28 0 -41.5 -18t-7.5 -53h-61q-10 58 18 94t82 36q34 0 79 -36t68 -36
q29 0 43 18t7 53h60q10 -59 -18 -94.5t-82 -35.5z" />
    <glyph glyph-name="notequal" unicode="&#x2260;" horiz-adv-x="580" 
d="M132 20l53 139h-126l-15 83h172l65 170h-268l-13 83h313l47 125h81l-47 -125h126l13 -83h-171l-65 -170h267l15 -83h-313l-53 -139h-81z" />
    <glyph glyph-name="lessequal" unicode="&#x2264;" horiz-adv-x="600" 
d="M331 204l-274 141l224 141h201l-234 -141l284 -141h-201zM141 0l-8 43h475l8 -43h-475z" />
    <glyph glyph-name="greaterequal" unicode="&#x2265;" horiz-adv-x="600" 
d="M130 204l234 141l-284 141h201l274 -141l-224 -141h-201zM118 0l-8 43h475l8 -43h-475z" />
    <glyph glyph-name="lozenge" unicode="&#x25ca;" horiz-adv-x="726" 
d="M280 0l-250 250l162 250h254l250 -250l-162 -250h-254zM402 27l152 223l-230 223l-152 -223z" />
    <glyph glyph-name="A.001" horiz-adv-x="1083" 
d="M97 0l280 700h207l523 -700h-139l-115 163h-546l-59 -163h-151zM336 245h458l-304 428z" />
    <glyph glyph-name="B.001" horiz-adv-x="926" 
d="M152 0l-122 700h513q105 0 173.5 -49.5t81.5 -124.5q15 -88 -36.5 -126.5t-159.5 -38.5h-41l2 -11h63q106 0 173.5 -43t82.5 -132q14 -77 -40 -126t-155 -49h-535zM197 390h353q84 0 117.5 24t25.5 73q-11 62 -53.5 91t-126.5 29h-354zM250 94h374q84 0 117 29.5t22 92.5
q-10 55 -52 80t-126 25h-376z" />
    <glyph glyph-name="C.001" horiz-adv-x="858" 
d="M582 -16q-224 0 -365 99t-171 267t77 267t331 99q174 -1 304 -54l17 -103q-137 64 -305 64q-162 0 -248 -74t-64 -199t134 -199t273 -74q169 0 285 64l18 -103q-112 -53 -286 -54z" />
    <glyph glyph-name="G.001" horiz-adv-x="871" 
d="M580 -16q-224 0 -365 99t-171 267t77 267t331 99q169 -1 299 -54l18 -103q-139 64 -300 64q-162 0 -248.5 -73.5t-64.5 -199.5q22 -125 134 -199t274 -74q106 0 196 29l-33 192h-389l-15 84h498l57 -324q-164 -73 -298 -74z" />
    <glyph glyph-name="J.001" horiz-adv-x="688" 
d="M341 -16q-88 1 -148 12.5t-135 41.5l-19 113q164 -74 285 -74q111 0 148.5 60t12.5 202l-63 361h112l63 -361q34 -187 -26 -271t-230 -84z" />
    <glyph glyph-name="K.001" horiz-adv-x="938" 
d="M152 0l-122 700h112l81 -464l351 464h188l-221 -239l395 -461h-146l-316 389q-157 -172 -237 -229l27 -160h-112z" />
    <glyph glyph-name="R.001" horiz-adv-x="909" 
d="M152 0l-122 700h509q106 0 174 -51t83 -134q14 -80 -38.5 -115.5t-159.5 -35.5h-72l2 -11q97 0 198.5 -85.5t221.5 -267.5h-131q-129 176 -217 250t-170 74h-222l56 -324h-112zM190 424h351q88 0 120 19.5t24 67.5q-9 53 -48 74t-127 21h-353z" />
    <glyph glyph-name="S.001" horiz-adv-x="890" 
d="M498 -15q-107 1 -211 24.5t-163 49.5l-20 106q62 -30 172.5 -58.5t194.5 -28.5q163 0 232.5 23.5t60.5 76.5q-7 41 -50 68t-106 40t-138 22.5t-150.5 21t-139 30t-108 55t-53.5 90.5q-13 72 36 121t131 69.5t188 19.5q227 -2 356 -54l18 -103q-61 28 -164.5 46t-183.5 18
q-154 0 -218 -24t-54 -78q8 -48 83.5 -74t178.5 -38.5t207 -28.5t182.5 -59t91.5 -115q9 -50 -9.5 -89.5t-55 -63.5t-89 -40t-106 -21.5t-113.5 -5.5z" />
    <glyph glyph-name="i.loclTRK" horiz-adv-x="176" 
d="M32 535q-44 0 -80 23.5t-49 61.5t6 61.5t63 23.5q47 0 81 -23t48 -62t-4 -62t-65 -23zM76 0l-88 500h112l88 -500h-112z" />
    <glyph glyph-name="c.001" horiz-adv-x="693" 
d="M394 -16q-136 0 -231.5 73t-116.5 193t48.5 193t205.5 73q135 0 229 -65t113 -172h-114q-17 72 -74.5 113t-138.5 41q-86 0 -129 -49t-28 -134t74.5 -134t145.5 -49q82 0 126 43t34 119h113q20 -110 -50.5 -177.5t-206.5 -67.5z" />
    <glyph glyph-name="e.001" horiz-adv-x="696" 
d="M394 -16q-136 0 -231.5 73t-116.5 193t48.5 193t205.5 73q135 0 228.5 -64t114.5 -174l12 -71h-485q26 -64 84.5 -101.5t133.5 -37.5q66 0 110 29.5t48 77.5h118q-2 -88 -70 -139.5t-200 -51.5zM156 266l372 7q-16 72 -74 115.5t-139 43.5t-124 -45.5t-35 -120.5z" />
    <glyph glyph-name="g.001" horiz-adv-x="761" 
d="M430 -200q-155 -2 -243.5 49t-104.5 141h112q9 -52 59 -78t157 -26q138 0 176 49t12 196q-13 -68 -71 -109t-144 -41q-129 0 -225.5 76t-117.5 197q-20 114 45.5 188t172.5 74q101 0 184.5 -45t118.5 -133h12l-45 162h101l70 -395q28 -160 -35 -231.5t-234 -73.5zM383 67
q81 0 130 52t36 133q-14 79 -81.5 130t-149.5 51q-89 0 -133.5 -50t-30.5 -131q14 -83 77 -134t152 -51z" />
    <glyph glyph-name="zero.tf" horiz-adv-x="956" 
d="M542 -16q-202 0 -334 99.5t-162 266.5q-29 166 69.5 266t298.5 100q203 0 335 -98.5t162 -267.5q30 -167 -68 -266.5t-301 -99.5zM539 11q197 0 284 92.5t61 246.5q-26 153 -147 246t-318 93q-190 0 -280.5 -93.5t-65.5 -245.5q25 -151 150 -245t316 -94zM518 123
q-126 0 -211 62t-103 165q-19 103 44.5 165.5t189.5 62.5q127 0 212 -62.5t103 -165.5t-45 -165t-190 -62zM507 181q93 0 141.5 46t35.5 123q-14 78 -78.5 124t-157.5 46q-92 0 -140.5 -46t-34.5 -124t78 -123.5t156 -45.5z" />
    <glyph glyph-name="one.tf" horiz-adv-x="956" 
d="M542 -16q-202 0 -334 99.5t-162 266.5q-29 166 69.5 266t298.5 100q203 0 335 -98.5t162 -267.5q30 -167 -68 -266.5t-301 -99.5zM538 11q197 0 284 92.5t61 246.5q-26 153 -147 246t-318 93q-190 0 -280.5 -93.5t-65.5 -245.5q25 -151 150 -245t316 -94zM507 133
l-63 361l-181 -134l-12 69l218 139h32l76 -435h-70z" />
    <glyph glyph-name="two.tf" horiz-adv-x="956" 
d="M542 -16q-202 0 -334 99.5t-162 266.5q-30 165 69.5 265.5t298.5 100.5q203 0 335 -98.5t162 -267.5q30 -167 -68 -266.5t-301 -99.5zM539 11q197 0 284 92.5t61 246.5q-26 153 -147 246t-318 93q-190 0 -280.5 -93.5t-65.5 -245.5q25 -151 150 -245t316 -94zM291 136
l-7 37q20 12 64.5 36.5t71.5 40t66.5 39t63.5 42t47 39.5t32.5 39.5t6.5 35.5q-7 42 -49 59.5t-137 17.5q-46 0 -114 -8t-86 -16l-11 60q60 20 207 22q123 1 184.5 -25.5t74.5 -97.5q8 -48 -38.5 -101.5t-110.5 -92.5t-137 -69h314l10 -58h-452z" />
    <glyph glyph-name="three.tf" horiz-adv-x="956" 
d="M542 -16q-202 0 -334 99.5t-162 266.5q-30 165 69.5 265.5t298.5 100.5q203 0 335 -98.5t162 -267.5q30 -167 -68 -266.5t-301 -99.5zM538 11q197 0 284 92.5t61 246.5q-26 153 -147 246t-318 93q-190 0 -280.5 -93.5t-65.5 -245.5q25 -151 150 -245t316 -94zM518 123
q-131 2 -207 27l-10 58q67 -27 200 -27q103 0 148.5 15t40.5 45q-8 43 -85.5 60.5t-301.5 27.5l-7 44q139 5 216 15.5t104 25.5t23 39q-11 67 -197 67q-127 0 -191 -27l-10 57q71 28 197 28q56 0 95.5 -4t78 -16t61 -36.5t29.5 -62.5q4 -25 -5.5 -44.5t-31 -30t-41.5 -17.5
t-48 -9t-37.5 -2.5t-22.5 -0.5l1 -6h17t26 -0.5t30 -2t34.5 -5t33.5 -8.5t33 -13t27.5 -18.5t22 -26t11.5 -33.5q9 -47 -20.5 -74.5t-81 -36.5t-132.5 -8z" />
    <glyph glyph-name="four.tf" horiz-adv-x="956" 
d="M542 -16q-202 0 -334 99.5t-162 266.5q-30 165 69.5 265.5t298.5 100.5q203 0 335 -98.5t162 -267.5q30 -167 -68 -266.5t-301 -99.5zM538 11q197 0 284 92.5t61 246.5q-26 153 -147 246t-318 93q-190 0 -280.5 -93.5t-65.5 -245.5q25 -151 150 -245t316 -94zM610 133
l-15 82h-378l-7 41l275 312h118l52 -295h69l10 -58h-69l14 -82h-69zM296 273h289l-48 273z" />
    <glyph glyph-name="five.tf" horiz-adv-x="956" 
d="M542 -16q-202 0 -334 99.5t-162 266.5q-30 165 69.5 265.5t298.5 100.5q203 0 335 -98.5t162 -267.5q30 -167 -68 -266.5t-301 -99.5zM539 11q197 0 284 92.5t61 246.5q-26 153 -147 246t-318 93q-190 0 -280.5 -93.5t-65.5 -245.5q25 -151 150 -245t316 -94zM507 119
q-47 0 -109 7t-92 19l-10 63q25 -12 89.5 -21.5t110.5 -9.5q100 0 141 23.5t31 75.5q-6 41 -45 58t-112 17q-110 0 -208 -49l-46 262h406l11 -58h-353l22 -123q78 28 176 28q195 0 220 -142q13 -71 -51 -110.5t-181 -39.5z" />
    <glyph glyph-name="six.tf" horiz-adv-x="956" 
d="M542 -16q-202 0 -334 99.5t-162 266.5q-30 165 69.5 265.5t298.5 100.5q203 0 335 -98.5t162 -267.5q30 -167 -68 -266.5t-301 -99.5zM539 11q197 0 284 92.5t61 246.5q-26 153 -147 246t-318 93q-190 0 -280.5 -93.5t-65.5 -245.5q25 -151 150 -245t316 -94zM521 126
q-118 0 -197 58t-99 174q-18 105 46 162t188 57q102 0 182 -36l12 -66q-87 44 -195 44q-83 0 -129.5 -45t-33.5 -116l3 -17q82 78 201 78q101 0 157.5 -42.5t66.5 -111.5q10 -64 -43.5 -101.5t-158.5 -37.5zM505 183q83 0 119 21t28 69q-16 90 -160 90q-52 0 -104 -22
t-71 -58q23 -53 68.5 -76.5t119.5 -23.5z" />
    <glyph glyph-name="seven.tf" horiz-adv-x="956" 
d="M542 -16q-202 0 -334 99.5t-162 266.5q-30 165 69.5 265.5t298.5 100.5q203 0 335 -98.5t162 -267.5q30 -167 -68 -266.5t-301 -99.5zM538 11q197 0 284 92.5t61 246.5q-26 153 -147 246t-318 93q-190 0 -280.5 -93.5t-65.5 -245.5q25 -151 150 -245t316 -94zM401 133
l229 377h-396l-10 58h482l4 -28l-225 -407h-84z" />
    <glyph glyph-name="eight.tf" horiz-adv-x="956" 
d="M542 -16q-202 0 -334 99.5t-162 266.5q-30 165 69.5 265.5t298.5 100.5q203 0 335 -98.5t162 -267.5q30 -167 -68 -266.5t-301 -99.5zM539 11q197 0 284 92.5t61 246.5q-26 153 -147 246t-318 93q-190 0 -280.5 -93.5t-65.5 -245.5q25 -151 150 -245t316 -94zM504 120
q-236 0 -259 126q-5 26 4.5 45t30 30t40.5 16.5t45 8.5q-128 22 -144 109q-10 58 44 89t159 31q98 0 166.5 -31t77.5 -89q9 -49 -23.5 -74.5t-81.5 -34.5q140 -17 155 -100q10 -60 -49 -94t-165 -32zM460 375q79 0 113 16t27 53q-5 32 -50 52t-115 20t-108.5 -20t-33.5 -52
q12 -69 167 -69zM494 179q75 0 117 18.5t36 51.5q-12 68 -178 68q-85 0 -122.5 -16.5t-32.5 -51.5q7 -33 56 -51.5t124 -18.5z" />
    <glyph glyph-name="nine.tf" horiz-adv-x="956" 
d="M542 -16q-202 0 -334 99.5t-162 266.5q-30 165 69.5 265.5t298.5 100.5q203 0 335 -98.5t162 -267.5q30 -167 -68 -266.5t-301 -99.5zM539 11q197 0 284 92.5t61 246.5q-26 153 -147 246t-318 93q-190 0 -280.5 -93.5t-65.5 -245.5q25 -151 150 -245t316 -94zM444 576
q118 0 196.5 -58.5t98.5 -173.5q19 -105 -45 -162t-189 -57q-102 0 -182 36l-11 66q84 -44 195 -44q83 0 129.5 45t33.5 116l-3 17q-33 -32 -85 -55t-116 -23q-100 0 -157.5 42.5t-67.5 111.5q-9 64 44.5 101.5t158.5 37.5zM460 519q-83 0 -119 -21t-28 -69q15 -90 160 -90
q52 0 104 22t71 58q-24 53 -69 76.5t-119 23.5z" />
    <glyph glyph-name="dollar.001" horiz-adv-x="863" 
d="M417 -110l-19 100q-166 18 -283 69l-19 106q64 -30 173 -58.5t193 -28.5q163 0 233 23.5t61 76.5q-7 41 -50 68t-106 40t-138 22.5t-150.5 21t-139.5 30t-108 55t-54 90.5q-11 61 23 106t94.5 68t144.5 31l-23 125h157l23 -122q181 -7 294 -52l17 -103q-61 28 -164 46
t-183 18q-154 0 -218.5 -24t-54.5 -78q6 -35 48 -58.5t104.5 -35.5t137.5 -21t150.5 -22t139.5 -32t108.5 -56t53.5 -90q10 -55 -12 -97t-68.5 -66.5t-102.5 -37.5t-123 -17l18 -97h-157z" />
    <glyph glyph-name="Euro.001" horiz-adv-x="927" 
d="M666 -16q-179 0 -307 64.5t-188 179.5h-120l-17 103h100l-4 19l-3 21h-100l-19 103h121q21 114 126 178t283 64q174 -1 304 -54l17 -103q-145 64 -304 64q-117 0 -196 -39t-107 -110h466l19 -103h-498l3 -21q2 -14 4 -19h498l17 -103h-467q53 -72 146 -111.5t210 -39.5
q169 0 285 64l17 -103q-112 -53 -286 -54z" />
    <glyph glyph-name="brevecombcy" 
d="M-227 551q-93 0 -174.5 41t-117.5 108h105q22 -40 62.5 -60.5t88.5 -20.5q102 0 67 81h103q36 -68 1 -108.5t-135 -40.5z" />
    </font>
</defs>
</svg>
